%TF.GenerationSoftware,KiCad,Pcbnew,7.0.2*%
%TF.CreationDate,2023-05-21T11:23:19+02:00*%
%TF.ProjectId,sdrt41-tx,73647274-3431-42d7-9478-2e6b69636164,rev?*%
%TF.SameCoordinates,Original*%
%TF.FileFunction,Copper,L2,Inr*%
%TF.FilePolarity,Positive*%
%FSLAX46Y46*%
G04 Gerber Fmt 4.6, Leading zero omitted, Abs format (unit mm)*
G04 Created by KiCad (PCBNEW 7.0.2) date 2023-05-21 11:23:19*
%MOMM*%
%LPD*%
G01*
G04 APERTURE LIST*
%TA.AperFunction,ComponentPad*%
%ADD10R,2.800000X2.800000*%
%TD*%
%TA.AperFunction,ComponentPad*%
%ADD11C,2.800000*%
%TD*%
%TA.AperFunction,ComponentPad*%
%ADD12C,1.200000*%
%TD*%
%TA.AperFunction,ComponentPad*%
%ADD13C,6.400000*%
%TD*%
%TA.AperFunction,ComponentPad*%
%ADD14C,0.800000*%
%TD*%
%TA.AperFunction,ComponentPad*%
%ADD15C,2.050000*%
%TD*%
%TA.AperFunction,ComponentPad*%
%ADD16C,2.250000*%
%TD*%
%TA.AperFunction,ComponentPad*%
%ADD17R,1.700000X1.700000*%
%TD*%
%TA.AperFunction,ComponentPad*%
%ADD18O,1.700000X1.700000*%
%TD*%
%TA.AperFunction,ComponentPad*%
%ADD19C,3.000000*%
%TD*%
%TA.AperFunction,ViaPad*%
%ADD20C,0.800000*%
%TD*%
G04 APERTURE END LIST*
D10*
%TO.N,GND*%
%TO.C,J1*%
X83190400Y-81849600D03*
D11*
%TO.N,Net-(J1-Pin_2)*%
X83190400Y-76849600D03*
%TD*%
D12*
%TO.N,Net-(J1-Pin_2)*%
%TO.C,C4*%
X92980000Y-74574400D03*
%TO.N,GND*%
X94980000Y-74574400D03*
%TD*%
D13*
%TO.N,GND*%
%TO.C,H1*%
X83600000Y-116350000D03*
D14*
X81902944Y-114652944D03*
X83600000Y-118750000D03*
X81200000Y-116350000D03*
X86000000Y-116350000D03*
X83600000Y-113950000D03*
X85297056Y-118047056D03*
X85297056Y-114652944D03*
X81902944Y-118047056D03*
%TD*%
%TO.N,GND*%
%TO.C,H4*%
X81902944Y-58119944D03*
X83600000Y-57417000D03*
X85297056Y-58119944D03*
X83600000Y-62217000D03*
X81200000Y-59817000D03*
X81902944Y-61514056D03*
X86000000Y-59817000D03*
X85297056Y-61514056D03*
D13*
X83600000Y-59817000D03*
%TD*%
D15*
%TO.N,Net-(J2-In)*%
%TO.C,J2*%
X84226400Y-90728800D03*
D16*
%TO.N,GND*%
X81686400Y-88188800D03*
X86766400Y-93268800D03*
X81686400Y-93268800D03*
X86766400Y-88188800D03*
%TD*%
D17*
%TO.N,GND*%
%TO.C,J4*%
X112649000Y-59055000D03*
D18*
%TO.N,SDA*%
X115189000Y-59055000D03*
%TO.N,SCL*%
X117729000Y-59055000D03*
%TO.N,unconnected-(J4-Pin_4-Pad4)*%
X120269000Y-59055000D03*
%TO.N,+5V*%
X122809000Y-59055000D03*
%TD*%
D15*
%TO.N,Net-(J5-In)*%
%TO.C,J5*%
X98700000Y-114400000D03*
D16*
%TO.N,GND*%
X101240000Y-116940000D03*
X96160000Y-116940000D03*
X96160000Y-111860000D03*
X101240000Y-111860000D03*
%TD*%
D15*
%TO.N,Net-(J3-In)*%
%TO.C,J3*%
X84175600Y-105206800D03*
D16*
%TO.N,GND*%
X81635600Y-102666800D03*
X86715600Y-107746800D03*
X81635600Y-107746800D03*
X86715600Y-102666800D03*
%TD*%
D13*
%TO.N,GND*%
%TO.C,H2*%
X132200000Y-59817000D03*
D14*
X129800000Y-59817000D03*
X130502944Y-61514056D03*
X132200000Y-57417000D03*
X130502944Y-58119944D03*
X132200000Y-62217000D03*
X134600000Y-59817000D03*
X133897056Y-61514056D03*
X133897056Y-58119944D03*
%TD*%
%TO.N,GND*%
%TO.C,H3*%
X132200000Y-118750000D03*
X129800000Y-116350000D03*
X132200000Y-113950000D03*
X133897056Y-114652944D03*
D13*
X132200000Y-116350000D03*
D14*
X134600000Y-116350000D03*
X133897056Y-118047056D03*
X130502944Y-118047056D03*
X130502944Y-114652944D03*
%TD*%
D19*
%TO.N,GND*%
%TO.C,T1*%
X105947500Y-108250000D03*
%TO.N,Net-(J5-In)*%
X105947500Y-115250000D03*
%TO.N,Net-(T1-SA)*%
X121227500Y-116540000D03*
%TO.N,Net-(T1-SC)*%
X121107500Y-111810000D03*
%TO.N,Net-(T1-SB)*%
X120917500Y-107210000D03*
%TD*%
D12*
%TO.N,+5V*%
%TO.C,C1*%
X98822000Y-67818000D03*
%TO.N,GND*%
X100822000Y-67818000D03*
%TD*%
D20*
%TO.N,+3.3V*%
X120904000Y-61976000D03*
X111760000Y-61976000D03*
%TO.N,+5V*%
X131775200Y-82092800D03*
X113030000Y-86614000D03*
X96266000Y-94742000D03*
%TO.N,GND*%
X134620000Y-101600000D03*
X100330000Y-95250000D03*
X130683000Y-97089000D03*
X106680000Y-85090000D03*
X134620000Y-91440000D03*
X99822000Y-87630000D03*
X93980000Y-107950000D03*
X127000000Y-95250000D03*
X123342400Y-94437200D03*
X129438400Y-104749600D03*
X101600000Y-58420000D03*
X90170000Y-107950000D03*
X101600000Y-73660000D03*
X82550000Y-64770000D03*
X111760000Y-95250000D03*
X104140000Y-73660000D03*
X107518200Y-92862400D03*
X134670800Y-88036400D03*
X99060000Y-73660000D03*
X133223000Y-97089000D03*
X113030000Y-104140000D03*
X91440000Y-116840000D03*
X97790000Y-87630000D03*
X101600000Y-107950000D03*
X109220000Y-104140000D03*
X106172000Y-88392000D03*
X134620000Y-96520000D03*
X134620000Y-81280000D03*
X90170000Y-64770000D03*
X109220000Y-64770000D03*
X134620000Y-68580000D03*
X91440000Y-111760000D03*
X97790000Y-107950000D03*
X114300000Y-76200000D03*
X134620000Y-111760000D03*
X104140000Y-85090000D03*
X126699000Y-68600000D03*
X98298000Y-97536000D03*
X105410000Y-104140000D03*
X109220000Y-76200000D03*
X127482600Y-87821100D03*
X86360000Y-64770000D03*
X114173000Y-84023200D03*
X121492000Y-74696000D03*
X126365000Y-84140000D03*
X107950000Y-95250000D03*
X114300000Y-64770000D03*
X134620000Y-106680000D03*
X116840000Y-104140000D03*
X115570000Y-95250000D03*
X91440000Y-58420000D03*
X134620000Y-76200000D03*
X95250000Y-64770000D03*
X96520000Y-58420000D03*
X124460000Y-95250000D03*
%TO.N,+3.3V*%
X109245000Y-70358000D03*
X126343500Y-70632000D03*
%TO.N,Net-(U3A--)*%
X100037500Y-85550000D03*
X98425000Y-91440000D03*
%TO.N,Net-(C15-Pad1)*%
X91850000Y-92900000D03*
X102870000Y-94234000D03*
%TO.N,Net-(U6-1B4)*%
X123050000Y-86050000D03*
X126060200Y-92837000D03*
X124866400Y-90043000D03*
X104937500Y-79050000D03*
%TO.N,Net-(U6-1B1)*%
X120712500Y-82250000D03*
X126275489Y-85941511D03*
X127025400Y-89535000D03*
%TO.N,Net-(U3A-+)*%
X114833400Y-92837000D03*
X109675000Y-91535000D03*
X102936000Y-88432000D03*
%TO.N,Net-(U6-1B2)*%
X133223000Y-95189000D03*
X130759200Y-90881200D03*
X126720600Y-90779600D03*
%TO.N,Net-(U6-1B3)*%
X111162500Y-97900000D03*
X121894600Y-90144600D03*
X130962400Y-91998800D03*
%TO.N,Net-(U6-S1)*%
X120984000Y-76728000D03*
X125831600Y-89399500D03*
%TO.N,Net-(U6-S0)*%
X130733800Y-88671400D03*
X123651000Y-76855000D03*
%TD*%
%TA.AperFunction,Conductor*%
%TO.N,GND*%
G36*
X81519207Y-56535002D02*
G01*
X81565700Y-56588658D01*
X81575804Y-56658932D01*
X81546310Y-56723512D01*
X81519710Y-56746673D01*
X81420267Y-56811251D01*
X81414938Y-56815123D01*
X81162086Y-57019877D01*
X82079353Y-57937144D01*
X82000489Y-57884449D01*
X81927568Y-57869944D01*
X81878320Y-57869944D01*
X81805399Y-57884449D01*
X81722704Y-57939704D01*
X81667449Y-58022399D01*
X81648046Y-58119944D01*
X81667449Y-58217489D01*
X81720143Y-58296352D01*
X80802877Y-57379086D01*
X80598123Y-57631938D01*
X80594251Y-57637267D01*
X80386169Y-57957686D01*
X80382872Y-57963397D01*
X80209421Y-58303811D01*
X80206738Y-58309838D01*
X80204613Y-58315375D01*
X80161524Y-58371800D01*
X80094769Y-58395972D01*
X80025543Y-58380217D01*
X79975824Y-58329536D01*
X79960985Y-58270297D01*
X79959942Y-56641081D01*
X79979902Y-56572947D01*
X80033527Y-56526420D01*
X80085943Y-56515000D01*
X81451086Y-56515000D01*
X81519207Y-56535002D01*
G37*
%TD.AperFunction*%
%TA.AperFunction,Conductor*%
G36*
X130119207Y-56535002D02*
G01*
X130165700Y-56588658D01*
X130175804Y-56658932D01*
X130146310Y-56723512D01*
X130119710Y-56746673D01*
X130020267Y-56811251D01*
X130014938Y-56815123D01*
X129762086Y-57019877D01*
X130679352Y-57937143D01*
X130600489Y-57884449D01*
X130527568Y-57869944D01*
X130478320Y-57869944D01*
X130405399Y-57884449D01*
X130322704Y-57939704D01*
X130267449Y-58022399D01*
X130248046Y-58119944D01*
X130267449Y-58217489D01*
X130320143Y-58296352D01*
X129402877Y-57379086D01*
X129198123Y-57631938D01*
X129194251Y-57637267D01*
X128986169Y-57957686D01*
X128982872Y-57963397D01*
X128809421Y-58303811D01*
X128806739Y-58309835D01*
X128669829Y-58666501D01*
X128667787Y-58672784D01*
X128568905Y-59041815D01*
X128567534Y-59048265D01*
X128507766Y-59425629D01*
X128507079Y-59432167D01*
X128487084Y-59813699D01*
X128487084Y-59820300D01*
X128507079Y-60201832D01*
X128507766Y-60208370D01*
X128567534Y-60585734D01*
X128568905Y-60592184D01*
X128667787Y-60961215D01*
X128669829Y-60967498D01*
X128806739Y-61324164D01*
X128809421Y-61330188D01*
X128982873Y-61670605D01*
X128986169Y-61676314D01*
X129194248Y-61996727D01*
X129198130Y-62002070D01*
X129402876Y-62254911D01*
X129402877Y-62254912D01*
X130320147Y-61337641D01*
X130267449Y-61416511D01*
X130248046Y-61514056D01*
X130267449Y-61611601D01*
X130322704Y-61694296D01*
X130405399Y-61749551D01*
X130478320Y-61764056D01*
X130527568Y-61764056D01*
X130600489Y-61749551D01*
X130679349Y-61696857D01*
X129762086Y-62614121D01*
X129762087Y-62614122D01*
X130014929Y-62818869D01*
X130020272Y-62822751D01*
X130340685Y-63030830D01*
X130346394Y-63034126D01*
X130686811Y-63207578D01*
X130692835Y-63210260D01*
X131049501Y-63347170D01*
X131055784Y-63349212D01*
X131424815Y-63448094D01*
X131431265Y-63449465D01*
X131808629Y-63509233D01*
X131815167Y-63509920D01*
X132196699Y-63529916D01*
X132203301Y-63529916D01*
X132584832Y-63509920D01*
X132591370Y-63509233D01*
X132968734Y-63449465D01*
X132975184Y-63448094D01*
X133344215Y-63349212D01*
X133350498Y-63347170D01*
X133707164Y-63210260D01*
X133713188Y-63207578D01*
X134053605Y-63034126D01*
X134059314Y-63030830D01*
X134379728Y-62822751D01*
X134385064Y-62818874D01*
X134637912Y-62614121D01*
X133720646Y-61696855D01*
X133799511Y-61749551D01*
X133872432Y-61764056D01*
X133921680Y-61764056D01*
X133994601Y-61749551D01*
X134077296Y-61694296D01*
X134132551Y-61611601D01*
X134151954Y-61514056D01*
X134132551Y-61416511D01*
X134079855Y-61337646D01*
X134997121Y-62254912D01*
X135201874Y-62002064D01*
X135205751Y-61996728D01*
X135413830Y-61676314D01*
X135417126Y-61670605D01*
X135590578Y-61330188D01*
X135593257Y-61324170D01*
X135595926Y-61317216D01*
X135639005Y-61260783D01*
X135705756Y-61236599D01*
X135774985Y-61252342D01*
X135824713Y-61303015D01*
X135839562Y-61362336D01*
X135848614Y-114828200D01*
X135828623Y-114896324D01*
X135774976Y-114942826D01*
X135704703Y-114952942D01*
X135640118Y-114923459D01*
X135604983Y-114873375D01*
X135593260Y-114842835D01*
X135590578Y-114836811D01*
X135417127Y-114496397D01*
X135413830Y-114490686D01*
X135205753Y-114170275D01*
X135201865Y-114164924D01*
X134997122Y-113912087D01*
X134997121Y-113912086D01*
X134079858Y-114829348D01*
X134132551Y-114750489D01*
X134151954Y-114652944D01*
X134132551Y-114555399D01*
X134077296Y-114472704D01*
X133994601Y-114417449D01*
X133921680Y-114402944D01*
X133872432Y-114402944D01*
X133799511Y-114417449D01*
X133720641Y-114470147D01*
X134637912Y-113552877D01*
X134637911Y-113552876D01*
X134385070Y-113348130D01*
X134379727Y-113344248D01*
X134059314Y-113136169D01*
X134053605Y-113132873D01*
X133713188Y-112959421D01*
X133707164Y-112956739D01*
X133350498Y-112819829D01*
X133344215Y-112817787D01*
X132975184Y-112718905D01*
X132968734Y-112717534D01*
X132591370Y-112657766D01*
X132584832Y-112657079D01*
X132203301Y-112637084D01*
X132196699Y-112637084D01*
X131815167Y-112657079D01*
X131808629Y-112657766D01*
X131431265Y-112717534D01*
X131424815Y-112718905D01*
X131055784Y-112817787D01*
X131049501Y-112819829D01*
X130692835Y-112956739D01*
X130686811Y-112959421D01*
X130346397Y-113132872D01*
X130340686Y-113136169D01*
X130020267Y-113344251D01*
X130014938Y-113348123D01*
X129762086Y-113552877D01*
X130679352Y-114470143D01*
X130600489Y-114417449D01*
X130527568Y-114402944D01*
X130478320Y-114402944D01*
X130405399Y-114417449D01*
X130322704Y-114472704D01*
X130267449Y-114555399D01*
X130248046Y-114652944D01*
X130267449Y-114750489D01*
X130320144Y-114829353D01*
X129402877Y-113912086D01*
X129198123Y-114164938D01*
X129194251Y-114170267D01*
X128986169Y-114490686D01*
X128982872Y-114496397D01*
X128809421Y-114836811D01*
X128806739Y-114842835D01*
X128669829Y-115199501D01*
X128667787Y-115205784D01*
X128568905Y-115574815D01*
X128567534Y-115581265D01*
X128507766Y-115958629D01*
X128507079Y-115965167D01*
X128487084Y-116346699D01*
X128487084Y-116353300D01*
X128507079Y-116734832D01*
X128507766Y-116741370D01*
X128567534Y-117118734D01*
X128568905Y-117125184D01*
X128667787Y-117494215D01*
X128669829Y-117500498D01*
X128806739Y-117857164D01*
X128809421Y-117863188D01*
X128982873Y-118203605D01*
X128986169Y-118209314D01*
X129194248Y-118529727D01*
X129198130Y-118535070D01*
X129402876Y-118787911D01*
X129402877Y-118787912D01*
X130320147Y-117870641D01*
X130267449Y-117949511D01*
X130248046Y-118047056D01*
X130267449Y-118144601D01*
X130322704Y-118227296D01*
X130405399Y-118282551D01*
X130478320Y-118297056D01*
X130527568Y-118297056D01*
X130600489Y-118282551D01*
X130679349Y-118229857D01*
X129762086Y-119147121D01*
X129762087Y-119147122D01*
X130014929Y-119351869D01*
X130020272Y-119355751D01*
X130340685Y-119563830D01*
X130346394Y-119567126D01*
X130686811Y-119740578D01*
X130692835Y-119743260D01*
X130844154Y-119801345D01*
X130900582Y-119844430D01*
X130924759Y-119911184D01*
X130909008Y-119980411D01*
X130858330Y-120030133D01*
X130798887Y-120044976D01*
X93257633Y-120011368D01*
X85246434Y-119939518D01*
X85178495Y-119918906D01*
X85132486Y-119864835D01*
X85123012Y-119794473D01*
X85153083Y-119730160D01*
X85190361Y-119701256D01*
X85453606Y-119567126D01*
X85459314Y-119563830D01*
X85779728Y-119355751D01*
X85785064Y-119351874D01*
X86037912Y-119147121D01*
X85120646Y-118229855D01*
X85199511Y-118282551D01*
X85272432Y-118297056D01*
X85321680Y-118297056D01*
X85394601Y-118282551D01*
X85477296Y-118227296D01*
X85532551Y-118144601D01*
X85551954Y-118047056D01*
X85532551Y-117949511D01*
X85479855Y-117870646D01*
X86397121Y-118787912D01*
X86601874Y-118535064D01*
X86605751Y-118529728D01*
X86813830Y-118209314D01*
X86817126Y-118203605D01*
X86990578Y-117863188D01*
X86993260Y-117857164D01*
X87130170Y-117500498D01*
X87132212Y-117494215D01*
X87231094Y-117125184D01*
X87232465Y-117118734D01*
X87260774Y-116939999D01*
X94521950Y-116939999D01*
X94542117Y-117196247D01*
X94602122Y-117446186D01*
X94700486Y-117683657D01*
X94834792Y-117902825D01*
X94836253Y-117904536D01*
X95406806Y-117333982D01*
X95452316Y-117419822D01*
X95572009Y-117560735D01*
X95719195Y-117672623D01*
X95765268Y-117693939D01*
X95195462Y-118263745D01*
X95195462Y-118263746D01*
X95197176Y-118265208D01*
X95416342Y-118399513D01*
X95653813Y-118497877D01*
X95903752Y-118557882D01*
X96160000Y-118578049D01*
X96416247Y-118557882D01*
X96666186Y-118497877D01*
X96903657Y-118399513D01*
X97122824Y-118265208D01*
X97124535Y-118263746D01*
X97124536Y-118263745D01*
X96555077Y-117694286D01*
X96677431Y-117620669D01*
X96811658Y-117493523D01*
X96915413Y-117340495D01*
X96916635Y-117337426D01*
X97483744Y-117904536D01*
X97483746Y-117904535D01*
X97485208Y-117902824D01*
X97619513Y-117683657D01*
X97717877Y-117446186D01*
X97777882Y-117196247D01*
X97798049Y-116940000D01*
X99601950Y-116940000D01*
X99622117Y-117196247D01*
X99682122Y-117446186D01*
X99780486Y-117683657D01*
X99914792Y-117902825D01*
X99916253Y-117904536D01*
X100486806Y-117333982D01*
X100532316Y-117419822D01*
X100652009Y-117560735D01*
X100799195Y-117672623D01*
X100845268Y-117693939D01*
X100275462Y-118263745D01*
X100275462Y-118263746D01*
X100277176Y-118265208D01*
X100496342Y-118399513D01*
X100733813Y-118497877D01*
X100983752Y-118557882D01*
X101239999Y-118578049D01*
X101496247Y-118557882D01*
X101746186Y-118497877D01*
X101983657Y-118399513D01*
X102202824Y-118265208D01*
X102204535Y-118263746D01*
X102204536Y-118263745D01*
X101635077Y-117694286D01*
X101757431Y-117620669D01*
X101891658Y-117493523D01*
X101995413Y-117340495D01*
X101996635Y-117337426D01*
X102563745Y-117904536D01*
X102563746Y-117904535D01*
X102565208Y-117902824D01*
X102699513Y-117683657D01*
X102797877Y-117446186D01*
X102857882Y-117196247D01*
X102878049Y-116939999D01*
X102857882Y-116683752D01*
X102797877Y-116433813D01*
X102699513Y-116196342D01*
X102565208Y-115977176D01*
X102563745Y-115975462D01*
X101993192Y-116546015D01*
X101947684Y-116460178D01*
X101827991Y-116319265D01*
X101680805Y-116207377D01*
X101634729Y-116186060D01*
X102204536Y-115616253D01*
X102202825Y-115614792D01*
X101983657Y-115480486D01*
X101746186Y-115382122D01*
X101496247Y-115322117D01*
X101240000Y-115301950D01*
X100983752Y-115322117D01*
X100733813Y-115382122D01*
X100496342Y-115480486D01*
X100277174Y-115614792D01*
X100275462Y-115616253D01*
X100844922Y-116185713D01*
X100722569Y-116259331D01*
X100588342Y-116386477D01*
X100484587Y-116539505D01*
X100483364Y-116542573D01*
X99916253Y-115975462D01*
X99914792Y-115977174D01*
X99780486Y-116196342D01*
X99682122Y-116433813D01*
X99622117Y-116683752D01*
X99601950Y-116940000D01*
X97798049Y-116940000D01*
X97777882Y-116683752D01*
X97717877Y-116433813D01*
X97619513Y-116196342D01*
X97485208Y-115977176D01*
X97483745Y-115975462D01*
X96913191Y-116546015D01*
X96867684Y-116460178D01*
X96747991Y-116319265D01*
X96600805Y-116207377D01*
X96554729Y-116186060D01*
X97124536Y-115616253D01*
X97122825Y-115614792D01*
X96903657Y-115480486D01*
X96666186Y-115382122D01*
X96416247Y-115322117D01*
X96159999Y-115301950D01*
X95903752Y-115322117D01*
X95653813Y-115382122D01*
X95416342Y-115480486D01*
X95197174Y-115614792D01*
X95195462Y-115616253D01*
X95764921Y-116185713D01*
X95642569Y-116259331D01*
X95508342Y-116386477D01*
X95404587Y-116539505D01*
X95403364Y-116542573D01*
X94836253Y-115975462D01*
X94834792Y-115977174D01*
X94700486Y-116196342D01*
X94602122Y-116433813D01*
X94542117Y-116683752D01*
X94521950Y-116939999D01*
X87260774Y-116939999D01*
X87292233Y-116741370D01*
X87292920Y-116734832D01*
X87312916Y-116353300D01*
X87312916Y-116346699D01*
X87292920Y-115965167D01*
X87292233Y-115958629D01*
X87232465Y-115581265D01*
X87231094Y-115574815D01*
X87132212Y-115205784D01*
X87130170Y-115199501D01*
X86993260Y-114842835D01*
X86990578Y-114836811D01*
X86817127Y-114496397D01*
X86813830Y-114490686D01*
X86754938Y-114400000D01*
X97161758Y-114400000D01*
X97180696Y-114640634D01*
X97237045Y-114875344D01*
X97310040Y-115051570D01*
X97329416Y-115098347D01*
X97455536Y-115304156D01*
X97612299Y-115487701D01*
X97795844Y-115644464D01*
X98001653Y-115770584D01*
X98224657Y-115862955D01*
X98459366Y-115919304D01*
X98700000Y-115938242D01*
X98940634Y-115919304D01*
X99175343Y-115862955D01*
X99398347Y-115770584D01*
X99604156Y-115644464D01*
X99787701Y-115487701D01*
X99944464Y-115304156D01*
X99977651Y-115250000D01*
X103934307Y-115250000D01*
X103934601Y-115254298D01*
X103950072Y-115480486D01*
X103953058Y-115524130D01*
X103953931Y-115528331D01*
X103953932Y-115528338D01*
X103978063Y-115644462D01*
X104008962Y-115793153D01*
X104010399Y-115797196D01*
X104010402Y-115797207D01*
X104099537Y-116048008D01*
X104099540Y-116048015D01*
X104100977Y-116052058D01*
X104102951Y-116055869D01*
X104102953Y-116055872D01*
X104225406Y-116292197D01*
X104225409Y-116292202D01*
X104227389Y-116296023D01*
X104385843Y-116520502D01*
X104573389Y-116721314D01*
X104786531Y-116894718D01*
X105021300Y-117037484D01*
X105273323Y-117146953D01*
X105537904Y-117221085D01*
X105810115Y-117258500D01*
X105814420Y-117258500D01*
X106080580Y-117258500D01*
X106084885Y-117258500D01*
X106357096Y-117221085D01*
X106621677Y-117146953D01*
X106873700Y-117037484D01*
X107108469Y-116894718D01*
X107321611Y-116721314D01*
X107490947Y-116540000D01*
X119214307Y-116540000D01*
X119214601Y-116544298D01*
X119226021Y-116711260D01*
X119233058Y-116814130D01*
X119233931Y-116818331D01*
X119233932Y-116818338D01*
X119259214Y-116939998D01*
X119288962Y-117083153D01*
X119290399Y-117087196D01*
X119290402Y-117087207D01*
X119379537Y-117338008D01*
X119379540Y-117338015D01*
X119380977Y-117342058D01*
X119382951Y-117345869D01*
X119382953Y-117345872D01*
X119505406Y-117582197D01*
X119505409Y-117582202D01*
X119507389Y-117586023D01*
X119665843Y-117810502D01*
X119853389Y-118011314D01*
X120066531Y-118184718D01*
X120301300Y-118327484D01*
X120553323Y-118436953D01*
X120817904Y-118511085D01*
X121090115Y-118548500D01*
X121094420Y-118548500D01*
X121360580Y-118548500D01*
X121364885Y-118548500D01*
X121637096Y-118511085D01*
X121901677Y-118436953D01*
X122153700Y-118327484D01*
X122388469Y-118184718D01*
X122601611Y-118011314D01*
X122789157Y-117810502D01*
X122947611Y-117586023D01*
X123074023Y-117342058D01*
X123166038Y-117083153D01*
X123221942Y-116814130D01*
X123240693Y-116540000D01*
X123221942Y-116265870D01*
X123166038Y-115996847D01*
X123145209Y-115938241D01*
X123075462Y-115741991D01*
X123074023Y-115737942D01*
X122947611Y-115493977D01*
X122789157Y-115269498D01*
X122601611Y-115068686D01*
X122487525Y-114975870D01*
X122391804Y-114897995D01*
X122391801Y-114897993D01*
X122388469Y-114895282D01*
X122153700Y-114752516D01*
X122149759Y-114750804D01*
X122149753Y-114750801D01*
X121905612Y-114644756D01*
X121905609Y-114644755D01*
X121901677Y-114643047D01*
X121897552Y-114641891D01*
X121897543Y-114641888D01*
X121641242Y-114570076D01*
X121641232Y-114570074D01*
X121637096Y-114568915D01*
X121632835Y-114568329D01*
X121632824Y-114568327D01*
X121369153Y-114532086D01*
X121369143Y-114532085D01*
X121364885Y-114531500D01*
X121090115Y-114531500D01*
X121085857Y-114532085D01*
X121085846Y-114532086D01*
X120822175Y-114568327D01*
X120822161Y-114568329D01*
X120817904Y-114568915D01*
X120813769Y-114570073D01*
X120813757Y-114570076D01*
X120557456Y-114641888D01*
X120557442Y-114641892D01*
X120553323Y-114643047D01*
X120549395Y-114644753D01*
X120549387Y-114644756D01*
X120305246Y-114750801D01*
X120305233Y-114750807D01*
X120301300Y-114752516D01*
X120297629Y-114754748D01*
X120297622Y-114754752D01*
X120070204Y-114893048D01*
X120070199Y-114893050D01*
X120066531Y-114895282D01*
X120063204Y-114897988D01*
X120063195Y-114897995D01*
X119856725Y-115065971D01*
X119856717Y-115065978D01*
X119853389Y-115068686D01*
X119850457Y-115071824D01*
X119850452Y-115071830D01*
X119668782Y-115266350D01*
X119668774Y-115266358D01*
X119665843Y-115269498D01*
X119663363Y-115273010D01*
X119663360Y-115273015D01*
X119509875Y-115490454D01*
X119509870Y-115490462D01*
X119507389Y-115493977D01*
X119505413Y-115497790D01*
X119505406Y-115497802D01*
X119382953Y-115734127D01*
X119382949Y-115734136D01*
X119380977Y-115737942D01*
X119379542Y-115741978D01*
X119379537Y-115741991D01*
X119290402Y-115992792D01*
X119290397Y-115992807D01*
X119288962Y-115996847D01*
X119288087Y-116001054D01*
X119288087Y-116001057D01*
X119233932Y-116261661D01*
X119233930Y-116261670D01*
X119233058Y-116265870D01*
X119232764Y-116270157D01*
X119232764Y-116270163D01*
X119224808Y-116386477D01*
X119214307Y-116540000D01*
X107490947Y-116540000D01*
X107509157Y-116520502D01*
X107667611Y-116296023D01*
X107794023Y-116052058D01*
X107886038Y-115793153D01*
X107941942Y-115524130D01*
X107960693Y-115250000D01*
X107941942Y-114975870D01*
X107886038Y-114706847D01*
X107863363Y-114643047D01*
X107795462Y-114451991D01*
X107794023Y-114447942D01*
X107667611Y-114203977D01*
X107509157Y-113979498D01*
X107321611Y-113778686D01*
X107318274Y-113775971D01*
X107111804Y-113607995D01*
X107111801Y-113607993D01*
X107108469Y-113605282D01*
X106873700Y-113462516D01*
X106869759Y-113460804D01*
X106869753Y-113460801D01*
X106625612Y-113354756D01*
X106625609Y-113354755D01*
X106621677Y-113353047D01*
X106617552Y-113351891D01*
X106617543Y-113351888D01*
X106361242Y-113280076D01*
X106361232Y-113280074D01*
X106357096Y-113278915D01*
X106352835Y-113278329D01*
X106352824Y-113278327D01*
X106089153Y-113242086D01*
X106089143Y-113242085D01*
X106084885Y-113241500D01*
X105810115Y-113241500D01*
X105805857Y-113242085D01*
X105805846Y-113242086D01*
X105542175Y-113278327D01*
X105542161Y-113278329D01*
X105537904Y-113278915D01*
X105533769Y-113280073D01*
X105533757Y-113280076D01*
X105277456Y-113351888D01*
X105277442Y-113351892D01*
X105273323Y-113353047D01*
X105269395Y-113354753D01*
X105269387Y-113354756D01*
X105025246Y-113460801D01*
X105025233Y-113460807D01*
X105021300Y-113462516D01*
X105017629Y-113464748D01*
X105017622Y-113464752D01*
X104790204Y-113603048D01*
X104790199Y-113603050D01*
X104786531Y-113605282D01*
X104783204Y-113607988D01*
X104783195Y-113607995D01*
X104576725Y-113775971D01*
X104576717Y-113775978D01*
X104573389Y-113778686D01*
X104570457Y-113781824D01*
X104570452Y-113781830D01*
X104388782Y-113976350D01*
X104388774Y-113976358D01*
X104385843Y-113979498D01*
X104383363Y-113983010D01*
X104383360Y-113983015D01*
X104229875Y-114200454D01*
X104229870Y-114200462D01*
X104227389Y-114203977D01*
X104225413Y-114207790D01*
X104225406Y-114207802D01*
X104102953Y-114444127D01*
X104102949Y-114444136D01*
X104100977Y-114447942D01*
X104099542Y-114451978D01*
X104099537Y-114451991D01*
X104010402Y-114702792D01*
X104010397Y-114702807D01*
X104008962Y-114706847D01*
X104008087Y-114711054D01*
X104008087Y-114711057D01*
X103953932Y-114971661D01*
X103953930Y-114971670D01*
X103953058Y-114975870D01*
X103934307Y-115250000D01*
X99977651Y-115250000D01*
X100070584Y-115098347D01*
X100162955Y-114875343D01*
X100219304Y-114640634D01*
X100238242Y-114400000D01*
X100219304Y-114159366D01*
X100162955Y-113924657D01*
X100070584Y-113701653D01*
X99944464Y-113495844D01*
X99787701Y-113312299D01*
X99604156Y-113155536D01*
X99398347Y-113029416D01*
X99229364Y-112959421D01*
X99175344Y-112937045D01*
X98940634Y-112880696D01*
X98700000Y-112861758D01*
X98459365Y-112880696D01*
X98224655Y-112937045D01*
X98001654Y-113029415D01*
X97924029Y-113076984D01*
X97795844Y-113155536D01*
X97612299Y-113312299D01*
X97522127Y-113417877D01*
X97455537Y-113495843D01*
X97329415Y-113701654D01*
X97237045Y-113924655D01*
X97180696Y-114159365D01*
X97161758Y-114400000D01*
X86754938Y-114400000D01*
X86605753Y-114170275D01*
X86601865Y-114164924D01*
X86397122Y-113912087D01*
X86397121Y-113912086D01*
X85479858Y-114829348D01*
X85532551Y-114750489D01*
X85551954Y-114652944D01*
X85532551Y-114555399D01*
X85477296Y-114472704D01*
X85394601Y-114417449D01*
X85321680Y-114402944D01*
X85272432Y-114402944D01*
X85199511Y-114417449D01*
X85120642Y-114470147D01*
X86037912Y-113552877D01*
X86037911Y-113552876D01*
X85785070Y-113348130D01*
X85779727Y-113344248D01*
X85459314Y-113136169D01*
X85453605Y-113132873D01*
X85113188Y-112959421D01*
X85107164Y-112956739D01*
X84750498Y-112819829D01*
X84744215Y-112817787D01*
X84375184Y-112718905D01*
X84368734Y-112717534D01*
X83991370Y-112657766D01*
X83984832Y-112657079D01*
X83603301Y-112637084D01*
X83596699Y-112637084D01*
X83215167Y-112657079D01*
X83208629Y-112657766D01*
X82831265Y-112717534D01*
X82824815Y-112718905D01*
X82455784Y-112817787D01*
X82449501Y-112819829D01*
X82092835Y-112956739D01*
X82086811Y-112959421D01*
X81746397Y-113132872D01*
X81740686Y-113136169D01*
X81420267Y-113344251D01*
X81414938Y-113348123D01*
X81162086Y-113552877D01*
X82079353Y-114470144D01*
X82000489Y-114417449D01*
X81927568Y-114402944D01*
X81878320Y-114402944D01*
X81805399Y-114417449D01*
X81722704Y-114472704D01*
X81667449Y-114555399D01*
X81648046Y-114652944D01*
X81667449Y-114750489D01*
X81720144Y-114829353D01*
X80802877Y-113912086D01*
X80598123Y-114164938D01*
X80594251Y-114170267D01*
X80386169Y-114490686D01*
X80382872Y-114496397D01*
X80235391Y-114785842D01*
X80186642Y-114837457D01*
X80117727Y-114854523D01*
X80050526Y-114831622D01*
X80006374Y-114776024D01*
X79997125Y-114728725D01*
X79995289Y-111859999D01*
X94521950Y-111859999D01*
X94542117Y-112116247D01*
X94602122Y-112366186D01*
X94700486Y-112603657D01*
X94834792Y-112822825D01*
X94836253Y-112824536D01*
X95406806Y-112253982D01*
X95452316Y-112339822D01*
X95572009Y-112480735D01*
X95719195Y-112592623D01*
X95765268Y-112613939D01*
X95195462Y-113183745D01*
X95195462Y-113183746D01*
X95197176Y-113185208D01*
X95416342Y-113319513D01*
X95653813Y-113417877D01*
X95903752Y-113477882D01*
X96160000Y-113498049D01*
X96416247Y-113477882D01*
X96666186Y-113417877D01*
X96903657Y-113319513D01*
X97122824Y-113185208D01*
X97124535Y-113183746D01*
X97124536Y-113183745D01*
X96555077Y-112614286D01*
X96677431Y-112540669D01*
X96811658Y-112413523D01*
X96915413Y-112260495D01*
X96916635Y-112257426D01*
X97483745Y-112824536D01*
X97483746Y-112824535D01*
X97485208Y-112822824D01*
X97619513Y-112603657D01*
X97717877Y-112366186D01*
X97777882Y-112116247D01*
X97798049Y-111860000D01*
X99601950Y-111860000D01*
X99622117Y-112116247D01*
X99682122Y-112366186D01*
X99780486Y-112603657D01*
X99914792Y-112822825D01*
X99916253Y-112824536D01*
X100486806Y-112253982D01*
X100532316Y-112339822D01*
X100652009Y-112480735D01*
X100799195Y-112592623D01*
X100845268Y-112613939D01*
X100275462Y-113183745D01*
X100275462Y-113183746D01*
X100277176Y-113185208D01*
X100496342Y-113319513D01*
X100733813Y-113417877D01*
X100983752Y-113477882D01*
X101239999Y-113498049D01*
X101496247Y-113477882D01*
X101746186Y-113417877D01*
X101983657Y-113319513D01*
X102202824Y-113185208D01*
X102204535Y-113183746D01*
X102204536Y-113183745D01*
X101635077Y-112614286D01*
X101757431Y-112540669D01*
X101891658Y-112413523D01*
X101995413Y-112260495D01*
X101996635Y-112257426D01*
X102563745Y-112824536D01*
X102563746Y-112824535D01*
X102565208Y-112822824D01*
X102699513Y-112603657D01*
X102797877Y-112366186D01*
X102857882Y-112116247D01*
X102878049Y-111859999D01*
X102874114Y-111810000D01*
X119094307Y-111810000D01*
X119113058Y-112084130D01*
X119168962Y-112353153D01*
X119170399Y-112357196D01*
X119170402Y-112357207D01*
X119259537Y-112608008D01*
X119259540Y-112608015D01*
X119260977Y-112612058D01*
X119262951Y-112615869D01*
X119262953Y-112615872D01*
X119385406Y-112852197D01*
X119385409Y-112852202D01*
X119387389Y-112856023D01*
X119545843Y-113080502D01*
X119733389Y-113281314D01*
X119946531Y-113454718D01*
X120181300Y-113597484D01*
X120433323Y-113706953D01*
X120697904Y-113781085D01*
X120970115Y-113818500D01*
X120974420Y-113818500D01*
X121240580Y-113818500D01*
X121244885Y-113818500D01*
X121517096Y-113781085D01*
X121781677Y-113706953D01*
X122033700Y-113597484D01*
X122268469Y-113454718D01*
X122481611Y-113281314D01*
X122669157Y-113080502D01*
X122827611Y-112856023D01*
X122954023Y-112612058D01*
X123046038Y-112353153D01*
X123101942Y-112084130D01*
X123120693Y-111810000D01*
X123101942Y-111535870D01*
X123046038Y-111266847D01*
X122954023Y-111007942D01*
X122827611Y-110763977D01*
X122669157Y-110539498D01*
X122481611Y-110338686D01*
X122362912Y-110242117D01*
X122271804Y-110167995D01*
X122271801Y-110167993D01*
X122268469Y-110165282D01*
X122060402Y-110038754D01*
X122037377Y-110024752D01*
X122037376Y-110024751D01*
X122033700Y-110022516D01*
X122029759Y-110020804D01*
X122029753Y-110020801D01*
X121785612Y-109914756D01*
X121785609Y-109914755D01*
X121781677Y-109913047D01*
X121777552Y-109911891D01*
X121777543Y-109911888D01*
X121521242Y-109840076D01*
X121521232Y-109840074D01*
X121517096Y-109838915D01*
X121512835Y-109838329D01*
X121512824Y-109838327D01*
X121249153Y-109802086D01*
X121249143Y-109802085D01*
X121244885Y-109801500D01*
X120970115Y-109801500D01*
X120965857Y-109802085D01*
X120965846Y-109802086D01*
X120702175Y-109838327D01*
X120702161Y-109838329D01*
X120697904Y-109838915D01*
X120693769Y-109840073D01*
X120693757Y-109840076D01*
X120437456Y-109911888D01*
X120437442Y-109911892D01*
X120433323Y-109913047D01*
X120429395Y-109914753D01*
X120429387Y-109914756D01*
X120185246Y-110020801D01*
X120185233Y-110020807D01*
X120181300Y-110022516D01*
X120177629Y-110024748D01*
X120177622Y-110024752D01*
X119950204Y-110163048D01*
X119950199Y-110163050D01*
X119946531Y-110165282D01*
X119943204Y-110167988D01*
X119943195Y-110167995D01*
X119736725Y-110335971D01*
X119736717Y-110335978D01*
X119733389Y-110338686D01*
X119730457Y-110341824D01*
X119730452Y-110341830D01*
X119548782Y-110536350D01*
X119548774Y-110536358D01*
X119545843Y-110539498D01*
X119543363Y-110543010D01*
X119543360Y-110543015D01*
X119389875Y-110760454D01*
X119389870Y-110760462D01*
X119387389Y-110763977D01*
X119385413Y-110767790D01*
X119385406Y-110767802D01*
X119262953Y-111004127D01*
X119262949Y-111004136D01*
X119260977Y-111007942D01*
X119259542Y-111011978D01*
X119259537Y-111011991D01*
X119170402Y-111262792D01*
X119170397Y-111262807D01*
X119168962Y-111266847D01*
X119168087Y-111271054D01*
X119168087Y-111271057D01*
X119113932Y-111531661D01*
X119113930Y-111531670D01*
X119113058Y-111535870D01*
X119112764Y-111540157D01*
X119112764Y-111540163D01*
X119106533Y-111631260D01*
X119094307Y-111810000D01*
X102874114Y-111810000D01*
X102857882Y-111603752D01*
X102797877Y-111353813D01*
X102699513Y-111116342D01*
X102565208Y-110897176D01*
X102563745Y-110895462D01*
X101993191Y-111466015D01*
X101947684Y-111380178D01*
X101827991Y-111239265D01*
X101680805Y-111127377D01*
X101634729Y-111106060D01*
X102204536Y-110536253D01*
X102202825Y-110534792D01*
X101983657Y-110400486D01*
X101746186Y-110302122D01*
X101496247Y-110242117D01*
X101239999Y-110221950D01*
X100983752Y-110242117D01*
X100733813Y-110302122D01*
X100496342Y-110400486D01*
X100277174Y-110534792D01*
X100275462Y-110536253D01*
X100844922Y-111105713D01*
X100722569Y-111179331D01*
X100588342Y-111306477D01*
X100484587Y-111459505D01*
X100483364Y-111462572D01*
X99916253Y-110895462D01*
X99914792Y-110897174D01*
X99780486Y-111116342D01*
X99682122Y-111353813D01*
X99622117Y-111603752D01*
X99601950Y-111860000D01*
X97798049Y-111860000D01*
X97777882Y-111603752D01*
X97717877Y-111353813D01*
X97619513Y-111116342D01*
X97485208Y-110897176D01*
X97483745Y-110895462D01*
X96913192Y-111466015D01*
X96867684Y-111380178D01*
X96747991Y-111239265D01*
X96600805Y-111127377D01*
X96554729Y-111106060D01*
X97124536Y-110536253D01*
X97122825Y-110534792D01*
X96903657Y-110400486D01*
X96666186Y-110302122D01*
X96416247Y-110242117D01*
X96159999Y-110221950D01*
X95903752Y-110242117D01*
X95653813Y-110302122D01*
X95416342Y-110400486D01*
X95197174Y-110534792D01*
X95195462Y-110536253D01*
X95764922Y-111105713D01*
X95642569Y-111179331D01*
X95508342Y-111306477D01*
X95404587Y-111459505D01*
X95403364Y-111462573D01*
X94836253Y-110895462D01*
X94834792Y-110897174D01*
X94700486Y-111116342D01*
X94602122Y-111353813D01*
X94542117Y-111603752D01*
X94521950Y-111859999D01*
X79995289Y-111859999D01*
X79993227Y-108638897D01*
X80013184Y-108570767D01*
X80066810Y-108524240D01*
X80137078Y-108514091D01*
X80201677Y-108543543D01*
X80226659Y-108572985D01*
X80310392Y-108709625D01*
X80311853Y-108711336D01*
X80882406Y-108140782D01*
X80927916Y-108226622D01*
X81047609Y-108367535D01*
X81194795Y-108479423D01*
X81240868Y-108500739D01*
X80671062Y-109070545D01*
X80671062Y-109070546D01*
X80672776Y-109072008D01*
X80891942Y-109206313D01*
X81129413Y-109304677D01*
X81379352Y-109364682D01*
X81635600Y-109384849D01*
X81891847Y-109364682D01*
X82141786Y-109304677D01*
X82379257Y-109206313D01*
X82598424Y-109072008D01*
X82600135Y-109070546D01*
X82600136Y-109070545D01*
X82030677Y-108501086D01*
X82153031Y-108427469D01*
X82287258Y-108300323D01*
X82391013Y-108147295D01*
X82392235Y-108144226D01*
X82959344Y-108711336D01*
X82959346Y-108711335D01*
X82960808Y-108709624D01*
X83095113Y-108490457D01*
X83193477Y-108252986D01*
X83253482Y-108003047D01*
X83273649Y-107746800D01*
X85077550Y-107746800D01*
X85097717Y-108003047D01*
X85157722Y-108252986D01*
X85256086Y-108490457D01*
X85390392Y-108709625D01*
X85391853Y-108711336D01*
X85962406Y-108140782D01*
X86007916Y-108226622D01*
X86127609Y-108367535D01*
X86274795Y-108479423D01*
X86320868Y-108500739D01*
X85751062Y-109070545D01*
X85751062Y-109070546D01*
X85752776Y-109072008D01*
X85971942Y-109206313D01*
X86209413Y-109304677D01*
X86459352Y-109364682D01*
X86715600Y-109384849D01*
X86971847Y-109364682D01*
X87221786Y-109304677D01*
X87459257Y-109206313D01*
X87678424Y-109072008D01*
X87680135Y-109070546D01*
X87680136Y-109070545D01*
X87110677Y-108501086D01*
X87233031Y-108427469D01*
X87367258Y-108300323D01*
X87471013Y-108147295D01*
X87472235Y-108144226D01*
X88039345Y-108711336D01*
X88039346Y-108711335D01*
X88040808Y-108709624D01*
X88175113Y-108490457D01*
X88272934Y-108254298D01*
X103935102Y-108254298D01*
X103953260Y-108519769D01*
X103954428Y-108528268D01*
X104008569Y-108788807D01*
X104010884Y-108797072D01*
X104099995Y-109047806D01*
X104103417Y-109055682D01*
X104225833Y-109291934D01*
X104230304Y-109299287D01*
X104358040Y-109480248D01*
X104358041Y-109480248D01*
X105383070Y-108455219D01*
X105423401Y-108552588D01*
X105519575Y-108677925D01*
X105644912Y-108774099D01*
X105742279Y-108814429D01*
X104718215Y-109838492D01*
X104718215Y-109838494D01*
X104783484Y-109891595D01*
X104790495Y-109896543D01*
X105017852Y-110034802D01*
X105025481Y-110038754D01*
X105269539Y-110144764D01*
X105277632Y-110147641D01*
X105533859Y-110219433D01*
X105542277Y-110221182D01*
X105805880Y-110257413D01*
X105814454Y-110258000D01*
X106080546Y-110258000D01*
X106089119Y-110257413D01*
X106352722Y-110221182D01*
X106361140Y-110219433D01*
X106617367Y-110147641D01*
X106625460Y-110144764D01*
X106869518Y-110038754D01*
X106877147Y-110034802D01*
X107104504Y-109896543D01*
X107111516Y-109891594D01*
X107176783Y-109838494D01*
X107176783Y-109838492D01*
X106152720Y-108814429D01*
X106250088Y-108774099D01*
X106375425Y-108677925D01*
X106471599Y-108552589D01*
X106511930Y-108455220D01*
X107536957Y-109480247D01*
X107664699Y-109299280D01*
X107669166Y-109291934D01*
X107791582Y-109055682D01*
X107795004Y-109047806D01*
X107884115Y-108797072D01*
X107886430Y-108788807D01*
X107940571Y-108528268D01*
X107941739Y-108519769D01*
X107959898Y-108254298D01*
X107959898Y-108245701D01*
X107941739Y-107980230D01*
X107940571Y-107971731D01*
X107886430Y-107711192D01*
X107884115Y-107702927D01*
X107795004Y-107452193D01*
X107791582Y-107444317D01*
X107670169Y-107210000D01*
X118904307Y-107210000D01*
X118904601Y-107214298D01*
X118920334Y-107444317D01*
X118923058Y-107484130D01*
X118923931Y-107488331D01*
X118923932Y-107488338D01*
X118948897Y-107608474D01*
X118978962Y-107753153D01*
X118980399Y-107757196D01*
X118980402Y-107757207D01*
X119069537Y-108008008D01*
X119069540Y-108008015D01*
X119070977Y-108012058D01*
X119072951Y-108015869D01*
X119072953Y-108015872D01*
X119195406Y-108252197D01*
X119195409Y-108252202D01*
X119197389Y-108256023D01*
X119355843Y-108480502D01*
X119358781Y-108483648D01*
X119358782Y-108483649D01*
X119396692Y-108524240D01*
X119543389Y-108681314D01*
X119756531Y-108854718D01*
X119991300Y-108997484D01*
X120243323Y-109106953D01*
X120507904Y-109181085D01*
X120780115Y-109218500D01*
X120784420Y-109218500D01*
X121050580Y-109218500D01*
X121054885Y-109218500D01*
X121327096Y-109181085D01*
X121591677Y-109106953D01*
X121843700Y-108997484D01*
X122078469Y-108854718D01*
X122291611Y-108681314D01*
X122479157Y-108480502D01*
X122637611Y-108256023D01*
X122764023Y-108012058D01*
X122856038Y-107753153D01*
X122911942Y-107484130D01*
X122930693Y-107210000D01*
X122911942Y-106935870D01*
X122856038Y-106666847D01*
X122854139Y-106661505D01*
X122765462Y-106411991D01*
X122764023Y-106407942D01*
X122637611Y-106163977D01*
X122479157Y-105939498D01*
X122291611Y-105738686D01*
X122222112Y-105682144D01*
X122081804Y-105567995D01*
X122081801Y-105567993D01*
X122078469Y-105565282D01*
X121843700Y-105422516D01*
X121839759Y-105420804D01*
X121839753Y-105420801D01*
X121595612Y-105314756D01*
X121595609Y-105314755D01*
X121591677Y-105313047D01*
X121587552Y-105311891D01*
X121587543Y-105311888D01*
X121331242Y-105240076D01*
X121331232Y-105240074D01*
X121327096Y-105238915D01*
X121322835Y-105238329D01*
X121322824Y-105238327D01*
X121059153Y-105202086D01*
X121059143Y-105202085D01*
X121054885Y-105201500D01*
X120780115Y-105201500D01*
X120775857Y-105202085D01*
X120775846Y-105202086D01*
X120512175Y-105238327D01*
X120512161Y-105238329D01*
X120507904Y-105238915D01*
X120503769Y-105240073D01*
X120503757Y-105240076D01*
X120247456Y-105311888D01*
X120247442Y-105311892D01*
X120243323Y-105313047D01*
X120239395Y-105314753D01*
X120239387Y-105314756D01*
X119995246Y-105420801D01*
X119995233Y-105420807D01*
X119991300Y-105422516D01*
X119987629Y-105424748D01*
X119987622Y-105424752D01*
X119760204Y-105563048D01*
X119760199Y-105563050D01*
X119756531Y-105565282D01*
X119753204Y-105567988D01*
X119753195Y-105567995D01*
X119546725Y-105735971D01*
X119546717Y-105735978D01*
X119543389Y-105738686D01*
X119540457Y-105741824D01*
X119540452Y-105741830D01*
X119358782Y-105936350D01*
X119358774Y-105936358D01*
X119355843Y-105939498D01*
X119353363Y-105943010D01*
X119353360Y-105943015D01*
X119199875Y-106160454D01*
X119199870Y-106160462D01*
X119197389Y-106163977D01*
X119195413Y-106167790D01*
X119195406Y-106167802D01*
X119072953Y-106404127D01*
X119072949Y-106404136D01*
X119070977Y-106407942D01*
X119069542Y-106411978D01*
X119069537Y-106411991D01*
X118980402Y-106662792D01*
X118980397Y-106662807D01*
X118978962Y-106666847D01*
X118978087Y-106671054D01*
X118978087Y-106671057D01*
X118923932Y-106931661D01*
X118923930Y-106931670D01*
X118923058Y-106935870D01*
X118922764Y-106940157D01*
X118922764Y-106940163D01*
X118917320Y-107019750D01*
X118904307Y-107210000D01*
X107670169Y-107210000D01*
X107669166Y-107208065D01*
X107664699Y-107200719D01*
X107536957Y-107019750D01*
X106511929Y-108044778D01*
X106471599Y-107947412D01*
X106375425Y-107822075D01*
X106250088Y-107725901D01*
X106152719Y-107685569D01*
X107176783Y-106661504D01*
X107111515Y-106608404D01*
X107104504Y-106603456D01*
X106877147Y-106465197D01*
X106869518Y-106461245D01*
X106625460Y-106355235D01*
X106617367Y-106352358D01*
X106361140Y-106280566D01*
X106352722Y-106278817D01*
X106089119Y-106242586D01*
X106080546Y-106242000D01*
X105814454Y-106242000D01*
X105805880Y-106242586D01*
X105542277Y-106278817D01*
X105533859Y-106280566D01*
X105277632Y-106352358D01*
X105269539Y-106355235D01*
X105025481Y-106461245D01*
X105017852Y-106465197D01*
X104790497Y-106603454D01*
X104783483Y-106608405D01*
X104718215Y-106661504D01*
X104718214Y-106661505D01*
X105742279Y-107685570D01*
X105644912Y-107725901D01*
X105519575Y-107822075D01*
X105423401Y-107947411D01*
X105383070Y-108044779D01*
X104358041Y-107019750D01*
X104230296Y-107200724D01*
X104225835Y-107208061D01*
X104103417Y-107444317D01*
X104099995Y-107452193D01*
X104010884Y-107702927D01*
X104008569Y-107711192D01*
X103954428Y-107971731D01*
X103953260Y-107980230D01*
X103935102Y-108245701D01*
X103935102Y-108254298D01*
X88272934Y-108254298D01*
X88273477Y-108252986D01*
X88333482Y-108003047D01*
X88353649Y-107746800D01*
X88333482Y-107490552D01*
X88273477Y-107240613D01*
X88175113Y-107003142D01*
X88040808Y-106783976D01*
X88039345Y-106782262D01*
X87468792Y-107352815D01*
X87423284Y-107266978D01*
X87303591Y-107126065D01*
X87156405Y-107014177D01*
X87110329Y-106992860D01*
X87680136Y-106423053D01*
X87678425Y-106421592D01*
X87459257Y-106287286D01*
X87221786Y-106188922D01*
X86971847Y-106128917D01*
X86715599Y-106108750D01*
X86459352Y-106128917D01*
X86209413Y-106188922D01*
X85971942Y-106287286D01*
X85752774Y-106421592D01*
X85751062Y-106423053D01*
X86320522Y-106992513D01*
X86198169Y-107066131D01*
X86063942Y-107193277D01*
X85960187Y-107346305D01*
X85958964Y-107349373D01*
X85391853Y-106782262D01*
X85390392Y-106783974D01*
X85256086Y-107003142D01*
X85157722Y-107240613D01*
X85097717Y-107490552D01*
X85077550Y-107746800D01*
X83273649Y-107746800D01*
X83253482Y-107490552D01*
X83193477Y-107240613D01*
X83095113Y-107003142D01*
X82960808Y-106783976D01*
X82959345Y-106782262D01*
X82388792Y-107352815D01*
X82343284Y-107266978D01*
X82223591Y-107126065D01*
X82076405Y-107014177D01*
X82030329Y-106992860D01*
X82600136Y-106423053D01*
X82598425Y-106421592D01*
X82379257Y-106287286D01*
X82141786Y-106188922D01*
X81891847Y-106128917D01*
X81635599Y-106108750D01*
X81379352Y-106128917D01*
X81129413Y-106188922D01*
X80891942Y-106287286D01*
X80672774Y-106421592D01*
X80671062Y-106423053D01*
X81240522Y-106992513D01*
X81118169Y-107066131D01*
X80983942Y-107193277D01*
X80880187Y-107346305D01*
X80878964Y-107349373D01*
X80311853Y-106782262D01*
X80310392Y-106783974D01*
X80225519Y-106922475D01*
X80172871Y-106970106D01*
X80102829Y-106981713D01*
X80037632Y-106953610D01*
X79997978Y-106894719D01*
X79992086Y-106856721D01*
X79991030Y-105206800D01*
X82637358Y-105206800D01*
X82656296Y-105447434D01*
X82712645Y-105682144D01*
X82737368Y-105741830D01*
X82805016Y-105905147D01*
X82931136Y-106110956D01*
X83087899Y-106294501D01*
X83271444Y-106451264D01*
X83477253Y-106577384D01*
X83700257Y-106669755D01*
X83934966Y-106726104D01*
X84175600Y-106745042D01*
X84416234Y-106726104D01*
X84650943Y-106669755D01*
X84873947Y-106577384D01*
X85079756Y-106451264D01*
X85263301Y-106294501D01*
X85420064Y-106110956D01*
X85546184Y-105905147D01*
X85638555Y-105682143D01*
X85694904Y-105447434D01*
X85713842Y-105206800D01*
X85694904Y-104966166D01*
X85638555Y-104731457D01*
X85546184Y-104508453D01*
X85420064Y-104302644D01*
X85263301Y-104119099D01*
X85079756Y-103962336D01*
X84873947Y-103836216D01*
X84873945Y-103836215D01*
X84650944Y-103743845D01*
X84416234Y-103687496D01*
X84416233Y-103687495D01*
X84175600Y-103668558D01*
X84175599Y-103668558D01*
X83934965Y-103687496D01*
X83700255Y-103743845D01*
X83477254Y-103836215D01*
X83374348Y-103899276D01*
X83271444Y-103962336D01*
X83087899Y-104119099D01*
X82997727Y-104224677D01*
X82931137Y-104302643D01*
X82805015Y-104508454D01*
X82712645Y-104731455D01*
X82656296Y-104966165D01*
X82637358Y-105206800D01*
X79991030Y-105206800D01*
X79989971Y-103553585D01*
X80009929Y-103485455D01*
X80063555Y-103438928D01*
X80133823Y-103428779D01*
X80198422Y-103458231D01*
X80223404Y-103487673D01*
X80310392Y-103629625D01*
X80311853Y-103631336D01*
X80882406Y-103060782D01*
X80927916Y-103146622D01*
X81047609Y-103287535D01*
X81194795Y-103399423D01*
X81240868Y-103420739D01*
X80671062Y-103990545D01*
X80671062Y-103990546D01*
X80672776Y-103992008D01*
X80891942Y-104126313D01*
X81129413Y-104224677D01*
X81379352Y-104284682D01*
X81635599Y-104304849D01*
X81891847Y-104284682D01*
X82141786Y-104224677D01*
X82379257Y-104126313D01*
X82598424Y-103992008D01*
X82600135Y-103990546D01*
X82600136Y-103990545D01*
X82030677Y-103421086D01*
X82153031Y-103347469D01*
X82287258Y-103220323D01*
X82391013Y-103067295D01*
X82392235Y-103064226D01*
X82959345Y-103631336D01*
X82959346Y-103631335D01*
X82960808Y-103629624D01*
X83095113Y-103410457D01*
X83193477Y-103172986D01*
X83253482Y-102923047D01*
X83273649Y-102666799D01*
X85077550Y-102666799D01*
X85097717Y-102923047D01*
X85157722Y-103172986D01*
X85256086Y-103410457D01*
X85390392Y-103629625D01*
X85391853Y-103631336D01*
X85962406Y-103060782D01*
X86007916Y-103146622D01*
X86127609Y-103287535D01*
X86274795Y-103399423D01*
X86320868Y-103420739D01*
X85751062Y-103990545D01*
X85751062Y-103990546D01*
X85752776Y-103992008D01*
X85971942Y-104126313D01*
X86209413Y-104224677D01*
X86459352Y-104284682D01*
X86715599Y-104304849D01*
X86971847Y-104284682D01*
X87221786Y-104224677D01*
X87459257Y-104126313D01*
X87678424Y-103992008D01*
X87680135Y-103990546D01*
X87680136Y-103990545D01*
X87110677Y-103421086D01*
X87233031Y-103347469D01*
X87367258Y-103220323D01*
X87471013Y-103067295D01*
X87472235Y-103064226D01*
X88039345Y-103631336D01*
X88039346Y-103631335D01*
X88040808Y-103629624D01*
X88175113Y-103410457D01*
X88273477Y-103172986D01*
X88333482Y-102923047D01*
X88353649Y-102666799D01*
X88333482Y-102410552D01*
X88273477Y-102160613D01*
X88175113Y-101923142D01*
X88040808Y-101703976D01*
X88039345Y-101702262D01*
X87468792Y-102272815D01*
X87423284Y-102186978D01*
X87303591Y-102046065D01*
X87156405Y-101934177D01*
X87110329Y-101912860D01*
X87680136Y-101343053D01*
X87678425Y-101341592D01*
X87459257Y-101207286D01*
X87221786Y-101108922D01*
X86971847Y-101048917D01*
X86715600Y-101028750D01*
X86459352Y-101048917D01*
X86209413Y-101108922D01*
X85971942Y-101207286D01*
X85752774Y-101341592D01*
X85751062Y-101343053D01*
X86320522Y-101912513D01*
X86198169Y-101986131D01*
X86063942Y-102113277D01*
X85960187Y-102266305D01*
X85958964Y-102269373D01*
X85391853Y-101702262D01*
X85390392Y-101703974D01*
X85256086Y-101923142D01*
X85157722Y-102160613D01*
X85097717Y-102410552D01*
X85077550Y-102666799D01*
X83273649Y-102666799D01*
X83253482Y-102410552D01*
X83193477Y-102160613D01*
X83095113Y-101923142D01*
X82960808Y-101703976D01*
X82959345Y-101702262D01*
X82388792Y-102272815D01*
X82343284Y-102186978D01*
X82223591Y-102046065D01*
X82076405Y-101934177D01*
X82030329Y-101912860D01*
X82600136Y-101343053D01*
X82598425Y-101341592D01*
X82379257Y-101207286D01*
X82141786Y-101108922D01*
X81891847Y-101048917D01*
X81635600Y-101028750D01*
X81379352Y-101048917D01*
X81129413Y-101108922D01*
X80891942Y-101207286D01*
X80672774Y-101341592D01*
X80671062Y-101343053D01*
X81240522Y-101912513D01*
X81118169Y-101986131D01*
X80983942Y-102113277D01*
X80880187Y-102266305D01*
X80878964Y-102269373D01*
X80311853Y-101702262D01*
X80310388Y-101703979D01*
X80222269Y-101847776D01*
X80169622Y-101895407D01*
X80099580Y-101907014D01*
X80034383Y-101878911D01*
X79994729Y-101820020D01*
X79988837Y-101782027D01*
X79986352Y-97900000D01*
X110248996Y-97900000D01*
X110268958Y-98089929D01*
X110327972Y-98271556D01*
X110423458Y-98436942D01*
X110423460Y-98436944D01*
X110551247Y-98578866D01*
X110705748Y-98691118D01*
X110880212Y-98768794D01*
X111067013Y-98808500D01*
X111067015Y-98808500D01*
X111257985Y-98808500D01*
X111257987Y-98808500D01*
X111444788Y-98768794D01*
X111619252Y-98691118D01*
X111773753Y-98578866D01*
X111901540Y-98436944D01*
X111997027Y-98271556D01*
X112056042Y-98089928D01*
X112076004Y-97900000D01*
X112056042Y-97710072D01*
X111997027Y-97528444D01*
X111997027Y-97528443D01*
X111901541Y-97363057D01*
X111773752Y-97221133D01*
X111619253Y-97108883D01*
X111619252Y-97108882D01*
X111444788Y-97031206D01*
X111257987Y-96991500D01*
X111067013Y-96991500D01*
X110942478Y-97017970D01*
X110880211Y-97031206D01*
X110705746Y-97108883D01*
X110551247Y-97221133D01*
X110423458Y-97363057D01*
X110327972Y-97528443D01*
X110268958Y-97710070D01*
X110248996Y-97900000D01*
X79986352Y-97900000D01*
X79983894Y-94059346D01*
X80003852Y-93991214D01*
X80057478Y-93944687D01*
X80127746Y-93934538D01*
X80192345Y-93963990D01*
X80221368Y-94004211D01*
X80221706Y-94004004D01*
X80224451Y-94008483D01*
X80226303Y-94011050D01*
X80226885Y-94012455D01*
X80361192Y-94231625D01*
X80362653Y-94233336D01*
X80933206Y-93662782D01*
X80978716Y-93748622D01*
X81098409Y-93889535D01*
X81245595Y-94001423D01*
X81291668Y-94022739D01*
X80721862Y-94592545D01*
X80721862Y-94592546D01*
X80723576Y-94594008D01*
X80942742Y-94728313D01*
X81180213Y-94826677D01*
X81430152Y-94886682D01*
X81686399Y-94906849D01*
X81942647Y-94886682D01*
X82192586Y-94826677D01*
X82430057Y-94728313D01*
X82649224Y-94594008D01*
X82650935Y-94592546D01*
X82650936Y-94592545D01*
X82081477Y-94023086D01*
X82203831Y-93949469D01*
X82338058Y-93822323D01*
X82441813Y-93669295D01*
X82443035Y-93666226D01*
X83010145Y-94233336D01*
X83010146Y-94233335D01*
X83011608Y-94231624D01*
X83145913Y-94012457D01*
X83244277Y-93774986D01*
X83304282Y-93525047D01*
X83324449Y-93268800D01*
X85128350Y-93268800D01*
X85148517Y-93525047D01*
X85208522Y-93774986D01*
X85306886Y-94012457D01*
X85441192Y-94231625D01*
X85442653Y-94233336D01*
X86013206Y-93662782D01*
X86058716Y-93748622D01*
X86178409Y-93889535D01*
X86325595Y-94001423D01*
X86371668Y-94022739D01*
X85801862Y-94592545D01*
X85801862Y-94592546D01*
X85803576Y-94594008D01*
X86022742Y-94728313D01*
X86260213Y-94826677D01*
X86510152Y-94886682D01*
X86766399Y-94906849D01*
X87022647Y-94886682D01*
X87272586Y-94826677D01*
X87477014Y-94742000D01*
X95352496Y-94742000D01*
X95372458Y-94931929D01*
X95431472Y-95113556D01*
X95526958Y-95278942D01*
X95526960Y-95278944D01*
X95654747Y-95420866D01*
X95809248Y-95533118D01*
X95983712Y-95610794D01*
X96170513Y-95650500D01*
X96170515Y-95650500D01*
X96361485Y-95650500D01*
X96361487Y-95650500D01*
X96548288Y-95610794D01*
X96722752Y-95533118D01*
X96877253Y-95420866D01*
X97005040Y-95278944D01*
X97056969Y-95189000D01*
X132309496Y-95189000D01*
X132329458Y-95378929D01*
X132388472Y-95560556D01*
X132483958Y-95725942D01*
X132483960Y-95725944D01*
X132611747Y-95867866D01*
X132766248Y-95980118D01*
X132940712Y-96057794D01*
X133127513Y-96097500D01*
X133127515Y-96097500D01*
X133318485Y-96097500D01*
X133318487Y-96097500D01*
X133505288Y-96057794D01*
X133679752Y-95980118D01*
X133834253Y-95867866D01*
X133962040Y-95725944D01*
X134057527Y-95560556D01*
X134116542Y-95378928D01*
X134136504Y-95189000D01*
X134116542Y-94999072D01*
X134057527Y-94817444D01*
X134057527Y-94817443D01*
X133962041Y-94652057D01*
X133834252Y-94510133D01*
X133679753Y-94397883D01*
X133679752Y-94397882D01*
X133505288Y-94320206D01*
X133318487Y-94280500D01*
X133127513Y-94280500D01*
X133002978Y-94306970D01*
X132940711Y-94320206D01*
X132766246Y-94397883D01*
X132611747Y-94510133D01*
X132483958Y-94652057D01*
X132388472Y-94817443D01*
X132329458Y-94999070D01*
X132309496Y-95189000D01*
X97056969Y-95189000D01*
X97100527Y-95113556D01*
X97159542Y-94931928D01*
X97179504Y-94742000D01*
X97159542Y-94552072D01*
X97128931Y-94457862D01*
X97100527Y-94370443D01*
X97021751Y-94234000D01*
X101956496Y-94234000D01*
X101976458Y-94423929D01*
X102035472Y-94605556D01*
X102130958Y-94770942D01*
X102130960Y-94770944D01*
X102258747Y-94912866D01*
X102413248Y-95025118D01*
X102587712Y-95102794D01*
X102774513Y-95142500D01*
X102774515Y-95142500D01*
X102965485Y-95142500D01*
X102965487Y-95142500D01*
X103152288Y-95102794D01*
X103326752Y-95025118D01*
X103481253Y-94912866D01*
X103609040Y-94770944D01*
X103704527Y-94605556D01*
X103763542Y-94423928D01*
X103783504Y-94234000D01*
X103763542Y-94044072D01*
X103727952Y-93934538D01*
X103704527Y-93862443D01*
X103609041Y-93697057D01*
X103481252Y-93555133D01*
X103326753Y-93442883D01*
X103326752Y-93442882D01*
X103152288Y-93365206D01*
X102965487Y-93325500D01*
X102774513Y-93325500D01*
X102649978Y-93351970D01*
X102587711Y-93365206D01*
X102413246Y-93442883D01*
X102258747Y-93555133D01*
X102130958Y-93697057D01*
X102035472Y-93862443D01*
X101976458Y-94044070D01*
X101956496Y-94234000D01*
X97021751Y-94234000D01*
X97005041Y-94205057D01*
X96877252Y-94063133D01*
X96778264Y-93991214D01*
X96722752Y-93950882D01*
X96548288Y-93873206D01*
X96361487Y-93833500D01*
X96170513Y-93833500D01*
X96045978Y-93859970D01*
X95983711Y-93873206D01*
X95809246Y-93950883D01*
X95654747Y-94063133D01*
X95526958Y-94205057D01*
X95431472Y-94370443D01*
X95372458Y-94552070D01*
X95352496Y-94742000D01*
X87477014Y-94742000D01*
X87510057Y-94728313D01*
X87729224Y-94594008D01*
X87730935Y-94592546D01*
X87730936Y-94592545D01*
X87161477Y-94023086D01*
X87283831Y-93949469D01*
X87418058Y-93822323D01*
X87521813Y-93669295D01*
X87523035Y-93666226D01*
X88090145Y-94233336D01*
X88090146Y-94233335D01*
X88091608Y-94231624D01*
X88225913Y-94012457D01*
X88324277Y-93774986D01*
X88384282Y-93525047D01*
X88404449Y-93268799D01*
X88384282Y-93012552D01*
X88357260Y-92899999D01*
X90936496Y-92899999D01*
X90956458Y-93089929D01*
X91015472Y-93271556D01*
X91110958Y-93436942D01*
X91116307Y-93442883D01*
X91238747Y-93578866D01*
X91393248Y-93691118D01*
X91567712Y-93768794D01*
X91754513Y-93808500D01*
X91754515Y-93808500D01*
X91945485Y-93808500D01*
X91945487Y-93808500D01*
X92132288Y-93768794D01*
X92306752Y-93691118D01*
X92461253Y-93578866D01*
X92589040Y-93436944D01*
X92684527Y-93271556D01*
X92743542Y-93089928D01*
X92763504Y-92900000D01*
X92756883Y-92837000D01*
X113919896Y-92837000D01*
X113939858Y-93026929D01*
X113998872Y-93208556D01*
X114094358Y-93373942D01*
X114151085Y-93436944D01*
X114222147Y-93515866D01*
X114376648Y-93628118D01*
X114551112Y-93705794D01*
X114737913Y-93745500D01*
X114737915Y-93745500D01*
X114928885Y-93745500D01*
X114928887Y-93745500D01*
X115115688Y-93705794D01*
X115290152Y-93628118D01*
X115444653Y-93515866D01*
X115572440Y-93373944D01*
X115667927Y-93208556D01*
X115726942Y-93026928D01*
X115746904Y-92837000D01*
X125146696Y-92837000D01*
X125166658Y-93026929D01*
X125225672Y-93208556D01*
X125321158Y-93373942D01*
X125377885Y-93436944D01*
X125448947Y-93515866D01*
X125603448Y-93628118D01*
X125777912Y-93705794D01*
X125964713Y-93745500D01*
X125964715Y-93745500D01*
X126155685Y-93745500D01*
X126155687Y-93745500D01*
X126342488Y-93705794D01*
X126516952Y-93628118D01*
X126671453Y-93515866D01*
X126799240Y-93373944D01*
X126894727Y-93208556D01*
X126953742Y-93026928D01*
X126973704Y-92837000D01*
X126953742Y-92647072D01*
X126915197Y-92528443D01*
X126894727Y-92465443D01*
X126799241Y-92300057D01*
X126701725Y-92191755D01*
X126671453Y-92158134D01*
X126617405Y-92118866D01*
X126516953Y-92045883D01*
X126516952Y-92045882D01*
X126342488Y-91968206D01*
X126155687Y-91928500D01*
X125964713Y-91928500D01*
X125886838Y-91945053D01*
X125777911Y-91968206D01*
X125603446Y-92045883D01*
X125448947Y-92158133D01*
X125321158Y-92300057D01*
X125225672Y-92465443D01*
X125166658Y-92647070D01*
X125146696Y-92837000D01*
X115746904Y-92837000D01*
X115726942Y-92647072D01*
X115688397Y-92528443D01*
X115667927Y-92465443D01*
X115572441Y-92300057D01*
X115474925Y-92191755D01*
X115444653Y-92158134D01*
X115390605Y-92118866D01*
X115290153Y-92045883D01*
X115290152Y-92045882D01*
X115115688Y-91968206D01*
X114928887Y-91928500D01*
X114737913Y-91928500D01*
X114660038Y-91945053D01*
X114551111Y-91968206D01*
X114376646Y-92045883D01*
X114222147Y-92158133D01*
X114094358Y-92300057D01*
X113998872Y-92465443D01*
X113939858Y-92647070D01*
X113919896Y-92837000D01*
X92756883Y-92837000D01*
X92743542Y-92710072D01*
X92686899Y-92535744D01*
X92684527Y-92528443D01*
X92589041Y-92363057D01*
X92461252Y-92221133D01*
X92374540Y-92158133D01*
X92306752Y-92108882D01*
X92132288Y-92031206D01*
X91945487Y-91991500D01*
X91754513Y-91991500D01*
X91629979Y-92017970D01*
X91567711Y-92031206D01*
X91393246Y-92108883D01*
X91238747Y-92221133D01*
X91110958Y-92363057D01*
X91015472Y-92528443D01*
X90956458Y-92710070D01*
X90936496Y-92899999D01*
X88357260Y-92899999D01*
X88324277Y-92762613D01*
X88225913Y-92525142D01*
X88091608Y-92305976D01*
X88090145Y-92304262D01*
X87519592Y-92874815D01*
X87474084Y-92788978D01*
X87354391Y-92648065D01*
X87207205Y-92536177D01*
X87161129Y-92514860D01*
X87730936Y-91945053D01*
X87729225Y-91943592D01*
X87510057Y-91809286D01*
X87272586Y-91710922D01*
X87022647Y-91650917D01*
X86766400Y-91630750D01*
X86510152Y-91650917D01*
X86260213Y-91710922D01*
X86022742Y-91809286D01*
X85803574Y-91943592D01*
X85801862Y-91945053D01*
X86371321Y-92514513D01*
X86248969Y-92588131D01*
X86114742Y-92715277D01*
X86010987Y-92868305D01*
X86009764Y-92871373D01*
X85442653Y-92304262D01*
X85441192Y-92305974D01*
X85306886Y-92525142D01*
X85208522Y-92762613D01*
X85148517Y-93012552D01*
X85128350Y-93268800D01*
X83324449Y-93268800D01*
X83304282Y-93012552D01*
X83244277Y-92762613D01*
X83145913Y-92525142D01*
X83011608Y-92305976D01*
X83010145Y-92304262D01*
X82439592Y-92874815D01*
X82394084Y-92788978D01*
X82274391Y-92648065D01*
X82127205Y-92536177D01*
X82081129Y-92514860D01*
X82650936Y-91945053D01*
X82649225Y-91943592D01*
X82430057Y-91809286D01*
X82192586Y-91710922D01*
X81942647Y-91650917D01*
X81686400Y-91630750D01*
X81430152Y-91650917D01*
X81180213Y-91710922D01*
X80942742Y-91809286D01*
X80723574Y-91943592D01*
X80721862Y-91945053D01*
X81291322Y-92514513D01*
X81168969Y-92588131D01*
X81034742Y-92715277D01*
X80930987Y-92868305D01*
X80929764Y-92871373D01*
X80362653Y-92304262D01*
X80361192Y-92305974D01*
X80226881Y-92525149D01*
X80225288Y-92528997D01*
X80222101Y-92532950D01*
X80221706Y-92533596D01*
X80221622Y-92533544D01*
X80180736Y-92584275D01*
X80113371Y-92606691D01*
X80044581Y-92589128D01*
X79996207Y-92537163D01*
X79982884Y-92480857D01*
X79981762Y-90728800D01*
X82688158Y-90728800D01*
X82707096Y-90969434D01*
X82763445Y-91204144D01*
X82833207Y-91372565D01*
X82855816Y-91427147D01*
X82981936Y-91632956D01*
X83138699Y-91816501D01*
X83322244Y-91973264D01*
X83528053Y-92099384D01*
X83751057Y-92191755D01*
X83985766Y-92248104D01*
X84226400Y-92267042D01*
X84467034Y-92248104D01*
X84701743Y-92191755D01*
X84924747Y-92099384D01*
X85130556Y-91973264D01*
X85314101Y-91816501D01*
X85470864Y-91632956D01*
X85589108Y-91439999D01*
X97511496Y-91439999D01*
X97531458Y-91629929D01*
X97590472Y-91811556D01*
X97685958Y-91976942D01*
X97685960Y-91976944D01*
X97813747Y-92118866D01*
X97968248Y-92231118D01*
X98142712Y-92308794D01*
X98329513Y-92348500D01*
X98329515Y-92348500D01*
X98520485Y-92348500D01*
X98520487Y-92348500D01*
X98707288Y-92308794D01*
X98881752Y-92231118D01*
X99036253Y-92118866D01*
X99164040Y-91976944D01*
X99259527Y-91811556D01*
X99318542Y-91629928D01*
X99328519Y-91534999D01*
X108761496Y-91534999D01*
X108781458Y-91724929D01*
X108840472Y-91906556D01*
X108935958Y-92071942D01*
X108935960Y-92071944D01*
X109063747Y-92213866D01*
X109218248Y-92326118D01*
X109392712Y-92403794D01*
X109579513Y-92443500D01*
X109579515Y-92443500D01*
X109770485Y-92443500D01*
X109770487Y-92443500D01*
X109957288Y-92403794D01*
X110131752Y-92326118D01*
X110286253Y-92213866D01*
X110414040Y-92071944D01*
X110509527Y-91906556D01*
X110568542Y-91724928D01*
X110588504Y-91535000D01*
X110568542Y-91345072D01*
X110537429Y-91249318D01*
X110509527Y-91163443D01*
X110414041Y-90998057D01*
X110328502Y-90903056D01*
X110286253Y-90856134D01*
X110131752Y-90743882D01*
X109957288Y-90666206D01*
X109770487Y-90626500D01*
X109579513Y-90626500D01*
X109474215Y-90648882D01*
X109392711Y-90666206D01*
X109218246Y-90743883D01*
X109063747Y-90856133D01*
X108935958Y-90998057D01*
X108840472Y-91163443D01*
X108781458Y-91345070D01*
X108761496Y-91534999D01*
X99328519Y-91534999D01*
X99338504Y-91440000D01*
X99318542Y-91250072D01*
X99286402Y-91151156D01*
X99259527Y-91068443D01*
X99164041Y-90903057D01*
X99036252Y-90761133D01*
X98881753Y-90648883D01*
X98881752Y-90648882D01*
X98707288Y-90571206D01*
X98520487Y-90531500D01*
X98329513Y-90531500D01*
X98238051Y-90550941D01*
X98142711Y-90571206D01*
X97968246Y-90648883D01*
X97813747Y-90761133D01*
X97685958Y-90903057D01*
X97590472Y-91068443D01*
X97531458Y-91250070D01*
X97511496Y-91439999D01*
X85589108Y-91439999D01*
X85596984Y-91427147D01*
X85689355Y-91204143D01*
X85745704Y-90969434D01*
X85764642Y-90728800D01*
X85745704Y-90488166D01*
X85689355Y-90253457D01*
X85644265Y-90144599D01*
X120981096Y-90144599D01*
X121001058Y-90334529D01*
X121060072Y-90516156D01*
X121155558Y-90681542D01*
X121155560Y-90681544D01*
X121283347Y-90823466D01*
X121437848Y-90935718D01*
X121612312Y-91013394D01*
X121799113Y-91053100D01*
X121799115Y-91053100D01*
X121990085Y-91053100D01*
X121990087Y-91053100D01*
X122176888Y-91013394D01*
X122351352Y-90935718D01*
X122505853Y-90823466D01*
X122633640Y-90681544D01*
X122729127Y-90516156D01*
X122788142Y-90334528D01*
X122808104Y-90144600D01*
X122797426Y-90043000D01*
X123952896Y-90043000D01*
X123957845Y-90090083D01*
X123972858Y-90232929D01*
X124031872Y-90414556D01*
X124127358Y-90579942D01*
X124218839Y-90681542D01*
X124255147Y-90721866D01*
X124409648Y-90834118D01*
X124584112Y-90911794D01*
X124770913Y-90951500D01*
X124770915Y-90951500D01*
X124961885Y-90951500D01*
X124961887Y-90951500D01*
X125148688Y-90911794D01*
X125323152Y-90834118D01*
X125477653Y-90721866D01*
X125598025Y-90588179D01*
X125658468Y-90550941D01*
X125729452Y-90552292D01*
X125788437Y-90591806D01*
X125816695Y-90656936D01*
X125816969Y-90685661D01*
X125813164Y-90721866D01*
X125807096Y-90779600D01*
X125812826Y-90834116D01*
X125827058Y-90969529D01*
X125886072Y-91151156D01*
X125981558Y-91316542D01*
X125981560Y-91316544D01*
X126109347Y-91458466D01*
X126263848Y-91570718D01*
X126438312Y-91648394D01*
X126625113Y-91688100D01*
X126625115Y-91688100D01*
X126816085Y-91688100D01*
X126816087Y-91688100D01*
X127002888Y-91648394D01*
X127177352Y-91570718D01*
X127331853Y-91458466D01*
X127459640Y-91316544D01*
X127555127Y-91151156D01*
X127614142Y-90969528D01*
X127623426Y-90881199D01*
X129845696Y-90881199D01*
X129865658Y-91071129D01*
X129924672Y-91252756D01*
X130020158Y-91418142D01*
X130100558Y-91507435D01*
X130131275Y-91571443D01*
X130126755Y-91630682D01*
X130068858Y-91808869D01*
X130051580Y-91973262D01*
X130048896Y-91998800D01*
X130053845Y-92045883D01*
X130068858Y-92188729D01*
X130127872Y-92370356D01*
X130223358Y-92535742D01*
X130267057Y-92584275D01*
X130351147Y-92677666D01*
X130505648Y-92789918D01*
X130680112Y-92867594D01*
X130866913Y-92907300D01*
X130866915Y-92907300D01*
X131057885Y-92907300D01*
X131057887Y-92907300D01*
X131244688Y-92867594D01*
X131419152Y-92789918D01*
X131573653Y-92677666D01*
X131701440Y-92535744D01*
X131796927Y-92370356D01*
X131855942Y-92188728D01*
X131875904Y-91998800D01*
X131855942Y-91808872D01*
X131824116Y-91710922D01*
X131796927Y-91627243D01*
X131701441Y-91461857D01*
X131670186Y-91427145D01*
X131621039Y-91372562D01*
X131590324Y-91308558D01*
X131594844Y-91249318D01*
X131622746Y-91163444D01*
X131652742Y-91071128D01*
X131672704Y-90881200D01*
X131652742Y-90691272D01*
X131593727Y-90509644D01*
X131593727Y-90509643D01*
X131498241Y-90344257D01*
X131416484Y-90253457D01*
X131370453Y-90202334D01*
X131215952Y-90090082D01*
X131041488Y-90012406D01*
X130854687Y-89972700D01*
X130663713Y-89972700D01*
X130539178Y-89999170D01*
X130476911Y-90012406D01*
X130302446Y-90090083D01*
X130147947Y-90202333D01*
X130020158Y-90344257D01*
X129924672Y-90509643D01*
X129865658Y-90691270D01*
X129845696Y-90881199D01*
X127623426Y-90881199D01*
X127634104Y-90779600D01*
X127614142Y-90589672D01*
X127555127Y-90408044D01*
X127551035Y-90395449D01*
X127552983Y-90394815D01*
X127540227Y-90342233D01*
X127563447Y-90275141D01*
X127592021Y-90246292D01*
X127636653Y-90213866D01*
X127764440Y-90071944D01*
X127859927Y-89906556D01*
X127918942Y-89724928D01*
X127938904Y-89535000D01*
X127918942Y-89345072D01*
X127883535Y-89236100D01*
X127859927Y-89163443D01*
X127764441Y-88998057D01*
X127636652Y-88856133D01*
X127545544Y-88789939D01*
X127482152Y-88743882D01*
X127319354Y-88671400D01*
X129820296Y-88671400D01*
X129840258Y-88861329D01*
X129899272Y-89042956D01*
X129994758Y-89208342D01*
X130117870Y-89345072D01*
X130122547Y-89350266D01*
X130277048Y-89462518D01*
X130451512Y-89540194D01*
X130638313Y-89579900D01*
X130638315Y-89579900D01*
X130829285Y-89579900D01*
X130829287Y-89579900D01*
X131016088Y-89540194D01*
X131190552Y-89462518D01*
X131345053Y-89350266D01*
X131472840Y-89208344D01*
X131568327Y-89042956D01*
X131627342Y-88861328D01*
X131647304Y-88671400D01*
X131627342Y-88481472D01*
X131568327Y-88299844D01*
X131568327Y-88299843D01*
X131472841Y-88134457D01*
X131345052Y-87992533D01*
X131210888Y-87895057D01*
X131190552Y-87880282D01*
X131016088Y-87802606D01*
X130829287Y-87762900D01*
X130638313Y-87762900D01*
X130518793Y-87788305D01*
X130451511Y-87802606D01*
X130277046Y-87880283D01*
X130122547Y-87992533D01*
X129994758Y-88134457D01*
X129899272Y-88299843D01*
X129840258Y-88481470D01*
X129820296Y-88671400D01*
X127319354Y-88671400D01*
X127307688Y-88666206D01*
X127120887Y-88626500D01*
X126929913Y-88626500D01*
X126743112Y-88666206D01*
X126743111Y-88666206D01*
X126743108Y-88666207D01*
X126576946Y-88740186D01*
X126506579Y-88749620D01*
X126451637Y-88727015D01*
X126288353Y-88608383D01*
X126288352Y-88608382D01*
X126113888Y-88530706D01*
X125927087Y-88491000D01*
X125736113Y-88491000D01*
X125611578Y-88517470D01*
X125549311Y-88530706D01*
X125374846Y-88608383D01*
X125220347Y-88720633D01*
X125092558Y-88862557D01*
X124997073Y-89027943D01*
X124990739Y-89047437D01*
X124950665Y-89106043D01*
X124885268Y-89133679D01*
X124870906Y-89134500D01*
X124770913Y-89134500D01*
X124646379Y-89160970D01*
X124584111Y-89174206D01*
X124409646Y-89251883D01*
X124255147Y-89364133D01*
X124127358Y-89506057D01*
X124031872Y-89671443D01*
X123972858Y-89853070D01*
X123954215Y-90030453D01*
X123952896Y-90043000D01*
X122797426Y-90043000D01*
X122788142Y-89954672D01*
X122755129Y-89853070D01*
X122729127Y-89773043D01*
X122633641Y-89607657D01*
X122505852Y-89465733D01*
X122366013Y-89364134D01*
X122351352Y-89353482D01*
X122176888Y-89275806D01*
X121990087Y-89236100D01*
X121799113Y-89236100D01*
X121674578Y-89262570D01*
X121612311Y-89275806D01*
X121437846Y-89353483D01*
X121283347Y-89465733D01*
X121155558Y-89607657D01*
X121060072Y-89773043D01*
X121001058Y-89954670D01*
X120981096Y-90144599D01*
X85644265Y-90144599D01*
X85596984Y-90030453D01*
X85470864Y-89824644D01*
X85314101Y-89641099D01*
X85130556Y-89484336D01*
X84924747Y-89358216D01*
X84924745Y-89358215D01*
X84701744Y-89265845D01*
X84467034Y-89209496D01*
X84226400Y-89190558D01*
X83985765Y-89209496D01*
X83751055Y-89265845D01*
X83528054Y-89358215D01*
X83425148Y-89421276D01*
X83322244Y-89484336D01*
X83138699Y-89641099D01*
X82981936Y-89824644D01*
X82931740Y-89906556D01*
X82855815Y-90030454D01*
X82763445Y-90253455D01*
X82707096Y-90488165D01*
X82688158Y-90728800D01*
X79981762Y-90728800D01*
X79980637Y-88971483D01*
X80000595Y-88903352D01*
X80054221Y-88856825D01*
X80124489Y-88846676D01*
X80189088Y-88876128D01*
X80223045Y-88923185D01*
X80226885Y-88932455D01*
X80361192Y-89151625D01*
X80362653Y-89153336D01*
X80933206Y-88582782D01*
X80978716Y-88668622D01*
X81098409Y-88809535D01*
X81245595Y-88921423D01*
X81291668Y-88942739D01*
X80721862Y-89512545D01*
X80721862Y-89512546D01*
X80723576Y-89514008D01*
X80942742Y-89648313D01*
X81180213Y-89746677D01*
X81430152Y-89806682D01*
X81686400Y-89826849D01*
X81942647Y-89806682D01*
X82192586Y-89746677D01*
X82430057Y-89648313D01*
X82649224Y-89514008D01*
X82650935Y-89512546D01*
X82650936Y-89512545D01*
X82081477Y-88943086D01*
X82203831Y-88869469D01*
X82338058Y-88742323D01*
X82441813Y-88589295D01*
X82443035Y-88586226D01*
X83010145Y-89153336D01*
X83010146Y-89153335D01*
X83011608Y-89151624D01*
X83145913Y-88932457D01*
X83244277Y-88694986D01*
X83304282Y-88445047D01*
X83324449Y-88188800D01*
X85128350Y-88188800D01*
X85148517Y-88445047D01*
X85208522Y-88694986D01*
X85306886Y-88932457D01*
X85441192Y-89151625D01*
X85442653Y-89153336D01*
X86013206Y-88582782D01*
X86058716Y-88668622D01*
X86178409Y-88809535D01*
X86325595Y-88921423D01*
X86371668Y-88942739D01*
X85801862Y-89512545D01*
X85801862Y-89512546D01*
X85803576Y-89514008D01*
X86022742Y-89648313D01*
X86260213Y-89746677D01*
X86510152Y-89806682D01*
X86766400Y-89826849D01*
X87022647Y-89806682D01*
X87272586Y-89746677D01*
X87510057Y-89648313D01*
X87729224Y-89514008D01*
X87730935Y-89512546D01*
X87730936Y-89512545D01*
X87161477Y-88943086D01*
X87283831Y-88869469D01*
X87418058Y-88742323D01*
X87521813Y-88589295D01*
X87523035Y-88586226D01*
X88090145Y-89153336D01*
X88090146Y-89153335D01*
X88091608Y-89151624D01*
X88225913Y-88932457D01*
X88324277Y-88694986D01*
X88384282Y-88445047D01*
X88385309Y-88431999D01*
X102022496Y-88431999D01*
X102042458Y-88621929D01*
X102101472Y-88803556D01*
X102196958Y-88968942D01*
X102263601Y-89042956D01*
X102324747Y-89110866D01*
X102479248Y-89223118D01*
X102653712Y-89300794D01*
X102840513Y-89340500D01*
X102840515Y-89340500D01*
X103031485Y-89340500D01*
X103031487Y-89340500D01*
X103218288Y-89300794D01*
X103392752Y-89223118D01*
X103547253Y-89110866D01*
X103675040Y-88968944D01*
X103770527Y-88803556D01*
X103829542Y-88621928D01*
X103849504Y-88432000D01*
X103829542Y-88242072D01*
X103797192Y-88142511D01*
X103770527Y-88060443D01*
X103675041Y-87895057D01*
X103547252Y-87753133D01*
X103470002Y-87697008D01*
X103392752Y-87640882D01*
X103218288Y-87563206D01*
X103031487Y-87523500D01*
X102840513Y-87523500D01*
X102715979Y-87549970D01*
X102653711Y-87563206D01*
X102479246Y-87640883D01*
X102324747Y-87753133D01*
X102196958Y-87895057D01*
X102101472Y-88060443D01*
X102042458Y-88242070D01*
X102022496Y-88431999D01*
X88385309Y-88431999D01*
X88404449Y-88188799D01*
X88384282Y-87932552D01*
X88324277Y-87682613D01*
X88225913Y-87445142D01*
X88091608Y-87225976D01*
X88090145Y-87224262D01*
X87519592Y-87794815D01*
X87474084Y-87708978D01*
X87354391Y-87568065D01*
X87207205Y-87456177D01*
X87161129Y-87434860D01*
X87730936Y-86865053D01*
X87729225Y-86863592D01*
X87510057Y-86729286D01*
X87272586Y-86630922D01*
X87202101Y-86614000D01*
X112116496Y-86614000D01*
X112136458Y-86803929D01*
X112195472Y-86985556D01*
X112290958Y-87150942D01*
X112290960Y-87150944D01*
X112418747Y-87292866D01*
X112573248Y-87405118D01*
X112747712Y-87482794D01*
X112934513Y-87522500D01*
X112934515Y-87522500D01*
X113125485Y-87522500D01*
X113125487Y-87522500D01*
X113312288Y-87482794D01*
X113486752Y-87405118D01*
X113641253Y-87292866D01*
X113769040Y-87150944D01*
X113864527Y-86985556D01*
X113923542Y-86803928D01*
X113943504Y-86614000D01*
X113923542Y-86424072D01*
X113864527Y-86242444D01*
X113864527Y-86242443D01*
X113769041Y-86077057D01*
X113744678Y-86049999D01*
X122136496Y-86049999D01*
X122156458Y-86239929D01*
X122215472Y-86421556D01*
X122310958Y-86586942D01*
X122310960Y-86586944D01*
X122438747Y-86728866D01*
X122593248Y-86841118D01*
X122767712Y-86918794D01*
X122954513Y-86958500D01*
X122954515Y-86958500D01*
X123145485Y-86958500D01*
X123145487Y-86958500D01*
X123332288Y-86918794D01*
X123506752Y-86841118D01*
X123661253Y-86728866D01*
X123789040Y-86586944D01*
X123884527Y-86421556D01*
X123943542Y-86239928D01*
X123963504Y-86050000D01*
X123952101Y-85941510D01*
X125361985Y-85941510D01*
X125381947Y-86131440D01*
X125440961Y-86313067D01*
X125536447Y-86478453D01*
X125536449Y-86478455D01*
X125664236Y-86620377D01*
X125818737Y-86732629D01*
X125993201Y-86810305D01*
X126180002Y-86850011D01*
X126180004Y-86850011D01*
X126370974Y-86850011D01*
X126370976Y-86850011D01*
X126557777Y-86810305D01*
X126732241Y-86732629D01*
X126886742Y-86620377D01*
X127014529Y-86478455D01*
X127110016Y-86313067D01*
X127169031Y-86131439D01*
X127188993Y-85941511D01*
X127169031Y-85751583D01*
X127110016Y-85569955D01*
X127110016Y-85569954D01*
X127014530Y-85404568D01*
X126886741Y-85262644D01*
X126732242Y-85150394D01*
X126732241Y-85150393D01*
X126557777Y-85072717D01*
X126370976Y-85033011D01*
X126180002Y-85033011D01*
X126055468Y-85059481D01*
X125993200Y-85072717D01*
X125818735Y-85150394D01*
X125664236Y-85262644D01*
X125536447Y-85404568D01*
X125440961Y-85569954D01*
X125381947Y-85751581D01*
X125361985Y-85941510D01*
X123952101Y-85941510D01*
X123943542Y-85860072D01*
X123912931Y-85765862D01*
X123884527Y-85678443D01*
X123789041Y-85513057D01*
X123661252Y-85371133D01*
X123506753Y-85258883D01*
X123506752Y-85258882D01*
X123332288Y-85181206D01*
X123145487Y-85141500D01*
X122954513Y-85141500D01*
X122829978Y-85167970D01*
X122767711Y-85181206D01*
X122593246Y-85258883D01*
X122438747Y-85371133D01*
X122310958Y-85513057D01*
X122215472Y-85678443D01*
X122156458Y-85860070D01*
X122136496Y-86049999D01*
X113744678Y-86049999D01*
X113641252Y-85935133D01*
X113486753Y-85822883D01*
X113486752Y-85822882D01*
X113312288Y-85745206D01*
X113125487Y-85705500D01*
X112934513Y-85705500D01*
X112809979Y-85731970D01*
X112747711Y-85745206D01*
X112573246Y-85822883D01*
X112418747Y-85935133D01*
X112290958Y-86077057D01*
X112195472Y-86242443D01*
X112136458Y-86424070D01*
X112116496Y-86614000D01*
X87202101Y-86614000D01*
X87022647Y-86570917D01*
X86766399Y-86550750D01*
X86510152Y-86570917D01*
X86260213Y-86630922D01*
X86022742Y-86729286D01*
X85803574Y-86863592D01*
X85801862Y-86865053D01*
X86371321Y-87434513D01*
X86248969Y-87508131D01*
X86114742Y-87635277D01*
X86010987Y-87788305D01*
X86009764Y-87791373D01*
X85442653Y-87224262D01*
X85441192Y-87225974D01*
X85306886Y-87445142D01*
X85208522Y-87682613D01*
X85148517Y-87932552D01*
X85128350Y-88188800D01*
X83324449Y-88188800D01*
X83304282Y-87932552D01*
X83244277Y-87682613D01*
X83145913Y-87445142D01*
X83011608Y-87225976D01*
X83010145Y-87224262D01*
X82439592Y-87794815D01*
X82394084Y-87708978D01*
X82274391Y-87568065D01*
X82127205Y-87456177D01*
X82081129Y-87434860D01*
X82650936Y-86865053D01*
X82649225Y-86863592D01*
X82430057Y-86729286D01*
X82192586Y-86630922D01*
X81942647Y-86570917D01*
X81686399Y-86550750D01*
X81430152Y-86570917D01*
X81180213Y-86630922D01*
X80942742Y-86729286D01*
X80723574Y-86863592D01*
X80721862Y-86865053D01*
X81291322Y-87434513D01*
X81168969Y-87508131D01*
X81034742Y-87635277D01*
X80930987Y-87788305D01*
X80929764Y-87791373D01*
X80362653Y-87224262D01*
X80361192Y-87225974D01*
X80226885Y-87445144D01*
X80222045Y-87456829D01*
X80177496Y-87512109D01*
X80110132Y-87534529D01*
X80041341Y-87516970D01*
X79992964Y-87465007D01*
X79979637Y-87408690D01*
X79979602Y-87353778D01*
X79978447Y-85549999D01*
X99123996Y-85549999D01*
X99143958Y-85739929D01*
X99202972Y-85921556D01*
X99298458Y-86086942D01*
X99298460Y-86086944D01*
X99426247Y-86228866D01*
X99580748Y-86341118D01*
X99755212Y-86418794D01*
X99942013Y-86458500D01*
X99942015Y-86458500D01*
X100132985Y-86458500D01*
X100132987Y-86458500D01*
X100319788Y-86418794D01*
X100494252Y-86341118D01*
X100648753Y-86228866D01*
X100776540Y-86086944D01*
X100872027Y-85921556D01*
X100931042Y-85739928D01*
X100951004Y-85550000D01*
X100931042Y-85360072D01*
X100898163Y-85258882D01*
X100872027Y-85178443D01*
X100776541Y-85013057D01*
X100648752Y-84871133D01*
X100494253Y-84758883D01*
X100494252Y-84758882D01*
X100319788Y-84681206D01*
X100132987Y-84641500D01*
X99942013Y-84641500D01*
X99817478Y-84667970D01*
X99755211Y-84681206D01*
X99580746Y-84758883D01*
X99426247Y-84871133D01*
X99298458Y-85013057D01*
X99202972Y-85178443D01*
X99143958Y-85360070D01*
X99123996Y-85549999D01*
X79978447Y-85549999D01*
X79977004Y-83294822D01*
X81282400Y-83294822D01*
X81282759Y-83301536D01*
X81288905Y-83358693D01*
X81339954Y-83495562D01*
X81427495Y-83612504D01*
X81544437Y-83700045D01*
X81681306Y-83751094D01*
X81738463Y-83757240D01*
X81745177Y-83757600D01*
X82936400Y-83757600D01*
X82936400Y-82501920D01*
X83021649Y-82534251D01*
X83148060Y-82549600D01*
X83232740Y-82549600D01*
X83359151Y-82534251D01*
X83444400Y-82501920D01*
X83444400Y-83757600D01*
X84635623Y-83757600D01*
X84642336Y-83757240D01*
X84699493Y-83751094D01*
X84836362Y-83700045D01*
X84953304Y-83612504D01*
X85040845Y-83495562D01*
X85091894Y-83358693D01*
X85098040Y-83301536D01*
X85098400Y-83294822D01*
X85098400Y-82250000D01*
X119798996Y-82250000D01*
X119818958Y-82439929D01*
X119877972Y-82621556D01*
X119973458Y-82786942D01*
X119973460Y-82786944D01*
X120101247Y-82928866D01*
X120255748Y-83041118D01*
X120430212Y-83118794D01*
X120617013Y-83158500D01*
X120617015Y-83158500D01*
X120807985Y-83158500D01*
X120807987Y-83158500D01*
X120994788Y-83118794D01*
X121169252Y-83041118D01*
X121323753Y-82928866D01*
X121451540Y-82786944D01*
X121547027Y-82621556D01*
X121606042Y-82439928D01*
X121626004Y-82250000D01*
X121609482Y-82092799D01*
X130861696Y-82092799D01*
X130881658Y-82282729D01*
X130940672Y-82464356D01*
X131036158Y-82629742D01*
X131036160Y-82629744D01*
X131163947Y-82771666D01*
X131318448Y-82883918D01*
X131492912Y-82961594D01*
X131679713Y-83001300D01*
X131679715Y-83001300D01*
X131870685Y-83001300D01*
X131870687Y-83001300D01*
X132057488Y-82961594D01*
X132231952Y-82883918D01*
X132386453Y-82771666D01*
X132514240Y-82629744D01*
X132609727Y-82464356D01*
X132668742Y-82282728D01*
X132688704Y-82092800D01*
X132668742Y-81902872D01*
X132609727Y-81721244D01*
X132609727Y-81721243D01*
X132514241Y-81555857D01*
X132386452Y-81413933D01*
X132309202Y-81357808D01*
X132231952Y-81301682D01*
X132057488Y-81224006D01*
X131870687Y-81184300D01*
X131679713Y-81184300D01*
X131555179Y-81210770D01*
X131492911Y-81224006D01*
X131318446Y-81301683D01*
X131163947Y-81413933D01*
X131036158Y-81555857D01*
X130940672Y-81721243D01*
X130881658Y-81902870D01*
X130861696Y-82092799D01*
X121609482Y-82092799D01*
X121606042Y-82060072D01*
X121547027Y-81878444D01*
X121547027Y-81878443D01*
X121451541Y-81713057D01*
X121323752Y-81571133D01*
X121169253Y-81458883D01*
X121169252Y-81458882D01*
X120994788Y-81381206D01*
X120807987Y-81341500D01*
X120617013Y-81341500D01*
X120492479Y-81367970D01*
X120430211Y-81381206D01*
X120255746Y-81458883D01*
X120101247Y-81571133D01*
X119973458Y-81713057D01*
X119877972Y-81878443D01*
X119818958Y-82060070D01*
X119798996Y-82250000D01*
X85098400Y-82250000D01*
X85098400Y-82103600D01*
X83847643Y-82103600D01*
X83849718Y-82099646D01*
X83890400Y-81934595D01*
X83890400Y-81764605D01*
X83849718Y-81599554D01*
X83847643Y-81595600D01*
X85098400Y-81595600D01*
X85098400Y-80404377D01*
X85098040Y-80397663D01*
X85091894Y-80340506D01*
X85040845Y-80203637D01*
X84953304Y-80086695D01*
X84836362Y-79999154D01*
X84699493Y-79948105D01*
X84642336Y-79941959D01*
X84635623Y-79941600D01*
X83444400Y-79941600D01*
X83444400Y-81197279D01*
X83359151Y-81164949D01*
X83232740Y-81149600D01*
X83148060Y-81149600D01*
X83021649Y-81164949D01*
X82936400Y-81197279D01*
X82936400Y-79941600D01*
X81745177Y-79941600D01*
X81738463Y-79941959D01*
X81681306Y-79948105D01*
X81544437Y-79999154D01*
X81427495Y-80086695D01*
X81339954Y-80203637D01*
X81288905Y-80340506D01*
X81282759Y-80397663D01*
X81282400Y-80404377D01*
X81282400Y-81595600D01*
X82533157Y-81595600D01*
X82531082Y-81599554D01*
X82490400Y-81764605D01*
X82490400Y-81934595D01*
X82531082Y-82099646D01*
X82533157Y-82103600D01*
X81282400Y-82103600D01*
X81282400Y-83294822D01*
X79977004Y-83294822D01*
X79974287Y-79050000D01*
X104023996Y-79050000D01*
X104043958Y-79239929D01*
X104102972Y-79421556D01*
X104198458Y-79586942D01*
X104198460Y-79586944D01*
X104326247Y-79728866D01*
X104480748Y-79841118D01*
X104655212Y-79918794D01*
X104842013Y-79958500D01*
X104842015Y-79958500D01*
X105032985Y-79958500D01*
X105032987Y-79958500D01*
X105219788Y-79918794D01*
X105394252Y-79841118D01*
X105548753Y-79728866D01*
X105676540Y-79586944D01*
X105772027Y-79421556D01*
X105831042Y-79239928D01*
X105851004Y-79050000D01*
X105831042Y-78860072D01*
X105772027Y-78678444D01*
X105772027Y-78678443D01*
X105676541Y-78513057D01*
X105548752Y-78371133D01*
X105394253Y-78258883D01*
X105394252Y-78258882D01*
X105219788Y-78181206D01*
X105032987Y-78141500D01*
X104842013Y-78141500D01*
X104717479Y-78167970D01*
X104655211Y-78181206D01*
X104480746Y-78258883D01*
X104326247Y-78371133D01*
X104198458Y-78513057D01*
X104102972Y-78678443D01*
X104043958Y-78860070D01*
X104023996Y-79050000D01*
X79974287Y-79050000D01*
X79972878Y-76849599D01*
X81277024Y-76849599D01*
X81296500Y-77121905D01*
X81354527Y-77388652D01*
X81354530Y-77388660D01*
X81449933Y-77644445D01*
X81493261Y-77723794D01*
X81580768Y-77884051D01*
X81744369Y-78102596D01*
X81937403Y-78295630D01*
X82038265Y-78371134D01*
X82155951Y-78459233D01*
X82395555Y-78590067D01*
X82651340Y-78685470D01*
X82651343Y-78685470D01*
X82651347Y-78685472D01*
X82861039Y-78731087D01*
X82918098Y-78743500D01*
X83190400Y-78762975D01*
X83462702Y-78743500D01*
X83615343Y-78710294D01*
X83729452Y-78685472D01*
X83729453Y-78685471D01*
X83729460Y-78685470D01*
X83985245Y-78590067D01*
X84224849Y-78459233D01*
X84443394Y-78295632D01*
X84636432Y-78102594D01*
X84800033Y-77884049D01*
X84930867Y-77644445D01*
X85026270Y-77388660D01*
X85084300Y-77121902D01*
X85103775Y-76849600D01*
X85095078Y-76728000D01*
X120070496Y-76728000D01*
X120090458Y-76917929D01*
X120149472Y-77099556D01*
X120244958Y-77264942D01*
X120244960Y-77264944D01*
X120372747Y-77406866D01*
X120527248Y-77519118D01*
X120701712Y-77596794D01*
X120888513Y-77636500D01*
X120888515Y-77636500D01*
X121079485Y-77636500D01*
X121079487Y-77636500D01*
X121266288Y-77596794D01*
X121440752Y-77519118D01*
X121595253Y-77406866D01*
X121723040Y-77264944D01*
X121818527Y-77099556D01*
X121877542Y-76917928D01*
X121884156Y-76854999D01*
X122737496Y-76854999D01*
X122757458Y-77044929D01*
X122816472Y-77226556D01*
X122911958Y-77391942D01*
X122911960Y-77391944D01*
X123039747Y-77533866D01*
X123194248Y-77646118D01*
X123368712Y-77723794D01*
X123555513Y-77763500D01*
X123555515Y-77763500D01*
X123746485Y-77763500D01*
X123746487Y-77763500D01*
X123933288Y-77723794D01*
X124107752Y-77646118D01*
X124262253Y-77533866D01*
X124390040Y-77391944D01*
X124485527Y-77226556D01*
X124544542Y-77044928D01*
X124564504Y-76855000D01*
X124544542Y-76665072D01*
X124485527Y-76483444D01*
X124485527Y-76483443D01*
X124390041Y-76318057D01*
X124262252Y-76176133D01*
X124107753Y-76063883D01*
X124107752Y-76063882D01*
X123933288Y-75986206D01*
X123746487Y-75946500D01*
X123555513Y-75946500D01*
X123430979Y-75972970D01*
X123368711Y-75986206D01*
X123194246Y-76063883D01*
X123039747Y-76176133D01*
X122911958Y-76318057D01*
X122816472Y-76483443D01*
X122757458Y-76665070D01*
X122737496Y-76854999D01*
X121884156Y-76854999D01*
X121897504Y-76728000D01*
X121877542Y-76538072D01*
X121818527Y-76356444D01*
X121818527Y-76356443D01*
X121723041Y-76191057D01*
X121595252Y-76049133D01*
X121440753Y-75936883D01*
X121440752Y-75936882D01*
X121266288Y-75859206D01*
X121079487Y-75819500D01*
X120888513Y-75819500D01*
X120763979Y-75845970D01*
X120701711Y-75859206D01*
X120527246Y-75936883D01*
X120372747Y-76049133D01*
X120244958Y-76191057D01*
X120149472Y-76356443D01*
X120090458Y-76538070D01*
X120070496Y-76728000D01*
X85095078Y-76728000D01*
X85084300Y-76577298D01*
X85036256Y-76356443D01*
X85026272Y-76310547D01*
X85026270Y-76310543D01*
X85026270Y-76310540D01*
X84930867Y-76054755D01*
X84800033Y-75815151D01*
X84672773Y-75645151D01*
X84636430Y-75596603D01*
X84443396Y-75403569D01*
X84224851Y-75239968D01*
X84166590Y-75208155D01*
X83985245Y-75109133D01*
X83729460Y-75013730D01*
X83729452Y-75013727D01*
X83462705Y-74955700D01*
X83190400Y-74936224D01*
X82918094Y-74955700D01*
X82651347Y-75013727D01*
X82496585Y-75071450D01*
X82395555Y-75109133D01*
X82395553Y-75109133D01*
X82395553Y-75109134D01*
X82155948Y-75239968D01*
X81937403Y-75403569D01*
X81744369Y-75596603D01*
X81580768Y-75815148D01*
X81453003Y-76049133D01*
X81449933Y-76054755D01*
X81412250Y-76155785D01*
X81354527Y-76310547D01*
X81296500Y-76577294D01*
X81277024Y-76849599D01*
X79972878Y-76849599D01*
X79971422Y-74574400D01*
X91866750Y-74574400D01*
X91885705Y-74778957D01*
X91941925Y-74976551D01*
X92007944Y-75109133D01*
X92033497Y-75160450D01*
X92157299Y-75324391D01*
X92309118Y-75462792D01*
X92396043Y-75516614D01*
X92483056Y-75570491D01*
X92483782Y-75570940D01*
X92675345Y-75645151D01*
X92877282Y-75682900D01*
X92877284Y-75682900D01*
X93082716Y-75682900D01*
X93082718Y-75682900D01*
X93284655Y-75645151D01*
X93476218Y-75570940D01*
X93563957Y-75516614D01*
X94396994Y-75516614D01*
X94484007Y-75570491D01*
X94675479Y-75644667D01*
X94877331Y-75682400D01*
X95082669Y-75682400D01*
X95284520Y-75644667D01*
X95475992Y-75570491D01*
X95563004Y-75516615D01*
X94980000Y-74933610D01*
X94979999Y-74933610D01*
X94396994Y-75516614D01*
X93563957Y-75516614D01*
X93650882Y-75462792D01*
X93802701Y-75324391D01*
X93890479Y-75208153D01*
X93947491Y-75165847D01*
X93999782Y-75158390D01*
X94034387Y-75160800D01*
X94620789Y-74574399D01*
X94592630Y-74546240D01*
X94676105Y-74546240D01*
X94686454Y-74657921D01*
X94736448Y-74758322D01*
X94819334Y-74833884D01*
X94923920Y-74874400D01*
X95007802Y-74874400D01*
X95090250Y-74858988D01*
X95185610Y-74799943D01*
X95253201Y-74710438D01*
X95283895Y-74602560D01*
X95281285Y-74574399D01*
X95339210Y-74574399D01*
X95925611Y-75160800D01*
X95926078Y-75160181D01*
X96017605Y-74976372D01*
X96073800Y-74778865D01*
X96092747Y-74574399D01*
X96073800Y-74369934D01*
X96017606Y-74172431D01*
X95926076Y-73988613D01*
X95925612Y-73987998D01*
X95925610Y-73987998D01*
X95339210Y-74574399D01*
X95281285Y-74574399D01*
X95273546Y-74490879D01*
X95223552Y-74390478D01*
X95140666Y-74314916D01*
X95036080Y-74274400D01*
X94952198Y-74274400D01*
X94869750Y-74289812D01*
X94774390Y-74348857D01*
X94706799Y-74438362D01*
X94676105Y-74546240D01*
X94592630Y-74546240D01*
X94034386Y-73987996D01*
X93999836Y-73990416D01*
X93930485Y-73975221D01*
X93890486Y-73940656D01*
X93802701Y-73824409D01*
X93650882Y-73686008D01*
X93563954Y-73632184D01*
X94396994Y-73632184D01*
X94979999Y-74215189D01*
X94980000Y-74215189D01*
X95563004Y-73632183D01*
X95475995Y-73578310D01*
X95284520Y-73504132D01*
X95082669Y-73466400D01*
X94877331Y-73466400D01*
X94675479Y-73504132D01*
X94484009Y-73578308D01*
X94396994Y-73632184D01*
X93563954Y-73632184D01*
X93563952Y-73632183D01*
X93476219Y-73577860D01*
X93284655Y-73503649D01*
X93284655Y-73503648D01*
X93082718Y-73465900D01*
X92877282Y-73465900D01*
X92742657Y-73491066D01*
X92675344Y-73503649D01*
X92483780Y-73577860D01*
X92309119Y-73686007D01*
X92157298Y-73824410D01*
X92033497Y-73988349D01*
X91941925Y-74172248D01*
X91885705Y-74369842D01*
X91866750Y-74574400D01*
X79971422Y-74574400D01*
X79968723Y-70358000D01*
X108331496Y-70358000D01*
X108351458Y-70547929D01*
X108410472Y-70729556D01*
X108505958Y-70894942D01*
X108505960Y-70894944D01*
X108633747Y-71036866D01*
X108788248Y-71149118D01*
X108962712Y-71226794D01*
X109149513Y-71266500D01*
X109149515Y-71266500D01*
X109340485Y-71266500D01*
X109340487Y-71266500D01*
X109527288Y-71226794D01*
X109701752Y-71149118D01*
X109856253Y-71036866D01*
X109984040Y-70894944D01*
X110079527Y-70729556D01*
X110111225Y-70632000D01*
X125429996Y-70632000D01*
X125449958Y-70821929D01*
X125508972Y-71003556D01*
X125604458Y-71168942D01*
X125604460Y-71168944D01*
X125732247Y-71310866D01*
X125886748Y-71423118D01*
X126061212Y-71500794D01*
X126248013Y-71540500D01*
X126248015Y-71540500D01*
X126438985Y-71540500D01*
X126438987Y-71540500D01*
X126625788Y-71500794D01*
X126800252Y-71423118D01*
X126954753Y-71310866D01*
X127082540Y-71168944D01*
X127178027Y-71003556D01*
X127237042Y-70821928D01*
X127257004Y-70632000D01*
X127237042Y-70442072D01*
X127178027Y-70260444D01*
X127178027Y-70260443D01*
X127082541Y-70095057D01*
X126984745Y-69986444D01*
X126954753Y-69953134D01*
X126800252Y-69840882D01*
X126625788Y-69763206D01*
X126438987Y-69723500D01*
X126248013Y-69723500D01*
X126123478Y-69749970D01*
X126061211Y-69763206D01*
X125886746Y-69840883D01*
X125732247Y-69953133D01*
X125604458Y-70095057D01*
X125508972Y-70260443D01*
X125449958Y-70442070D01*
X125429996Y-70632000D01*
X110111225Y-70632000D01*
X110138542Y-70547928D01*
X110158504Y-70358000D01*
X110138542Y-70168072D01*
X110079527Y-69986444D01*
X110079527Y-69986443D01*
X109984041Y-69821057D01*
X109856252Y-69679133D01*
X109701753Y-69566883D01*
X109701752Y-69566882D01*
X109527288Y-69489206D01*
X109340487Y-69449500D01*
X109149513Y-69449500D01*
X109024979Y-69475970D01*
X108962711Y-69489206D01*
X108788246Y-69566883D01*
X108633747Y-69679133D01*
X108505958Y-69821057D01*
X108410472Y-69986443D01*
X108351458Y-70168070D01*
X108331496Y-70358000D01*
X79968723Y-70358000D01*
X79967097Y-67818000D01*
X97708750Y-67818000D01*
X97727705Y-68022557D01*
X97783925Y-68220151D01*
X97874471Y-68401990D01*
X97875497Y-68404050D01*
X97999299Y-68567991D01*
X98151118Y-68706392D01*
X98238043Y-68760214D01*
X98325056Y-68814091D01*
X98325782Y-68814540D01*
X98517345Y-68888751D01*
X98719282Y-68926500D01*
X98719284Y-68926500D01*
X98924716Y-68926500D01*
X98924718Y-68926500D01*
X99126655Y-68888751D01*
X99318218Y-68814540D01*
X99405957Y-68760214D01*
X100238994Y-68760214D01*
X100326007Y-68814091D01*
X100517479Y-68888267D01*
X100719331Y-68926000D01*
X100924669Y-68926000D01*
X101126520Y-68888267D01*
X101317992Y-68814091D01*
X101405004Y-68760215D01*
X100822000Y-68177210D01*
X100821999Y-68177210D01*
X100238994Y-68760214D01*
X99405957Y-68760214D01*
X99492882Y-68706392D01*
X99644701Y-68567991D01*
X99732479Y-68451753D01*
X99789491Y-68409447D01*
X99841782Y-68401990D01*
X99876387Y-68404400D01*
X100462789Y-67817999D01*
X100434630Y-67789840D01*
X100518105Y-67789840D01*
X100528454Y-67901521D01*
X100578448Y-68001922D01*
X100661334Y-68077484D01*
X100765920Y-68118000D01*
X100849802Y-68118000D01*
X100932250Y-68102588D01*
X101027610Y-68043543D01*
X101095201Y-67954038D01*
X101125895Y-67846160D01*
X101123285Y-67817999D01*
X101181210Y-67817999D01*
X101767611Y-68404400D01*
X101768078Y-68403781D01*
X101859605Y-68219972D01*
X101915800Y-68022465D01*
X101934747Y-67818000D01*
X101915800Y-67613534D01*
X101859606Y-67416031D01*
X101768076Y-67232213D01*
X101767612Y-67231598D01*
X101767610Y-67231598D01*
X101181210Y-67817999D01*
X101123285Y-67817999D01*
X101115546Y-67734479D01*
X101065552Y-67634078D01*
X100982666Y-67558516D01*
X100878080Y-67518000D01*
X100794198Y-67518000D01*
X100711750Y-67533412D01*
X100616390Y-67592457D01*
X100548799Y-67681962D01*
X100518105Y-67789840D01*
X100434630Y-67789840D01*
X99876386Y-67231596D01*
X99841836Y-67234016D01*
X99772485Y-67218821D01*
X99732486Y-67184256D01*
X99644701Y-67068009D01*
X99492882Y-66929608D01*
X99405954Y-66875784D01*
X100238994Y-66875784D01*
X100821999Y-67458789D01*
X100822000Y-67458789D01*
X101405004Y-66875783D01*
X101317995Y-66821910D01*
X101126520Y-66747732D01*
X100924669Y-66710000D01*
X100719331Y-66710000D01*
X100517479Y-66747732D01*
X100326009Y-66821908D01*
X100238994Y-66875784D01*
X99405954Y-66875784D01*
X99405952Y-66875783D01*
X99318219Y-66821460D01*
X99126655Y-66747249D01*
X99126654Y-66747248D01*
X98924718Y-66709500D01*
X98719282Y-66709500D01*
X98584657Y-66734666D01*
X98517344Y-66747249D01*
X98325780Y-66821460D01*
X98151119Y-66929607D01*
X97999298Y-67068010D01*
X97875497Y-67231949D01*
X97783925Y-67415848D01*
X97727705Y-67613442D01*
X97708750Y-67818000D01*
X79967097Y-67818000D01*
X79962969Y-61369029D01*
X79982926Y-61300900D01*
X80036552Y-61254373D01*
X80106820Y-61244224D01*
X80171419Y-61273676D01*
X80206337Y-61323415D01*
X80205402Y-61321159D01*
X80206527Y-61323687D01*
X80206592Y-61323779D01*
X80206740Y-61324165D01*
X80209421Y-61330188D01*
X80382873Y-61670605D01*
X80386169Y-61676314D01*
X80594248Y-61996727D01*
X80598130Y-62002070D01*
X80802876Y-62254911D01*
X80802877Y-62254912D01*
X81720147Y-61337641D01*
X81667449Y-61416511D01*
X81648046Y-61514056D01*
X81667449Y-61611601D01*
X81722704Y-61694296D01*
X81805399Y-61749551D01*
X81878320Y-61764056D01*
X81927568Y-61764056D01*
X82000489Y-61749551D01*
X82079349Y-61696857D01*
X81162086Y-62614121D01*
X81162087Y-62614122D01*
X81414929Y-62818869D01*
X81420272Y-62822751D01*
X81740685Y-63030830D01*
X81746394Y-63034126D01*
X82086811Y-63207578D01*
X82092835Y-63210260D01*
X82449501Y-63347170D01*
X82455784Y-63349212D01*
X82824815Y-63448094D01*
X82831265Y-63449465D01*
X83208629Y-63509233D01*
X83215167Y-63509920D01*
X83596699Y-63529916D01*
X83603301Y-63529916D01*
X83984832Y-63509920D01*
X83991370Y-63509233D01*
X84368734Y-63449465D01*
X84375184Y-63448094D01*
X84744215Y-63349212D01*
X84750498Y-63347170D01*
X85107164Y-63210260D01*
X85113188Y-63207578D01*
X85453605Y-63034126D01*
X85459314Y-63030830D01*
X85779728Y-62822751D01*
X85785064Y-62818874D01*
X86037912Y-62614121D01*
X85120646Y-61696855D01*
X85199511Y-61749551D01*
X85272432Y-61764056D01*
X85321680Y-61764056D01*
X85394601Y-61749551D01*
X85477296Y-61694296D01*
X85532551Y-61611601D01*
X85551954Y-61514056D01*
X85532551Y-61416511D01*
X85479855Y-61337646D01*
X86397121Y-62254912D01*
X86601874Y-62002064D01*
X86605751Y-61996728D01*
X86619212Y-61976000D01*
X110846496Y-61976000D01*
X110848675Y-61996728D01*
X110866458Y-62165929D01*
X110925472Y-62347556D01*
X111020958Y-62512942D01*
X111020960Y-62512944D01*
X111148747Y-62654866D01*
X111303248Y-62767118D01*
X111477712Y-62844794D01*
X111664513Y-62884500D01*
X111664515Y-62884500D01*
X111855485Y-62884500D01*
X111855487Y-62884500D01*
X112042288Y-62844794D01*
X112216752Y-62767118D01*
X112371253Y-62654866D01*
X112499040Y-62512944D01*
X112594527Y-62347556D01*
X112653542Y-62165928D01*
X112673504Y-61976000D01*
X119990496Y-61976000D01*
X119992675Y-61996728D01*
X120010458Y-62165929D01*
X120069472Y-62347556D01*
X120164958Y-62512942D01*
X120164960Y-62512944D01*
X120292747Y-62654866D01*
X120447248Y-62767118D01*
X120621712Y-62844794D01*
X120808513Y-62884500D01*
X120808515Y-62884500D01*
X120999485Y-62884500D01*
X120999487Y-62884500D01*
X121186288Y-62844794D01*
X121360752Y-62767118D01*
X121515253Y-62654866D01*
X121643040Y-62512944D01*
X121738527Y-62347556D01*
X121797542Y-62165928D01*
X121817504Y-61976000D01*
X121797542Y-61786072D01*
X121760024Y-61670605D01*
X121738527Y-61604443D01*
X121643041Y-61439057D01*
X121515252Y-61297133D01*
X121360753Y-61184883D01*
X121360752Y-61184882D01*
X121186288Y-61107206D01*
X120999487Y-61067500D01*
X120808513Y-61067500D01*
X120683979Y-61093970D01*
X120621711Y-61107206D01*
X120447246Y-61184883D01*
X120292747Y-61297133D01*
X120164958Y-61439057D01*
X120069472Y-61604443D01*
X120010458Y-61786070D01*
X120010457Y-61786072D01*
X120010458Y-61786072D01*
X119990496Y-61976000D01*
X112673504Y-61976000D01*
X112653542Y-61786072D01*
X112616024Y-61670605D01*
X112594527Y-61604443D01*
X112499041Y-61439057D01*
X112371252Y-61297133D01*
X112216753Y-61184883D01*
X112216752Y-61184882D01*
X112042288Y-61107206D01*
X111855487Y-61067500D01*
X111664513Y-61067500D01*
X111539979Y-61093970D01*
X111477711Y-61107206D01*
X111303246Y-61184883D01*
X111148747Y-61297133D01*
X111020958Y-61439057D01*
X110925472Y-61604443D01*
X110866458Y-61786070D01*
X110866457Y-61786072D01*
X110866458Y-61786072D01*
X110846496Y-61976000D01*
X86619212Y-61976000D01*
X86813830Y-61676314D01*
X86817126Y-61670605D01*
X86990578Y-61330188D01*
X86993260Y-61324164D01*
X87130170Y-60967498D01*
X87132212Y-60961215D01*
X87231094Y-60592184D01*
X87232465Y-60585734D01*
X87292233Y-60208370D01*
X87292920Y-60201832D01*
X87306107Y-59950222D01*
X111291000Y-59950222D01*
X111291359Y-59956936D01*
X111297505Y-60014093D01*
X111348554Y-60150962D01*
X111436095Y-60267904D01*
X111553037Y-60355445D01*
X111689906Y-60406494D01*
X111747063Y-60412640D01*
X111753777Y-60413000D01*
X112395000Y-60413000D01*
X112395000Y-59488674D01*
X112506685Y-59539680D01*
X112613237Y-59555000D01*
X112684763Y-59555000D01*
X112791315Y-59539680D01*
X112903000Y-59488674D01*
X112903000Y-60413000D01*
X113544223Y-60413000D01*
X113550936Y-60412640D01*
X113608093Y-60406494D01*
X113744962Y-60355445D01*
X113861904Y-60267904D01*
X113949445Y-60150962D01*
X113993618Y-60032530D01*
X114036164Y-59975694D01*
X114102685Y-59950883D01*
X114172059Y-59965974D01*
X114204372Y-59991222D01*
X114225427Y-60014093D01*
X114265762Y-60057908D01*
X114278817Y-60068069D01*
X114443424Y-60196189D01*
X114641426Y-60303342D01*
X114854365Y-60376444D01*
X115076431Y-60413500D01*
X115076434Y-60413500D01*
X115301566Y-60413500D01*
X115301569Y-60413500D01*
X115523635Y-60376444D01*
X115736574Y-60303342D01*
X115934576Y-60196189D01*
X116112240Y-60057906D01*
X116264722Y-59892268D01*
X116353518Y-59756354D01*
X116407521Y-59710268D01*
X116477869Y-59700693D01*
X116542226Y-59730670D01*
X116564480Y-59756353D01*
X116653278Y-59892268D01*
X116749912Y-59997240D01*
X116805762Y-60057908D01*
X116818817Y-60068069D01*
X116983424Y-60196189D01*
X117181426Y-60303342D01*
X117394365Y-60376444D01*
X117616431Y-60413500D01*
X117616434Y-60413500D01*
X117841566Y-60413500D01*
X117841569Y-60413500D01*
X118063635Y-60376444D01*
X118276574Y-60303342D01*
X118474576Y-60196189D01*
X118652240Y-60057906D01*
X118804722Y-59892268D01*
X118893518Y-59756354D01*
X118947520Y-59710267D01*
X119017868Y-59700692D01*
X119082226Y-59730669D01*
X119104480Y-59756353D01*
X119193278Y-59892268D01*
X119305427Y-60014093D01*
X119345762Y-60057908D01*
X119358817Y-60068069D01*
X119523424Y-60196189D01*
X119721426Y-60303342D01*
X119934365Y-60376444D01*
X120156431Y-60413500D01*
X120156434Y-60413500D01*
X120381566Y-60413500D01*
X120381569Y-60413500D01*
X120603635Y-60376444D01*
X120816574Y-60303342D01*
X121014576Y-60196189D01*
X121192240Y-60057906D01*
X121344722Y-59892268D01*
X121433518Y-59756354D01*
X121487521Y-59710268D01*
X121557869Y-59700693D01*
X121622226Y-59730670D01*
X121644480Y-59756353D01*
X121733278Y-59892268D01*
X121829912Y-59997240D01*
X121885762Y-60057908D01*
X121898817Y-60068069D01*
X122063424Y-60196189D01*
X122261426Y-60303342D01*
X122474365Y-60376444D01*
X122696431Y-60413500D01*
X122696434Y-60413500D01*
X122921566Y-60413500D01*
X122921569Y-60413500D01*
X123143635Y-60376444D01*
X123356574Y-60303342D01*
X123554576Y-60196189D01*
X123732240Y-60057906D01*
X123884722Y-59892268D01*
X124007860Y-59703791D01*
X124098296Y-59497616D01*
X124153564Y-59279368D01*
X124172156Y-59055000D01*
X124153564Y-58830632D01*
X124098296Y-58612384D01*
X124007860Y-58406209D01*
X123884722Y-58217732D01*
X123732240Y-58052094D01*
X123732239Y-58052093D01*
X123732237Y-58052091D01*
X123554578Y-57913812D01*
X123356573Y-57806657D01*
X123204800Y-57754554D01*
X123143635Y-57733556D01*
X122921569Y-57696500D01*
X122696431Y-57696500D01*
X122474365Y-57733556D01*
X122474362Y-57733556D01*
X122474362Y-57733557D01*
X122261426Y-57806657D01*
X122063421Y-57913812D01*
X121885762Y-58052091D01*
X121733278Y-58217731D01*
X121644483Y-58353643D01*
X121590479Y-58399731D01*
X121520131Y-58409306D01*
X121455774Y-58379328D01*
X121433517Y-58353643D01*
X121417767Y-58329536D01*
X121344722Y-58217732D01*
X121192240Y-58052094D01*
X121192239Y-58052093D01*
X121192237Y-58052091D01*
X121014578Y-57913812D01*
X120816573Y-57806657D01*
X120664800Y-57754554D01*
X120603635Y-57733556D01*
X120381569Y-57696500D01*
X120156431Y-57696500D01*
X119934365Y-57733556D01*
X119934362Y-57733556D01*
X119934362Y-57733557D01*
X119721426Y-57806657D01*
X119523421Y-57913812D01*
X119345762Y-58052091D01*
X119193278Y-58217731D01*
X119147677Y-58287528D01*
X119104481Y-58353645D01*
X119050479Y-58399732D01*
X118980131Y-58409307D01*
X118915774Y-58379330D01*
X118893519Y-58353646D01*
X118804722Y-58217732D01*
X118652240Y-58052094D01*
X118652239Y-58052093D01*
X118652237Y-58052091D01*
X118474578Y-57913812D01*
X118276573Y-57806657D01*
X118124800Y-57754554D01*
X118063635Y-57733556D01*
X117841569Y-57696500D01*
X117616431Y-57696500D01*
X117394365Y-57733556D01*
X117394362Y-57733556D01*
X117394362Y-57733557D01*
X117181426Y-57806657D01*
X116983421Y-57913812D01*
X116805762Y-58052091D01*
X116653278Y-58217731D01*
X116564483Y-58353643D01*
X116510479Y-58399731D01*
X116440131Y-58409306D01*
X116375774Y-58379328D01*
X116353517Y-58353643D01*
X116337767Y-58329536D01*
X116264722Y-58217732D01*
X116112240Y-58052094D01*
X116112239Y-58052093D01*
X116112237Y-58052091D01*
X115934578Y-57913812D01*
X115736573Y-57806657D01*
X115584800Y-57754554D01*
X115523635Y-57733556D01*
X115301569Y-57696500D01*
X115076431Y-57696500D01*
X114854365Y-57733556D01*
X114854362Y-57733556D01*
X114854362Y-57733557D01*
X114641426Y-57806657D01*
X114443421Y-57913812D01*
X114265762Y-58052091D01*
X114204375Y-58118775D01*
X114143521Y-58155346D01*
X114072557Y-58153211D01*
X114014012Y-58113049D01*
X113993618Y-58077469D01*
X113949445Y-57959037D01*
X113861904Y-57842095D01*
X113744962Y-57754554D01*
X113608093Y-57703505D01*
X113550936Y-57697359D01*
X113544223Y-57697000D01*
X112903000Y-57697000D01*
X112903000Y-58621325D01*
X112791315Y-58570320D01*
X112684763Y-58555000D01*
X112613237Y-58555000D01*
X112506685Y-58570320D01*
X112395000Y-58621325D01*
X112395000Y-57697000D01*
X111753777Y-57697000D01*
X111747063Y-57697359D01*
X111689906Y-57703505D01*
X111553037Y-57754554D01*
X111436095Y-57842095D01*
X111348554Y-57959037D01*
X111297505Y-58095906D01*
X111291359Y-58153063D01*
X111291000Y-58159777D01*
X111291000Y-58801000D01*
X112217884Y-58801000D01*
X112189507Y-58845156D01*
X112149000Y-58983111D01*
X112149000Y-59126889D01*
X112189507Y-59264844D01*
X112217884Y-59309000D01*
X111291000Y-59309000D01*
X111291000Y-59950222D01*
X87306107Y-59950222D01*
X87312916Y-59820300D01*
X87312916Y-59813699D01*
X87292920Y-59432167D01*
X87292233Y-59425629D01*
X87232465Y-59048265D01*
X87231094Y-59041815D01*
X87132212Y-58672784D01*
X87130170Y-58666501D01*
X86993260Y-58309835D01*
X86990578Y-58303811D01*
X86817127Y-57963397D01*
X86813830Y-57957686D01*
X86605753Y-57637275D01*
X86601865Y-57631924D01*
X86397122Y-57379087D01*
X86397121Y-57379086D01*
X85479858Y-58296348D01*
X85532551Y-58217489D01*
X85551954Y-58119944D01*
X85532551Y-58022399D01*
X85477296Y-57939704D01*
X85394601Y-57884449D01*
X85321680Y-57869944D01*
X85272432Y-57869944D01*
X85199511Y-57884449D01*
X85120642Y-57937147D01*
X86037912Y-57019877D01*
X86037911Y-57019876D01*
X85785070Y-56815130D01*
X85779727Y-56811248D01*
X85680289Y-56746672D01*
X85634053Y-56692796D01*
X85624283Y-56622475D01*
X85654083Y-56558035D01*
X85713992Y-56519936D01*
X85748914Y-56515000D01*
X130051086Y-56515000D01*
X130119207Y-56535002D01*
G37*
%TD.AperFunction*%
%TA.AperFunction,Conductor*%
G36*
X130901570Y-117293365D02*
G01*
X131065130Y-117484870D01*
X131256635Y-117648430D01*
X131259203Y-117650004D01*
X130685745Y-118223461D01*
X130738439Y-118144601D01*
X130757842Y-118047056D01*
X130738439Y-117949511D01*
X130683184Y-117866816D01*
X130600489Y-117811561D01*
X130527568Y-117797056D01*
X130478320Y-117797056D01*
X130405399Y-117811561D01*
X130326529Y-117864259D01*
X130899994Y-117290794D01*
X130901570Y-117293365D01*
G37*
%TD.AperFunction*%
%TA.AperFunction,Conductor*%
G36*
X134073465Y-117864256D02*
G01*
X133994601Y-117811561D01*
X133921680Y-117797056D01*
X133872432Y-117797056D01*
X133799511Y-117811561D01*
X133716816Y-117866816D01*
X133661561Y-117949511D01*
X133642158Y-118047056D01*
X133661561Y-118144601D01*
X133714256Y-118223465D01*
X133140795Y-117650004D01*
X133143365Y-117648430D01*
X133334870Y-117484870D01*
X133498430Y-117293365D01*
X133500004Y-117290795D01*
X134073465Y-117864256D01*
G37*
%TD.AperFunction*%
%TA.AperFunction,Conductor*%
G36*
X135784561Y-117760424D02*
G01*
X135834284Y-117811100D01*
X135849129Y-117870413D01*
X135849477Y-119923365D01*
X135829486Y-119991489D01*
X135775839Y-120037991D01*
X135723364Y-120049386D01*
X133594366Y-120047479D01*
X133526263Y-120027416D01*
X133479819Y-119973719D01*
X133469778Y-119903436D01*
X133499329Y-119838881D01*
X133549325Y-119803848D01*
X133707164Y-119743260D01*
X133713188Y-119740578D01*
X134053605Y-119567126D01*
X134059314Y-119563830D01*
X134379728Y-119355751D01*
X134385064Y-119351874D01*
X134637912Y-119147121D01*
X133720646Y-118229855D01*
X133799511Y-118282551D01*
X133872432Y-118297056D01*
X133921680Y-118297056D01*
X133994601Y-118282551D01*
X134077296Y-118227296D01*
X134132551Y-118144601D01*
X134151954Y-118047056D01*
X134132551Y-117949511D01*
X134079855Y-117870646D01*
X134997121Y-118787912D01*
X135201874Y-118535064D01*
X135205751Y-118529728D01*
X135413830Y-118209314D01*
X135417126Y-118203605D01*
X135590578Y-117863188D01*
X135593255Y-117857173D01*
X135605496Y-117825284D01*
X135648580Y-117768854D01*
X135715333Y-117744675D01*
X135784561Y-117760424D01*
G37*
%TD.AperFunction*%
%TA.AperFunction,Conductor*%
G36*
X80207654Y-117880162D02*
G01*
X80237470Y-117918236D01*
X80382873Y-118203605D01*
X80386169Y-118209314D01*
X80594248Y-118529727D01*
X80598130Y-118535070D01*
X80802876Y-118787911D01*
X80802877Y-118787912D01*
X81720147Y-117870641D01*
X81667449Y-117949511D01*
X81648046Y-118047056D01*
X81667449Y-118144601D01*
X81722704Y-118227296D01*
X81805399Y-118282551D01*
X81878320Y-118297056D01*
X81927568Y-118297056D01*
X82000489Y-118282551D01*
X82079349Y-118229857D01*
X81162086Y-119147121D01*
X81162087Y-119147122D01*
X81414929Y-119351869D01*
X81420272Y-119355751D01*
X81740685Y-119563830D01*
X81746394Y-119567126D01*
X81950598Y-119671174D01*
X82002213Y-119719922D01*
X82019279Y-119788837D01*
X81996378Y-119856039D01*
X81940781Y-119900191D01*
X81892265Y-119909436D01*
X80125220Y-119893588D01*
X80057281Y-119872976D01*
X80011272Y-119818905D01*
X80000350Y-119767676D01*
X79999203Y-117975518D01*
X80019161Y-117907386D01*
X80072787Y-117860859D01*
X80143055Y-117850710D01*
X80207654Y-117880162D01*
G37*
%TD.AperFunction*%
%TA.AperFunction,Conductor*%
G36*
X82301570Y-117293365D02*
G01*
X82465130Y-117484870D01*
X82656635Y-117648430D01*
X82659203Y-117650004D01*
X82085745Y-118223461D01*
X82138439Y-118144601D01*
X82157842Y-118047056D01*
X82138439Y-117949511D01*
X82083184Y-117866816D01*
X82000489Y-117811561D01*
X81927568Y-117797056D01*
X81878320Y-117797056D01*
X81805399Y-117811561D01*
X81726529Y-117864259D01*
X82299994Y-117290794D01*
X82301570Y-117293365D01*
G37*
%TD.AperFunction*%
%TA.AperFunction,Conductor*%
G36*
X85473465Y-117864256D02*
G01*
X85394601Y-117811561D01*
X85321680Y-117797056D01*
X85272432Y-117797056D01*
X85199511Y-117811561D01*
X85116816Y-117866816D01*
X85061561Y-117949511D01*
X85042158Y-118047056D01*
X85061561Y-118144601D01*
X85114256Y-118223465D01*
X84540795Y-117650004D01*
X84543365Y-117648430D01*
X84734870Y-117484870D01*
X84898430Y-117293365D01*
X84900004Y-117290795D01*
X85473465Y-117864256D01*
G37*
%TD.AperFunction*%
%TA.AperFunction,Conductor*%
G36*
X82659204Y-115049995D02*
G01*
X82656635Y-115051570D01*
X82465130Y-115215130D01*
X82301570Y-115406635D01*
X82299995Y-115409204D01*
X81726534Y-114835743D01*
X81805399Y-114888439D01*
X81878320Y-114902944D01*
X81927568Y-114902944D01*
X82000489Y-114888439D01*
X82083184Y-114833184D01*
X82138439Y-114750489D01*
X82157842Y-114652944D01*
X82138439Y-114555399D01*
X82085743Y-114476534D01*
X82659204Y-115049995D01*
G37*
%TD.AperFunction*%
%TA.AperFunction,Conductor*%
G36*
X131259204Y-115049995D02*
G01*
X131256635Y-115051570D01*
X131065130Y-115215130D01*
X130901570Y-115406635D01*
X130899995Y-115409204D01*
X130326534Y-114835743D01*
X130405399Y-114888439D01*
X130478320Y-114902944D01*
X130527568Y-114902944D01*
X130600489Y-114888439D01*
X130683184Y-114833184D01*
X130738439Y-114750489D01*
X130757842Y-114652944D01*
X130738439Y-114555399D01*
X130685744Y-114476535D01*
X131259204Y-115049995D01*
G37*
%TD.AperFunction*%
%TA.AperFunction,Conductor*%
G36*
X85061561Y-114555399D02*
G01*
X85042158Y-114652944D01*
X85061561Y-114750489D01*
X85116816Y-114833184D01*
X85199511Y-114888439D01*
X85272432Y-114902944D01*
X85321680Y-114902944D01*
X85394601Y-114888439D01*
X85473460Y-114835746D01*
X84900004Y-115409203D01*
X84898430Y-115406635D01*
X84734870Y-115215130D01*
X84543365Y-115051570D01*
X84540795Y-115049995D01*
X85114259Y-114476530D01*
X85061561Y-114555399D01*
G37*
%TD.AperFunction*%
%TA.AperFunction,Conductor*%
G36*
X133661561Y-114555399D02*
G01*
X133642158Y-114652944D01*
X133661561Y-114750489D01*
X133716816Y-114833184D01*
X133799511Y-114888439D01*
X133872432Y-114902944D01*
X133921680Y-114902944D01*
X133994601Y-114888439D01*
X134073460Y-114835746D01*
X133500004Y-115409203D01*
X133498430Y-115406635D01*
X133334870Y-115215130D01*
X133143365Y-115051570D01*
X133140794Y-115049994D01*
X133714259Y-114476529D01*
X133661561Y-114555399D01*
G37*
%TD.AperFunction*%
%TA.AperFunction,Conductor*%
G36*
X82301570Y-60760365D02*
G01*
X82465130Y-60951870D01*
X82656635Y-61115430D01*
X82659203Y-61117004D01*
X82085745Y-61690461D01*
X82138439Y-61611601D01*
X82157842Y-61514056D01*
X82138439Y-61416511D01*
X82083184Y-61333816D01*
X82000489Y-61278561D01*
X81927568Y-61264056D01*
X81878320Y-61264056D01*
X81805399Y-61278561D01*
X81726529Y-61331259D01*
X82299994Y-60757794D01*
X82301570Y-60760365D01*
G37*
%TD.AperFunction*%
%TA.AperFunction,Conductor*%
G36*
X85473465Y-61331256D02*
G01*
X85394601Y-61278561D01*
X85321680Y-61264056D01*
X85272432Y-61264056D01*
X85199511Y-61278561D01*
X85116816Y-61333816D01*
X85061561Y-61416511D01*
X85042158Y-61514056D01*
X85061561Y-61611601D01*
X85114256Y-61690465D01*
X84540795Y-61117004D01*
X84543365Y-61115430D01*
X84734870Y-60951870D01*
X84898430Y-60760365D01*
X84900004Y-60757795D01*
X85473465Y-61331256D01*
G37*
%TD.AperFunction*%
%TA.AperFunction,Conductor*%
G36*
X130901570Y-60760365D02*
G01*
X131065130Y-60951870D01*
X131256635Y-61115430D01*
X131259203Y-61117004D01*
X130685745Y-61690461D01*
X130738439Y-61611601D01*
X130757842Y-61514056D01*
X130738439Y-61416511D01*
X130683184Y-61333816D01*
X130600489Y-61278561D01*
X130527568Y-61264056D01*
X130478320Y-61264056D01*
X130405399Y-61278561D01*
X130326529Y-61331259D01*
X130899994Y-60757794D01*
X130901570Y-60760365D01*
G37*
%TD.AperFunction*%
%TA.AperFunction,Conductor*%
G36*
X134073465Y-61331256D02*
G01*
X133994601Y-61278561D01*
X133921680Y-61264056D01*
X133872432Y-61264056D01*
X133799511Y-61278561D01*
X133716816Y-61333816D01*
X133661561Y-61416511D01*
X133642158Y-61514056D01*
X133661561Y-61611601D01*
X133714256Y-61690465D01*
X133140795Y-61117004D01*
X133143365Y-61115430D01*
X133334870Y-60951870D01*
X133498430Y-60760365D01*
X133500004Y-60757795D01*
X134073465Y-61331256D01*
G37*
%TD.AperFunction*%
%TA.AperFunction,Conductor*%
G36*
X82659204Y-58516995D02*
G01*
X82656635Y-58518570D01*
X82465130Y-58682130D01*
X82301570Y-58873635D01*
X82299995Y-58876204D01*
X81726535Y-58302744D01*
X81805399Y-58355439D01*
X81878320Y-58369944D01*
X81927568Y-58369944D01*
X82000489Y-58355439D01*
X82083184Y-58300184D01*
X82138439Y-58217489D01*
X82157842Y-58119944D01*
X82138439Y-58022399D01*
X82085743Y-57943534D01*
X82659204Y-58516995D01*
G37*
%TD.AperFunction*%
%TA.AperFunction,Conductor*%
G36*
X131259204Y-58516995D02*
G01*
X131256635Y-58518570D01*
X131065130Y-58682130D01*
X130901570Y-58873635D01*
X130899995Y-58876204D01*
X130326535Y-58302744D01*
X130405399Y-58355439D01*
X130478320Y-58369944D01*
X130527568Y-58369944D01*
X130600489Y-58355439D01*
X130683184Y-58300184D01*
X130738439Y-58217489D01*
X130757842Y-58119944D01*
X130738439Y-58022399D01*
X130685744Y-57943535D01*
X131259204Y-58516995D01*
G37*
%TD.AperFunction*%
%TA.AperFunction,Conductor*%
G36*
X85061561Y-58022399D02*
G01*
X85042158Y-58119944D01*
X85061561Y-58217489D01*
X85116816Y-58300184D01*
X85199511Y-58355439D01*
X85272432Y-58369944D01*
X85321680Y-58369944D01*
X85394601Y-58355439D01*
X85473460Y-58302746D01*
X84900004Y-58876203D01*
X84898430Y-58873635D01*
X84734870Y-58682130D01*
X84543365Y-58518570D01*
X84540795Y-58516995D01*
X85114259Y-57943530D01*
X85061561Y-58022399D01*
G37*
%TD.AperFunction*%
%TA.AperFunction,Conductor*%
G36*
X133661561Y-58022399D02*
G01*
X133642158Y-58119944D01*
X133661561Y-58217489D01*
X133716816Y-58300184D01*
X133799511Y-58355439D01*
X133872432Y-58369944D01*
X133921680Y-58369944D01*
X133994601Y-58355439D01*
X134073460Y-58302746D01*
X133500004Y-58876203D01*
X133498430Y-58873635D01*
X133334870Y-58682130D01*
X133143365Y-58518570D01*
X133140794Y-58516994D01*
X133714259Y-57943529D01*
X133661561Y-58022399D01*
G37*
%TD.AperFunction*%
%TA.AperFunction,Conductor*%
G36*
X135780885Y-56535002D02*
G01*
X135827378Y-56588658D01*
X135838764Y-56640979D01*
X135839039Y-58270257D01*
X135819048Y-58338381D01*
X135765401Y-58384883D01*
X135695128Y-58394999D01*
X135630543Y-58365516D01*
X135595406Y-58315429D01*
X135593253Y-58309820D01*
X135590578Y-58303811D01*
X135417127Y-57963397D01*
X135413830Y-57957686D01*
X135205753Y-57637275D01*
X135201865Y-57631924D01*
X134997122Y-57379087D01*
X134997121Y-57379086D01*
X134079858Y-58296348D01*
X134132551Y-58217489D01*
X134151954Y-58119944D01*
X134132551Y-58022399D01*
X134077296Y-57939704D01*
X133994601Y-57884449D01*
X133921680Y-57869944D01*
X133872432Y-57869944D01*
X133799511Y-57884449D01*
X133720641Y-57937147D01*
X134637912Y-57019877D01*
X134637911Y-57019876D01*
X134385070Y-56815130D01*
X134379727Y-56811248D01*
X134280289Y-56746672D01*
X134234053Y-56692796D01*
X134224283Y-56622475D01*
X134254083Y-56558035D01*
X134313992Y-56519936D01*
X134348914Y-56515000D01*
X135712764Y-56515000D01*
X135780885Y-56535002D01*
G37*
%TD.AperFunction*%
%TD*%
M02*
