M48
; DRILL file {KiCad 7.0.2} date Sun May 21 11:24:31 2023
; FORMAT={-:-/ absolute / inch / decimal}
; #@! TF.CreationDate,2023-05-21T11:24:31+02:00
; #@! TF.GenerationSoftware,Kicad,Pcbnew,7.0.2
; #@! TF.FileFunction,Plated,1,4,PTH
FMAT,2
INCH
; #@! TA.AperFunction,Plated,PTH,ViaDrill
T1C0.0157
; #@! TA.AperFunction,Plated,PTH,ComponentDrill
T2C0.0197
; #@! TA.AperFunction,Plated,PTH,ComponentDrill
T3C0.0236
; #@! TA.AperFunction,Plated,PTH,ComponentDrill
T4C0.0394
; #@! TA.AperFunction,Plated,PTH,ComponentDrill
T5C0.0472
; #@! TA.AperFunction,Plated,PTH,ComponentDrill
T6C0.0551
; #@! TA.AperFunction,Plated,PTH,ComponentDrill
T7C0.0591
; #@! TA.AperFunction,Plated,PTH,ComponentDrill
T8C0.0669
; #@! TA.AperFunction,Plated,PTH,ComponentDrill
T9C0.1260
%
G90
G05
T1
X3.25Y-2.55
X3.4Y-2.55
X3.55Y-2.55
X3.55Y-4.25
X3.6Y-2.3
X3.6Y-4.4
X3.6Y-4.6
X3.6161Y-3.6575
X3.7Y-4.25
X3.75Y-2.55
X3.79Y-3.73
X3.8Y-2.3
X3.85Y-3.45
X3.85Y-4.25
X3.87Y-3.84
X3.875Y-3.6
X3.9Y-2.9
X3.93Y-3.45
X3.9385Y-3.3681
X3.95Y-3.75
X4.0Y-2.3
X4.0Y-2.9
X4.0Y-4.25
X4.05Y-3.71
X4.0526Y-3.4816
X4.1Y-2.9
X4.1Y-3.35
X4.1314Y-3.1122
X4.15Y-4.1
X4.18Y-3.48
X4.2Y-3.35
X4.233Y-3.656
X4.25Y-3.75
X4.3Y-2.55
X4.3Y-3.0
X4.3Y-4.1
X4.301Y-2.77
X4.3179Y-3.6037
X4.3765Y-3.8543
X4.4Y-2.44
X4.4Y-3.75
X4.45Y-3.41
X4.45Y-4.1
X4.495Y-3.308
X4.5Y-2.55
X4.5Y-3.0
X4.521Y-3.655
X4.55Y-3.75
X4.6Y-4.1
X4.7525Y-3.2382
X4.76Y-2.44
X4.7631Y-3.0208
X4.7831Y-2.9408
X4.799Y-3.549
X4.8445Y-3.3878
X4.856Y-3.718
X4.8681Y-3.0258
X4.9Y-3.75
X4.916Y-3.545
X4.954Y-3.5197
X4.963Y-3.655
X4.9715Y-3.3835
X4.9742Y-2.7808
X4.975Y-3.3126
X4.9881Y-2.7008
X4.989Y-3.574
X5.0Y-3.75
X5.001Y-3.525
X5.019Y-3.4575
X5.096Y-4.124
X5.145Y-3.8224
X5.147Y-3.491
X5.148Y-3.578
X5.156Y-3.622
X5.188Y-3.232
X5.245Y-3.7476
X5.245Y-3.8224
X5.3Y-2.7
X5.3Y-3.0
X5.3Y-3.2
X5.3Y-3.6
X5.3Y-3.8
X5.3Y-4.0
X5.3Y-4.2
X5.3Y-4.4
X5.302Y-3.466
T2
X3.1969Y-2.355
X3.1969Y-4.5807
X3.2245Y-2.2882
X3.2245Y-2.4218
X3.2245Y-4.5139
X3.2245Y-4.6475
X3.2913Y-2.2605
X3.2913Y-2.4495
X3.2913Y-4.4862
X3.2913Y-4.6752
X3.3582Y-2.2882
X3.3582Y-2.4218
X3.3582Y-4.5139
X3.3582Y-4.6475
X3.3858Y-2.355
X3.3858Y-4.5807
X5.1102Y-2.355
X5.1102Y-4.5807
X5.1379Y-2.2882
X5.1379Y-2.4218
X5.1379Y-4.5139
X5.1379Y-4.6475
X5.2047Y-2.2605
X5.2047Y-2.4495
X5.2047Y-4.4862
X5.2047Y-4.6752
X5.2715Y-2.2882
X5.2715Y-2.4218
X5.2715Y-4.5139
X5.2715Y-4.6475
X5.2992Y-2.355
X5.2992Y-4.5807
T3
X3.6606Y-2.936
X3.7394Y-2.936
X3.8906Y-2.67
X3.9694Y-2.67
T4
X4.435Y-2.325
X4.535Y-2.325
X4.635Y-2.325
X4.735Y-2.325
X4.835Y-2.325
T5
X4.1712Y-4.2618
X4.1712Y-4.5374
X4.7605Y-4.2209
X4.768Y-4.402
X4.7727Y-4.5882
T6
X3.2752Y-3.0256
X3.2752Y-3.2224
T7
X3.314Y-4.142
X3.316Y-3.572
X3.8858Y-4.5039
T8
X3.214Y-4.042
X3.214Y-4.242
X3.216Y-3.472
X3.216Y-3.672
X3.414Y-4.042
X3.414Y-4.242
X3.416Y-3.472
X3.416Y-3.672
X3.7858Y-4.4039
X3.7858Y-4.6039
X3.9858Y-4.4039
X3.9858Y-4.6039
T9
X3.2913Y-2.355
X3.2913Y-4.5807
X5.2047Y-2.355
X5.2047Y-4.5807
T0
M30
