%TF.GenerationSoftware,KiCad,Pcbnew,7.0.2*%
%TF.CreationDate,2023-05-21T11:23:20+02:00*%
%TF.ProjectId,sdrt41-tx,73647274-3431-42d7-9478-2e6b69636164,rev?*%
%TF.SameCoordinates,Original*%
%TF.FileFunction,Soldermask,Bot*%
%TF.FilePolarity,Negative*%
%FSLAX46Y46*%
G04 Gerber Fmt 4.6, Leading zero omitted, Abs format (unit mm)*
G04 Created by KiCad (PCBNEW 7.0.2) date 2023-05-21 11:23:20*
%MOMM*%
%LPD*%
G01*
G04 APERTURE LIST*
%ADD10R,2.800000X2.800000*%
%ADD11C,2.800000*%
%ADD12C,1.200000*%
%ADD13C,6.400000*%
%ADD14C,0.800000*%
%ADD15C,2.050000*%
%ADD16C,2.250000*%
%ADD17R,1.700000X1.700000*%
%ADD18O,1.700000X1.700000*%
%ADD19C,3.000000*%
%ADD20R,2.000000X1.500000*%
%ADD21R,2.000000X3.800000*%
G04 APERTURE END LIST*
D10*
%TO.C,J1*%
X83190400Y-81849600D03*
D11*
X83190400Y-76849600D03*
%TD*%
D12*
%TO.C,C4*%
X92980000Y-74574400D03*
X94980000Y-74574400D03*
%TD*%
D13*
%TO.C,H1*%
X83600000Y-116350000D03*
D14*
X81902944Y-114652944D03*
X83600000Y-118750000D03*
X81200000Y-116350000D03*
X86000000Y-116350000D03*
X83600000Y-113950000D03*
X85297056Y-118047056D03*
X85297056Y-114652944D03*
X81902944Y-118047056D03*
%TD*%
%TO.C,H4*%
X81902944Y-58119944D03*
X83600000Y-57417000D03*
X85297056Y-58119944D03*
X83600000Y-62217000D03*
X81200000Y-59817000D03*
X81902944Y-61514056D03*
X86000000Y-59817000D03*
X85297056Y-61514056D03*
D13*
X83600000Y-59817000D03*
%TD*%
D15*
%TO.C,J2*%
X84226400Y-90728800D03*
D16*
X81686400Y-88188800D03*
X86766400Y-93268800D03*
X81686400Y-93268800D03*
X86766400Y-88188800D03*
%TD*%
D17*
%TO.C,J4*%
X112649000Y-59055000D03*
D18*
X115189000Y-59055000D03*
X117729000Y-59055000D03*
X120269000Y-59055000D03*
X122809000Y-59055000D03*
%TD*%
D15*
%TO.C,J5*%
X98700000Y-114400000D03*
D16*
X101240000Y-116940000D03*
X96160000Y-116940000D03*
X96160000Y-111860000D03*
X101240000Y-111860000D03*
%TD*%
D15*
%TO.C,J3*%
X84175600Y-105206800D03*
D16*
X81635600Y-102666800D03*
X86715600Y-107746800D03*
X81635600Y-107746800D03*
X86715600Y-102666800D03*
%TD*%
D13*
%TO.C,H2*%
X132200000Y-59817000D03*
D14*
X129800000Y-59817000D03*
X130502944Y-61514056D03*
X132200000Y-57417000D03*
X130502944Y-58119944D03*
X132200000Y-62217000D03*
X134600000Y-59817000D03*
X133897056Y-61514056D03*
X133897056Y-58119944D03*
%TD*%
%TO.C,H3*%
X132200000Y-118750000D03*
X129800000Y-116350000D03*
X132200000Y-113950000D03*
X133897056Y-114652944D03*
D13*
X132200000Y-116350000D03*
D14*
X134600000Y-116350000D03*
X133897056Y-118047056D03*
X130502944Y-118047056D03*
X130502944Y-114652944D03*
%TD*%
D19*
%TO.C,T1*%
X105947500Y-108250000D03*
X105947500Y-115250000D03*
X121227500Y-116540000D03*
X121107500Y-111810000D03*
X120917500Y-107210000D03*
%TD*%
D12*
%TO.C,C1*%
X98822000Y-67818000D03*
X100822000Y-67818000D03*
%TD*%
D20*
%TO.C,U2*%
X89408400Y-67905600D03*
D21*
X83108400Y-70205600D03*
D20*
X89408400Y-70205600D03*
X89408400Y-72505600D03*
%TD*%
%TO.C,U1*%
X109245000Y-72658000D03*
D21*
X115545000Y-70358000D03*
D20*
X109245000Y-70358000D03*
X109245000Y-68058000D03*
%TD*%
M02*
