%TF.GenerationSoftware,KiCad,Pcbnew,7.0.2*%
%TF.CreationDate,2023-05-21T11:23:19+02:00*%
%TF.ProjectId,sdrt41-tx,73647274-3431-42d7-9478-2e6b69636164,rev?*%
%TF.SameCoordinates,Original*%
%TF.FileFunction,Copper,L4,Bot*%
%TF.FilePolarity,Positive*%
%FSLAX46Y46*%
G04 Gerber Fmt 4.6, Leading zero omitted, Abs format (unit mm)*
G04 Created by KiCad (PCBNEW 7.0.2) date 2023-05-21 11:23:19*
%MOMM*%
%LPD*%
G01*
G04 APERTURE LIST*
%TA.AperFunction,ComponentPad*%
%ADD10R,2.800000X2.800000*%
%TD*%
%TA.AperFunction,ComponentPad*%
%ADD11C,2.800000*%
%TD*%
%TA.AperFunction,ComponentPad*%
%ADD12C,1.200000*%
%TD*%
%TA.AperFunction,ComponentPad*%
%ADD13C,6.400000*%
%TD*%
%TA.AperFunction,ComponentPad*%
%ADD14C,0.800000*%
%TD*%
%TA.AperFunction,ComponentPad*%
%ADD15C,2.050000*%
%TD*%
%TA.AperFunction,ComponentPad*%
%ADD16C,2.250000*%
%TD*%
%TA.AperFunction,ComponentPad*%
%ADD17R,1.700000X1.700000*%
%TD*%
%TA.AperFunction,ComponentPad*%
%ADD18O,1.700000X1.700000*%
%TD*%
%TA.AperFunction,ComponentPad*%
%ADD19C,3.000000*%
%TD*%
%TA.AperFunction,SMDPad,CuDef*%
%ADD20R,2.000000X1.500000*%
%TD*%
%TA.AperFunction,SMDPad,CuDef*%
%ADD21R,2.000000X3.800000*%
%TD*%
%TA.AperFunction,ViaPad*%
%ADD22C,0.800000*%
%TD*%
%TA.AperFunction,Conductor*%
%ADD23C,1.000000*%
%TD*%
%TA.AperFunction,Conductor*%
%ADD24C,0.500000*%
%TD*%
%TA.AperFunction,Conductor*%
%ADD25C,0.250000*%
%TD*%
G04 APERTURE END LIST*
D10*
%TO.P,J1,1,Pin_1*%
%TO.N,GND*%
X83190400Y-81849600D03*
D11*
%TO.P,J1,2,Pin_2*%
%TO.N,Net-(J1-Pin_2)*%
X83190400Y-76849600D03*
%TD*%
D12*
%TO.P,C4,1*%
%TO.N,Net-(J1-Pin_2)*%
X92980000Y-74574400D03*
%TO.P,C4,2*%
%TO.N,GND*%
X94980000Y-74574400D03*
%TD*%
D13*
%TO.P,H1,1,1*%
%TO.N,GND*%
X83600000Y-116350000D03*
D14*
X81902944Y-114652944D03*
X83600000Y-118750000D03*
X81200000Y-116350000D03*
X86000000Y-116350000D03*
X83600000Y-113950000D03*
X85297056Y-118047056D03*
X85297056Y-114652944D03*
X81902944Y-118047056D03*
%TD*%
%TO.P,H4,1,1*%
%TO.N,GND*%
X81902944Y-58119944D03*
X83600000Y-57417000D03*
X85297056Y-58119944D03*
X83600000Y-62217000D03*
X81200000Y-59817000D03*
X81902944Y-61514056D03*
X86000000Y-59817000D03*
X85297056Y-61514056D03*
D13*
X83600000Y-59817000D03*
%TD*%
D15*
%TO.P,J2,1,In*%
%TO.N,Net-(J2-In)*%
X84226400Y-90728800D03*
D16*
%TO.P,J2,2,Ext*%
%TO.N,GND*%
X81686400Y-88188800D03*
X86766400Y-93268800D03*
X81686400Y-93268800D03*
X86766400Y-88188800D03*
%TD*%
D17*
%TO.P,J4,1,Pin_1*%
%TO.N,GND*%
X112649000Y-59055000D03*
D18*
%TO.P,J4,2,Pin_2*%
%TO.N,SDA*%
X115189000Y-59055000D03*
%TO.P,J4,3,Pin_3*%
%TO.N,SCL*%
X117729000Y-59055000D03*
%TO.P,J4,4,Pin_4*%
%TO.N,unconnected-(J4-Pin_4-Pad4)*%
X120269000Y-59055000D03*
%TO.P,J4,5,Pin_5*%
%TO.N,+5V*%
X122809000Y-59055000D03*
%TD*%
D15*
%TO.P,J5,1,In*%
%TO.N,Net-(J5-In)*%
X98700000Y-114400000D03*
D16*
%TO.P,J5,2,Ext*%
%TO.N,GND*%
X101240000Y-116940000D03*
X96160000Y-116940000D03*
X96160000Y-111860000D03*
X101240000Y-111860000D03*
%TD*%
D15*
%TO.P,J3,1,In*%
%TO.N,Net-(J3-In)*%
X84175600Y-105206800D03*
D16*
%TO.P,J3,2,Ext*%
%TO.N,GND*%
X81635600Y-102666800D03*
X86715600Y-107746800D03*
X81635600Y-107746800D03*
X86715600Y-102666800D03*
%TD*%
D13*
%TO.P,H2,1,1*%
%TO.N,GND*%
X132200000Y-59817000D03*
D14*
X129800000Y-59817000D03*
X130502944Y-61514056D03*
X132200000Y-57417000D03*
X130502944Y-58119944D03*
X132200000Y-62217000D03*
X134600000Y-59817000D03*
X133897056Y-61514056D03*
X133897056Y-58119944D03*
%TD*%
%TO.P,H3,1,1*%
%TO.N,GND*%
X132200000Y-118750000D03*
X129800000Y-116350000D03*
X132200000Y-113950000D03*
X133897056Y-114652944D03*
D13*
X132200000Y-116350000D03*
D14*
X134600000Y-116350000D03*
X133897056Y-118047056D03*
X130502944Y-118047056D03*
X130502944Y-114652944D03*
%TD*%
D19*
%TO.P,T1,1,AA*%
%TO.N,GND*%
X105947500Y-108250000D03*
%TO.P,T1,2,AB*%
%TO.N,Net-(J5-In)*%
X105947500Y-115250000D03*
%TO.P,T1,3,SA*%
%TO.N,Net-(T1-SA)*%
X121227500Y-116540000D03*
%TO.P,T1,4,SC*%
%TO.N,Net-(T1-SC)*%
X121107500Y-111810000D03*
%TO.P,T1,5,SB*%
%TO.N,Net-(T1-SB)*%
X120917500Y-107210000D03*
%TD*%
D12*
%TO.P,C1,1*%
%TO.N,+5V*%
X98822000Y-67818000D03*
%TO.P,C1,2*%
%TO.N,GND*%
X100822000Y-67818000D03*
%TD*%
D20*
%TO.P,U2,1,GND*%
%TO.N,GND*%
X89408400Y-67905600D03*
D21*
%TO.P,U2,2,VO*%
%TO.N,+5V*%
X83108400Y-70205600D03*
D20*
X89408400Y-70205600D03*
%TO.P,U2,3,VI*%
%TO.N,Net-(J1-Pin_2)*%
X89408400Y-72505600D03*
%TD*%
%TO.P,U1,1,GND*%
%TO.N,GND*%
X109245000Y-72658000D03*
D21*
%TO.P,U1,2,VO*%
%TO.N,+3.3V*%
X115545000Y-70358000D03*
D20*
X109245000Y-70358000D03*
%TO.P,U1,3,VI*%
%TO.N,+5V*%
X109245000Y-68058000D03*
%TD*%
D22*
%TO.N,+3.3V*%
X120904000Y-61976000D03*
X111760000Y-61976000D03*
%TO.N,+5V*%
X131775200Y-82092800D03*
X113030000Y-86614000D03*
X96266000Y-94742000D03*
%TO.N,GND*%
X134620000Y-101600000D03*
X100330000Y-95250000D03*
X130683000Y-97089000D03*
X106680000Y-85090000D03*
X134620000Y-91440000D03*
X99822000Y-87630000D03*
X93980000Y-107950000D03*
X127000000Y-95250000D03*
X123342400Y-94437200D03*
X129438400Y-104749600D03*
X101600000Y-58420000D03*
X90170000Y-107950000D03*
X101600000Y-73660000D03*
X82550000Y-64770000D03*
X111760000Y-95250000D03*
X104140000Y-73660000D03*
X107518200Y-92862400D03*
X134670800Y-88036400D03*
X99060000Y-73660000D03*
X133223000Y-97089000D03*
X113030000Y-104140000D03*
X91440000Y-116840000D03*
X97790000Y-87630000D03*
X101600000Y-107950000D03*
X109220000Y-104140000D03*
X106172000Y-88392000D03*
X134620000Y-96520000D03*
X134620000Y-81280000D03*
X90170000Y-64770000D03*
X109220000Y-64770000D03*
X134620000Y-68580000D03*
X91440000Y-111760000D03*
X97790000Y-107950000D03*
X114300000Y-76200000D03*
X134620000Y-111760000D03*
X104140000Y-85090000D03*
X126699000Y-68600000D03*
X98298000Y-97536000D03*
X105410000Y-104140000D03*
X109220000Y-76200000D03*
X127482600Y-87821100D03*
X86360000Y-64770000D03*
X114173000Y-84023200D03*
X121492000Y-74696000D03*
X126365000Y-84140000D03*
X107950000Y-95250000D03*
X114300000Y-64770000D03*
X134620000Y-106680000D03*
X116840000Y-104140000D03*
X115570000Y-95250000D03*
X91440000Y-58420000D03*
X134620000Y-76200000D03*
X95250000Y-64770000D03*
X96520000Y-58420000D03*
X124460000Y-95250000D03*
%TO.N,+3.3V*%
X109245000Y-70358000D03*
X126343500Y-70632000D03*
%TO.N,Net-(U3A--)*%
X100037500Y-85550000D03*
X98425000Y-91440000D03*
%TO.N,Net-(C15-Pad1)*%
X91850000Y-92900000D03*
X102870000Y-94234000D03*
%TO.N,Net-(U6-1B4)*%
X123050000Y-86050000D03*
X126060200Y-92837000D03*
X124866400Y-90043000D03*
X104937500Y-79050000D03*
%TO.N,Net-(U6-1B1)*%
X120712500Y-82250000D03*
X126275489Y-85941511D03*
X127025400Y-89535000D03*
%TO.N,Net-(U3A-+)*%
X114833400Y-92837000D03*
X109675000Y-91535000D03*
X102936000Y-88432000D03*
%TO.N,Net-(U6-1B2)*%
X133223000Y-95189000D03*
X130759200Y-90881200D03*
X126720600Y-90779600D03*
%TO.N,Net-(U6-1B3)*%
X111162500Y-97900000D03*
X121894600Y-90144600D03*
X130962400Y-91998800D03*
%TO.N,Net-(U6-S1)*%
X120984000Y-76728000D03*
X125831600Y-89399500D03*
%TO.N,Net-(U6-S0)*%
X130733800Y-88671400D03*
X123651000Y-76855000D03*
%TD*%
D23*
%TO.N,+3.3V*%
X111760000Y-61976000D02*
X120904000Y-61976000D01*
%TO.N,+5V*%
X107705000Y-66518000D02*
X109245000Y-68058000D01*
X98822000Y-67818000D02*
X100122000Y-66518000D01*
D24*
X96266000Y-69977000D02*
X96266000Y-94742000D01*
D23*
X89408400Y-70205600D02*
X96434400Y-70205600D01*
X100122000Y-66518000D02*
X107705000Y-66518000D01*
D24*
X113030000Y-86614000D02*
X107001918Y-86614000D01*
X102616000Y-82228082D02*
X102616000Y-75878082D01*
D23*
X96434400Y-70205600D02*
X98822000Y-67818000D01*
D24*
X96714918Y-69977000D02*
X96266000Y-69977000D01*
D23*
X86817200Y-70205600D02*
X89408400Y-70205600D01*
X83108400Y-70205600D02*
X86817200Y-70205600D01*
D24*
X107001918Y-86614000D02*
X102616000Y-82228082D01*
X102616000Y-75878082D02*
X96714918Y-69977000D01*
D23*
%TO.N,Net-(J1-Pin_2)*%
X89408400Y-72505600D02*
X90911200Y-72505600D01*
X90911200Y-72505600D02*
X92980000Y-74574400D01*
X85064400Y-76849600D02*
X89408400Y-72505600D01*
X83190400Y-76849600D02*
X85064400Y-76849600D01*
%TO.N,+3.3V*%
X115545000Y-70358000D02*
X126069500Y-70358000D01*
X109245000Y-70358000D02*
X115545000Y-70358000D01*
X126069500Y-70358000D02*
X126343500Y-70632000D01*
D24*
%TO.N,Net-(U3A--)*%
X98425000Y-91440000D02*
X100671511Y-89193489D01*
X100671511Y-86184011D02*
X100037500Y-85550000D01*
X100671511Y-89193489D02*
X100671511Y-86184011D01*
D25*
%TO.N,Net-(C15-Pad1)*%
X91850000Y-92900000D02*
X91850000Y-93628000D01*
X101129000Y-95975000D02*
X102870000Y-94234000D01*
X94197000Y-95975000D02*
X101129000Y-95975000D01*
X91850000Y-93628000D02*
X94197000Y-95975000D01*
%TO.N,Net-(U6-1B4)*%
X126060200Y-92837000D02*
X124866400Y-91643200D01*
X115852168Y-79050000D02*
X104937500Y-79050000D01*
X124866400Y-87866400D02*
X123050000Y-86050000D01*
X122852168Y-86050000D02*
X115852168Y-79050000D01*
X124866400Y-90043000D02*
X124866400Y-87866400D01*
X123050000Y-86050000D02*
X122852168Y-86050000D01*
X124866400Y-91643200D02*
X124866400Y-90043000D01*
%TO.N,Net-(U6-1B1)*%
X126275489Y-85941511D02*
X125819511Y-85941511D01*
X126275489Y-88785089D02*
X126275489Y-85941511D01*
X127025400Y-89535000D02*
X126275489Y-88785089D01*
X122128000Y-82250000D02*
X120712500Y-82250000D01*
X125819511Y-85941511D02*
X122128000Y-82250000D01*
D24*
%TO.N,Net-(U3A-+)*%
X114833400Y-92837000D02*
X108694191Y-92837000D01*
X114833400Y-92837000D02*
X110977000Y-92837000D01*
X110977000Y-92837000D02*
X109675000Y-91535000D01*
X104289191Y-88432000D02*
X102936000Y-88432000D01*
X108694191Y-92837000D02*
X104289191Y-88432000D01*
D25*
%TO.N,Net-(U6-1B2)*%
X130759200Y-90881200D02*
X132283200Y-90881200D01*
X126720600Y-90779600D02*
X130657600Y-90779600D01*
X132283200Y-90881200D02*
X133223000Y-91821000D01*
X130657600Y-90779600D02*
X130759200Y-90881200D01*
X133223000Y-91821000D02*
X133223000Y-95189000D01*
%TO.N,Net-(U6-1B3)*%
X125311511Y-93561511D02*
X129399689Y-93561511D01*
X129399689Y-93561511D02*
X130962400Y-91998800D01*
X121894600Y-90144600D02*
X125311511Y-93561511D01*
X114139200Y-97900000D02*
X111162500Y-97900000D01*
X121894600Y-90144600D02*
X114139200Y-97900000D01*
%TO.N,Net-(U6-S1)*%
X125315920Y-87291306D02*
X121031814Y-83007200D01*
X119650000Y-82212114D02*
X119650000Y-81804000D01*
X120984000Y-76728000D02*
X120984000Y-80470000D01*
X125831600Y-89399500D02*
X125315920Y-88883820D01*
X120445086Y-83007200D02*
X119650000Y-82212114D01*
X125315920Y-88883820D02*
X125315920Y-87291306D01*
X121031814Y-83007200D02*
X120445086Y-83007200D01*
X120984000Y-80470000D02*
X119650000Y-81804000D01*
%TO.N,Net-(U6-S0)*%
X130733800Y-87483495D02*
X123651000Y-80400695D01*
X130733800Y-87483495D02*
X130733800Y-88671400D01*
X123651000Y-80400695D02*
X123651000Y-76855000D01*
%TD*%
%TA.AperFunction,Conductor*%
%TO.N,GND*%
G36*
X95284140Y-74547617D02*
G01*
X95281815Y-74580117D01*
X95277713Y-74535847D01*
X95284140Y-74547617D01*
G37*
%TD.AperFunction*%
%TA.AperFunction,Conductor*%
G36*
X130542655Y-56286915D02*
G01*
X130589261Y-56340473D01*
X130599512Y-56410725D01*
X130570154Y-56475368D01*
X130531960Y-56505321D01*
X130346412Y-56599863D01*
X130340686Y-56603169D01*
X130020267Y-56811251D01*
X130014938Y-56815123D01*
X129762086Y-57019877D01*
X130679352Y-57937143D01*
X130600489Y-57884449D01*
X130527568Y-57869944D01*
X130478320Y-57869944D01*
X130405399Y-57884449D01*
X130322704Y-57939704D01*
X130267449Y-58022399D01*
X130248046Y-58119944D01*
X130267449Y-58217489D01*
X130320143Y-58296352D01*
X129402877Y-57379086D01*
X129198123Y-57631938D01*
X129194251Y-57637267D01*
X128986169Y-57957686D01*
X128982872Y-57963397D01*
X128809421Y-58303811D01*
X128806739Y-58309835D01*
X128669829Y-58666501D01*
X128667787Y-58672784D01*
X128568905Y-59041815D01*
X128567534Y-59048265D01*
X128507766Y-59425629D01*
X128507079Y-59432167D01*
X128487084Y-59813699D01*
X128487084Y-59820300D01*
X128507079Y-60201832D01*
X128507766Y-60208370D01*
X128567534Y-60585734D01*
X128568905Y-60592184D01*
X128667787Y-60961215D01*
X128669829Y-60967498D01*
X128806739Y-61324164D01*
X128809421Y-61330188D01*
X128982873Y-61670605D01*
X128986169Y-61676314D01*
X129194248Y-61996727D01*
X129198130Y-62002070D01*
X129402876Y-62254911D01*
X129402877Y-62254912D01*
X130320147Y-61337641D01*
X130267449Y-61416511D01*
X130248046Y-61514056D01*
X130267449Y-61611601D01*
X130322704Y-61694296D01*
X130405399Y-61749551D01*
X130478320Y-61764056D01*
X130527568Y-61764056D01*
X130600489Y-61749551D01*
X130679349Y-61696857D01*
X129762086Y-62614121D01*
X129762087Y-62614122D01*
X130014929Y-62818869D01*
X130020272Y-62822751D01*
X130340685Y-63030830D01*
X130346394Y-63034126D01*
X130686811Y-63207578D01*
X130692835Y-63210260D01*
X131049501Y-63347170D01*
X131055784Y-63349212D01*
X131424815Y-63448094D01*
X131431265Y-63449465D01*
X131808629Y-63509233D01*
X131815167Y-63509920D01*
X132196699Y-63529916D01*
X132203301Y-63529916D01*
X132584832Y-63509920D01*
X132591370Y-63509233D01*
X132968734Y-63449465D01*
X132975184Y-63448094D01*
X133344215Y-63349212D01*
X133350498Y-63347170D01*
X133707164Y-63210260D01*
X133713188Y-63207578D01*
X134053605Y-63034126D01*
X134059314Y-63030830D01*
X134379728Y-62822751D01*
X134385064Y-62818874D01*
X134637912Y-62614121D01*
X133720646Y-61696855D01*
X133799511Y-61749551D01*
X133872432Y-61764056D01*
X133921680Y-61764056D01*
X133994601Y-61749551D01*
X134077296Y-61694296D01*
X134132551Y-61611601D01*
X134151954Y-61514056D01*
X134132551Y-61416511D01*
X134079855Y-61337646D01*
X134997121Y-62254912D01*
X135201874Y-62002064D01*
X135205751Y-61996728D01*
X135413830Y-61676314D01*
X135417126Y-61670605D01*
X135590578Y-61330188D01*
X135593257Y-61324170D01*
X135595926Y-61317216D01*
X135639005Y-61260783D01*
X135705756Y-61236599D01*
X135774985Y-61252342D01*
X135824713Y-61303015D01*
X135839562Y-61362336D01*
X135848614Y-114828200D01*
X135828623Y-114896324D01*
X135774976Y-114942826D01*
X135704703Y-114952942D01*
X135640118Y-114923459D01*
X135604983Y-114873375D01*
X135593260Y-114842835D01*
X135590578Y-114836811D01*
X135417127Y-114496397D01*
X135413830Y-114490686D01*
X135205753Y-114170275D01*
X135201865Y-114164924D01*
X134997122Y-113912087D01*
X134997121Y-113912086D01*
X134079858Y-114829348D01*
X134132551Y-114750489D01*
X134151954Y-114652944D01*
X134132551Y-114555399D01*
X134077296Y-114472704D01*
X133994601Y-114417449D01*
X133921680Y-114402944D01*
X133872432Y-114402944D01*
X133799511Y-114417449D01*
X133720641Y-114470147D01*
X134637912Y-113552877D01*
X134637911Y-113552876D01*
X134385070Y-113348130D01*
X134379727Y-113344248D01*
X134059314Y-113136169D01*
X134053605Y-113132873D01*
X133713188Y-112959421D01*
X133707164Y-112956739D01*
X133350498Y-112819829D01*
X133344215Y-112817787D01*
X132975184Y-112718905D01*
X132968734Y-112717534D01*
X132591370Y-112657766D01*
X132584832Y-112657079D01*
X132203301Y-112637084D01*
X132196699Y-112637084D01*
X131815167Y-112657079D01*
X131808629Y-112657766D01*
X131431265Y-112717534D01*
X131424815Y-112718905D01*
X131055784Y-112817787D01*
X131049501Y-112819829D01*
X130692835Y-112956739D01*
X130686811Y-112959421D01*
X130346397Y-113132872D01*
X130340686Y-113136169D01*
X130020267Y-113344251D01*
X130014938Y-113348123D01*
X129762086Y-113552877D01*
X130679352Y-114470143D01*
X130600489Y-114417449D01*
X130527568Y-114402944D01*
X130478320Y-114402944D01*
X130405399Y-114417449D01*
X130322704Y-114472704D01*
X130267449Y-114555399D01*
X130248046Y-114652944D01*
X130267449Y-114750489D01*
X130320144Y-114829353D01*
X129402877Y-113912086D01*
X129198123Y-114164938D01*
X129194251Y-114170267D01*
X128986169Y-114490686D01*
X128982872Y-114496397D01*
X128809421Y-114836811D01*
X128806739Y-114842835D01*
X128669829Y-115199501D01*
X128667787Y-115205784D01*
X128568905Y-115574815D01*
X128567534Y-115581265D01*
X128507766Y-115958629D01*
X128507079Y-115965167D01*
X128487084Y-116346699D01*
X128487084Y-116353300D01*
X128507079Y-116734832D01*
X128507766Y-116741370D01*
X128567534Y-117118734D01*
X128568905Y-117125184D01*
X128667787Y-117494215D01*
X128669829Y-117500498D01*
X128806739Y-117857164D01*
X128809421Y-117863188D01*
X128982873Y-118203605D01*
X128986169Y-118209314D01*
X129194248Y-118529727D01*
X129198130Y-118535070D01*
X129402876Y-118787911D01*
X129402877Y-118787912D01*
X130320147Y-117870641D01*
X130267449Y-117949511D01*
X130248046Y-118047056D01*
X130267449Y-118144601D01*
X130322704Y-118227296D01*
X130405399Y-118282551D01*
X130478320Y-118297056D01*
X130527568Y-118297056D01*
X130600489Y-118282551D01*
X130679349Y-118229857D01*
X129762086Y-119147121D01*
X129762087Y-119147122D01*
X130014929Y-119351869D01*
X130020272Y-119355751D01*
X130340685Y-119563830D01*
X130346394Y-119567126D01*
X130686811Y-119740578D01*
X130692835Y-119743260D01*
X130739373Y-119761124D01*
X130795801Y-119804210D01*
X130819978Y-119870963D01*
X130804227Y-119940190D01*
X130753549Y-119989912D01*
X130694331Y-120004755D01*
X108192719Y-120024739D01*
X85107449Y-120004071D01*
X85039346Y-119984008D01*
X84992902Y-119930311D01*
X84982861Y-119860028D01*
X85012411Y-119795473D01*
X85062409Y-119760440D01*
X85107158Y-119743262D01*
X85113188Y-119740578D01*
X85453605Y-119567126D01*
X85459314Y-119563830D01*
X85779728Y-119355751D01*
X85785064Y-119351874D01*
X86037912Y-119147121D01*
X85120646Y-118229855D01*
X85199511Y-118282551D01*
X85272432Y-118297056D01*
X85321680Y-118297056D01*
X85394601Y-118282551D01*
X85477296Y-118227296D01*
X85532551Y-118144601D01*
X85551954Y-118047056D01*
X85532551Y-117949511D01*
X85479855Y-117870646D01*
X86397121Y-118787912D01*
X86601874Y-118535064D01*
X86605751Y-118529728D01*
X86813830Y-118209314D01*
X86817126Y-118203605D01*
X86990578Y-117863188D01*
X86993260Y-117857164D01*
X87130170Y-117500498D01*
X87132212Y-117494215D01*
X87231094Y-117125184D01*
X87232465Y-117118734D01*
X87260774Y-116939999D01*
X94521950Y-116939999D01*
X94542117Y-117196247D01*
X94602122Y-117446186D01*
X94700486Y-117683657D01*
X94834792Y-117902825D01*
X94836253Y-117904536D01*
X95406806Y-117333982D01*
X95452316Y-117419822D01*
X95572009Y-117560735D01*
X95719195Y-117672623D01*
X95765268Y-117693939D01*
X95195462Y-118263745D01*
X95195462Y-118263746D01*
X95197176Y-118265208D01*
X95416342Y-118399513D01*
X95653813Y-118497877D01*
X95903752Y-118557882D01*
X96160000Y-118578049D01*
X96416247Y-118557882D01*
X96666186Y-118497877D01*
X96903657Y-118399513D01*
X97122824Y-118265208D01*
X97124535Y-118263746D01*
X97124536Y-118263745D01*
X96555077Y-117694286D01*
X96677431Y-117620669D01*
X96811658Y-117493523D01*
X96915413Y-117340495D01*
X96916635Y-117337426D01*
X97483744Y-117904536D01*
X97483746Y-117904535D01*
X97485208Y-117902824D01*
X97619513Y-117683657D01*
X97717877Y-117446186D01*
X97777882Y-117196247D01*
X97798049Y-116940000D01*
X99601950Y-116940000D01*
X99622117Y-117196247D01*
X99682122Y-117446186D01*
X99780486Y-117683657D01*
X99914792Y-117902825D01*
X99916253Y-117904536D01*
X100486806Y-117333982D01*
X100532316Y-117419822D01*
X100652009Y-117560735D01*
X100799195Y-117672623D01*
X100845268Y-117693939D01*
X100275462Y-118263745D01*
X100275462Y-118263746D01*
X100277176Y-118265208D01*
X100496342Y-118399513D01*
X100733813Y-118497877D01*
X100983752Y-118557882D01*
X101239999Y-118578049D01*
X101496247Y-118557882D01*
X101746186Y-118497877D01*
X101983657Y-118399513D01*
X102202824Y-118265208D01*
X102204535Y-118263746D01*
X102204536Y-118263745D01*
X101635077Y-117694286D01*
X101757431Y-117620669D01*
X101891658Y-117493523D01*
X101995413Y-117340495D01*
X101996635Y-117337426D01*
X102563745Y-117904536D01*
X102563746Y-117904535D01*
X102565208Y-117902824D01*
X102699513Y-117683657D01*
X102797877Y-117446186D01*
X102857882Y-117196247D01*
X102878049Y-116939999D01*
X102857882Y-116683752D01*
X102797877Y-116433813D01*
X102699513Y-116196342D01*
X102565208Y-115977176D01*
X102563745Y-115975462D01*
X101993192Y-116546015D01*
X101947684Y-116460178D01*
X101827991Y-116319265D01*
X101680805Y-116207377D01*
X101634729Y-116186060D01*
X102204536Y-115616253D01*
X102202825Y-115614792D01*
X101983657Y-115480486D01*
X101746186Y-115382122D01*
X101496247Y-115322117D01*
X101240000Y-115301950D01*
X100983752Y-115322117D01*
X100733813Y-115382122D01*
X100496342Y-115480486D01*
X100277174Y-115614792D01*
X100275462Y-115616253D01*
X100844922Y-116185713D01*
X100722569Y-116259331D01*
X100588342Y-116386477D01*
X100484587Y-116539505D01*
X100483364Y-116542573D01*
X99916253Y-115975462D01*
X99914792Y-115977174D01*
X99780486Y-116196342D01*
X99682122Y-116433813D01*
X99622117Y-116683752D01*
X99601950Y-116940000D01*
X97798049Y-116940000D01*
X97777882Y-116683752D01*
X97717877Y-116433813D01*
X97619513Y-116196342D01*
X97485208Y-115977176D01*
X97483745Y-115975462D01*
X96913191Y-116546015D01*
X96867684Y-116460178D01*
X96747991Y-116319265D01*
X96600805Y-116207377D01*
X96554729Y-116186060D01*
X97124536Y-115616253D01*
X97122825Y-115614792D01*
X96903657Y-115480486D01*
X96666186Y-115382122D01*
X96416247Y-115322117D01*
X96159999Y-115301950D01*
X95903752Y-115322117D01*
X95653813Y-115382122D01*
X95416342Y-115480486D01*
X95197174Y-115614792D01*
X95195462Y-115616253D01*
X95764921Y-116185713D01*
X95642569Y-116259331D01*
X95508342Y-116386477D01*
X95404587Y-116539505D01*
X95403364Y-116542573D01*
X94836253Y-115975462D01*
X94834792Y-115977174D01*
X94700486Y-116196342D01*
X94602122Y-116433813D01*
X94542117Y-116683752D01*
X94521950Y-116939999D01*
X87260774Y-116939999D01*
X87292233Y-116741370D01*
X87292920Y-116734832D01*
X87312916Y-116353300D01*
X87312916Y-116346699D01*
X87292920Y-115965167D01*
X87292233Y-115958629D01*
X87232465Y-115581265D01*
X87231094Y-115574815D01*
X87132212Y-115205784D01*
X87130170Y-115199501D01*
X86993260Y-114842835D01*
X86990578Y-114836811D01*
X86817127Y-114496397D01*
X86813830Y-114490686D01*
X86754938Y-114400000D01*
X97161758Y-114400000D01*
X97180696Y-114640634D01*
X97237045Y-114875344D01*
X97310040Y-115051570D01*
X97329416Y-115098347D01*
X97455536Y-115304156D01*
X97612299Y-115487701D01*
X97795844Y-115644464D01*
X98001653Y-115770584D01*
X98224657Y-115862955D01*
X98459366Y-115919304D01*
X98700000Y-115938242D01*
X98940634Y-115919304D01*
X99175343Y-115862955D01*
X99398347Y-115770584D01*
X99604156Y-115644464D01*
X99787701Y-115487701D01*
X99944464Y-115304156D01*
X99977651Y-115250000D01*
X103934307Y-115250000D01*
X103934601Y-115254298D01*
X103950072Y-115480486D01*
X103953058Y-115524130D01*
X103953931Y-115528331D01*
X103953932Y-115528338D01*
X103978063Y-115644462D01*
X104008962Y-115793153D01*
X104010399Y-115797196D01*
X104010402Y-115797207D01*
X104099537Y-116048008D01*
X104099540Y-116048015D01*
X104100977Y-116052058D01*
X104102951Y-116055869D01*
X104102953Y-116055872D01*
X104225406Y-116292197D01*
X104225409Y-116292202D01*
X104227389Y-116296023D01*
X104385843Y-116520502D01*
X104573389Y-116721314D01*
X104786531Y-116894718D01*
X105021300Y-117037484D01*
X105273323Y-117146953D01*
X105537904Y-117221085D01*
X105810115Y-117258500D01*
X105814420Y-117258500D01*
X106080580Y-117258500D01*
X106084885Y-117258500D01*
X106357096Y-117221085D01*
X106621677Y-117146953D01*
X106873700Y-117037484D01*
X107108469Y-116894718D01*
X107321611Y-116721314D01*
X107490947Y-116540000D01*
X119214307Y-116540000D01*
X119214601Y-116544298D01*
X119226021Y-116711260D01*
X119233058Y-116814130D01*
X119233931Y-116818331D01*
X119233932Y-116818338D01*
X119259214Y-116939998D01*
X119288962Y-117083153D01*
X119290399Y-117087196D01*
X119290402Y-117087207D01*
X119379537Y-117338008D01*
X119379540Y-117338015D01*
X119380977Y-117342058D01*
X119382951Y-117345869D01*
X119382953Y-117345872D01*
X119505406Y-117582197D01*
X119505409Y-117582202D01*
X119507389Y-117586023D01*
X119665843Y-117810502D01*
X119668781Y-117813648D01*
X119668782Y-117813649D01*
X119703395Y-117850710D01*
X119853389Y-118011314D01*
X120066531Y-118184718D01*
X120301300Y-118327484D01*
X120553323Y-118436953D01*
X120817904Y-118511085D01*
X121090115Y-118548500D01*
X121094420Y-118548500D01*
X121360580Y-118548500D01*
X121364885Y-118548500D01*
X121637096Y-118511085D01*
X121901677Y-118436953D01*
X122153700Y-118327484D01*
X122388469Y-118184718D01*
X122601611Y-118011314D01*
X122789157Y-117810502D01*
X122947611Y-117586023D01*
X123074023Y-117342058D01*
X123166038Y-117083153D01*
X123221942Y-116814130D01*
X123240693Y-116540000D01*
X123221942Y-116265870D01*
X123166038Y-115996847D01*
X123145209Y-115938241D01*
X123075462Y-115741991D01*
X123074023Y-115737942D01*
X122947611Y-115493977D01*
X122789157Y-115269498D01*
X122601611Y-115068686D01*
X122487525Y-114975870D01*
X122391804Y-114897995D01*
X122391801Y-114897993D01*
X122388469Y-114895282D01*
X122153700Y-114752516D01*
X122149759Y-114750804D01*
X122149753Y-114750801D01*
X121905612Y-114644756D01*
X121905609Y-114644755D01*
X121901677Y-114643047D01*
X121897552Y-114641891D01*
X121897543Y-114641888D01*
X121641242Y-114570076D01*
X121641232Y-114570074D01*
X121637096Y-114568915D01*
X121632835Y-114568329D01*
X121632824Y-114568327D01*
X121369153Y-114532086D01*
X121369143Y-114532085D01*
X121364885Y-114531500D01*
X121090115Y-114531500D01*
X121085857Y-114532085D01*
X121085846Y-114532086D01*
X120822175Y-114568327D01*
X120822161Y-114568329D01*
X120817904Y-114568915D01*
X120813769Y-114570073D01*
X120813757Y-114570076D01*
X120557456Y-114641888D01*
X120557442Y-114641892D01*
X120553323Y-114643047D01*
X120549395Y-114644753D01*
X120549387Y-114644756D01*
X120305246Y-114750801D01*
X120305233Y-114750807D01*
X120301300Y-114752516D01*
X120297629Y-114754748D01*
X120297622Y-114754752D01*
X120070204Y-114893048D01*
X120070199Y-114893050D01*
X120066531Y-114895282D01*
X120063204Y-114897988D01*
X120063195Y-114897995D01*
X119856725Y-115065971D01*
X119856717Y-115065978D01*
X119853389Y-115068686D01*
X119850457Y-115071824D01*
X119850452Y-115071830D01*
X119668782Y-115266350D01*
X119668774Y-115266358D01*
X119665843Y-115269498D01*
X119663363Y-115273010D01*
X119663360Y-115273015D01*
X119509875Y-115490454D01*
X119509870Y-115490462D01*
X119507389Y-115493977D01*
X119505413Y-115497790D01*
X119505406Y-115497802D01*
X119382953Y-115734127D01*
X119382949Y-115734136D01*
X119380977Y-115737942D01*
X119379542Y-115741978D01*
X119379537Y-115741991D01*
X119290402Y-115992792D01*
X119290397Y-115992807D01*
X119288962Y-115996847D01*
X119288087Y-116001054D01*
X119288087Y-116001057D01*
X119233932Y-116261661D01*
X119233930Y-116261670D01*
X119233058Y-116265870D01*
X119232764Y-116270157D01*
X119232764Y-116270163D01*
X119224808Y-116386477D01*
X119214307Y-116540000D01*
X107490947Y-116540000D01*
X107509157Y-116520502D01*
X107667611Y-116296023D01*
X107794023Y-116052058D01*
X107886038Y-115793153D01*
X107941942Y-115524130D01*
X107960693Y-115250000D01*
X107941942Y-114975870D01*
X107886038Y-114706847D01*
X107863363Y-114643047D01*
X107795462Y-114451991D01*
X107794023Y-114447942D01*
X107667611Y-114203977D01*
X107509157Y-113979498D01*
X107321611Y-113778686D01*
X107318274Y-113775971D01*
X107111804Y-113607995D01*
X107111801Y-113607993D01*
X107108469Y-113605282D01*
X106873700Y-113462516D01*
X106869759Y-113460804D01*
X106869753Y-113460801D01*
X106625612Y-113354756D01*
X106625609Y-113354755D01*
X106621677Y-113353047D01*
X106617552Y-113351891D01*
X106617543Y-113351888D01*
X106361242Y-113280076D01*
X106361232Y-113280074D01*
X106357096Y-113278915D01*
X106352835Y-113278329D01*
X106352824Y-113278327D01*
X106089153Y-113242086D01*
X106089143Y-113242085D01*
X106084885Y-113241500D01*
X105810115Y-113241500D01*
X105805857Y-113242085D01*
X105805846Y-113242086D01*
X105542175Y-113278327D01*
X105542161Y-113278329D01*
X105537904Y-113278915D01*
X105533769Y-113280073D01*
X105533757Y-113280076D01*
X105277456Y-113351888D01*
X105277442Y-113351892D01*
X105273323Y-113353047D01*
X105269395Y-113354753D01*
X105269387Y-113354756D01*
X105025246Y-113460801D01*
X105025233Y-113460807D01*
X105021300Y-113462516D01*
X105017629Y-113464748D01*
X105017622Y-113464752D01*
X104790204Y-113603048D01*
X104790199Y-113603050D01*
X104786531Y-113605282D01*
X104783204Y-113607988D01*
X104783195Y-113607995D01*
X104576725Y-113775971D01*
X104576717Y-113775978D01*
X104573389Y-113778686D01*
X104570457Y-113781824D01*
X104570452Y-113781830D01*
X104388782Y-113976350D01*
X104388774Y-113976358D01*
X104385843Y-113979498D01*
X104383363Y-113983010D01*
X104383360Y-113983015D01*
X104229875Y-114200454D01*
X104229870Y-114200462D01*
X104227389Y-114203977D01*
X104225413Y-114207790D01*
X104225406Y-114207802D01*
X104102953Y-114444127D01*
X104102949Y-114444136D01*
X104100977Y-114447942D01*
X104099542Y-114451978D01*
X104099537Y-114451991D01*
X104010402Y-114702792D01*
X104010397Y-114702807D01*
X104008962Y-114706847D01*
X104008087Y-114711054D01*
X104008087Y-114711057D01*
X103953932Y-114971661D01*
X103953930Y-114971670D01*
X103953058Y-114975870D01*
X103934307Y-115250000D01*
X99977651Y-115250000D01*
X100070584Y-115098347D01*
X100162955Y-114875343D01*
X100219304Y-114640634D01*
X100238242Y-114400000D01*
X100219304Y-114159366D01*
X100162955Y-113924657D01*
X100070584Y-113701653D01*
X99944464Y-113495844D01*
X99787701Y-113312299D01*
X99604156Y-113155536D01*
X99398347Y-113029416D01*
X99229364Y-112959421D01*
X99175344Y-112937045D01*
X98940634Y-112880696D01*
X98700000Y-112861758D01*
X98459365Y-112880696D01*
X98224655Y-112937045D01*
X98001654Y-113029415D01*
X97924029Y-113076984D01*
X97795844Y-113155536D01*
X97612299Y-113312299D01*
X97522127Y-113417877D01*
X97455537Y-113495843D01*
X97329415Y-113701654D01*
X97237045Y-113924655D01*
X97180696Y-114159365D01*
X97161758Y-114400000D01*
X86754938Y-114400000D01*
X86605753Y-114170275D01*
X86601865Y-114164924D01*
X86397122Y-113912087D01*
X86397121Y-113912086D01*
X85479858Y-114829348D01*
X85532551Y-114750489D01*
X85551954Y-114652944D01*
X85532551Y-114555399D01*
X85477296Y-114472704D01*
X85394601Y-114417449D01*
X85321680Y-114402944D01*
X85272432Y-114402944D01*
X85199511Y-114417449D01*
X85120642Y-114470147D01*
X86037912Y-113552877D01*
X86037911Y-113552876D01*
X85785070Y-113348130D01*
X85779727Y-113344248D01*
X85459314Y-113136169D01*
X85453605Y-113132873D01*
X85113188Y-112959421D01*
X85107164Y-112956739D01*
X84750498Y-112819829D01*
X84744215Y-112817787D01*
X84375184Y-112718905D01*
X84368734Y-112717534D01*
X83991370Y-112657766D01*
X83984832Y-112657079D01*
X83603301Y-112637084D01*
X83596699Y-112637084D01*
X83215167Y-112657079D01*
X83208629Y-112657766D01*
X82831265Y-112717534D01*
X82824815Y-112718905D01*
X82455784Y-112817787D01*
X82449501Y-112819829D01*
X82092835Y-112956739D01*
X82086811Y-112959421D01*
X81746397Y-113132872D01*
X81740686Y-113136169D01*
X81420267Y-113344251D01*
X81414938Y-113348123D01*
X81162086Y-113552877D01*
X82079353Y-114470144D01*
X82000489Y-114417449D01*
X81927568Y-114402944D01*
X81878320Y-114402944D01*
X81805399Y-114417449D01*
X81722704Y-114472704D01*
X81667449Y-114555399D01*
X81648046Y-114652944D01*
X81667449Y-114750489D01*
X81720144Y-114829353D01*
X80802877Y-113912086D01*
X80598123Y-114164938D01*
X80594251Y-114170267D01*
X80386169Y-114490686D01*
X80382872Y-114496397D01*
X80235391Y-114785842D01*
X80186642Y-114837457D01*
X80117727Y-114854523D01*
X80050526Y-114831622D01*
X80006374Y-114776024D01*
X79997125Y-114728725D01*
X79995289Y-111859999D01*
X94521950Y-111859999D01*
X94542117Y-112116247D01*
X94602122Y-112366186D01*
X94700486Y-112603657D01*
X94834792Y-112822825D01*
X94836253Y-112824536D01*
X95406806Y-112253982D01*
X95452316Y-112339822D01*
X95572009Y-112480735D01*
X95719195Y-112592623D01*
X95765268Y-112613939D01*
X95195462Y-113183745D01*
X95195462Y-113183746D01*
X95197176Y-113185208D01*
X95416342Y-113319513D01*
X95653813Y-113417877D01*
X95903752Y-113477882D01*
X96160000Y-113498049D01*
X96416247Y-113477882D01*
X96666186Y-113417877D01*
X96903657Y-113319513D01*
X97122824Y-113185208D01*
X97124535Y-113183746D01*
X97124536Y-113183745D01*
X96555077Y-112614286D01*
X96677431Y-112540669D01*
X96811658Y-112413523D01*
X96915413Y-112260495D01*
X96916635Y-112257426D01*
X97483745Y-112824536D01*
X97483746Y-112824535D01*
X97485208Y-112822824D01*
X97619513Y-112603657D01*
X97717877Y-112366186D01*
X97777882Y-112116247D01*
X97798049Y-111860000D01*
X99601950Y-111860000D01*
X99622117Y-112116247D01*
X99682122Y-112366186D01*
X99780486Y-112603657D01*
X99914792Y-112822825D01*
X99916253Y-112824536D01*
X100486806Y-112253982D01*
X100532316Y-112339822D01*
X100652009Y-112480735D01*
X100799195Y-112592623D01*
X100845268Y-112613939D01*
X100275462Y-113183745D01*
X100275462Y-113183746D01*
X100277176Y-113185208D01*
X100496342Y-113319513D01*
X100733813Y-113417877D01*
X100983752Y-113477882D01*
X101239999Y-113498049D01*
X101496247Y-113477882D01*
X101746186Y-113417877D01*
X101983657Y-113319513D01*
X102202824Y-113185208D01*
X102204535Y-113183746D01*
X102204536Y-113183745D01*
X101635077Y-112614286D01*
X101757431Y-112540669D01*
X101891658Y-112413523D01*
X101995413Y-112260495D01*
X101996635Y-112257426D01*
X102563745Y-112824536D01*
X102563746Y-112824535D01*
X102565208Y-112822824D01*
X102699513Y-112603657D01*
X102797877Y-112366186D01*
X102857882Y-112116247D01*
X102878049Y-111859999D01*
X102874114Y-111810000D01*
X119094307Y-111810000D01*
X119113058Y-112084130D01*
X119168962Y-112353153D01*
X119170399Y-112357196D01*
X119170402Y-112357207D01*
X119259537Y-112608008D01*
X119259540Y-112608015D01*
X119260977Y-112612058D01*
X119262951Y-112615869D01*
X119262953Y-112615872D01*
X119385406Y-112852197D01*
X119385409Y-112852202D01*
X119387389Y-112856023D01*
X119545843Y-113080502D01*
X119733389Y-113281314D01*
X119946531Y-113454718D01*
X120181300Y-113597484D01*
X120433323Y-113706953D01*
X120697904Y-113781085D01*
X120970115Y-113818500D01*
X120974420Y-113818500D01*
X121240580Y-113818500D01*
X121244885Y-113818500D01*
X121517096Y-113781085D01*
X121781677Y-113706953D01*
X122033700Y-113597484D01*
X122268469Y-113454718D01*
X122481611Y-113281314D01*
X122669157Y-113080502D01*
X122827611Y-112856023D01*
X122954023Y-112612058D01*
X123046038Y-112353153D01*
X123101942Y-112084130D01*
X123120693Y-111810000D01*
X123101942Y-111535870D01*
X123046038Y-111266847D01*
X122954023Y-111007942D01*
X122827611Y-110763977D01*
X122669157Y-110539498D01*
X122481611Y-110338686D01*
X122362912Y-110242117D01*
X122271804Y-110167995D01*
X122271801Y-110167993D01*
X122268469Y-110165282D01*
X122060402Y-110038754D01*
X122037377Y-110024752D01*
X122037376Y-110024751D01*
X122033700Y-110022516D01*
X122029759Y-110020804D01*
X122029753Y-110020801D01*
X121785612Y-109914756D01*
X121785609Y-109914755D01*
X121781677Y-109913047D01*
X121777552Y-109911891D01*
X121777543Y-109911888D01*
X121521242Y-109840076D01*
X121521232Y-109840074D01*
X121517096Y-109838915D01*
X121512835Y-109838329D01*
X121512824Y-109838327D01*
X121249153Y-109802086D01*
X121249143Y-109802085D01*
X121244885Y-109801500D01*
X120970115Y-109801500D01*
X120965857Y-109802085D01*
X120965846Y-109802086D01*
X120702175Y-109838327D01*
X120702161Y-109838329D01*
X120697904Y-109838915D01*
X120693769Y-109840073D01*
X120693757Y-109840076D01*
X120437456Y-109911888D01*
X120437442Y-109911892D01*
X120433323Y-109913047D01*
X120429395Y-109914753D01*
X120429387Y-109914756D01*
X120185246Y-110020801D01*
X120185233Y-110020807D01*
X120181300Y-110022516D01*
X120177629Y-110024748D01*
X120177622Y-110024752D01*
X119950204Y-110163048D01*
X119950199Y-110163050D01*
X119946531Y-110165282D01*
X119943204Y-110167988D01*
X119943195Y-110167995D01*
X119736725Y-110335971D01*
X119736717Y-110335978D01*
X119733389Y-110338686D01*
X119730457Y-110341824D01*
X119730452Y-110341830D01*
X119548782Y-110536350D01*
X119548774Y-110536358D01*
X119545843Y-110539498D01*
X119543363Y-110543010D01*
X119543360Y-110543015D01*
X119389875Y-110760454D01*
X119389870Y-110760462D01*
X119387389Y-110763977D01*
X119385413Y-110767790D01*
X119385406Y-110767802D01*
X119262953Y-111004127D01*
X119262949Y-111004136D01*
X119260977Y-111007942D01*
X119259542Y-111011978D01*
X119259537Y-111011991D01*
X119170402Y-111262792D01*
X119170397Y-111262807D01*
X119168962Y-111266847D01*
X119168087Y-111271054D01*
X119168087Y-111271057D01*
X119113932Y-111531661D01*
X119113930Y-111531670D01*
X119113058Y-111535870D01*
X119112764Y-111540157D01*
X119112764Y-111540163D01*
X119106533Y-111631260D01*
X119094307Y-111810000D01*
X102874114Y-111810000D01*
X102857882Y-111603752D01*
X102797877Y-111353813D01*
X102699513Y-111116342D01*
X102565208Y-110897176D01*
X102563745Y-110895462D01*
X101993191Y-111466015D01*
X101947684Y-111380178D01*
X101827991Y-111239265D01*
X101680805Y-111127377D01*
X101634729Y-111106060D01*
X102204536Y-110536253D01*
X102202825Y-110534792D01*
X101983657Y-110400486D01*
X101746186Y-110302122D01*
X101496247Y-110242117D01*
X101239999Y-110221950D01*
X100983752Y-110242117D01*
X100733813Y-110302122D01*
X100496342Y-110400486D01*
X100277174Y-110534792D01*
X100275462Y-110536253D01*
X100844922Y-111105713D01*
X100722569Y-111179331D01*
X100588342Y-111306477D01*
X100484587Y-111459505D01*
X100483364Y-111462572D01*
X99916253Y-110895462D01*
X99914792Y-110897174D01*
X99780486Y-111116342D01*
X99682122Y-111353813D01*
X99622117Y-111603752D01*
X99601950Y-111860000D01*
X97798049Y-111860000D01*
X97777882Y-111603752D01*
X97717877Y-111353813D01*
X97619513Y-111116342D01*
X97485208Y-110897176D01*
X97483745Y-110895462D01*
X96913192Y-111466015D01*
X96867684Y-111380178D01*
X96747991Y-111239265D01*
X96600805Y-111127377D01*
X96554729Y-111106060D01*
X97124536Y-110536253D01*
X97122825Y-110534792D01*
X96903657Y-110400486D01*
X96666186Y-110302122D01*
X96416247Y-110242117D01*
X96159999Y-110221950D01*
X95903752Y-110242117D01*
X95653813Y-110302122D01*
X95416342Y-110400486D01*
X95197174Y-110534792D01*
X95195462Y-110536253D01*
X95764922Y-111105713D01*
X95642569Y-111179331D01*
X95508342Y-111306477D01*
X95404587Y-111459505D01*
X95403364Y-111462573D01*
X94836253Y-110895462D01*
X94834792Y-110897174D01*
X94700486Y-111116342D01*
X94602122Y-111353813D01*
X94542117Y-111603752D01*
X94521950Y-111859999D01*
X79995289Y-111859999D01*
X79993227Y-108638897D01*
X80013184Y-108570767D01*
X80066810Y-108524240D01*
X80137078Y-108514091D01*
X80201677Y-108543543D01*
X80226659Y-108572985D01*
X80310392Y-108709625D01*
X80311853Y-108711336D01*
X80882406Y-108140782D01*
X80927916Y-108226622D01*
X81047609Y-108367535D01*
X81194795Y-108479423D01*
X81240868Y-108500739D01*
X80671062Y-109070545D01*
X80671062Y-109070546D01*
X80672776Y-109072008D01*
X80891942Y-109206313D01*
X81129413Y-109304677D01*
X81379352Y-109364682D01*
X81635600Y-109384849D01*
X81891847Y-109364682D01*
X82141786Y-109304677D01*
X82379257Y-109206313D01*
X82598424Y-109072008D01*
X82600135Y-109070546D01*
X82600136Y-109070545D01*
X82030677Y-108501086D01*
X82153031Y-108427469D01*
X82287258Y-108300323D01*
X82391013Y-108147295D01*
X82392235Y-108144226D01*
X82959344Y-108711336D01*
X82959346Y-108711335D01*
X82960808Y-108709624D01*
X83095113Y-108490457D01*
X83193477Y-108252986D01*
X83253482Y-108003047D01*
X83273649Y-107746800D01*
X85077550Y-107746800D01*
X85097717Y-108003047D01*
X85157722Y-108252986D01*
X85256086Y-108490457D01*
X85390392Y-108709625D01*
X85391853Y-108711336D01*
X85962406Y-108140782D01*
X86007916Y-108226622D01*
X86127609Y-108367535D01*
X86274795Y-108479423D01*
X86320868Y-108500739D01*
X85751062Y-109070545D01*
X85751062Y-109070546D01*
X85752776Y-109072008D01*
X85971942Y-109206313D01*
X86209413Y-109304677D01*
X86459352Y-109364682D01*
X86715600Y-109384849D01*
X86971847Y-109364682D01*
X87221786Y-109304677D01*
X87459257Y-109206313D01*
X87678424Y-109072008D01*
X87680135Y-109070546D01*
X87680136Y-109070545D01*
X87110677Y-108501086D01*
X87233031Y-108427469D01*
X87367258Y-108300323D01*
X87471013Y-108147295D01*
X87472235Y-108144226D01*
X88039345Y-108711336D01*
X88039346Y-108711335D01*
X88040808Y-108709624D01*
X88175113Y-108490457D01*
X88272934Y-108254298D01*
X103935102Y-108254298D01*
X103953260Y-108519769D01*
X103954428Y-108528268D01*
X104008569Y-108788807D01*
X104010884Y-108797072D01*
X104099995Y-109047806D01*
X104103417Y-109055682D01*
X104225833Y-109291934D01*
X104230304Y-109299287D01*
X104358040Y-109480248D01*
X104358041Y-109480248D01*
X105383070Y-108455219D01*
X105423401Y-108552588D01*
X105519575Y-108677925D01*
X105644912Y-108774099D01*
X105742279Y-108814429D01*
X104718215Y-109838492D01*
X104718215Y-109838494D01*
X104783484Y-109891595D01*
X104790495Y-109896543D01*
X105017852Y-110034802D01*
X105025481Y-110038754D01*
X105269539Y-110144764D01*
X105277632Y-110147641D01*
X105533859Y-110219433D01*
X105542277Y-110221182D01*
X105805880Y-110257413D01*
X105814454Y-110258000D01*
X106080546Y-110258000D01*
X106089119Y-110257413D01*
X106352722Y-110221182D01*
X106361140Y-110219433D01*
X106617367Y-110147641D01*
X106625460Y-110144764D01*
X106869518Y-110038754D01*
X106877147Y-110034802D01*
X107104504Y-109896543D01*
X107111516Y-109891594D01*
X107176783Y-109838494D01*
X107176783Y-109838492D01*
X106152720Y-108814429D01*
X106250088Y-108774099D01*
X106375425Y-108677925D01*
X106471599Y-108552589D01*
X106511930Y-108455220D01*
X107536957Y-109480247D01*
X107664699Y-109299280D01*
X107669166Y-109291934D01*
X107791582Y-109055682D01*
X107795004Y-109047806D01*
X107884115Y-108797072D01*
X107886430Y-108788807D01*
X107940571Y-108528268D01*
X107941739Y-108519769D01*
X107959898Y-108254298D01*
X107959898Y-108245701D01*
X107941739Y-107980230D01*
X107940571Y-107971731D01*
X107886430Y-107711192D01*
X107884115Y-107702927D01*
X107795004Y-107452193D01*
X107791582Y-107444317D01*
X107670169Y-107210000D01*
X118904307Y-107210000D01*
X118904601Y-107214298D01*
X118920334Y-107444317D01*
X118923058Y-107484130D01*
X118923931Y-107488331D01*
X118923932Y-107488338D01*
X118948897Y-107608474D01*
X118978962Y-107753153D01*
X118980399Y-107757196D01*
X118980402Y-107757207D01*
X119069537Y-108008008D01*
X119069540Y-108008015D01*
X119070977Y-108012058D01*
X119072951Y-108015869D01*
X119072953Y-108015872D01*
X119195406Y-108252197D01*
X119195409Y-108252202D01*
X119197389Y-108256023D01*
X119355843Y-108480502D01*
X119358781Y-108483648D01*
X119358782Y-108483649D01*
X119396692Y-108524240D01*
X119543389Y-108681314D01*
X119756531Y-108854718D01*
X119991300Y-108997484D01*
X120243323Y-109106953D01*
X120507904Y-109181085D01*
X120780115Y-109218500D01*
X120784420Y-109218500D01*
X121050580Y-109218500D01*
X121054885Y-109218500D01*
X121327096Y-109181085D01*
X121591677Y-109106953D01*
X121843700Y-108997484D01*
X122078469Y-108854718D01*
X122291611Y-108681314D01*
X122479157Y-108480502D01*
X122637611Y-108256023D01*
X122764023Y-108012058D01*
X122856038Y-107753153D01*
X122911942Y-107484130D01*
X122930693Y-107210000D01*
X122911942Y-106935870D01*
X122856038Y-106666847D01*
X122854139Y-106661505D01*
X122765462Y-106411991D01*
X122764023Y-106407942D01*
X122637611Y-106163977D01*
X122479157Y-105939498D01*
X122291611Y-105738686D01*
X122222112Y-105682144D01*
X122081804Y-105567995D01*
X122081801Y-105567993D01*
X122078469Y-105565282D01*
X121843700Y-105422516D01*
X121839759Y-105420804D01*
X121839753Y-105420801D01*
X121595612Y-105314756D01*
X121595609Y-105314755D01*
X121591677Y-105313047D01*
X121587552Y-105311891D01*
X121587543Y-105311888D01*
X121331242Y-105240076D01*
X121331232Y-105240074D01*
X121327096Y-105238915D01*
X121322835Y-105238329D01*
X121322824Y-105238327D01*
X121059153Y-105202086D01*
X121059143Y-105202085D01*
X121054885Y-105201500D01*
X120780115Y-105201500D01*
X120775857Y-105202085D01*
X120775846Y-105202086D01*
X120512175Y-105238327D01*
X120512161Y-105238329D01*
X120507904Y-105238915D01*
X120503769Y-105240073D01*
X120503757Y-105240076D01*
X120247456Y-105311888D01*
X120247442Y-105311892D01*
X120243323Y-105313047D01*
X120239395Y-105314753D01*
X120239387Y-105314756D01*
X119995246Y-105420801D01*
X119995233Y-105420807D01*
X119991300Y-105422516D01*
X119987629Y-105424748D01*
X119987622Y-105424752D01*
X119760204Y-105563048D01*
X119760199Y-105563050D01*
X119756531Y-105565282D01*
X119753204Y-105567988D01*
X119753195Y-105567995D01*
X119546725Y-105735971D01*
X119546717Y-105735978D01*
X119543389Y-105738686D01*
X119540457Y-105741824D01*
X119540452Y-105741830D01*
X119358782Y-105936350D01*
X119358774Y-105936358D01*
X119355843Y-105939498D01*
X119353363Y-105943010D01*
X119353360Y-105943015D01*
X119199875Y-106160454D01*
X119199870Y-106160462D01*
X119197389Y-106163977D01*
X119195413Y-106167790D01*
X119195406Y-106167802D01*
X119072953Y-106404127D01*
X119072949Y-106404136D01*
X119070977Y-106407942D01*
X119069542Y-106411978D01*
X119069537Y-106411991D01*
X118980402Y-106662792D01*
X118980397Y-106662807D01*
X118978962Y-106666847D01*
X118978087Y-106671054D01*
X118978087Y-106671057D01*
X118923932Y-106931661D01*
X118923930Y-106931670D01*
X118923058Y-106935870D01*
X118922764Y-106940157D01*
X118922764Y-106940163D01*
X118917320Y-107019750D01*
X118904307Y-107210000D01*
X107670169Y-107210000D01*
X107669166Y-107208065D01*
X107664699Y-107200719D01*
X107536957Y-107019750D01*
X106511929Y-108044778D01*
X106471599Y-107947412D01*
X106375425Y-107822075D01*
X106250088Y-107725901D01*
X106152719Y-107685569D01*
X107176783Y-106661504D01*
X107111515Y-106608404D01*
X107104504Y-106603456D01*
X106877147Y-106465197D01*
X106869518Y-106461245D01*
X106625460Y-106355235D01*
X106617367Y-106352358D01*
X106361140Y-106280566D01*
X106352722Y-106278817D01*
X106089119Y-106242586D01*
X106080546Y-106242000D01*
X105814454Y-106242000D01*
X105805880Y-106242586D01*
X105542277Y-106278817D01*
X105533859Y-106280566D01*
X105277632Y-106352358D01*
X105269539Y-106355235D01*
X105025481Y-106461245D01*
X105017852Y-106465197D01*
X104790497Y-106603454D01*
X104783483Y-106608405D01*
X104718215Y-106661504D01*
X104718214Y-106661505D01*
X105742279Y-107685570D01*
X105644912Y-107725901D01*
X105519575Y-107822075D01*
X105423401Y-107947411D01*
X105383070Y-108044779D01*
X104358041Y-107019750D01*
X104230296Y-107200724D01*
X104225835Y-107208061D01*
X104103417Y-107444317D01*
X104099995Y-107452193D01*
X104010884Y-107702927D01*
X104008569Y-107711192D01*
X103954428Y-107971731D01*
X103953260Y-107980230D01*
X103935102Y-108245701D01*
X103935102Y-108254298D01*
X88272934Y-108254298D01*
X88273477Y-108252986D01*
X88333482Y-108003047D01*
X88353649Y-107746800D01*
X88333482Y-107490552D01*
X88273477Y-107240613D01*
X88175113Y-107003142D01*
X88040808Y-106783976D01*
X88039345Y-106782262D01*
X87468792Y-107352815D01*
X87423284Y-107266978D01*
X87303591Y-107126065D01*
X87156405Y-107014177D01*
X87110329Y-106992860D01*
X87680136Y-106423053D01*
X87678425Y-106421592D01*
X87459257Y-106287286D01*
X87221786Y-106188922D01*
X86971847Y-106128917D01*
X86715599Y-106108750D01*
X86459352Y-106128917D01*
X86209413Y-106188922D01*
X85971942Y-106287286D01*
X85752774Y-106421592D01*
X85751062Y-106423053D01*
X86320522Y-106992513D01*
X86198169Y-107066131D01*
X86063942Y-107193277D01*
X85960187Y-107346305D01*
X85958964Y-107349373D01*
X85391853Y-106782262D01*
X85390392Y-106783974D01*
X85256086Y-107003142D01*
X85157722Y-107240613D01*
X85097717Y-107490552D01*
X85077550Y-107746800D01*
X83273649Y-107746800D01*
X83253482Y-107490552D01*
X83193477Y-107240613D01*
X83095113Y-107003142D01*
X82960808Y-106783976D01*
X82959345Y-106782262D01*
X82388792Y-107352815D01*
X82343284Y-107266978D01*
X82223591Y-107126065D01*
X82076405Y-107014177D01*
X82030329Y-106992860D01*
X82600136Y-106423053D01*
X82598425Y-106421592D01*
X82379257Y-106287286D01*
X82141786Y-106188922D01*
X81891847Y-106128917D01*
X81635599Y-106108750D01*
X81379352Y-106128917D01*
X81129413Y-106188922D01*
X80891942Y-106287286D01*
X80672774Y-106421592D01*
X80671062Y-106423053D01*
X81240522Y-106992513D01*
X81118169Y-107066131D01*
X80983942Y-107193277D01*
X80880187Y-107346305D01*
X80878964Y-107349373D01*
X80311853Y-106782262D01*
X80310392Y-106783974D01*
X80225519Y-106922475D01*
X80172871Y-106970106D01*
X80102829Y-106981713D01*
X80037632Y-106953610D01*
X79997978Y-106894719D01*
X79992086Y-106856721D01*
X79991030Y-105206800D01*
X82637358Y-105206800D01*
X82656296Y-105447434D01*
X82712645Y-105682144D01*
X82737368Y-105741830D01*
X82805016Y-105905147D01*
X82931136Y-106110956D01*
X83087899Y-106294501D01*
X83271444Y-106451264D01*
X83477253Y-106577384D01*
X83700257Y-106669755D01*
X83934966Y-106726104D01*
X84175600Y-106745042D01*
X84416234Y-106726104D01*
X84650943Y-106669755D01*
X84873947Y-106577384D01*
X85079756Y-106451264D01*
X85263301Y-106294501D01*
X85420064Y-106110956D01*
X85546184Y-105905147D01*
X85638555Y-105682143D01*
X85694904Y-105447434D01*
X85713842Y-105206800D01*
X85694904Y-104966166D01*
X85638555Y-104731457D01*
X85546184Y-104508453D01*
X85420064Y-104302644D01*
X85263301Y-104119099D01*
X85079756Y-103962336D01*
X84873947Y-103836216D01*
X84873945Y-103836215D01*
X84650944Y-103743845D01*
X84416234Y-103687496D01*
X84416233Y-103687495D01*
X84175600Y-103668558D01*
X84175599Y-103668558D01*
X83934965Y-103687496D01*
X83700255Y-103743845D01*
X83477254Y-103836215D01*
X83374348Y-103899276D01*
X83271444Y-103962336D01*
X83087899Y-104119099D01*
X82997727Y-104224677D01*
X82931137Y-104302643D01*
X82805015Y-104508454D01*
X82712645Y-104731455D01*
X82656296Y-104966165D01*
X82637358Y-105206800D01*
X79991030Y-105206800D01*
X79989971Y-103553585D01*
X80009929Y-103485455D01*
X80063555Y-103438928D01*
X80133823Y-103428779D01*
X80198422Y-103458231D01*
X80223404Y-103487673D01*
X80310392Y-103629625D01*
X80311853Y-103631336D01*
X80882406Y-103060782D01*
X80927916Y-103146622D01*
X81047609Y-103287535D01*
X81194795Y-103399423D01*
X81240868Y-103420739D01*
X80671062Y-103990545D01*
X80671062Y-103990546D01*
X80672776Y-103992008D01*
X80891942Y-104126313D01*
X81129413Y-104224677D01*
X81379352Y-104284682D01*
X81635599Y-104304849D01*
X81891847Y-104284682D01*
X82141786Y-104224677D01*
X82379257Y-104126313D01*
X82598424Y-103992008D01*
X82600135Y-103990546D01*
X82600136Y-103990545D01*
X82030677Y-103421086D01*
X82153031Y-103347469D01*
X82287258Y-103220323D01*
X82391013Y-103067295D01*
X82392235Y-103064226D01*
X82959345Y-103631336D01*
X82959346Y-103631335D01*
X82960808Y-103629624D01*
X83095113Y-103410457D01*
X83193477Y-103172986D01*
X83253482Y-102923047D01*
X83273649Y-102666799D01*
X85077550Y-102666799D01*
X85097717Y-102923047D01*
X85157722Y-103172986D01*
X85256086Y-103410457D01*
X85390392Y-103629625D01*
X85391853Y-103631336D01*
X85962406Y-103060782D01*
X86007916Y-103146622D01*
X86127609Y-103287535D01*
X86274795Y-103399423D01*
X86320868Y-103420739D01*
X85751062Y-103990545D01*
X85751062Y-103990546D01*
X85752776Y-103992008D01*
X85971942Y-104126313D01*
X86209413Y-104224677D01*
X86459352Y-104284682D01*
X86715599Y-104304849D01*
X86971847Y-104284682D01*
X87221786Y-104224677D01*
X87459257Y-104126313D01*
X87678424Y-103992008D01*
X87680135Y-103990546D01*
X87680136Y-103990545D01*
X87110677Y-103421086D01*
X87233031Y-103347469D01*
X87367258Y-103220323D01*
X87471013Y-103067295D01*
X87472235Y-103064226D01*
X88039345Y-103631336D01*
X88039346Y-103631335D01*
X88040808Y-103629624D01*
X88175113Y-103410457D01*
X88273477Y-103172986D01*
X88333482Y-102923047D01*
X88353649Y-102666799D01*
X88333482Y-102410552D01*
X88273477Y-102160613D01*
X88175113Y-101923142D01*
X88040808Y-101703976D01*
X88039345Y-101702262D01*
X87468792Y-102272815D01*
X87423284Y-102186978D01*
X87303591Y-102046065D01*
X87156405Y-101934177D01*
X87110329Y-101912860D01*
X87680136Y-101343053D01*
X87678425Y-101341592D01*
X87459257Y-101207286D01*
X87221786Y-101108922D01*
X86971847Y-101048917D01*
X86715600Y-101028750D01*
X86459352Y-101048917D01*
X86209413Y-101108922D01*
X85971942Y-101207286D01*
X85752774Y-101341592D01*
X85751062Y-101343053D01*
X86320522Y-101912513D01*
X86198169Y-101986131D01*
X86063942Y-102113277D01*
X85960187Y-102266305D01*
X85958964Y-102269373D01*
X85391853Y-101702262D01*
X85390392Y-101703974D01*
X85256086Y-101923142D01*
X85157722Y-102160613D01*
X85097717Y-102410552D01*
X85077550Y-102666799D01*
X83273649Y-102666799D01*
X83253482Y-102410552D01*
X83193477Y-102160613D01*
X83095113Y-101923142D01*
X82960808Y-101703976D01*
X82959345Y-101702262D01*
X82388792Y-102272815D01*
X82343284Y-102186978D01*
X82223591Y-102046065D01*
X82076405Y-101934177D01*
X82030329Y-101912860D01*
X82600136Y-101343053D01*
X82598425Y-101341592D01*
X82379257Y-101207286D01*
X82141786Y-101108922D01*
X81891847Y-101048917D01*
X81635600Y-101028750D01*
X81379352Y-101048917D01*
X81129413Y-101108922D01*
X80891942Y-101207286D01*
X80672774Y-101341592D01*
X80671062Y-101343053D01*
X81240522Y-101912513D01*
X81118169Y-101986131D01*
X80983942Y-102113277D01*
X80880187Y-102266305D01*
X80878964Y-102269373D01*
X80311853Y-101702262D01*
X80310388Y-101703979D01*
X80222269Y-101847776D01*
X80169622Y-101895407D01*
X80099580Y-101907014D01*
X80034383Y-101878911D01*
X79994729Y-101820020D01*
X79988837Y-101782027D01*
X79983894Y-94059346D01*
X80003852Y-93991214D01*
X80057478Y-93944687D01*
X80127746Y-93934538D01*
X80192345Y-93963990D01*
X80221368Y-94004211D01*
X80221706Y-94004004D01*
X80224451Y-94008483D01*
X80226303Y-94011050D01*
X80226885Y-94012455D01*
X80361192Y-94231625D01*
X80362653Y-94233336D01*
X80933206Y-93662782D01*
X80978716Y-93748622D01*
X81098409Y-93889535D01*
X81245595Y-94001423D01*
X81291668Y-94022739D01*
X80721862Y-94592545D01*
X80721862Y-94592546D01*
X80723576Y-94594008D01*
X80942742Y-94728313D01*
X81180213Y-94826677D01*
X81430152Y-94886682D01*
X81686399Y-94906849D01*
X81942647Y-94886682D01*
X82192586Y-94826677D01*
X82430057Y-94728313D01*
X82649224Y-94594008D01*
X82650935Y-94592546D01*
X82650936Y-94592545D01*
X82081477Y-94023086D01*
X82203831Y-93949469D01*
X82338058Y-93822323D01*
X82441813Y-93669295D01*
X82443035Y-93666226D01*
X83010145Y-94233336D01*
X83010146Y-94233335D01*
X83011608Y-94231624D01*
X83145913Y-94012457D01*
X83244277Y-93774986D01*
X83304282Y-93525047D01*
X83324449Y-93268800D01*
X85128350Y-93268800D01*
X85148517Y-93525047D01*
X85208522Y-93774986D01*
X85306886Y-94012457D01*
X85441192Y-94231625D01*
X85442653Y-94233336D01*
X86013206Y-93662782D01*
X86058716Y-93748622D01*
X86178409Y-93889535D01*
X86325595Y-94001423D01*
X86371668Y-94022739D01*
X85801862Y-94592545D01*
X85801862Y-94592546D01*
X85803576Y-94594008D01*
X86022742Y-94728313D01*
X86260213Y-94826677D01*
X86510152Y-94886682D01*
X86766399Y-94906849D01*
X87022647Y-94886682D01*
X87272586Y-94826677D01*
X87510057Y-94728313D01*
X87729224Y-94594008D01*
X87730935Y-94592546D01*
X87730936Y-94592545D01*
X87161477Y-94023086D01*
X87283831Y-93949469D01*
X87418058Y-93822323D01*
X87521813Y-93669295D01*
X87523035Y-93666226D01*
X88090145Y-94233336D01*
X88090146Y-94233335D01*
X88091608Y-94231624D01*
X88225913Y-94012457D01*
X88324277Y-93774986D01*
X88384282Y-93525047D01*
X88404449Y-93268799D01*
X88384282Y-93012552D01*
X88324277Y-92762613D01*
X88225913Y-92525142D01*
X88091608Y-92305976D01*
X88090145Y-92304262D01*
X87519592Y-92874815D01*
X87474084Y-92788978D01*
X87354391Y-92648065D01*
X87207205Y-92536177D01*
X87161129Y-92514860D01*
X87730936Y-91945053D01*
X87729225Y-91943592D01*
X87510057Y-91809286D01*
X87272586Y-91710922D01*
X87022647Y-91650917D01*
X86766400Y-91630750D01*
X86510152Y-91650917D01*
X86260213Y-91710922D01*
X86022742Y-91809286D01*
X85803574Y-91943592D01*
X85801862Y-91945053D01*
X86371321Y-92514513D01*
X86248969Y-92588131D01*
X86114742Y-92715277D01*
X86010987Y-92868305D01*
X86009764Y-92871373D01*
X85442653Y-92304262D01*
X85441192Y-92305974D01*
X85306886Y-92525142D01*
X85208522Y-92762613D01*
X85148517Y-93012552D01*
X85128350Y-93268800D01*
X83324449Y-93268800D01*
X83304282Y-93012552D01*
X83244277Y-92762613D01*
X83145913Y-92525142D01*
X83011608Y-92305976D01*
X83010145Y-92304262D01*
X82439592Y-92874815D01*
X82394084Y-92788978D01*
X82274391Y-92648065D01*
X82127205Y-92536177D01*
X82081129Y-92514860D01*
X82650936Y-91945053D01*
X82649225Y-91943592D01*
X82430057Y-91809286D01*
X82192586Y-91710922D01*
X81942647Y-91650917D01*
X81686400Y-91630750D01*
X81430152Y-91650917D01*
X81180213Y-91710922D01*
X80942742Y-91809286D01*
X80723574Y-91943592D01*
X80721862Y-91945053D01*
X81291322Y-92514513D01*
X81168969Y-92588131D01*
X81034742Y-92715277D01*
X80930987Y-92868305D01*
X80929764Y-92871373D01*
X80362653Y-92304262D01*
X80361192Y-92305974D01*
X80226881Y-92525149D01*
X80225288Y-92528997D01*
X80222101Y-92532950D01*
X80221706Y-92533596D01*
X80221622Y-92533544D01*
X80180736Y-92584275D01*
X80113371Y-92606691D01*
X80044581Y-92589128D01*
X79996207Y-92537163D01*
X79982884Y-92480857D01*
X79981762Y-90728800D01*
X82688158Y-90728800D01*
X82707096Y-90969434D01*
X82763445Y-91204144D01*
X82852087Y-91418144D01*
X82855816Y-91427147D01*
X82981936Y-91632956D01*
X83138699Y-91816501D01*
X83322244Y-91973264D01*
X83528053Y-92099384D01*
X83751057Y-92191755D01*
X83985766Y-92248104D01*
X84226400Y-92267042D01*
X84467034Y-92248104D01*
X84701743Y-92191755D01*
X84924747Y-92099384D01*
X85130556Y-91973264D01*
X85314101Y-91816501D01*
X85470864Y-91632956D01*
X85596984Y-91427147D01*
X85689355Y-91204143D01*
X85745704Y-90969434D01*
X85764642Y-90728800D01*
X85745704Y-90488166D01*
X85689355Y-90253457D01*
X85596984Y-90030453D01*
X85470864Y-89824644D01*
X85314101Y-89641099D01*
X85130556Y-89484336D01*
X84924747Y-89358216D01*
X84924745Y-89358215D01*
X84701744Y-89265845D01*
X84467034Y-89209496D01*
X84226400Y-89190558D01*
X83985765Y-89209496D01*
X83751055Y-89265845D01*
X83528054Y-89358215D01*
X83445844Y-89408594D01*
X83322244Y-89484336D01*
X83138699Y-89641099D01*
X82981936Y-89824644D01*
X82931740Y-89906556D01*
X82855815Y-90030454D01*
X82763445Y-90253455D01*
X82707096Y-90488165D01*
X82688158Y-90728800D01*
X79981762Y-90728800D01*
X79980637Y-88971483D01*
X80000595Y-88903352D01*
X80054221Y-88856825D01*
X80124489Y-88846676D01*
X80189088Y-88876128D01*
X80223045Y-88923185D01*
X80226885Y-88932455D01*
X80361192Y-89151625D01*
X80362653Y-89153336D01*
X80933206Y-88582782D01*
X80978716Y-88668622D01*
X81098409Y-88809535D01*
X81245595Y-88921423D01*
X81291668Y-88942739D01*
X80721862Y-89512545D01*
X80721862Y-89512546D01*
X80723576Y-89514008D01*
X80942742Y-89648313D01*
X81180213Y-89746677D01*
X81430152Y-89806682D01*
X81686400Y-89826849D01*
X81942647Y-89806682D01*
X82192586Y-89746677D01*
X82430057Y-89648313D01*
X82649224Y-89514008D01*
X82650935Y-89512546D01*
X82650936Y-89512545D01*
X82081477Y-88943086D01*
X82203831Y-88869469D01*
X82338058Y-88742323D01*
X82441813Y-88589295D01*
X82443035Y-88586226D01*
X83010145Y-89153336D01*
X83010146Y-89153335D01*
X83011608Y-89151624D01*
X83145913Y-88932457D01*
X83244277Y-88694986D01*
X83304282Y-88445047D01*
X83324449Y-88188800D01*
X85128350Y-88188800D01*
X85148517Y-88445047D01*
X85208522Y-88694986D01*
X85306886Y-88932457D01*
X85441192Y-89151625D01*
X85442653Y-89153336D01*
X86013206Y-88582782D01*
X86058716Y-88668622D01*
X86178409Y-88809535D01*
X86325595Y-88921423D01*
X86371668Y-88942739D01*
X85801862Y-89512545D01*
X85801862Y-89512546D01*
X85803576Y-89514008D01*
X86022742Y-89648313D01*
X86260213Y-89746677D01*
X86510152Y-89806682D01*
X86766400Y-89826849D01*
X87022647Y-89806682D01*
X87272586Y-89746677D01*
X87510057Y-89648313D01*
X87729224Y-89514008D01*
X87730935Y-89512546D01*
X87730936Y-89512545D01*
X87161477Y-88943086D01*
X87283831Y-88869469D01*
X87418058Y-88742323D01*
X87521813Y-88589295D01*
X87523035Y-88586226D01*
X88090145Y-89153336D01*
X88090146Y-89153335D01*
X88091608Y-89151624D01*
X88225913Y-88932457D01*
X88324277Y-88694986D01*
X88384282Y-88445047D01*
X88404449Y-88188799D01*
X88384282Y-87932552D01*
X88324277Y-87682613D01*
X88225913Y-87445142D01*
X88091608Y-87225976D01*
X88090145Y-87224262D01*
X87519592Y-87794815D01*
X87474084Y-87708978D01*
X87354391Y-87568065D01*
X87207205Y-87456177D01*
X87161129Y-87434860D01*
X87730936Y-86865053D01*
X87729225Y-86863592D01*
X87510057Y-86729286D01*
X87272586Y-86630922D01*
X87022647Y-86570917D01*
X86766399Y-86550750D01*
X86510152Y-86570917D01*
X86260213Y-86630922D01*
X86022742Y-86729286D01*
X85803574Y-86863592D01*
X85801862Y-86865053D01*
X86371321Y-87434513D01*
X86248969Y-87508131D01*
X86114742Y-87635277D01*
X86010987Y-87788305D01*
X86009764Y-87791373D01*
X85442653Y-87224262D01*
X85441192Y-87225974D01*
X85306886Y-87445142D01*
X85208522Y-87682613D01*
X85148517Y-87932552D01*
X85128350Y-88188800D01*
X83324449Y-88188800D01*
X83304282Y-87932552D01*
X83244277Y-87682613D01*
X83145913Y-87445142D01*
X83011608Y-87225976D01*
X83010145Y-87224262D01*
X82439592Y-87794815D01*
X82394084Y-87708978D01*
X82274391Y-87568065D01*
X82127205Y-87456177D01*
X82081129Y-87434860D01*
X82650936Y-86865053D01*
X82649225Y-86863592D01*
X82430057Y-86729286D01*
X82192586Y-86630922D01*
X81942647Y-86570917D01*
X81686399Y-86550750D01*
X81430152Y-86570917D01*
X81180213Y-86630922D01*
X80942742Y-86729286D01*
X80723574Y-86863592D01*
X80721862Y-86865053D01*
X81291322Y-87434513D01*
X81168969Y-87508131D01*
X81034742Y-87635277D01*
X80930987Y-87788305D01*
X80929764Y-87791373D01*
X80362653Y-87224262D01*
X80361192Y-87225974D01*
X80226885Y-87445144D01*
X80222045Y-87456829D01*
X80177496Y-87512109D01*
X80110132Y-87534529D01*
X80041341Y-87516970D01*
X79992964Y-87465007D01*
X79979637Y-87408690D01*
X79979635Y-87405116D01*
X79977004Y-83294822D01*
X81282400Y-83294822D01*
X81282759Y-83301536D01*
X81288905Y-83358693D01*
X81339954Y-83495562D01*
X81427495Y-83612504D01*
X81544437Y-83700045D01*
X81681306Y-83751094D01*
X81738463Y-83757240D01*
X81745177Y-83757600D01*
X82936400Y-83757600D01*
X82936400Y-82501920D01*
X83021649Y-82534251D01*
X83148060Y-82549600D01*
X83232740Y-82549600D01*
X83359151Y-82534251D01*
X83444400Y-82501920D01*
X83444400Y-83757600D01*
X84635623Y-83757600D01*
X84642336Y-83757240D01*
X84699493Y-83751094D01*
X84836362Y-83700045D01*
X84953304Y-83612504D01*
X85040845Y-83495562D01*
X85091894Y-83358693D01*
X85098040Y-83301536D01*
X85098400Y-83294822D01*
X85098400Y-82103600D01*
X83847643Y-82103600D01*
X83849718Y-82099646D01*
X83890400Y-81934595D01*
X83890400Y-81764605D01*
X83849718Y-81599554D01*
X83847643Y-81595600D01*
X85098400Y-81595600D01*
X85098400Y-80404377D01*
X85098040Y-80397663D01*
X85091894Y-80340506D01*
X85040845Y-80203637D01*
X84953304Y-80086695D01*
X84836362Y-79999154D01*
X84699493Y-79948105D01*
X84642336Y-79941959D01*
X84635623Y-79941600D01*
X83444400Y-79941600D01*
X83444400Y-81197279D01*
X83359151Y-81164949D01*
X83232740Y-81149600D01*
X83148060Y-81149600D01*
X83021649Y-81164949D01*
X82936400Y-81197279D01*
X82936400Y-79941600D01*
X81745177Y-79941600D01*
X81738463Y-79941959D01*
X81681306Y-79948105D01*
X81544437Y-79999154D01*
X81427495Y-80086695D01*
X81339954Y-80203637D01*
X81288905Y-80340506D01*
X81282759Y-80397663D01*
X81282400Y-80404377D01*
X81282400Y-81595600D01*
X82533157Y-81595600D01*
X82531082Y-81599554D01*
X82490400Y-81764605D01*
X82490400Y-81934595D01*
X82531082Y-82099646D01*
X82533157Y-82103600D01*
X81282400Y-82103600D01*
X81282400Y-83294822D01*
X79977004Y-83294822D01*
X79972878Y-76849599D01*
X81277024Y-76849599D01*
X81296500Y-77121905D01*
X81354527Y-77388652D01*
X81354530Y-77388660D01*
X81449933Y-77644445D01*
X81449934Y-77644446D01*
X81580768Y-77884051D01*
X81744369Y-78102596D01*
X81937403Y-78295630D01*
X82152040Y-78456305D01*
X82155951Y-78459233D01*
X82395555Y-78590067D01*
X82651340Y-78685470D01*
X82651343Y-78685470D01*
X82651347Y-78685472D01*
X82861039Y-78731087D01*
X82918098Y-78743500D01*
X83190400Y-78762975D01*
X83462702Y-78743500D01*
X83615343Y-78710294D01*
X83729452Y-78685472D01*
X83729453Y-78685471D01*
X83729460Y-78685470D01*
X83985245Y-78590067D01*
X84224849Y-78459233D01*
X84443394Y-78295632D01*
X84636432Y-78102594D01*
X84781661Y-77908590D01*
X84838496Y-77866044D01*
X84882529Y-77858100D01*
X85008663Y-77858100D01*
X85021012Y-77858706D01*
X85064400Y-77862980D01*
X85064400Y-77862979D01*
X85064401Y-77862980D01*
X85262101Y-77843509D01*
X85262101Y-77843508D01*
X85452204Y-77785841D01*
X85568286Y-77723794D01*
X85627404Y-77692195D01*
X85780968Y-77566168D01*
X85808647Y-77532438D01*
X85816924Y-77523308D01*
X89539228Y-73801005D01*
X89601541Y-73766979D01*
X89628324Y-73764100D01*
X90453669Y-73764100D01*
X90457038Y-73764100D01*
X90517601Y-73757589D01*
X90601498Y-73726296D01*
X90672310Y-73721231D01*
X90734622Y-73755256D01*
X91913513Y-74934147D01*
X91937208Y-74967078D01*
X92007944Y-75109133D01*
X92033497Y-75160450D01*
X92157299Y-75324391D01*
X92309118Y-75462792D01*
X92396043Y-75516614D01*
X92483056Y-75570491D01*
X92483782Y-75570940D01*
X92675345Y-75645151D01*
X92877282Y-75682900D01*
X92877284Y-75682900D01*
X93082716Y-75682900D01*
X93082718Y-75682900D01*
X93284655Y-75645151D01*
X93476218Y-75570940D01*
X93650882Y-75462792D01*
X93802701Y-75324391D01*
X93890479Y-75208153D01*
X93947491Y-75165847D01*
X93999782Y-75158390D01*
X94034387Y-75160800D01*
X94620789Y-74574399D01*
X94034386Y-73987996D01*
X93999836Y-73990416D01*
X93930485Y-73975221D01*
X93890486Y-73940656D01*
X93866954Y-73909494D01*
X93802701Y-73824409D01*
X93650882Y-73686008D01*
X93563954Y-73632184D01*
X93476216Y-73577858D01*
X93392406Y-73545390D01*
X93348828Y-73516994D01*
X91663732Y-71831898D01*
X91655427Y-71822735D01*
X91627769Y-71789033D01*
X91474203Y-71663004D01*
X91299003Y-71569358D01*
X91295323Y-71568242D01*
X91108901Y-71511690D01*
X90898850Y-71491003D01*
X90899246Y-71486975D01*
X90851753Y-71477952D01*
X90808325Y-71441317D01*
X90800683Y-71431108D01*
X90775873Y-71364590D01*
X90790964Y-71295216D01*
X90800683Y-71280092D01*
X90812286Y-71264592D01*
X90869122Y-71222045D01*
X90913155Y-71214100D01*
X95381500Y-71214100D01*
X95449621Y-71234102D01*
X95496114Y-71287758D01*
X95507500Y-71340100D01*
X95507500Y-73406577D01*
X95487498Y-73474698D01*
X95433842Y-73521191D01*
X95363568Y-73531295D01*
X95335985Y-73524069D01*
X95284520Y-73504132D01*
X95082669Y-73466400D01*
X94877331Y-73466400D01*
X94675479Y-73504132D01*
X94484009Y-73578308D01*
X94396995Y-73632184D01*
X94980000Y-74215190D01*
X95041188Y-74276379D01*
X95036080Y-74274400D01*
X94952198Y-74274400D01*
X94869750Y-74289812D01*
X94774390Y-74348857D01*
X94706799Y-74438362D01*
X94676105Y-74546240D01*
X94686454Y-74657921D01*
X94736448Y-74758322D01*
X94819334Y-74833884D01*
X94923920Y-74874400D01*
X95007802Y-74874400D01*
X95046429Y-74867179D01*
X94396994Y-75516614D01*
X94484007Y-75570491D01*
X94675479Y-75644667D01*
X94877331Y-75682400D01*
X95082669Y-75682400D01*
X95284515Y-75644668D01*
X95335981Y-75624730D01*
X95406728Y-75618772D01*
X95469464Y-75652008D01*
X95504273Y-75713886D01*
X95507500Y-75742221D01*
X95507500Y-94204999D01*
X95490619Y-94267999D01*
X95431472Y-94370443D01*
X95372458Y-94552070D01*
X95352496Y-94742000D01*
X95372458Y-94931929D01*
X95431472Y-95113556D01*
X95453957Y-95152500D01*
X95470695Y-95221495D01*
X95447475Y-95288587D01*
X95391668Y-95332474D01*
X95344838Y-95341500D01*
X94511595Y-95341500D01*
X94443474Y-95321498D01*
X94422500Y-95304595D01*
X92644890Y-93526985D01*
X92610864Y-93464673D01*
X92615929Y-93393858D01*
X92624859Y-93374903D01*
X92684527Y-93271556D01*
X92685423Y-93268800D01*
X92704997Y-93208556D01*
X92743542Y-93089928D01*
X92763504Y-92900000D01*
X92743542Y-92710072D01*
X92686899Y-92535744D01*
X92684527Y-92528443D01*
X92589041Y-92363057D01*
X92461252Y-92221133D01*
X92343518Y-92135594D01*
X92306752Y-92108882D01*
X92132288Y-92031206D01*
X91945487Y-91991500D01*
X91754513Y-91991500D01*
X91645249Y-92014725D01*
X91567711Y-92031206D01*
X91461950Y-92078294D01*
X91393408Y-92108811D01*
X91393246Y-92108883D01*
X91238747Y-92221133D01*
X91110958Y-92363057D01*
X91015472Y-92528443D01*
X90956458Y-92710070D01*
X90936496Y-92899999D01*
X90956458Y-93089929D01*
X91015472Y-93271556D01*
X91110958Y-93436942D01*
X91121326Y-93448456D01*
X91182918Y-93516861D01*
X91213634Y-93580866D01*
X91215219Y-93597211D01*
X91216438Y-93635984D01*
X91216500Y-93639943D01*
X91216500Y-93667856D01*
X91216995Y-93671774D01*
X91216997Y-93671806D01*
X91217008Y-93671888D01*
X91217937Y-93683697D01*
X91219326Y-93727892D01*
X91224977Y-93747341D01*
X91228986Y-93766696D01*
X91231525Y-93786794D01*
X91247801Y-93827903D01*
X91251644Y-93839130D01*
X91263980Y-93881590D01*
X91274294Y-93899030D01*
X91282987Y-93916774D01*
X91290021Y-93934538D01*
X91290449Y-93935619D01*
X91316431Y-93971380D01*
X91322948Y-93981301D01*
X91345458Y-94019363D01*
X91359778Y-94033683D01*
X91372618Y-94048716D01*
X91384526Y-94065105D01*
X91384527Y-94065106D01*
X91384528Y-94065107D01*
X91412023Y-94087853D01*
X91418598Y-94093292D01*
X91427378Y-94101282D01*
X93689751Y-96363655D01*
X93702835Y-96379985D01*
X93754666Y-96428657D01*
X93757509Y-96431413D01*
X93777230Y-96451134D01*
X93780351Y-96453555D01*
X93780359Y-96453562D01*
X93780425Y-96453613D01*
X93789445Y-96461317D01*
X93821679Y-96491586D01*
X93839435Y-96501347D01*
X93855951Y-96512196D01*
X93871959Y-96524613D01*
X93912153Y-96542006D01*
X93912525Y-96542167D01*
X93923188Y-96547391D01*
X93961935Y-96568693D01*
X93961937Y-96568693D01*
X93961940Y-96568695D01*
X93981574Y-96573736D01*
X94000259Y-96580134D01*
X94018855Y-96588181D01*
X94062530Y-96595098D01*
X94074125Y-96597498D01*
X94116970Y-96608500D01*
X94137224Y-96608500D01*
X94156934Y-96610051D01*
X94176942Y-96613220D01*
X94176942Y-96613219D01*
X94176943Y-96613220D01*
X94220961Y-96609058D01*
X94232819Y-96608500D01*
X101045147Y-96608500D01*
X101065935Y-96610795D01*
X101068907Y-96610701D01*
X101068909Y-96610702D01*
X101136985Y-96608562D01*
X101140945Y-96608500D01*
X101164894Y-96608500D01*
X101168856Y-96608500D01*
X101172856Y-96607994D01*
X101184699Y-96607061D01*
X101228889Y-96605673D01*
X101248338Y-96600021D01*
X101267698Y-96596012D01*
X101287797Y-96593474D01*
X101328915Y-96577193D01*
X101340117Y-96573357D01*
X101382593Y-96561018D01*
X101400039Y-96550699D01*
X101417780Y-96542009D01*
X101436617Y-96534552D01*
X101472392Y-96508558D01*
X101482303Y-96502048D01*
X101520362Y-96479542D01*
X101534691Y-96465212D01*
X101549719Y-96452377D01*
X101566107Y-96440472D01*
X101594298Y-96406393D01*
X101602268Y-96397634D01*
X102820500Y-95179404D01*
X102882813Y-95145379D01*
X102909596Y-95142500D01*
X102965485Y-95142500D01*
X102965487Y-95142500D01*
X103152288Y-95102794D01*
X103326752Y-95025118D01*
X103481253Y-94912866D01*
X103609040Y-94770944D01*
X103704527Y-94605556D01*
X103763542Y-94423928D01*
X103783504Y-94234000D01*
X103763542Y-94044072D01*
X103716415Y-93899030D01*
X103704527Y-93862443D01*
X103609041Y-93697057D01*
X103501488Y-93577607D01*
X103481253Y-93555134D01*
X103480530Y-93554609D01*
X103401982Y-93497540D01*
X103326752Y-93442882D01*
X103152288Y-93365206D01*
X102965487Y-93325500D01*
X102774513Y-93325500D01*
X102698647Y-93341626D01*
X102587711Y-93365206D01*
X102413246Y-93442883D01*
X102258747Y-93555133D01*
X102130958Y-93697057D01*
X102035472Y-93862443D01*
X101976458Y-94044070D01*
X101968604Y-94118800D01*
X101960363Y-94197213D01*
X101959093Y-94209292D01*
X101932080Y-94274949D01*
X101922878Y-94285216D01*
X100903500Y-95304595D01*
X100841188Y-95338620D01*
X100814405Y-95341500D01*
X97187162Y-95341500D01*
X97119041Y-95321498D01*
X97072548Y-95267842D01*
X97062444Y-95197568D01*
X97078043Y-95152500D01*
X97100527Y-95113556D01*
X97137726Y-94999070D01*
X97159542Y-94931928D01*
X97179504Y-94742000D01*
X97159542Y-94552072D01*
X97128931Y-94457862D01*
X97100527Y-94370443D01*
X97041381Y-94267999D01*
X97024500Y-94204999D01*
X97024500Y-91439999D01*
X97511496Y-91439999D01*
X97531458Y-91629929D01*
X97590472Y-91811556D01*
X97685958Y-91976942D01*
X97751752Y-92050014D01*
X97813747Y-92118866D01*
X97968248Y-92231118D01*
X98142712Y-92308794D01*
X98329513Y-92348500D01*
X98329515Y-92348500D01*
X98520485Y-92348500D01*
X98520487Y-92348500D01*
X98707288Y-92308794D01*
X98881752Y-92231118D01*
X99036253Y-92118866D01*
X99164040Y-91976944D01*
X99259527Y-91811556D01*
X99314388Y-91642711D01*
X99345124Y-91592555D01*
X101162288Y-89775391D01*
X101176135Y-89763425D01*
X101195569Y-89748958D01*
X101227732Y-89710627D01*
X101235171Y-89702509D01*
X101239091Y-89698590D01*
X101258581Y-89673939D01*
X101260745Y-89671283D01*
X101309543Y-89613129D01*
X101309546Y-89613122D01*
X101310406Y-89612098D01*
X101320914Y-89595603D01*
X101321476Y-89594397D01*
X101321478Y-89594395D01*
X101353533Y-89525648D01*
X101355083Y-89522447D01*
X101389120Y-89454677D01*
X101389121Y-89454672D01*
X101389718Y-89453484D01*
X101396142Y-89435006D01*
X101396412Y-89433698D01*
X101396413Y-89433696D01*
X101411762Y-89359355D01*
X101412512Y-89355973D01*
X101430011Y-89282145D01*
X101430011Y-89282140D01*
X101430318Y-89280845D01*
X101432307Y-89261377D01*
X101432268Y-89260049D01*
X101432269Y-89260047D01*
X101430064Y-89184263D01*
X101430011Y-89180599D01*
X101430011Y-88431999D01*
X102022496Y-88431999D01*
X102042458Y-88621929D01*
X102101472Y-88803556D01*
X102196958Y-88968942D01*
X102263601Y-89042956D01*
X102324747Y-89110866D01*
X102479248Y-89223118D01*
X102653712Y-89300794D01*
X102840513Y-89340500D01*
X102840515Y-89340500D01*
X103031485Y-89340500D01*
X103031487Y-89340500D01*
X103218288Y-89300794D01*
X103392752Y-89223118D01*
X103404527Y-89214562D01*
X103471392Y-89190706D01*
X103478586Y-89190500D01*
X103922820Y-89190500D01*
X103990941Y-89210502D01*
X104011915Y-89227405D01*
X108112283Y-93327773D01*
X108124251Y-93341620D01*
X108138722Y-93361058D01*
X108177061Y-93393228D01*
X108185165Y-93400655D01*
X108189091Y-93404581D01*
X108191971Y-93406858D01*
X108213646Y-93423997D01*
X108216487Y-93426311D01*
X108275568Y-93475885D01*
X108292081Y-93486405D01*
X108361977Y-93518998D01*
X108365269Y-93520591D01*
X108433003Y-93554609D01*
X108433005Y-93554609D01*
X108434199Y-93555209D01*
X108452681Y-93561633D01*
X108453982Y-93561901D01*
X108453985Y-93561903D01*
X108528269Y-93577241D01*
X108531821Y-93578029D01*
X108605535Y-93595500D01*
X108605537Y-93595500D01*
X108606832Y-93595807D01*
X108626305Y-93597797D01*
X108627630Y-93597758D01*
X108627633Y-93597759D01*
X108701668Y-93595604D01*
X108703450Y-93595553D01*
X108707114Y-93595500D01*
X110886633Y-93595500D01*
X110909111Y-93597796D01*
X110910438Y-93597757D01*
X110910442Y-93597758D01*
X110986239Y-93595552D01*
X110989903Y-93595500D01*
X114290814Y-93595500D01*
X114358935Y-93615502D01*
X114364848Y-93619545D01*
X114376648Y-93628118D01*
X114551112Y-93705794D01*
X114737913Y-93745500D01*
X114737915Y-93745500D01*
X114928885Y-93745500D01*
X114928887Y-93745500D01*
X115115688Y-93705794D01*
X115290152Y-93628118D01*
X115444653Y-93515866D01*
X115572440Y-93373944D01*
X115667927Y-93208556D01*
X115726942Y-93026928D01*
X115746904Y-92837000D01*
X115726942Y-92647072D01*
X115688397Y-92528443D01*
X115667927Y-92465443D01*
X115572441Y-92300057D01*
X115474925Y-92191755D01*
X115444653Y-92158134D01*
X115413629Y-92135594D01*
X115341796Y-92083404D01*
X115290152Y-92045882D01*
X115115688Y-91968206D01*
X114928887Y-91928500D01*
X114737913Y-91928500D01*
X114660038Y-91945053D01*
X114551111Y-91968206D01*
X114482396Y-91998800D01*
X114376648Y-92045882D01*
X114364872Y-92054437D01*
X114298008Y-92078294D01*
X114290814Y-92078500D01*
X111343371Y-92078500D01*
X111275250Y-92058498D01*
X111254276Y-92041595D01*
X110595126Y-91382445D01*
X110564388Y-91332286D01*
X110509527Y-91163444D01*
X110414041Y-90998057D01*
X110286252Y-90856133D01*
X110131753Y-90743883D01*
X110131752Y-90743882D01*
X109957288Y-90666206D01*
X109770487Y-90626500D01*
X109579513Y-90626500D01*
X109474215Y-90648882D01*
X109392711Y-90666206D01*
X109218246Y-90743883D01*
X109063747Y-90856133D01*
X108935958Y-90998057D01*
X108840472Y-91163443D01*
X108781458Y-91345070D01*
X108760897Y-91540696D01*
X108733883Y-91606353D01*
X108675662Y-91646982D01*
X108604717Y-91649685D01*
X108546492Y-91616620D01*
X104871100Y-87941228D01*
X104859128Y-87927375D01*
X104844661Y-87907943D01*
X104806318Y-87875769D01*
X104798215Y-87868343D01*
X104796885Y-87867013D01*
X104794292Y-87864420D01*
X104791426Y-87862153D01*
X104791415Y-87862144D01*
X104769721Y-87844991D01*
X104766899Y-87842692D01*
X104708831Y-87793968D01*
X104708830Y-87793967D01*
X104707812Y-87793113D01*
X104691301Y-87782594D01*
X104621396Y-87749996D01*
X104618100Y-87748401D01*
X104549187Y-87713792D01*
X104530695Y-87707365D01*
X104455133Y-87691762D01*
X104451558Y-87690969D01*
X104376547Y-87673191D01*
X104357076Y-87671202D01*
X104279932Y-87673447D01*
X104276268Y-87673500D01*
X103478586Y-87673500D01*
X103410465Y-87653498D01*
X103404551Y-87649454D01*
X103392752Y-87640882D01*
X103218288Y-87563206D01*
X103031487Y-87523500D01*
X102840513Y-87523500D01*
X102715979Y-87549970D01*
X102653711Y-87563206D01*
X102479246Y-87640883D01*
X102324747Y-87753133D01*
X102196958Y-87895057D01*
X102101472Y-88060443D01*
X102042458Y-88242070D01*
X102022496Y-88431999D01*
X101430011Y-88431999D01*
X101430011Y-86248452D01*
X101431341Y-86230191D01*
X101431535Y-86228866D01*
X101434852Y-86206222D01*
X101430490Y-86156364D01*
X101430011Y-86145383D01*
X101430011Y-86143498D01*
X101430011Y-86139831D01*
X101426377Y-86108745D01*
X101426007Y-86105133D01*
X101419398Y-86029585D01*
X101419396Y-86029580D01*
X101419281Y-86028261D01*
X101415045Y-86009149D01*
X101414590Y-86007898D01*
X101388658Y-85936652D01*
X101387463Y-85933214D01*
X101383600Y-85921556D01*
X101363625Y-85861273D01*
X101363623Y-85861271D01*
X101363203Y-85860001D01*
X101354681Y-85842397D01*
X101353946Y-85841279D01*
X101312267Y-85777911D01*
X101310323Y-85774857D01*
X101269841Y-85709224D01*
X101257475Y-85694045D01*
X101201336Y-85641080D01*
X101198708Y-85638527D01*
X100957626Y-85397445D01*
X100926888Y-85347286D01*
X100872027Y-85178444D01*
X100776541Y-85013057D01*
X100648752Y-84871133D01*
X100494253Y-84758883D01*
X100494252Y-84758882D01*
X100319788Y-84681206D01*
X100132987Y-84641500D01*
X99942013Y-84641500D01*
X99817478Y-84667970D01*
X99755211Y-84681206D01*
X99580746Y-84758883D01*
X99426247Y-84871133D01*
X99298458Y-85013057D01*
X99202972Y-85178443D01*
X99143958Y-85360070D01*
X99123996Y-85549999D01*
X99143958Y-85739929D01*
X99202972Y-85921556D01*
X99298458Y-86086942D01*
X99349381Y-86143498D01*
X99426247Y-86228866D01*
X99580748Y-86341118D01*
X99755212Y-86418794D01*
X99813209Y-86431121D01*
X99875681Y-86464850D01*
X99910003Y-86526999D01*
X99913011Y-86554368D01*
X99913011Y-88827117D01*
X99893009Y-88895238D01*
X99876106Y-88916212D01*
X98268667Y-90523650D01*
X98206355Y-90557676D01*
X98205771Y-90557801D01*
X98142714Y-90571205D01*
X97968246Y-90648883D01*
X97813747Y-90761133D01*
X97685958Y-90903057D01*
X97590472Y-91068443D01*
X97531458Y-91250070D01*
X97511496Y-91439999D01*
X97024500Y-91439999D01*
X97024500Y-71663453D01*
X97044502Y-71595332D01*
X97098158Y-71548839D01*
X97168432Y-71538735D01*
X97233012Y-71568229D01*
X97239595Y-71574358D01*
X101820595Y-76155358D01*
X101854621Y-76217670D01*
X101857500Y-76244453D01*
X101857500Y-82163641D01*
X101856170Y-82181902D01*
X101852659Y-82205871D01*
X101857020Y-82255733D01*
X101857499Y-82266688D01*
X101857499Y-82268600D01*
X101857499Y-82268611D01*
X101857500Y-82272262D01*
X101857922Y-82275878D01*
X101857924Y-82275901D01*
X101861135Y-82303373D01*
X101861507Y-82307014D01*
X101868228Y-82383826D01*
X101872469Y-82402955D01*
X101898846Y-82475424D01*
X101900049Y-82478886D01*
X101924304Y-82552082D01*
X101932837Y-82569709D01*
X101975232Y-82634166D01*
X101977171Y-82637209D01*
X102016970Y-82701733D01*
X102017674Y-82702874D01*
X102030038Y-82718049D01*
X102086155Y-82770993D01*
X102088784Y-82773547D01*
X106420010Y-87104773D01*
X106431978Y-87118620D01*
X106440590Y-87130188D01*
X106446449Y-87138058D01*
X106484788Y-87170228D01*
X106492892Y-87177655D01*
X106496818Y-87181581D01*
X106499698Y-87183858D01*
X106521373Y-87200997D01*
X106524214Y-87203311D01*
X106583295Y-87252885D01*
X106599808Y-87263405D01*
X106669704Y-87295998D01*
X106672996Y-87297591D01*
X106740730Y-87331609D01*
X106740732Y-87331609D01*
X106741926Y-87332209D01*
X106760408Y-87338633D01*
X106761709Y-87338901D01*
X106761712Y-87338903D01*
X106835996Y-87354241D01*
X106839548Y-87355029D01*
X106913262Y-87372500D01*
X106913264Y-87372500D01*
X106914559Y-87372807D01*
X106934032Y-87374797D01*
X106935357Y-87374758D01*
X106935360Y-87374759D01*
X107009395Y-87372604D01*
X107011177Y-87372553D01*
X107014841Y-87372500D01*
X112487414Y-87372500D01*
X112555535Y-87392502D01*
X112561448Y-87396545D01*
X112573248Y-87405118D01*
X112747712Y-87482794D01*
X112934513Y-87522500D01*
X112934515Y-87522500D01*
X113125485Y-87522500D01*
X113125487Y-87522500D01*
X113312288Y-87482794D01*
X113486752Y-87405118D01*
X113641253Y-87292866D01*
X113769040Y-87150944D01*
X113864527Y-86985556D01*
X113923542Y-86803928D01*
X113943504Y-86614000D01*
X113923542Y-86424072D01*
X113864527Y-86242444D01*
X113864527Y-86242443D01*
X113769041Y-86077057D01*
X113641252Y-85935133D01*
X113537842Y-85860001D01*
X113486752Y-85822882D01*
X113312288Y-85745206D01*
X113125487Y-85705500D01*
X112934513Y-85705500D01*
X112809979Y-85731970D01*
X112747711Y-85745206D01*
X112674165Y-85777951D01*
X112573248Y-85822882D01*
X112561472Y-85831437D01*
X112494608Y-85855294D01*
X112487414Y-85855500D01*
X107368289Y-85855500D01*
X107300168Y-85835498D01*
X107279194Y-85818595D01*
X103411405Y-81950806D01*
X103377379Y-81888494D01*
X103374500Y-81861711D01*
X103374500Y-79050000D01*
X104023996Y-79050000D01*
X104043958Y-79239929D01*
X104102972Y-79421556D01*
X104198458Y-79586942D01*
X104198460Y-79586944D01*
X104326247Y-79728866D01*
X104480748Y-79841118D01*
X104655212Y-79918794D01*
X104842013Y-79958500D01*
X104842015Y-79958500D01*
X105032985Y-79958500D01*
X105032987Y-79958500D01*
X105219788Y-79918794D01*
X105394252Y-79841118D01*
X105548753Y-79728866D01*
X105552064Y-79725188D01*
X105612512Y-79687949D01*
X105645700Y-79683500D01*
X115537574Y-79683500D01*
X115605695Y-79703502D01*
X115626669Y-79720405D01*
X122140008Y-86233745D01*
X122170746Y-86283903D01*
X122215473Y-86421557D01*
X122310958Y-86586942D01*
X122310960Y-86586944D01*
X122438747Y-86728866D01*
X122593248Y-86841118D01*
X122767712Y-86918794D01*
X122954513Y-86958500D01*
X123010406Y-86958500D01*
X123078527Y-86978502D01*
X123099501Y-86995405D01*
X124195995Y-88091898D01*
X124230020Y-88154210D01*
X124232900Y-88180993D01*
X124232900Y-89340473D01*
X124212898Y-89408594D01*
X124200537Y-89424783D01*
X124127358Y-89506057D01*
X124031872Y-89671443D01*
X123972858Y-89853070D01*
X123954215Y-90030453D01*
X123952896Y-90043000D01*
X123957845Y-90090083D01*
X123972858Y-90232929D01*
X124031872Y-90414556D01*
X124127358Y-90579942D01*
X124127360Y-90579944D01*
X124200536Y-90661214D01*
X124231253Y-90725220D01*
X124232900Y-90745524D01*
X124232899Y-91282805D01*
X124212897Y-91350926D01*
X124159241Y-91397419D01*
X124088967Y-91407522D01*
X124024386Y-91378029D01*
X124017804Y-91371900D01*
X123502038Y-90856134D01*
X122841721Y-90195816D01*
X122807695Y-90133504D01*
X122805508Y-90119909D01*
X122788142Y-89954672D01*
X122755129Y-89853070D01*
X122729127Y-89773043D01*
X122633641Y-89607657D01*
X122505852Y-89465733D01*
X122359580Y-89359460D01*
X122351352Y-89353482D01*
X122176888Y-89275806D01*
X121990087Y-89236100D01*
X121799113Y-89236100D01*
X121686452Y-89260047D01*
X121612311Y-89275806D01*
X121437846Y-89353483D01*
X121283347Y-89465733D01*
X121155558Y-89607657D01*
X121060072Y-89773043D01*
X121001058Y-89954670D01*
X120983692Y-90119894D01*
X120956678Y-90185550D01*
X120947477Y-90195817D01*
X113913700Y-97229595D01*
X113851388Y-97263621D01*
X113824605Y-97266500D01*
X111870700Y-97266500D01*
X111802579Y-97246498D01*
X111777065Y-97224812D01*
X111773753Y-97221133D01*
X111619253Y-97108883D01*
X111619252Y-97108882D01*
X111444788Y-97031206D01*
X111257987Y-96991500D01*
X111067013Y-96991500D01*
X110942478Y-97017970D01*
X110880211Y-97031206D01*
X110705746Y-97108883D01*
X110551247Y-97221133D01*
X110423458Y-97363057D01*
X110327972Y-97528443D01*
X110268958Y-97710070D01*
X110248996Y-97900000D01*
X110268958Y-98089929D01*
X110327972Y-98271556D01*
X110423458Y-98436942D01*
X110423460Y-98436944D01*
X110551247Y-98578866D01*
X110705748Y-98691118D01*
X110880212Y-98768794D01*
X111067013Y-98808500D01*
X111067015Y-98808500D01*
X111257985Y-98808500D01*
X111257987Y-98808500D01*
X111444788Y-98768794D01*
X111619252Y-98691118D01*
X111773753Y-98578866D01*
X111777064Y-98575188D01*
X111837512Y-98537949D01*
X111870700Y-98533500D01*
X114055347Y-98533500D01*
X114076135Y-98535795D01*
X114079107Y-98535701D01*
X114079109Y-98535702D01*
X114147185Y-98533562D01*
X114151145Y-98533500D01*
X114175094Y-98533500D01*
X114179056Y-98533500D01*
X114183056Y-98532994D01*
X114194899Y-98532061D01*
X114239089Y-98530673D01*
X114258538Y-98525021D01*
X114277898Y-98521012D01*
X114297997Y-98518474D01*
X114339115Y-98502193D01*
X114350317Y-98498357D01*
X114392793Y-98486018D01*
X114410239Y-98475699D01*
X114427980Y-98467009D01*
X114446817Y-98459552D01*
X114482592Y-98433558D01*
X114492503Y-98427048D01*
X114530562Y-98404542D01*
X114544891Y-98390212D01*
X114559919Y-98377377D01*
X114576307Y-98365472D01*
X114604503Y-98331386D01*
X114612472Y-98322630D01*
X121805507Y-91129597D01*
X121867817Y-91095573D01*
X121938633Y-91100638D01*
X121983694Y-91129598D01*
X123438370Y-92584275D01*
X124804265Y-93950170D01*
X124817344Y-93966494D01*
X124869161Y-94015153D01*
X124872003Y-94017908D01*
X124891741Y-94037646D01*
X124894871Y-94040074D01*
X124894943Y-94040130D01*
X124903953Y-94047825D01*
X124936190Y-94078097D01*
X124953937Y-94087853D01*
X124970461Y-94098707D01*
X124986470Y-94111125D01*
X125027053Y-94128686D01*
X125037704Y-94133904D01*
X125076451Y-94155206D01*
X125096071Y-94160243D01*
X125114778Y-94166648D01*
X125121391Y-94169509D01*
X125133365Y-94174692D01*
X125144016Y-94176378D01*
X125177041Y-94181609D01*
X125188636Y-94184009D01*
X125231481Y-94195011D01*
X125251735Y-94195011D01*
X125271445Y-94196562D01*
X125291453Y-94199731D01*
X125291453Y-94199730D01*
X125291454Y-94199731D01*
X125335472Y-94195569D01*
X125347330Y-94195011D01*
X129315836Y-94195011D01*
X129336624Y-94197306D01*
X129339596Y-94197212D01*
X129339598Y-94197213D01*
X129407674Y-94195073D01*
X129411634Y-94195011D01*
X129435583Y-94195011D01*
X129439545Y-94195011D01*
X129443545Y-94194505D01*
X129455388Y-94193572D01*
X129499578Y-94192184D01*
X129519027Y-94186532D01*
X129538387Y-94182523D01*
X129558486Y-94179985D01*
X129599604Y-94163704D01*
X129610806Y-94159868D01*
X129653282Y-94147529D01*
X129670728Y-94137210D01*
X129688469Y-94128520D01*
X129707306Y-94121063D01*
X129743081Y-94095069D01*
X129752992Y-94088559D01*
X129791051Y-94066053D01*
X129805380Y-94051723D01*
X129820408Y-94038888D01*
X129836796Y-94026983D01*
X129864987Y-93992904D01*
X129872957Y-93984145D01*
X130912900Y-92944204D01*
X130975213Y-92910179D01*
X131001996Y-92907300D01*
X131057885Y-92907300D01*
X131057887Y-92907300D01*
X131244688Y-92867594D01*
X131419152Y-92789918D01*
X131573653Y-92677666D01*
X131701440Y-92535744D01*
X131796927Y-92370356D01*
X131855942Y-92188728D01*
X131875904Y-91998800D01*
X131855942Y-91808872D01*
X131813949Y-91679634D01*
X131811922Y-91608669D01*
X131848585Y-91547871D01*
X131912297Y-91516545D01*
X131933783Y-91514700D01*
X131968605Y-91514700D01*
X132036726Y-91534702D01*
X132057700Y-91551605D01*
X132552594Y-92046499D01*
X132586620Y-92108811D01*
X132589499Y-92135594D01*
X132589499Y-94486474D01*
X132569497Y-94554595D01*
X132557136Y-94570784D01*
X132483958Y-94652057D01*
X132388472Y-94817443D01*
X132329458Y-94999070D01*
X132309496Y-95189000D01*
X132329458Y-95378929D01*
X132388472Y-95560556D01*
X132483958Y-95725942D01*
X132483960Y-95725944D01*
X132611747Y-95867866D01*
X132766248Y-95980118D01*
X132940712Y-96057794D01*
X133127513Y-96097500D01*
X133127515Y-96097500D01*
X133318485Y-96097500D01*
X133318487Y-96097500D01*
X133505288Y-96057794D01*
X133679752Y-95980118D01*
X133834253Y-95867866D01*
X133962040Y-95725944D01*
X134057527Y-95560556D01*
X134116542Y-95378928D01*
X134136504Y-95189000D01*
X134116542Y-94999072D01*
X134057527Y-94817444D01*
X134057527Y-94817443D01*
X133962041Y-94652057D01*
X133888863Y-94570783D01*
X133858146Y-94506775D01*
X133856500Y-94486473D01*
X133856500Y-91904852D01*
X133858795Y-91884061D01*
X133856562Y-91813000D01*
X133856500Y-91809042D01*
X133856500Y-91785108D01*
X133856500Y-91781144D01*
X133855995Y-91777152D01*
X133855062Y-91765306D01*
X133853674Y-91721111D01*
X133848020Y-91701652D01*
X133844013Y-91682306D01*
X133841474Y-91662203D01*
X133825194Y-91621086D01*
X133821353Y-91609866D01*
X133809018Y-91567407D01*
X133798706Y-91549970D01*
X133790008Y-91532215D01*
X133782552Y-91513383D01*
X133756565Y-91477616D01*
X133750047Y-91467693D01*
X133742415Y-91454788D01*
X133727542Y-91429638D01*
X133713212Y-91415308D01*
X133700378Y-91400281D01*
X133688472Y-91383893D01*
X133686722Y-91382445D01*
X133654394Y-91355700D01*
X133645616Y-91347712D01*
X132790448Y-90492544D01*
X132777371Y-90476221D01*
X132725547Y-90427555D01*
X132722705Y-90424800D01*
X132705774Y-90407869D01*
X132702970Y-90405065D01*
X132699775Y-90402586D01*
X132690754Y-90394882D01*
X132658520Y-90364613D01*
X132640767Y-90354853D01*
X132624241Y-90343997D01*
X132608241Y-90331586D01*
X132567666Y-90314028D01*
X132557004Y-90308804D01*
X132518263Y-90287505D01*
X132504513Y-90283975D01*
X132498637Y-90282466D01*
X132479931Y-90276062D01*
X132461345Y-90268019D01*
X132417675Y-90261102D01*
X132406053Y-90258695D01*
X132385652Y-90253457D01*
X132363230Y-90247700D01*
X132363229Y-90247700D01*
X132342976Y-90247700D01*
X132323266Y-90246149D01*
X132303257Y-90242979D01*
X132259239Y-90247141D01*
X132247381Y-90247700D01*
X131467400Y-90247700D01*
X131399279Y-90227698D01*
X131373765Y-90206012D01*
X131370453Y-90202333D01*
X131215953Y-90090083D01*
X131215952Y-90090082D01*
X131041488Y-90012406D01*
X130854687Y-89972700D01*
X130663713Y-89972700D01*
X130539178Y-89999170D01*
X130476911Y-90012406D01*
X130302446Y-90090083D01*
X130258467Y-90122036D01*
X130191599Y-90145895D01*
X130184406Y-90146100D01*
X127939865Y-90146100D01*
X127871744Y-90126098D01*
X127825251Y-90072442D01*
X127815147Y-90002168D01*
X127830746Y-89957100D01*
X127859927Y-89906556D01*
X127877306Y-89853070D01*
X127918942Y-89724928D01*
X127938904Y-89535000D01*
X127918942Y-89345072D01*
X127880709Y-89227405D01*
X127859927Y-89163443D01*
X127764441Y-88998057D01*
X127636652Y-88856133D01*
X127482153Y-88743883D01*
X127482152Y-88743882D01*
X127307688Y-88666206D01*
X127120887Y-88626500D01*
X127120885Y-88626500D01*
X127064995Y-88626500D01*
X126996874Y-88606498D01*
X126975900Y-88589595D01*
X126945894Y-88559589D01*
X126911868Y-88497277D01*
X126908989Y-88470494D01*
X126908989Y-86644035D01*
X126928991Y-86575914D01*
X126941347Y-86559731D01*
X127014529Y-86478455D01*
X127110016Y-86313067D01*
X127169031Y-86131439D01*
X127188993Y-85941511D01*
X127169031Y-85751583D01*
X127133126Y-85641080D01*
X127110016Y-85569954D01*
X127014530Y-85404568D01*
X126886741Y-85262644D01*
X126732242Y-85150394D01*
X126732241Y-85150393D01*
X126557777Y-85072717D01*
X126370976Y-85033011D01*
X126180002Y-85033011D01*
X125993201Y-85072717D01*
X125993200Y-85072717D01*
X125993197Y-85072718D01*
X125970882Y-85082653D01*
X125900515Y-85092084D01*
X125836219Y-85061975D01*
X125830543Y-85056639D01*
X122635244Y-81861339D01*
X122622171Y-81845021D01*
X122570348Y-81796356D01*
X122567506Y-81793601D01*
X122550574Y-81776669D01*
X122547770Y-81773865D01*
X122544575Y-81771386D01*
X122535554Y-81763682D01*
X122503320Y-81733413D01*
X122485567Y-81723653D01*
X122469041Y-81712797D01*
X122453041Y-81700386D01*
X122412466Y-81682828D01*
X122401804Y-81677604D01*
X122363063Y-81656305D01*
X122349313Y-81652775D01*
X122343437Y-81651266D01*
X122324731Y-81644862D01*
X122306145Y-81636819D01*
X122262475Y-81629902D01*
X122250853Y-81627495D01*
X122208030Y-81616500D01*
X122208029Y-81616500D01*
X122187776Y-81616500D01*
X122168066Y-81614949D01*
X122148057Y-81611779D01*
X122104039Y-81615941D01*
X122092181Y-81616500D01*
X121420700Y-81616500D01*
X121352579Y-81596498D01*
X121327065Y-81574812D01*
X121323753Y-81571133D01*
X121169251Y-81458881D01*
X121147133Y-81449034D01*
X121144216Y-81447735D01*
X121090120Y-81401757D01*
X121069470Y-81333830D01*
X121088822Y-81265522D01*
X121106365Y-81243538D01*
X121372659Y-80977244D01*
X121388980Y-80964169D01*
X121391014Y-80962001D01*
X121391018Y-80962000D01*
X121437661Y-80912328D01*
X121440353Y-80909550D01*
X121460135Y-80889770D01*
X121462613Y-80886574D01*
X121470308Y-80877563D01*
X121500586Y-80845321D01*
X121510342Y-80827571D01*
X121521195Y-80811050D01*
X121533614Y-80795041D01*
X121551175Y-80754454D01*
X121556388Y-80743813D01*
X121577695Y-80705060D01*
X121582733Y-80685434D01*
X121589137Y-80666732D01*
X121594522Y-80654288D01*
X121597181Y-80648145D01*
X121604096Y-80604481D01*
X121606504Y-80592853D01*
X121617500Y-80550029D01*
X121617500Y-80529775D01*
X121619051Y-80510063D01*
X121620552Y-80500587D01*
X121622220Y-80490057D01*
X121618056Y-80446016D01*
X121617499Y-80434200D01*
X121617499Y-77430524D01*
X121637501Y-77362404D01*
X121649863Y-77346214D01*
X121649864Y-77346213D01*
X121723040Y-77264944D01*
X121818527Y-77099556D01*
X121877542Y-76917928D01*
X121884156Y-76854999D01*
X122737496Y-76854999D01*
X122757458Y-77044929D01*
X122816472Y-77226556D01*
X122911958Y-77391942D01*
X122911960Y-77391944D01*
X122985136Y-77473214D01*
X123015853Y-77537220D01*
X123017500Y-77557524D01*
X123017500Y-80316842D01*
X123015204Y-80337630D01*
X123017438Y-80408679D01*
X123017500Y-80412638D01*
X123017500Y-80440551D01*
X123017995Y-80444469D01*
X123017997Y-80444501D01*
X123018008Y-80444583D01*
X123018937Y-80456392D01*
X123020326Y-80500587D01*
X123025977Y-80520036D01*
X123029986Y-80539391D01*
X123032525Y-80559489D01*
X123032525Y-80559491D01*
X123032526Y-80559492D01*
X123045734Y-80592853D01*
X123048801Y-80600598D01*
X123052644Y-80611825D01*
X123064980Y-80654285D01*
X123075294Y-80671725D01*
X123083987Y-80689469D01*
X123090161Y-80705061D01*
X123091449Y-80708314D01*
X123117431Y-80744075D01*
X123123948Y-80753996D01*
X123146458Y-80792058D01*
X123160778Y-80806378D01*
X123173618Y-80821411D01*
X123185526Y-80837800D01*
X123219598Y-80865987D01*
X123228378Y-80873977D01*
X130063394Y-87708994D01*
X130097420Y-87771306D01*
X130100299Y-87798089D01*
X130100299Y-87968874D01*
X130080297Y-88036995D01*
X130067936Y-88053184D01*
X129994758Y-88134457D01*
X129899272Y-88299843D01*
X129840258Y-88481470D01*
X129820296Y-88671400D01*
X129840258Y-88861329D01*
X129899272Y-89042956D01*
X129994758Y-89208342D01*
X130117870Y-89345072D01*
X130122547Y-89350266D01*
X130277048Y-89462518D01*
X130451512Y-89540194D01*
X130638313Y-89579900D01*
X130638315Y-89579900D01*
X130829285Y-89579900D01*
X130829287Y-89579900D01*
X131016088Y-89540194D01*
X131190552Y-89462518D01*
X131345053Y-89350266D01*
X131472840Y-89208344D01*
X131568327Y-89042956D01*
X131627342Y-88861328D01*
X131647304Y-88671400D01*
X131627342Y-88481472D01*
X131568327Y-88299844D01*
X131568327Y-88299843D01*
X131472839Y-88134454D01*
X131399663Y-88053183D01*
X131368945Y-87989176D01*
X131367299Y-87968884D01*
X131367299Y-87567352D01*
X131369595Y-87546565D01*
X131369501Y-87543588D01*
X131369502Y-87543586D01*
X131367362Y-87475495D01*
X131367300Y-87471537D01*
X131367300Y-87447603D01*
X131367300Y-87443639D01*
X131366795Y-87439647D01*
X131365862Y-87427801D01*
X131365391Y-87412812D01*
X131364474Y-87383606D01*
X131358820Y-87364147D01*
X131354813Y-87344801D01*
X131352274Y-87324698D01*
X131335994Y-87283581D01*
X131332153Y-87272361D01*
X131319818Y-87229902D01*
X131309506Y-87212465D01*
X131300808Y-87194710D01*
X131293352Y-87175878D01*
X131267365Y-87140111D01*
X131260847Y-87130188D01*
X131238342Y-87092133D01*
X131224012Y-87077803D01*
X131211178Y-87062776D01*
X131199272Y-87046388D01*
X131199271Y-87046387D01*
X131165194Y-87018195D01*
X131156416Y-87010207D01*
X126239009Y-82092799D01*
X130861696Y-82092799D01*
X130881658Y-82282729D01*
X130940672Y-82464356D01*
X131036158Y-82629742D01*
X131100979Y-82701733D01*
X131163947Y-82771666D01*
X131318448Y-82883918D01*
X131492912Y-82961594D01*
X131679713Y-83001300D01*
X131679715Y-83001300D01*
X131870685Y-83001300D01*
X131870687Y-83001300D01*
X132057488Y-82961594D01*
X132231952Y-82883918D01*
X132386453Y-82771666D01*
X132514240Y-82629744D01*
X132609727Y-82464356D01*
X132668742Y-82282728D01*
X132688704Y-82092800D01*
X132668742Y-81902872D01*
X132623516Y-81763682D01*
X132609727Y-81721243D01*
X132514241Y-81555857D01*
X132386452Y-81413933D01*
X132284933Y-81340175D01*
X132231952Y-81301682D01*
X132057488Y-81224006D01*
X131870687Y-81184300D01*
X131679713Y-81184300D01*
X131555179Y-81210770D01*
X131492911Y-81224006D01*
X131318446Y-81301683D01*
X131163947Y-81413933D01*
X131036158Y-81555857D01*
X130940672Y-81721243D01*
X130881658Y-81902870D01*
X130861696Y-82092799D01*
X126239009Y-82092799D01*
X124321404Y-80175194D01*
X124287378Y-80112882D01*
X124284499Y-80086108D01*
X124284499Y-77557524D01*
X124304501Y-77489404D01*
X124316863Y-77473214D01*
X124316864Y-77473213D01*
X124390040Y-77391944D01*
X124485527Y-77226556D01*
X124544542Y-77044928D01*
X124564504Y-76855000D01*
X124544542Y-76665072D01*
X124485527Y-76483444D01*
X124485527Y-76483443D01*
X124390041Y-76318057D01*
X124262252Y-76176133D01*
X124107753Y-76063883D01*
X124107752Y-76063882D01*
X123933288Y-75986206D01*
X123746487Y-75946500D01*
X123555513Y-75946500D01*
X123430979Y-75972970D01*
X123368711Y-75986206D01*
X123194246Y-76063883D01*
X123039747Y-76176133D01*
X122911958Y-76318057D01*
X122816472Y-76483443D01*
X122757458Y-76665070D01*
X122737496Y-76854999D01*
X121884156Y-76854999D01*
X121897504Y-76728000D01*
X121877542Y-76538072D01*
X121818527Y-76356444D01*
X121818527Y-76356443D01*
X121723041Y-76191057D01*
X121595252Y-76049133D01*
X121440753Y-75936883D01*
X121440752Y-75936882D01*
X121266288Y-75859206D01*
X121079487Y-75819500D01*
X120888513Y-75819500D01*
X120768734Y-75844960D01*
X120701711Y-75859206D01*
X120527246Y-75936883D01*
X120372747Y-76049133D01*
X120244958Y-76191057D01*
X120149472Y-76356443D01*
X120090458Y-76538070D01*
X120070496Y-76728000D01*
X120090458Y-76917929D01*
X120149472Y-77099556D01*
X120244958Y-77264942D01*
X120244960Y-77264944D01*
X120318136Y-77346214D01*
X120348853Y-77410220D01*
X120350500Y-77430524D01*
X120350500Y-80155404D01*
X120330498Y-80223525D01*
X120313595Y-80244499D01*
X119261336Y-81296757D01*
X119245016Y-81309833D01*
X119219191Y-81337334D01*
X119157978Y-81373299D01*
X119087038Y-81370460D01*
X119038247Y-81340175D01*
X116359412Y-78661339D01*
X116346339Y-78645021D01*
X116294516Y-78596356D01*
X116291674Y-78593601D01*
X116274742Y-78576669D01*
X116271938Y-78573865D01*
X116268743Y-78571386D01*
X116259722Y-78563682D01*
X116227488Y-78533413D01*
X116209735Y-78523653D01*
X116193209Y-78512797D01*
X116177209Y-78500386D01*
X116136634Y-78482828D01*
X116125972Y-78477604D01*
X116087231Y-78456305D01*
X116073481Y-78452775D01*
X116067605Y-78451266D01*
X116048899Y-78444862D01*
X116030313Y-78436819D01*
X115986643Y-78429902D01*
X115975021Y-78427495D01*
X115932198Y-78416500D01*
X115932197Y-78416500D01*
X115911944Y-78416500D01*
X115892234Y-78414949D01*
X115872225Y-78411779D01*
X115828207Y-78415941D01*
X115816349Y-78416500D01*
X105645700Y-78416500D01*
X105577579Y-78396498D01*
X105552065Y-78374812D01*
X105548753Y-78371133D01*
X105394253Y-78258883D01*
X105394252Y-78258882D01*
X105219788Y-78181206D01*
X105032987Y-78141500D01*
X104842013Y-78141500D01*
X104717479Y-78167970D01*
X104655211Y-78181206D01*
X104480746Y-78258883D01*
X104326247Y-78371133D01*
X104198458Y-78513057D01*
X104102972Y-78678443D01*
X104043958Y-78860070D01*
X104023996Y-79050000D01*
X103374500Y-79050000D01*
X103374500Y-75942517D01*
X103375831Y-75924254D01*
X103375859Y-75924059D01*
X103379341Y-75900293D01*
X103374979Y-75850433D01*
X103374500Y-75839453D01*
X103374500Y-75837569D01*
X103374500Y-75833902D01*
X103370862Y-75802787D01*
X103370492Y-75799160D01*
X103365511Y-75742221D01*
X103363887Y-75723655D01*
X103363886Y-75723652D01*
X103363770Y-75722324D01*
X103359537Y-75703229D01*
X103359079Y-75701971D01*
X103359079Y-75701969D01*
X103333137Y-75630693D01*
X103331977Y-75627359D01*
X103308114Y-75555343D01*
X103308111Y-75555338D01*
X103307691Y-75554070D01*
X103299167Y-75536462D01*
X103256775Y-75472007D01*
X103254807Y-75468918D01*
X103214328Y-75403293D01*
X103201964Y-75388116D01*
X103145825Y-75335151D01*
X103143197Y-75332598D01*
X100722599Y-72912000D01*
X107737000Y-72912000D01*
X107737000Y-73453222D01*
X107737359Y-73459936D01*
X107743505Y-73517093D01*
X107794554Y-73653962D01*
X107882095Y-73770904D01*
X107999037Y-73858445D01*
X108135906Y-73909494D01*
X108193063Y-73915640D01*
X108199777Y-73916000D01*
X108991000Y-73916000D01*
X108991000Y-72912000D01*
X109499000Y-72912000D01*
X109499000Y-73916000D01*
X110290223Y-73916000D01*
X110296936Y-73915640D01*
X110354093Y-73909494D01*
X110490962Y-73858445D01*
X110607904Y-73770904D01*
X110695445Y-73653962D01*
X110746494Y-73517093D01*
X110752640Y-73459936D01*
X110753000Y-73453222D01*
X110753000Y-72912000D01*
X109499000Y-72912000D01*
X108991000Y-72912000D01*
X107737000Y-72912000D01*
X100722599Y-72912000D01*
X98027511Y-70216912D01*
X97993485Y-70154600D01*
X97998550Y-70083785D01*
X98027511Y-70038722D01*
X98567434Y-69498799D01*
X99190831Y-68875401D01*
X99234408Y-68847007D01*
X99318218Y-68814540D01*
X99405957Y-68760214D01*
X100238994Y-68760214D01*
X100326007Y-68814091D01*
X100517479Y-68888267D01*
X100719331Y-68926000D01*
X100924669Y-68926000D01*
X101126520Y-68888267D01*
X101317992Y-68814091D01*
X101405004Y-68760215D01*
X100822000Y-68177210D01*
X100821999Y-68177210D01*
X100238994Y-68760214D01*
X99405957Y-68760214D01*
X99492882Y-68706392D01*
X99644701Y-68567991D01*
X99732479Y-68451753D01*
X99789491Y-68409447D01*
X99841782Y-68401990D01*
X99876387Y-68404400D01*
X100528904Y-67751885D01*
X100518105Y-67789840D01*
X100528454Y-67901521D01*
X100578448Y-68001922D01*
X100661334Y-68077484D01*
X100765920Y-68118000D01*
X100849802Y-68118000D01*
X100932250Y-68102588D01*
X101027610Y-68043543D01*
X101095201Y-67954038D01*
X101125895Y-67846160D01*
X101117369Y-67754159D01*
X101767611Y-68404400D01*
X101768078Y-68403781D01*
X101859605Y-68219972D01*
X101915800Y-68022465D01*
X101934747Y-67817999D01*
X101920489Y-67664126D01*
X101934120Y-67594450D01*
X101983257Y-67543205D01*
X102045951Y-67526500D01*
X107235075Y-67526500D01*
X107303196Y-67546502D01*
X107324170Y-67563404D01*
X107699595Y-67938828D01*
X107733620Y-68001141D01*
X107736500Y-68027924D01*
X107736500Y-68856638D01*
X107743011Y-68917201D01*
X107766312Y-68979673D01*
X107794111Y-69054205D01*
X107852715Y-69132491D01*
X107877526Y-69199011D01*
X107862435Y-69268385D01*
X107852715Y-69283509D01*
X107794111Y-69361794D01*
X107771745Y-69421760D01*
X107743011Y-69498799D01*
X107736500Y-69559362D01*
X107736500Y-71156638D01*
X107743011Y-71217201D01*
X107763442Y-71271979D01*
X107794111Y-71354205D01*
X107853027Y-71432908D01*
X107877838Y-71499428D01*
X107862746Y-71568802D01*
X107853028Y-71583925D01*
X107794554Y-71662037D01*
X107743505Y-71798906D01*
X107737359Y-71856063D01*
X107737000Y-71862777D01*
X107737000Y-72404000D01*
X110753000Y-72404000D01*
X110753000Y-71862777D01*
X110752640Y-71856063D01*
X110746494Y-71798906D01*
X110695445Y-71662037D01*
X110636971Y-71583925D01*
X110612160Y-71517405D01*
X110627251Y-71448031D01*
X110636963Y-71432918D01*
X110648892Y-71416984D01*
X110705729Y-71374442D01*
X110749755Y-71366500D01*
X113910500Y-71366500D01*
X113978621Y-71386502D01*
X114025114Y-71440158D01*
X114036499Y-71492499D01*
X114036500Y-72306638D01*
X114043011Y-72367201D01*
X114068561Y-72435702D01*
X114094111Y-72504205D01*
X114181738Y-72621261D01*
X114298794Y-72708888D01*
X114298795Y-72708888D01*
X114298796Y-72708889D01*
X114435799Y-72759989D01*
X114496362Y-72766500D01*
X114499731Y-72766500D01*
X116590269Y-72766500D01*
X116593638Y-72766500D01*
X116654201Y-72759989D01*
X116791204Y-72708889D01*
X116908261Y-72621261D01*
X116995889Y-72504204D01*
X117046989Y-72367201D01*
X117053500Y-72306638D01*
X117053500Y-71492500D01*
X117073502Y-71424379D01*
X117127158Y-71377886D01*
X117179500Y-71366500D01*
X125603698Y-71366500D01*
X125671819Y-71386502D01*
X125683632Y-71395100D01*
X125780497Y-71474595D01*
X125955697Y-71568242D01*
X126145800Y-71625909D01*
X126343500Y-71645381D01*
X126541201Y-71625909D01*
X126731304Y-71568242D01*
X126906504Y-71474595D01*
X127060068Y-71348568D01*
X127186095Y-71195004D01*
X127279742Y-71019804D01*
X127337409Y-70829701D01*
X127356881Y-70632000D01*
X127337409Y-70434300D01*
X127279742Y-70244197D01*
X127186095Y-70068997D01*
X127091653Y-69953918D01*
X126822035Y-69684300D01*
X126813731Y-69675139D01*
X126786067Y-69641431D01*
X126632504Y-69515404D01*
X126457306Y-69421760D01*
X126457305Y-69421759D01*
X126457304Y-69421759D01*
X126416628Y-69409420D01*
X126309379Y-69376885D01*
X126267199Y-69364090D01*
X126069501Y-69344619D01*
X126029241Y-69348584D01*
X126026112Y-69348893D01*
X126013763Y-69349500D01*
X117179500Y-69349500D01*
X117111379Y-69329498D01*
X117064886Y-69275842D01*
X117053500Y-69223500D01*
X117053500Y-68412730D01*
X117053500Y-68412729D01*
X117053500Y-68409362D01*
X117046989Y-68348799D01*
X116995889Y-68211796D01*
X116995888Y-68211794D01*
X116908261Y-68094738D01*
X116791205Y-68007111D01*
X116707077Y-67975733D01*
X116654201Y-67956011D01*
X116593638Y-67949500D01*
X114496362Y-67949500D01*
X114493013Y-67949859D01*
X114493013Y-67949860D01*
X114435799Y-67956011D01*
X114298794Y-68007111D01*
X114181738Y-68094738D01*
X114094111Y-68211794D01*
X114043010Y-68348799D01*
X114043011Y-68348799D01*
X114036500Y-68409362D01*
X114036500Y-68412730D01*
X114036500Y-69223500D01*
X114016498Y-69291621D01*
X113962842Y-69338114D01*
X113910500Y-69349500D01*
X110749755Y-69349500D01*
X110681634Y-69329498D01*
X110648884Y-69299005D01*
X110637281Y-69283504D01*
X110612473Y-69216983D01*
X110627567Y-69147609D01*
X110637285Y-69132489D01*
X110683241Y-69071100D01*
X110695889Y-69054204D01*
X110746989Y-68917201D01*
X110753500Y-68856638D01*
X110753500Y-67259362D01*
X110746989Y-67198799D01*
X110695889Y-67061796D01*
X110695888Y-67061794D01*
X110608261Y-66944738D01*
X110491205Y-66857111D01*
X110395621Y-66821460D01*
X110354201Y-66806011D01*
X110293638Y-66799500D01*
X110290269Y-66799500D01*
X109464924Y-66799500D01*
X109396803Y-66779498D01*
X109375829Y-66762595D01*
X108457532Y-65844298D01*
X108449227Y-65835135D01*
X108421569Y-65801433D01*
X108268003Y-65675404D01*
X108092802Y-65581758D01*
X107902701Y-65524090D01*
X107705001Y-65504619D01*
X107664741Y-65508584D01*
X107661612Y-65508893D01*
X107649263Y-65509500D01*
X100177737Y-65509500D01*
X100165387Y-65508893D01*
X100161905Y-65508550D01*
X100121998Y-65504619D01*
X99924302Y-65524090D01*
X99791862Y-65564265D01*
X99734195Y-65581759D01*
X99558996Y-65675404D01*
X99405430Y-65801433D01*
X99377765Y-65835142D01*
X99369463Y-65844301D01*
X98453169Y-66760595D01*
X98409591Y-66788991D01*
X98325783Y-66821458D01*
X98151119Y-66929607D01*
X97999298Y-67068010D01*
X97875497Y-67231949D01*
X97779208Y-67425320D01*
X97755513Y-67458251D01*
X96053569Y-69160196D01*
X95991259Y-69194220D01*
X95964476Y-69197100D01*
X90913155Y-69197100D01*
X90845034Y-69177098D01*
X90812289Y-69146612D01*
X90801718Y-69132491D01*
X90800372Y-69130692D01*
X90775560Y-69064175D01*
X90790650Y-68994801D01*
X90800371Y-68979673D01*
X90858846Y-68901560D01*
X90909894Y-68764693D01*
X90916040Y-68707536D01*
X90916400Y-68700822D01*
X90916400Y-68159600D01*
X87900400Y-68159600D01*
X87900400Y-68700822D01*
X87900759Y-68707536D01*
X87906905Y-68764693D01*
X87957954Y-68901562D01*
X88016428Y-68979674D01*
X88041239Y-69046194D01*
X88026148Y-69115568D01*
X88016429Y-69130691D01*
X88004514Y-69146608D01*
X87947679Y-69189155D01*
X87903645Y-69197100D01*
X84742900Y-69197100D01*
X84674779Y-69177098D01*
X84628286Y-69123442D01*
X84616900Y-69071100D01*
X84616900Y-68260330D01*
X84616900Y-68260329D01*
X84616900Y-68256962D01*
X84610389Y-68196399D01*
X84559289Y-68059396D01*
X84547422Y-68043543D01*
X84471661Y-67942338D01*
X84354605Y-67854711D01*
X84256176Y-67817999D01*
X84217601Y-67803611D01*
X84157038Y-67797100D01*
X82059762Y-67797100D01*
X82056413Y-67797459D01*
X82056413Y-67797460D01*
X81999199Y-67803611D01*
X81862194Y-67854711D01*
X81745138Y-67942338D01*
X81657511Y-68059394D01*
X81620136Y-68159600D01*
X81606411Y-68196399D01*
X81599900Y-68256962D01*
X81599900Y-72154238D01*
X81600260Y-72157586D01*
X81606411Y-72214800D01*
X81657511Y-72351805D01*
X81745138Y-72468861D01*
X81862194Y-72556488D01*
X81862195Y-72556488D01*
X81862196Y-72556489D01*
X81999199Y-72607589D01*
X82059762Y-72614100D01*
X82063131Y-72614100D01*
X84153669Y-72614100D01*
X84157038Y-72614100D01*
X84217601Y-72607589D01*
X84354604Y-72556489D01*
X84471661Y-72468861D01*
X84559289Y-72351804D01*
X84610389Y-72214801D01*
X84616900Y-72154238D01*
X84616900Y-71340100D01*
X84636902Y-71271979D01*
X84690558Y-71225486D01*
X84742900Y-71214100D01*
X86767653Y-71214100D01*
X87903645Y-71214100D01*
X87971766Y-71234102D01*
X88004514Y-71264593D01*
X88016116Y-71280092D01*
X88040926Y-71346612D01*
X88025834Y-71415986D01*
X88016116Y-71431107D01*
X87957511Y-71509394D01*
X87925458Y-71595332D01*
X87906411Y-71646399D01*
X87899900Y-71706962D01*
X87899900Y-71710330D01*
X87899900Y-72535675D01*
X87879898Y-72603796D01*
X87862995Y-72624770D01*
X84848304Y-75639460D01*
X84785992Y-75673486D01*
X84715176Y-75668421D01*
X84658342Y-75625875D01*
X84636432Y-75596606D01*
X84636429Y-75596603D01*
X84636427Y-75596600D01*
X84443396Y-75403569D01*
X84224851Y-75239968D01*
X84166590Y-75208155D01*
X83985245Y-75109133D01*
X83729460Y-75013730D01*
X83729452Y-75013727D01*
X83462705Y-74955700D01*
X83190400Y-74936224D01*
X82918094Y-74955700D01*
X82651347Y-75013727D01*
X82496585Y-75071450D01*
X82395555Y-75109133D01*
X82395553Y-75109133D01*
X82395553Y-75109134D01*
X82155948Y-75239968D01*
X81937403Y-75403569D01*
X81744369Y-75596603D01*
X81580768Y-75815148D01*
X81453003Y-76049133D01*
X81449933Y-76054755D01*
X81412410Y-76155358D01*
X81354527Y-76310547D01*
X81296500Y-76577294D01*
X81277024Y-76849599D01*
X79972878Y-76849599D01*
X79966990Y-67651600D01*
X87900400Y-67651600D01*
X89154400Y-67651600D01*
X89154400Y-66647600D01*
X89662400Y-66647600D01*
X89662400Y-67651600D01*
X90916400Y-67651600D01*
X90916400Y-67110377D01*
X90916040Y-67103663D01*
X90909894Y-67046506D01*
X90858845Y-66909637D01*
X90771304Y-66792695D01*
X90654362Y-66705154D01*
X90517493Y-66654105D01*
X90460336Y-66647959D01*
X90453623Y-66647600D01*
X89662400Y-66647600D01*
X89154400Y-66647600D01*
X88363177Y-66647600D01*
X88356463Y-66647959D01*
X88299306Y-66654105D01*
X88162437Y-66705154D01*
X88045495Y-66792695D01*
X87957954Y-66909637D01*
X87906905Y-67046506D01*
X87900759Y-67103663D01*
X87900400Y-67110377D01*
X87900400Y-67651600D01*
X79966990Y-67651600D01*
X79962969Y-61369029D01*
X79982926Y-61300900D01*
X80036552Y-61254373D01*
X80106820Y-61244224D01*
X80171419Y-61273676D01*
X80206337Y-61323415D01*
X80205402Y-61321159D01*
X80206527Y-61323687D01*
X80206592Y-61323779D01*
X80206740Y-61324165D01*
X80209421Y-61330188D01*
X80382873Y-61670605D01*
X80386169Y-61676314D01*
X80594248Y-61996727D01*
X80598130Y-62002070D01*
X80802876Y-62254911D01*
X80802877Y-62254912D01*
X81720147Y-61337641D01*
X81667449Y-61416511D01*
X81648046Y-61514056D01*
X81667449Y-61611601D01*
X81722704Y-61694296D01*
X81805399Y-61749551D01*
X81878320Y-61764056D01*
X81927568Y-61764056D01*
X82000489Y-61749551D01*
X82079349Y-61696857D01*
X81162086Y-62614121D01*
X81162087Y-62614122D01*
X81414929Y-62818869D01*
X81420272Y-62822751D01*
X81740685Y-63030830D01*
X81746394Y-63034126D01*
X82086811Y-63207578D01*
X82092835Y-63210260D01*
X82449501Y-63347170D01*
X82455784Y-63349212D01*
X82824815Y-63448094D01*
X82831265Y-63449465D01*
X83208629Y-63509233D01*
X83215167Y-63509920D01*
X83596699Y-63529916D01*
X83603301Y-63529916D01*
X83984832Y-63509920D01*
X83991370Y-63509233D01*
X84368734Y-63449465D01*
X84375184Y-63448094D01*
X84744215Y-63349212D01*
X84750498Y-63347170D01*
X85107164Y-63210260D01*
X85113188Y-63207578D01*
X85453605Y-63034126D01*
X85459314Y-63030830D01*
X85779728Y-62822751D01*
X85785064Y-62818874D01*
X86037912Y-62614121D01*
X85120646Y-61696855D01*
X85199511Y-61749551D01*
X85272432Y-61764056D01*
X85321680Y-61764056D01*
X85394601Y-61749551D01*
X85477296Y-61694296D01*
X85532551Y-61611601D01*
X85551954Y-61514056D01*
X85532551Y-61416511D01*
X85479855Y-61337646D01*
X86397121Y-62254912D01*
X86601874Y-62002064D01*
X86605751Y-61996728D01*
X86619212Y-61976000D01*
X110746619Y-61976000D01*
X110766091Y-62173701D01*
X110823758Y-62363802D01*
X110917406Y-62539007D01*
X111043431Y-62692568D01*
X111196992Y-62818593D01*
X111197518Y-62818874D01*
X111372196Y-62912241D01*
X111467247Y-62941074D01*
X111562298Y-62969908D01*
X111584474Y-62972092D01*
X111710453Y-62984500D01*
X111713545Y-62984500D01*
X120950455Y-62984500D01*
X120953547Y-62984500D01*
X121101701Y-62969908D01*
X121291804Y-62912241D01*
X121467004Y-62818595D01*
X121467005Y-62818593D01*
X121467007Y-62818593D01*
X121620568Y-62692568D01*
X121746593Y-62539007D01*
X121746595Y-62539004D01*
X121840241Y-62363804D01*
X121897908Y-62173701D01*
X121917380Y-61976000D01*
X121897908Y-61778299D01*
X121893587Y-61764056D01*
X121840241Y-61588197D01*
X121840241Y-61588196D01*
X121746595Y-61412996D01*
X121746593Y-61412992D01*
X121620568Y-61259431D01*
X121467007Y-61133406D01*
X121291802Y-61039758D01*
X121101701Y-60982091D01*
X120956627Y-60967803D01*
X120956619Y-60967802D01*
X120953547Y-60967500D01*
X111710453Y-60967500D01*
X111707381Y-60967802D01*
X111707372Y-60967803D01*
X111562298Y-60982091D01*
X111372197Y-61039758D01*
X111196992Y-61133406D01*
X111043431Y-61259431D01*
X110917406Y-61412992D01*
X110823758Y-61588197D01*
X110766091Y-61778298D01*
X110746619Y-61976000D01*
X86619212Y-61976000D01*
X86813830Y-61676314D01*
X86817126Y-61670605D01*
X86990578Y-61330188D01*
X86993260Y-61324164D01*
X87130170Y-60967498D01*
X87132212Y-60961215D01*
X87231094Y-60592184D01*
X87232465Y-60585734D01*
X87292233Y-60208370D01*
X87292920Y-60201832D01*
X87306107Y-59950222D01*
X111291000Y-59950222D01*
X111291359Y-59956936D01*
X111297505Y-60014093D01*
X111348554Y-60150962D01*
X111436095Y-60267904D01*
X111553037Y-60355445D01*
X111689906Y-60406494D01*
X111747063Y-60412640D01*
X111753777Y-60413000D01*
X112395000Y-60413000D01*
X112395000Y-59488674D01*
X112506685Y-59539680D01*
X112613237Y-59555000D01*
X112684763Y-59555000D01*
X112791315Y-59539680D01*
X112903000Y-59488674D01*
X112903000Y-60413000D01*
X113544223Y-60413000D01*
X113550936Y-60412640D01*
X113608093Y-60406494D01*
X113744962Y-60355445D01*
X113861904Y-60267904D01*
X113949445Y-60150962D01*
X113993618Y-60032530D01*
X114036164Y-59975694D01*
X114102685Y-59950883D01*
X114172059Y-59965974D01*
X114204372Y-59991222D01*
X114225427Y-60014093D01*
X114265762Y-60057908D01*
X114278817Y-60068069D01*
X114443424Y-60196189D01*
X114641426Y-60303342D01*
X114854365Y-60376444D01*
X115076431Y-60413500D01*
X115076434Y-60413500D01*
X115301566Y-60413500D01*
X115301569Y-60413500D01*
X115523635Y-60376444D01*
X115736574Y-60303342D01*
X115934576Y-60196189D01*
X116112240Y-60057906D01*
X116264722Y-59892268D01*
X116353518Y-59756354D01*
X116407521Y-59710268D01*
X116477869Y-59700693D01*
X116542226Y-59730670D01*
X116564480Y-59756353D01*
X116653278Y-59892268D01*
X116749912Y-59997240D01*
X116805762Y-60057908D01*
X116818817Y-60068069D01*
X116983424Y-60196189D01*
X117181426Y-60303342D01*
X117394365Y-60376444D01*
X117616431Y-60413500D01*
X117616434Y-60413500D01*
X117841566Y-60413500D01*
X117841569Y-60413500D01*
X118063635Y-60376444D01*
X118276574Y-60303342D01*
X118474576Y-60196189D01*
X118652240Y-60057906D01*
X118804722Y-59892268D01*
X118893518Y-59756354D01*
X118947520Y-59710267D01*
X119017868Y-59700692D01*
X119082226Y-59730669D01*
X119104480Y-59756353D01*
X119193278Y-59892268D01*
X119305427Y-60014093D01*
X119345762Y-60057908D01*
X119358817Y-60068069D01*
X119523424Y-60196189D01*
X119721426Y-60303342D01*
X119934365Y-60376444D01*
X120156431Y-60413500D01*
X120156434Y-60413500D01*
X120381566Y-60413500D01*
X120381569Y-60413500D01*
X120603635Y-60376444D01*
X120816574Y-60303342D01*
X121014576Y-60196189D01*
X121192240Y-60057906D01*
X121344722Y-59892268D01*
X121433518Y-59756354D01*
X121487521Y-59710268D01*
X121557869Y-59700693D01*
X121622226Y-59730670D01*
X121644480Y-59756353D01*
X121733278Y-59892268D01*
X121829912Y-59997240D01*
X121885762Y-60057908D01*
X121898817Y-60068069D01*
X122063424Y-60196189D01*
X122261426Y-60303342D01*
X122474365Y-60376444D01*
X122696431Y-60413500D01*
X122696434Y-60413500D01*
X122921566Y-60413500D01*
X122921569Y-60413500D01*
X123143635Y-60376444D01*
X123356574Y-60303342D01*
X123554576Y-60196189D01*
X123732240Y-60057906D01*
X123884722Y-59892268D01*
X124007860Y-59703791D01*
X124098296Y-59497616D01*
X124153564Y-59279368D01*
X124172156Y-59055000D01*
X124153564Y-58830632D01*
X124098296Y-58612384D01*
X124007860Y-58406209D01*
X123884722Y-58217732D01*
X123732240Y-58052094D01*
X123732239Y-58052093D01*
X123732237Y-58052091D01*
X123554578Y-57913812D01*
X123356573Y-57806657D01*
X123204800Y-57754554D01*
X123143635Y-57733556D01*
X122921569Y-57696500D01*
X122696431Y-57696500D01*
X122474365Y-57733556D01*
X122474362Y-57733556D01*
X122474362Y-57733557D01*
X122261426Y-57806657D01*
X122063421Y-57913812D01*
X121885762Y-58052091D01*
X121733278Y-58217731D01*
X121644483Y-58353643D01*
X121590479Y-58399731D01*
X121520131Y-58409306D01*
X121455774Y-58379328D01*
X121433517Y-58353643D01*
X121417767Y-58329536D01*
X121344722Y-58217732D01*
X121192240Y-58052094D01*
X121192239Y-58052093D01*
X121192237Y-58052091D01*
X121014578Y-57913812D01*
X120816573Y-57806657D01*
X120664800Y-57754554D01*
X120603635Y-57733556D01*
X120381569Y-57696500D01*
X120156431Y-57696500D01*
X119934365Y-57733556D01*
X119934362Y-57733556D01*
X119934362Y-57733557D01*
X119721426Y-57806657D01*
X119523421Y-57913812D01*
X119345762Y-58052091D01*
X119193278Y-58217731D01*
X119147677Y-58287528D01*
X119104481Y-58353645D01*
X119050479Y-58399732D01*
X118980131Y-58409307D01*
X118915774Y-58379330D01*
X118893519Y-58353646D01*
X118804722Y-58217732D01*
X118652240Y-58052094D01*
X118652239Y-58052093D01*
X118652237Y-58052091D01*
X118474578Y-57913812D01*
X118276573Y-57806657D01*
X118124800Y-57754554D01*
X118063635Y-57733556D01*
X117841569Y-57696500D01*
X117616431Y-57696500D01*
X117394365Y-57733556D01*
X117394362Y-57733556D01*
X117394362Y-57733557D01*
X117181426Y-57806657D01*
X116983421Y-57913812D01*
X116805762Y-58052091D01*
X116653278Y-58217731D01*
X116564483Y-58353643D01*
X116510479Y-58399731D01*
X116440131Y-58409306D01*
X116375774Y-58379328D01*
X116353517Y-58353643D01*
X116337767Y-58329536D01*
X116264722Y-58217732D01*
X116112240Y-58052094D01*
X116112239Y-58052093D01*
X116112237Y-58052091D01*
X115934578Y-57913812D01*
X115736573Y-57806657D01*
X115584800Y-57754554D01*
X115523635Y-57733556D01*
X115301569Y-57696500D01*
X115076431Y-57696500D01*
X114854365Y-57733556D01*
X114854362Y-57733556D01*
X114854362Y-57733557D01*
X114641426Y-57806657D01*
X114443421Y-57913812D01*
X114265762Y-58052091D01*
X114204375Y-58118775D01*
X114143521Y-58155346D01*
X114072557Y-58153211D01*
X114014012Y-58113049D01*
X113993618Y-58077469D01*
X113949445Y-57959037D01*
X113861904Y-57842095D01*
X113744962Y-57754554D01*
X113608093Y-57703505D01*
X113550936Y-57697359D01*
X113544223Y-57697000D01*
X112903000Y-57697000D01*
X112903000Y-58621325D01*
X112791315Y-58570320D01*
X112684763Y-58555000D01*
X112613237Y-58555000D01*
X112506685Y-58570320D01*
X112395000Y-58621325D01*
X112395000Y-57697000D01*
X111753777Y-57697000D01*
X111747063Y-57697359D01*
X111689906Y-57703505D01*
X111553037Y-57754554D01*
X111436095Y-57842095D01*
X111348554Y-57959037D01*
X111297505Y-58095906D01*
X111291359Y-58153063D01*
X111291000Y-58159777D01*
X111291000Y-58801000D01*
X112217884Y-58801000D01*
X112189507Y-58845156D01*
X112149000Y-58983111D01*
X112149000Y-59126889D01*
X112189507Y-59264844D01*
X112217884Y-59309000D01*
X111291000Y-59309000D01*
X111291000Y-59950222D01*
X87306107Y-59950222D01*
X87312916Y-59820300D01*
X87312916Y-59813699D01*
X87292920Y-59432167D01*
X87292233Y-59425629D01*
X87232465Y-59048265D01*
X87231094Y-59041815D01*
X87132212Y-58672784D01*
X87130170Y-58666501D01*
X86993260Y-58309835D01*
X86990578Y-58303811D01*
X86817127Y-57963397D01*
X86813830Y-57957686D01*
X86605753Y-57637275D01*
X86601865Y-57631924D01*
X86397122Y-57379087D01*
X86397121Y-57379086D01*
X85479858Y-58296348D01*
X85532551Y-58217489D01*
X85551954Y-58119944D01*
X85532551Y-58022399D01*
X85477296Y-57939704D01*
X85394601Y-57884449D01*
X85321680Y-57869944D01*
X85272432Y-57869944D01*
X85199511Y-57884449D01*
X85120642Y-57937147D01*
X86037912Y-57019877D01*
X86037911Y-57019876D01*
X85785070Y-56815130D01*
X85779727Y-56811248D01*
X85459314Y-56603169D01*
X85453596Y-56599868D01*
X85452994Y-56599561D01*
X85452882Y-56599455D01*
X85450744Y-56598221D01*
X85452699Y-56599282D01*
X85401381Y-56550810D01*
X85384318Y-56481895D01*
X85407222Y-56414694D01*
X85462822Y-56370545D01*
X85509931Y-56361298D01*
X130474497Y-56267056D01*
X130542655Y-56286915D01*
G37*
%TD.AperFunction*%
%TA.AperFunction,Conductor*%
G36*
X130901570Y-117293365D02*
G01*
X131065130Y-117484870D01*
X131256635Y-117648430D01*
X131259203Y-117650004D01*
X130685745Y-118223461D01*
X130738439Y-118144601D01*
X130757842Y-118047056D01*
X130738439Y-117949511D01*
X130683184Y-117866816D01*
X130600489Y-117811561D01*
X130527568Y-117797056D01*
X130478320Y-117797056D01*
X130405399Y-117811561D01*
X130326529Y-117864259D01*
X130899994Y-117290794D01*
X130901570Y-117293365D01*
G37*
%TD.AperFunction*%
%TA.AperFunction,Conductor*%
G36*
X134073465Y-117864256D02*
G01*
X133994601Y-117811561D01*
X133921680Y-117797056D01*
X133872432Y-117797056D01*
X133799511Y-117811561D01*
X133716816Y-117866816D01*
X133661561Y-117949511D01*
X133642158Y-118047056D01*
X133661561Y-118144601D01*
X133714256Y-118223465D01*
X133140795Y-117650004D01*
X133143365Y-117648430D01*
X133334870Y-117484870D01*
X133498430Y-117293365D01*
X133500004Y-117290795D01*
X134073465Y-117864256D01*
G37*
%TD.AperFunction*%
%TA.AperFunction,Conductor*%
G36*
X135784562Y-117760426D02*
G01*
X135834285Y-117811102D01*
X135849129Y-117870414D01*
X135849468Y-119874267D01*
X135829477Y-119942391D01*
X135775830Y-119988893D01*
X135723580Y-120000288D01*
X133712875Y-120002074D01*
X133644736Y-119982132D01*
X133598196Y-119928518D01*
X133588030Y-119858253D01*
X133617465Y-119793646D01*
X133667611Y-119758442D01*
X133707169Y-119743257D01*
X133713188Y-119740578D01*
X134053605Y-119567126D01*
X134059314Y-119563830D01*
X134379728Y-119355751D01*
X134385064Y-119351874D01*
X134637912Y-119147121D01*
X133720646Y-118229855D01*
X133799511Y-118282551D01*
X133872432Y-118297056D01*
X133921680Y-118297056D01*
X133994601Y-118282551D01*
X134077296Y-118227296D01*
X134132551Y-118144601D01*
X134151954Y-118047056D01*
X134132551Y-117949511D01*
X134079855Y-117870646D01*
X134997121Y-118787912D01*
X135201874Y-118535064D01*
X135205751Y-118529728D01*
X135413830Y-118209314D01*
X135417126Y-118203605D01*
X135590578Y-117863188D01*
X135593257Y-117857169D01*
X135605497Y-117825283D01*
X135648581Y-117768854D01*
X135715334Y-117744676D01*
X135784562Y-117760426D01*
G37*
%TD.AperFunction*%
%TA.AperFunction,Conductor*%
G36*
X80207654Y-117880162D02*
G01*
X80237470Y-117918236D01*
X80382873Y-118203605D01*
X80386169Y-118209314D01*
X80594248Y-118529727D01*
X80598130Y-118535070D01*
X80802876Y-118787911D01*
X80802877Y-118787912D01*
X81720147Y-117870641D01*
X81667449Y-117949511D01*
X81648046Y-118047056D01*
X81667449Y-118144601D01*
X81722704Y-118227296D01*
X81805399Y-118282551D01*
X81878320Y-118297056D01*
X81927568Y-118297056D01*
X82000489Y-118282551D01*
X82079349Y-118229857D01*
X81162086Y-119147121D01*
X81162087Y-119147122D01*
X81414929Y-119351869D01*
X81420272Y-119355751D01*
X81740685Y-119563830D01*
X81746394Y-119567126D01*
X82086811Y-119740578D01*
X82092835Y-119743260D01*
X82130544Y-119757735D01*
X82186973Y-119800821D01*
X82211149Y-119867574D01*
X82195398Y-119936801D01*
X82144720Y-119986523D01*
X82085277Y-120001366D01*
X80126305Y-119999612D01*
X80058202Y-119979549D01*
X80011758Y-119925852D01*
X80000418Y-119873693D01*
X80000416Y-119870963D01*
X79999203Y-117975518D01*
X80019161Y-117907386D01*
X80072787Y-117860859D01*
X80143055Y-117850710D01*
X80207654Y-117880162D01*
G37*
%TD.AperFunction*%
%TA.AperFunction,Conductor*%
G36*
X82301570Y-117293365D02*
G01*
X82465130Y-117484870D01*
X82656635Y-117648430D01*
X82659203Y-117650004D01*
X82085745Y-118223461D01*
X82138439Y-118144601D01*
X82157842Y-118047056D01*
X82138439Y-117949511D01*
X82083184Y-117866816D01*
X82000489Y-117811561D01*
X81927568Y-117797056D01*
X81878320Y-117797056D01*
X81805399Y-117811561D01*
X81726529Y-117864259D01*
X82299994Y-117290794D01*
X82301570Y-117293365D01*
G37*
%TD.AperFunction*%
%TA.AperFunction,Conductor*%
G36*
X85473465Y-117864256D02*
G01*
X85394601Y-117811561D01*
X85321680Y-117797056D01*
X85272432Y-117797056D01*
X85199511Y-117811561D01*
X85116816Y-117866816D01*
X85061561Y-117949511D01*
X85042158Y-118047056D01*
X85061561Y-118144601D01*
X85114256Y-118223465D01*
X84540795Y-117650004D01*
X84543365Y-117648430D01*
X84734870Y-117484870D01*
X84898430Y-117293365D01*
X84900004Y-117290795D01*
X85473465Y-117864256D01*
G37*
%TD.AperFunction*%
%TA.AperFunction,Conductor*%
G36*
X82659204Y-115049995D02*
G01*
X82656635Y-115051570D01*
X82465130Y-115215130D01*
X82301570Y-115406635D01*
X82299995Y-115409204D01*
X81726534Y-114835743D01*
X81805399Y-114888439D01*
X81878320Y-114902944D01*
X81927568Y-114902944D01*
X82000489Y-114888439D01*
X82083184Y-114833184D01*
X82138439Y-114750489D01*
X82157842Y-114652944D01*
X82138439Y-114555399D01*
X82085743Y-114476534D01*
X82659204Y-115049995D01*
G37*
%TD.AperFunction*%
%TA.AperFunction,Conductor*%
G36*
X131259204Y-115049995D02*
G01*
X131256635Y-115051570D01*
X131065130Y-115215130D01*
X130901570Y-115406635D01*
X130899995Y-115409204D01*
X130326534Y-114835743D01*
X130405399Y-114888439D01*
X130478320Y-114902944D01*
X130527568Y-114902944D01*
X130600489Y-114888439D01*
X130683184Y-114833184D01*
X130738439Y-114750489D01*
X130757842Y-114652944D01*
X130738439Y-114555399D01*
X130685744Y-114476535D01*
X131259204Y-115049995D01*
G37*
%TD.AperFunction*%
%TA.AperFunction,Conductor*%
G36*
X85061561Y-114555399D02*
G01*
X85042158Y-114652944D01*
X85061561Y-114750489D01*
X85116816Y-114833184D01*
X85199511Y-114888439D01*
X85272432Y-114902944D01*
X85321680Y-114902944D01*
X85394601Y-114888439D01*
X85473460Y-114835746D01*
X84900004Y-115409203D01*
X84898430Y-115406635D01*
X84734870Y-115215130D01*
X84543365Y-115051570D01*
X84540795Y-115049995D01*
X85114259Y-114476530D01*
X85061561Y-114555399D01*
G37*
%TD.AperFunction*%
%TA.AperFunction,Conductor*%
G36*
X133661561Y-114555399D02*
G01*
X133642158Y-114652944D01*
X133661561Y-114750489D01*
X133716816Y-114833184D01*
X133799511Y-114888439D01*
X133872432Y-114902944D01*
X133921680Y-114902944D01*
X133994601Y-114888439D01*
X134073460Y-114835746D01*
X133500004Y-115409203D01*
X133498430Y-115406635D01*
X133334870Y-115215130D01*
X133143365Y-115051570D01*
X133140794Y-115049994D01*
X133714259Y-114476529D01*
X133661561Y-114555399D01*
G37*
%TD.AperFunction*%
%TA.AperFunction,Conductor*%
G36*
X82301570Y-60760365D02*
G01*
X82465130Y-60951870D01*
X82656635Y-61115430D01*
X82659203Y-61117004D01*
X82085745Y-61690461D01*
X82138439Y-61611601D01*
X82157842Y-61514056D01*
X82138439Y-61416511D01*
X82083184Y-61333816D01*
X82000489Y-61278561D01*
X81927568Y-61264056D01*
X81878320Y-61264056D01*
X81805399Y-61278561D01*
X81726529Y-61331259D01*
X82299994Y-60757794D01*
X82301570Y-60760365D01*
G37*
%TD.AperFunction*%
%TA.AperFunction,Conductor*%
G36*
X85473465Y-61331256D02*
G01*
X85394601Y-61278561D01*
X85321680Y-61264056D01*
X85272432Y-61264056D01*
X85199511Y-61278561D01*
X85116816Y-61333816D01*
X85061561Y-61416511D01*
X85042158Y-61514056D01*
X85061561Y-61611601D01*
X85114256Y-61690465D01*
X84540795Y-61117004D01*
X84543365Y-61115430D01*
X84734870Y-60951870D01*
X84898430Y-60760365D01*
X84900004Y-60757795D01*
X85473465Y-61331256D01*
G37*
%TD.AperFunction*%
%TA.AperFunction,Conductor*%
G36*
X130901570Y-60760365D02*
G01*
X131065130Y-60951870D01*
X131256635Y-61115430D01*
X131259203Y-61117004D01*
X130685745Y-61690461D01*
X130738439Y-61611601D01*
X130757842Y-61514056D01*
X130738439Y-61416511D01*
X130683184Y-61333816D01*
X130600489Y-61278561D01*
X130527568Y-61264056D01*
X130478320Y-61264056D01*
X130405399Y-61278561D01*
X130326529Y-61331259D01*
X130899994Y-60757794D01*
X130901570Y-60760365D01*
G37*
%TD.AperFunction*%
%TA.AperFunction,Conductor*%
G36*
X134073465Y-61331256D02*
G01*
X133994601Y-61278561D01*
X133921680Y-61264056D01*
X133872432Y-61264056D01*
X133799511Y-61278561D01*
X133716816Y-61333816D01*
X133661561Y-61416511D01*
X133642158Y-61514056D01*
X133661561Y-61611601D01*
X133714256Y-61690465D01*
X133140795Y-61117004D01*
X133143365Y-61115430D01*
X133334870Y-60951870D01*
X133498430Y-60760365D01*
X133500004Y-60757795D01*
X134073465Y-61331256D01*
G37*
%TD.AperFunction*%
%TA.AperFunction,Conductor*%
G36*
X81743359Y-56389193D02*
G01*
X81789965Y-56442752D01*
X81800216Y-56513004D01*
X81770858Y-56577647D01*
X81738673Y-56604305D01*
X81743456Y-56601371D01*
X81420267Y-56811251D01*
X81414938Y-56815123D01*
X81162086Y-57019877D01*
X82079353Y-57937144D01*
X82000489Y-57884449D01*
X81927568Y-57869944D01*
X81878320Y-57869944D01*
X81805399Y-57884449D01*
X81722704Y-57939704D01*
X81667449Y-58022399D01*
X81648046Y-58119944D01*
X81667449Y-58217489D01*
X81720143Y-58296352D01*
X80802877Y-57379086D01*
X80598123Y-57631938D01*
X80594251Y-57637267D01*
X80386169Y-57957686D01*
X80382872Y-57963397D01*
X80209421Y-58303811D01*
X80206738Y-58309838D01*
X80204613Y-58315375D01*
X80161524Y-58371800D01*
X80094769Y-58395972D01*
X80025543Y-58380217D01*
X79975824Y-58329536D01*
X79960985Y-58270297D01*
X79959851Y-56498744D01*
X79979809Y-56430613D01*
X80033435Y-56384086D01*
X80085581Y-56372667D01*
X81675202Y-56369335D01*
X81743359Y-56389193D01*
G37*
%TD.AperFunction*%
%TA.AperFunction,Conductor*%
G36*
X82659204Y-58516995D02*
G01*
X82656635Y-58518570D01*
X82465130Y-58682130D01*
X82301570Y-58873635D01*
X82299995Y-58876204D01*
X81726535Y-58302744D01*
X81805399Y-58355439D01*
X81878320Y-58369944D01*
X81927568Y-58369944D01*
X82000489Y-58355439D01*
X82083184Y-58300184D01*
X82138439Y-58217489D01*
X82157842Y-58119944D01*
X82138439Y-58022399D01*
X82085743Y-57943534D01*
X82659204Y-58516995D01*
G37*
%TD.AperFunction*%
%TA.AperFunction,Conductor*%
G36*
X131259204Y-58516995D02*
G01*
X131256635Y-58518570D01*
X131065130Y-58682130D01*
X130901570Y-58873635D01*
X130899995Y-58876204D01*
X130326535Y-58302744D01*
X130405399Y-58355439D01*
X130478320Y-58369944D01*
X130527568Y-58369944D01*
X130600489Y-58355439D01*
X130683184Y-58300184D01*
X130738439Y-58217489D01*
X130757842Y-58119944D01*
X130738439Y-58022399D01*
X130685744Y-57943535D01*
X131259204Y-58516995D01*
G37*
%TD.AperFunction*%
%TA.AperFunction,Conductor*%
G36*
X85061561Y-58022399D02*
G01*
X85042158Y-58119944D01*
X85061561Y-58217489D01*
X85116816Y-58300184D01*
X85199511Y-58355439D01*
X85272432Y-58369944D01*
X85321680Y-58369944D01*
X85394601Y-58355439D01*
X85473460Y-58302746D01*
X84900004Y-58876203D01*
X84898430Y-58873635D01*
X84734870Y-58682130D01*
X84543365Y-58518570D01*
X84540795Y-58516995D01*
X85114259Y-57943530D01*
X85061561Y-58022399D01*
G37*
%TD.AperFunction*%
%TA.AperFunction,Conductor*%
G36*
X133661561Y-58022399D02*
G01*
X133642158Y-58119944D01*
X133661561Y-58217489D01*
X133716816Y-58300184D01*
X133799511Y-58355439D01*
X133872432Y-58369944D01*
X133921680Y-58369944D01*
X133994601Y-58355439D01*
X134073460Y-58302746D01*
X133500004Y-58876203D01*
X133498430Y-58873635D01*
X133334870Y-58682130D01*
X133143365Y-58518570D01*
X133140794Y-58516994D01*
X133714259Y-57943529D01*
X133661561Y-58022399D01*
G37*
%TD.AperFunction*%
%TA.AperFunction,Conductor*%
G36*
X135780842Y-56281502D02*
G01*
X135827335Y-56335158D01*
X135838721Y-56387479D01*
X135839039Y-58270257D01*
X135819048Y-58338381D01*
X135765401Y-58384883D01*
X135695128Y-58394999D01*
X135630543Y-58365516D01*
X135595406Y-58315429D01*
X135593253Y-58309820D01*
X135590578Y-58303811D01*
X135417127Y-57963397D01*
X135413830Y-57957686D01*
X135205753Y-57637275D01*
X135201865Y-57631924D01*
X134997122Y-57379087D01*
X134997121Y-57379086D01*
X134079858Y-58296348D01*
X134132551Y-58217489D01*
X134151954Y-58119944D01*
X134132551Y-58022399D01*
X134077296Y-57939704D01*
X133994601Y-57884449D01*
X133921680Y-57869944D01*
X133872432Y-57869944D01*
X133799511Y-57884449D01*
X133720641Y-57937147D01*
X134637912Y-57019877D01*
X134637911Y-57019876D01*
X134385070Y-56815130D01*
X134379727Y-56811248D01*
X134059314Y-56603169D01*
X134053606Y-56599873D01*
X133857136Y-56499767D01*
X133805521Y-56451019D01*
X133788455Y-56382104D01*
X133811356Y-56314902D01*
X133866953Y-56270750D01*
X133914339Y-56261500D01*
X135712721Y-56261500D01*
X135780842Y-56281502D01*
G37*
%TD.AperFunction*%
%TD*%
M02*
