%TF.GenerationSoftware,KiCad,Pcbnew,7.0.2*%
%TF.CreationDate,2023-05-21T11:23:20+02:00*%
%TF.ProjectId,sdrt41-tx,73647274-3431-42d7-9478-2e6b69636164,rev?*%
%TF.SameCoordinates,Original*%
%TF.FileFunction,Soldermask,Top*%
%TF.FilePolarity,Negative*%
%FSLAX46Y46*%
G04 Gerber Fmt 4.6, Leading zero omitted, Abs format (unit mm)*
G04 Created by KiCad (PCBNEW 7.0.2) date 2023-05-21 11:23:20*
%MOMM*%
%LPD*%
G01*
G04 APERTURE LIST*
G04 Aperture macros list*
%AMRoundRect*
0 Rectangle with rounded corners*
0 $1 Rounding radius*
0 $2 $3 $4 $5 $6 $7 $8 $9 X,Y pos of 4 corners*
0 Add a 4 corners polygon primitive as box body*
4,1,4,$2,$3,$4,$5,$6,$7,$8,$9,$2,$3,0*
0 Add four circle primitives for the rounded corners*
1,1,$1+$1,$2,$3*
1,1,$1+$1,$4,$5*
1,1,$1+$1,$6,$7*
1,1,$1+$1,$8,$9*
0 Add four rect primitives between the rounded corners*
20,1,$1+$1,$2,$3,$4,$5,0*
20,1,$1+$1,$4,$5,$6,$7,0*
20,1,$1+$1,$6,$7,$8,$9,0*
20,1,$1+$1,$8,$9,$2,$3,0*%
G04 Aperture macros list end*
%ADD10RoundRect,0.250000X-0.262500X-0.450000X0.262500X-0.450000X0.262500X0.450000X-0.262500X0.450000X0*%
%ADD11RoundRect,0.250000X0.262500X0.450000X-0.262500X0.450000X-0.262500X-0.450000X0.262500X-0.450000X0*%
%ADD12RoundRect,0.250000X-0.475000X0.250000X-0.475000X-0.250000X0.475000X-0.250000X0.475000X0.250000X0*%
%ADD13RoundRect,0.250000X-0.325000X-0.650000X0.325000X-0.650000X0.325000X0.650000X-0.325000X0.650000X0*%
%ADD14RoundRect,0.250000X0.450000X-0.262500X0.450000X0.262500X-0.450000X0.262500X-0.450000X-0.262500X0*%
%ADD15R,2.800000X2.800000*%
%ADD16C,2.800000*%
%ADD17RoundRect,0.250000X0.475000X-0.250000X0.475000X0.250000X-0.475000X0.250000X-0.475000X-0.250000X0*%
%ADD18R,1.400000X1.200000*%
%ADD19C,1.000000*%
%ADD20RoundRect,0.250000X0.650000X-0.325000X0.650000X0.325000X-0.650000X0.325000X-0.650000X-0.325000X0*%
%ADD21C,1.200000*%
%ADD22RoundRect,0.100000X-0.637500X-0.100000X0.637500X-0.100000X0.637500X0.100000X-0.637500X0.100000X0*%
%ADD23C,6.400000*%
%ADD24C,0.800000*%
%ADD25RoundRect,0.218750X-0.218750X-0.256250X0.218750X-0.256250X0.218750X0.256250X-0.218750X0.256250X0*%
%ADD26RoundRect,0.250000X-0.250000X-0.475000X0.250000X-0.475000X0.250000X0.475000X-0.250000X0.475000X0*%
%ADD27RoundRect,0.218750X0.218750X0.256250X-0.218750X0.256250X-0.218750X-0.256250X0.218750X-0.256250X0*%
%ADD28C,2.050000*%
%ADD29C,2.250000*%
%ADD30RoundRect,0.250000X0.250000X0.475000X-0.250000X0.475000X-0.250000X-0.475000X0.250000X-0.475000X0*%
%ADD31R,1.700000X1.700000*%
%ADD32O,1.700000X1.700000*%
%ADD33RoundRect,0.150000X-0.725000X-0.150000X0.725000X-0.150000X0.725000X0.150000X-0.725000X0.150000X0*%
%ADD34RoundRect,0.250000X-0.450000X0.262500X-0.450000X-0.262500X0.450000X-0.262500X0.450000X0.262500X0*%
%ADD35RoundRect,0.218750X-0.256250X0.218750X-0.256250X-0.218750X0.256250X-0.218750X0.256250X0.218750X0*%
%ADD36RoundRect,0.250000X-0.650000X0.325000X-0.650000X-0.325000X0.650000X-0.325000X0.650000X0.325000X0*%
%ADD37R,0.300000X1.400000*%
%ADD38RoundRect,0.150000X0.725000X0.150000X-0.725000X0.150000X-0.725000X-0.150000X0.725000X-0.150000X0*%
%ADD39C,3.000000*%
G04 APERTURE END LIST*
D10*
%TO.C,R22*%
X118975500Y-61976000D03*
X120800500Y-61976000D03*
%TD*%
D11*
%TO.C,R20*%
X113585000Y-61976000D03*
X111760000Y-61976000D03*
%TD*%
D12*
%TO.C,C17*%
X120040400Y-92826800D03*
X120040400Y-94726800D03*
%TD*%
D13*
%TO.C,C23*%
X103775000Y-82650000D03*
X106725000Y-82650000D03*
%TD*%
D14*
%TO.C,R9*%
X117850000Y-94712500D03*
X117850000Y-92887500D03*
%TD*%
D15*
%TO.C,J1*%
X83190400Y-81849600D03*
D16*
X83190400Y-76849600D03*
%TD*%
D12*
%TO.C,C28*%
X122936000Y-84140000D03*
X122936000Y-86040000D03*
%TD*%
D11*
%TO.C,R14*%
X106762500Y-79050000D03*
X104937500Y-79050000D03*
%TD*%
D13*
%TO.C,C25*%
X102919000Y-97790000D03*
X105869000Y-97790000D03*
%TD*%
D17*
%TO.C,C27*%
X133223000Y-97089000D03*
X133223000Y-95189000D03*
%TD*%
D14*
%TO.C,R21*%
X125800000Y-111760000D03*
X125800000Y-109935000D03*
%TD*%
D18*
%TO.C,Y1*%
X120900000Y-65767000D03*
X123100000Y-65767000D03*
X123100000Y-64067000D03*
X120900000Y-64067000D03*
%TD*%
D19*
%TO.C,TP2*%
X123651000Y-76855000D03*
%TD*%
D13*
%TO.C,C21*%
X95275000Y-104150000D03*
X98225000Y-104150000D03*
%TD*%
D20*
%TO.C,C9*%
X90424000Y-99519000D03*
X90424000Y-96569000D03*
%TD*%
D21*
%TO.C,C4*%
X92980000Y-74574400D03*
X94980000Y-74574400D03*
%TD*%
D22*
%TO.C,U6*%
X123437500Y-88675000D03*
X123437500Y-89325000D03*
X123437500Y-89975000D03*
X123437500Y-90625000D03*
X123437500Y-91275000D03*
X123437500Y-91925000D03*
X123437500Y-92575000D03*
X123437500Y-93225000D03*
X129162500Y-93225000D03*
X129162500Y-92575000D03*
X129162500Y-91925000D03*
X129162500Y-91275000D03*
X129162500Y-90625000D03*
X129162500Y-89975000D03*
X129162500Y-89325000D03*
X129162500Y-88675000D03*
%TD*%
D17*
%TO.C,C7*%
X90424000Y-103566000D03*
X90424000Y-101666000D03*
%TD*%
D10*
%TO.C,R3*%
X100037500Y-85550000D03*
X101862500Y-85550000D03*
%TD*%
D17*
%TO.C,C6*%
X91500000Y-84600000D03*
X91500000Y-82700000D03*
%TD*%
D10*
%TO.C,R12*%
X119500000Y-97800000D03*
X121325000Y-97800000D03*
%TD*%
%TO.C,R11*%
X119637500Y-100250000D03*
X121462500Y-100250000D03*
%TD*%
D23*
%TO.C,H1*%
X83600000Y-116350000D03*
D24*
X81902944Y-114652944D03*
X83600000Y-118750000D03*
X81200000Y-116350000D03*
X86000000Y-116350000D03*
X83600000Y-113950000D03*
X85297056Y-118047056D03*
X85297056Y-114652944D03*
X81902944Y-118047056D03*
%TD*%
D25*
%TO.C,L3*%
X114162500Y-86750000D03*
X115737500Y-86750000D03*
%TD*%
D26*
%TO.C,C10*%
X104780000Y-70358000D03*
X106680000Y-70358000D03*
%TD*%
D24*
%TO.C,H4*%
X81902944Y-58119944D03*
X83600000Y-57417000D03*
X85297056Y-58119944D03*
X83600000Y-62217000D03*
X81200000Y-59817000D03*
X81902944Y-61514056D03*
X86000000Y-59817000D03*
X85297056Y-61514056D03*
D23*
X83600000Y-59817000D03*
%TD*%
D13*
%TO.C,C26*%
X117675000Y-90250000D03*
X120625000Y-90250000D03*
%TD*%
D27*
%TO.C,L6*%
X126343500Y-70632000D03*
X124768500Y-70632000D03*
%TD*%
D28*
%TO.C,J2*%
X84226400Y-90728800D03*
D29*
X81686400Y-88188800D03*
X86766400Y-93268800D03*
X81686400Y-93268800D03*
X86766400Y-88188800D03*
%TD*%
D30*
%TO.C,C19*%
X102150000Y-104300000D03*
X100250000Y-104300000D03*
%TD*%
D10*
%TO.C,R15*%
X118887500Y-82250000D03*
X120712500Y-82250000D03*
%TD*%
D31*
%TO.C,J4*%
X112649000Y-59055000D03*
D32*
X115189000Y-59055000D03*
X117729000Y-59055000D03*
X120269000Y-59055000D03*
X122809000Y-59055000D03*
%TD*%
D33*
%TO.C,U4*%
X109675000Y-88995000D03*
X109675000Y-90265000D03*
X109675000Y-91535000D03*
X109675000Y-92805000D03*
X114825000Y-92805000D03*
X114825000Y-91535000D03*
X114825000Y-90265000D03*
X114825000Y-88995000D03*
%TD*%
D12*
%TO.C,C31*%
X134112000Y-83682800D03*
X134112000Y-85582800D03*
%TD*%
D26*
%TO.C,C20*%
X114150000Y-84100000D03*
X116050000Y-84100000D03*
%TD*%
D30*
%TO.C,C36*%
X126633000Y-68600000D03*
X124733000Y-68600000D03*
%TD*%
D10*
%TO.C,R7*%
X102923500Y-94182000D03*
X104748500Y-94182000D03*
%TD*%
D34*
%TO.C,R1*%
X96012000Y-83669500D03*
X96012000Y-85494500D03*
%TD*%
D10*
%TO.C,R5*%
X94845500Y-99822000D03*
X96670500Y-99822000D03*
%TD*%
D28*
%TO.C,J5*%
X98700000Y-114400000D03*
D29*
X101240000Y-116940000D03*
X96160000Y-116940000D03*
X96160000Y-111860000D03*
X101240000Y-111860000D03*
%TD*%
D13*
%TO.C,C24*%
X113714000Y-80391000D03*
X116664000Y-80391000D03*
%TD*%
D10*
%TO.C,R17*%
X109337500Y-97900000D03*
X111162500Y-97900000D03*
%TD*%
D35*
%TO.C,L5*%
X131775200Y-84048500D03*
X131775200Y-85623500D03*
%TD*%
D26*
%TO.C,C12*%
X89900000Y-87450000D03*
X91800000Y-87450000D03*
%TD*%
D30*
%TO.C,C18*%
X111186000Y-84328000D03*
X109286000Y-84328000D03*
%TD*%
%TO.C,C11*%
X104836000Y-88432000D03*
X102936000Y-88432000D03*
%TD*%
D10*
%TO.C,R4*%
X89987500Y-90450000D03*
X91812500Y-90450000D03*
%TD*%
D14*
%TO.C,R2*%
X87985600Y-98296100D03*
X87985600Y-96471100D03*
%TD*%
D36*
%TO.C,C35*%
X129400000Y-104775000D03*
X129400000Y-107725000D03*
%TD*%
D12*
%TO.C,C29*%
X126365000Y-84140000D03*
X126365000Y-86040000D03*
%TD*%
D27*
%TO.C,L2*%
X96291500Y-94742000D03*
X94716500Y-94742000D03*
%TD*%
D10*
%TO.C,R18*%
X109337500Y-100850000D03*
X111162500Y-100850000D03*
%TD*%
D30*
%TO.C,C15*%
X91850000Y-92900000D03*
X89950000Y-92900000D03*
%TD*%
D10*
%TO.C,R6*%
X102973500Y-90932000D03*
X104798500Y-90932000D03*
%TD*%
D28*
%TO.C,J3*%
X84175600Y-105206800D03*
D29*
X81635600Y-102666800D03*
X86715600Y-107746800D03*
X81635600Y-107746800D03*
X86715600Y-102666800D03*
%TD*%
D10*
%TO.C,R10*%
X109287500Y-86600000D03*
X111112500Y-86600000D03*
%TD*%
%TO.C,R16*%
X118937500Y-85400000D03*
X120762500Y-85400000D03*
%TD*%
D37*
%TO.C,U7*%
X122873000Y-68559000D03*
X122373000Y-68559000D03*
X121873000Y-68559000D03*
X121373000Y-68559000D03*
X120873000Y-68559000D03*
X120873000Y-72959000D03*
X121373000Y-72959000D03*
X121873000Y-72959000D03*
X122373000Y-72959000D03*
X122873000Y-72959000D03*
%TD*%
D23*
%TO.C,H2*%
X132200000Y-59817000D03*
D24*
X129800000Y-59817000D03*
X130502944Y-61514056D03*
X132200000Y-57417000D03*
X130502944Y-58119944D03*
X132200000Y-62217000D03*
X134600000Y-59817000D03*
X133897056Y-61514056D03*
X133897056Y-58119944D03*
%TD*%
%TO.C,H3*%
X132200000Y-118750000D03*
X129800000Y-116350000D03*
X132200000Y-113950000D03*
X133897056Y-114652944D03*
D23*
X132200000Y-116350000D03*
D24*
X134600000Y-116350000D03*
X133897056Y-118047056D03*
X130502944Y-118047056D03*
X130502944Y-114652944D03*
%TD*%
D26*
%TO.C,C13*%
X104780000Y-68199000D03*
X106680000Y-68199000D03*
%TD*%
D12*
%TO.C,C34*%
X129286000Y-109794000D03*
X129286000Y-111694000D03*
%TD*%
D11*
%TO.C,R8*%
X100470500Y-99872000D03*
X98645500Y-99872000D03*
%TD*%
D30*
%TO.C,C16*%
X96708000Y-97536000D03*
X94808000Y-97536000D03*
%TD*%
D38*
%TO.C,U3*%
X99857000Y-92805000D03*
X99857000Y-91535000D03*
X99857000Y-90265000D03*
X99857000Y-88995000D03*
X94707000Y-88995000D03*
X94707000Y-90265000D03*
X94707000Y-91535000D03*
X94707000Y-92805000D03*
%TD*%
D39*
%TO.C,T1*%
X105947500Y-108250000D03*
X105947500Y-115250000D03*
X121227500Y-116540000D03*
X121107500Y-111810000D03*
X120917500Y-107210000D03*
%TD*%
D17*
%TO.C,C30*%
X130683000Y-97089000D03*
X130683000Y-95189000D03*
%TD*%
D19*
%TO.C,TP1*%
X120984000Y-76728000D03*
%TD*%
D17*
%TO.C,C5*%
X89458800Y-78420000D03*
X89458800Y-76520000D03*
%TD*%
D26*
%TO.C,C3*%
X93588800Y-67716400D03*
X95488800Y-67716400D03*
%TD*%
D14*
%TO.C,R19*%
X125780800Y-107897300D03*
X125780800Y-106072300D03*
%TD*%
D21*
%TO.C,C1*%
X98822000Y-67818000D03*
X100822000Y-67818000D03*
%TD*%
D13*
%TO.C,C8*%
X93013000Y-80264000D03*
X95963000Y-80264000D03*
%TD*%
D30*
%TO.C,C14*%
X101950000Y-82850000D03*
X100050000Y-82850000D03*
%TD*%
D11*
%TO.C,R13*%
X106712500Y-76400000D03*
X104887500Y-76400000D03*
%TD*%
M02*
