%TF.GenerationSoftware,KiCad,Pcbnew,7.0.2*%
%TF.CreationDate,2023-05-21T11:23:20+02:00*%
%TF.ProjectId,sdrt41-tx,73647274-3431-42d7-9478-2e6b69636164,rev?*%
%TF.SameCoordinates,Original*%
%TF.FileFunction,Legend,Bot*%
%TF.FilePolarity,Positive*%
%FSLAX46Y46*%
G04 Gerber Fmt 4.6, Leading zero omitted, Abs format (unit mm)*
G04 Created by KiCad (PCBNEW 7.0.2) date 2023-05-21 11:23:20*
%MOMM*%
%LPD*%
G01*
G04 APERTURE LIST*
%ADD10C,0.150000*%
%ADD11C,0.120000*%
G04 APERTURE END LIST*
D10*
%TO.C,U2*%
X87020304Y-65168219D02*
X87020304Y-65977742D01*
X87020304Y-65977742D02*
X86972685Y-66072980D01*
X86972685Y-66072980D02*
X86925066Y-66120600D01*
X86925066Y-66120600D02*
X86829828Y-66168219D01*
X86829828Y-66168219D02*
X86639352Y-66168219D01*
X86639352Y-66168219D02*
X86544114Y-66120600D01*
X86544114Y-66120600D02*
X86496495Y-66072980D01*
X86496495Y-66072980D02*
X86448876Y-65977742D01*
X86448876Y-65977742D02*
X86448876Y-65168219D01*
X86020304Y-65263457D02*
X85972685Y-65215838D01*
X85972685Y-65215838D02*
X85877447Y-65168219D01*
X85877447Y-65168219D02*
X85639352Y-65168219D01*
X85639352Y-65168219D02*
X85544114Y-65215838D01*
X85544114Y-65215838D02*
X85496495Y-65263457D01*
X85496495Y-65263457D02*
X85448876Y-65358695D01*
X85448876Y-65358695D02*
X85448876Y-65453933D01*
X85448876Y-65453933D02*
X85496495Y-65596790D01*
X85496495Y-65596790D02*
X86067923Y-66168219D01*
X86067923Y-66168219D02*
X85448876Y-66168219D01*
%TO.C,U1*%
X113156904Y-74320619D02*
X113156904Y-75130142D01*
X113156904Y-75130142D02*
X113109285Y-75225380D01*
X113109285Y-75225380D02*
X113061666Y-75273000D01*
X113061666Y-75273000D02*
X112966428Y-75320619D01*
X112966428Y-75320619D02*
X112775952Y-75320619D01*
X112775952Y-75320619D02*
X112680714Y-75273000D01*
X112680714Y-75273000D02*
X112633095Y-75225380D01*
X112633095Y-75225380D02*
X112585476Y-75130142D01*
X112585476Y-75130142D02*
X112585476Y-74320619D01*
X111585476Y-75320619D02*
X112156904Y-75320619D01*
X111871190Y-75320619D02*
X111871190Y-74320619D01*
X111871190Y-74320619D02*
X111966428Y-74463476D01*
X111966428Y-74463476D02*
X112061666Y-74558714D01*
X112061666Y-74558714D02*
X112156904Y-74606333D01*
D11*
%TO.C,U2*%
X90358400Y-66795600D02*
X84348400Y-66795600D01*
X84348400Y-66795600D02*
X84348400Y-68055600D01*
X88108400Y-73615600D02*
X84348400Y-73615600D01*
X84348400Y-73615600D02*
X84348400Y-72355600D01*
%TO.C,U1*%
X114305000Y-66948000D02*
X114305000Y-68208000D01*
X110545000Y-66948000D02*
X114305000Y-66948000D01*
X114305000Y-73768000D02*
X114305000Y-72508000D01*
X108295000Y-73768000D02*
X114305000Y-73768000D01*
%TD*%
M02*
