%TF.GenerationSoftware,KiCad,Pcbnew,7.0.2*%
%TF.CreationDate,2023-05-21T11:23:19+02:00*%
%TF.ProjectId,sdrt41-tx,73647274-3431-42d7-9478-2e6b69636164,rev?*%
%TF.SameCoordinates,Original*%
%TF.FileFunction,Copper,L3,Inr*%
%TF.FilePolarity,Positive*%
%FSLAX46Y46*%
G04 Gerber Fmt 4.6, Leading zero omitted, Abs format (unit mm)*
G04 Created by KiCad (PCBNEW 7.0.2) date 2023-05-21 11:23:19*
%MOMM*%
%LPD*%
G01*
G04 APERTURE LIST*
%TA.AperFunction,ComponentPad*%
%ADD10R,2.800000X2.800000*%
%TD*%
%TA.AperFunction,ComponentPad*%
%ADD11C,2.800000*%
%TD*%
%TA.AperFunction,ComponentPad*%
%ADD12C,1.200000*%
%TD*%
%TA.AperFunction,ComponentPad*%
%ADD13C,6.400000*%
%TD*%
%TA.AperFunction,ComponentPad*%
%ADD14C,0.800000*%
%TD*%
%TA.AperFunction,ComponentPad*%
%ADD15C,2.050000*%
%TD*%
%TA.AperFunction,ComponentPad*%
%ADD16C,2.250000*%
%TD*%
%TA.AperFunction,ComponentPad*%
%ADD17R,1.700000X1.700000*%
%TD*%
%TA.AperFunction,ComponentPad*%
%ADD18O,1.700000X1.700000*%
%TD*%
%TA.AperFunction,ComponentPad*%
%ADD19C,3.000000*%
%TD*%
%TA.AperFunction,ViaPad*%
%ADD20C,0.800000*%
%TD*%
G04 APERTURE END LIST*
D10*
%TO.N,GND*%
%TO.C,J1*%
X83190400Y-81849600D03*
D11*
%TO.N,Net-(J1-Pin_2)*%
X83190400Y-76849600D03*
%TD*%
D12*
%TO.N,Net-(J1-Pin_2)*%
%TO.C,C4*%
X92980000Y-74574400D03*
%TO.N,GND*%
X94980000Y-74574400D03*
%TD*%
D13*
%TO.N,GND*%
%TO.C,H1*%
X83600000Y-116350000D03*
D14*
X81902944Y-114652944D03*
X83600000Y-118750000D03*
X81200000Y-116350000D03*
X86000000Y-116350000D03*
X83600000Y-113950000D03*
X85297056Y-118047056D03*
X85297056Y-114652944D03*
X81902944Y-118047056D03*
%TD*%
%TO.N,GND*%
%TO.C,H4*%
X81902944Y-58119944D03*
X83600000Y-57417000D03*
X85297056Y-58119944D03*
X83600000Y-62217000D03*
X81200000Y-59817000D03*
X81902944Y-61514056D03*
X86000000Y-59817000D03*
X85297056Y-61514056D03*
D13*
X83600000Y-59817000D03*
%TD*%
D15*
%TO.N,Net-(J2-In)*%
%TO.C,J2*%
X84226400Y-90728800D03*
D16*
%TO.N,GND*%
X81686400Y-88188800D03*
X86766400Y-93268800D03*
X81686400Y-93268800D03*
X86766400Y-88188800D03*
%TD*%
D17*
%TO.N,GND*%
%TO.C,J4*%
X112649000Y-59055000D03*
D18*
%TO.N,SDA*%
X115189000Y-59055000D03*
%TO.N,SCL*%
X117729000Y-59055000D03*
%TO.N,unconnected-(J4-Pin_4-Pad4)*%
X120269000Y-59055000D03*
%TO.N,+5V*%
X122809000Y-59055000D03*
%TD*%
D15*
%TO.N,Net-(J5-In)*%
%TO.C,J5*%
X98700000Y-114400000D03*
D16*
%TO.N,GND*%
X101240000Y-116940000D03*
X96160000Y-116940000D03*
X96160000Y-111860000D03*
X101240000Y-111860000D03*
%TD*%
D15*
%TO.N,Net-(J3-In)*%
%TO.C,J3*%
X84175600Y-105206800D03*
D16*
%TO.N,GND*%
X81635600Y-102666800D03*
X86715600Y-107746800D03*
X81635600Y-107746800D03*
X86715600Y-102666800D03*
%TD*%
D13*
%TO.N,GND*%
%TO.C,H2*%
X132200000Y-59817000D03*
D14*
X129800000Y-59817000D03*
X130502944Y-61514056D03*
X132200000Y-57417000D03*
X130502944Y-58119944D03*
X132200000Y-62217000D03*
X134600000Y-59817000D03*
X133897056Y-61514056D03*
X133897056Y-58119944D03*
%TD*%
%TO.N,GND*%
%TO.C,H3*%
X132200000Y-118750000D03*
X129800000Y-116350000D03*
X132200000Y-113950000D03*
X133897056Y-114652944D03*
D13*
X132200000Y-116350000D03*
D14*
X134600000Y-116350000D03*
X133897056Y-118047056D03*
X130502944Y-118047056D03*
X130502944Y-114652944D03*
%TD*%
D19*
%TO.N,GND*%
%TO.C,T1*%
X105947500Y-108250000D03*
%TO.N,Net-(J5-In)*%
X105947500Y-115250000D03*
%TO.N,Net-(T1-SA)*%
X121227500Y-116540000D03*
%TO.N,Net-(T1-SC)*%
X121107500Y-111810000D03*
%TO.N,Net-(T1-SB)*%
X120917500Y-107210000D03*
%TD*%
D12*
%TO.N,+5V*%
%TO.C,C1*%
X98822000Y-67818000D03*
%TO.N,GND*%
X100822000Y-67818000D03*
%TD*%
D20*
%TO.N,+3.3V*%
X120904000Y-61976000D03*
X111760000Y-61976000D03*
%TO.N,+5V*%
X131775200Y-82092800D03*
X113030000Y-86614000D03*
X96266000Y-94742000D03*
%TO.N,GND*%
X134620000Y-101600000D03*
X100330000Y-95250000D03*
X130683000Y-97089000D03*
X106680000Y-85090000D03*
X134620000Y-91440000D03*
X99822000Y-87630000D03*
X93980000Y-107950000D03*
X127000000Y-95250000D03*
X123342400Y-94437200D03*
X129438400Y-104749600D03*
X101600000Y-58420000D03*
X90170000Y-107950000D03*
X101600000Y-73660000D03*
X82550000Y-64770000D03*
X111760000Y-95250000D03*
X104140000Y-73660000D03*
X107518200Y-92862400D03*
X134670800Y-88036400D03*
X99060000Y-73660000D03*
X133223000Y-97089000D03*
X113030000Y-104140000D03*
X91440000Y-116840000D03*
X97790000Y-87630000D03*
X101600000Y-107950000D03*
X109220000Y-104140000D03*
X106172000Y-88392000D03*
X134620000Y-96520000D03*
X134620000Y-81280000D03*
X90170000Y-64770000D03*
X109220000Y-64770000D03*
X134620000Y-68580000D03*
X91440000Y-111760000D03*
X97790000Y-107950000D03*
X114300000Y-76200000D03*
X134620000Y-111760000D03*
X104140000Y-85090000D03*
X126699000Y-68600000D03*
X98298000Y-97536000D03*
X105410000Y-104140000D03*
X109220000Y-76200000D03*
X127482600Y-87821100D03*
X86360000Y-64770000D03*
X114173000Y-84023200D03*
X121492000Y-74696000D03*
X126365000Y-84140000D03*
X107950000Y-95250000D03*
X114300000Y-64770000D03*
X134620000Y-106680000D03*
X116840000Y-104140000D03*
X115570000Y-95250000D03*
X91440000Y-58420000D03*
X134620000Y-76200000D03*
X95250000Y-64770000D03*
X96520000Y-58420000D03*
X124460000Y-95250000D03*
%TO.N,+3.3V*%
X109245000Y-70358000D03*
X126343500Y-70632000D03*
%TO.N,Net-(U3A--)*%
X100037500Y-85550000D03*
X98425000Y-91440000D03*
%TO.N,Net-(C15-Pad1)*%
X91850000Y-92900000D03*
X102870000Y-94234000D03*
%TO.N,Net-(U6-1B4)*%
X123050000Y-86050000D03*
X126060200Y-92837000D03*
X124866400Y-90043000D03*
X104937500Y-79050000D03*
%TO.N,Net-(U6-1B1)*%
X120712500Y-82250000D03*
X126275489Y-85941511D03*
X127025400Y-89535000D03*
%TO.N,Net-(U3A-+)*%
X114833400Y-92837000D03*
X109675000Y-91535000D03*
X102936000Y-88432000D03*
%TO.N,Net-(U6-1B2)*%
X133223000Y-95189000D03*
X130759200Y-90881200D03*
X126720600Y-90779600D03*
%TO.N,Net-(U6-1B3)*%
X111162500Y-97900000D03*
X121894600Y-90144600D03*
X130962400Y-91998800D03*
%TO.N,Net-(U6-S1)*%
X120984000Y-76728000D03*
X125831600Y-89399500D03*
%TO.N,Net-(U6-S0)*%
X130733800Y-88671400D03*
X123651000Y-76855000D03*
%TD*%
%TA.AperFunction,Conductor*%
%TO.N,+5V*%
G36*
X130552682Y-56281501D02*
G01*
X130599175Y-56335157D01*
X130609279Y-56405431D01*
X130579785Y-56470011D01*
X130541765Y-56499765D01*
X130346154Y-56599434D01*
X130346125Y-56599450D01*
X130343206Y-56600938D01*
X130340447Y-56602729D01*
X130340436Y-56602736D01*
X130019971Y-56810847D01*
X130019957Y-56810856D01*
X130017207Y-56812643D01*
X130014653Y-56814711D01*
X130014645Y-56814717D01*
X129717686Y-57055191D01*
X129715124Y-57057266D01*
X129712797Y-57059592D01*
X129712787Y-57059602D01*
X129442602Y-57329787D01*
X129442592Y-57329797D01*
X129440266Y-57332124D01*
X129438194Y-57334682D01*
X129438191Y-57334686D01*
X129197717Y-57631645D01*
X129197711Y-57631653D01*
X129195643Y-57634207D01*
X129193856Y-57636957D01*
X129193847Y-57636971D01*
X128985736Y-57957436D01*
X128985729Y-57957447D01*
X128983938Y-57960206D01*
X128982443Y-57963139D01*
X128982439Y-57963147D01*
X128808965Y-58303607D01*
X128808958Y-58303622D01*
X128807468Y-58306547D01*
X128806291Y-58309612D01*
X128806283Y-58309631D01*
X128669353Y-58666347D01*
X128669350Y-58666355D01*
X128668167Y-58669438D01*
X128667315Y-58672617D01*
X128667311Y-58672630D01*
X128568416Y-59041711D01*
X128568413Y-59041724D01*
X128567562Y-59044901D01*
X128567047Y-59048148D01*
X128567045Y-59048161D01*
X128507268Y-59425576D01*
X128506754Y-59428824D01*
X128506582Y-59432100D01*
X128506581Y-59432113D01*
X128492004Y-59710268D01*
X128486411Y-59817000D01*
X128486584Y-59820301D01*
X128506581Y-60201886D01*
X128506582Y-60201897D01*
X128506754Y-60205176D01*
X128507267Y-60208417D01*
X128507268Y-60208423D01*
X128567045Y-60585838D01*
X128567046Y-60585847D01*
X128567562Y-60589099D01*
X128668167Y-60964562D01*
X128669352Y-60967649D01*
X128669353Y-60967652D01*
X128806283Y-61324368D01*
X128806287Y-61324376D01*
X128807468Y-61327453D01*
X128808961Y-61330384D01*
X128808965Y-61330392D01*
X128864333Y-61439057D01*
X128983938Y-61673795D01*
X128985734Y-61676561D01*
X128985736Y-61676564D01*
X129180191Y-61976000D01*
X129195643Y-61999793D01*
X129440266Y-62301876D01*
X129715124Y-62576734D01*
X130017207Y-62821357D01*
X130343205Y-63033062D01*
X130689547Y-63209532D01*
X131052438Y-63348833D01*
X131427901Y-63449438D01*
X131811824Y-63510246D01*
X132200000Y-63530589D01*
X132588176Y-63510246D01*
X132972099Y-63449438D01*
X133347562Y-63348833D01*
X133710453Y-63209532D01*
X134056795Y-63033062D01*
X134382793Y-62821357D01*
X134684876Y-62576734D01*
X134959734Y-62301876D01*
X135204357Y-61999793D01*
X135416062Y-61673795D01*
X135592532Y-61327453D01*
X135595930Y-61318598D01*
X135639011Y-61262170D01*
X135705763Y-61237990D01*
X135774991Y-61253736D01*
X135824717Y-61304411D01*
X135839563Y-61363727D01*
X135848615Y-114826811D01*
X135828624Y-114894935D01*
X135774977Y-114941437D01*
X135704704Y-114951553D01*
X135640119Y-114922070D01*
X135604984Y-114871986D01*
X135593716Y-114842631D01*
X135593714Y-114842628D01*
X135592532Y-114839547D01*
X135416062Y-114493206D01*
X135204357Y-114167207D01*
X134959734Y-113865124D01*
X134684876Y-113590266D01*
X134382793Y-113345643D01*
X134380033Y-113343850D01*
X134380028Y-113343847D01*
X134059564Y-113135736D01*
X134059561Y-113135734D01*
X134056795Y-113133938D01*
X133951921Y-113080502D01*
X133713392Y-112958965D01*
X133713384Y-112958961D01*
X133710453Y-112957468D01*
X133707380Y-112956288D01*
X133707368Y-112956283D01*
X133350652Y-112819353D01*
X133350649Y-112819352D01*
X133347562Y-112818167D01*
X133344376Y-112817313D01*
X133344369Y-112817311D01*
X132975288Y-112718416D01*
X132975279Y-112718414D01*
X132972099Y-112717562D01*
X132968847Y-112717046D01*
X132968838Y-112717045D01*
X132591423Y-112657268D01*
X132591417Y-112657267D01*
X132588176Y-112656754D01*
X132584897Y-112656582D01*
X132584886Y-112656581D01*
X132203301Y-112636584D01*
X132200000Y-112636411D01*
X132196699Y-112636584D01*
X131815113Y-112656581D01*
X131815100Y-112656582D01*
X131811824Y-112656754D01*
X131808584Y-112657267D01*
X131808576Y-112657268D01*
X131431161Y-112717045D01*
X131431148Y-112717047D01*
X131427901Y-112717562D01*
X131424724Y-112718413D01*
X131424711Y-112718416D01*
X131055630Y-112817311D01*
X131055617Y-112817315D01*
X131052438Y-112818167D01*
X131049355Y-112819350D01*
X131049347Y-112819353D01*
X130692631Y-112956283D01*
X130692612Y-112956291D01*
X130689547Y-112957468D01*
X130686622Y-112958958D01*
X130686607Y-112958965D01*
X130346147Y-113132439D01*
X130346139Y-113132443D01*
X130343206Y-113133938D01*
X130340447Y-113135729D01*
X130340436Y-113135736D01*
X130019971Y-113343847D01*
X130019957Y-113343856D01*
X130017207Y-113345643D01*
X130014653Y-113347711D01*
X130014645Y-113347717D01*
X129828383Y-113498550D01*
X129715124Y-113590266D01*
X129712797Y-113592592D01*
X129712787Y-113592602D01*
X129442602Y-113862787D01*
X129442592Y-113862797D01*
X129440266Y-113865124D01*
X129438194Y-113867682D01*
X129438191Y-113867686D01*
X129197717Y-114164645D01*
X129197711Y-114164653D01*
X129195643Y-114167207D01*
X129193856Y-114169957D01*
X129193847Y-114169971D01*
X128985736Y-114490436D01*
X128985729Y-114490447D01*
X128983938Y-114493206D01*
X128982443Y-114496139D01*
X128982439Y-114496147D01*
X128808965Y-114836607D01*
X128808958Y-114836622D01*
X128807468Y-114839547D01*
X128806291Y-114842612D01*
X128806283Y-114842631D01*
X128669353Y-115199347D01*
X128669350Y-115199355D01*
X128668167Y-115202438D01*
X128667315Y-115205617D01*
X128667311Y-115205630D01*
X128568416Y-115574711D01*
X128568413Y-115574724D01*
X128567562Y-115577901D01*
X128567047Y-115581148D01*
X128567045Y-115581161D01*
X128510489Y-115938241D01*
X128506754Y-115961824D01*
X128506582Y-115965100D01*
X128506581Y-115965113D01*
X128490820Y-116265870D01*
X128486411Y-116350000D01*
X128486584Y-116353301D01*
X128506581Y-116734886D01*
X128506582Y-116734897D01*
X128506754Y-116738176D01*
X128507267Y-116741417D01*
X128507268Y-116741423D01*
X128567045Y-117118838D01*
X128567046Y-117118847D01*
X128567562Y-117122099D01*
X128568414Y-117125279D01*
X128568416Y-117125288D01*
X128654442Y-117446340D01*
X128668167Y-117497562D01*
X128669352Y-117500649D01*
X128669353Y-117500652D01*
X128806283Y-117857368D01*
X128806285Y-117857372D01*
X128807468Y-117860453D01*
X128808961Y-117863384D01*
X128808965Y-117863392D01*
X128831943Y-117908488D01*
X128983938Y-118206795D01*
X128985734Y-118209561D01*
X128985736Y-118209564D01*
X129181545Y-118511085D01*
X129195643Y-118532793D01*
X129440266Y-118834876D01*
X129715124Y-119109734D01*
X130017207Y-119354357D01*
X130343205Y-119566062D01*
X130689547Y-119742532D01*
X130692628Y-119743714D01*
X130692631Y-119743716D01*
X130842760Y-119801345D01*
X130899188Y-119844431D01*
X130923365Y-119911184D01*
X130907614Y-119980411D01*
X130856936Y-120030133D01*
X130797493Y-120044976D01*
X110444451Y-120026755D01*
X85298207Y-119913990D01*
X85230177Y-119893682D01*
X85183925Y-119839819D01*
X85174136Y-119769500D01*
X85203919Y-119705052D01*
X85241567Y-119675725D01*
X85456795Y-119566062D01*
X85782793Y-119354357D01*
X86084876Y-119109734D01*
X86359734Y-118834876D01*
X86604357Y-118532793D01*
X86816062Y-118206795D01*
X86992532Y-117860453D01*
X87131833Y-117497562D01*
X87232438Y-117122099D01*
X87277119Y-116840000D01*
X90526496Y-116840000D01*
X90546458Y-117029929D01*
X90605472Y-117211556D01*
X90700958Y-117376942D01*
X90700960Y-117376944D01*
X90828747Y-117518866D01*
X90983248Y-117631118D01*
X91157712Y-117708794D01*
X91344513Y-117748500D01*
X91344515Y-117748500D01*
X91535485Y-117748500D01*
X91535487Y-117748500D01*
X91722288Y-117708794D01*
X91896752Y-117631118D01*
X92051253Y-117518866D01*
X92179040Y-117376944D01*
X92274527Y-117211556D01*
X92333542Y-117029928D01*
X92342994Y-116940000D01*
X94521449Y-116940000D01*
X94528945Y-117035247D01*
X94541622Y-117196326D01*
X94601645Y-117446340D01*
X94700041Y-117683890D01*
X94834383Y-117903116D01*
X95001368Y-118098631D01*
X95196883Y-118265616D01*
X95416109Y-118399958D01*
X95416111Y-118399958D01*
X95416113Y-118399960D01*
X95653660Y-118498355D01*
X95903674Y-118558378D01*
X96160000Y-118578551D01*
X96416326Y-118558378D01*
X96666340Y-118498355D01*
X96903887Y-118399960D01*
X97123116Y-118265616D01*
X97318631Y-118098631D01*
X97485616Y-117903116D01*
X97619960Y-117683887D01*
X97718355Y-117446340D01*
X97778378Y-117196326D01*
X97798551Y-116940000D01*
X99601449Y-116940000D01*
X99621622Y-117196326D01*
X99681645Y-117446340D01*
X99780041Y-117683890D01*
X99914383Y-117903116D01*
X100081368Y-118098631D01*
X100276883Y-118265616D01*
X100496109Y-118399958D01*
X100496111Y-118399958D01*
X100496113Y-118399960D01*
X100733660Y-118498355D01*
X100983674Y-118558378D01*
X101240000Y-118578551D01*
X101496326Y-118558378D01*
X101746340Y-118498355D01*
X101983887Y-118399960D01*
X102203116Y-118265616D01*
X102398631Y-118098631D01*
X102565616Y-117903116D01*
X102699960Y-117683887D01*
X102798355Y-117446340D01*
X102858378Y-117196326D01*
X102878551Y-116940000D01*
X102858378Y-116683674D01*
X102798355Y-116433660D01*
X102699960Y-116196113D01*
X102678525Y-116161134D01*
X102565616Y-115976883D01*
X102398631Y-115781368D01*
X102203116Y-115614383D01*
X101983890Y-115480041D01*
X101746340Y-115381645D01*
X101496326Y-115321622D01*
X101496326Y-115321621D01*
X101240000Y-115301449D01*
X101239999Y-115301449D01*
X100983673Y-115321622D01*
X100733659Y-115381645D01*
X100496109Y-115480041D01*
X100276883Y-115614383D01*
X100081368Y-115781368D01*
X99914383Y-115976883D01*
X99780041Y-116196109D01*
X99681645Y-116433659D01*
X99621622Y-116683673D01*
X99601449Y-116940000D01*
X97798551Y-116940000D01*
X97778378Y-116683674D01*
X97718355Y-116433660D01*
X97619960Y-116196113D01*
X97598525Y-116161134D01*
X97485616Y-115976883D01*
X97318631Y-115781368D01*
X97123116Y-115614383D01*
X96903890Y-115480041D01*
X96666340Y-115381645D01*
X96416326Y-115321622D01*
X96160000Y-115301449D01*
X95903673Y-115321622D01*
X95653659Y-115381645D01*
X95416109Y-115480041D01*
X95196883Y-115614383D01*
X95001368Y-115781368D01*
X94834383Y-115976883D01*
X94700041Y-116196109D01*
X94601645Y-116433659D01*
X94549690Y-116650070D01*
X94541622Y-116683674D01*
X94521449Y-116940000D01*
X92342994Y-116940000D01*
X92353504Y-116840000D01*
X92333542Y-116650072D01*
X92274527Y-116468444D01*
X92274527Y-116468443D01*
X92179041Y-116303057D01*
X92051252Y-116161133D01*
X91896753Y-116048883D01*
X91896752Y-116048882D01*
X91722288Y-115971206D01*
X91535487Y-115931500D01*
X91344513Y-115931500D01*
X91219978Y-115957970D01*
X91157711Y-115971206D01*
X90983246Y-116048883D01*
X90828747Y-116161133D01*
X90700958Y-116303057D01*
X90605472Y-116468443D01*
X90546458Y-116650070D01*
X90526496Y-116840000D01*
X87277119Y-116840000D01*
X87293246Y-116738176D01*
X87313589Y-116350000D01*
X87293246Y-115961824D01*
X87232438Y-115577901D01*
X87131833Y-115202438D01*
X87013927Y-114895282D01*
X86993716Y-114842631D01*
X86993714Y-114842628D01*
X86992532Y-114839547D01*
X86816062Y-114493206D01*
X86755534Y-114400000D01*
X97161758Y-114400000D01*
X97180696Y-114640634D01*
X97237045Y-114875344D01*
X97316005Y-115065971D01*
X97329416Y-115098347D01*
X97455536Y-115304156D01*
X97612299Y-115487701D01*
X97795844Y-115644464D01*
X98001653Y-115770584D01*
X98224657Y-115862955D01*
X98459366Y-115919304D01*
X98700000Y-115938242D01*
X98940634Y-115919304D01*
X99175343Y-115862955D01*
X99398347Y-115770584D01*
X99604156Y-115644464D01*
X99787701Y-115487701D01*
X99944464Y-115304156D01*
X99977651Y-115250000D01*
X103934307Y-115250000D01*
X103934601Y-115254298D01*
X103949068Y-115465806D01*
X103953058Y-115524130D01*
X103953931Y-115528331D01*
X103953932Y-115528338D01*
X103986960Y-115687275D01*
X104008962Y-115793153D01*
X104010399Y-115797196D01*
X104010402Y-115797207D01*
X104099537Y-116048008D01*
X104099540Y-116048015D01*
X104100977Y-116052058D01*
X104102951Y-116055869D01*
X104102953Y-116055872D01*
X104225406Y-116292197D01*
X104225409Y-116292202D01*
X104227389Y-116296023D01*
X104385843Y-116520502D01*
X104573389Y-116721314D01*
X104786531Y-116894718D01*
X105021300Y-117037484D01*
X105273323Y-117146953D01*
X105537904Y-117221085D01*
X105810115Y-117258500D01*
X105814420Y-117258500D01*
X106080580Y-117258500D01*
X106084885Y-117258500D01*
X106357096Y-117221085D01*
X106621677Y-117146953D01*
X106873700Y-117037484D01*
X107108469Y-116894718D01*
X107321611Y-116721314D01*
X107490947Y-116540000D01*
X119214307Y-116540000D01*
X119214601Y-116544298D01*
X119228084Y-116741423D01*
X119233058Y-116814130D01*
X119233931Y-116818331D01*
X119233932Y-116818338D01*
X119275343Y-117017616D01*
X119288962Y-117083153D01*
X119290399Y-117087196D01*
X119290402Y-117087207D01*
X119379537Y-117338008D01*
X119379540Y-117338015D01*
X119380977Y-117342058D01*
X119382951Y-117345869D01*
X119382953Y-117345872D01*
X119505406Y-117582197D01*
X119505409Y-117582202D01*
X119507389Y-117586023D01*
X119665843Y-117810502D01*
X119853389Y-118011314D01*
X120066531Y-118184718D01*
X120301300Y-118327484D01*
X120553323Y-118436953D01*
X120817904Y-118511085D01*
X121090115Y-118548500D01*
X121094420Y-118548500D01*
X121360580Y-118548500D01*
X121364885Y-118548500D01*
X121637096Y-118511085D01*
X121901677Y-118436953D01*
X122153700Y-118327484D01*
X122388469Y-118184718D01*
X122601611Y-118011314D01*
X122789157Y-117810502D01*
X122947611Y-117586023D01*
X123074023Y-117342058D01*
X123166038Y-117083153D01*
X123221942Y-116814130D01*
X123240693Y-116540000D01*
X123221942Y-116265870D01*
X123166038Y-115996847D01*
X123152436Y-115958576D01*
X123075462Y-115741991D01*
X123074023Y-115737942D01*
X122947611Y-115493977D01*
X122789157Y-115269498D01*
X122601611Y-115068686D01*
X122487525Y-114975870D01*
X122391804Y-114897995D01*
X122391801Y-114897993D01*
X122388469Y-114895282D01*
X122153700Y-114752516D01*
X122149759Y-114750804D01*
X122149753Y-114750801D01*
X121905612Y-114644756D01*
X121905609Y-114644755D01*
X121901677Y-114643047D01*
X121897552Y-114641891D01*
X121897543Y-114641888D01*
X121641242Y-114570076D01*
X121641232Y-114570074D01*
X121637096Y-114568915D01*
X121632835Y-114568329D01*
X121632824Y-114568327D01*
X121369153Y-114532086D01*
X121369143Y-114532085D01*
X121364885Y-114531500D01*
X121090115Y-114531500D01*
X121085857Y-114532085D01*
X121085846Y-114532086D01*
X120822175Y-114568327D01*
X120822161Y-114568329D01*
X120817904Y-114568915D01*
X120813769Y-114570073D01*
X120813757Y-114570076D01*
X120557456Y-114641888D01*
X120557442Y-114641892D01*
X120553323Y-114643047D01*
X120549395Y-114644753D01*
X120549387Y-114644756D01*
X120305246Y-114750801D01*
X120305233Y-114750807D01*
X120301300Y-114752516D01*
X120297629Y-114754748D01*
X120297622Y-114754752D01*
X120070204Y-114893048D01*
X120070199Y-114893050D01*
X120066531Y-114895282D01*
X120063204Y-114897988D01*
X120063195Y-114897995D01*
X119856725Y-115065971D01*
X119856717Y-115065978D01*
X119853389Y-115068686D01*
X119850457Y-115071824D01*
X119850452Y-115071830D01*
X119668782Y-115266350D01*
X119668774Y-115266358D01*
X119665843Y-115269498D01*
X119663363Y-115273010D01*
X119663360Y-115273015D01*
X119509875Y-115490454D01*
X119509870Y-115490462D01*
X119507389Y-115493977D01*
X119505413Y-115497790D01*
X119505406Y-115497802D01*
X119382953Y-115734127D01*
X119382949Y-115734136D01*
X119380977Y-115737942D01*
X119379542Y-115741978D01*
X119379537Y-115741991D01*
X119290402Y-115992792D01*
X119290397Y-115992807D01*
X119288962Y-115996847D01*
X119288087Y-116001054D01*
X119288087Y-116001057D01*
X119233932Y-116261661D01*
X119233930Y-116261670D01*
X119233058Y-116265870D01*
X119232764Y-116270157D01*
X119232764Y-116270163D01*
X119215881Y-116516984D01*
X119214307Y-116540000D01*
X107490947Y-116540000D01*
X107509157Y-116520502D01*
X107667611Y-116296023D01*
X107794023Y-116052058D01*
X107886038Y-115793153D01*
X107941942Y-115524130D01*
X107960693Y-115250000D01*
X107941942Y-114975870D01*
X107886038Y-114706847D01*
X107863363Y-114643047D01*
X107795462Y-114451991D01*
X107794023Y-114447942D01*
X107667611Y-114203977D01*
X107509157Y-113979498D01*
X107321611Y-113778686D01*
X107234863Y-113708111D01*
X107111804Y-113607995D01*
X107111801Y-113607993D01*
X107108469Y-113605282D01*
X106873700Y-113462516D01*
X106869759Y-113460804D01*
X106869753Y-113460801D01*
X106625612Y-113354756D01*
X106625609Y-113354755D01*
X106621677Y-113353047D01*
X106617552Y-113351891D01*
X106617543Y-113351888D01*
X106361242Y-113280076D01*
X106361232Y-113280074D01*
X106357096Y-113278915D01*
X106352835Y-113278329D01*
X106352824Y-113278327D01*
X106089153Y-113242086D01*
X106089143Y-113242085D01*
X106084885Y-113241500D01*
X105810115Y-113241500D01*
X105805857Y-113242085D01*
X105805846Y-113242086D01*
X105542175Y-113278327D01*
X105542161Y-113278329D01*
X105537904Y-113278915D01*
X105533769Y-113280073D01*
X105533757Y-113280076D01*
X105277456Y-113351888D01*
X105277442Y-113351892D01*
X105273323Y-113353047D01*
X105269395Y-113354753D01*
X105269387Y-113354756D01*
X105025246Y-113460801D01*
X105025233Y-113460807D01*
X105021300Y-113462516D01*
X105017629Y-113464748D01*
X105017622Y-113464752D01*
X104790204Y-113603048D01*
X104790199Y-113603050D01*
X104786531Y-113605282D01*
X104783204Y-113607988D01*
X104783195Y-113607995D01*
X104576725Y-113775971D01*
X104576717Y-113775978D01*
X104573389Y-113778686D01*
X104570457Y-113781824D01*
X104570452Y-113781830D01*
X104388782Y-113976350D01*
X104388774Y-113976358D01*
X104385843Y-113979498D01*
X104383363Y-113983010D01*
X104383360Y-113983015D01*
X104229875Y-114200454D01*
X104229870Y-114200462D01*
X104227389Y-114203977D01*
X104225413Y-114207790D01*
X104225406Y-114207802D01*
X104102953Y-114444127D01*
X104102949Y-114444136D01*
X104100977Y-114447942D01*
X104099542Y-114451978D01*
X104099537Y-114451991D01*
X104010402Y-114702792D01*
X104010397Y-114702807D01*
X104008962Y-114706847D01*
X104008087Y-114711054D01*
X104008087Y-114711057D01*
X103953932Y-114971661D01*
X103953930Y-114971670D01*
X103953058Y-114975870D01*
X103934307Y-115250000D01*
X99977651Y-115250000D01*
X100070584Y-115098347D01*
X100162955Y-114875343D01*
X100219304Y-114640634D01*
X100238242Y-114400000D01*
X100219304Y-114159366D01*
X100162955Y-113924657D01*
X100070584Y-113701653D01*
X99944464Y-113495844D01*
X99787701Y-113312299D01*
X99604156Y-113155536D01*
X99398347Y-113029416D01*
X99372310Y-113018631D01*
X99175344Y-112937045D01*
X98940634Y-112880696D01*
X98700000Y-112861758D01*
X98459365Y-112880696D01*
X98224655Y-112937045D01*
X98001654Y-113029415D01*
X97924029Y-113076984D01*
X97795844Y-113155536D01*
X97612299Y-113312299D01*
X97455536Y-113495844D01*
X97398946Y-113588191D01*
X97329415Y-113701654D01*
X97237045Y-113924655D01*
X97180696Y-114159365D01*
X97161758Y-114400000D01*
X86755534Y-114400000D01*
X86604357Y-114167207D01*
X86359734Y-113865124D01*
X86084876Y-113590266D01*
X85782793Y-113345643D01*
X85780033Y-113343850D01*
X85780028Y-113343847D01*
X85459564Y-113135736D01*
X85459561Y-113135734D01*
X85456795Y-113133938D01*
X85351921Y-113080502D01*
X85113392Y-112958965D01*
X85113384Y-112958961D01*
X85110453Y-112957468D01*
X85107380Y-112956288D01*
X85107368Y-112956283D01*
X84750652Y-112819353D01*
X84750649Y-112819352D01*
X84747562Y-112818167D01*
X84744376Y-112817313D01*
X84744369Y-112817311D01*
X84375288Y-112718416D01*
X84375279Y-112718414D01*
X84372099Y-112717562D01*
X84368847Y-112717046D01*
X84368838Y-112717045D01*
X83991423Y-112657268D01*
X83991417Y-112657267D01*
X83988176Y-112656754D01*
X83984897Y-112656582D01*
X83984886Y-112656581D01*
X83603301Y-112636584D01*
X83600000Y-112636411D01*
X83596699Y-112636584D01*
X83215113Y-112656581D01*
X83215100Y-112656582D01*
X83211824Y-112656754D01*
X83208584Y-112657267D01*
X83208576Y-112657268D01*
X82831161Y-112717045D01*
X82831148Y-112717047D01*
X82827901Y-112717562D01*
X82824724Y-112718413D01*
X82824711Y-112718416D01*
X82455630Y-112817311D01*
X82455617Y-112817315D01*
X82452438Y-112818167D01*
X82449355Y-112819350D01*
X82449347Y-112819353D01*
X82092631Y-112956283D01*
X82092612Y-112956291D01*
X82089547Y-112957468D01*
X82086622Y-112958958D01*
X82086607Y-112958965D01*
X81746147Y-113132439D01*
X81746139Y-113132443D01*
X81743206Y-113133938D01*
X81740447Y-113135729D01*
X81740436Y-113135736D01*
X81419971Y-113343847D01*
X81419957Y-113343856D01*
X81417207Y-113345643D01*
X81414653Y-113347711D01*
X81414645Y-113347717D01*
X81228383Y-113498550D01*
X81115124Y-113590266D01*
X81112797Y-113592592D01*
X81112787Y-113592602D01*
X80842602Y-113862787D01*
X80842592Y-113862797D01*
X80840266Y-113865124D01*
X80838194Y-113867682D01*
X80838191Y-113867686D01*
X80597717Y-114164645D01*
X80597711Y-114164653D01*
X80595643Y-114167207D01*
X80593856Y-114169957D01*
X80593847Y-114169971D01*
X80385736Y-114490436D01*
X80385729Y-114490447D01*
X80383938Y-114493206D01*
X80382443Y-114496139D01*
X80382439Y-114496147D01*
X80235391Y-114784744D01*
X80186642Y-114836359D01*
X80117727Y-114853425D01*
X80050526Y-114830524D01*
X80006374Y-114774926D01*
X79997124Y-114727622D01*
X79995224Y-111760000D01*
X90526496Y-111760000D01*
X90546458Y-111949929D01*
X90605472Y-112131556D01*
X90700958Y-112296942D01*
X90700960Y-112296944D01*
X90828747Y-112438866D01*
X90983248Y-112551118D01*
X91157712Y-112628794D01*
X91344513Y-112668500D01*
X91344515Y-112668500D01*
X91535485Y-112668500D01*
X91535487Y-112668500D01*
X91722288Y-112628794D01*
X91896752Y-112551118D01*
X92051253Y-112438866D01*
X92179040Y-112296944D01*
X92274527Y-112131556D01*
X92333542Y-111949928D01*
X92342994Y-111860000D01*
X94521449Y-111860000D01*
X94541622Y-112116326D01*
X94601645Y-112366340D01*
X94700041Y-112603890D01*
X94834383Y-112823116D01*
X95001368Y-113018631D01*
X95196883Y-113185616D01*
X95416109Y-113319958D01*
X95416111Y-113319958D01*
X95416113Y-113319960D01*
X95653660Y-113418355D01*
X95903674Y-113478378D01*
X96160000Y-113498551D01*
X96416326Y-113478378D01*
X96666340Y-113418355D01*
X96903887Y-113319960D01*
X97123116Y-113185616D01*
X97318631Y-113018631D01*
X97485616Y-112823116D01*
X97619960Y-112603887D01*
X97718355Y-112366340D01*
X97778378Y-112116326D01*
X97798551Y-111860000D01*
X99601449Y-111860000D01*
X99618750Y-112079836D01*
X99621622Y-112116326D01*
X99681645Y-112366340D01*
X99780041Y-112603890D01*
X99914383Y-112823116D01*
X100081368Y-113018631D01*
X100276883Y-113185616D01*
X100496109Y-113319958D01*
X100496111Y-113319958D01*
X100496113Y-113319960D01*
X100733660Y-113418355D01*
X100983674Y-113478378D01*
X101240000Y-113498551D01*
X101496326Y-113478378D01*
X101746340Y-113418355D01*
X101983887Y-113319960D01*
X102203116Y-113185616D01*
X102398631Y-113018631D01*
X102565616Y-112823116D01*
X102699960Y-112603887D01*
X102798355Y-112366340D01*
X102858378Y-112116326D01*
X102878551Y-111860000D01*
X102874616Y-111810000D01*
X119094307Y-111810000D01*
X119113058Y-112084130D01*
X119168962Y-112353153D01*
X119170399Y-112357196D01*
X119170402Y-112357207D01*
X119259537Y-112608008D01*
X119259540Y-112608015D01*
X119260977Y-112612058D01*
X119262951Y-112615869D01*
X119262953Y-112615872D01*
X119385406Y-112852197D01*
X119385409Y-112852202D01*
X119387389Y-112856023D01*
X119545843Y-113080502D01*
X119733389Y-113281314D01*
X119946531Y-113454718D01*
X120181300Y-113597484D01*
X120433323Y-113706953D01*
X120697904Y-113781085D01*
X120970115Y-113818500D01*
X120974420Y-113818500D01*
X121240580Y-113818500D01*
X121244885Y-113818500D01*
X121517096Y-113781085D01*
X121781677Y-113706953D01*
X122033700Y-113597484D01*
X122268469Y-113454718D01*
X122481611Y-113281314D01*
X122669157Y-113080502D01*
X122827611Y-112856023D01*
X122954023Y-112612058D01*
X123046038Y-112353153D01*
X123101942Y-112084130D01*
X123120693Y-111810000D01*
X123117273Y-111760000D01*
X133706496Y-111760000D01*
X133726458Y-111949929D01*
X133785472Y-112131556D01*
X133880958Y-112296942D01*
X133880960Y-112296944D01*
X134008747Y-112438866D01*
X134163248Y-112551118D01*
X134337712Y-112628794D01*
X134524513Y-112668500D01*
X134524515Y-112668500D01*
X134715485Y-112668500D01*
X134715487Y-112668500D01*
X134902288Y-112628794D01*
X135076752Y-112551118D01*
X135231253Y-112438866D01*
X135359040Y-112296944D01*
X135454527Y-112131556D01*
X135513542Y-111949928D01*
X135533504Y-111760000D01*
X135513542Y-111570072D01*
X135454527Y-111388444D01*
X135454527Y-111388443D01*
X135359041Y-111223057D01*
X135231252Y-111081133D01*
X135076753Y-110968883D01*
X135076752Y-110968882D01*
X134902288Y-110891206D01*
X134715487Y-110851500D01*
X134524513Y-110851500D01*
X134399978Y-110877970D01*
X134337711Y-110891206D01*
X134163246Y-110968883D01*
X134008747Y-111081133D01*
X133880958Y-111223057D01*
X133785472Y-111388443D01*
X133726458Y-111570070D01*
X133706496Y-111760000D01*
X123117273Y-111760000D01*
X123101942Y-111535870D01*
X123046038Y-111266847D01*
X122980035Y-111081134D01*
X122955462Y-111011991D01*
X122954023Y-111007942D01*
X122827611Y-110763977D01*
X122669157Y-110539498D01*
X122481611Y-110338686D01*
X122382328Y-110257913D01*
X122271804Y-110167995D01*
X122271801Y-110167993D01*
X122268469Y-110165282D01*
X122033700Y-110022516D01*
X122029759Y-110020804D01*
X122029753Y-110020801D01*
X121785612Y-109914756D01*
X121785609Y-109914755D01*
X121781677Y-109913047D01*
X121777552Y-109911891D01*
X121777543Y-109911888D01*
X121521242Y-109840076D01*
X121521232Y-109840074D01*
X121517096Y-109838915D01*
X121512835Y-109838329D01*
X121512824Y-109838327D01*
X121249153Y-109802086D01*
X121249143Y-109802085D01*
X121244885Y-109801500D01*
X120970115Y-109801500D01*
X120965857Y-109802085D01*
X120965846Y-109802086D01*
X120702175Y-109838327D01*
X120702161Y-109838329D01*
X120697904Y-109838915D01*
X120693769Y-109840073D01*
X120693757Y-109840076D01*
X120437456Y-109911888D01*
X120437442Y-109911892D01*
X120433323Y-109913047D01*
X120429395Y-109914753D01*
X120429387Y-109914756D01*
X120185246Y-110020801D01*
X120185233Y-110020807D01*
X120181300Y-110022516D01*
X120177629Y-110024748D01*
X120177622Y-110024752D01*
X119950204Y-110163048D01*
X119950199Y-110163050D01*
X119946531Y-110165282D01*
X119943204Y-110167988D01*
X119943195Y-110167995D01*
X119736725Y-110335971D01*
X119736717Y-110335978D01*
X119733389Y-110338686D01*
X119730457Y-110341824D01*
X119730452Y-110341830D01*
X119548782Y-110536350D01*
X119548774Y-110536358D01*
X119545843Y-110539498D01*
X119543363Y-110543010D01*
X119543360Y-110543015D01*
X119389875Y-110760454D01*
X119389870Y-110760462D01*
X119387389Y-110763977D01*
X119385413Y-110767790D01*
X119385406Y-110767802D01*
X119262953Y-111004127D01*
X119262949Y-111004136D01*
X119260977Y-111007942D01*
X119259542Y-111011978D01*
X119259537Y-111011991D01*
X119170402Y-111262792D01*
X119170397Y-111262807D01*
X119168962Y-111266847D01*
X119168087Y-111271054D01*
X119168087Y-111271057D01*
X119113932Y-111531661D01*
X119113930Y-111531670D01*
X119113058Y-111535870D01*
X119112764Y-111540157D01*
X119112764Y-111540163D01*
X119108420Y-111603673D01*
X119094307Y-111810000D01*
X102874616Y-111810000D01*
X102858378Y-111603674D01*
X102798355Y-111353660D01*
X102699960Y-111116113D01*
X102678525Y-111081134D01*
X102565616Y-110896883D01*
X102398631Y-110701368D01*
X102203116Y-110534383D01*
X101983890Y-110400041D01*
X101746340Y-110301645D01*
X101496326Y-110241622D01*
X101240000Y-110221449D01*
X100983673Y-110241622D01*
X100733659Y-110301645D01*
X100496109Y-110400041D01*
X100276883Y-110534383D01*
X100081368Y-110701368D01*
X99914383Y-110896883D01*
X99780041Y-111116109D01*
X99681645Y-111353659D01*
X99629690Y-111570070D01*
X99621622Y-111603674D01*
X99601449Y-111860000D01*
X97798551Y-111860000D01*
X97778378Y-111603674D01*
X97718355Y-111353660D01*
X97619960Y-111116113D01*
X97598525Y-111081134D01*
X97485616Y-110896883D01*
X97318631Y-110701368D01*
X97123116Y-110534383D01*
X96903890Y-110400041D01*
X96666340Y-110301645D01*
X96416326Y-110241622D01*
X96160000Y-110221449D01*
X95903673Y-110241622D01*
X95653659Y-110301645D01*
X95416109Y-110400041D01*
X95196883Y-110534383D01*
X95001368Y-110701368D01*
X94834383Y-110896883D01*
X94700041Y-111116109D01*
X94601645Y-111353659D01*
X94541622Y-111603673D01*
X94521449Y-111860000D01*
X92342994Y-111860000D01*
X92353504Y-111760000D01*
X92333542Y-111570072D01*
X92274527Y-111388444D01*
X92274527Y-111388443D01*
X92179041Y-111223057D01*
X92051252Y-111081133D01*
X91896753Y-110968883D01*
X91896752Y-110968882D01*
X91722288Y-110891206D01*
X91535487Y-110851500D01*
X91344513Y-110851500D01*
X91219978Y-110877970D01*
X91157711Y-110891206D01*
X90983246Y-110968883D01*
X90828747Y-111081133D01*
X90700958Y-111223057D01*
X90605472Y-111388443D01*
X90546458Y-111570070D01*
X90526496Y-111760000D01*
X79995224Y-111760000D01*
X79993227Y-108639857D01*
X80013185Y-108571726D01*
X80066811Y-108525199D01*
X80137079Y-108515050D01*
X80201678Y-108544502D01*
X80226659Y-108573944D01*
X80309983Y-108709915D01*
X80476968Y-108905431D01*
X80672483Y-109072416D01*
X80891709Y-109206758D01*
X80891711Y-109206758D01*
X80891713Y-109206760D01*
X81129260Y-109305155D01*
X81379274Y-109365178D01*
X81635600Y-109385351D01*
X81891926Y-109365178D01*
X82141940Y-109305155D01*
X82379487Y-109206760D01*
X82598716Y-109072416D01*
X82794231Y-108905431D01*
X82961216Y-108709916D01*
X83095560Y-108490687D01*
X83193955Y-108253140D01*
X83253978Y-108003126D01*
X83274151Y-107746800D01*
X85077049Y-107746800D01*
X85097222Y-108003126D01*
X85157245Y-108253140D01*
X85255641Y-108490690D01*
X85389983Y-108709916D01*
X85556968Y-108905431D01*
X85752483Y-109072416D01*
X85971709Y-109206758D01*
X85971711Y-109206758D01*
X85971713Y-109206760D01*
X86209260Y-109305155D01*
X86459274Y-109365178D01*
X86715600Y-109385351D01*
X86971926Y-109365178D01*
X87221940Y-109305155D01*
X87459487Y-109206760D01*
X87678716Y-109072416D01*
X87874231Y-108905431D01*
X88041216Y-108709916D01*
X88175560Y-108490687D01*
X88273955Y-108253140D01*
X88333978Y-108003126D01*
X88338159Y-107950000D01*
X89256496Y-107950000D01*
X89276458Y-108139929D01*
X89335472Y-108321556D01*
X89430958Y-108486942D01*
X89430960Y-108486944D01*
X89558747Y-108628866D01*
X89713248Y-108741118D01*
X89887712Y-108818794D01*
X90074513Y-108858500D01*
X90074515Y-108858500D01*
X90265485Y-108858500D01*
X90265487Y-108858500D01*
X90452288Y-108818794D01*
X90626752Y-108741118D01*
X90781253Y-108628866D01*
X90909040Y-108486944D01*
X91004527Y-108321556D01*
X91063542Y-108139928D01*
X91083504Y-107950000D01*
X93066496Y-107950000D01*
X93073419Y-108015872D01*
X93086458Y-108139929D01*
X93145472Y-108321556D01*
X93240958Y-108486942D01*
X93240960Y-108486944D01*
X93368747Y-108628866D01*
X93523248Y-108741118D01*
X93697712Y-108818794D01*
X93884513Y-108858500D01*
X93884515Y-108858500D01*
X94075485Y-108858500D01*
X94075487Y-108858500D01*
X94262288Y-108818794D01*
X94436752Y-108741118D01*
X94591253Y-108628866D01*
X94719040Y-108486944D01*
X94814527Y-108321556D01*
X94873542Y-108139928D01*
X94893504Y-107950000D01*
X96876496Y-107950000D01*
X96883419Y-108015872D01*
X96896458Y-108139929D01*
X96955472Y-108321556D01*
X97050958Y-108486942D01*
X97050960Y-108486944D01*
X97178747Y-108628866D01*
X97333248Y-108741118D01*
X97507712Y-108818794D01*
X97694513Y-108858500D01*
X97694515Y-108858500D01*
X97885485Y-108858500D01*
X97885487Y-108858500D01*
X98072288Y-108818794D01*
X98246752Y-108741118D01*
X98401253Y-108628866D01*
X98529040Y-108486944D01*
X98624527Y-108321556D01*
X98683542Y-108139928D01*
X98703504Y-107950000D01*
X100686496Y-107950000D01*
X100693419Y-108015872D01*
X100706458Y-108139929D01*
X100765472Y-108321556D01*
X100860958Y-108486942D01*
X100860960Y-108486944D01*
X100988747Y-108628866D01*
X101143248Y-108741118D01*
X101317712Y-108818794D01*
X101504513Y-108858500D01*
X101504515Y-108858500D01*
X101695485Y-108858500D01*
X101695487Y-108858500D01*
X101882288Y-108818794D01*
X102056752Y-108741118D01*
X102211253Y-108628866D01*
X102339040Y-108486944D01*
X102434527Y-108321556D01*
X102457777Y-108250000D01*
X103934307Y-108250000D01*
X103934601Y-108254298D01*
X103950770Y-108490690D01*
X103953058Y-108524130D01*
X103953931Y-108528331D01*
X103953932Y-108528338D01*
X103998149Y-108741118D01*
X104008962Y-108793153D01*
X104010399Y-108797196D01*
X104010402Y-108797207D01*
X104099537Y-109048008D01*
X104099540Y-109048015D01*
X104100977Y-109052058D01*
X104102951Y-109055869D01*
X104102953Y-109055872D01*
X104225406Y-109292197D01*
X104225409Y-109292202D01*
X104227389Y-109296023D01*
X104385843Y-109520502D01*
X104573389Y-109721314D01*
X104786531Y-109894718D01*
X105021300Y-110037484D01*
X105273323Y-110146953D01*
X105537904Y-110221085D01*
X105810115Y-110258500D01*
X105814420Y-110258500D01*
X106080580Y-110258500D01*
X106084885Y-110258500D01*
X106357096Y-110221085D01*
X106621677Y-110146953D01*
X106873700Y-110037484D01*
X107108469Y-109894718D01*
X107321611Y-109721314D01*
X107509157Y-109520502D01*
X107667611Y-109296023D01*
X107794023Y-109052058D01*
X107886038Y-108793153D01*
X107941942Y-108524130D01*
X107960693Y-108250000D01*
X107941942Y-107975870D01*
X107886038Y-107706847D01*
X107840403Y-107578444D01*
X107795462Y-107451991D01*
X107794023Y-107447942D01*
X107670732Y-107210000D01*
X118904307Y-107210000D01*
X118904601Y-107214298D01*
X118920859Y-107451991D01*
X118923058Y-107484130D01*
X118923931Y-107488331D01*
X118923932Y-107488338D01*
X118942657Y-107578444D01*
X118978962Y-107753153D01*
X118980399Y-107757196D01*
X118980402Y-107757207D01*
X119069537Y-108008008D01*
X119069540Y-108008015D01*
X119070977Y-108012058D01*
X119072951Y-108015869D01*
X119072953Y-108015872D01*
X119195406Y-108252197D01*
X119195409Y-108252202D01*
X119197389Y-108256023D01*
X119355843Y-108480502D01*
X119358781Y-108483648D01*
X119358782Y-108483649D01*
X119396589Y-108524130D01*
X119543389Y-108681314D01*
X119546725Y-108684028D01*
X119712374Y-108818794D01*
X119756531Y-108854718D01*
X119991300Y-108997484D01*
X120243323Y-109106953D01*
X120507904Y-109181085D01*
X120780115Y-109218500D01*
X120784420Y-109218500D01*
X121050580Y-109218500D01*
X121054885Y-109218500D01*
X121327096Y-109181085D01*
X121591677Y-109106953D01*
X121843700Y-108997484D01*
X122078469Y-108854718D01*
X122291611Y-108681314D01*
X122479157Y-108480502D01*
X122637611Y-108256023D01*
X122764023Y-108012058D01*
X122856038Y-107753153D01*
X122911942Y-107484130D01*
X122930693Y-107210000D01*
X122911942Y-106935870D01*
X122858771Y-106679999D01*
X133706496Y-106679999D01*
X133726458Y-106869929D01*
X133785472Y-107051556D01*
X133880958Y-107216942D01*
X133880960Y-107216944D01*
X134008747Y-107358866D01*
X134163248Y-107471118D01*
X134337712Y-107548794D01*
X134524513Y-107588500D01*
X134524515Y-107588500D01*
X134715485Y-107588500D01*
X134715487Y-107588500D01*
X134902288Y-107548794D01*
X135076752Y-107471118D01*
X135231253Y-107358866D01*
X135359040Y-107216944D01*
X135454527Y-107051556D01*
X135513542Y-106869928D01*
X135533504Y-106680000D01*
X135513542Y-106490072D01*
X135454527Y-106308444D01*
X135454527Y-106308443D01*
X135359041Y-106143057D01*
X135231252Y-106001133D01*
X135142086Y-105936350D01*
X135076752Y-105888882D01*
X134902288Y-105811206D01*
X134715487Y-105771500D01*
X134524513Y-105771500D01*
X134399979Y-105797970D01*
X134337711Y-105811206D01*
X134163246Y-105888883D01*
X134008747Y-106001133D01*
X133880958Y-106143057D01*
X133785472Y-106308443D01*
X133726458Y-106490070D01*
X133706496Y-106679999D01*
X122858771Y-106679999D01*
X122856038Y-106666847D01*
X122828075Y-106588168D01*
X122765462Y-106411991D01*
X122764023Y-106407942D01*
X122637611Y-106163977D01*
X122479157Y-105939498D01*
X122291611Y-105738686D01*
X122222112Y-105682144D01*
X122081804Y-105567995D01*
X122081801Y-105567993D01*
X122078469Y-105565282D01*
X121843700Y-105422516D01*
X121839759Y-105420804D01*
X121839753Y-105420801D01*
X121595612Y-105314756D01*
X121595609Y-105314755D01*
X121591677Y-105313047D01*
X121587552Y-105311891D01*
X121587543Y-105311888D01*
X121331242Y-105240076D01*
X121331232Y-105240074D01*
X121327096Y-105238915D01*
X121322835Y-105238329D01*
X121322824Y-105238327D01*
X121059153Y-105202086D01*
X121059143Y-105202085D01*
X121054885Y-105201500D01*
X120780115Y-105201500D01*
X120775857Y-105202085D01*
X120775846Y-105202086D01*
X120512175Y-105238327D01*
X120512161Y-105238329D01*
X120507904Y-105238915D01*
X120503769Y-105240073D01*
X120503757Y-105240076D01*
X120247456Y-105311888D01*
X120247442Y-105311892D01*
X120243323Y-105313047D01*
X120239395Y-105314753D01*
X120239387Y-105314756D01*
X119995246Y-105420801D01*
X119995233Y-105420807D01*
X119991300Y-105422516D01*
X119987629Y-105424748D01*
X119987622Y-105424752D01*
X119760204Y-105563048D01*
X119760199Y-105563050D01*
X119756531Y-105565282D01*
X119753204Y-105567988D01*
X119753195Y-105567995D01*
X119546725Y-105735971D01*
X119546717Y-105735978D01*
X119543389Y-105738686D01*
X119540457Y-105741824D01*
X119540452Y-105741830D01*
X119358782Y-105936350D01*
X119358774Y-105936358D01*
X119355843Y-105939498D01*
X119353363Y-105943010D01*
X119353360Y-105943015D01*
X119199875Y-106160454D01*
X119199870Y-106160462D01*
X119197389Y-106163977D01*
X119195413Y-106167790D01*
X119195406Y-106167802D01*
X119072953Y-106404127D01*
X119072949Y-106404136D01*
X119070977Y-106407942D01*
X119069542Y-106411978D01*
X119069537Y-106411991D01*
X118980402Y-106662792D01*
X118980397Y-106662807D01*
X118978962Y-106666847D01*
X118978087Y-106671054D01*
X118978087Y-106671057D01*
X118923932Y-106931661D01*
X118923930Y-106931670D01*
X118923058Y-106935870D01*
X118922764Y-106940157D01*
X118922764Y-106940163D01*
X118907803Y-107158883D01*
X118904307Y-107210000D01*
X107670732Y-107210000D01*
X107667611Y-107203977D01*
X107509157Y-106979498D01*
X107321611Y-106778686D01*
X107200310Y-106680000D01*
X107111804Y-106607995D01*
X107111801Y-106607993D01*
X107108469Y-106605282D01*
X106873700Y-106462516D01*
X106869759Y-106460804D01*
X106869753Y-106460801D01*
X106625612Y-106354756D01*
X106625609Y-106354755D01*
X106621677Y-106353047D01*
X106617552Y-106351891D01*
X106617543Y-106351888D01*
X106361242Y-106280076D01*
X106361232Y-106280074D01*
X106357096Y-106278915D01*
X106352835Y-106278329D01*
X106352824Y-106278327D01*
X106089153Y-106242086D01*
X106089143Y-106242085D01*
X106084885Y-106241500D01*
X105810115Y-106241500D01*
X105805857Y-106242085D01*
X105805846Y-106242086D01*
X105542175Y-106278327D01*
X105542161Y-106278329D01*
X105537904Y-106278915D01*
X105533769Y-106280073D01*
X105533757Y-106280076D01*
X105277456Y-106351888D01*
X105277442Y-106351892D01*
X105273323Y-106353047D01*
X105269395Y-106354753D01*
X105269387Y-106354756D01*
X105025246Y-106460801D01*
X105025233Y-106460807D01*
X105021300Y-106462516D01*
X105017629Y-106464748D01*
X105017622Y-106464752D01*
X104790204Y-106603048D01*
X104790199Y-106603050D01*
X104786531Y-106605282D01*
X104783204Y-106607988D01*
X104783195Y-106607995D01*
X104576725Y-106775971D01*
X104576717Y-106775978D01*
X104573389Y-106778686D01*
X104570457Y-106781824D01*
X104570452Y-106781830D01*
X104388782Y-106976350D01*
X104388774Y-106976358D01*
X104385843Y-106979498D01*
X104383363Y-106983010D01*
X104383360Y-106983015D01*
X104229875Y-107200454D01*
X104229870Y-107200462D01*
X104227389Y-107203977D01*
X104225413Y-107207790D01*
X104225406Y-107207802D01*
X104102953Y-107444127D01*
X104102949Y-107444136D01*
X104100977Y-107447942D01*
X104099542Y-107451978D01*
X104099537Y-107451991D01*
X104010402Y-107702792D01*
X104010397Y-107702807D01*
X104008962Y-107706847D01*
X104008087Y-107711054D01*
X104008087Y-107711057D01*
X103953932Y-107971661D01*
X103953930Y-107971670D01*
X103953058Y-107975870D01*
X103952764Y-107980157D01*
X103952764Y-107980163D01*
X103941836Y-108139928D01*
X103934307Y-108250000D01*
X102457777Y-108250000D01*
X102493542Y-108139928D01*
X102513504Y-107950000D01*
X102493542Y-107760072D01*
X102462931Y-107665862D01*
X102434527Y-107578443D01*
X102339041Y-107413057D01*
X102211252Y-107271133D01*
X102056753Y-107158883D01*
X102056752Y-107158882D01*
X101882288Y-107081206D01*
X101695487Y-107041500D01*
X101504513Y-107041500D01*
X101379979Y-107067970D01*
X101317711Y-107081206D01*
X101143246Y-107158883D01*
X100988747Y-107271133D01*
X100860958Y-107413057D01*
X100765472Y-107578443D01*
X100706458Y-107760070D01*
X100706457Y-107760072D01*
X100706458Y-107760072D01*
X100686496Y-107950000D01*
X98703504Y-107950000D01*
X98683542Y-107760072D01*
X98652931Y-107665862D01*
X98624527Y-107578443D01*
X98529041Y-107413057D01*
X98401252Y-107271133D01*
X98246753Y-107158883D01*
X98246752Y-107158882D01*
X98072288Y-107081206D01*
X97885487Y-107041500D01*
X97694513Y-107041500D01*
X97569979Y-107067970D01*
X97507711Y-107081206D01*
X97333246Y-107158883D01*
X97178747Y-107271133D01*
X97050958Y-107413057D01*
X96955472Y-107578443D01*
X96896458Y-107760070D01*
X96896457Y-107760072D01*
X96896458Y-107760072D01*
X96876496Y-107950000D01*
X94893504Y-107950000D01*
X94873542Y-107760072D01*
X94842931Y-107665862D01*
X94814527Y-107578443D01*
X94719041Y-107413057D01*
X94591252Y-107271133D01*
X94436753Y-107158883D01*
X94436752Y-107158882D01*
X94262288Y-107081206D01*
X94075487Y-107041500D01*
X93884513Y-107041500D01*
X93759978Y-107067970D01*
X93697711Y-107081206D01*
X93523246Y-107158883D01*
X93368747Y-107271133D01*
X93240958Y-107413057D01*
X93145472Y-107578443D01*
X93086458Y-107760070D01*
X93086457Y-107760072D01*
X93086458Y-107760072D01*
X93066496Y-107950000D01*
X91083504Y-107950000D01*
X91063542Y-107760072D01*
X91032931Y-107665862D01*
X91004527Y-107578443D01*
X90909041Y-107413057D01*
X90781252Y-107271133D01*
X90626753Y-107158883D01*
X90626752Y-107158882D01*
X90452288Y-107081206D01*
X90265487Y-107041500D01*
X90074513Y-107041500D01*
X89949978Y-107067970D01*
X89887711Y-107081206D01*
X89713246Y-107158883D01*
X89558747Y-107271133D01*
X89430958Y-107413057D01*
X89335472Y-107578443D01*
X89276458Y-107760070D01*
X89256496Y-107950000D01*
X88338159Y-107950000D01*
X88354151Y-107746800D01*
X88333978Y-107490474D01*
X88273955Y-107240460D01*
X88175560Y-107002913D01*
X88175558Y-107002909D01*
X88041216Y-106783683D01*
X87874231Y-106588168D01*
X87678716Y-106421183D01*
X87459490Y-106286841D01*
X87221940Y-106188445D01*
X86971926Y-106128422D01*
X86715600Y-106108249D01*
X86715599Y-106108249D01*
X86459273Y-106128422D01*
X86209259Y-106188445D01*
X85971709Y-106286841D01*
X85752483Y-106421183D01*
X85556968Y-106588168D01*
X85389983Y-106783683D01*
X85255641Y-107002909D01*
X85157245Y-107240459D01*
X85097222Y-107490473D01*
X85077049Y-107746800D01*
X83274151Y-107746800D01*
X83253978Y-107490474D01*
X83193955Y-107240460D01*
X83095560Y-107002913D01*
X83095558Y-107002909D01*
X82961216Y-106783683D01*
X82794231Y-106588168D01*
X82598716Y-106421183D01*
X82379490Y-106286841D01*
X82141940Y-106188445D01*
X81891926Y-106128422D01*
X81635600Y-106108249D01*
X81379273Y-106128422D01*
X81129259Y-106188445D01*
X80891709Y-106286841D01*
X80672483Y-106421183D01*
X80476968Y-106588168D01*
X80309985Y-106783681D01*
X80225517Y-106921520D01*
X80172869Y-106969151D01*
X80102828Y-106980757D01*
X80037630Y-106952653D01*
X79997977Y-106893763D01*
X79992085Y-106855768D01*
X79991030Y-105206800D01*
X82637358Y-105206800D01*
X82656296Y-105447434D01*
X82712645Y-105682144D01*
X82766104Y-105811206D01*
X82805016Y-105905147D01*
X82931136Y-106110956D01*
X83087899Y-106294501D01*
X83271444Y-106451264D01*
X83477253Y-106577384D01*
X83700257Y-106669755D01*
X83934966Y-106726104D01*
X84175600Y-106745042D01*
X84416234Y-106726104D01*
X84650943Y-106669755D01*
X84873947Y-106577384D01*
X85079756Y-106451264D01*
X85263301Y-106294501D01*
X85420064Y-106110956D01*
X85546184Y-105905147D01*
X85638555Y-105682143D01*
X85694904Y-105447434D01*
X85713842Y-105206800D01*
X85694904Y-104966166D01*
X85638555Y-104731457D01*
X85546184Y-104508453D01*
X85420064Y-104302644D01*
X85263301Y-104119099D01*
X85079756Y-103962336D01*
X84873947Y-103836216D01*
X84847910Y-103825431D01*
X84650944Y-103743845D01*
X84416234Y-103687496D01*
X84416233Y-103687495D01*
X84175600Y-103668558D01*
X84175599Y-103668558D01*
X83934965Y-103687496D01*
X83700255Y-103743845D01*
X83477254Y-103836215D01*
X83404489Y-103880806D01*
X83271444Y-103962336D01*
X83087899Y-104119099D01*
X82931136Y-104302644D01*
X82884931Y-104378044D01*
X82805015Y-104508454D01*
X82712645Y-104731455D01*
X82656296Y-104966165D01*
X82637358Y-105206800D01*
X79991030Y-105206800D01*
X79989972Y-103554546D01*
X80009930Y-103486414D01*
X80063556Y-103439887D01*
X80133824Y-103429738D01*
X80198423Y-103459190D01*
X80223404Y-103488632D01*
X80309983Y-103629915D01*
X80476968Y-103825431D01*
X80672483Y-103992416D01*
X80891709Y-104126758D01*
X80891711Y-104126758D01*
X80891713Y-104126760D01*
X81129260Y-104225155D01*
X81379274Y-104285178D01*
X81635600Y-104305351D01*
X81891926Y-104285178D01*
X82141940Y-104225155D01*
X82379487Y-104126760D01*
X82598716Y-103992416D01*
X82794231Y-103825431D01*
X82961216Y-103629916D01*
X83095560Y-103410687D01*
X83193955Y-103173140D01*
X83253978Y-102923126D01*
X83274151Y-102666800D01*
X83274151Y-102666799D01*
X85077049Y-102666799D01*
X85097222Y-102923126D01*
X85157245Y-103173140D01*
X85255641Y-103410690D01*
X85389983Y-103629916D01*
X85556968Y-103825431D01*
X85752483Y-103992416D01*
X85971709Y-104126758D01*
X85971711Y-104126758D01*
X85971713Y-104126760D01*
X86209260Y-104225155D01*
X86459274Y-104285178D01*
X86715600Y-104305351D01*
X86971926Y-104285178D01*
X87221940Y-104225155D01*
X87427525Y-104139999D01*
X104496496Y-104139999D01*
X104516458Y-104329929D01*
X104575472Y-104511556D01*
X104670958Y-104676942D01*
X104670960Y-104676944D01*
X104798747Y-104818866D01*
X104953248Y-104931118D01*
X105127712Y-105008794D01*
X105314513Y-105048500D01*
X105314515Y-105048500D01*
X105505485Y-105048500D01*
X105505487Y-105048500D01*
X105692288Y-105008794D01*
X105866752Y-104931118D01*
X106021253Y-104818866D01*
X106149040Y-104676944D01*
X106244527Y-104511556D01*
X106303542Y-104329928D01*
X106323504Y-104140000D01*
X108306496Y-104140000D01*
X108326458Y-104329929D01*
X108385472Y-104511556D01*
X108480958Y-104676942D01*
X108480960Y-104676944D01*
X108608747Y-104818866D01*
X108763248Y-104931118D01*
X108937712Y-105008794D01*
X109124513Y-105048500D01*
X109124515Y-105048500D01*
X109315485Y-105048500D01*
X109315487Y-105048500D01*
X109502288Y-105008794D01*
X109676752Y-104931118D01*
X109831253Y-104818866D01*
X109959040Y-104676944D01*
X110054527Y-104511556D01*
X110113542Y-104329928D01*
X110133504Y-104140000D01*
X110133504Y-104139999D01*
X112116496Y-104139999D01*
X112136458Y-104329929D01*
X112195472Y-104511556D01*
X112290958Y-104676942D01*
X112290960Y-104676944D01*
X112418747Y-104818866D01*
X112573248Y-104931118D01*
X112747712Y-105008794D01*
X112934513Y-105048500D01*
X112934515Y-105048500D01*
X113125485Y-105048500D01*
X113125487Y-105048500D01*
X113312288Y-105008794D01*
X113486752Y-104931118D01*
X113641253Y-104818866D01*
X113769040Y-104676944D01*
X113864527Y-104511556D01*
X113923542Y-104329928D01*
X113943504Y-104140000D01*
X115926496Y-104140000D01*
X115946458Y-104329929D01*
X116005472Y-104511556D01*
X116100958Y-104676942D01*
X116100960Y-104676944D01*
X116228747Y-104818866D01*
X116383248Y-104931118D01*
X116557712Y-105008794D01*
X116744513Y-105048500D01*
X116744515Y-105048500D01*
X116935485Y-105048500D01*
X116935487Y-105048500D01*
X117122288Y-105008794D01*
X117296752Y-104931118D01*
X117451253Y-104818866D01*
X117513620Y-104749600D01*
X128524896Y-104749600D01*
X128544858Y-104939529D01*
X128603872Y-105121156D01*
X128699358Y-105286542D01*
X128699360Y-105286544D01*
X128827147Y-105428466D01*
X128981648Y-105540718D01*
X129156112Y-105618394D01*
X129342913Y-105658100D01*
X129342915Y-105658100D01*
X129533885Y-105658100D01*
X129533887Y-105658100D01*
X129720688Y-105618394D01*
X129895152Y-105540718D01*
X130049653Y-105428466D01*
X130177440Y-105286544D01*
X130272927Y-105121156D01*
X130331942Y-104939528D01*
X130351904Y-104749600D01*
X130331942Y-104559672D01*
X130272927Y-104378044D01*
X130272927Y-104378043D01*
X130177441Y-104212657D01*
X130049652Y-104070733D01*
X129900458Y-103962337D01*
X129895152Y-103958482D01*
X129720688Y-103880806D01*
X129533887Y-103841100D01*
X129342913Y-103841100D01*
X129218379Y-103867570D01*
X129156111Y-103880806D01*
X128981646Y-103958483D01*
X128827147Y-104070733D01*
X128699358Y-104212657D01*
X128603872Y-104378043D01*
X128544858Y-104559670D01*
X128524896Y-104749600D01*
X117513620Y-104749600D01*
X117579040Y-104676944D01*
X117674527Y-104511556D01*
X117733542Y-104329928D01*
X117753504Y-104140000D01*
X117733542Y-103950072D01*
X117674527Y-103768444D01*
X117674527Y-103768443D01*
X117579041Y-103603057D01*
X117451252Y-103461133D01*
X117296753Y-103348883D01*
X117296752Y-103348882D01*
X117122288Y-103271206D01*
X116935487Y-103231500D01*
X116744513Y-103231500D01*
X116619979Y-103257970D01*
X116557711Y-103271206D01*
X116383246Y-103348883D01*
X116228747Y-103461133D01*
X116100958Y-103603057D01*
X116005472Y-103768443D01*
X115946458Y-103950070D01*
X115926496Y-104140000D01*
X113943504Y-104140000D01*
X113923542Y-103950072D01*
X113864527Y-103768444D01*
X113864527Y-103768443D01*
X113769041Y-103603057D01*
X113641252Y-103461133D01*
X113486753Y-103348883D01*
X113486752Y-103348882D01*
X113312288Y-103271206D01*
X113125487Y-103231500D01*
X112934513Y-103231500D01*
X112809979Y-103257970D01*
X112747711Y-103271206D01*
X112573246Y-103348883D01*
X112418747Y-103461133D01*
X112290958Y-103603057D01*
X112195472Y-103768443D01*
X112136458Y-103950070D01*
X112116496Y-104139999D01*
X110133504Y-104139999D01*
X110113542Y-103950072D01*
X110054527Y-103768444D01*
X110054527Y-103768443D01*
X109959041Y-103603057D01*
X109831252Y-103461133D01*
X109676753Y-103348883D01*
X109676752Y-103348882D01*
X109502288Y-103271206D01*
X109315487Y-103231500D01*
X109124513Y-103231500D01*
X108999978Y-103257970D01*
X108937711Y-103271206D01*
X108763246Y-103348883D01*
X108608747Y-103461133D01*
X108480958Y-103603057D01*
X108385472Y-103768443D01*
X108326458Y-103950070D01*
X108306496Y-104140000D01*
X106323504Y-104140000D01*
X106303542Y-103950072D01*
X106244527Y-103768444D01*
X106244527Y-103768443D01*
X106149041Y-103603057D01*
X106021252Y-103461133D01*
X105866753Y-103348883D01*
X105866752Y-103348882D01*
X105692288Y-103271206D01*
X105505487Y-103231500D01*
X105314513Y-103231500D01*
X105189978Y-103257970D01*
X105127711Y-103271206D01*
X104953246Y-103348883D01*
X104798747Y-103461133D01*
X104670958Y-103603057D01*
X104575472Y-103768443D01*
X104516458Y-103950070D01*
X104496496Y-104139999D01*
X87427525Y-104139999D01*
X87459487Y-104126760D01*
X87678716Y-103992416D01*
X87874231Y-103825431D01*
X88041216Y-103629916D01*
X88175560Y-103410687D01*
X88273955Y-103173140D01*
X88333978Y-102923126D01*
X88354151Y-102666800D01*
X88333978Y-102410474D01*
X88273955Y-102160460D01*
X88175560Y-101922913D01*
X88175558Y-101922909D01*
X88041216Y-101703683D01*
X87952662Y-101599999D01*
X133706496Y-101599999D01*
X133726458Y-101789929D01*
X133785472Y-101971556D01*
X133880958Y-102136942D01*
X133880960Y-102136944D01*
X134008747Y-102278866D01*
X134163248Y-102391118D01*
X134337712Y-102468794D01*
X134524513Y-102508500D01*
X134524515Y-102508500D01*
X134715485Y-102508500D01*
X134715487Y-102508500D01*
X134902288Y-102468794D01*
X135076752Y-102391118D01*
X135231253Y-102278866D01*
X135359040Y-102136944D01*
X135454527Y-101971556D01*
X135513542Y-101789928D01*
X135533504Y-101600000D01*
X135513542Y-101410072D01*
X135454527Y-101228444D01*
X135454527Y-101228443D01*
X135359041Y-101063057D01*
X135231252Y-100921133D01*
X135076753Y-100808883D01*
X135076752Y-100808882D01*
X134902288Y-100731206D01*
X134715487Y-100691500D01*
X134524513Y-100691500D01*
X134399979Y-100717970D01*
X134337711Y-100731206D01*
X134163246Y-100808883D01*
X134008747Y-100921133D01*
X133880958Y-101063057D01*
X133785472Y-101228443D01*
X133726458Y-101410070D01*
X133706496Y-101599999D01*
X87952662Y-101599999D01*
X87874231Y-101508168D01*
X87678716Y-101341183D01*
X87459490Y-101206841D01*
X87221940Y-101108445D01*
X86971926Y-101048422D01*
X86715600Y-101028249D01*
X86459273Y-101048422D01*
X86209259Y-101108445D01*
X85971709Y-101206841D01*
X85752483Y-101341183D01*
X85556968Y-101508168D01*
X85389983Y-101703683D01*
X85255641Y-101922909D01*
X85157245Y-102160459D01*
X85097222Y-102410473D01*
X85077049Y-102666799D01*
X83274151Y-102666799D01*
X83253978Y-102410474D01*
X83193955Y-102160460D01*
X83095560Y-101922913D01*
X83095558Y-101922909D01*
X82961216Y-101703683D01*
X82794231Y-101508168D01*
X82598716Y-101341183D01*
X82379490Y-101206841D01*
X82141940Y-101108445D01*
X81891926Y-101048422D01*
X81635600Y-101028249D01*
X81379273Y-101048422D01*
X81129259Y-101108445D01*
X80891709Y-101206841D01*
X80672483Y-101341183D01*
X80476968Y-101508168D01*
X80309983Y-101703684D01*
X80222269Y-101846820D01*
X80169622Y-101894451D01*
X80099580Y-101906058D01*
X80034383Y-101877955D01*
X79994729Y-101819064D01*
X79988837Y-101781066D01*
X79986120Y-97535999D01*
X97384496Y-97535999D01*
X97404458Y-97725929D01*
X97463472Y-97907556D01*
X97558958Y-98072942D01*
X97558960Y-98072944D01*
X97686747Y-98214866D01*
X97841248Y-98327118D01*
X98015712Y-98404794D01*
X98202513Y-98444500D01*
X98202515Y-98444500D01*
X98393485Y-98444500D01*
X98393487Y-98444500D01*
X98580288Y-98404794D01*
X98754752Y-98327118D01*
X98909253Y-98214866D01*
X99037040Y-98072944D01*
X99132527Y-97907556D01*
X99134982Y-97900000D01*
X110248996Y-97900000D01*
X110268958Y-98089929D01*
X110327972Y-98271556D01*
X110423458Y-98436942D01*
X110423460Y-98436944D01*
X110551247Y-98578866D01*
X110705748Y-98691118D01*
X110880212Y-98768794D01*
X111067013Y-98808500D01*
X111067015Y-98808500D01*
X111257985Y-98808500D01*
X111257987Y-98808500D01*
X111444788Y-98768794D01*
X111619252Y-98691118D01*
X111773753Y-98578866D01*
X111901540Y-98436944D01*
X111997027Y-98271556D01*
X112056042Y-98089928D01*
X112076004Y-97900000D01*
X112056042Y-97710072D01*
X111997027Y-97528444D01*
X111997027Y-97528443D01*
X111901541Y-97363057D01*
X111773752Y-97221133D01*
X111619253Y-97108883D01*
X111619252Y-97108882D01*
X111574596Y-97089000D01*
X129769496Y-97089000D01*
X129789458Y-97278929D01*
X129848472Y-97460556D01*
X129943958Y-97625942D01*
X129943960Y-97625944D01*
X130071747Y-97767866D01*
X130226248Y-97880118D01*
X130400712Y-97957794D01*
X130587513Y-97997500D01*
X130587515Y-97997500D01*
X130778485Y-97997500D01*
X130778487Y-97997500D01*
X130965288Y-97957794D01*
X131139752Y-97880118D01*
X131294253Y-97767866D01*
X131422040Y-97625944D01*
X131517527Y-97460556D01*
X131576542Y-97278928D01*
X131596504Y-97089000D01*
X132309496Y-97089000D01*
X132329458Y-97278929D01*
X132388472Y-97460556D01*
X132483958Y-97625942D01*
X132483960Y-97625944D01*
X132611747Y-97767866D01*
X132766248Y-97880118D01*
X132940712Y-97957794D01*
X133127513Y-97997500D01*
X133127515Y-97997500D01*
X133318485Y-97997500D01*
X133318487Y-97997500D01*
X133505288Y-97957794D01*
X133679752Y-97880118D01*
X133834253Y-97767866D01*
X133962040Y-97625944D01*
X134057527Y-97460556D01*
X134070065Y-97421967D01*
X134110136Y-97363365D01*
X134175533Y-97335727D01*
X134241145Y-97345799D01*
X134280597Y-97363365D01*
X134337707Y-97388792D01*
X134337712Y-97388794D01*
X134524513Y-97428500D01*
X134524515Y-97428500D01*
X134715485Y-97428500D01*
X134715487Y-97428500D01*
X134902288Y-97388794D01*
X135076752Y-97311118D01*
X135231253Y-97198866D01*
X135359040Y-97056944D01*
X135454527Y-96891556D01*
X135513542Y-96709928D01*
X135533504Y-96520000D01*
X135513542Y-96330072D01*
X135464943Y-96180500D01*
X135454527Y-96148443D01*
X135359041Y-95983057D01*
X135231252Y-95841133D01*
X135076753Y-95728883D01*
X135076752Y-95728882D01*
X134902288Y-95651206D01*
X134715487Y-95611500D01*
X134524513Y-95611500D01*
X134337712Y-95651206D01*
X134337711Y-95651206D01*
X134337708Y-95651207D01*
X134234236Y-95697275D01*
X134163869Y-95706709D01*
X134099572Y-95676602D01*
X134061759Y-95616513D01*
X134062436Y-95545519D01*
X134063117Y-95543350D01*
X134116542Y-95378928D01*
X134136504Y-95189000D01*
X134116542Y-94999072D01*
X134077347Y-94878443D01*
X134057527Y-94817443D01*
X133962041Y-94652057D01*
X133834252Y-94510133D01*
X133733868Y-94437200D01*
X133679752Y-94397882D01*
X133505288Y-94320206D01*
X133318487Y-94280500D01*
X133127513Y-94280500D01*
X133002978Y-94306970D01*
X132940711Y-94320206D01*
X132766246Y-94397883D01*
X132611747Y-94510133D01*
X132483958Y-94652057D01*
X132388472Y-94817443D01*
X132329458Y-94999070D01*
X132309496Y-95189000D01*
X132329458Y-95378929D01*
X132388472Y-95560556D01*
X132483958Y-95725942D01*
X132587677Y-95841134D01*
X132611747Y-95867866D01*
X132766248Y-95980118D01*
X132864569Y-96023893D01*
X132918665Y-96069873D01*
X132939314Y-96137801D01*
X132919961Y-96206109D01*
X132866751Y-96253110D01*
X132864569Y-96254107D01*
X132766246Y-96297883D01*
X132611747Y-96410133D01*
X132483958Y-96552057D01*
X132388472Y-96717443D01*
X132329458Y-96899070D01*
X132309496Y-97089000D01*
X131596504Y-97089000D01*
X131576542Y-96899072D01*
X131517527Y-96717444D01*
X131517527Y-96717443D01*
X131422041Y-96552057D01*
X131294252Y-96410133D01*
X131186287Y-96331692D01*
X131139752Y-96297882D01*
X130965288Y-96220206D01*
X130778487Y-96180500D01*
X130587513Y-96180500D01*
X130467033Y-96206109D01*
X130400711Y-96220206D01*
X130226246Y-96297883D01*
X130071747Y-96410133D01*
X129943958Y-96552057D01*
X129848472Y-96717443D01*
X129789458Y-96899070D01*
X129769496Y-97089000D01*
X111574596Y-97089000D01*
X111444788Y-97031206D01*
X111257987Y-96991500D01*
X111067013Y-96991500D01*
X110942478Y-97017970D01*
X110880211Y-97031206D01*
X110705746Y-97108883D01*
X110551247Y-97221133D01*
X110423458Y-97363057D01*
X110327972Y-97528443D01*
X110268958Y-97710070D01*
X110248996Y-97900000D01*
X99134982Y-97900000D01*
X99191542Y-97725928D01*
X99211504Y-97536000D01*
X99191542Y-97346072D01*
X99150947Y-97221133D01*
X99132527Y-97164443D01*
X99037041Y-96999057D01*
X98909252Y-96857133D01*
X98754753Y-96744883D01*
X98754752Y-96744882D01*
X98580288Y-96667206D01*
X98393487Y-96627500D01*
X98202513Y-96627500D01*
X98077978Y-96653970D01*
X98015711Y-96667206D01*
X97841246Y-96744883D01*
X97686747Y-96857133D01*
X97558958Y-96999057D01*
X97463472Y-97164443D01*
X97404458Y-97346070D01*
X97384496Y-97535999D01*
X79986120Y-97535999D01*
X79984656Y-95249999D01*
X99416496Y-95249999D01*
X99436458Y-95439929D01*
X99495472Y-95621556D01*
X99590958Y-95786942D01*
X99590960Y-95786944D01*
X99718747Y-95928866D01*
X99873248Y-96041118D01*
X100047712Y-96118794D01*
X100234513Y-96158500D01*
X100234515Y-96158500D01*
X100425485Y-96158500D01*
X100425487Y-96158500D01*
X100612288Y-96118794D01*
X100786752Y-96041118D01*
X100941253Y-95928866D01*
X101069040Y-95786944D01*
X101164527Y-95621556D01*
X101223542Y-95439928D01*
X101243504Y-95250000D01*
X107036496Y-95250000D01*
X107056458Y-95439929D01*
X107115472Y-95621556D01*
X107210958Y-95786942D01*
X107210960Y-95786944D01*
X107338747Y-95928866D01*
X107493248Y-96041118D01*
X107667712Y-96118794D01*
X107854513Y-96158500D01*
X107854515Y-96158500D01*
X108045485Y-96158500D01*
X108045487Y-96158500D01*
X108232288Y-96118794D01*
X108406752Y-96041118D01*
X108561253Y-95928866D01*
X108689040Y-95786944D01*
X108784527Y-95621556D01*
X108843542Y-95439928D01*
X108863504Y-95250000D01*
X108863504Y-95249999D01*
X110846496Y-95249999D01*
X110866458Y-95439929D01*
X110925472Y-95621556D01*
X111020958Y-95786942D01*
X111020960Y-95786944D01*
X111148747Y-95928866D01*
X111303248Y-96041118D01*
X111477712Y-96118794D01*
X111664513Y-96158500D01*
X111664515Y-96158500D01*
X111855485Y-96158500D01*
X111855487Y-96158500D01*
X112042288Y-96118794D01*
X112216752Y-96041118D01*
X112371253Y-95928866D01*
X112499040Y-95786944D01*
X112594527Y-95621556D01*
X112653542Y-95439928D01*
X112673504Y-95250000D01*
X114656496Y-95250000D01*
X114676458Y-95439929D01*
X114735472Y-95621556D01*
X114830958Y-95786942D01*
X114830960Y-95786944D01*
X114958747Y-95928866D01*
X115113248Y-96041118D01*
X115287712Y-96118794D01*
X115474513Y-96158500D01*
X115474515Y-96158500D01*
X115665485Y-96158500D01*
X115665487Y-96158500D01*
X115852288Y-96118794D01*
X116026752Y-96041118D01*
X116181253Y-95928866D01*
X116309040Y-95786944D01*
X116404527Y-95621556D01*
X116463542Y-95439928D01*
X116483504Y-95250000D01*
X116463542Y-95060072D01*
X116432931Y-94965862D01*
X116404527Y-94878443D01*
X116309041Y-94713057D01*
X116181252Y-94571133D01*
X116026753Y-94458883D01*
X116026752Y-94458882D01*
X115978053Y-94437200D01*
X122428896Y-94437200D01*
X122448858Y-94627129D01*
X122507872Y-94808756D01*
X122603358Y-94974142D01*
X122603360Y-94974144D01*
X122731147Y-95116066D01*
X122885648Y-95228318D01*
X123060112Y-95305994D01*
X123246913Y-95345700D01*
X123246915Y-95345700D01*
X123444298Y-95345700D01*
X123512419Y-95365702D01*
X123558912Y-95419358D01*
X123564131Y-95432764D01*
X123566457Y-95439924D01*
X123566458Y-95439928D01*
X123590296Y-95513294D01*
X123625472Y-95621556D01*
X123720958Y-95786942D01*
X123720960Y-95786944D01*
X123848747Y-95928866D01*
X124003248Y-96041118D01*
X124177712Y-96118794D01*
X124364513Y-96158500D01*
X124364515Y-96158500D01*
X124555485Y-96158500D01*
X124555487Y-96158500D01*
X124742288Y-96118794D01*
X124916752Y-96041118D01*
X125071253Y-95928866D01*
X125199040Y-95786944D01*
X125294527Y-95621556D01*
X125353542Y-95439928D01*
X125373504Y-95250000D01*
X125373504Y-95249999D01*
X126086496Y-95249999D01*
X126106458Y-95439929D01*
X126165472Y-95621556D01*
X126260958Y-95786942D01*
X126260960Y-95786944D01*
X126388747Y-95928866D01*
X126543248Y-96041118D01*
X126717712Y-96118794D01*
X126904513Y-96158500D01*
X126904515Y-96158500D01*
X127095485Y-96158500D01*
X127095487Y-96158500D01*
X127282288Y-96118794D01*
X127456752Y-96041118D01*
X127611253Y-95928866D01*
X127739040Y-95786944D01*
X127834527Y-95621556D01*
X127893542Y-95439928D01*
X127913504Y-95250000D01*
X127893542Y-95060072D01*
X127862931Y-94965862D01*
X127834527Y-94878443D01*
X127739041Y-94713057D01*
X127611252Y-94571133D01*
X127456753Y-94458883D01*
X127456752Y-94458882D01*
X127282288Y-94381206D01*
X127095487Y-94341500D01*
X126904513Y-94341500D01*
X126788441Y-94366172D01*
X126717711Y-94381206D01*
X126543246Y-94458883D01*
X126388747Y-94571133D01*
X126260958Y-94713057D01*
X126165472Y-94878443D01*
X126106458Y-95060070D01*
X126086496Y-95249999D01*
X125373504Y-95249999D01*
X125353542Y-95060072D01*
X125322931Y-94965862D01*
X125294527Y-94878443D01*
X125199041Y-94713057D01*
X125071252Y-94571133D01*
X124916753Y-94458883D01*
X124916752Y-94458882D01*
X124742288Y-94381206D01*
X124555487Y-94341500D01*
X124364513Y-94341500D01*
X124358103Y-94341500D01*
X124289982Y-94321498D01*
X124243489Y-94267842D01*
X124238270Y-94254436D01*
X124176927Y-94065644D01*
X124081441Y-93900257D01*
X123953652Y-93758333D01*
X123861136Y-93691116D01*
X123799152Y-93646082D01*
X123624688Y-93568406D01*
X123437887Y-93528700D01*
X123246913Y-93528700D01*
X123122556Y-93555133D01*
X123060111Y-93568406D01*
X122885646Y-93646083D01*
X122731147Y-93758333D01*
X122603358Y-93900257D01*
X122507872Y-94065643D01*
X122448858Y-94247270D01*
X122428896Y-94437200D01*
X115978053Y-94437200D01*
X115852288Y-94381206D01*
X115665487Y-94341500D01*
X115474513Y-94341500D01*
X115358441Y-94366172D01*
X115287711Y-94381206D01*
X115113246Y-94458883D01*
X114958747Y-94571133D01*
X114830958Y-94713057D01*
X114735472Y-94878443D01*
X114676458Y-95060070D01*
X114656496Y-95250000D01*
X112673504Y-95250000D01*
X112653542Y-95060072D01*
X112622931Y-94965862D01*
X112594527Y-94878443D01*
X112499041Y-94713057D01*
X112371252Y-94571133D01*
X112216753Y-94458883D01*
X112216752Y-94458882D01*
X112042288Y-94381206D01*
X111855487Y-94341500D01*
X111664513Y-94341500D01*
X111548441Y-94366172D01*
X111477711Y-94381206D01*
X111303246Y-94458883D01*
X111148747Y-94571133D01*
X111020958Y-94713057D01*
X110925472Y-94878443D01*
X110866458Y-95060070D01*
X110846496Y-95249999D01*
X108863504Y-95249999D01*
X108843542Y-95060072D01*
X108812931Y-94965862D01*
X108784527Y-94878443D01*
X108689041Y-94713057D01*
X108561252Y-94571133D01*
X108406753Y-94458883D01*
X108406752Y-94458882D01*
X108232288Y-94381206D01*
X108045487Y-94341500D01*
X107854513Y-94341500D01*
X107738441Y-94366172D01*
X107667711Y-94381206D01*
X107493246Y-94458883D01*
X107338747Y-94571133D01*
X107210958Y-94713057D01*
X107115472Y-94878443D01*
X107056458Y-95060070D01*
X107036496Y-95250000D01*
X101243504Y-95250000D01*
X101223542Y-95060072D01*
X101192931Y-94965862D01*
X101164527Y-94878443D01*
X101069041Y-94713057D01*
X100941252Y-94571133D01*
X100786753Y-94458883D01*
X100786752Y-94458882D01*
X100612288Y-94381206D01*
X100425487Y-94341500D01*
X100234513Y-94341500D01*
X100118441Y-94366172D01*
X100047711Y-94381206D01*
X99873246Y-94458883D01*
X99718747Y-94571133D01*
X99590958Y-94713057D01*
X99495472Y-94878443D01*
X99436458Y-95060070D01*
X99416496Y-95249999D01*
X79984656Y-95249999D01*
X79983895Y-94060657D01*
X80003853Y-93992524D01*
X80057479Y-93945997D01*
X80127747Y-93935848D01*
X80192346Y-93965300D01*
X80220690Y-94004579D01*
X80221258Y-94004232D01*
X80225869Y-94011757D01*
X80226303Y-94012358D01*
X80226439Y-94012687D01*
X80360783Y-94231916D01*
X80527768Y-94427431D01*
X80723283Y-94594416D01*
X80942509Y-94728758D01*
X80942511Y-94728758D01*
X80942513Y-94728760D01*
X81180060Y-94827155D01*
X81430074Y-94887178D01*
X81686400Y-94907351D01*
X81942726Y-94887178D01*
X82192740Y-94827155D01*
X82430287Y-94728760D01*
X82649516Y-94594416D01*
X82845031Y-94427431D01*
X83012016Y-94231916D01*
X83146360Y-94012687D01*
X83244755Y-93775140D01*
X83304778Y-93525126D01*
X83324951Y-93268800D01*
X83324951Y-93268799D01*
X85127849Y-93268799D01*
X85148022Y-93525126D01*
X85208045Y-93775140D01*
X85306441Y-94012690D01*
X85440783Y-94231916D01*
X85607768Y-94427431D01*
X85803283Y-94594416D01*
X86022509Y-94728758D01*
X86022511Y-94728758D01*
X86022513Y-94728760D01*
X86260060Y-94827155D01*
X86510074Y-94887178D01*
X86766400Y-94907351D01*
X87022726Y-94887178D01*
X87272740Y-94827155D01*
X87510287Y-94728760D01*
X87729516Y-94594416D01*
X87925031Y-94427431D01*
X88090236Y-94234000D01*
X101956496Y-94234000D01*
X101976458Y-94423929D01*
X102035472Y-94605556D01*
X102130958Y-94770942D01*
X102227752Y-94878443D01*
X102258747Y-94912866D01*
X102413248Y-95025118D01*
X102587712Y-95102794D01*
X102774513Y-95142500D01*
X102774515Y-95142500D01*
X102965485Y-95142500D01*
X102965487Y-95142500D01*
X103152288Y-95102794D01*
X103326752Y-95025118D01*
X103481253Y-94912866D01*
X103609040Y-94770944D01*
X103704527Y-94605556D01*
X103763542Y-94423928D01*
X103783504Y-94234000D01*
X103763542Y-94044072D01*
X103704527Y-93862444D01*
X103704527Y-93862443D01*
X103609041Y-93697057D01*
X103481252Y-93555133D01*
X103326753Y-93442883D01*
X103326752Y-93442882D01*
X103152288Y-93365206D01*
X102965487Y-93325500D01*
X102774513Y-93325500D01*
X102649978Y-93351970D01*
X102587711Y-93365206D01*
X102413246Y-93442883D01*
X102258747Y-93555133D01*
X102130958Y-93697057D01*
X102035472Y-93862443D01*
X101976458Y-94044070D01*
X101956496Y-94234000D01*
X88090236Y-94234000D01*
X88092016Y-94231916D01*
X88226360Y-94012687D01*
X88324755Y-93775140D01*
X88384778Y-93525126D01*
X88404951Y-93268800D01*
X88384778Y-93012474D01*
X88357775Y-92899999D01*
X90936496Y-92899999D01*
X90956458Y-93089929D01*
X91015472Y-93271556D01*
X91110958Y-93436942D01*
X91116307Y-93442883D01*
X91238747Y-93578866D01*
X91393248Y-93691118D01*
X91567712Y-93768794D01*
X91754513Y-93808500D01*
X91754515Y-93808500D01*
X91945485Y-93808500D01*
X91945487Y-93808500D01*
X92132288Y-93768794D01*
X92306752Y-93691118D01*
X92461253Y-93578866D01*
X92589040Y-93436944D01*
X92684527Y-93271556D01*
X92743542Y-93089928D01*
X92763504Y-92900000D01*
X92759552Y-92862400D01*
X106604696Y-92862400D01*
X106624658Y-93052329D01*
X106683672Y-93233956D01*
X106779158Y-93399342D01*
X106779160Y-93399344D01*
X106906947Y-93541266D01*
X107061448Y-93653518D01*
X107235912Y-93731194D01*
X107422713Y-93770900D01*
X107422715Y-93770900D01*
X107613685Y-93770900D01*
X107613687Y-93770900D01*
X107800488Y-93731194D01*
X107974952Y-93653518D01*
X108129453Y-93541266D01*
X108257240Y-93399344D01*
X108352727Y-93233956D01*
X108411742Y-93052328D01*
X108431704Y-92862400D01*
X108429034Y-92837000D01*
X113919896Y-92837000D01*
X113939858Y-93026929D01*
X113998872Y-93208556D01*
X114094358Y-93373942D01*
X114151085Y-93436944D01*
X114222147Y-93515866D01*
X114376648Y-93628118D01*
X114551112Y-93705794D01*
X114737913Y-93745500D01*
X114737915Y-93745500D01*
X114928885Y-93745500D01*
X114928887Y-93745500D01*
X115115688Y-93705794D01*
X115290152Y-93628118D01*
X115444653Y-93515866D01*
X115572440Y-93373944D01*
X115667927Y-93208556D01*
X115726942Y-93026928D01*
X115746904Y-92837000D01*
X125146696Y-92837000D01*
X125166658Y-93026929D01*
X125225672Y-93208556D01*
X125321158Y-93373942D01*
X125377885Y-93436944D01*
X125448947Y-93515866D01*
X125603448Y-93628118D01*
X125777912Y-93705794D01*
X125964713Y-93745500D01*
X125964715Y-93745500D01*
X126155685Y-93745500D01*
X126155687Y-93745500D01*
X126342488Y-93705794D01*
X126516952Y-93628118D01*
X126671453Y-93515866D01*
X126799240Y-93373944D01*
X126894727Y-93208556D01*
X126953742Y-93026928D01*
X126973704Y-92837000D01*
X126953742Y-92647072D01*
X126902980Y-92490843D01*
X126894727Y-92465443D01*
X126799241Y-92300057D01*
X126701725Y-92191755D01*
X126671453Y-92158134D01*
X126617405Y-92118866D01*
X126516953Y-92045883D01*
X126516952Y-92045882D01*
X126342488Y-91968206D01*
X126155687Y-91928500D01*
X125964713Y-91928500D01*
X125895631Y-91943184D01*
X125777911Y-91968206D01*
X125603446Y-92045883D01*
X125448947Y-92158133D01*
X125321158Y-92300057D01*
X125225672Y-92465443D01*
X125166658Y-92647070D01*
X125146696Y-92837000D01*
X115746904Y-92837000D01*
X115726942Y-92647072D01*
X115676180Y-92490843D01*
X115667927Y-92465443D01*
X115572441Y-92300057D01*
X115474925Y-92191755D01*
X115444653Y-92158134D01*
X115390605Y-92118866D01*
X115290153Y-92045883D01*
X115290152Y-92045882D01*
X115115688Y-91968206D01*
X114928887Y-91928500D01*
X114737913Y-91928500D01*
X114668831Y-91943184D01*
X114551111Y-91968206D01*
X114376646Y-92045883D01*
X114222147Y-92158133D01*
X114094358Y-92300057D01*
X113998872Y-92465443D01*
X113939858Y-92647070D01*
X113919896Y-92837000D01*
X108429034Y-92837000D01*
X108411742Y-92672472D01*
X108367316Y-92535744D01*
X108352727Y-92490843D01*
X108257241Y-92325457D01*
X108129452Y-92183533D01*
X107974953Y-92071283D01*
X107974952Y-92071282D01*
X107800488Y-91993606D01*
X107613687Y-91953900D01*
X107422713Y-91953900D01*
X107314310Y-91976942D01*
X107235911Y-91993606D01*
X107061446Y-92071283D01*
X106906947Y-92183533D01*
X106779158Y-92325457D01*
X106683672Y-92490843D01*
X106624658Y-92672470D01*
X106604696Y-92862400D01*
X92759552Y-92862400D01*
X92743542Y-92710072D01*
X92703822Y-92587827D01*
X92684527Y-92528443D01*
X92589041Y-92363057D01*
X92461252Y-92221133D01*
X92374540Y-92158133D01*
X92306752Y-92108882D01*
X92132288Y-92031206D01*
X91945487Y-91991500D01*
X91754513Y-91991500D01*
X91629979Y-92017970D01*
X91567711Y-92031206D01*
X91393246Y-92108883D01*
X91238747Y-92221133D01*
X91110958Y-92363057D01*
X91015472Y-92528443D01*
X90956458Y-92710070D01*
X90936496Y-92899999D01*
X88357775Y-92899999D01*
X88324755Y-92762460D01*
X88226360Y-92524913D01*
X88226358Y-92524909D01*
X88092016Y-92305683D01*
X87925031Y-92110168D01*
X87729516Y-91943183D01*
X87510290Y-91808841D01*
X87272740Y-91710445D01*
X87022726Y-91650422D01*
X86996945Y-91648393D01*
X86766400Y-91630249D01*
X86766399Y-91630249D01*
X86510073Y-91650422D01*
X86260059Y-91710445D01*
X86022509Y-91808841D01*
X85803283Y-91943183D01*
X85607768Y-92110168D01*
X85440783Y-92305683D01*
X85306441Y-92524909D01*
X85208045Y-92762459D01*
X85148022Y-93012473D01*
X85127849Y-93268799D01*
X83324951Y-93268799D01*
X83304778Y-93012474D01*
X83244755Y-92762460D01*
X83146360Y-92524913D01*
X83146358Y-92524909D01*
X83012016Y-92305683D01*
X82845031Y-92110168D01*
X82649516Y-91943183D01*
X82430290Y-91808841D01*
X82192740Y-91710445D01*
X81942726Y-91650422D01*
X81916945Y-91648393D01*
X81686400Y-91630249D01*
X81686399Y-91630249D01*
X81430073Y-91650422D01*
X81180059Y-91710445D01*
X80942509Y-91808841D01*
X80723283Y-91943183D01*
X80527768Y-92110168D01*
X80360783Y-92305683D01*
X80226440Y-92524910D01*
X80225291Y-92527686D01*
X80222990Y-92530540D01*
X80221258Y-92533368D01*
X80220892Y-92533144D01*
X80180742Y-92582966D01*
X80113379Y-92605386D01*
X80044588Y-92587827D01*
X79996210Y-92535864D01*
X79982883Y-92479547D01*
X79982813Y-92370356D01*
X79981762Y-90728800D01*
X82688158Y-90728800D01*
X82707096Y-90969434D01*
X82763445Y-91204144D01*
X82833207Y-91372565D01*
X82855816Y-91427147D01*
X82981936Y-91632956D01*
X83138699Y-91816501D01*
X83322244Y-91973264D01*
X83528053Y-92099384D01*
X83751057Y-92191755D01*
X83985766Y-92248104D01*
X84226400Y-92267042D01*
X84467034Y-92248104D01*
X84701743Y-92191755D01*
X84924747Y-92099384D01*
X85130556Y-91973264D01*
X85314101Y-91816501D01*
X85470864Y-91632956D01*
X85589108Y-91439999D01*
X97511496Y-91439999D01*
X97531458Y-91629929D01*
X97590472Y-91811556D01*
X97685958Y-91976942D01*
X97705638Y-91998799D01*
X97813747Y-92118866D01*
X97968248Y-92231118D01*
X98142712Y-92308794D01*
X98329513Y-92348500D01*
X98329515Y-92348500D01*
X98520485Y-92348500D01*
X98520487Y-92348500D01*
X98707288Y-92308794D01*
X98881752Y-92231118D01*
X99036253Y-92118866D01*
X99164040Y-91976944D01*
X99259527Y-91811556D01*
X99318542Y-91629928D01*
X99328519Y-91534999D01*
X108761496Y-91534999D01*
X108781458Y-91724929D01*
X108840472Y-91906556D01*
X108935958Y-92071942D01*
X108935960Y-92071944D01*
X109063747Y-92213866D01*
X109218248Y-92326118D01*
X109392712Y-92403794D01*
X109579513Y-92443500D01*
X109579515Y-92443500D01*
X109770485Y-92443500D01*
X109770487Y-92443500D01*
X109957288Y-92403794D01*
X110131752Y-92326118D01*
X110286253Y-92213866D01*
X110414040Y-92071944D01*
X110509527Y-91906556D01*
X110568542Y-91724928D01*
X110588504Y-91535000D01*
X110568542Y-91345072D01*
X110537429Y-91249318D01*
X110509527Y-91163443D01*
X110414041Y-90998057D01*
X110328502Y-90903056D01*
X110286253Y-90856134D01*
X110131752Y-90743882D01*
X109957288Y-90666206D01*
X109770487Y-90626500D01*
X109579513Y-90626500D01*
X109474215Y-90648882D01*
X109392711Y-90666206D01*
X109218246Y-90743883D01*
X109063747Y-90856133D01*
X108935958Y-90998057D01*
X108840472Y-91163443D01*
X108781458Y-91345070D01*
X108761496Y-91534999D01*
X99328519Y-91534999D01*
X99338504Y-91440000D01*
X99318542Y-91250072D01*
X99286402Y-91151156D01*
X99259527Y-91068443D01*
X99164041Y-90903057D01*
X99036252Y-90761133D01*
X98881753Y-90648883D01*
X98881752Y-90648882D01*
X98707288Y-90571206D01*
X98520487Y-90531500D01*
X98329513Y-90531500D01*
X98238051Y-90550941D01*
X98142711Y-90571206D01*
X97968246Y-90648883D01*
X97813747Y-90761133D01*
X97685958Y-90903057D01*
X97590472Y-91068443D01*
X97531458Y-91250070D01*
X97511496Y-91439999D01*
X85589108Y-91439999D01*
X85596984Y-91427147D01*
X85689355Y-91204143D01*
X85745704Y-90969434D01*
X85764642Y-90728800D01*
X85745704Y-90488166D01*
X85689355Y-90253457D01*
X85644265Y-90144599D01*
X120981096Y-90144599D01*
X121001058Y-90334529D01*
X121060072Y-90516156D01*
X121155558Y-90681542D01*
X121155560Y-90681544D01*
X121283347Y-90823466D01*
X121437848Y-90935718D01*
X121612312Y-91013394D01*
X121799113Y-91053100D01*
X121799115Y-91053100D01*
X121990085Y-91053100D01*
X121990087Y-91053100D01*
X122176888Y-91013394D01*
X122351352Y-90935718D01*
X122505853Y-90823466D01*
X122633640Y-90681544D01*
X122729127Y-90516156D01*
X122788142Y-90334528D01*
X122808104Y-90144600D01*
X122797426Y-90043000D01*
X123952896Y-90043000D01*
X123957845Y-90090083D01*
X123972858Y-90232929D01*
X124031872Y-90414556D01*
X124127358Y-90579942D01*
X124218839Y-90681542D01*
X124255147Y-90721866D01*
X124409648Y-90834118D01*
X124584112Y-90911794D01*
X124770913Y-90951500D01*
X124770915Y-90951500D01*
X124961885Y-90951500D01*
X124961887Y-90951500D01*
X125148688Y-90911794D01*
X125323152Y-90834118D01*
X125477653Y-90721866D01*
X125598025Y-90588179D01*
X125658468Y-90550941D01*
X125729452Y-90552292D01*
X125788437Y-90591806D01*
X125816695Y-90656936D01*
X125816969Y-90685661D01*
X125813164Y-90721866D01*
X125807096Y-90779600D01*
X125812826Y-90834116D01*
X125827058Y-90969529D01*
X125886072Y-91151156D01*
X125981558Y-91316542D01*
X125981560Y-91316544D01*
X126109347Y-91458466D01*
X126263848Y-91570718D01*
X126438312Y-91648394D01*
X126625113Y-91688100D01*
X126625115Y-91688100D01*
X126816085Y-91688100D01*
X126816087Y-91688100D01*
X127002888Y-91648394D01*
X127177352Y-91570718D01*
X127331853Y-91458466D01*
X127459640Y-91316544D01*
X127555127Y-91151156D01*
X127614142Y-90969528D01*
X127623426Y-90881199D01*
X129845696Y-90881199D01*
X129865658Y-91071129D01*
X129924672Y-91252756D01*
X130020158Y-91418142D01*
X130100558Y-91507435D01*
X130131275Y-91571443D01*
X130126755Y-91630682D01*
X130068858Y-91808869D01*
X130051580Y-91973262D01*
X130048896Y-91998800D01*
X130053845Y-92045883D01*
X130068858Y-92188729D01*
X130127872Y-92370356D01*
X130223358Y-92535742D01*
X130346470Y-92672472D01*
X130351147Y-92677666D01*
X130505648Y-92789918D01*
X130680112Y-92867594D01*
X130866913Y-92907300D01*
X130866915Y-92907300D01*
X131057885Y-92907300D01*
X131057887Y-92907300D01*
X131244688Y-92867594D01*
X131419152Y-92789918D01*
X131573653Y-92677666D01*
X131701440Y-92535744D01*
X131796927Y-92370356D01*
X131855942Y-92188728D01*
X131875904Y-91998800D01*
X131855942Y-91808872D01*
X131823961Y-91710445D01*
X131796927Y-91627243D01*
X131701441Y-91461857D01*
X131681760Y-91439999D01*
X133706496Y-91439999D01*
X133726458Y-91629929D01*
X133785472Y-91811556D01*
X133880958Y-91976942D01*
X133900638Y-91998799D01*
X134008747Y-92118866D01*
X134163248Y-92231118D01*
X134337712Y-92308794D01*
X134524513Y-92348500D01*
X134524515Y-92348500D01*
X134715485Y-92348500D01*
X134715487Y-92348500D01*
X134902288Y-92308794D01*
X135076752Y-92231118D01*
X135231253Y-92118866D01*
X135359040Y-91976944D01*
X135454527Y-91811556D01*
X135513542Y-91629928D01*
X135533504Y-91440000D01*
X135513542Y-91250072D01*
X135481402Y-91151156D01*
X135454527Y-91068443D01*
X135359041Y-90903057D01*
X135231252Y-90761133D01*
X135076753Y-90648883D01*
X135076752Y-90648882D01*
X134902288Y-90571206D01*
X134715487Y-90531500D01*
X134524513Y-90531500D01*
X134433051Y-90550941D01*
X134337711Y-90571206D01*
X134163246Y-90648883D01*
X134008747Y-90761133D01*
X133880958Y-90903057D01*
X133785472Y-91068443D01*
X133726458Y-91250070D01*
X133706496Y-91439999D01*
X131681760Y-91439999D01*
X131670186Y-91427145D01*
X131621039Y-91372562D01*
X131590324Y-91308558D01*
X131594844Y-91249318D01*
X131622746Y-91163444D01*
X131652742Y-91071128D01*
X131672704Y-90881200D01*
X131652742Y-90691272D01*
X131593727Y-90509644D01*
X131593727Y-90509643D01*
X131498241Y-90344257D01*
X131416484Y-90253457D01*
X131370453Y-90202334D01*
X131215952Y-90090082D01*
X131041488Y-90012406D01*
X130854687Y-89972700D01*
X130663713Y-89972700D01*
X130539178Y-89999170D01*
X130476911Y-90012406D01*
X130302446Y-90090083D01*
X130147947Y-90202333D01*
X130020158Y-90344257D01*
X129924672Y-90509643D01*
X129865658Y-90691270D01*
X129845696Y-90881199D01*
X127623426Y-90881199D01*
X127634104Y-90779600D01*
X127614142Y-90589672D01*
X127555127Y-90408044D01*
X127551035Y-90395449D01*
X127552983Y-90394815D01*
X127540227Y-90342233D01*
X127563447Y-90275141D01*
X127592021Y-90246292D01*
X127636653Y-90213866D01*
X127764440Y-90071944D01*
X127859927Y-89906556D01*
X127918942Y-89724928D01*
X127938904Y-89535000D01*
X127918942Y-89345072D01*
X127883535Y-89236100D01*
X127859927Y-89163443D01*
X127764439Y-88998054D01*
X127677645Y-88901659D01*
X127646927Y-88837652D01*
X127655692Y-88767198D01*
X127701155Y-88712667D01*
X127745082Y-88694103D01*
X127764888Y-88689894D01*
X127806426Y-88671400D01*
X129820296Y-88671400D01*
X129840258Y-88861329D01*
X129899272Y-89042956D01*
X129994758Y-89208342D01*
X130117870Y-89345072D01*
X130122547Y-89350266D01*
X130277048Y-89462518D01*
X130451512Y-89540194D01*
X130638313Y-89579900D01*
X130638315Y-89579900D01*
X130829285Y-89579900D01*
X130829287Y-89579900D01*
X131016088Y-89540194D01*
X131190552Y-89462518D01*
X131345053Y-89350266D01*
X131472840Y-89208344D01*
X131568327Y-89042956D01*
X131627342Y-88861328D01*
X131647304Y-88671400D01*
X131627342Y-88481472D01*
X131587238Y-88358045D01*
X131568327Y-88299843D01*
X131472841Y-88134457D01*
X131384550Y-88036400D01*
X133757296Y-88036400D01*
X133777258Y-88226329D01*
X133836272Y-88407956D01*
X133931758Y-88573342D01*
X134015372Y-88666205D01*
X134059547Y-88715266D01*
X134214048Y-88827518D01*
X134388512Y-88905194D01*
X134575313Y-88944900D01*
X134575315Y-88944900D01*
X134766285Y-88944900D01*
X134766287Y-88944900D01*
X134953088Y-88905194D01*
X135127552Y-88827518D01*
X135282053Y-88715266D01*
X135409840Y-88573344D01*
X135505327Y-88407956D01*
X135564342Y-88226328D01*
X135584304Y-88036400D01*
X135564342Y-87846472D01*
X135505327Y-87664844D01*
X135505327Y-87664843D01*
X135409841Y-87499457D01*
X135282052Y-87357533D01*
X135127553Y-87245283D01*
X135127552Y-87245282D01*
X134953088Y-87167606D01*
X134766287Y-87127900D01*
X134575313Y-87127900D01*
X134450778Y-87154370D01*
X134388511Y-87167606D01*
X134214046Y-87245283D01*
X134059547Y-87357533D01*
X133931758Y-87499457D01*
X133836272Y-87664843D01*
X133777258Y-87846470D01*
X133757296Y-88036400D01*
X131384550Y-88036400D01*
X131345052Y-87992533D01*
X131210888Y-87895057D01*
X131190552Y-87880282D01*
X131016088Y-87802606D01*
X130829287Y-87762900D01*
X130638313Y-87762900D01*
X130530968Y-87785717D01*
X130451511Y-87802606D01*
X130277046Y-87880283D01*
X130122547Y-87992533D01*
X129994758Y-88134457D01*
X129899272Y-88299843D01*
X129840258Y-88481470D01*
X129820296Y-88671400D01*
X127806426Y-88671400D01*
X127939352Y-88612218D01*
X128093853Y-88499966D01*
X128221640Y-88358044D01*
X128317127Y-88192656D01*
X128376142Y-88011028D01*
X128396104Y-87821100D01*
X128376142Y-87631172D01*
X128321727Y-87463701D01*
X128317127Y-87449543D01*
X128221641Y-87284157D01*
X128093852Y-87142233D01*
X127939353Y-87029983D01*
X127939352Y-87029982D01*
X127764888Y-86952306D01*
X127578087Y-86912600D01*
X127387113Y-86912600D01*
X127262578Y-86939070D01*
X127200311Y-86952306D01*
X127025846Y-87029983D01*
X126871347Y-87142233D01*
X126743558Y-87284157D01*
X126648072Y-87449543D01*
X126589058Y-87631170D01*
X126569096Y-87821100D01*
X126589058Y-88011029D01*
X126648072Y-88192656D01*
X126743560Y-88358045D01*
X126830354Y-88454440D01*
X126861072Y-88518447D01*
X126852307Y-88588901D01*
X126806844Y-88643432D01*
X126762916Y-88661996D01*
X126743112Y-88666205D01*
X126576946Y-88740186D01*
X126506579Y-88749620D01*
X126451637Y-88727015D01*
X126306996Y-88621928D01*
X126288352Y-88608382D01*
X126113888Y-88530706D01*
X125927087Y-88491000D01*
X125736113Y-88491000D01*
X125611578Y-88517470D01*
X125549311Y-88530706D01*
X125374846Y-88608383D01*
X125220347Y-88720633D01*
X125092558Y-88862557D01*
X124997073Y-89027943D01*
X124990739Y-89047437D01*
X124950665Y-89106043D01*
X124885268Y-89133679D01*
X124870906Y-89134500D01*
X124770913Y-89134500D01*
X124688978Y-89151916D01*
X124584111Y-89174206D01*
X124409646Y-89251883D01*
X124255147Y-89364133D01*
X124127358Y-89506057D01*
X124031872Y-89671443D01*
X123972858Y-89853070D01*
X123954215Y-90030453D01*
X123952896Y-90043000D01*
X122797426Y-90043000D01*
X122788142Y-89954672D01*
X122729127Y-89773044D01*
X122729127Y-89773043D01*
X122633641Y-89607657D01*
X122505852Y-89465733D01*
X122366013Y-89364134D01*
X122351352Y-89353482D01*
X122176888Y-89275806D01*
X121990087Y-89236100D01*
X121799113Y-89236100D01*
X121682942Y-89260793D01*
X121612311Y-89275806D01*
X121437846Y-89353483D01*
X121283347Y-89465733D01*
X121155558Y-89607657D01*
X121060072Y-89773043D01*
X121001058Y-89954670D01*
X120981096Y-90144599D01*
X85644265Y-90144599D01*
X85596984Y-90030453D01*
X85470864Y-89824644D01*
X85314101Y-89641099D01*
X85130556Y-89484336D01*
X84924747Y-89358216D01*
X84924745Y-89358215D01*
X84701744Y-89265845D01*
X84467034Y-89209496D01*
X84226400Y-89190558D01*
X83985765Y-89209496D01*
X83751055Y-89265845D01*
X83528054Y-89358215D01*
X83425148Y-89421276D01*
X83322244Y-89484336D01*
X83138699Y-89641099D01*
X82981936Y-89824644D01*
X82931740Y-89906556D01*
X82855815Y-90030454D01*
X82763445Y-90253455D01*
X82707096Y-90488165D01*
X82688158Y-90728800D01*
X79981762Y-90728800D01*
X79980638Y-88972793D01*
X80000596Y-88904661D01*
X80054222Y-88858134D01*
X80124490Y-88847985D01*
X80189089Y-88877437D01*
X80223046Y-88924495D01*
X80226439Y-88932687D01*
X80360783Y-89151916D01*
X80527768Y-89347431D01*
X80723283Y-89514416D01*
X80942509Y-89648758D01*
X80942511Y-89648758D01*
X80942513Y-89648760D01*
X81180060Y-89747155D01*
X81430074Y-89807178D01*
X81686400Y-89827351D01*
X81942726Y-89807178D01*
X82192740Y-89747155D01*
X82430287Y-89648760D01*
X82649516Y-89514416D01*
X82845031Y-89347431D01*
X83012016Y-89151916D01*
X83146360Y-88932687D01*
X83244755Y-88695140D01*
X83304778Y-88445126D01*
X83324951Y-88188800D01*
X85127849Y-88188800D01*
X85130803Y-88226329D01*
X85148022Y-88445126D01*
X85208045Y-88695140D01*
X85306441Y-88932690D01*
X85440783Y-89151916D01*
X85607768Y-89347431D01*
X85803283Y-89514416D01*
X86022509Y-89648758D01*
X86022511Y-89648758D01*
X86022513Y-89648760D01*
X86260060Y-89747155D01*
X86510074Y-89807178D01*
X86766400Y-89827351D01*
X87022726Y-89807178D01*
X87272740Y-89747155D01*
X87510287Y-89648760D01*
X87729516Y-89514416D01*
X87925031Y-89347431D01*
X88092016Y-89151916D01*
X88226360Y-88932687D01*
X88324755Y-88695140D01*
X88384778Y-88445126D01*
X88404951Y-88188800D01*
X88384778Y-87932474D01*
X88324755Y-87682460D01*
X88303025Y-87629999D01*
X96876496Y-87629999D01*
X96896458Y-87819929D01*
X96955472Y-88001556D01*
X97050958Y-88166942D01*
X97104430Y-88226329D01*
X97178747Y-88308866D01*
X97333248Y-88421118D01*
X97507712Y-88498794D01*
X97694513Y-88538500D01*
X97694515Y-88538500D01*
X97885485Y-88538500D01*
X97885487Y-88538500D01*
X98072288Y-88498794D01*
X98246752Y-88421118D01*
X98401253Y-88308866D01*
X98529040Y-88166944D01*
X98624527Y-88001556D01*
X98683542Y-87819928D01*
X98683542Y-87819924D01*
X98686167Y-87811847D01*
X98726240Y-87753241D01*
X98791637Y-87725604D01*
X98861594Y-87737711D01*
X98913900Y-87785717D01*
X98925833Y-87811847D01*
X98928457Y-87819925D01*
X98928458Y-87819928D01*
X98948068Y-87880282D01*
X98987472Y-88001556D01*
X99082958Y-88166942D01*
X99136430Y-88226329D01*
X99210747Y-88308866D01*
X99365248Y-88421118D01*
X99539712Y-88498794D01*
X99726513Y-88538500D01*
X99726515Y-88538500D01*
X99917485Y-88538500D01*
X99917487Y-88538500D01*
X100104288Y-88498794D01*
X100254313Y-88431999D01*
X102022496Y-88431999D01*
X102042458Y-88621929D01*
X102101472Y-88803556D01*
X102196958Y-88968942D01*
X102250083Y-89027943D01*
X102324747Y-89110866D01*
X102479248Y-89223118D01*
X102653712Y-89300794D01*
X102840513Y-89340500D01*
X102840515Y-89340500D01*
X103031485Y-89340500D01*
X103031487Y-89340500D01*
X103218288Y-89300794D01*
X103392752Y-89223118D01*
X103547253Y-89110866D01*
X103675040Y-88968944D01*
X103770527Y-88803556D01*
X103829542Y-88621928D01*
X103849504Y-88432000D01*
X103845300Y-88392000D01*
X105258496Y-88392000D01*
X105278458Y-88581929D01*
X105337472Y-88763556D01*
X105432958Y-88928942D01*
X105495187Y-88998054D01*
X105560747Y-89070866D01*
X105715248Y-89183118D01*
X105889712Y-89260794D01*
X106076513Y-89300500D01*
X106076515Y-89300500D01*
X106267485Y-89300500D01*
X106267487Y-89300500D01*
X106454288Y-89260794D01*
X106628752Y-89183118D01*
X106783253Y-89070866D01*
X106911040Y-88928944D01*
X107006527Y-88763556D01*
X107065542Y-88581928D01*
X107085504Y-88392000D01*
X107065542Y-88202072D01*
X107019524Y-88060443D01*
X107006527Y-88020443D01*
X106911041Y-87855057D01*
X106783252Y-87713133D01*
X106628753Y-87600883D01*
X106628752Y-87600882D01*
X106454288Y-87523206D01*
X106267487Y-87483500D01*
X106076513Y-87483500D01*
X105951978Y-87509970D01*
X105889711Y-87523206D01*
X105715246Y-87600883D01*
X105560747Y-87713133D01*
X105432958Y-87855057D01*
X105337472Y-88020443D01*
X105278458Y-88202070D01*
X105258496Y-88392000D01*
X103845300Y-88392000D01*
X103829542Y-88242072D01*
X103798931Y-88147862D01*
X103770527Y-88060443D01*
X103675041Y-87895057D01*
X103547252Y-87753133D01*
X103392753Y-87640883D01*
X103392752Y-87640882D01*
X103218288Y-87563206D01*
X103031487Y-87523500D01*
X102840513Y-87523500D01*
X102715979Y-87549970D01*
X102653711Y-87563206D01*
X102513696Y-87625544D01*
X102503690Y-87630000D01*
X102479246Y-87640883D01*
X102324747Y-87753133D01*
X102196958Y-87895057D01*
X102101472Y-88060443D01*
X102042458Y-88242070D01*
X102022496Y-88431999D01*
X100254313Y-88431999D01*
X100278752Y-88421118D01*
X100433253Y-88308866D01*
X100561040Y-88166944D01*
X100656527Y-88001556D01*
X100715542Y-87819928D01*
X100735504Y-87630000D01*
X100715542Y-87440072D01*
X100664882Y-87284157D01*
X100656527Y-87258443D01*
X100561041Y-87093057D01*
X100433252Y-86951133D01*
X100356002Y-86895008D01*
X100278752Y-86838882D01*
X100104288Y-86761206D01*
X99917487Y-86721500D01*
X99726513Y-86721500D01*
X99601979Y-86747970D01*
X99539711Y-86761206D01*
X99365246Y-86838883D01*
X99210747Y-86951133D01*
X99082958Y-87093057D01*
X98987472Y-87258443D01*
X98925833Y-87448152D01*
X98885760Y-87506758D01*
X98820363Y-87534395D01*
X98750406Y-87522288D01*
X98698100Y-87474282D01*
X98686167Y-87448152D01*
X98624527Y-87258443D01*
X98529041Y-87093057D01*
X98401252Y-86951133D01*
X98324002Y-86895008D01*
X98246752Y-86838882D01*
X98072288Y-86761206D01*
X97885487Y-86721500D01*
X97694513Y-86721500D01*
X97569979Y-86747970D01*
X97507711Y-86761206D01*
X97333246Y-86838883D01*
X97178747Y-86951133D01*
X97050958Y-87093057D01*
X96955472Y-87258443D01*
X96896458Y-87440070D01*
X96876496Y-87629999D01*
X88303025Y-87629999D01*
X88226360Y-87444913D01*
X88226358Y-87444909D01*
X88092016Y-87225683D01*
X87925031Y-87030168D01*
X87729516Y-86863183D01*
X87510290Y-86728841D01*
X87272740Y-86630445D01*
X87022726Y-86570422D01*
X86766400Y-86550249D01*
X86766399Y-86550249D01*
X86510073Y-86570422D01*
X86260059Y-86630445D01*
X86022509Y-86728841D01*
X85803283Y-86863183D01*
X85607768Y-87030168D01*
X85440783Y-87225683D01*
X85306441Y-87444909D01*
X85208045Y-87682459D01*
X85168670Y-87846470D01*
X85148022Y-87932474D01*
X85127849Y-88188800D01*
X83324951Y-88188800D01*
X83304778Y-87932474D01*
X83244755Y-87682460D01*
X83146360Y-87444913D01*
X83146358Y-87444909D01*
X83012016Y-87225683D01*
X82845031Y-87030168D01*
X82649516Y-86863183D01*
X82430290Y-86728841D01*
X82192740Y-86630445D01*
X81942726Y-86570422D01*
X81686400Y-86550249D01*
X81686399Y-86550249D01*
X81430073Y-86570422D01*
X81180059Y-86630445D01*
X80942509Y-86728841D01*
X80723283Y-86863183D01*
X80527768Y-87030168D01*
X80360783Y-87225683D01*
X80226441Y-87444909D01*
X80222044Y-87455525D01*
X80177494Y-87510805D01*
X80110130Y-87533224D01*
X80041339Y-87515664D01*
X79992962Y-87463701D01*
X79979636Y-87407385D01*
X79978447Y-85549999D01*
X99123996Y-85549999D01*
X99143958Y-85739929D01*
X99202972Y-85921556D01*
X99298458Y-86086942D01*
X99298460Y-86086944D01*
X99426247Y-86228866D01*
X99580748Y-86341118D01*
X99755212Y-86418794D01*
X99942013Y-86458500D01*
X99942015Y-86458500D01*
X100132985Y-86458500D01*
X100132987Y-86458500D01*
X100319788Y-86418794D01*
X100494252Y-86341118D01*
X100648753Y-86228866D01*
X100776540Y-86086944D01*
X100797870Y-86049999D01*
X122136496Y-86049999D01*
X122156458Y-86239929D01*
X122215472Y-86421556D01*
X122310958Y-86586942D01*
X122310960Y-86586944D01*
X122438747Y-86728866D01*
X122593248Y-86841118D01*
X122767712Y-86918794D01*
X122954513Y-86958500D01*
X122954515Y-86958500D01*
X123145485Y-86958500D01*
X123145487Y-86958500D01*
X123332288Y-86918794D01*
X123506752Y-86841118D01*
X123661253Y-86728866D01*
X123789040Y-86586944D01*
X123884527Y-86421556D01*
X123943542Y-86239928D01*
X123963504Y-86050000D01*
X123952101Y-85941511D01*
X125361985Y-85941511D01*
X125367975Y-85998500D01*
X125381947Y-86131440D01*
X125440961Y-86313067D01*
X125536447Y-86478453D01*
X125619256Y-86570422D01*
X125664236Y-86620377D01*
X125818737Y-86732629D01*
X125993201Y-86810305D01*
X126180002Y-86850011D01*
X126180004Y-86850011D01*
X126370974Y-86850011D01*
X126370976Y-86850011D01*
X126557777Y-86810305D01*
X126732241Y-86732629D01*
X126886742Y-86620377D01*
X127014529Y-86478455D01*
X127110016Y-86313067D01*
X127169031Y-86131439D01*
X127188993Y-85941511D01*
X127169031Y-85751583D01*
X127110016Y-85569955D01*
X127110016Y-85569954D01*
X127014530Y-85404568D01*
X126950635Y-85333606D01*
X126886742Y-85262645D01*
X126755678Y-85167421D01*
X126712324Y-85111199D01*
X126706249Y-85040462D01*
X126739380Y-84977671D01*
X126778490Y-84950379D01*
X126821752Y-84931118D01*
X126976253Y-84818866D01*
X127104040Y-84676944D01*
X127199527Y-84511556D01*
X127258542Y-84329928D01*
X127278504Y-84140000D01*
X127258542Y-83950072D01*
X127220591Y-83833272D01*
X127199527Y-83768443D01*
X127104041Y-83603057D01*
X126976252Y-83461133D01*
X126821753Y-83348883D01*
X126821752Y-83348882D01*
X126647288Y-83271206D01*
X126460487Y-83231500D01*
X126269513Y-83231500D01*
X126144979Y-83257970D01*
X126082711Y-83271206D01*
X125908246Y-83348883D01*
X125753747Y-83461133D01*
X125625958Y-83603057D01*
X125530472Y-83768443D01*
X125471458Y-83950070D01*
X125451496Y-84140000D01*
X125471458Y-84329929D01*
X125530472Y-84511556D01*
X125625958Y-84676942D01*
X125648580Y-84702066D01*
X125753747Y-84818866D01*
X125865514Y-84900070D01*
X125884810Y-84914089D01*
X125928164Y-84970311D01*
X125934239Y-85041047D01*
X125901108Y-85103839D01*
X125861999Y-85131131D01*
X125818737Y-85150392D01*
X125664236Y-85262644D01*
X125536447Y-85404568D01*
X125440961Y-85569954D01*
X125381947Y-85751581D01*
X125370545Y-85860070D01*
X125361985Y-85941511D01*
X123952101Y-85941511D01*
X123943542Y-85860072D01*
X123912931Y-85765862D01*
X123884527Y-85678443D01*
X123789041Y-85513057D01*
X123661252Y-85371133D01*
X123584002Y-85315008D01*
X123506752Y-85258882D01*
X123332288Y-85181206D01*
X123145487Y-85141500D01*
X122954513Y-85141500D01*
X122832565Y-85167421D01*
X122767711Y-85181206D01*
X122593246Y-85258883D01*
X122438747Y-85371133D01*
X122310958Y-85513057D01*
X122215472Y-85678443D01*
X122156458Y-85860070D01*
X122136496Y-86049999D01*
X100797870Y-86049999D01*
X100872027Y-85921556D01*
X100931042Y-85739928D01*
X100951004Y-85550000D01*
X100931042Y-85360072D01*
X100898163Y-85258882D01*
X100872027Y-85178443D01*
X100820964Y-85090000D01*
X103226496Y-85090000D01*
X103234633Y-85167421D01*
X103246458Y-85279929D01*
X103305472Y-85461556D01*
X103400958Y-85626942D01*
X103400960Y-85626944D01*
X103528747Y-85768866D01*
X103683248Y-85881118D01*
X103857712Y-85958794D01*
X104044513Y-85998500D01*
X104044515Y-85998500D01*
X104235485Y-85998500D01*
X104235487Y-85998500D01*
X104422288Y-85958794D01*
X104596752Y-85881118D01*
X104751253Y-85768866D01*
X104879040Y-85626944D01*
X104974527Y-85461556D01*
X105033542Y-85279928D01*
X105053504Y-85090000D01*
X105766496Y-85090000D01*
X105774633Y-85167421D01*
X105786458Y-85279929D01*
X105845472Y-85461556D01*
X105940958Y-85626942D01*
X105940960Y-85626944D01*
X106068747Y-85768866D01*
X106223248Y-85881118D01*
X106397712Y-85958794D01*
X106584513Y-85998500D01*
X106584515Y-85998500D01*
X106775485Y-85998500D01*
X106775487Y-85998500D01*
X106962288Y-85958794D01*
X107136752Y-85881118D01*
X107291253Y-85768866D01*
X107419040Y-85626944D01*
X107514527Y-85461556D01*
X107573542Y-85279928D01*
X107593504Y-85090000D01*
X107573542Y-84900072D01*
X107514527Y-84718444D01*
X107514527Y-84718443D01*
X107419041Y-84553057D01*
X107291252Y-84411133D01*
X107136753Y-84298883D01*
X107136752Y-84298882D01*
X106962288Y-84221206D01*
X106775487Y-84181500D01*
X106584513Y-84181500D01*
X106459979Y-84207970D01*
X106397711Y-84221206D01*
X106223246Y-84298883D01*
X106068747Y-84411133D01*
X105940958Y-84553057D01*
X105845472Y-84718443D01*
X105786458Y-84900070D01*
X105771641Y-85041047D01*
X105766496Y-85090000D01*
X105053504Y-85090000D01*
X105033542Y-84900072D01*
X104974527Y-84718444D01*
X104974527Y-84718443D01*
X104879041Y-84553057D01*
X104751252Y-84411133D01*
X104596753Y-84298883D01*
X104596752Y-84298882D01*
X104422288Y-84221206D01*
X104235487Y-84181500D01*
X104044513Y-84181500D01*
X103919979Y-84207970D01*
X103857711Y-84221206D01*
X103683246Y-84298883D01*
X103528747Y-84411133D01*
X103400958Y-84553057D01*
X103305472Y-84718443D01*
X103246458Y-84900070D01*
X103231641Y-85041047D01*
X103226496Y-85090000D01*
X100820964Y-85090000D01*
X100776541Y-85013057D01*
X100667535Y-84891994D01*
X100648753Y-84871134D01*
X100494252Y-84758882D01*
X100319788Y-84681206D01*
X100132987Y-84641500D01*
X99942013Y-84641500D01*
X99817478Y-84667970D01*
X99755211Y-84681206D01*
X99580746Y-84758883D01*
X99426247Y-84871133D01*
X99298458Y-85013057D01*
X99202972Y-85178443D01*
X99143958Y-85360070D01*
X99123996Y-85549999D01*
X79978447Y-85549999D01*
X79977470Y-84023199D01*
X113259496Y-84023199D01*
X113279458Y-84213129D01*
X113338472Y-84394756D01*
X113433958Y-84560142D01*
X113433960Y-84560144D01*
X113561747Y-84702066D01*
X113716248Y-84814318D01*
X113890712Y-84891994D01*
X114077513Y-84931700D01*
X114077515Y-84931700D01*
X114268485Y-84931700D01*
X114268487Y-84931700D01*
X114455288Y-84891994D01*
X114629752Y-84814318D01*
X114784253Y-84702066D01*
X114912040Y-84560144D01*
X115007527Y-84394756D01*
X115066542Y-84213128D01*
X115086504Y-84023200D01*
X115066542Y-83833272D01*
X115007527Y-83651644D01*
X115007527Y-83651643D01*
X114912041Y-83486257D01*
X114784252Y-83344333D01*
X114629753Y-83232083D01*
X114629752Y-83232082D01*
X114455288Y-83154406D01*
X114268487Y-83114700D01*
X114077513Y-83114700D01*
X113952978Y-83141170D01*
X113890711Y-83154406D01*
X113716246Y-83232083D01*
X113561747Y-83344333D01*
X113433958Y-83486257D01*
X113338472Y-83651643D01*
X113279458Y-83833270D01*
X113259496Y-84023199D01*
X79977470Y-84023199D01*
X79977006Y-83298238D01*
X81281900Y-83298238D01*
X81282260Y-83301586D01*
X81288411Y-83358800D01*
X81339511Y-83495805D01*
X81427138Y-83612861D01*
X81544194Y-83700488D01*
X81544195Y-83700488D01*
X81544196Y-83700489D01*
X81681199Y-83751589D01*
X81741762Y-83758100D01*
X81745131Y-83758100D01*
X84635669Y-83758100D01*
X84639038Y-83758100D01*
X84699601Y-83751589D01*
X84836604Y-83700489D01*
X84953661Y-83612861D01*
X85041289Y-83495804D01*
X85092389Y-83358801D01*
X85098900Y-83298238D01*
X85098900Y-82250000D01*
X119798996Y-82250000D01*
X119818958Y-82439929D01*
X119877972Y-82621556D01*
X119973458Y-82786942D01*
X119973460Y-82786944D01*
X120101247Y-82928866D01*
X120255748Y-83041118D01*
X120430212Y-83118794D01*
X120617013Y-83158500D01*
X120617015Y-83158500D01*
X120807985Y-83158500D01*
X120807987Y-83158500D01*
X120994788Y-83118794D01*
X121169252Y-83041118D01*
X121323753Y-82928866D01*
X121451540Y-82786944D01*
X121547027Y-82621556D01*
X121606042Y-82439928D01*
X121626004Y-82250000D01*
X121606042Y-82060072D01*
X121547027Y-81878444D01*
X121547027Y-81878443D01*
X121451541Y-81713057D01*
X121323752Y-81571133D01*
X121169253Y-81458883D01*
X121169252Y-81458882D01*
X120994788Y-81381206D01*
X120807987Y-81341500D01*
X120617013Y-81341500D01*
X120492479Y-81367970D01*
X120430211Y-81381206D01*
X120255746Y-81458883D01*
X120101247Y-81571133D01*
X119973458Y-81713057D01*
X119877972Y-81878443D01*
X119818958Y-82060070D01*
X119798996Y-82250000D01*
X85098900Y-82250000D01*
X85098900Y-81280000D01*
X133706496Y-81280000D01*
X133726458Y-81469929D01*
X133785472Y-81651556D01*
X133880958Y-81816942D01*
X133880960Y-81816944D01*
X134008747Y-81958866D01*
X134163248Y-82071118D01*
X134337712Y-82148794D01*
X134524513Y-82188500D01*
X134524515Y-82188500D01*
X134715485Y-82188500D01*
X134715487Y-82188500D01*
X134902288Y-82148794D01*
X135076752Y-82071118D01*
X135231253Y-81958866D01*
X135359040Y-81816944D01*
X135454527Y-81651556D01*
X135513542Y-81469928D01*
X135533504Y-81280000D01*
X135513542Y-81090072D01*
X135454527Y-80908444D01*
X135454527Y-80908443D01*
X135359041Y-80743057D01*
X135231252Y-80601133D01*
X135076753Y-80488883D01*
X135076752Y-80488882D01*
X134902288Y-80411206D01*
X134715487Y-80371500D01*
X134524513Y-80371500D01*
X134401662Y-80397613D01*
X134337711Y-80411206D01*
X134163246Y-80488883D01*
X134008747Y-80601133D01*
X133880958Y-80743057D01*
X133785472Y-80908443D01*
X133726458Y-81090070D01*
X133706496Y-81280000D01*
X85098900Y-81280000D01*
X85098900Y-80400962D01*
X85092389Y-80340399D01*
X85041289Y-80203396D01*
X85041288Y-80203394D01*
X84953661Y-80086338D01*
X84836605Y-79998711D01*
X84728795Y-79958500D01*
X84699601Y-79947611D01*
X84639038Y-79941100D01*
X81741762Y-79941100D01*
X81738413Y-79941459D01*
X81738413Y-79941460D01*
X81681199Y-79947611D01*
X81544194Y-79998711D01*
X81427138Y-80086338D01*
X81339511Y-80203394D01*
X81288411Y-80340398D01*
X81288411Y-80340399D01*
X81281900Y-80400962D01*
X81281900Y-83298238D01*
X79977006Y-83298238D01*
X79974287Y-79050000D01*
X104023996Y-79050000D01*
X104043958Y-79239929D01*
X104102972Y-79421556D01*
X104198458Y-79586942D01*
X104198460Y-79586944D01*
X104326247Y-79728866D01*
X104480748Y-79841118D01*
X104655212Y-79918794D01*
X104842013Y-79958500D01*
X104842015Y-79958500D01*
X105032985Y-79958500D01*
X105032987Y-79958500D01*
X105219788Y-79918794D01*
X105394252Y-79841118D01*
X105548753Y-79728866D01*
X105676540Y-79586944D01*
X105772027Y-79421556D01*
X105831042Y-79239928D01*
X105851004Y-79050000D01*
X105831042Y-78860072D01*
X105772027Y-78678444D01*
X105772027Y-78678443D01*
X105676541Y-78513057D01*
X105548752Y-78371133D01*
X105394253Y-78258883D01*
X105394252Y-78258882D01*
X105219788Y-78181206D01*
X105032987Y-78141500D01*
X104842013Y-78141500D01*
X104717479Y-78167970D01*
X104655211Y-78181206D01*
X104480746Y-78258883D01*
X104326247Y-78371133D01*
X104198458Y-78513057D01*
X104102972Y-78678443D01*
X104043958Y-78860070D01*
X104023996Y-79050000D01*
X79974287Y-79050000D01*
X79972878Y-76849599D01*
X81277024Y-76849599D01*
X81296500Y-77121905D01*
X81354527Y-77388652D01*
X81354530Y-77388660D01*
X81449933Y-77644445D01*
X81493261Y-77723794D01*
X81580768Y-77884051D01*
X81744369Y-78102596D01*
X81937403Y-78295630D01*
X82038265Y-78371134D01*
X82155951Y-78459233D01*
X82395555Y-78590067D01*
X82651340Y-78685470D01*
X82651343Y-78685470D01*
X82651347Y-78685472D01*
X82861039Y-78731087D01*
X82918098Y-78743500D01*
X83190400Y-78762975D01*
X83462702Y-78743500D01*
X83615343Y-78710294D01*
X83729452Y-78685472D01*
X83729453Y-78685471D01*
X83729460Y-78685470D01*
X83985245Y-78590067D01*
X84224849Y-78459233D01*
X84443394Y-78295632D01*
X84636432Y-78102594D01*
X84800033Y-77884049D01*
X84930867Y-77644445D01*
X85026270Y-77388660D01*
X85084300Y-77121902D01*
X85103775Y-76849600D01*
X85084300Y-76577298D01*
X85036256Y-76356443D01*
X85026272Y-76310547D01*
X85026270Y-76310543D01*
X85026270Y-76310540D01*
X84985041Y-76200000D01*
X108306496Y-76200000D01*
X108326458Y-76389929D01*
X108385472Y-76571556D01*
X108480958Y-76736942D01*
X108480960Y-76736944D01*
X108608747Y-76878866D01*
X108763248Y-76991118D01*
X108937712Y-77068794D01*
X109124513Y-77108500D01*
X109124515Y-77108500D01*
X109315485Y-77108500D01*
X109315487Y-77108500D01*
X109502288Y-77068794D01*
X109676752Y-76991118D01*
X109831253Y-76878866D01*
X109959040Y-76736944D01*
X110054527Y-76571556D01*
X110113542Y-76389928D01*
X110133504Y-76200000D01*
X113386496Y-76200000D01*
X113406458Y-76389929D01*
X113465472Y-76571556D01*
X113560958Y-76736942D01*
X113560960Y-76736944D01*
X113688747Y-76878866D01*
X113843248Y-76991118D01*
X114017712Y-77068794D01*
X114204513Y-77108500D01*
X114204515Y-77108500D01*
X114395485Y-77108500D01*
X114395487Y-77108500D01*
X114582288Y-77068794D01*
X114756752Y-76991118D01*
X114911253Y-76878866D01*
X115039040Y-76736944D01*
X115044204Y-76728000D01*
X120070496Y-76728000D01*
X120090458Y-76917929D01*
X120149472Y-77099556D01*
X120244958Y-77264942D01*
X120244960Y-77264944D01*
X120372747Y-77406866D01*
X120527248Y-77519118D01*
X120701712Y-77596794D01*
X120888513Y-77636500D01*
X120888515Y-77636500D01*
X121079485Y-77636500D01*
X121079487Y-77636500D01*
X121266288Y-77596794D01*
X121440752Y-77519118D01*
X121595253Y-77406866D01*
X121723040Y-77264944D01*
X121818527Y-77099556D01*
X121877542Y-76917928D01*
X121884156Y-76854999D01*
X122737496Y-76854999D01*
X122757458Y-77044929D01*
X122816472Y-77226556D01*
X122911958Y-77391942D01*
X122911960Y-77391944D01*
X123039747Y-77533866D01*
X123194248Y-77646118D01*
X123368712Y-77723794D01*
X123555513Y-77763500D01*
X123555515Y-77763500D01*
X123746485Y-77763500D01*
X123746487Y-77763500D01*
X123933288Y-77723794D01*
X124107752Y-77646118D01*
X124262253Y-77533866D01*
X124390040Y-77391944D01*
X124485527Y-77226556D01*
X124544542Y-77044928D01*
X124564504Y-76855000D01*
X124544542Y-76665072D01*
X124485527Y-76483444D01*
X124485527Y-76483443D01*
X124390041Y-76318057D01*
X124283742Y-76200000D01*
X133706496Y-76200000D01*
X133726458Y-76389929D01*
X133785472Y-76571556D01*
X133880958Y-76736942D01*
X133880960Y-76736944D01*
X134008747Y-76878866D01*
X134163248Y-76991118D01*
X134337712Y-77068794D01*
X134524513Y-77108500D01*
X134524515Y-77108500D01*
X134715485Y-77108500D01*
X134715487Y-77108500D01*
X134902288Y-77068794D01*
X135076752Y-76991118D01*
X135231253Y-76878866D01*
X135359040Y-76736944D01*
X135454527Y-76571556D01*
X135513542Y-76389928D01*
X135533504Y-76200000D01*
X135513542Y-76010072D01*
X135454527Y-75828444D01*
X135454527Y-75828443D01*
X135359041Y-75663057D01*
X135231252Y-75521133D01*
X135076753Y-75408883D01*
X135076752Y-75408882D01*
X134902288Y-75331206D01*
X134715487Y-75291500D01*
X134524513Y-75291500D01*
X134399978Y-75317970D01*
X134337711Y-75331206D01*
X134197696Y-75393544D01*
X134175184Y-75403568D01*
X134163246Y-75408883D01*
X134008747Y-75521133D01*
X133880958Y-75663057D01*
X133785472Y-75828443D01*
X133726458Y-76010070D01*
X133706496Y-76200000D01*
X124283742Y-76200000D01*
X124262252Y-76176133D01*
X124107753Y-76063883D01*
X124107752Y-76063882D01*
X123933288Y-75986206D01*
X123746487Y-75946500D01*
X123555513Y-75946500D01*
X123430979Y-75972970D01*
X123368711Y-75986206D01*
X123194246Y-76063883D01*
X123039747Y-76176133D01*
X122911958Y-76318057D01*
X122816472Y-76483443D01*
X122757458Y-76665070D01*
X122737496Y-76854999D01*
X121884156Y-76854999D01*
X121897504Y-76728000D01*
X121877542Y-76538072D01*
X121818527Y-76356444D01*
X121818527Y-76356443D01*
X121723041Y-76191057D01*
X121595252Y-76049133D01*
X121440753Y-75936883D01*
X121440752Y-75936882D01*
X121266288Y-75859206D01*
X121079487Y-75819500D01*
X120888513Y-75819500D01*
X120763979Y-75845970D01*
X120701711Y-75859206D01*
X120527246Y-75936883D01*
X120372747Y-76049133D01*
X120244958Y-76191057D01*
X120149472Y-76356443D01*
X120090458Y-76538070D01*
X120070496Y-76728000D01*
X115044204Y-76728000D01*
X115134527Y-76571556D01*
X115193542Y-76389928D01*
X115213504Y-76200000D01*
X115193542Y-76010072D01*
X115134527Y-75828444D01*
X115134527Y-75828443D01*
X115039041Y-75663057D01*
X114911252Y-75521133D01*
X114756753Y-75408883D01*
X114756752Y-75408882D01*
X114582288Y-75331206D01*
X114395487Y-75291500D01*
X114204513Y-75291500D01*
X114079978Y-75317970D01*
X114017711Y-75331206D01*
X113877696Y-75393544D01*
X113855184Y-75403568D01*
X113843246Y-75408883D01*
X113688747Y-75521133D01*
X113560958Y-75663057D01*
X113465472Y-75828443D01*
X113406458Y-76010070D01*
X113386496Y-76200000D01*
X110133504Y-76200000D01*
X110113542Y-76010072D01*
X110054527Y-75828444D01*
X110054527Y-75828443D01*
X109959041Y-75663057D01*
X109831252Y-75521133D01*
X109676753Y-75408883D01*
X109676752Y-75408882D01*
X109502288Y-75331206D01*
X109315487Y-75291500D01*
X109124513Y-75291500D01*
X108999978Y-75317970D01*
X108937711Y-75331206D01*
X108797696Y-75393544D01*
X108775184Y-75403568D01*
X108763246Y-75408883D01*
X108608747Y-75521133D01*
X108480958Y-75663057D01*
X108385472Y-75828443D01*
X108326458Y-76010070D01*
X108306496Y-76200000D01*
X84985041Y-76200000D01*
X84930867Y-76054755D01*
X84800033Y-75815151D01*
X84672773Y-75645151D01*
X84636430Y-75596603D01*
X84443396Y-75403569D01*
X84224851Y-75239968D01*
X84107122Y-75175683D01*
X83985245Y-75109133D01*
X83729460Y-75013730D01*
X83729452Y-75013727D01*
X83462705Y-74955700D01*
X83190400Y-74936224D01*
X82918094Y-74955700D01*
X82651347Y-75013727D01*
X82507027Y-75067556D01*
X82395555Y-75109133D01*
X82395553Y-75109133D01*
X82395553Y-75109134D01*
X82155948Y-75239968D01*
X81937403Y-75403569D01*
X81744369Y-75596603D01*
X81580768Y-75815148D01*
X81474333Y-76010070D01*
X81449933Y-76054755D01*
X81412250Y-76155785D01*
X81354527Y-76310547D01*
X81296500Y-76577294D01*
X81277024Y-76849599D01*
X79972878Y-76849599D01*
X79971421Y-74574400D01*
X91866750Y-74574400D01*
X91885705Y-74778957D01*
X91941925Y-74976551D01*
X91980000Y-75053014D01*
X92033497Y-75160450D01*
X92157299Y-75324391D01*
X92309118Y-75462792D01*
X92483782Y-75570940D01*
X92675345Y-75645151D01*
X92877282Y-75682900D01*
X92877284Y-75682900D01*
X93082716Y-75682900D01*
X93082718Y-75682900D01*
X93284655Y-75645151D01*
X93476218Y-75570940D01*
X93650882Y-75462792D01*
X93802701Y-75324391D01*
X93879450Y-75222757D01*
X93936463Y-75180451D01*
X94007300Y-75175683D01*
X94069469Y-75209969D01*
X94080547Y-75222754D01*
X94157299Y-75324391D01*
X94309118Y-75462792D01*
X94483782Y-75570940D01*
X94675345Y-75645151D01*
X94877282Y-75682900D01*
X94877284Y-75682900D01*
X95082716Y-75682900D01*
X95082718Y-75682900D01*
X95284655Y-75645151D01*
X95476218Y-75570940D01*
X95650882Y-75462792D01*
X95802701Y-75324391D01*
X95926503Y-75160450D01*
X96018074Y-74976552D01*
X96074294Y-74778959D01*
X96081981Y-74695999D01*
X120578496Y-74695999D01*
X120598458Y-74885929D01*
X120657472Y-75067556D01*
X120752958Y-75232942D01*
X120759284Y-75239968D01*
X120880747Y-75374866D01*
X121035248Y-75487118D01*
X121209712Y-75564794D01*
X121396513Y-75604500D01*
X121396515Y-75604500D01*
X121587485Y-75604500D01*
X121587487Y-75604500D01*
X121774288Y-75564794D01*
X121948752Y-75487118D01*
X122103253Y-75374866D01*
X122231040Y-75232944D01*
X122326527Y-75067556D01*
X122385542Y-74885928D01*
X122405504Y-74696000D01*
X122385542Y-74506072D01*
X122326527Y-74324444D01*
X122326527Y-74324443D01*
X122231041Y-74159057D01*
X122103252Y-74017133D01*
X121948753Y-73904883D01*
X121948752Y-73904882D01*
X121774288Y-73827206D01*
X121587487Y-73787500D01*
X121396513Y-73787500D01*
X121271978Y-73813970D01*
X121209711Y-73827206D01*
X121035246Y-73904883D01*
X120880747Y-74017133D01*
X120752958Y-74159057D01*
X120657472Y-74324443D01*
X120598458Y-74506070D01*
X120578496Y-74695999D01*
X96081981Y-74695999D01*
X96093249Y-74574400D01*
X96074294Y-74369841D01*
X96018074Y-74172248D01*
X95926503Y-73988350D01*
X95802701Y-73824409D01*
X95650882Y-73686008D01*
X95608878Y-73660000D01*
X98146496Y-73660000D01*
X98166458Y-73849929D01*
X98225472Y-74031556D01*
X98320958Y-74196942D01*
X98320960Y-74196944D01*
X98448747Y-74338866D01*
X98603248Y-74451118D01*
X98777712Y-74528794D01*
X98964513Y-74568500D01*
X98964515Y-74568500D01*
X99155485Y-74568500D01*
X99155487Y-74568500D01*
X99342288Y-74528794D01*
X99516752Y-74451118D01*
X99671253Y-74338866D01*
X99799040Y-74196944D01*
X99894527Y-74031556D01*
X99953542Y-73849928D01*
X99973504Y-73660000D01*
X99973504Y-73659999D01*
X100686496Y-73659999D01*
X100706458Y-73849929D01*
X100765472Y-74031556D01*
X100860958Y-74196942D01*
X100860960Y-74196944D01*
X100988747Y-74338866D01*
X101143248Y-74451118D01*
X101317712Y-74528794D01*
X101504513Y-74568500D01*
X101504515Y-74568500D01*
X101695485Y-74568500D01*
X101695487Y-74568500D01*
X101882288Y-74528794D01*
X102056752Y-74451118D01*
X102211253Y-74338866D01*
X102339040Y-74196944D01*
X102434527Y-74031556D01*
X102493542Y-73849928D01*
X102513504Y-73660000D01*
X102513504Y-73659999D01*
X103226496Y-73659999D01*
X103246458Y-73849929D01*
X103305472Y-74031556D01*
X103400958Y-74196942D01*
X103400960Y-74196944D01*
X103528747Y-74338866D01*
X103683248Y-74451118D01*
X103857712Y-74528794D01*
X104044513Y-74568500D01*
X104044515Y-74568500D01*
X104235485Y-74568500D01*
X104235487Y-74568500D01*
X104422288Y-74528794D01*
X104596752Y-74451118D01*
X104751253Y-74338866D01*
X104879040Y-74196944D01*
X104974527Y-74031556D01*
X105033542Y-73849928D01*
X105053504Y-73660000D01*
X105033542Y-73470072D01*
X104974527Y-73288444D01*
X104974527Y-73288443D01*
X104879041Y-73123057D01*
X104751252Y-72981133D01*
X104596753Y-72868883D01*
X104596752Y-72868882D01*
X104422288Y-72791206D01*
X104235487Y-72751500D01*
X104044513Y-72751500D01*
X103919978Y-72777970D01*
X103857711Y-72791206D01*
X103683246Y-72868883D01*
X103528747Y-72981133D01*
X103400958Y-73123057D01*
X103305472Y-73288443D01*
X103246458Y-73470070D01*
X103226496Y-73659999D01*
X102513504Y-73659999D01*
X102493542Y-73470072D01*
X102434527Y-73288444D01*
X102434527Y-73288443D01*
X102339041Y-73123057D01*
X102211252Y-72981133D01*
X102056753Y-72868883D01*
X102056752Y-72868882D01*
X101882288Y-72791206D01*
X101695487Y-72751500D01*
X101504513Y-72751500D01*
X101379979Y-72777970D01*
X101317711Y-72791206D01*
X101143246Y-72868883D01*
X100988747Y-72981133D01*
X100860958Y-73123057D01*
X100765472Y-73288443D01*
X100706458Y-73470070D01*
X100686496Y-73659999D01*
X99973504Y-73659999D01*
X99953542Y-73470072D01*
X99894527Y-73288444D01*
X99894527Y-73288443D01*
X99799041Y-73123057D01*
X99671252Y-72981133D01*
X99516753Y-72868883D01*
X99516752Y-72868882D01*
X99342288Y-72791206D01*
X99155487Y-72751500D01*
X98964513Y-72751500D01*
X98839978Y-72777970D01*
X98777711Y-72791206D01*
X98603246Y-72868883D01*
X98448747Y-72981133D01*
X98320958Y-73123057D01*
X98225472Y-73288443D01*
X98166458Y-73470070D01*
X98146496Y-73660000D01*
X95608878Y-73660000D01*
X95602332Y-73655947D01*
X95476219Y-73577860D01*
X95284655Y-73503649D01*
X95284655Y-73503648D01*
X95082718Y-73465900D01*
X94877282Y-73465900D01*
X94742657Y-73491066D01*
X94675344Y-73503649D01*
X94483780Y-73577860D01*
X94309119Y-73686007D01*
X94157298Y-73824410D01*
X94080550Y-73926041D01*
X94023536Y-73968349D01*
X93952700Y-73973116D01*
X93890531Y-73938829D01*
X93879450Y-73926041D01*
X93853580Y-73891785D01*
X93802701Y-73824409D01*
X93650882Y-73686008D01*
X93602332Y-73655947D01*
X93476219Y-73577860D01*
X93284655Y-73503649D01*
X93284655Y-73503648D01*
X93082718Y-73465900D01*
X92877282Y-73465900D01*
X92742657Y-73491066D01*
X92675344Y-73503649D01*
X92483780Y-73577860D01*
X92309119Y-73686007D01*
X92157298Y-73824410D01*
X92033497Y-73988349D01*
X91941925Y-74172248D01*
X91885705Y-74369842D01*
X91866750Y-74574400D01*
X79971421Y-74574400D01*
X79968722Y-70358000D01*
X108331496Y-70358000D01*
X108351458Y-70547929D01*
X108410472Y-70729556D01*
X108505958Y-70894942D01*
X108505960Y-70894944D01*
X108633747Y-71036866D01*
X108788248Y-71149118D01*
X108962712Y-71226794D01*
X109149513Y-71266500D01*
X109149515Y-71266500D01*
X109340485Y-71266500D01*
X109340487Y-71266500D01*
X109527288Y-71226794D01*
X109701752Y-71149118D01*
X109856253Y-71036866D01*
X109984040Y-70894944D01*
X110079527Y-70729556D01*
X110111225Y-70632000D01*
X125429996Y-70632000D01*
X125449958Y-70821929D01*
X125508972Y-71003556D01*
X125604458Y-71168942D01*
X125604460Y-71168944D01*
X125732247Y-71310866D01*
X125886748Y-71423118D01*
X126061212Y-71500794D01*
X126248013Y-71540500D01*
X126248015Y-71540500D01*
X126438985Y-71540500D01*
X126438987Y-71540500D01*
X126625788Y-71500794D01*
X126800252Y-71423118D01*
X126954753Y-71310866D01*
X127082540Y-71168944D01*
X127178027Y-71003556D01*
X127237042Y-70821928D01*
X127257004Y-70632000D01*
X127237042Y-70442072D01*
X127178027Y-70260444D01*
X127178027Y-70260443D01*
X127082541Y-70095057D01*
X126984745Y-69986444D01*
X126954753Y-69953134D01*
X126800252Y-69840882D01*
X126625788Y-69763206D01*
X126600101Y-69757746D01*
X126537630Y-69724018D01*
X126509996Y-69673980D01*
X126492188Y-69698008D01*
X126425787Y-69723135D01*
X126416200Y-69723500D01*
X126248013Y-69723500D01*
X126123478Y-69749970D01*
X126061211Y-69763206D01*
X125886746Y-69840883D01*
X125732247Y-69953133D01*
X125604458Y-70095057D01*
X125508972Y-70260443D01*
X125449958Y-70442070D01*
X125429996Y-70632000D01*
X110111225Y-70632000D01*
X110138542Y-70547928D01*
X110158504Y-70358000D01*
X110138542Y-70168072D01*
X110079527Y-69986444D01*
X110079527Y-69986443D01*
X109984041Y-69821057D01*
X109856252Y-69679133D01*
X109701753Y-69566883D01*
X109701752Y-69566882D01*
X109527288Y-69489206D01*
X109340487Y-69449500D01*
X109149513Y-69449500D01*
X109033060Y-69474253D01*
X108962711Y-69489206D01*
X108788246Y-69566883D01*
X108633747Y-69679133D01*
X108505958Y-69821057D01*
X108410472Y-69986443D01*
X108351458Y-70168070D01*
X108331496Y-70358000D01*
X79968722Y-70358000D01*
X79967699Y-68760214D01*
X98238994Y-68760214D01*
X98326007Y-68814091D01*
X98517479Y-68888267D01*
X98719331Y-68926000D01*
X98924669Y-68926000D01*
X99126520Y-68888267D01*
X99317992Y-68814091D01*
X99405004Y-68760215D01*
X98822000Y-68177210D01*
X98821999Y-68177210D01*
X98238994Y-68760214D01*
X79967699Y-68760214D01*
X79967096Y-67818000D01*
X97709252Y-67818000D01*
X97728199Y-68022465D01*
X97784392Y-68219967D01*
X97875924Y-68403788D01*
X97876386Y-68404400D01*
X97876387Y-68404400D01*
X98462789Y-67817999D01*
X98434630Y-67789840D01*
X98518105Y-67789840D01*
X98528454Y-67901521D01*
X98578448Y-68001922D01*
X98661334Y-68077484D01*
X98765920Y-68118000D01*
X98849802Y-68118000D01*
X98932250Y-68102588D01*
X99027610Y-68043543D01*
X99095201Y-67954038D01*
X99125895Y-67846160D01*
X99123285Y-67817999D01*
X99181210Y-67817999D01*
X99767611Y-68404400D01*
X99802295Y-68402003D01*
X99871633Y-68417260D01*
X99911534Y-68451771D01*
X99999299Y-68567991D01*
X100151118Y-68706392D01*
X100238043Y-68760214D01*
X100325056Y-68814091D01*
X100325782Y-68814540D01*
X100517345Y-68888751D01*
X100719282Y-68926500D01*
X100719284Y-68926500D01*
X100924716Y-68926500D01*
X100924718Y-68926500D01*
X101126655Y-68888751D01*
X101318218Y-68814540D01*
X101492882Y-68706392D01*
X101609589Y-68600000D01*
X125785496Y-68600000D01*
X125805458Y-68789929D01*
X125864472Y-68971556D01*
X125959958Y-69136942D01*
X125959960Y-69136944D01*
X126087747Y-69278866D01*
X126242248Y-69391118D01*
X126416712Y-69468794D01*
X126442398Y-69474253D01*
X126504870Y-69507982D01*
X126532503Y-69558019D01*
X126550312Y-69533992D01*
X126616713Y-69508865D01*
X126626300Y-69508500D01*
X126794485Y-69508500D01*
X126794487Y-69508500D01*
X126981288Y-69468794D01*
X127155752Y-69391118D01*
X127310253Y-69278866D01*
X127438040Y-69136944D01*
X127533527Y-68971556D01*
X127592542Y-68789928D01*
X127612504Y-68600000D01*
X127610402Y-68580000D01*
X133706496Y-68580000D01*
X133726458Y-68769929D01*
X133785472Y-68951556D01*
X133880958Y-69116942D01*
X133880960Y-69116944D01*
X134008747Y-69258866D01*
X134163248Y-69371118D01*
X134337712Y-69448794D01*
X134524513Y-69488500D01*
X134524515Y-69488500D01*
X134715485Y-69488500D01*
X134715487Y-69488500D01*
X134902288Y-69448794D01*
X135076752Y-69371118D01*
X135231253Y-69258866D01*
X135359040Y-69116944D01*
X135454527Y-68951556D01*
X135513542Y-68769928D01*
X135533504Y-68580000D01*
X135513542Y-68390072D01*
X135482931Y-68295862D01*
X135454527Y-68208443D01*
X135359041Y-68043057D01*
X135231252Y-67901133D01*
X135116828Y-67817999D01*
X135076752Y-67788882D01*
X134902288Y-67711206D01*
X134715487Y-67671500D01*
X134524513Y-67671500D01*
X134430421Y-67691500D01*
X134337711Y-67711206D01*
X134163246Y-67788883D01*
X134008747Y-67901133D01*
X133880958Y-68043057D01*
X133785472Y-68208443D01*
X133726458Y-68390070D01*
X133706496Y-68580000D01*
X127610402Y-68580000D01*
X127592542Y-68410072D01*
X127533527Y-68228444D01*
X127533527Y-68228443D01*
X127438041Y-68063057D01*
X127310252Y-67921133D01*
X127233002Y-67865007D01*
X127155752Y-67808882D01*
X126981288Y-67731206D01*
X126794487Y-67691500D01*
X126603513Y-67691500D01*
X126478978Y-67717970D01*
X126416711Y-67731206D01*
X126242246Y-67808883D01*
X126087747Y-67921133D01*
X125959958Y-68063057D01*
X125864472Y-68228443D01*
X125805458Y-68410070D01*
X125785496Y-68600000D01*
X101609589Y-68600000D01*
X101644701Y-68567991D01*
X101768503Y-68404050D01*
X101860074Y-68220152D01*
X101916294Y-68022559D01*
X101935249Y-67818000D01*
X101916294Y-67613441D01*
X101860074Y-67415848D01*
X101768503Y-67231950D01*
X101644701Y-67068009D01*
X101492882Y-66929608D01*
X101405952Y-66875783D01*
X101318219Y-66821460D01*
X101126655Y-66747249D01*
X101126654Y-66747248D01*
X100924718Y-66709500D01*
X100719282Y-66709500D01*
X100584657Y-66734666D01*
X100517344Y-66747249D01*
X100325780Y-66821460D01*
X100151119Y-66929607D01*
X99999297Y-67068010D01*
X99911525Y-67184240D01*
X99854511Y-67226548D01*
X99802238Y-67234005D01*
X99767610Y-67231598D01*
X99181210Y-67817998D01*
X99181210Y-67817999D01*
X99123285Y-67817999D01*
X99115546Y-67734479D01*
X99065552Y-67634078D01*
X98982666Y-67558516D01*
X98878080Y-67518000D01*
X98794198Y-67518000D01*
X98711750Y-67533412D01*
X98616390Y-67592457D01*
X98548799Y-67681962D01*
X98518105Y-67789840D01*
X98434630Y-67789840D01*
X97876387Y-67231597D01*
X97875923Y-67232212D01*
X97784392Y-67416031D01*
X97728199Y-67613534D01*
X97709252Y-67818000D01*
X79967096Y-67818000D01*
X79966493Y-66875784D01*
X98238994Y-66875784D01*
X98821999Y-67458789D01*
X98822000Y-67458789D01*
X99405004Y-66875783D01*
X99317995Y-66821910D01*
X99126520Y-66747732D01*
X98924669Y-66710000D01*
X98719331Y-66710000D01*
X98517479Y-66747732D01*
X98326009Y-66821908D01*
X98238994Y-66875784D01*
X79966493Y-66875784D01*
X79965145Y-64769999D01*
X81636496Y-64769999D01*
X81656458Y-64959929D01*
X81715472Y-65141556D01*
X81810958Y-65306942D01*
X81810960Y-65306944D01*
X81938747Y-65448866D01*
X82093248Y-65561118D01*
X82267712Y-65638794D01*
X82454513Y-65678500D01*
X82454515Y-65678500D01*
X82645485Y-65678500D01*
X82645487Y-65678500D01*
X82832288Y-65638794D01*
X83006752Y-65561118D01*
X83161253Y-65448866D01*
X83289040Y-65306944D01*
X83384527Y-65141556D01*
X83443542Y-64959928D01*
X83463504Y-64770000D01*
X85446496Y-64770000D01*
X85466458Y-64959929D01*
X85525472Y-65141556D01*
X85620958Y-65306942D01*
X85620960Y-65306944D01*
X85748747Y-65448866D01*
X85903248Y-65561118D01*
X86077712Y-65638794D01*
X86264513Y-65678500D01*
X86264515Y-65678500D01*
X86455485Y-65678500D01*
X86455487Y-65678500D01*
X86642288Y-65638794D01*
X86816752Y-65561118D01*
X86971253Y-65448866D01*
X87099040Y-65306944D01*
X87194527Y-65141556D01*
X87253542Y-64959928D01*
X87273504Y-64770000D01*
X87273504Y-64769999D01*
X89256496Y-64769999D01*
X89276458Y-64959929D01*
X89335472Y-65141556D01*
X89430958Y-65306942D01*
X89430960Y-65306944D01*
X89558747Y-65448866D01*
X89713248Y-65561118D01*
X89887712Y-65638794D01*
X90074513Y-65678500D01*
X90074515Y-65678500D01*
X90265485Y-65678500D01*
X90265487Y-65678500D01*
X90452288Y-65638794D01*
X90626752Y-65561118D01*
X90781253Y-65448866D01*
X90909040Y-65306944D01*
X91004527Y-65141556D01*
X91063542Y-64959928D01*
X91083504Y-64770000D01*
X94336496Y-64770000D01*
X94356458Y-64959929D01*
X94415472Y-65141556D01*
X94510958Y-65306942D01*
X94510960Y-65306944D01*
X94638747Y-65448866D01*
X94793248Y-65561118D01*
X94967712Y-65638794D01*
X95154513Y-65678500D01*
X95154515Y-65678500D01*
X95345485Y-65678500D01*
X95345487Y-65678500D01*
X95532288Y-65638794D01*
X95706752Y-65561118D01*
X95861253Y-65448866D01*
X95989040Y-65306944D01*
X96084527Y-65141556D01*
X96143542Y-64959928D01*
X96163504Y-64770000D01*
X96163504Y-64769999D01*
X108306496Y-64769999D01*
X108326458Y-64959929D01*
X108385472Y-65141556D01*
X108480958Y-65306942D01*
X108480960Y-65306944D01*
X108608747Y-65448866D01*
X108763248Y-65561118D01*
X108937712Y-65638794D01*
X109124513Y-65678500D01*
X109124515Y-65678500D01*
X109315485Y-65678500D01*
X109315487Y-65678500D01*
X109502288Y-65638794D01*
X109676752Y-65561118D01*
X109831253Y-65448866D01*
X109959040Y-65306944D01*
X110054527Y-65141556D01*
X110113542Y-64959928D01*
X110133504Y-64770000D01*
X113386496Y-64770000D01*
X113406458Y-64959929D01*
X113465472Y-65141556D01*
X113560958Y-65306942D01*
X113560960Y-65306944D01*
X113688747Y-65448866D01*
X113843248Y-65561118D01*
X114017712Y-65638794D01*
X114204513Y-65678500D01*
X114204515Y-65678500D01*
X114395485Y-65678500D01*
X114395487Y-65678500D01*
X114582288Y-65638794D01*
X114756752Y-65561118D01*
X114911253Y-65448866D01*
X115039040Y-65306944D01*
X115134527Y-65141556D01*
X115193542Y-64959928D01*
X115213504Y-64770000D01*
X115193542Y-64580072D01*
X115134527Y-64398444D01*
X115134527Y-64398443D01*
X115039041Y-64233057D01*
X114911252Y-64091133D01*
X114756753Y-63978883D01*
X114756752Y-63978882D01*
X114582288Y-63901206D01*
X114395487Y-63861500D01*
X114204513Y-63861500D01*
X114079979Y-63887970D01*
X114017711Y-63901206D01*
X113843246Y-63978883D01*
X113688747Y-64091133D01*
X113560958Y-64233057D01*
X113465472Y-64398443D01*
X113406458Y-64580070D01*
X113386496Y-64770000D01*
X110133504Y-64770000D01*
X110113542Y-64580072D01*
X110054527Y-64398444D01*
X110054527Y-64398443D01*
X109959041Y-64233057D01*
X109831252Y-64091133D01*
X109676753Y-63978883D01*
X109676752Y-63978882D01*
X109502288Y-63901206D01*
X109315487Y-63861500D01*
X109124513Y-63861500D01*
X108999978Y-63887970D01*
X108937711Y-63901206D01*
X108763246Y-63978883D01*
X108608747Y-64091133D01*
X108480958Y-64233057D01*
X108385472Y-64398443D01*
X108326458Y-64580070D01*
X108306496Y-64769999D01*
X96163504Y-64769999D01*
X96143542Y-64580072D01*
X96084527Y-64398444D01*
X96084527Y-64398443D01*
X95989041Y-64233057D01*
X95861252Y-64091133D01*
X95706753Y-63978883D01*
X95706752Y-63978882D01*
X95532288Y-63901206D01*
X95345487Y-63861500D01*
X95154513Y-63861500D01*
X95029978Y-63887970D01*
X94967711Y-63901206D01*
X94793246Y-63978883D01*
X94638747Y-64091133D01*
X94510958Y-64233057D01*
X94415472Y-64398443D01*
X94356458Y-64580070D01*
X94336496Y-64770000D01*
X91083504Y-64770000D01*
X91063542Y-64580072D01*
X91004527Y-64398444D01*
X91004527Y-64398443D01*
X90909041Y-64233057D01*
X90781252Y-64091133D01*
X90626753Y-63978883D01*
X90626752Y-63978882D01*
X90452288Y-63901206D01*
X90265487Y-63861500D01*
X90074513Y-63861500D01*
X89949978Y-63887970D01*
X89887711Y-63901206D01*
X89713246Y-63978883D01*
X89558747Y-64091133D01*
X89430958Y-64233057D01*
X89335472Y-64398443D01*
X89276458Y-64580070D01*
X89256496Y-64769999D01*
X87273504Y-64769999D01*
X87253542Y-64580072D01*
X87194527Y-64398444D01*
X87194527Y-64398443D01*
X87099041Y-64233057D01*
X86971252Y-64091133D01*
X86816753Y-63978883D01*
X86816752Y-63978882D01*
X86642288Y-63901206D01*
X86455487Y-63861500D01*
X86264513Y-63861500D01*
X86139979Y-63887970D01*
X86077711Y-63901206D01*
X85903246Y-63978883D01*
X85748747Y-64091133D01*
X85620958Y-64233057D01*
X85525472Y-64398443D01*
X85466458Y-64580070D01*
X85446496Y-64770000D01*
X83463504Y-64770000D01*
X83443542Y-64580072D01*
X83384527Y-64398444D01*
X83384527Y-64398443D01*
X83289041Y-64233057D01*
X83161252Y-64091133D01*
X83006753Y-63978883D01*
X83006752Y-63978882D01*
X82832288Y-63901206D01*
X82645487Y-63861500D01*
X82454513Y-63861500D01*
X82329978Y-63887970D01*
X82267711Y-63901206D01*
X82093246Y-63978883D01*
X81938747Y-64091133D01*
X81810958Y-64233057D01*
X81715472Y-64398443D01*
X81656458Y-64580070D01*
X81636496Y-64769999D01*
X79965145Y-64769999D01*
X79962969Y-61370425D01*
X79982927Y-61302294D01*
X80036553Y-61255767D01*
X80106821Y-61245618D01*
X80171420Y-61275070D01*
X80206425Y-61324933D01*
X80204946Y-61321363D01*
X80206284Y-61324368D01*
X80207468Y-61327453D01*
X80208961Y-61330384D01*
X80208965Y-61330392D01*
X80264333Y-61439057D01*
X80383938Y-61673795D01*
X80385734Y-61676561D01*
X80385736Y-61676564D01*
X80580191Y-61976000D01*
X80595643Y-61999793D01*
X80840266Y-62301876D01*
X81115124Y-62576734D01*
X81417207Y-62821357D01*
X81743205Y-63033062D01*
X82089547Y-63209532D01*
X82452438Y-63348833D01*
X82827901Y-63449438D01*
X83211824Y-63510246D01*
X83600000Y-63530589D01*
X83988176Y-63510246D01*
X84372099Y-63449438D01*
X84747562Y-63348833D01*
X85110453Y-63209532D01*
X85456795Y-63033062D01*
X85782793Y-62821357D01*
X86084876Y-62576734D01*
X86359734Y-62301876D01*
X86604357Y-61999793D01*
X86619809Y-61975999D01*
X110846496Y-61975999D01*
X110866458Y-62165929D01*
X110925472Y-62347556D01*
X111020958Y-62512942D01*
X111020960Y-62512944D01*
X111148747Y-62654866D01*
X111303248Y-62767118D01*
X111477712Y-62844794D01*
X111664513Y-62884500D01*
X111664515Y-62884500D01*
X111855485Y-62884500D01*
X111855487Y-62884500D01*
X112042288Y-62844794D01*
X112216752Y-62767118D01*
X112371253Y-62654866D01*
X112499040Y-62512944D01*
X112594527Y-62347556D01*
X112653542Y-62165928D01*
X112673504Y-61976000D01*
X112673504Y-61975999D01*
X119990496Y-61975999D01*
X120010458Y-62165929D01*
X120069472Y-62347556D01*
X120164958Y-62512942D01*
X120164960Y-62512944D01*
X120292747Y-62654866D01*
X120447248Y-62767118D01*
X120621712Y-62844794D01*
X120808513Y-62884500D01*
X120808515Y-62884500D01*
X120999485Y-62884500D01*
X120999487Y-62884500D01*
X121186288Y-62844794D01*
X121360752Y-62767118D01*
X121515253Y-62654866D01*
X121643040Y-62512944D01*
X121738527Y-62347556D01*
X121797542Y-62165928D01*
X121817504Y-61976000D01*
X121797542Y-61786072D01*
X121738527Y-61604444D01*
X121738527Y-61604443D01*
X121643041Y-61439057D01*
X121515252Y-61297133D01*
X121360753Y-61184883D01*
X121360752Y-61184882D01*
X121186288Y-61107206D01*
X120999487Y-61067500D01*
X120808513Y-61067500D01*
X120683979Y-61093970D01*
X120621711Y-61107206D01*
X120447246Y-61184883D01*
X120292747Y-61297133D01*
X120164958Y-61439057D01*
X120069472Y-61604443D01*
X120010458Y-61786070D01*
X119990496Y-61975999D01*
X112673504Y-61975999D01*
X112653542Y-61786072D01*
X112594527Y-61604444D01*
X112594527Y-61604443D01*
X112499041Y-61439057D01*
X112371252Y-61297133D01*
X112216753Y-61184883D01*
X112216752Y-61184882D01*
X112042288Y-61107206D01*
X111855487Y-61067500D01*
X111664513Y-61067500D01*
X111539979Y-61093970D01*
X111477711Y-61107206D01*
X111303246Y-61184883D01*
X111148747Y-61297133D01*
X111020958Y-61439057D01*
X110925472Y-61604443D01*
X110866458Y-61786070D01*
X110846496Y-61975999D01*
X86619809Y-61975999D01*
X86816062Y-61673795D01*
X86992532Y-61327453D01*
X87131833Y-60964562D01*
X87232438Y-60589099D01*
X87293246Y-60205176D01*
X87306428Y-59953638D01*
X111290500Y-59953638D01*
X111297011Y-60014201D01*
X111313173Y-60057533D01*
X111348111Y-60151205D01*
X111435738Y-60268261D01*
X111552794Y-60355888D01*
X111552795Y-60355888D01*
X111552796Y-60355889D01*
X111689799Y-60406989D01*
X111750362Y-60413500D01*
X111753731Y-60413500D01*
X113544269Y-60413500D01*
X113547638Y-60413500D01*
X113608201Y-60406989D01*
X113745204Y-60355889D01*
X113862261Y-60268261D01*
X113949889Y-60151204D01*
X113993999Y-60032941D01*
X114036545Y-59976107D01*
X114103065Y-59951296D01*
X114172439Y-59966387D01*
X114204753Y-59991635D01*
X114242780Y-60032943D01*
X114265762Y-60057908D01*
X114443421Y-60196187D01*
X114443424Y-60196189D01*
X114641426Y-60303342D01*
X114854365Y-60376444D01*
X115076431Y-60413500D01*
X115076434Y-60413500D01*
X115301566Y-60413500D01*
X115301569Y-60413500D01*
X115523635Y-60376444D01*
X115736574Y-60303342D01*
X115934576Y-60196189D01*
X116112240Y-60057906D01*
X116264722Y-59892268D01*
X116353518Y-59756354D01*
X116407521Y-59710268D01*
X116477869Y-59700693D01*
X116542226Y-59730670D01*
X116564480Y-59756353D01*
X116653278Y-59892268D01*
X116765525Y-60014200D01*
X116805762Y-60057908D01*
X116983421Y-60196187D01*
X116983424Y-60196189D01*
X117181426Y-60303342D01*
X117394365Y-60376444D01*
X117616431Y-60413500D01*
X117616434Y-60413500D01*
X117841566Y-60413500D01*
X117841569Y-60413500D01*
X118063635Y-60376444D01*
X118276574Y-60303342D01*
X118474576Y-60196189D01*
X118652240Y-60057906D01*
X118804722Y-59892268D01*
X118893518Y-59756354D01*
X118947520Y-59710267D01*
X119017868Y-59700692D01*
X119082226Y-59730669D01*
X119104480Y-59756353D01*
X119193278Y-59892268D01*
X119322780Y-60032943D01*
X119345762Y-60057908D01*
X119523421Y-60196187D01*
X119523424Y-60196189D01*
X119721426Y-60303342D01*
X119934365Y-60376444D01*
X120156431Y-60413500D01*
X120156434Y-60413500D01*
X120381566Y-60413500D01*
X120381569Y-60413500D01*
X120603635Y-60376444D01*
X120816574Y-60303342D01*
X121014576Y-60196189D01*
X121192240Y-60057906D01*
X121344722Y-59892268D01*
X121433817Y-59755896D01*
X121487819Y-59709809D01*
X121558167Y-59700234D01*
X121622524Y-59730211D01*
X121644782Y-59755897D01*
X121733678Y-59891962D01*
X121886096Y-60057533D01*
X122063697Y-60195766D01*
X122261631Y-60302883D01*
X122474485Y-60375955D01*
X122555000Y-60389391D01*
X122555000Y-59488674D01*
X122666685Y-59539680D01*
X122773237Y-59555000D01*
X122844763Y-59555000D01*
X122951315Y-59539680D01*
X123063000Y-59488674D01*
X123063000Y-60389390D01*
X123143514Y-60375955D01*
X123356368Y-60302883D01*
X123554302Y-60195766D01*
X123731903Y-60057533D01*
X123884321Y-59891962D01*
X124007419Y-59703548D01*
X124097822Y-59497451D01*
X124145544Y-59309000D01*
X123240116Y-59309000D01*
X123268493Y-59264844D01*
X123309000Y-59126889D01*
X123309000Y-58983111D01*
X123268493Y-58845156D01*
X123240116Y-58801000D01*
X124145544Y-58801000D01*
X124145544Y-58800999D01*
X124097822Y-58612548D01*
X124007419Y-58406451D01*
X123884321Y-58218037D01*
X123731903Y-58052466D01*
X123554302Y-57914233D01*
X123356368Y-57807116D01*
X123143510Y-57734042D01*
X123063000Y-57720606D01*
X123063000Y-58621325D01*
X122951315Y-58570320D01*
X122844763Y-58555000D01*
X122773237Y-58555000D01*
X122666685Y-58570320D01*
X122555000Y-58621325D01*
X122555000Y-57720607D01*
X122554999Y-57720606D01*
X122474489Y-57734042D01*
X122261631Y-57807116D01*
X122063697Y-57914233D01*
X121886096Y-58052466D01*
X121733678Y-58218037D01*
X121644782Y-58354102D01*
X121590778Y-58400190D01*
X121520430Y-58409765D01*
X121456073Y-58379787D01*
X121433816Y-58354101D01*
X121344722Y-58217732D01*
X121192240Y-58052094D01*
X121192239Y-58052093D01*
X121192237Y-58052091D01*
X121014578Y-57913812D01*
X120816573Y-57806657D01*
X120663510Y-57754111D01*
X120603635Y-57733556D01*
X120381569Y-57696500D01*
X120156431Y-57696500D01*
X119934365Y-57733556D01*
X119934362Y-57733556D01*
X119934362Y-57733557D01*
X119721426Y-57806657D01*
X119523421Y-57913812D01*
X119345762Y-58052091D01*
X119193278Y-58217731D01*
X119159871Y-58268865D01*
X119104481Y-58353645D01*
X119050479Y-58399732D01*
X118980131Y-58409307D01*
X118915774Y-58379330D01*
X118893519Y-58353646D01*
X118804722Y-58217732D01*
X118652240Y-58052094D01*
X118652239Y-58052093D01*
X118652237Y-58052091D01*
X118474578Y-57913812D01*
X118276573Y-57806657D01*
X118123510Y-57754111D01*
X118063635Y-57733556D01*
X117841569Y-57696500D01*
X117616431Y-57696500D01*
X117394365Y-57733556D01*
X117394362Y-57733556D01*
X117394362Y-57733557D01*
X117181426Y-57806657D01*
X116983421Y-57913812D01*
X116805762Y-58052091D01*
X116653278Y-58217731D01*
X116564483Y-58353643D01*
X116510479Y-58399731D01*
X116440131Y-58409306D01*
X116375774Y-58379328D01*
X116353517Y-58353643D01*
X116324767Y-58309638D01*
X116264722Y-58217732D01*
X116112240Y-58052094D01*
X116112239Y-58052093D01*
X116112237Y-58052091D01*
X115934578Y-57913812D01*
X115736573Y-57806657D01*
X115583510Y-57754111D01*
X115523635Y-57733556D01*
X115301569Y-57696500D01*
X115076431Y-57696500D01*
X114854365Y-57733556D01*
X114854362Y-57733556D01*
X114854362Y-57733557D01*
X114641426Y-57806657D01*
X114443421Y-57913812D01*
X114265758Y-58052094D01*
X114204754Y-58118362D01*
X114143901Y-58154933D01*
X114072937Y-58152798D01*
X114014392Y-58112636D01*
X113993998Y-58077056D01*
X113984688Y-58052094D01*
X113949889Y-57958796D01*
X113948871Y-57957436D01*
X113862261Y-57841738D01*
X113745205Y-57754111D01*
X113655377Y-57720607D01*
X113608201Y-57703011D01*
X113547638Y-57696500D01*
X111750362Y-57696500D01*
X111747013Y-57696859D01*
X111747013Y-57696860D01*
X111689799Y-57703011D01*
X111552794Y-57754111D01*
X111435738Y-57841738D01*
X111348111Y-57958794D01*
X111304002Y-58077056D01*
X111297011Y-58095799D01*
X111290500Y-58156362D01*
X111290500Y-59953638D01*
X87306428Y-59953638D01*
X87313589Y-59817000D01*
X87293246Y-59428824D01*
X87232438Y-59044901D01*
X87131833Y-58669438D01*
X87036083Y-58420000D01*
X90526496Y-58420000D01*
X90546458Y-58609929D01*
X90605472Y-58791556D01*
X90700958Y-58956942D01*
X90700960Y-58956944D01*
X90828747Y-59098866D01*
X90983248Y-59211118D01*
X91157712Y-59288794D01*
X91344513Y-59328500D01*
X91344515Y-59328500D01*
X91535485Y-59328500D01*
X91535487Y-59328500D01*
X91722288Y-59288794D01*
X91896752Y-59211118D01*
X92051253Y-59098866D01*
X92179040Y-58956944D01*
X92274527Y-58791556D01*
X92333542Y-58609928D01*
X92353504Y-58420000D01*
X95606496Y-58420000D01*
X95626458Y-58609929D01*
X95685472Y-58791556D01*
X95780958Y-58956942D01*
X95780960Y-58956944D01*
X95908747Y-59098866D01*
X96063248Y-59211118D01*
X96237712Y-59288794D01*
X96424513Y-59328500D01*
X96424515Y-59328500D01*
X96615485Y-59328500D01*
X96615487Y-59328500D01*
X96802288Y-59288794D01*
X96976752Y-59211118D01*
X97131253Y-59098866D01*
X97259040Y-58956944D01*
X97354527Y-58791556D01*
X97413542Y-58609928D01*
X97433504Y-58420000D01*
X100686496Y-58420000D01*
X100706458Y-58609929D01*
X100765472Y-58791556D01*
X100860958Y-58956942D01*
X100860960Y-58956944D01*
X100988747Y-59098866D01*
X101143248Y-59211118D01*
X101317712Y-59288794D01*
X101504513Y-59328500D01*
X101504515Y-59328500D01*
X101695485Y-59328500D01*
X101695487Y-59328500D01*
X101882288Y-59288794D01*
X102056752Y-59211118D01*
X102211253Y-59098866D01*
X102339040Y-58956944D01*
X102434527Y-58791556D01*
X102493542Y-58609928D01*
X102513504Y-58420000D01*
X102493542Y-58230072D01*
X102457245Y-58118362D01*
X102434527Y-58048443D01*
X102339041Y-57883057D01*
X102270250Y-57806657D01*
X102211253Y-57741134D01*
X102200824Y-57733557D01*
X102134002Y-57685008D01*
X102056752Y-57628882D01*
X101882288Y-57551206D01*
X101695487Y-57511500D01*
X101504513Y-57511500D01*
X101379978Y-57537970D01*
X101317711Y-57551206D01*
X101143246Y-57628883D01*
X100988747Y-57741133D01*
X100860958Y-57883057D01*
X100765472Y-58048443D01*
X100706458Y-58230070D01*
X100686496Y-58420000D01*
X97433504Y-58420000D01*
X97413542Y-58230072D01*
X97377245Y-58118362D01*
X97354527Y-58048443D01*
X97259041Y-57883057D01*
X97190250Y-57806657D01*
X97131253Y-57741134D01*
X97120824Y-57733557D01*
X97054002Y-57685008D01*
X96976752Y-57628882D01*
X96802288Y-57551206D01*
X96615487Y-57511500D01*
X96424513Y-57511500D01*
X96299978Y-57537970D01*
X96237711Y-57551206D01*
X96063246Y-57628883D01*
X95908747Y-57741133D01*
X95780958Y-57883057D01*
X95685472Y-58048443D01*
X95626458Y-58230070D01*
X95606496Y-58420000D01*
X92353504Y-58420000D01*
X92333542Y-58230072D01*
X92297245Y-58118362D01*
X92274527Y-58048443D01*
X92179041Y-57883057D01*
X92110250Y-57806657D01*
X92051253Y-57741134D01*
X92040824Y-57733557D01*
X91974002Y-57685008D01*
X91896752Y-57628882D01*
X91722288Y-57551206D01*
X91535487Y-57511500D01*
X91344513Y-57511500D01*
X91219978Y-57537970D01*
X91157711Y-57551206D01*
X90983246Y-57628883D01*
X90828747Y-57741133D01*
X90700958Y-57883057D01*
X90605472Y-58048443D01*
X90546458Y-58230070D01*
X90526496Y-58420000D01*
X87036083Y-58420000D01*
X87010611Y-58353644D01*
X86993716Y-58309631D01*
X86993712Y-58309622D01*
X86992532Y-58306547D01*
X86816062Y-57960206D01*
X86604357Y-57634207D01*
X86359734Y-57332124D01*
X86084876Y-57057266D01*
X85782793Y-56812643D01*
X85780033Y-56810850D01*
X85780028Y-56810847D01*
X85510329Y-56635703D01*
X85464092Y-56581826D01*
X85454322Y-56511505D01*
X85484122Y-56447065D01*
X85544031Y-56408966D01*
X85578377Y-56404032D01*
X117363063Y-56261500D01*
X130484564Y-56261500D01*
X130552682Y-56281501D01*
G37*
%TD.AperFunction*%
%TD*%
M02*
