%TF.GenerationSoftware,KiCad,Pcbnew,7.0.2*%
%TF.CreationDate,2023-05-21T11:23:20+02:00*%
%TF.ProjectId,sdrt41-tx,73647274-3431-42d7-9478-2e6b69636164,rev?*%
%TF.SameCoordinates,Original*%
%TF.FileFunction,Legend,Top*%
%TF.FilePolarity,Positive*%
%FSLAX46Y46*%
G04 Gerber Fmt 4.6, Leading zero omitted, Abs format (unit mm)*
G04 Created by KiCad (PCBNEW 7.0.2) date 2023-05-21 11:23:20*
%MOMM*%
%LPD*%
G01*
G04 APERTURE LIST*
%ADD10C,0.150000*%
%ADD11C,0.120000*%
G04 APERTURE END LIST*
D10*
%TO.C,R22*%
X119245142Y-60788619D02*
X118911809Y-60312428D01*
X118673714Y-60788619D02*
X118673714Y-59788619D01*
X118673714Y-59788619D02*
X119054666Y-59788619D01*
X119054666Y-59788619D02*
X119149904Y-59836238D01*
X119149904Y-59836238D02*
X119197523Y-59883857D01*
X119197523Y-59883857D02*
X119245142Y-59979095D01*
X119245142Y-59979095D02*
X119245142Y-60121952D01*
X119245142Y-60121952D02*
X119197523Y-60217190D01*
X119197523Y-60217190D02*
X119149904Y-60264809D01*
X119149904Y-60264809D02*
X119054666Y-60312428D01*
X119054666Y-60312428D02*
X118673714Y-60312428D01*
X119626095Y-59883857D02*
X119673714Y-59836238D01*
X119673714Y-59836238D02*
X119768952Y-59788619D01*
X119768952Y-59788619D02*
X120007047Y-59788619D01*
X120007047Y-59788619D02*
X120102285Y-59836238D01*
X120102285Y-59836238D02*
X120149904Y-59883857D01*
X120149904Y-59883857D02*
X120197523Y-59979095D01*
X120197523Y-59979095D02*
X120197523Y-60074333D01*
X120197523Y-60074333D02*
X120149904Y-60217190D01*
X120149904Y-60217190D02*
X119578476Y-60788619D01*
X119578476Y-60788619D02*
X120197523Y-60788619D01*
X120578476Y-59883857D02*
X120626095Y-59836238D01*
X120626095Y-59836238D02*
X120721333Y-59788619D01*
X120721333Y-59788619D02*
X120959428Y-59788619D01*
X120959428Y-59788619D02*
X121054666Y-59836238D01*
X121054666Y-59836238D02*
X121102285Y-59883857D01*
X121102285Y-59883857D02*
X121149904Y-59979095D01*
X121149904Y-59979095D02*
X121149904Y-60074333D01*
X121149904Y-60074333D02*
X121102285Y-60217190D01*
X121102285Y-60217190D02*
X120530857Y-60788619D01*
X120530857Y-60788619D02*
X121149904Y-60788619D01*
%TO.C,R20*%
X112029642Y-64088619D02*
X111696309Y-63612428D01*
X111458214Y-64088619D02*
X111458214Y-63088619D01*
X111458214Y-63088619D02*
X111839166Y-63088619D01*
X111839166Y-63088619D02*
X111934404Y-63136238D01*
X111934404Y-63136238D02*
X111982023Y-63183857D01*
X111982023Y-63183857D02*
X112029642Y-63279095D01*
X112029642Y-63279095D02*
X112029642Y-63421952D01*
X112029642Y-63421952D02*
X111982023Y-63517190D01*
X111982023Y-63517190D02*
X111934404Y-63564809D01*
X111934404Y-63564809D02*
X111839166Y-63612428D01*
X111839166Y-63612428D02*
X111458214Y-63612428D01*
X112410595Y-63183857D02*
X112458214Y-63136238D01*
X112458214Y-63136238D02*
X112553452Y-63088619D01*
X112553452Y-63088619D02*
X112791547Y-63088619D01*
X112791547Y-63088619D02*
X112886785Y-63136238D01*
X112886785Y-63136238D02*
X112934404Y-63183857D01*
X112934404Y-63183857D02*
X112982023Y-63279095D01*
X112982023Y-63279095D02*
X112982023Y-63374333D01*
X112982023Y-63374333D02*
X112934404Y-63517190D01*
X112934404Y-63517190D02*
X112362976Y-64088619D01*
X112362976Y-64088619D02*
X112982023Y-64088619D01*
X113601071Y-63088619D02*
X113696309Y-63088619D01*
X113696309Y-63088619D02*
X113791547Y-63136238D01*
X113791547Y-63136238D02*
X113839166Y-63183857D01*
X113839166Y-63183857D02*
X113886785Y-63279095D01*
X113886785Y-63279095D02*
X113934404Y-63469571D01*
X113934404Y-63469571D02*
X113934404Y-63707666D01*
X113934404Y-63707666D02*
X113886785Y-63898142D01*
X113886785Y-63898142D02*
X113839166Y-63993380D01*
X113839166Y-63993380D02*
X113791547Y-64041000D01*
X113791547Y-64041000D02*
X113696309Y-64088619D01*
X113696309Y-64088619D02*
X113601071Y-64088619D01*
X113601071Y-64088619D02*
X113505833Y-64041000D01*
X113505833Y-64041000D02*
X113458214Y-63993380D01*
X113458214Y-63993380D02*
X113410595Y-63898142D01*
X113410595Y-63898142D02*
X113362976Y-63707666D01*
X113362976Y-63707666D02*
X113362976Y-63469571D01*
X113362976Y-63469571D02*
X113410595Y-63279095D01*
X113410595Y-63279095D02*
X113458214Y-63183857D01*
X113458214Y-63183857D02*
X113505833Y-63136238D01*
X113505833Y-63136238D02*
X113601071Y-63088619D01*
%TO.C,C17*%
X122087780Y-94419657D02*
X122135400Y-94467276D01*
X122135400Y-94467276D02*
X122183019Y-94610133D01*
X122183019Y-94610133D02*
X122183019Y-94705371D01*
X122183019Y-94705371D02*
X122135400Y-94848228D01*
X122135400Y-94848228D02*
X122040161Y-94943466D01*
X122040161Y-94943466D02*
X121944923Y-94991085D01*
X121944923Y-94991085D02*
X121754447Y-95038704D01*
X121754447Y-95038704D02*
X121611590Y-95038704D01*
X121611590Y-95038704D02*
X121421114Y-94991085D01*
X121421114Y-94991085D02*
X121325876Y-94943466D01*
X121325876Y-94943466D02*
X121230638Y-94848228D01*
X121230638Y-94848228D02*
X121183019Y-94705371D01*
X121183019Y-94705371D02*
X121183019Y-94610133D01*
X121183019Y-94610133D02*
X121230638Y-94467276D01*
X121230638Y-94467276D02*
X121278257Y-94419657D01*
X122183019Y-93467276D02*
X122183019Y-94038704D01*
X122183019Y-93752990D02*
X121183019Y-93752990D01*
X121183019Y-93752990D02*
X121325876Y-93848228D01*
X121325876Y-93848228D02*
X121421114Y-93943466D01*
X121421114Y-93943466D02*
X121468733Y-94038704D01*
X121183019Y-93133942D02*
X121183019Y-92467276D01*
X121183019Y-92467276D02*
X122183019Y-92895847D01*
%TO.C,C23*%
X104607142Y-81167380D02*
X104559523Y-81215000D01*
X104559523Y-81215000D02*
X104416666Y-81262619D01*
X104416666Y-81262619D02*
X104321428Y-81262619D01*
X104321428Y-81262619D02*
X104178571Y-81215000D01*
X104178571Y-81215000D02*
X104083333Y-81119761D01*
X104083333Y-81119761D02*
X104035714Y-81024523D01*
X104035714Y-81024523D02*
X103988095Y-80834047D01*
X103988095Y-80834047D02*
X103988095Y-80691190D01*
X103988095Y-80691190D02*
X104035714Y-80500714D01*
X104035714Y-80500714D02*
X104083333Y-80405476D01*
X104083333Y-80405476D02*
X104178571Y-80310238D01*
X104178571Y-80310238D02*
X104321428Y-80262619D01*
X104321428Y-80262619D02*
X104416666Y-80262619D01*
X104416666Y-80262619D02*
X104559523Y-80310238D01*
X104559523Y-80310238D02*
X104607142Y-80357857D01*
X104988095Y-80357857D02*
X105035714Y-80310238D01*
X105035714Y-80310238D02*
X105130952Y-80262619D01*
X105130952Y-80262619D02*
X105369047Y-80262619D01*
X105369047Y-80262619D02*
X105464285Y-80310238D01*
X105464285Y-80310238D02*
X105511904Y-80357857D01*
X105511904Y-80357857D02*
X105559523Y-80453095D01*
X105559523Y-80453095D02*
X105559523Y-80548333D01*
X105559523Y-80548333D02*
X105511904Y-80691190D01*
X105511904Y-80691190D02*
X104940476Y-81262619D01*
X104940476Y-81262619D02*
X105559523Y-81262619D01*
X105892857Y-80262619D02*
X106511904Y-80262619D01*
X106511904Y-80262619D02*
X106178571Y-80643571D01*
X106178571Y-80643571D02*
X106321428Y-80643571D01*
X106321428Y-80643571D02*
X106416666Y-80691190D01*
X106416666Y-80691190D02*
X106464285Y-80738809D01*
X106464285Y-80738809D02*
X106511904Y-80834047D01*
X106511904Y-80834047D02*
X106511904Y-81072142D01*
X106511904Y-81072142D02*
X106464285Y-81167380D01*
X106464285Y-81167380D02*
X106416666Y-81215000D01*
X106416666Y-81215000D02*
X106321428Y-81262619D01*
X106321428Y-81262619D02*
X106035714Y-81262619D01*
X106035714Y-81262619D02*
X105940476Y-81215000D01*
X105940476Y-81215000D02*
X105892857Y-81167380D01*
%TO.C,R9*%
X118445619Y-96813666D02*
X117969428Y-97146999D01*
X118445619Y-97385094D02*
X117445619Y-97385094D01*
X117445619Y-97385094D02*
X117445619Y-97004142D01*
X117445619Y-97004142D02*
X117493238Y-96908904D01*
X117493238Y-96908904D02*
X117540857Y-96861285D01*
X117540857Y-96861285D02*
X117636095Y-96813666D01*
X117636095Y-96813666D02*
X117778952Y-96813666D01*
X117778952Y-96813666D02*
X117874190Y-96861285D01*
X117874190Y-96861285D02*
X117921809Y-96908904D01*
X117921809Y-96908904D02*
X117969428Y-97004142D01*
X117969428Y-97004142D02*
X117969428Y-97385094D01*
X118445619Y-96337475D02*
X118445619Y-96146999D01*
X118445619Y-96146999D02*
X118398000Y-96051761D01*
X118398000Y-96051761D02*
X118350380Y-96004142D01*
X118350380Y-96004142D02*
X118207523Y-95908904D01*
X118207523Y-95908904D02*
X118017047Y-95861285D01*
X118017047Y-95861285D02*
X117636095Y-95861285D01*
X117636095Y-95861285D02*
X117540857Y-95908904D01*
X117540857Y-95908904D02*
X117493238Y-95956523D01*
X117493238Y-95956523D02*
X117445619Y-96051761D01*
X117445619Y-96051761D02*
X117445619Y-96242237D01*
X117445619Y-96242237D02*
X117493238Y-96337475D01*
X117493238Y-96337475D02*
X117540857Y-96385094D01*
X117540857Y-96385094D02*
X117636095Y-96432713D01*
X117636095Y-96432713D02*
X117874190Y-96432713D01*
X117874190Y-96432713D02*
X117969428Y-96385094D01*
X117969428Y-96385094D02*
X118017047Y-96337475D01*
X118017047Y-96337475D02*
X118064666Y-96242237D01*
X118064666Y-96242237D02*
X118064666Y-96051761D01*
X118064666Y-96051761D02*
X118017047Y-95956523D01*
X118017047Y-95956523D02*
X117969428Y-95908904D01*
X117969428Y-95908904D02*
X117874190Y-95861285D01*
%TO.C,J1*%
X75093019Y-79682933D02*
X75807304Y-79682933D01*
X75807304Y-79682933D02*
X75950161Y-79730552D01*
X75950161Y-79730552D02*
X76045400Y-79825790D01*
X76045400Y-79825790D02*
X76093019Y-79968647D01*
X76093019Y-79968647D02*
X76093019Y-80063885D01*
X76093019Y-78682933D02*
X76093019Y-79254361D01*
X76093019Y-78968647D02*
X75093019Y-78968647D01*
X75093019Y-78968647D02*
X75235876Y-79063885D01*
X75235876Y-79063885D02*
X75331114Y-79159123D01*
X75331114Y-79159123D02*
X75378733Y-79254361D01*
%TO.C,C28*%
X122536799Y-87582366D02*
X122503466Y-87615700D01*
X122503466Y-87615700D02*
X122403466Y-87649033D01*
X122403466Y-87649033D02*
X122336799Y-87649033D01*
X122336799Y-87649033D02*
X122236799Y-87615700D01*
X122236799Y-87615700D02*
X122170133Y-87549033D01*
X122170133Y-87549033D02*
X122136799Y-87482366D01*
X122136799Y-87482366D02*
X122103466Y-87349033D01*
X122103466Y-87349033D02*
X122103466Y-87249033D01*
X122103466Y-87249033D02*
X122136799Y-87115700D01*
X122136799Y-87115700D02*
X122170133Y-87049033D01*
X122170133Y-87049033D02*
X122236799Y-86982366D01*
X122236799Y-86982366D02*
X122336799Y-86949033D01*
X122336799Y-86949033D02*
X122403466Y-86949033D01*
X122403466Y-86949033D02*
X122503466Y-86982366D01*
X122503466Y-86982366D02*
X122536799Y-87015700D01*
X122803466Y-87015700D02*
X122836799Y-86982366D01*
X122836799Y-86982366D02*
X122903466Y-86949033D01*
X122903466Y-86949033D02*
X123070133Y-86949033D01*
X123070133Y-86949033D02*
X123136799Y-86982366D01*
X123136799Y-86982366D02*
X123170133Y-87015700D01*
X123170133Y-87015700D02*
X123203466Y-87082366D01*
X123203466Y-87082366D02*
X123203466Y-87149033D01*
X123203466Y-87149033D02*
X123170133Y-87249033D01*
X123170133Y-87249033D02*
X122770133Y-87649033D01*
X122770133Y-87649033D02*
X123203466Y-87649033D01*
X123603466Y-87249033D02*
X123536800Y-87215700D01*
X123536800Y-87215700D02*
X123503466Y-87182366D01*
X123503466Y-87182366D02*
X123470133Y-87115700D01*
X123470133Y-87115700D02*
X123470133Y-87082366D01*
X123470133Y-87082366D02*
X123503466Y-87015700D01*
X123503466Y-87015700D02*
X123536800Y-86982366D01*
X123536800Y-86982366D02*
X123603466Y-86949033D01*
X123603466Y-86949033D02*
X123736800Y-86949033D01*
X123736800Y-86949033D02*
X123803466Y-86982366D01*
X123803466Y-86982366D02*
X123836800Y-87015700D01*
X123836800Y-87015700D02*
X123870133Y-87082366D01*
X123870133Y-87082366D02*
X123870133Y-87115700D01*
X123870133Y-87115700D02*
X123836800Y-87182366D01*
X123836800Y-87182366D02*
X123803466Y-87215700D01*
X123803466Y-87215700D02*
X123736800Y-87249033D01*
X123736800Y-87249033D02*
X123603466Y-87249033D01*
X123603466Y-87249033D02*
X123536800Y-87282366D01*
X123536800Y-87282366D02*
X123503466Y-87315700D01*
X123503466Y-87315700D02*
X123470133Y-87382366D01*
X123470133Y-87382366D02*
X123470133Y-87515700D01*
X123470133Y-87515700D02*
X123503466Y-87582366D01*
X123503466Y-87582366D02*
X123536800Y-87615700D01*
X123536800Y-87615700D02*
X123603466Y-87649033D01*
X123603466Y-87649033D02*
X123736800Y-87649033D01*
X123736800Y-87649033D02*
X123803466Y-87615700D01*
X123803466Y-87615700D02*
X123836800Y-87582366D01*
X123836800Y-87582366D02*
X123870133Y-87515700D01*
X123870133Y-87515700D02*
X123870133Y-87382366D01*
X123870133Y-87382366D02*
X123836800Y-87315700D01*
X123836800Y-87315700D02*
X123803466Y-87282366D01*
X123803466Y-87282366D02*
X123736800Y-87249033D01*
%TO.C,R14*%
X101769942Y-79482019D02*
X101436609Y-79005828D01*
X101198514Y-79482019D02*
X101198514Y-78482019D01*
X101198514Y-78482019D02*
X101579466Y-78482019D01*
X101579466Y-78482019D02*
X101674704Y-78529638D01*
X101674704Y-78529638D02*
X101722323Y-78577257D01*
X101722323Y-78577257D02*
X101769942Y-78672495D01*
X101769942Y-78672495D02*
X101769942Y-78815352D01*
X101769942Y-78815352D02*
X101722323Y-78910590D01*
X101722323Y-78910590D02*
X101674704Y-78958209D01*
X101674704Y-78958209D02*
X101579466Y-79005828D01*
X101579466Y-79005828D02*
X101198514Y-79005828D01*
X102722323Y-79482019D02*
X102150895Y-79482019D01*
X102436609Y-79482019D02*
X102436609Y-78482019D01*
X102436609Y-78482019D02*
X102341371Y-78624876D01*
X102341371Y-78624876D02*
X102246133Y-78720114D01*
X102246133Y-78720114D02*
X102150895Y-78767733D01*
X103579466Y-78815352D02*
X103579466Y-79482019D01*
X103341371Y-78434400D02*
X103103276Y-79148685D01*
X103103276Y-79148685D02*
X103722323Y-79148685D01*
%TO.C,C25*%
X103751142Y-96307380D02*
X103703523Y-96355000D01*
X103703523Y-96355000D02*
X103560666Y-96402619D01*
X103560666Y-96402619D02*
X103465428Y-96402619D01*
X103465428Y-96402619D02*
X103322571Y-96355000D01*
X103322571Y-96355000D02*
X103227333Y-96259761D01*
X103227333Y-96259761D02*
X103179714Y-96164523D01*
X103179714Y-96164523D02*
X103132095Y-95974047D01*
X103132095Y-95974047D02*
X103132095Y-95831190D01*
X103132095Y-95831190D02*
X103179714Y-95640714D01*
X103179714Y-95640714D02*
X103227333Y-95545476D01*
X103227333Y-95545476D02*
X103322571Y-95450238D01*
X103322571Y-95450238D02*
X103465428Y-95402619D01*
X103465428Y-95402619D02*
X103560666Y-95402619D01*
X103560666Y-95402619D02*
X103703523Y-95450238D01*
X103703523Y-95450238D02*
X103751142Y-95497857D01*
X104132095Y-95497857D02*
X104179714Y-95450238D01*
X104179714Y-95450238D02*
X104274952Y-95402619D01*
X104274952Y-95402619D02*
X104513047Y-95402619D01*
X104513047Y-95402619D02*
X104608285Y-95450238D01*
X104608285Y-95450238D02*
X104655904Y-95497857D01*
X104655904Y-95497857D02*
X104703523Y-95593095D01*
X104703523Y-95593095D02*
X104703523Y-95688333D01*
X104703523Y-95688333D02*
X104655904Y-95831190D01*
X104655904Y-95831190D02*
X104084476Y-96402619D01*
X104084476Y-96402619D02*
X104703523Y-96402619D01*
X105608285Y-95402619D02*
X105132095Y-95402619D01*
X105132095Y-95402619D02*
X105084476Y-95878809D01*
X105084476Y-95878809D02*
X105132095Y-95831190D01*
X105132095Y-95831190D02*
X105227333Y-95783571D01*
X105227333Y-95783571D02*
X105465428Y-95783571D01*
X105465428Y-95783571D02*
X105560666Y-95831190D01*
X105560666Y-95831190D02*
X105608285Y-95878809D01*
X105608285Y-95878809D02*
X105655904Y-95974047D01*
X105655904Y-95974047D02*
X105655904Y-96212142D01*
X105655904Y-96212142D02*
X105608285Y-96307380D01*
X105608285Y-96307380D02*
X105560666Y-96355000D01*
X105560666Y-96355000D02*
X105465428Y-96402619D01*
X105465428Y-96402619D02*
X105227333Y-96402619D01*
X105227333Y-96402619D02*
X105132095Y-96355000D01*
X105132095Y-96355000D02*
X105084476Y-96307380D01*
%TO.C,C27*%
X133615780Y-100007657D02*
X133663400Y-100055276D01*
X133663400Y-100055276D02*
X133711019Y-100198133D01*
X133711019Y-100198133D02*
X133711019Y-100293371D01*
X133711019Y-100293371D02*
X133663400Y-100436228D01*
X133663400Y-100436228D02*
X133568161Y-100531466D01*
X133568161Y-100531466D02*
X133472923Y-100579085D01*
X133472923Y-100579085D02*
X133282447Y-100626704D01*
X133282447Y-100626704D02*
X133139590Y-100626704D01*
X133139590Y-100626704D02*
X132949114Y-100579085D01*
X132949114Y-100579085D02*
X132853876Y-100531466D01*
X132853876Y-100531466D02*
X132758638Y-100436228D01*
X132758638Y-100436228D02*
X132711019Y-100293371D01*
X132711019Y-100293371D02*
X132711019Y-100198133D01*
X132711019Y-100198133D02*
X132758638Y-100055276D01*
X132758638Y-100055276D02*
X132806257Y-100007657D01*
X132806257Y-99626704D02*
X132758638Y-99579085D01*
X132758638Y-99579085D02*
X132711019Y-99483847D01*
X132711019Y-99483847D02*
X132711019Y-99245752D01*
X132711019Y-99245752D02*
X132758638Y-99150514D01*
X132758638Y-99150514D02*
X132806257Y-99102895D01*
X132806257Y-99102895D02*
X132901495Y-99055276D01*
X132901495Y-99055276D02*
X132996733Y-99055276D01*
X132996733Y-99055276D02*
X133139590Y-99102895D01*
X133139590Y-99102895D02*
X133711019Y-99674323D01*
X133711019Y-99674323D02*
X133711019Y-99055276D01*
X132711019Y-98721942D02*
X132711019Y-98055276D01*
X132711019Y-98055276D02*
X133711019Y-98483847D01*
%TO.C,R21*%
X124612619Y-111490357D02*
X124136428Y-111823690D01*
X124612619Y-112061785D02*
X123612619Y-112061785D01*
X123612619Y-112061785D02*
X123612619Y-111680833D01*
X123612619Y-111680833D02*
X123660238Y-111585595D01*
X123660238Y-111585595D02*
X123707857Y-111537976D01*
X123707857Y-111537976D02*
X123803095Y-111490357D01*
X123803095Y-111490357D02*
X123945952Y-111490357D01*
X123945952Y-111490357D02*
X124041190Y-111537976D01*
X124041190Y-111537976D02*
X124088809Y-111585595D01*
X124088809Y-111585595D02*
X124136428Y-111680833D01*
X124136428Y-111680833D02*
X124136428Y-112061785D01*
X123707857Y-111109404D02*
X123660238Y-111061785D01*
X123660238Y-111061785D02*
X123612619Y-110966547D01*
X123612619Y-110966547D02*
X123612619Y-110728452D01*
X123612619Y-110728452D02*
X123660238Y-110633214D01*
X123660238Y-110633214D02*
X123707857Y-110585595D01*
X123707857Y-110585595D02*
X123803095Y-110537976D01*
X123803095Y-110537976D02*
X123898333Y-110537976D01*
X123898333Y-110537976D02*
X124041190Y-110585595D01*
X124041190Y-110585595D02*
X124612619Y-111157023D01*
X124612619Y-111157023D02*
X124612619Y-110537976D01*
X124612619Y-109585595D02*
X124612619Y-110157023D01*
X124612619Y-109871309D02*
X123612619Y-109871309D01*
X123612619Y-109871309D02*
X123755476Y-109966547D01*
X123755476Y-109966547D02*
X123850714Y-110061785D01*
X123850714Y-110061785D02*
X123898333Y-110157023D01*
%TO.C,Y1*%
X121523809Y-62363428D02*
X121523809Y-62839619D01*
X121190476Y-61839619D02*
X121523809Y-62363428D01*
X121523809Y-62363428D02*
X121857142Y-61839619D01*
X122714285Y-62839619D02*
X122142857Y-62839619D01*
X122428571Y-62839619D02*
X122428571Y-61839619D01*
X122428571Y-61839619D02*
X122333333Y-61982476D01*
X122333333Y-61982476D02*
X122238095Y-62077714D01*
X122238095Y-62077714D02*
X122142857Y-62125333D01*
%TO.C,TP2*%
X122389095Y-74869619D02*
X122960523Y-74869619D01*
X122674809Y-75869619D02*
X122674809Y-74869619D01*
X123293857Y-75869619D02*
X123293857Y-74869619D01*
X123293857Y-74869619D02*
X123674809Y-74869619D01*
X123674809Y-74869619D02*
X123770047Y-74917238D01*
X123770047Y-74917238D02*
X123817666Y-74964857D01*
X123817666Y-74964857D02*
X123865285Y-75060095D01*
X123865285Y-75060095D02*
X123865285Y-75202952D01*
X123865285Y-75202952D02*
X123817666Y-75298190D01*
X123817666Y-75298190D02*
X123770047Y-75345809D01*
X123770047Y-75345809D02*
X123674809Y-75393428D01*
X123674809Y-75393428D02*
X123293857Y-75393428D01*
X124246238Y-74964857D02*
X124293857Y-74917238D01*
X124293857Y-74917238D02*
X124389095Y-74869619D01*
X124389095Y-74869619D02*
X124627190Y-74869619D01*
X124627190Y-74869619D02*
X124722428Y-74917238D01*
X124722428Y-74917238D02*
X124770047Y-74964857D01*
X124770047Y-74964857D02*
X124817666Y-75060095D01*
X124817666Y-75060095D02*
X124817666Y-75155333D01*
X124817666Y-75155333D02*
X124770047Y-75298190D01*
X124770047Y-75298190D02*
X124198619Y-75869619D01*
X124198619Y-75869619D02*
X124817666Y-75869619D01*
%TO.C,C21*%
X95877142Y-106539380D02*
X95829523Y-106587000D01*
X95829523Y-106587000D02*
X95686666Y-106634619D01*
X95686666Y-106634619D02*
X95591428Y-106634619D01*
X95591428Y-106634619D02*
X95448571Y-106587000D01*
X95448571Y-106587000D02*
X95353333Y-106491761D01*
X95353333Y-106491761D02*
X95305714Y-106396523D01*
X95305714Y-106396523D02*
X95258095Y-106206047D01*
X95258095Y-106206047D02*
X95258095Y-106063190D01*
X95258095Y-106063190D02*
X95305714Y-105872714D01*
X95305714Y-105872714D02*
X95353333Y-105777476D01*
X95353333Y-105777476D02*
X95448571Y-105682238D01*
X95448571Y-105682238D02*
X95591428Y-105634619D01*
X95591428Y-105634619D02*
X95686666Y-105634619D01*
X95686666Y-105634619D02*
X95829523Y-105682238D01*
X95829523Y-105682238D02*
X95877142Y-105729857D01*
X96258095Y-105729857D02*
X96305714Y-105682238D01*
X96305714Y-105682238D02*
X96400952Y-105634619D01*
X96400952Y-105634619D02*
X96639047Y-105634619D01*
X96639047Y-105634619D02*
X96734285Y-105682238D01*
X96734285Y-105682238D02*
X96781904Y-105729857D01*
X96781904Y-105729857D02*
X96829523Y-105825095D01*
X96829523Y-105825095D02*
X96829523Y-105920333D01*
X96829523Y-105920333D02*
X96781904Y-106063190D01*
X96781904Y-106063190D02*
X96210476Y-106634619D01*
X96210476Y-106634619D02*
X96829523Y-106634619D01*
X97781904Y-106634619D02*
X97210476Y-106634619D01*
X97496190Y-106634619D02*
X97496190Y-105634619D01*
X97496190Y-105634619D02*
X97400952Y-105777476D01*
X97400952Y-105777476D02*
X97305714Y-105872714D01*
X97305714Y-105872714D02*
X97210476Y-105920333D01*
%TO.C,C9*%
X92823380Y-98337666D02*
X92871000Y-98385285D01*
X92871000Y-98385285D02*
X92918619Y-98528142D01*
X92918619Y-98528142D02*
X92918619Y-98623380D01*
X92918619Y-98623380D02*
X92871000Y-98766237D01*
X92871000Y-98766237D02*
X92775761Y-98861475D01*
X92775761Y-98861475D02*
X92680523Y-98909094D01*
X92680523Y-98909094D02*
X92490047Y-98956713D01*
X92490047Y-98956713D02*
X92347190Y-98956713D01*
X92347190Y-98956713D02*
X92156714Y-98909094D01*
X92156714Y-98909094D02*
X92061476Y-98861475D01*
X92061476Y-98861475D02*
X91966238Y-98766237D01*
X91966238Y-98766237D02*
X91918619Y-98623380D01*
X91918619Y-98623380D02*
X91918619Y-98528142D01*
X91918619Y-98528142D02*
X91966238Y-98385285D01*
X91966238Y-98385285D02*
X92013857Y-98337666D01*
X92918619Y-97861475D02*
X92918619Y-97670999D01*
X92918619Y-97670999D02*
X92871000Y-97575761D01*
X92871000Y-97575761D02*
X92823380Y-97528142D01*
X92823380Y-97528142D02*
X92680523Y-97432904D01*
X92680523Y-97432904D02*
X92490047Y-97385285D01*
X92490047Y-97385285D02*
X92109095Y-97385285D01*
X92109095Y-97385285D02*
X92013857Y-97432904D01*
X92013857Y-97432904D02*
X91966238Y-97480523D01*
X91966238Y-97480523D02*
X91918619Y-97575761D01*
X91918619Y-97575761D02*
X91918619Y-97766237D01*
X91918619Y-97766237D02*
X91966238Y-97861475D01*
X91966238Y-97861475D02*
X92013857Y-97909094D01*
X92013857Y-97909094D02*
X92109095Y-97956713D01*
X92109095Y-97956713D02*
X92347190Y-97956713D01*
X92347190Y-97956713D02*
X92442428Y-97909094D01*
X92442428Y-97909094D02*
X92490047Y-97861475D01*
X92490047Y-97861475D02*
X92537666Y-97766237D01*
X92537666Y-97766237D02*
X92537666Y-97575761D01*
X92537666Y-97575761D02*
X92490047Y-97480523D01*
X92490047Y-97480523D02*
X92442428Y-97432904D01*
X92442428Y-97432904D02*
X92347190Y-97385285D01*
%TO.C,C4*%
X93813333Y-71191780D02*
X93765714Y-71239400D01*
X93765714Y-71239400D02*
X93622857Y-71287019D01*
X93622857Y-71287019D02*
X93527619Y-71287019D01*
X93527619Y-71287019D02*
X93384762Y-71239400D01*
X93384762Y-71239400D02*
X93289524Y-71144161D01*
X93289524Y-71144161D02*
X93241905Y-71048923D01*
X93241905Y-71048923D02*
X93194286Y-70858447D01*
X93194286Y-70858447D02*
X93194286Y-70715590D01*
X93194286Y-70715590D02*
X93241905Y-70525114D01*
X93241905Y-70525114D02*
X93289524Y-70429876D01*
X93289524Y-70429876D02*
X93384762Y-70334638D01*
X93384762Y-70334638D02*
X93527619Y-70287019D01*
X93527619Y-70287019D02*
X93622857Y-70287019D01*
X93622857Y-70287019D02*
X93765714Y-70334638D01*
X93765714Y-70334638D02*
X93813333Y-70382257D01*
X94670476Y-70620352D02*
X94670476Y-71287019D01*
X94432381Y-70239400D02*
X94194286Y-70953685D01*
X94194286Y-70953685D02*
X94813333Y-70953685D01*
%TO.C,U6*%
X125538095Y-86962619D02*
X125538095Y-87772142D01*
X125538095Y-87772142D02*
X125585714Y-87867380D01*
X125585714Y-87867380D02*
X125633333Y-87915000D01*
X125633333Y-87915000D02*
X125728571Y-87962619D01*
X125728571Y-87962619D02*
X125919047Y-87962619D01*
X125919047Y-87962619D02*
X126014285Y-87915000D01*
X126014285Y-87915000D02*
X126061904Y-87867380D01*
X126061904Y-87867380D02*
X126109523Y-87772142D01*
X126109523Y-87772142D02*
X126109523Y-86962619D01*
X127014285Y-86962619D02*
X126823809Y-86962619D01*
X126823809Y-86962619D02*
X126728571Y-87010238D01*
X126728571Y-87010238D02*
X126680952Y-87057857D01*
X126680952Y-87057857D02*
X126585714Y-87200714D01*
X126585714Y-87200714D02*
X126538095Y-87391190D01*
X126538095Y-87391190D02*
X126538095Y-87772142D01*
X126538095Y-87772142D02*
X126585714Y-87867380D01*
X126585714Y-87867380D02*
X126633333Y-87915000D01*
X126633333Y-87915000D02*
X126728571Y-87962619D01*
X126728571Y-87962619D02*
X126919047Y-87962619D01*
X126919047Y-87962619D02*
X127014285Y-87915000D01*
X127014285Y-87915000D02*
X127061904Y-87867380D01*
X127061904Y-87867380D02*
X127109523Y-87772142D01*
X127109523Y-87772142D02*
X127109523Y-87534047D01*
X127109523Y-87534047D02*
X127061904Y-87438809D01*
X127061904Y-87438809D02*
X127014285Y-87391190D01*
X127014285Y-87391190D02*
X126919047Y-87343571D01*
X126919047Y-87343571D02*
X126728571Y-87343571D01*
X126728571Y-87343571D02*
X126633333Y-87391190D01*
X126633333Y-87391190D02*
X126585714Y-87438809D01*
X126585714Y-87438809D02*
X126538095Y-87534047D01*
%TO.C,C7*%
X92696380Y-102782666D02*
X92744000Y-102830285D01*
X92744000Y-102830285D02*
X92791619Y-102973142D01*
X92791619Y-102973142D02*
X92791619Y-103068380D01*
X92791619Y-103068380D02*
X92744000Y-103211237D01*
X92744000Y-103211237D02*
X92648761Y-103306475D01*
X92648761Y-103306475D02*
X92553523Y-103354094D01*
X92553523Y-103354094D02*
X92363047Y-103401713D01*
X92363047Y-103401713D02*
X92220190Y-103401713D01*
X92220190Y-103401713D02*
X92029714Y-103354094D01*
X92029714Y-103354094D02*
X91934476Y-103306475D01*
X91934476Y-103306475D02*
X91839238Y-103211237D01*
X91839238Y-103211237D02*
X91791619Y-103068380D01*
X91791619Y-103068380D02*
X91791619Y-102973142D01*
X91791619Y-102973142D02*
X91839238Y-102830285D01*
X91839238Y-102830285D02*
X91886857Y-102782666D01*
X91791619Y-102449332D02*
X91791619Y-101782666D01*
X91791619Y-101782666D02*
X92791619Y-102211237D01*
%TO.C,R3*%
X98131333Y-85933619D02*
X97798000Y-85457428D01*
X97559905Y-85933619D02*
X97559905Y-84933619D01*
X97559905Y-84933619D02*
X97940857Y-84933619D01*
X97940857Y-84933619D02*
X98036095Y-84981238D01*
X98036095Y-84981238D02*
X98083714Y-85028857D01*
X98083714Y-85028857D02*
X98131333Y-85124095D01*
X98131333Y-85124095D02*
X98131333Y-85266952D01*
X98131333Y-85266952D02*
X98083714Y-85362190D01*
X98083714Y-85362190D02*
X98036095Y-85409809D01*
X98036095Y-85409809D02*
X97940857Y-85457428D01*
X97940857Y-85457428D02*
X97559905Y-85457428D01*
X98464667Y-84933619D02*
X99083714Y-84933619D01*
X99083714Y-84933619D02*
X98750381Y-85314571D01*
X98750381Y-85314571D02*
X98893238Y-85314571D01*
X98893238Y-85314571D02*
X98988476Y-85362190D01*
X98988476Y-85362190D02*
X99036095Y-85409809D01*
X99036095Y-85409809D02*
X99083714Y-85505047D01*
X99083714Y-85505047D02*
X99083714Y-85743142D01*
X99083714Y-85743142D02*
X99036095Y-85838380D01*
X99036095Y-85838380D02*
X98988476Y-85886000D01*
X98988476Y-85886000D02*
X98893238Y-85933619D01*
X98893238Y-85933619D02*
X98607524Y-85933619D01*
X98607524Y-85933619D02*
X98512286Y-85886000D01*
X98512286Y-85886000D02*
X98464667Y-85838380D01*
%TO.C,C6*%
X93534580Y-83123066D02*
X93582200Y-83170685D01*
X93582200Y-83170685D02*
X93629819Y-83313542D01*
X93629819Y-83313542D02*
X93629819Y-83408780D01*
X93629819Y-83408780D02*
X93582200Y-83551637D01*
X93582200Y-83551637D02*
X93486961Y-83646875D01*
X93486961Y-83646875D02*
X93391723Y-83694494D01*
X93391723Y-83694494D02*
X93201247Y-83742113D01*
X93201247Y-83742113D02*
X93058390Y-83742113D01*
X93058390Y-83742113D02*
X92867914Y-83694494D01*
X92867914Y-83694494D02*
X92772676Y-83646875D01*
X92772676Y-83646875D02*
X92677438Y-83551637D01*
X92677438Y-83551637D02*
X92629819Y-83408780D01*
X92629819Y-83408780D02*
X92629819Y-83313542D01*
X92629819Y-83313542D02*
X92677438Y-83170685D01*
X92677438Y-83170685D02*
X92725057Y-83123066D01*
X92629819Y-82265923D02*
X92629819Y-82456399D01*
X92629819Y-82456399D02*
X92677438Y-82551637D01*
X92677438Y-82551637D02*
X92725057Y-82599256D01*
X92725057Y-82599256D02*
X92867914Y-82694494D01*
X92867914Y-82694494D02*
X93058390Y-82742113D01*
X93058390Y-82742113D02*
X93439342Y-82742113D01*
X93439342Y-82742113D02*
X93534580Y-82694494D01*
X93534580Y-82694494D02*
X93582200Y-82646875D01*
X93582200Y-82646875D02*
X93629819Y-82551637D01*
X93629819Y-82551637D02*
X93629819Y-82361161D01*
X93629819Y-82361161D02*
X93582200Y-82265923D01*
X93582200Y-82265923D02*
X93534580Y-82218304D01*
X93534580Y-82218304D02*
X93439342Y-82170685D01*
X93439342Y-82170685D02*
X93201247Y-82170685D01*
X93201247Y-82170685D02*
X93106009Y-82218304D01*
X93106009Y-82218304D02*
X93058390Y-82265923D01*
X93058390Y-82265923D02*
X93010771Y-82361161D01*
X93010771Y-82361161D02*
X93010771Y-82551637D01*
X93010771Y-82551637D02*
X93058390Y-82646875D01*
X93058390Y-82646875D02*
X93106009Y-82694494D01*
X93106009Y-82694494D02*
X93201247Y-82742113D01*
%TO.C,R12*%
X119769642Y-96612619D02*
X119436309Y-96136428D01*
X119198214Y-96612619D02*
X119198214Y-95612619D01*
X119198214Y-95612619D02*
X119579166Y-95612619D01*
X119579166Y-95612619D02*
X119674404Y-95660238D01*
X119674404Y-95660238D02*
X119722023Y-95707857D01*
X119722023Y-95707857D02*
X119769642Y-95803095D01*
X119769642Y-95803095D02*
X119769642Y-95945952D01*
X119769642Y-95945952D02*
X119722023Y-96041190D01*
X119722023Y-96041190D02*
X119674404Y-96088809D01*
X119674404Y-96088809D02*
X119579166Y-96136428D01*
X119579166Y-96136428D02*
X119198214Y-96136428D01*
X120722023Y-96612619D02*
X120150595Y-96612619D01*
X120436309Y-96612619D02*
X120436309Y-95612619D01*
X120436309Y-95612619D02*
X120341071Y-95755476D01*
X120341071Y-95755476D02*
X120245833Y-95850714D01*
X120245833Y-95850714D02*
X120150595Y-95898333D01*
X121102976Y-95707857D02*
X121150595Y-95660238D01*
X121150595Y-95660238D02*
X121245833Y-95612619D01*
X121245833Y-95612619D02*
X121483928Y-95612619D01*
X121483928Y-95612619D02*
X121579166Y-95660238D01*
X121579166Y-95660238D02*
X121626785Y-95707857D01*
X121626785Y-95707857D02*
X121674404Y-95803095D01*
X121674404Y-95803095D02*
X121674404Y-95898333D01*
X121674404Y-95898333D02*
X121626785Y-96041190D01*
X121626785Y-96041190D02*
X121055357Y-96612619D01*
X121055357Y-96612619D02*
X121674404Y-96612619D01*
%TO.C,R11*%
X116959142Y-100792619D02*
X116625809Y-100316428D01*
X116387714Y-100792619D02*
X116387714Y-99792619D01*
X116387714Y-99792619D02*
X116768666Y-99792619D01*
X116768666Y-99792619D02*
X116863904Y-99840238D01*
X116863904Y-99840238D02*
X116911523Y-99887857D01*
X116911523Y-99887857D02*
X116959142Y-99983095D01*
X116959142Y-99983095D02*
X116959142Y-100125952D01*
X116959142Y-100125952D02*
X116911523Y-100221190D01*
X116911523Y-100221190D02*
X116863904Y-100268809D01*
X116863904Y-100268809D02*
X116768666Y-100316428D01*
X116768666Y-100316428D02*
X116387714Y-100316428D01*
X117911523Y-100792619D02*
X117340095Y-100792619D01*
X117625809Y-100792619D02*
X117625809Y-99792619D01*
X117625809Y-99792619D02*
X117530571Y-99935476D01*
X117530571Y-99935476D02*
X117435333Y-100030714D01*
X117435333Y-100030714D02*
X117340095Y-100078333D01*
X118863904Y-100792619D02*
X118292476Y-100792619D01*
X118578190Y-100792619D02*
X118578190Y-99792619D01*
X118578190Y-99792619D02*
X118482952Y-99935476D01*
X118482952Y-99935476D02*
X118387714Y-100030714D01*
X118387714Y-100030714D02*
X118292476Y-100078333D01*
%TO.C,H1*%
X82838095Y-112612619D02*
X82838095Y-111612619D01*
X82838095Y-112088809D02*
X83409523Y-112088809D01*
X83409523Y-112612619D02*
X83409523Y-111612619D01*
X84409523Y-112612619D02*
X83838095Y-112612619D01*
X84123809Y-112612619D02*
X84123809Y-111612619D01*
X84123809Y-111612619D02*
X84028571Y-111755476D01*
X84028571Y-111755476D02*
X83933333Y-111850714D01*
X83933333Y-111850714D02*
X83838095Y-111898333D01*
%TO.C,L3*%
X117181333Y-87203619D02*
X116705143Y-87203619D01*
X116705143Y-87203619D02*
X116705143Y-86203619D01*
X117419429Y-86203619D02*
X118038476Y-86203619D01*
X118038476Y-86203619D02*
X117705143Y-86584571D01*
X117705143Y-86584571D02*
X117848000Y-86584571D01*
X117848000Y-86584571D02*
X117943238Y-86632190D01*
X117943238Y-86632190D02*
X117990857Y-86679809D01*
X117990857Y-86679809D02*
X118038476Y-86775047D01*
X118038476Y-86775047D02*
X118038476Y-87013142D01*
X118038476Y-87013142D02*
X117990857Y-87108380D01*
X117990857Y-87108380D02*
X117943238Y-87156000D01*
X117943238Y-87156000D02*
X117848000Y-87203619D01*
X117848000Y-87203619D02*
X117562286Y-87203619D01*
X117562286Y-87203619D02*
X117467048Y-87156000D01*
X117467048Y-87156000D02*
X117419429Y-87108380D01*
%TO.C,C10*%
X105071942Y-72452580D02*
X105024323Y-72500200D01*
X105024323Y-72500200D02*
X104881466Y-72547819D01*
X104881466Y-72547819D02*
X104786228Y-72547819D01*
X104786228Y-72547819D02*
X104643371Y-72500200D01*
X104643371Y-72500200D02*
X104548133Y-72404961D01*
X104548133Y-72404961D02*
X104500514Y-72309723D01*
X104500514Y-72309723D02*
X104452895Y-72119247D01*
X104452895Y-72119247D02*
X104452895Y-71976390D01*
X104452895Y-71976390D02*
X104500514Y-71785914D01*
X104500514Y-71785914D02*
X104548133Y-71690676D01*
X104548133Y-71690676D02*
X104643371Y-71595438D01*
X104643371Y-71595438D02*
X104786228Y-71547819D01*
X104786228Y-71547819D02*
X104881466Y-71547819D01*
X104881466Y-71547819D02*
X105024323Y-71595438D01*
X105024323Y-71595438D02*
X105071942Y-71643057D01*
X106024323Y-72547819D02*
X105452895Y-72547819D01*
X105738609Y-72547819D02*
X105738609Y-71547819D01*
X105738609Y-71547819D02*
X105643371Y-71690676D01*
X105643371Y-71690676D02*
X105548133Y-71785914D01*
X105548133Y-71785914D02*
X105452895Y-71833533D01*
X106643371Y-71547819D02*
X106738609Y-71547819D01*
X106738609Y-71547819D02*
X106833847Y-71595438D01*
X106833847Y-71595438D02*
X106881466Y-71643057D01*
X106881466Y-71643057D02*
X106929085Y-71738295D01*
X106929085Y-71738295D02*
X106976704Y-71928771D01*
X106976704Y-71928771D02*
X106976704Y-72166866D01*
X106976704Y-72166866D02*
X106929085Y-72357342D01*
X106929085Y-72357342D02*
X106881466Y-72452580D01*
X106881466Y-72452580D02*
X106833847Y-72500200D01*
X106833847Y-72500200D02*
X106738609Y-72547819D01*
X106738609Y-72547819D02*
X106643371Y-72547819D01*
X106643371Y-72547819D02*
X106548133Y-72500200D01*
X106548133Y-72500200D02*
X106500514Y-72452580D01*
X106500514Y-72452580D02*
X106452895Y-72357342D01*
X106452895Y-72357342D02*
X106405276Y-72166866D01*
X106405276Y-72166866D02*
X106405276Y-71928771D01*
X106405276Y-71928771D02*
X106452895Y-71738295D01*
X106452895Y-71738295D02*
X106500514Y-71643057D01*
X106500514Y-71643057D02*
X106548133Y-71595438D01*
X106548133Y-71595438D02*
X106643371Y-71547819D01*
%TO.C,H4*%
X82838095Y-56079619D02*
X82838095Y-55079619D01*
X82838095Y-55555809D02*
X83409523Y-55555809D01*
X83409523Y-56079619D02*
X83409523Y-55079619D01*
X84314285Y-55412952D02*
X84314285Y-56079619D01*
X84076190Y-55032000D02*
X83838095Y-55746285D01*
X83838095Y-55746285D02*
X84457142Y-55746285D01*
%TO.C,C26*%
X118507142Y-88767380D02*
X118459523Y-88815000D01*
X118459523Y-88815000D02*
X118316666Y-88862619D01*
X118316666Y-88862619D02*
X118221428Y-88862619D01*
X118221428Y-88862619D02*
X118078571Y-88815000D01*
X118078571Y-88815000D02*
X117983333Y-88719761D01*
X117983333Y-88719761D02*
X117935714Y-88624523D01*
X117935714Y-88624523D02*
X117888095Y-88434047D01*
X117888095Y-88434047D02*
X117888095Y-88291190D01*
X117888095Y-88291190D02*
X117935714Y-88100714D01*
X117935714Y-88100714D02*
X117983333Y-88005476D01*
X117983333Y-88005476D02*
X118078571Y-87910238D01*
X118078571Y-87910238D02*
X118221428Y-87862619D01*
X118221428Y-87862619D02*
X118316666Y-87862619D01*
X118316666Y-87862619D02*
X118459523Y-87910238D01*
X118459523Y-87910238D02*
X118507142Y-87957857D01*
X118888095Y-87957857D02*
X118935714Y-87910238D01*
X118935714Y-87910238D02*
X119030952Y-87862619D01*
X119030952Y-87862619D02*
X119269047Y-87862619D01*
X119269047Y-87862619D02*
X119364285Y-87910238D01*
X119364285Y-87910238D02*
X119411904Y-87957857D01*
X119411904Y-87957857D02*
X119459523Y-88053095D01*
X119459523Y-88053095D02*
X119459523Y-88148333D01*
X119459523Y-88148333D02*
X119411904Y-88291190D01*
X119411904Y-88291190D02*
X118840476Y-88862619D01*
X118840476Y-88862619D02*
X119459523Y-88862619D01*
X120316666Y-87862619D02*
X120126190Y-87862619D01*
X120126190Y-87862619D02*
X120030952Y-87910238D01*
X120030952Y-87910238D02*
X119983333Y-87957857D01*
X119983333Y-87957857D02*
X119888095Y-88100714D01*
X119888095Y-88100714D02*
X119840476Y-88291190D01*
X119840476Y-88291190D02*
X119840476Y-88672142D01*
X119840476Y-88672142D02*
X119888095Y-88767380D01*
X119888095Y-88767380D02*
X119935714Y-88815000D01*
X119935714Y-88815000D02*
X120030952Y-88862619D01*
X120030952Y-88862619D02*
X120221428Y-88862619D01*
X120221428Y-88862619D02*
X120316666Y-88815000D01*
X120316666Y-88815000D02*
X120364285Y-88767380D01*
X120364285Y-88767380D02*
X120411904Y-88672142D01*
X120411904Y-88672142D02*
X120411904Y-88434047D01*
X120411904Y-88434047D02*
X120364285Y-88338809D01*
X120364285Y-88338809D02*
X120316666Y-88291190D01*
X120316666Y-88291190D02*
X120221428Y-88243571D01*
X120221428Y-88243571D02*
X120030952Y-88243571D01*
X120030952Y-88243571D02*
X119935714Y-88291190D01*
X119935714Y-88291190D02*
X119888095Y-88338809D01*
X119888095Y-88338809D02*
X119840476Y-88434047D01*
%TO.C,L6*%
X128052533Y-71125419D02*
X127576343Y-71125419D01*
X127576343Y-71125419D02*
X127576343Y-70125419D01*
X128814438Y-70125419D02*
X128623962Y-70125419D01*
X128623962Y-70125419D02*
X128528724Y-70173038D01*
X128528724Y-70173038D02*
X128481105Y-70220657D01*
X128481105Y-70220657D02*
X128385867Y-70363514D01*
X128385867Y-70363514D02*
X128338248Y-70553990D01*
X128338248Y-70553990D02*
X128338248Y-70934942D01*
X128338248Y-70934942D02*
X128385867Y-71030180D01*
X128385867Y-71030180D02*
X128433486Y-71077800D01*
X128433486Y-71077800D02*
X128528724Y-71125419D01*
X128528724Y-71125419D02*
X128719200Y-71125419D01*
X128719200Y-71125419D02*
X128814438Y-71077800D01*
X128814438Y-71077800D02*
X128862057Y-71030180D01*
X128862057Y-71030180D02*
X128909676Y-70934942D01*
X128909676Y-70934942D02*
X128909676Y-70696847D01*
X128909676Y-70696847D02*
X128862057Y-70601609D01*
X128862057Y-70601609D02*
X128814438Y-70553990D01*
X128814438Y-70553990D02*
X128719200Y-70506371D01*
X128719200Y-70506371D02*
X128528724Y-70506371D01*
X128528724Y-70506371D02*
X128433486Y-70553990D01*
X128433486Y-70553990D02*
X128385867Y-70601609D01*
X128385867Y-70601609D02*
X128338248Y-70696847D01*
%TO.C,J2*%
X83893066Y-85441419D02*
X83893066Y-86155704D01*
X83893066Y-86155704D02*
X83845447Y-86298561D01*
X83845447Y-86298561D02*
X83750209Y-86393800D01*
X83750209Y-86393800D02*
X83607352Y-86441419D01*
X83607352Y-86441419D02*
X83512114Y-86441419D01*
X84321638Y-85536657D02*
X84369257Y-85489038D01*
X84369257Y-85489038D02*
X84464495Y-85441419D01*
X84464495Y-85441419D02*
X84702590Y-85441419D01*
X84702590Y-85441419D02*
X84797828Y-85489038D01*
X84797828Y-85489038D02*
X84845447Y-85536657D01*
X84845447Y-85536657D02*
X84893066Y-85631895D01*
X84893066Y-85631895D02*
X84893066Y-85727133D01*
X84893066Y-85727133D02*
X84845447Y-85869990D01*
X84845447Y-85869990D02*
X84274019Y-86441419D01*
X84274019Y-86441419D02*
X84893066Y-86441419D01*
%TO.C,C19*%
X100557142Y-106347380D02*
X100509523Y-106395000D01*
X100509523Y-106395000D02*
X100366666Y-106442619D01*
X100366666Y-106442619D02*
X100271428Y-106442619D01*
X100271428Y-106442619D02*
X100128571Y-106395000D01*
X100128571Y-106395000D02*
X100033333Y-106299761D01*
X100033333Y-106299761D02*
X99985714Y-106204523D01*
X99985714Y-106204523D02*
X99938095Y-106014047D01*
X99938095Y-106014047D02*
X99938095Y-105871190D01*
X99938095Y-105871190D02*
X99985714Y-105680714D01*
X99985714Y-105680714D02*
X100033333Y-105585476D01*
X100033333Y-105585476D02*
X100128571Y-105490238D01*
X100128571Y-105490238D02*
X100271428Y-105442619D01*
X100271428Y-105442619D02*
X100366666Y-105442619D01*
X100366666Y-105442619D02*
X100509523Y-105490238D01*
X100509523Y-105490238D02*
X100557142Y-105537857D01*
X101509523Y-106442619D02*
X100938095Y-106442619D01*
X101223809Y-106442619D02*
X101223809Y-105442619D01*
X101223809Y-105442619D02*
X101128571Y-105585476D01*
X101128571Y-105585476D02*
X101033333Y-105680714D01*
X101033333Y-105680714D02*
X100938095Y-105728333D01*
X101985714Y-106442619D02*
X102176190Y-106442619D01*
X102176190Y-106442619D02*
X102271428Y-106395000D01*
X102271428Y-106395000D02*
X102319047Y-106347380D01*
X102319047Y-106347380D02*
X102414285Y-106204523D01*
X102414285Y-106204523D02*
X102461904Y-106014047D01*
X102461904Y-106014047D02*
X102461904Y-105633095D01*
X102461904Y-105633095D02*
X102414285Y-105537857D01*
X102414285Y-105537857D02*
X102366666Y-105490238D01*
X102366666Y-105490238D02*
X102271428Y-105442619D01*
X102271428Y-105442619D02*
X102080952Y-105442619D01*
X102080952Y-105442619D02*
X101985714Y-105490238D01*
X101985714Y-105490238D02*
X101938095Y-105537857D01*
X101938095Y-105537857D02*
X101890476Y-105633095D01*
X101890476Y-105633095D02*
X101890476Y-105871190D01*
X101890476Y-105871190D02*
X101938095Y-105966428D01*
X101938095Y-105966428D02*
X101985714Y-106014047D01*
X101985714Y-106014047D02*
X102080952Y-106061666D01*
X102080952Y-106061666D02*
X102271428Y-106061666D01*
X102271428Y-106061666D02*
X102366666Y-106014047D01*
X102366666Y-106014047D02*
X102414285Y-105966428D01*
X102414285Y-105966428D02*
X102461904Y-105871190D01*
%TO.C,R15*%
X122420142Y-82758619D02*
X122086809Y-82282428D01*
X121848714Y-82758619D02*
X121848714Y-81758619D01*
X121848714Y-81758619D02*
X122229666Y-81758619D01*
X122229666Y-81758619D02*
X122324904Y-81806238D01*
X122324904Y-81806238D02*
X122372523Y-81853857D01*
X122372523Y-81853857D02*
X122420142Y-81949095D01*
X122420142Y-81949095D02*
X122420142Y-82091952D01*
X122420142Y-82091952D02*
X122372523Y-82187190D01*
X122372523Y-82187190D02*
X122324904Y-82234809D01*
X122324904Y-82234809D02*
X122229666Y-82282428D01*
X122229666Y-82282428D02*
X121848714Y-82282428D01*
X123372523Y-82758619D02*
X122801095Y-82758619D01*
X123086809Y-82758619D02*
X123086809Y-81758619D01*
X123086809Y-81758619D02*
X122991571Y-81901476D01*
X122991571Y-81901476D02*
X122896333Y-81996714D01*
X122896333Y-81996714D02*
X122801095Y-82044333D01*
X124277285Y-81758619D02*
X123801095Y-81758619D01*
X123801095Y-81758619D02*
X123753476Y-82234809D01*
X123753476Y-82234809D02*
X123801095Y-82187190D01*
X123801095Y-82187190D02*
X123896333Y-82139571D01*
X123896333Y-82139571D02*
X124134428Y-82139571D01*
X124134428Y-82139571D02*
X124229666Y-82187190D01*
X124229666Y-82187190D02*
X124277285Y-82234809D01*
X124277285Y-82234809D02*
X124324904Y-82330047D01*
X124324904Y-82330047D02*
X124324904Y-82568142D01*
X124324904Y-82568142D02*
X124277285Y-82663380D01*
X124277285Y-82663380D02*
X124229666Y-82711000D01*
X124229666Y-82711000D02*
X124134428Y-82758619D01*
X124134428Y-82758619D02*
X123896333Y-82758619D01*
X123896333Y-82758619D02*
X123801095Y-82711000D01*
X123801095Y-82711000D02*
X123753476Y-82663380D01*
%TO.C,J4*%
X109781619Y-59388333D02*
X110495904Y-59388333D01*
X110495904Y-59388333D02*
X110638761Y-59435952D01*
X110638761Y-59435952D02*
X110734000Y-59531190D01*
X110734000Y-59531190D02*
X110781619Y-59674047D01*
X110781619Y-59674047D02*
X110781619Y-59769285D01*
X110114952Y-58483571D02*
X110781619Y-58483571D01*
X109734000Y-58721666D02*
X110448285Y-58959761D01*
X110448285Y-58959761D02*
X110448285Y-58340714D01*
%TO.C,U4*%
X111455295Y-90343819D02*
X111455295Y-91153342D01*
X111455295Y-91153342D02*
X111502914Y-91248580D01*
X111502914Y-91248580D02*
X111550533Y-91296200D01*
X111550533Y-91296200D02*
X111645771Y-91343819D01*
X111645771Y-91343819D02*
X111836247Y-91343819D01*
X111836247Y-91343819D02*
X111931485Y-91296200D01*
X111931485Y-91296200D02*
X111979104Y-91248580D01*
X111979104Y-91248580D02*
X112026723Y-91153342D01*
X112026723Y-91153342D02*
X112026723Y-90343819D01*
X112931485Y-90677152D02*
X112931485Y-91343819D01*
X112693390Y-90296200D02*
X112455295Y-91010485D01*
X112455295Y-91010485D02*
X113074342Y-91010485D01*
%TO.C,C31*%
X134479380Y-81668857D02*
X134527000Y-81716476D01*
X134527000Y-81716476D02*
X134574619Y-81859333D01*
X134574619Y-81859333D02*
X134574619Y-81954571D01*
X134574619Y-81954571D02*
X134527000Y-82097428D01*
X134527000Y-82097428D02*
X134431761Y-82192666D01*
X134431761Y-82192666D02*
X134336523Y-82240285D01*
X134336523Y-82240285D02*
X134146047Y-82287904D01*
X134146047Y-82287904D02*
X134003190Y-82287904D01*
X134003190Y-82287904D02*
X133812714Y-82240285D01*
X133812714Y-82240285D02*
X133717476Y-82192666D01*
X133717476Y-82192666D02*
X133622238Y-82097428D01*
X133622238Y-82097428D02*
X133574619Y-81954571D01*
X133574619Y-81954571D02*
X133574619Y-81859333D01*
X133574619Y-81859333D02*
X133622238Y-81716476D01*
X133622238Y-81716476D02*
X133669857Y-81668857D01*
X133574619Y-81335523D02*
X133574619Y-80716476D01*
X133574619Y-80716476D02*
X133955571Y-81049809D01*
X133955571Y-81049809D02*
X133955571Y-80906952D01*
X133955571Y-80906952D02*
X134003190Y-80811714D01*
X134003190Y-80811714D02*
X134050809Y-80764095D01*
X134050809Y-80764095D02*
X134146047Y-80716476D01*
X134146047Y-80716476D02*
X134384142Y-80716476D01*
X134384142Y-80716476D02*
X134479380Y-80764095D01*
X134479380Y-80764095D02*
X134527000Y-80811714D01*
X134527000Y-80811714D02*
X134574619Y-80906952D01*
X134574619Y-80906952D02*
X134574619Y-81192666D01*
X134574619Y-81192666D02*
X134527000Y-81287904D01*
X134527000Y-81287904D02*
X134479380Y-81335523D01*
X134574619Y-79764095D02*
X134574619Y-80335523D01*
X134574619Y-80049809D02*
X133574619Y-80049809D01*
X133574619Y-80049809D02*
X133717476Y-80145047D01*
X133717476Y-80145047D02*
X133812714Y-80240285D01*
X133812714Y-80240285D02*
X133860333Y-80335523D01*
%TO.C,C20*%
X114457142Y-82787380D02*
X114409523Y-82835000D01*
X114409523Y-82835000D02*
X114266666Y-82882619D01*
X114266666Y-82882619D02*
X114171428Y-82882619D01*
X114171428Y-82882619D02*
X114028571Y-82835000D01*
X114028571Y-82835000D02*
X113933333Y-82739761D01*
X113933333Y-82739761D02*
X113885714Y-82644523D01*
X113885714Y-82644523D02*
X113838095Y-82454047D01*
X113838095Y-82454047D02*
X113838095Y-82311190D01*
X113838095Y-82311190D02*
X113885714Y-82120714D01*
X113885714Y-82120714D02*
X113933333Y-82025476D01*
X113933333Y-82025476D02*
X114028571Y-81930238D01*
X114028571Y-81930238D02*
X114171428Y-81882619D01*
X114171428Y-81882619D02*
X114266666Y-81882619D01*
X114266666Y-81882619D02*
X114409523Y-81930238D01*
X114409523Y-81930238D02*
X114457142Y-81977857D01*
X114838095Y-81977857D02*
X114885714Y-81930238D01*
X114885714Y-81930238D02*
X114980952Y-81882619D01*
X114980952Y-81882619D02*
X115219047Y-81882619D01*
X115219047Y-81882619D02*
X115314285Y-81930238D01*
X115314285Y-81930238D02*
X115361904Y-81977857D01*
X115361904Y-81977857D02*
X115409523Y-82073095D01*
X115409523Y-82073095D02*
X115409523Y-82168333D01*
X115409523Y-82168333D02*
X115361904Y-82311190D01*
X115361904Y-82311190D02*
X114790476Y-82882619D01*
X114790476Y-82882619D02*
X115409523Y-82882619D01*
X116028571Y-81882619D02*
X116123809Y-81882619D01*
X116123809Y-81882619D02*
X116219047Y-81930238D01*
X116219047Y-81930238D02*
X116266666Y-81977857D01*
X116266666Y-81977857D02*
X116314285Y-82073095D01*
X116314285Y-82073095D02*
X116361904Y-82263571D01*
X116361904Y-82263571D02*
X116361904Y-82501666D01*
X116361904Y-82501666D02*
X116314285Y-82692142D01*
X116314285Y-82692142D02*
X116266666Y-82787380D01*
X116266666Y-82787380D02*
X116219047Y-82835000D01*
X116219047Y-82835000D02*
X116123809Y-82882619D01*
X116123809Y-82882619D02*
X116028571Y-82882619D01*
X116028571Y-82882619D02*
X115933333Y-82835000D01*
X115933333Y-82835000D02*
X115885714Y-82787380D01*
X115885714Y-82787380D02*
X115838095Y-82692142D01*
X115838095Y-82692142D02*
X115790476Y-82501666D01*
X115790476Y-82501666D02*
X115790476Y-82263571D01*
X115790476Y-82263571D02*
X115838095Y-82073095D01*
X115838095Y-82073095D02*
X115885714Y-81977857D01*
X115885714Y-81977857D02*
X115933333Y-81930238D01*
X115933333Y-81930238D02*
X116028571Y-81882619D01*
%TO.C,C36*%
X128236742Y-68998180D02*
X128189123Y-69045800D01*
X128189123Y-69045800D02*
X128046266Y-69093419D01*
X128046266Y-69093419D02*
X127951028Y-69093419D01*
X127951028Y-69093419D02*
X127808171Y-69045800D01*
X127808171Y-69045800D02*
X127712933Y-68950561D01*
X127712933Y-68950561D02*
X127665314Y-68855323D01*
X127665314Y-68855323D02*
X127617695Y-68664847D01*
X127617695Y-68664847D02*
X127617695Y-68521990D01*
X127617695Y-68521990D02*
X127665314Y-68331514D01*
X127665314Y-68331514D02*
X127712933Y-68236276D01*
X127712933Y-68236276D02*
X127808171Y-68141038D01*
X127808171Y-68141038D02*
X127951028Y-68093419D01*
X127951028Y-68093419D02*
X128046266Y-68093419D01*
X128046266Y-68093419D02*
X128189123Y-68141038D01*
X128189123Y-68141038D02*
X128236742Y-68188657D01*
X128570076Y-68093419D02*
X129189123Y-68093419D01*
X129189123Y-68093419D02*
X128855790Y-68474371D01*
X128855790Y-68474371D02*
X128998647Y-68474371D01*
X128998647Y-68474371D02*
X129093885Y-68521990D01*
X129093885Y-68521990D02*
X129141504Y-68569609D01*
X129141504Y-68569609D02*
X129189123Y-68664847D01*
X129189123Y-68664847D02*
X129189123Y-68902942D01*
X129189123Y-68902942D02*
X129141504Y-68998180D01*
X129141504Y-68998180D02*
X129093885Y-69045800D01*
X129093885Y-69045800D02*
X128998647Y-69093419D01*
X128998647Y-69093419D02*
X128712933Y-69093419D01*
X128712933Y-69093419D02*
X128617695Y-69045800D01*
X128617695Y-69045800D02*
X128570076Y-68998180D01*
X130046266Y-68093419D02*
X129855790Y-68093419D01*
X129855790Y-68093419D02*
X129760552Y-68141038D01*
X129760552Y-68141038D02*
X129712933Y-68188657D01*
X129712933Y-68188657D02*
X129617695Y-68331514D01*
X129617695Y-68331514D02*
X129570076Y-68521990D01*
X129570076Y-68521990D02*
X129570076Y-68902942D01*
X129570076Y-68902942D02*
X129617695Y-68998180D01*
X129617695Y-68998180D02*
X129665314Y-69045800D01*
X129665314Y-69045800D02*
X129760552Y-69093419D01*
X129760552Y-69093419D02*
X129951028Y-69093419D01*
X129951028Y-69093419D02*
X130046266Y-69045800D01*
X130046266Y-69045800D02*
X130093885Y-68998180D01*
X130093885Y-68998180D02*
X130141504Y-68902942D01*
X130141504Y-68902942D02*
X130141504Y-68664847D01*
X130141504Y-68664847D02*
X130093885Y-68569609D01*
X130093885Y-68569609D02*
X130046266Y-68521990D01*
X130046266Y-68521990D02*
X129951028Y-68474371D01*
X129951028Y-68474371D02*
X129760552Y-68474371D01*
X129760552Y-68474371D02*
X129665314Y-68521990D01*
X129665314Y-68521990D02*
X129617695Y-68569609D01*
X129617695Y-68569609D02*
X129570076Y-68664847D01*
%TO.C,R7*%
X106513333Y-94696619D02*
X106180000Y-94220428D01*
X105941905Y-94696619D02*
X105941905Y-93696619D01*
X105941905Y-93696619D02*
X106322857Y-93696619D01*
X106322857Y-93696619D02*
X106418095Y-93744238D01*
X106418095Y-93744238D02*
X106465714Y-93791857D01*
X106465714Y-93791857D02*
X106513333Y-93887095D01*
X106513333Y-93887095D02*
X106513333Y-94029952D01*
X106513333Y-94029952D02*
X106465714Y-94125190D01*
X106465714Y-94125190D02*
X106418095Y-94172809D01*
X106418095Y-94172809D02*
X106322857Y-94220428D01*
X106322857Y-94220428D02*
X105941905Y-94220428D01*
X106846667Y-93696619D02*
X107513333Y-93696619D01*
X107513333Y-93696619D02*
X107084762Y-94696619D01*
%TO.C,R1*%
X94696619Y-84621666D02*
X94220428Y-84954999D01*
X94696619Y-85193094D02*
X93696619Y-85193094D01*
X93696619Y-85193094D02*
X93696619Y-84812142D01*
X93696619Y-84812142D02*
X93744238Y-84716904D01*
X93744238Y-84716904D02*
X93791857Y-84669285D01*
X93791857Y-84669285D02*
X93887095Y-84621666D01*
X93887095Y-84621666D02*
X94029952Y-84621666D01*
X94029952Y-84621666D02*
X94125190Y-84669285D01*
X94125190Y-84669285D02*
X94172809Y-84716904D01*
X94172809Y-84716904D02*
X94220428Y-84812142D01*
X94220428Y-84812142D02*
X94220428Y-85193094D01*
X94696619Y-83669285D02*
X94696619Y-84240713D01*
X94696619Y-83954999D02*
X93696619Y-83954999D01*
X93696619Y-83954999D02*
X93839476Y-84050237D01*
X93839476Y-84050237D02*
X93934714Y-84145475D01*
X93934714Y-84145475D02*
X93982333Y-84240713D01*
%TO.C,R5*%
X95337333Y-102062619D02*
X95004000Y-101586428D01*
X94765905Y-102062619D02*
X94765905Y-101062619D01*
X94765905Y-101062619D02*
X95146857Y-101062619D01*
X95146857Y-101062619D02*
X95242095Y-101110238D01*
X95242095Y-101110238D02*
X95289714Y-101157857D01*
X95289714Y-101157857D02*
X95337333Y-101253095D01*
X95337333Y-101253095D02*
X95337333Y-101395952D01*
X95337333Y-101395952D02*
X95289714Y-101491190D01*
X95289714Y-101491190D02*
X95242095Y-101538809D01*
X95242095Y-101538809D02*
X95146857Y-101586428D01*
X95146857Y-101586428D02*
X94765905Y-101586428D01*
X96242095Y-101062619D02*
X95765905Y-101062619D01*
X95765905Y-101062619D02*
X95718286Y-101538809D01*
X95718286Y-101538809D02*
X95765905Y-101491190D01*
X95765905Y-101491190D02*
X95861143Y-101443571D01*
X95861143Y-101443571D02*
X96099238Y-101443571D01*
X96099238Y-101443571D02*
X96194476Y-101491190D01*
X96194476Y-101491190D02*
X96242095Y-101538809D01*
X96242095Y-101538809D02*
X96289714Y-101634047D01*
X96289714Y-101634047D02*
X96289714Y-101872142D01*
X96289714Y-101872142D02*
X96242095Y-101967380D01*
X96242095Y-101967380D02*
X96194476Y-102015000D01*
X96194476Y-102015000D02*
X96099238Y-102062619D01*
X96099238Y-102062619D02*
X95861143Y-102062619D01*
X95861143Y-102062619D02*
X95765905Y-102015000D01*
X95765905Y-102015000D02*
X95718286Y-101967380D01*
%TO.C,J5*%
X98366666Y-109112619D02*
X98366666Y-109826904D01*
X98366666Y-109826904D02*
X98319047Y-109969761D01*
X98319047Y-109969761D02*
X98223809Y-110065000D01*
X98223809Y-110065000D02*
X98080952Y-110112619D01*
X98080952Y-110112619D02*
X97985714Y-110112619D01*
X99319047Y-109112619D02*
X98842857Y-109112619D01*
X98842857Y-109112619D02*
X98795238Y-109588809D01*
X98795238Y-109588809D02*
X98842857Y-109541190D01*
X98842857Y-109541190D02*
X98938095Y-109493571D01*
X98938095Y-109493571D02*
X99176190Y-109493571D01*
X99176190Y-109493571D02*
X99271428Y-109541190D01*
X99271428Y-109541190D02*
X99319047Y-109588809D01*
X99319047Y-109588809D02*
X99366666Y-109684047D01*
X99366666Y-109684047D02*
X99366666Y-109922142D01*
X99366666Y-109922142D02*
X99319047Y-110017380D01*
X99319047Y-110017380D02*
X99271428Y-110065000D01*
X99271428Y-110065000D02*
X99176190Y-110112619D01*
X99176190Y-110112619D02*
X98938095Y-110112619D01*
X98938095Y-110112619D02*
X98842857Y-110065000D01*
X98842857Y-110065000D02*
X98795238Y-110017380D01*
%TO.C,C24*%
X114546142Y-78908380D02*
X114498523Y-78956000D01*
X114498523Y-78956000D02*
X114355666Y-79003619D01*
X114355666Y-79003619D02*
X114260428Y-79003619D01*
X114260428Y-79003619D02*
X114117571Y-78956000D01*
X114117571Y-78956000D02*
X114022333Y-78860761D01*
X114022333Y-78860761D02*
X113974714Y-78765523D01*
X113974714Y-78765523D02*
X113927095Y-78575047D01*
X113927095Y-78575047D02*
X113927095Y-78432190D01*
X113927095Y-78432190D02*
X113974714Y-78241714D01*
X113974714Y-78241714D02*
X114022333Y-78146476D01*
X114022333Y-78146476D02*
X114117571Y-78051238D01*
X114117571Y-78051238D02*
X114260428Y-78003619D01*
X114260428Y-78003619D02*
X114355666Y-78003619D01*
X114355666Y-78003619D02*
X114498523Y-78051238D01*
X114498523Y-78051238D02*
X114546142Y-78098857D01*
X114927095Y-78098857D02*
X114974714Y-78051238D01*
X114974714Y-78051238D02*
X115069952Y-78003619D01*
X115069952Y-78003619D02*
X115308047Y-78003619D01*
X115308047Y-78003619D02*
X115403285Y-78051238D01*
X115403285Y-78051238D02*
X115450904Y-78098857D01*
X115450904Y-78098857D02*
X115498523Y-78194095D01*
X115498523Y-78194095D02*
X115498523Y-78289333D01*
X115498523Y-78289333D02*
X115450904Y-78432190D01*
X115450904Y-78432190D02*
X114879476Y-79003619D01*
X114879476Y-79003619D02*
X115498523Y-79003619D01*
X116355666Y-78336952D02*
X116355666Y-79003619D01*
X116117571Y-77956000D02*
X115879476Y-78670285D01*
X115879476Y-78670285D02*
X116498523Y-78670285D01*
%TO.C,R17*%
X109607142Y-96712619D02*
X109273809Y-96236428D01*
X109035714Y-96712619D02*
X109035714Y-95712619D01*
X109035714Y-95712619D02*
X109416666Y-95712619D01*
X109416666Y-95712619D02*
X109511904Y-95760238D01*
X109511904Y-95760238D02*
X109559523Y-95807857D01*
X109559523Y-95807857D02*
X109607142Y-95903095D01*
X109607142Y-95903095D02*
X109607142Y-96045952D01*
X109607142Y-96045952D02*
X109559523Y-96141190D01*
X109559523Y-96141190D02*
X109511904Y-96188809D01*
X109511904Y-96188809D02*
X109416666Y-96236428D01*
X109416666Y-96236428D02*
X109035714Y-96236428D01*
X110559523Y-96712619D02*
X109988095Y-96712619D01*
X110273809Y-96712619D02*
X110273809Y-95712619D01*
X110273809Y-95712619D02*
X110178571Y-95855476D01*
X110178571Y-95855476D02*
X110083333Y-95950714D01*
X110083333Y-95950714D02*
X109988095Y-95998333D01*
X110892857Y-95712619D02*
X111559523Y-95712619D01*
X111559523Y-95712619D02*
X111130952Y-96712619D01*
%TO.C,L5*%
X130815419Y-84545466D02*
X130815419Y-85021656D01*
X130815419Y-85021656D02*
X129815419Y-85021656D01*
X129815419Y-83735942D02*
X129815419Y-84212132D01*
X129815419Y-84212132D02*
X130291609Y-84259751D01*
X130291609Y-84259751D02*
X130243990Y-84212132D01*
X130243990Y-84212132D02*
X130196371Y-84116894D01*
X130196371Y-84116894D02*
X130196371Y-83878799D01*
X130196371Y-83878799D02*
X130243990Y-83783561D01*
X130243990Y-83783561D02*
X130291609Y-83735942D01*
X130291609Y-83735942D02*
X130386847Y-83688323D01*
X130386847Y-83688323D02*
X130624942Y-83688323D01*
X130624942Y-83688323D02*
X130720180Y-83735942D01*
X130720180Y-83735942D02*
X130767800Y-83783561D01*
X130767800Y-83783561D02*
X130815419Y-83878799D01*
X130815419Y-83878799D02*
X130815419Y-84116894D01*
X130815419Y-84116894D02*
X130767800Y-84212132D01*
X130767800Y-84212132D02*
X130720180Y-84259751D01*
%TO.C,C12*%
X87495142Y-86625780D02*
X87447523Y-86673400D01*
X87447523Y-86673400D02*
X87304666Y-86721019D01*
X87304666Y-86721019D02*
X87209428Y-86721019D01*
X87209428Y-86721019D02*
X87066571Y-86673400D01*
X87066571Y-86673400D02*
X86971333Y-86578161D01*
X86971333Y-86578161D02*
X86923714Y-86482923D01*
X86923714Y-86482923D02*
X86876095Y-86292447D01*
X86876095Y-86292447D02*
X86876095Y-86149590D01*
X86876095Y-86149590D02*
X86923714Y-85959114D01*
X86923714Y-85959114D02*
X86971333Y-85863876D01*
X86971333Y-85863876D02*
X87066571Y-85768638D01*
X87066571Y-85768638D02*
X87209428Y-85721019D01*
X87209428Y-85721019D02*
X87304666Y-85721019D01*
X87304666Y-85721019D02*
X87447523Y-85768638D01*
X87447523Y-85768638D02*
X87495142Y-85816257D01*
X88447523Y-86721019D02*
X87876095Y-86721019D01*
X88161809Y-86721019D02*
X88161809Y-85721019D01*
X88161809Y-85721019D02*
X88066571Y-85863876D01*
X88066571Y-85863876D02*
X87971333Y-85959114D01*
X87971333Y-85959114D02*
X87876095Y-86006733D01*
X88828476Y-85816257D02*
X88876095Y-85768638D01*
X88876095Y-85768638D02*
X88971333Y-85721019D01*
X88971333Y-85721019D02*
X89209428Y-85721019D01*
X89209428Y-85721019D02*
X89304666Y-85768638D01*
X89304666Y-85768638D02*
X89352285Y-85816257D01*
X89352285Y-85816257D02*
X89399904Y-85911495D01*
X89399904Y-85911495D02*
X89399904Y-86006733D01*
X89399904Y-86006733D02*
X89352285Y-86149590D01*
X89352285Y-86149590D02*
X88780857Y-86721019D01*
X88780857Y-86721019D02*
X89399904Y-86721019D01*
%TO.C,C18*%
X109542342Y-81444180D02*
X109494723Y-81491800D01*
X109494723Y-81491800D02*
X109351866Y-81539419D01*
X109351866Y-81539419D02*
X109256628Y-81539419D01*
X109256628Y-81539419D02*
X109113771Y-81491800D01*
X109113771Y-81491800D02*
X109018533Y-81396561D01*
X109018533Y-81396561D02*
X108970914Y-81301323D01*
X108970914Y-81301323D02*
X108923295Y-81110847D01*
X108923295Y-81110847D02*
X108923295Y-80967990D01*
X108923295Y-80967990D02*
X108970914Y-80777514D01*
X108970914Y-80777514D02*
X109018533Y-80682276D01*
X109018533Y-80682276D02*
X109113771Y-80587038D01*
X109113771Y-80587038D02*
X109256628Y-80539419D01*
X109256628Y-80539419D02*
X109351866Y-80539419D01*
X109351866Y-80539419D02*
X109494723Y-80587038D01*
X109494723Y-80587038D02*
X109542342Y-80634657D01*
X110494723Y-81539419D02*
X109923295Y-81539419D01*
X110209009Y-81539419D02*
X110209009Y-80539419D01*
X110209009Y-80539419D02*
X110113771Y-80682276D01*
X110113771Y-80682276D02*
X110018533Y-80777514D01*
X110018533Y-80777514D02*
X109923295Y-80825133D01*
X111066152Y-80967990D02*
X110970914Y-80920371D01*
X110970914Y-80920371D02*
X110923295Y-80872752D01*
X110923295Y-80872752D02*
X110875676Y-80777514D01*
X110875676Y-80777514D02*
X110875676Y-80729895D01*
X110875676Y-80729895D02*
X110923295Y-80634657D01*
X110923295Y-80634657D02*
X110970914Y-80587038D01*
X110970914Y-80587038D02*
X111066152Y-80539419D01*
X111066152Y-80539419D02*
X111256628Y-80539419D01*
X111256628Y-80539419D02*
X111351866Y-80587038D01*
X111351866Y-80587038D02*
X111399485Y-80634657D01*
X111399485Y-80634657D02*
X111447104Y-80729895D01*
X111447104Y-80729895D02*
X111447104Y-80777514D01*
X111447104Y-80777514D02*
X111399485Y-80872752D01*
X111399485Y-80872752D02*
X111351866Y-80920371D01*
X111351866Y-80920371D02*
X111256628Y-80967990D01*
X111256628Y-80967990D02*
X111066152Y-80967990D01*
X111066152Y-80967990D02*
X110970914Y-81015609D01*
X110970914Y-81015609D02*
X110923295Y-81063228D01*
X110923295Y-81063228D02*
X110875676Y-81158466D01*
X110875676Y-81158466D02*
X110875676Y-81348942D01*
X110875676Y-81348942D02*
X110923295Y-81444180D01*
X110923295Y-81444180D02*
X110970914Y-81491800D01*
X110970914Y-81491800D02*
X111066152Y-81539419D01*
X111066152Y-81539419D02*
X111256628Y-81539419D01*
X111256628Y-81539419D02*
X111351866Y-81491800D01*
X111351866Y-81491800D02*
X111399485Y-81444180D01*
X111399485Y-81444180D02*
X111447104Y-81348942D01*
X111447104Y-81348942D02*
X111447104Y-81158466D01*
X111447104Y-81158466D02*
X111399485Y-81063228D01*
X111399485Y-81063228D02*
X111351866Y-81015609D01*
X111351866Y-81015609D02*
X111256628Y-80967990D01*
%TO.C,C11*%
X106291142Y-88759380D02*
X106243523Y-88807000D01*
X106243523Y-88807000D02*
X106100666Y-88854619D01*
X106100666Y-88854619D02*
X106005428Y-88854619D01*
X106005428Y-88854619D02*
X105862571Y-88807000D01*
X105862571Y-88807000D02*
X105767333Y-88711761D01*
X105767333Y-88711761D02*
X105719714Y-88616523D01*
X105719714Y-88616523D02*
X105672095Y-88426047D01*
X105672095Y-88426047D02*
X105672095Y-88283190D01*
X105672095Y-88283190D02*
X105719714Y-88092714D01*
X105719714Y-88092714D02*
X105767333Y-87997476D01*
X105767333Y-87997476D02*
X105862571Y-87902238D01*
X105862571Y-87902238D02*
X106005428Y-87854619D01*
X106005428Y-87854619D02*
X106100666Y-87854619D01*
X106100666Y-87854619D02*
X106243523Y-87902238D01*
X106243523Y-87902238D02*
X106291142Y-87949857D01*
X107243523Y-88854619D02*
X106672095Y-88854619D01*
X106957809Y-88854619D02*
X106957809Y-87854619D01*
X106957809Y-87854619D02*
X106862571Y-87997476D01*
X106862571Y-87997476D02*
X106767333Y-88092714D01*
X106767333Y-88092714D02*
X106672095Y-88140333D01*
X108195904Y-88854619D02*
X107624476Y-88854619D01*
X107910190Y-88854619D02*
X107910190Y-87854619D01*
X107910190Y-87854619D02*
X107814952Y-87997476D01*
X107814952Y-87997476D02*
X107719714Y-88092714D01*
X107719714Y-88092714D02*
X107624476Y-88140333D01*
%TO.C,R4*%
X89108619Y-90590666D02*
X88632428Y-90923999D01*
X89108619Y-91162094D02*
X88108619Y-91162094D01*
X88108619Y-91162094D02*
X88108619Y-90781142D01*
X88108619Y-90781142D02*
X88156238Y-90685904D01*
X88156238Y-90685904D02*
X88203857Y-90638285D01*
X88203857Y-90638285D02*
X88299095Y-90590666D01*
X88299095Y-90590666D02*
X88441952Y-90590666D01*
X88441952Y-90590666D02*
X88537190Y-90638285D01*
X88537190Y-90638285D02*
X88584809Y-90685904D01*
X88584809Y-90685904D02*
X88632428Y-90781142D01*
X88632428Y-90781142D02*
X88632428Y-91162094D01*
X88441952Y-89733523D02*
X89108619Y-89733523D01*
X88061000Y-89971618D02*
X88775285Y-90209713D01*
X88775285Y-90209713D02*
X88775285Y-89590666D01*
%TO.C,R2*%
X88512219Y-100434266D02*
X88036028Y-100767599D01*
X88512219Y-101005694D02*
X87512219Y-101005694D01*
X87512219Y-101005694D02*
X87512219Y-100624742D01*
X87512219Y-100624742D02*
X87559838Y-100529504D01*
X87559838Y-100529504D02*
X87607457Y-100481885D01*
X87607457Y-100481885D02*
X87702695Y-100434266D01*
X87702695Y-100434266D02*
X87845552Y-100434266D01*
X87845552Y-100434266D02*
X87940790Y-100481885D01*
X87940790Y-100481885D02*
X87988409Y-100529504D01*
X87988409Y-100529504D02*
X88036028Y-100624742D01*
X88036028Y-100624742D02*
X88036028Y-101005694D01*
X87607457Y-100053313D02*
X87559838Y-100005694D01*
X87559838Y-100005694D02*
X87512219Y-99910456D01*
X87512219Y-99910456D02*
X87512219Y-99672361D01*
X87512219Y-99672361D02*
X87559838Y-99577123D01*
X87559838Y-99577123D02*
X87607457Y-99529504D01*
X87607457Y-99529504D02*
X87702695Y-99481885D01*
X87702695Y-99481885D02*
X87797933Y-99481885D01*
X87797933Y-99481885D02*
X87940790Y-99529504D01*
X87940790Y-99529504D02*
X88512219Y-100100932D01*
X88512219Y-100100932D02*
X88512219Y-99481885D01*
%TO.C,C35*%
X131685380Y-106814857D02*
X131733000Y-106862476D01*
X131733000Y-106862476D02*
X131780619Y-107005333D01*
X131780619Y-107005333D02*
X131780619Y-107100571D01*
X131780619Y-107100571D02*
X131733000Y-107243428D01*
X131733000Y-107243428D02*
X131637761Y-107338666D01*
X131637761Y-107338666D02*
X131542523Y-107386285D01*
X131542523Y-107386285D02*
X131352047Y-107433904D01*
X131352047Y-107433904D02*
X131209190Y-107433904D01*
X131209190Y-107433904D02*
X131018714Y-107386285D01*
X131018714Y-107386285D02*
X130923476Y-107338666D01*
X130923476Y-107338666D02*
X130828238Y-107243428D01*
X130828238Y-107243428D02*
X130780619Y-107100571D01*
X130780619Y-107100571D02*
X130780619Y-107005333D01*
X130780619Y-107005333D02*
X130828238Y-106862476D01*
X130828238Y-106862476D02*
X130875857Y-106814857D01*
X130780619Y-106481523D02*
X130780619Y-105862476D01*
X130780619Y-105862476D02*
X131161571Y-106195809D01*
X131161571Y-106195809D02*
X131161571Y-106052952D01*
X131161571Y-106052952D02*
X131209190Y-105957714D01*
X131209190Y-105957714D02*
X131256809Y-105910095D01*
X131256809Y-105910095D02*
X131352047Y-105862476D01*
X131352047Y-105862476D02*
X131590142Y-105862476D01*
X131590142Y-105862476D02*
X131685380Y-105910095D01*
X131685380Y-105910095D02*
X131733000Y-105957714D01*
X131733000Y-105957714D02*
X131780619Y-106052952D01*
X131780619Y-106052952D02*
X131780619Y-106338666D01*
X131780619Y-106338666D02*
X131733000Y-106433904D01*
X131733000Y-106433904D02*
X131685380Y-106481523D01*
X130780619Y-104957714D02*
X130780619Y-105433904D01*
X130780619Y-105433904D02*
X131256809Y-105481523D01*
X131256809Y-105481523D02*
X131209190Y-105433904D01*
X131209190Y-105433904D02*
X131161571Y-105338666D01*
X131161571Y-105338666D02*
X131161571Y-105100571D01*
X131161571Y-105100571D02*
X131209190Y-105005333D01*
X131209190Y-105005333D02*
X131256809Y-104957714D01*
X131256809Y-104957714D02*
X131352047Y-104910095D01*
X131352047Y-104910095D02*
X131590142Y-104910095D01*
X131590142Y-104910095D02*
X131685380Y-104957714D01*
X131685380Y-104957714D02*
X131733000Y-105005333D01*
X131733000Y-105005333D02*
X131780619Y-105100571D01*
X131780619Y-105100571D02*
X131780619Y-105338666D01*
X131780619Y-105338666D02*
X131733000Y-105433904D01*
X131733000Y-105433904D02*
X131685380Y-105481523D01*
%TO.C,C29*%
X128412380Y-85732857D02*
X128460000Y-85780476D01*
X128460000Y-85780476D02*
X128507619Y-85923333D01*
X128507619Y-85923333D02*
X128507619Y-86018571D01*
X128507619Y-86018571D02*
X128460000Y-86161428D01*
X128460000Y-86161428D02*
X128364761Y-86256666D01*
X128364761Y-86256666D02*
X128269523Y-86304285D01*
X128269523Y-86304285D02*
X128079047Y-86351904D01*
X128079047Y-86351904D02*
X127936190Y-86351904D01*
X127936190Y-86351904D02*
X127745714Y-86304285D01*
X127745714Y-86304285D02*
X127650476Y-86256666D01*
X127650476Y-86256666D02*
X127555238Y-86161428D01*
X127555238Y-86161428D02*
X127507619Y-86018571D01*
X127507619Y-86018571D02*
X127507619Y-85923333D01*
X127507619Y-85923333D02*
X127555238Y-85780476D01*
X127555238Y-85780476D02*
X127602857Y-85732857D01*
X127602857Y-85351904D02*
X127555238Y-85304285D01*
X127555238Y-85304285D02*
X127507619Y-85209047D01*
X127507619Y-85209047D02*
X127507619Y-84970952D01*
X127507619Y-84970952D02*
X127555238Y-84875714D01*
X127555238Y-84875714D02*
X127602857Y-84828095D01*
X127602857Y-84828095D02*
X127698095Y-84780476D01*
X127698095Y-84780476D02*
X127793333Y-84780476D01*
X127793333Y-84780476D02*
X127936190Y-84828095D01*
X127936190Y-84828095D02*
X128507619Y-85399523D01*
X128507619Y-85399523D02*
X128507619Y-84780476D01*
X128507619Y-84304285D02*
X128507619Y-84113809D01*
X128507619Y-84113809D02*
X128460000Y-84018571D01*
X128460000Y-84018571D02*
X128412380Y-83970952D01*
X128412380Y-83970952D02*
X128269523Y-83875714D01*
X128269523Y-83875714D02*
X128079047Y-83828095D01*
X128079047Y-83828095D02*
X127698095Y-83828095D01*
X127698095Y-83828095D02*
X127602857Y-83875714D01*
X127602857Y-83875714D02*
X127555238Y-83923333D01*
X127555238Y-83923333D02*
X127507619Y-84018571D01*
X127507619Y-84018571D02*
X127507619Y-84209047D01*
X127507619Y-84209047D02*
X127555238Y-84304285D01*
X127555238Y-84304285D02*
X127602857Y-84351904D01*
X127602857Y-84351904D02*
X127698095Y-84399523D01*
X127698095Y-84399523D02*
X127936190Y-84399523D01*
X127936190Y-84399523D02*
X128031428Y-84351904D01*
X128031428Y-84351904D02*
X128079047Y-84304285D01*
X128079047Y-84304285D02*
X128126666Y-84209047D01*
X128126666Y-84209047D02*
X128126666Y-84018571D01*
X128126666Y-84018571D02*
X128079047Y-83923333D01*
X128079047Y-83923333D02*
X128031428Y-83875714D01*
X128031428Y-83875714D02*
X127936190Y-83828095D01*
%TO.C,L2*%
X92929333Y-95304619D02*
X92453143Y-95304619D01*
X92453143Y-95304619D02*
X92453143Y-94304619D01*
X93215048Y-94399857D02*
X93262667Y-94352238D01*
X93262667Y-94352238D02*
X93357905Y-94304619D01*
X93357905Y-94304619D02*
X93596000Y-94304619D01*
X93596000Y-94304619D02*
X93691238Y-94352238D01*
X93691238Y-94352238D02*
X93738857Y-94399857D01*
X93738857Y-94399857D02*
X93786476Y-94495095D01*
X93786476Y-94495095D02*
X93786476Y-94590333D01*
X93786476Y-94590333D02*
X93738857Y-94733190D01*
X93738857Y-94733190D02*
X93167429Y-95304619D01*
X93167429Y-95304619D02*
X93786476Y-95304619D01*
%TO.C,R18*%
X109593142Y-102824619D02*
X109259809Y-102348428D01*
X109021714Y-102824619D02*
X109021714Y-101824619D01*
X109021714Y-101824619D02*
X109402666Y-101824619D01*
X109402666Y-101824619D02*
X109497904Y-101872238D01*
X109497904Y-101872238D02*
X109545523Y-101919857D01*
X109545523Y-101919857D02*
X109593142Y-102015095D01*
X109593142Y-102015095D02*
X109593142Y-102157952D01*
X109593142Y-102157952D02*
X109545523Y-102253190D01*
X109545523Y-102253190D02*
X109497904Y-102300809D01*
X109497904Y-102300809D02*
X109402666Y-102348428D01*
X109402666Y-102348428D02*
X109021714Y-102348428D01*
X110545523Y-102824619D02*
X109974095Y-102824619D01*
X110259809Y-102824619D02*
X110259809Y-101824619D01*
X110259809Y-101824619D02*
X110164571Y-101967476D01*
X110164571Y-101967476D02*
X110069333Y-102062714D01*
X110069333Y-102062714D02*
X109974095Y-102110333D01*
X111116952Y-102253190D02*
X111021714Y-102205571D01*
X111021714Y-102205571D02*
X110974095Y-102157952D01*
X110974095Y-102157952D02*
X110926476Y-102062714D01*
X110926476Y-102062714D02*
X110926476Y-102015095D01*
X110926476Y-102015095D02*
X110974095Y-101919857D01*
X110974095Y-101919857D02*
X111021714Y-101872238D01*
X111021714Y-101872238D02*
X111116952Y-101824619D01*
X111116952Y-101824619D02*
X111307428Y-101824619D01*
X111307428Y-101824619D02*
X111402666Y-101872238D01*
X111402666Y-101872238D02*
X111450285Y-101919857D01*
X111450285Y-101919857D02*
X111497904Y-102015095D01*
X111497904Y-102015095D02*
X111497904Y-102062714D01*
X111497904Y-102062714D02*
X111450285Y-102157952D01*
X111450285Y-102157952D02*
X111402666Y-102205571D01*
X111402666Y-102205571D02*
X111307428Y-102253190D01*
X111307428Y-102253190D02*
X111116952Y-102253190D01*
X111116952Y-102253190D02*
X111021714Y-102300809D01*
X111021714Y-102300809D02*
X110974095Y-102348428D01*
X110974095Y-102348428D02*
X110926476Y-102443666D01*
X110926476Y-102443666D02*
X110926476Y-102634142D01*
X110926476Y-102634142D02*
X110974095Y-102729380D01*
X110974095Y-102729380D02*
X111021714Y-102777000D01*
X111021714Y-102777000D02*
X111116952Y-102824619D01*
X111116952Y-102824619D02*
X111307428Y-102824619D01*
X111307428Y-102824619D02*
X111402666Y-102777000D01*
X111402666Y-102777000D02*
X111450285Y-102729380D01*
X111450285Y-102729380D02*
X111497904Y-102634142D01*
X111497904Y-102634142D02*
X111497904Y-102443666D01*
X111497904Y-102443666D02*
X111450285Y-102348428D01*
X111450285Y-102348428D02*
X111402666Y-102300809D01*
X111402666Y-102300809D02*
X111307428Y-102253190D01*
%TO.C,C15*%
X90257142Y-94947380D02*
X90209523Y-94995000D01*
X90209523Y-94995000D02*
X90066666Y-95042619D01*
X90066666Y-95042619D02*
X89971428Y-95042619D01*
X89971428Y-95042619D02*
X89828571Y-94995000D01*
X89828571Y-94995000D02*
X89733333Y-94899761D01*
X89733333Y-94899761D02*
X89685714Y-94804523D01*
X89685714Y-94804523D02*
X89638095Y-94614047D01*
X89638095Y-94614047D02*
X89638095Y-94471190D01*
X89638095Y-94471190D02*
X89685714Y-94280714D01*
X89685714Y-94280714D02*
X89733333Y-94185476D01*
X89733333Y-94185476D02*
X89828571Y-94090238D01*
X89828571Y-94090238D02*
X89971428Y-94042619D01*
X89971428Y-94042619D02*
X90066666Y-94042619D01*
X90066666Y-94042619D02*
X90209523Y-94090238D01*
X90209523Y-94090238D02*
X90257142Y-94137857D01*
X91209523Y-95042619D02*
X90638095Y-95042619D01*
X90923809Y-95042619D02*
X90923809Y-94042619D01*
X90923809Y-94042619D02*
X90828571Y-94185476D01*
X90828571Y-94185476D02*
X90733333Y-94280714D01*
X90733333Y-94280714D02*
X90638095Y-94328333D01*
X92114285Y-94042619D02*
X91638095Y-94042619D01*
X91638095Y-94042619D02*
X91590476Y-94518809D01*
X91590476Y-94518809D02*
X91638095Y-94471190D01*
X91638095Y-94471190D02*
X91733333Y-94423571D01*
X91733333Y-94423571D02*
X91971428Y-94423571D01*
X91971428Y-94423571D02*
X92066666Y-94471190D01*
X92066666Y-94471190D02*
X92114285Y-94518809D01*
X92114285Y-94518809D02*
X92161904Y-94614047D01*
X92161904Y-94614047D02*
X92161904Y-94852142D01*
X92161904Y-94852142D02*
X92114285Y-94947380D01*
X92114285Y-94947380D02*
X92066666Y-94995000D01*
X92066666Y-94995000D02*
X91971428Y-95042619D01*
X91971428Y-95042619D02*
X91733333Y-95042619D01*
X91733333Y-95042619D02*
X91638095Y-94995000D01*
X91638095Y-94995000D02*
X91590476Y-94947380D01*
%TO.C,R6*%
X106767333Y-91394619D02*
X106434000Y-90918428D01*
X106195905Y-91394619D02*
X106195905Y-90394619D01*
X106195905Y-90394619D02*
X106576857Y-90394619D01*
X106576857Y-90394619D02*
X106672095Y-90442238D01*
X106672095Y-90442238D02*
X106719714Y-90489857D01*
X106719714Y-90489857D02*
X106767333Y-90585095D01*
X106767333Y-90585095D02*
X106767333Y-90727952D01*
X106767333Y-90727952D02*
X106719714Y-90823190D01*
X106719714Y-90823190D02*
X106672095Y-90870809D01*
X106672095Y-90870809D02*
X106576857Y-90918428D01*
X106576857Y-90918428D02*
X106195905Y-90918428D01*
X107624476Y-90394619D02*
X107434000Y-90394619D01*
X107434000Y-90394619D02*
X107338762Y-90442238D01*
X107338762Y-90442238D02*
X107291143Y-90489857D01*
X107291143Y-90489857D02*
X107195905Y-90632714D01*
X107195905Y-90632714D02*
X107148286Y-90823190D01*
X107148286Y-90823190D02*
X107148286Y-91204142D01*
X107148286Y-91204142D02*
X107195905Y-91299380D01*
X107195905Y-91299380D02*
X107243524Y-91347000D01*
X107243524Y-91347000D02*
X107338762Y-91394619D01*
X107338762Y-91394619D02*
X107529238Y-91394619D01*
X107529238Y-91394619D02*
X107624476Y-91347000D01*
X107624476Y-91347000D02*
X107672095Y-91299380D01*
X107672095Y-91299380D02*
X107719714Y-91204142D01*
X107719714Y-91204142D02*
X107719714Y-90966047D01*
X107719714Y-90966047D02*
X107672095Y-90870809D01*
X107672095Y-90870809D02*
X107624476Y-90823190D01*
X107624476Y-90823190D02*
X107529238Y-90775571D01*
X107529238Y-90775571D02*
X107338762Y-90775571D01*
X107338762Y-90775571D02*
X107243524Y-90823190D01*
X107243524Y-90823190D02*
X107195905Y-90870809D01*
X107195905Y-90870809D02*
X107148286Y-90966047D01*
%TO.C,J3*%
X83842266Y-99919419D02*
X83842266Y-100633704D01*
X83842266Y-100633704D02*
X83794647Y-100776561D01*
X83794647Y-100776561D02*
X83699409Y-100871800D01*
X83699409Y-100871800D02*
X83556552Y-100919419D01*
X83556552Y-100919419D02*
X83461314Y-100919419D01*
X84223219Y-99919419D02*
X84842266Y-99919419D01*
X84842266Y-99919419D02*
X84508933Y-100300371D01*
X84508933Y-100300371D02*
X84651790Y-100300371D01*
X84651790Y-100300371D02*
X84747028Y-100347990D01*
X84747028Y-100347990D02*
X84794647Y-100395609D01*
X84794647Y-100395609D02*
X84842266Y-100490847D01*
X84842266Y-100490847D02*
X84842266Y-100728942D01*
X84842266Y-100728942D02*
X84794647Y-100824180D01*
X84794647Y-100824180D02*
X84747028Y-100871800D01*
X84747028Y-100871800D02*
X84651790Y-100919419D01*
X84651790Y-100919419D02*
X84366076Y-100919419D01*
X84366076Y-100919419D02*
X84270838Y-100871800D01*
X84270838Y-100871800D02*
X84223219Y-100824180D01*
%TO.C,R10*%
X106418142Y-86949619D02*
X106084809Y-86473428D01*
X105846714Y-86949619D02*
X105846714Y-85949619D01*
X105846714Y-85949619D02*
X106227666Y-85949619D01*
X106227666Y-85949619D02*
X106322904Y-85997238D01*
X106322904Y-85997238D02*
X106370523Y-86044857D01*
X106370523Y-86044857D02*
X106418142Y-86140095D01*
X106418142Y-86140095D02*
X106418142Y-86282952D01*
X106418142Y-86282952D02*
X106370523Y-86378190D01*
X106370523Y-86378190D02*
X106322904Y-86425809D01*
X106322904Y-86425809D02*
X106227666Y-86473428D01*
X106227666Y-86473428D02*
X105846714Y-86473428D01*
X107370523Y-86949619D02*
X106799095Y-86949619D01*
X107084809Y-86949619D02*
X107084809Y-85949619D01*
X107084809Y-85949619D02*
X106989571Y-86092476D01*
X106989571Y-86092476D02*
X106894333Y-86187714D01*
X106894333Y-86187714D02*
X106799095Y-86235333D01*
X107989571Y-85949619D02*
X108084809Y-85949619D01*
X108084809Y-85949619D02*
X108180047Y-85997238D01*
X108180047Y-85997238D02*
X108227666Y-86044857D01*
X108227666Y-86044857D02*
X108275285Y-86140095D01*
X108275285Y-86140095D02*
X108322904Y-86330571D01*
X108322904Y-86330571D02*
X108322904Y-86568666D01*
X108322904Y-86568666D02*
X108275285Y-86759142D01*
X108275285Y-86759142D02*
X108227666Y-86854380D01*
X108227666Y-86854380D02*
X108180047Y-86902000D01*
X108180047Y-86902000D02*
X108084809Y-86949619D01*
X108084809Y-86949619D02*
X107989571Y-86949619D01*
X107989571Y-86949619D02*
X107894333Y-86902000D01*
X107894333Y-86902000D02*
X107846714Y-86854380D01*
X107846714Y-86854380D02*
X107799095Y-86759142D01*
X107799095Y-86759142D02*
X107751476Y-86568666D01*
X107751476Y-86568666D02*
X107751476Y-86330571D01*
X107751476Y-86330571D02*
X107799095Y-86140095D01*
X107799095Y-86140095D02*
X107846714Y-86044857D01*
X107846714Y-86044857D02*
X107894333Y-85997238D01*
X107894333Y-85997238D02*
X107989571Y-85949619D01*
%TO.C,R16*%
X119207142Y-84212619D02*
X118873809Y-83736428D01*
X118635714Y-84212619D02*
X118635714Y-83212619D01*
X118635714Y-83212619D02*
X119016666Y-83212619D01*
X119016666Y-83212619D02*
X119111904Y-83260238D01*
X119111904Y-83260238D02*
X119159523Y-83307857D01*
X119159523Y-83307857D02*
X119207142Y-83403095D01*
X119207142Y-83403095D02*
X119207142Y-83545952D01*
X119207142Y-83545952D02*
X119159523Y-83641190D01*
X119159523Y-83641190D02*
X119111904Y-83688809D01*
X119111904Y-83688809D02*
X119016666Y-83736428D01*
X119016666Y-83736428D02*
X118635714Y-83736428D01*
X120159523Y-84212619D02*
X119588095Y-84212619D01*
X119873809Y-84212619D02*
X119873809Y-83212619D01*
X119873809Y-83212619D02*
X119778571Y-83355476D01*
X119778571Y-83355476D02*
X119683333Y-83450714D01*
X119683333Y-83450714D02*
X119588095Y-83498333D01*
X121016666Y-83212619D02*
X120826190Y-83212619D01*
X120826190Y-83212619D02*
X120730952Y-83260238D01*
X120730952Y-83260238D02*
X120683333Y-83307857D01*
X120683333Y-83307857D02*
X120588095Y-83450714D01*
X120588095Y-83450714D02*
X120540476Y-83641190D01*
X120540476Y-83641190D02*
X120540476Y-84022142D01*
X120540476Y-84022142D02*
X120588095Y-84117380D01*
X120588095Y-84117380D02*
X120635714Y-84165000D01*
X120635714Y-84165000D02*
X120730952Y-84212619D01*
X120730952Y-84212619D02*
X120921428Y-84212619D01*
X120921428Y-84212619D02*
X121016666Y-84165000D01*
X121016666Y-84165000D02*
X121064285Y-84117380D01*
X121064285Y-84117380D02*
X121111904Y-84022142D01*
X121111904Y-84022142D02*
X121111904Y-83784047D01*
X121111904Y-83784047D02*
X121064285Y-83688809D01*
X121064285Y-83688809D02*
X121016666Y-83641190D01*
X121016666Y-83641190D02*
X120921428Y-83593571D01*
X120921428Y-83593571D02*
X120730952Y-83593571D01*
X120730952Y-83593571D02*
X120635714Y-83641190D01*
X120635714Y-83641190D02*
X120588095Y-83688809D01*
X120588095Y-83688809D02*
X120540476Y-83784047D01*
%TO.C,U7*%
X121382619Y-71424704D02*
X122192142Y-71424704D01*
X122192142Y-71424704D02*
X122287380Y-71377085D01*
X122287380Y-71377085D02*
X122335000Y-71329466D01*
X122335000Y-71329466D02*
X122382619Y-71234228D01*
X122382619Y-71234228D02*
X122382619Y-71043752D01*
X122382619Y-71043752D02*
X122335000Y-70948514D01*
X122335000Y-70948514D02*
X122287380Y-70900895D01*
X122287380Y-70900895D02*
X122192142Y-70853276D01*
X122192142Y-70853276D02*
X121382619Y-70853276D01*
X121382619Y-70472323D02*
X121382619Y-69805657D01*
X121382619Y-69805657D02*
X122382619Y-70234228D01*
%TO.C,H2*%
X131438095Y-56079619D02*
X131438095Y-55079619D01*
X131438095Y-55555809D02*
X132009523Y-55555809D01*
X132009523Y-56079619D02*
X132009523Y-55079619D01*
X132438095Y-55174857D02*
X132485714Y-55127238D01*
X132485714Y-55127238D02*
X132580952Y-55079619D01*
X132580952Y-55079619D02*
X132819047Y-55079619D01*
X132819047Y-55079619D02*
X132914285Y-55127238D01*
X132914285Y-55127238D02*
X132961904Y-55174857D01*
X132961904Y-55174857D02*
X133009523Y-55270095D01*
X133009523Y-55270095D02*
X133009523Y-55365333D01*
X133009523Y-55365333D02*
X132961904Y-55508190D01*
X132961904Y-55508190D02*
X132390476Y-56079619D01*
X132390476Y-56079619D02*
X133009523Y-56079619D01*
%TO.C,H3*%
X131438095Y-112612619D02*
X131438095Y-111612619D01*
X131438095Y-112088809D02*
X132009523Y-112088809D01*
X132009523Y-112612619D02*
X132009523Y-111612619D01*
X132390476Y-111612619D02*
X133009523Y-111612619D01*
X133009523Y-111612619D02*
X132676190Y-111993571D01*
X132676190Y-111993571D02*
X132819047Y-111993571D01*
X132819047Y-111993571D02*
X132914285Y-112041190D01*
X132914285Y-112041190D02*
X132961904Y-112088809D01*
X132961904Y-112088809D02*
X133009523Y-112184047D01*
X133009523Y-112184047D02*
X133009523Y-112422142D01*
X133009523Y-112422142D02*
X132961904Y-112517380D01*
X132961904Y-112517380D02*
X132914285Y-112565000D01*
X132914285Y-112565000D02*
X132819047Y-112612619D01*
X132819047Y-112612619D02*
X132533333Y-112612619D01*
X132533333Y-112612619D02*
X132438095Y-112565000D01*
X132438095Y-112565000D02*
X132390476Y-112517380D01*
%TO.C,C13*%
X105087142Y-66762980D02*
X105039523Y-66810600D01*
X105039523Y-66810600D02*
X104896666Y-66858219D01*
X104896666Y-66858219D02*
X104801428Y-66858219D01*
X104801428Y-66858219D02*
X104658571Y-66810600D01*
X104658571Y-66810600D02*
X104563333Y-66715361D01*
X104563333Y-66715361D02*
X104515714Y-66620123D01*
X104515714Y-66620123D02*
X104468095Y-66429647D01*
X104468095Y-66429647D02*
X104468095Y-66286790D01*
X104468095Y-66286790D02*
X104515714Y-66096314D01*
X104515714Y-66096314D02*
X104563333Y-66001076D01*
X104563333Y-66001076D02*
X104658571Y-65905838D01*
X104658571Y-65905838D02*
X104801428Y-65858219D01*
X104801428Y-65858219D02*
X104896666Y-65858219D01*
X104896666Y-65858219D02*
X105039523Y-65905838D01*
X105039523Y-65905838D02*
X105087142Y-65953457D01*
X106039523Y-66858219D02*
X105468095Y-66858219D01*
X105753809Y-66858219D02*
X105753809Y-65858219D01*
X105753809Y-65858219D02*
X105658571Y-66001076D01*
X105658571Y-66001076D02*
X105563333Y-66096314D01*
X105563333Y-66096314D02*
X105468095Y-66143933D01*
X106372857Y-65858219D02*
X106991904Y-65858219D01*
X106991904Y-65858219D02*
X106658571Y-66239171D01*
X106658571Y-66239171D02*
X106801428Y-66239171D01*
X106801428Y-66239171D02*
X106896666Y-66286790D01*
X106896666Y-66286790D02*
X106944285Y-66334409D01*
X106944285Y-66334409D02*
X106991904Y-66429647D01*
X106991904Y-66429647D02*
X106991904Y-66667742D01*
X106991904Y-66667742D02*
X106944285Y-66762980D01*
X106944285Y-66762980D02*
X106896666Y-66810600D01*
X106896666Y-66810600D02*
X106801428Y-66858219D01*
X106801428Y-66858219D02*
X106515714Y-66858219D01*
X106515714Y-66858219D02*
X106420476Y-66810600D01*
X106420476Y-66810600D02*
X106372857Y-66762980D01*
%TO.C,C34*%
X131431380Y-110624857D02*
X131479000Y-110672476D01*
X131479000Y-110672476D02*
X131526619Y-110815333D01*
X131526619Y-110815333D02*
X131526619Y-110910571D01*
X131526619Y-110910571D02*
X131479000Y-111053428D01*
X131479000Y-111053428D02*
X131383761Y-111148666D01*
X131383761Y-111148666D02*
X131288523Y-111196285D01*
X131288523Y-111196285D02*
X131098047Y-111243904D01*
X131098047Y-111243904D02*
X130955190Y-111243904D01*
X130955190Y-111243904D02*
X130764714Y-111196285D01*
X130764714Y-111196285D02*
X130669476Y-111148666D01*
X130669476Y-111148666D02*
X130574238Y-111053428D01*
X130574238Y-111053428D02*
X130526619Y-110910571D01*
X130526619Y-110910571D02*
X130526619Y-110815333D01*
X130526619Y-110815333D02*
X130574238Y-110672476D01*
X130574238Y-110672476D02*
X130621857Y-110624857D01*
X130526619Y-110291523D02*
X130526619Y-109672476D01*
X130526619Y-109672476D02*
X130907571Y-110005809D01*
X130907571Y-110005809D02*
X130907571Y-109862952D01*
X130907571Y-109862952D02*
X130955190Y-109767714D01*
X130955190Y-109767714D02*
X131002809Y-109720095D01*
X131002809Y-109720095D02*
X131098047Y-109672476D01*
X131098047Y-109672476D02*
X131336142Y-109672476D01*
X131336142Y-109672476D02*
X131431380Y-109720095D01*
X131431380Y-109720095D02*
X131479000Y-109767714D01*
X131479000Y-109767714D02*
X131526619Y-109862952D01*
X131526619Y-109862952D02*
X131526619Y-110148666D01*
X131526619Y-110148666D02*
X131479000Y-110243904D01*
X131479000Y-110243904D02*
X131431380Y-110291523D01*
X130859952Y-108815333D02*
X131526619Y-108815333D01*
X130479000Y-109053428D02*
X131193285Y-109291523D01*
X131193285Y-109291523D02*
X131193285Y-108672476D01*
%TO.C,R8*%
X99391333Y-102062619D02*
X99058000Y-101586428D01*
X98819905Y-102062619D02*
X98819905Y-101062619D01*
X98819905Y-101062619D02*
X99200857Y-101062619D01*
X99200857Y-101062619D02*
X99296095Y-101110238D01*
X99296095Y-101110238D02*
X99343714Y-101157857D01*
X99343714Y-101157857D02*
X99391333Y-101253095D01*
X99391333Y-101253095D02*
X99391333Y-101395952D01*
X99391333Y-101395952D02*
X99343714Y-101491190D01*
X99343714Y-101491190D02*
X99296095Y-101538809D01*
X99296095Y-101538809D02*
X99200857Y-101586428D01*
X99200857Y-101586428D02*
X98819905Y-101586428D01*
X99962762Y-101491190D02*
X99867524Y-101443571D01*
X99867524Y-101443571D02*
X99819905Y-101395952D01*
X99819905Y-101395952D02*
X99772286Y-101300714D01*
X99772286Y-101300714D02*
X99772286Y-101253095D01*
X99772286Y-101253095D02*
X99819905Y-101157857D01*
X99819905Y-101157857D02*
X99867524Y-101110238D01*
X99867524Y-101110238D02*
X99962762Y-101062619D01*
X99962762Y-101062619D02*
X100153238Y-101062619D01*
X100153238Y-101062619D02*
X100248476Y-101110238D01*
X100248476Y-101110238D02*
X100296095Y-101157857D01*
X100296095Y-101157857D02*
X100343714Y-101253095D01*
X100343714Y-101253095D02*
X100343714Y-101300714D01*
X100343714Y-101300714D02*
X100296095Y-101395952D01*
X100296095Y-101395952D02*
X100248476Y-101443571D01*
X100248476Y-101443571D02*
X100153238Y-101491190D01*
X100153238Y-101491190D02*
X99962762Y-101491190D01*
X99962762Y-101491190D02*
X99867524Y-101538809D01*
X99867524Y-101538809D02*
X99819905Y-101586428D01*
X99819905Y-101586428D02*
X99772286Y-101681666D01*
X99772286Y-101681666D02*
X99772286Y-101872142D01*
X99772286Y-101872142D02*
X99819905Y-101967380D01*
X99819905Y-101967380D02*
X99867524Y-102015000D01*
X99867524Y-102015000D02*
X99962762Y-102062619D01*
X99962762Y-102062619D02*
X100153238Y-102062619D01*
X100153238Y-102062619D02*
X100248476Y-102015000D01*
X100248476Y-102015000D02*
X100296095Y-101967380D01*
X100296095Y-101967380D02*
X100343714Y-101872142D01*
X100343714Y-101872142D02*
X100343714Y-101681666D01*
X100343714Y-101681666D02*
X100296095Y-101586428D01*
X100296095Y-101586428D02*
X100248476Y-101538809D01*
X100248476Y-101538809D02*
X100153238Y-101491190D01*
%TO.C,C16*%
X98349142Y-97997380D02*
X98301523Y-98045000D01*
X98301523Y-98045000D02*
X98158666Y-98092619D01*
X98158666Y-98092619D02*
X98063428Y-98092619D01*
X98063428Y-98092619D02*
X97920571Y-98045000D01*
X97920571Y-98045000D02*
X97825333Y-97949761D01*
X97825333Y-97949761D02*
X97777714Y-97854523D01*
X97777714Y-97854523D02*
X97730095Y-97664047D01*
X97730095Y-97664047D02*
X97730095Y-97521190D01*
X97730095Y-97521190D02*
X97777714Y-97330714D01*
X97777714Y-97330714D02*
X97825333Y-97235476D01*
X97825333Y-97235476D02*
X97920571Y-97140238D01*
X97920571Y-97140238D02*
X98063428Y-97092619D01*
X98063428Y-97092619D02*
X98158666Y-97092619D01*
X98158666Y-97092619D02*
X98301523Y-97140238D01*
X98301523Y-97140238D02*
X98349142Y-97187857D01*
X99301523Y-98092619D02*
X98730095Y-98092619D01*
X99015809Y-98092619D02*
X99015809Y-97092619D01*
X99015809Y-97092619D02*
X98920571Y-97235476D01*
X98920571Y-97235476D02*
X98825333Y-97330714D01*
X98825333Y-97330714D02*
X98730095Y-97378333D01*
X100158666Y-97092619D02*
X99968190Y-97092619D01*
X99968190Y-97092619D02*
X99872952Y-97140238D01*
X99872952Y-97140238D02*
X99825333Y-97187857D01*
X99825333Y-97187857D02*
X99730095Y-97330714D01*
X99730095Y-97330714D02*
X99682476Y-97521190D01*
X99682476Y-97521190D02*
X99682476Y-97902142D01*
X99682476Y-97902142D02*
X99730095Y-97997380D01*
X99730095Y-97997380D02*
X99777714Y-98045000D01*
X99777714Y-98045000D02*
X99872952Y-98092619D01*
X99872952Y-98092619D02*
X100063428Y-98092619D01*
X100063428Y-98092619D02*
X100158666Y-98045000D01*
X100158666Y-98045000D02*
X100206285Y-97997380D01*
X100206285Y-97997380D02*
X100253904Y-97902142D01*
X100253904Y-97902142D02*
X100253904Y-97664047D01*
X100253904Y-97664047D02*
X100206285Y-97568809D01*
X100206285Y-97568809D02*
X100158666Y-97521190D01*
X100158666Y-97521190D02*
X100063428Y-97473571D01*
X100063428Y-97473571D02*
X99872952Y-97473571D01*
X99872952Y-97473571D02*
X99777714Y-97521190D01*
X99777714Y-97521190D02*
X99730095Y-97568809D01*
X99730095Y-97568809D02*
X99682476Y-97664047D01*
%TO.C,U3*%
X98806095Y-93950619D02*
X98806095Y-94760142D01*
X98806095Y-94760142D02*
X98853714Y-94855380D01*
X98853714Y-94855380D02*
X98901333Y-94903000D01*
X98901333Y-94903000D02*
X98996571Y-94950619D01*
X98996571Y-94950619D02*
X99187047Y-94950619D01*
X99187047Y-94950619D02*
X99282285Y-94903000D01*
X99282285Y-94903000D02*
X99329904Y-94855380D01*
X99329904Y-94855380D02*
X99377523Y-94760142D01*
X99377523Y-94760142D02*
X99377523Y-93950619D01*
X99758476Y-93950619D02*
X100377523Y-93950619D01*
X100377523Y-93950619D02*
X100044190Y-94331571D01*
X100044190Y-94331571D02*
X100187047Y-94331571D01*
X100187047Y-94331571D02*
X100282285Y-94379190D01*
X100282285Y-94379190D02*
X100329904Y-94426809D01*
X100329904Y-94426809D02*
X100377523Y-94522047D01*
X100377523Y-94522047D02*
X100377523Y-94760142D01*
X100377523Y-94760142D02*
X100329904Y-94855380D01*
X100329904Y-94855380D02*
X100282285Y-94903000D01*
X100282285Y-94903000D02*
X100187047Y-94950619D01*
X100187047Y-94950619D02*
X99901333Y-94950619D01*
X99901333Y-94950619D02*
X99806095Y-94903000D01*
X99806095Y-94903000D02*
X99758476Y-94855380D01*
%TO.C,T1*%
X112685595Y-118612619D02*
X113257023Y-118612619D01*
X112971309Y-119612619D02*
X112971309Y-118612619D01*
X114114166Y-119612619D02*
X113542738Y-119612619D01*
X113828452Y-119612619D02*
X113828452Y-118612619D01*
X113828452Y-118612619D02*
X113733214Y-118755476D01*
X113733214Y-118755476D02*
X113637976Y-118850714D01*
X113637976Y-118850714D02*
X113542738Y-118898333D01*
%TO.C,C30*%
X131024980Y-99906057D02*
X131072600Y-99953676D01*
X131072600Y-99953676D02*
X131120219Y-100096533D01*
X131120219Y-100096533D02*
X131120219Y-100191771D01*
X131120219Y-100191771D02*
X131072600Y-100334628D01*
X131072600Y-100334628D02*
X130977361Y-100429866D01*
X130977361Y-100429866D02*
X130882123Y-100477485D01*
X130882123Y-100477485D02*
X130691647Y-100525104D01*
X130691647Y-100525104D02*
X130548790Y-100525104D01*
X130548790Y-100525104D02*
X130358314Y-100477485D01*
X130358314Y-100477485D02*
X130263076Y-100429866D01*
X130263076Y-100429866D02*
X130167838Y-100334628D01*
X130167838Y-100334628D02*
X130120219Y-100191771D01*
X130120219Y-100191771D02*
X130120219Y-100096533D01*
X130120219Y-100096533D02*
X130167838Y-99953676D01*
X130167838Y-99953676D02*
X130215457Y-99906057D01*
X130120219Y-99572723D02*
X130120219Y-98953676D01*
X130120219Y-98953676D02*
X130501171Y-99287009D01*
X130501171Y-99287009D02*
X130501171Y-99144152D01*
X130501171Y-99144152D02*
X130548790Y-99048914D01*
X130548790Y-99048914D02*
X130596409Y-99001295D01*
X130596409Y-99001295D02*
X130691647Y-98953676D01*
X130691647Y-98953676D02*
X130929742Y-98953676D01*
X130929742Y-98953676D02*
X131024980Y-99001295D01*
X131024980Y-99001295D02*
X131072600Y-99048914D01*
X131072600Y-99048914D02*
X131120219Y-99144152D01*
X131120219Y-99144152D02*
X131120219Y-99429866D01*
X131120219Y-99429866D02*
X131072600Y-99525104D01*
X131072600Y-99525104D02*
X131024980Y-99572723D01*
X130120219Y-98334628D02*
X130120219Y-98239390D01*
X130120219Y-98239390D02*
X130167838Y-98144152D01*
X130167838Y-98144152D02*
X130215457Y-98096533D01*
X130215457Y-98096533D02*
X130310695Y-98048914D01*
X130310695Y-98048914D02*
X130501171Y-98001295D01*
X130501171Y-98001295D02*
X130739266Y-98001295D01*
X130739266Y-98001295D02*
X130929742Y-98048914D01*
X130929742Y-98048914D02*
X131024980Y-98096533D01*
X131024980Y-98096533D02*
X131072600Y-98144152D01*
X131072600Y-98144152D02*
X131120219Y-98239390D01*
X131120219Y-98239390D02*
X131120219Y-98334628D01*
X131120219Y-98334628D02*
X131072600Y-98429866D01*
X131072600Y-98429866D02*
X131024980Y-98477485D01*
X131024980Y-98477485D02*
X130929742Y-98525104D01*
X130929742Y-98525104D02*
X130739266Y-98572723D01*
X130739266Y-98572723D02*
X130501171Y-98572723D01*
X130501171Y-98572723D02*
X130310695Y-98525104D01*
X130310695Y-98525104D02*
X130215457Y-98477485D01*
X130215457Y-98477485D02*
X130167838Y-98429866D01*
X130167838Y-98429866D02*
X130120219Y-98334628D01*
%TO.C,TP1*%
X119722095Y-74742619D02*
X120293523Y-74742619D01*
X120007809Y-75742619D02*
X120007809Y-74742619D01*
X120626857Y-75742619D02*
X120626857Y-74742619D01*
X120626857Y-74742619D02*
X121007809Y-74742619D01*
X121007809Y-74742619D02*
X121103047Y-74790238D01*
X121103047Y-74790238D02*
X121150666Y-74837857D01*
X121150666Y-74837857D02*
X121198285Y-74933095D01*
X121198285Y-74933095D02*
X121198285Y-75075952D01*
X121198285Y-75075952D02*
X121150666Y-75171190D01*
X121150666Y-75171190D02*
X121103047Y-75218809D01*
X121103047Y-75218809D02*
X121007809Y-75266428D01*
X121007809Y-75266428D02*
X120626857Y-75266428D01*
X122150666Y-75742619D02*
X121579238Y-75742619D01*
X121864952Y-75742619D02*
X121864952Y-74742619D01*
X121864952Y-74742619D02*
X121769714Y-74885476D01*
X121769714Y-74885476D02*
X121674476Y-74980714D01*
X121674476Y-74980714D02*
X121579238Y-75028333D01*
%TO.C,C5*%
X89876980Y-74791866D02*
X89924600Y-74839485D01*
X89924600Y-74839485D02*
X89972219Y-74982342D01*
X89972219Y-74982342D02*
X89972219Y-75077580D01*
X89972219Y-75077580D02*
X89924600Y-75220437D01*
X89924600Y-75220437D02*
X89829361Y-75315675D01*
X89829361Y-75315675D02*
X89734123Y-75363294D01*
X89734123Y-75363294D02*
X89543647Y-75410913D01*
X89543647Y-75410913D02*
X89400790Y-75410913D01*
X89400790Y-75410913D02*
X89210314Y-75363294D01*
X89210314Y-75363294D02*
X89115076Y-75315675D01*
X89115076Y-75315675D02*
X89019838Y-75220437D01*
X89019838Y-75220437D02*
X88972219Y-75077580D01*
X88972219Y-75077580D02*
X88972219Y-74982342D01*
X88972219Y-74982342D02*
X89019838Y-74839485D01*
X89019838Y-74839485D02*
X89067457Y-74791866D01*
X88972219Y-73887104D02*
X88972219Y-74363294D01*
X88972219Y-74363294D02*
X89448409Y-74410913D01*
X89448409Y-74410913D02*
X89400790Y-74363294D01*
X89400790Y-74363294D02*
X89353171Y-74268056D01*
X89353171Y-74268056D02*
X89353171Y-74029961D01*
X89353171Y-74029961D02*
X89400790Y-73934723D01*
X89400790Y-73934723D02*
X89448409Y-73887104D01*
X89448409Y-73887104D02*
X89543647Y-73839485D01*
X89543647Y-73839485D02*
X89781742Y-73839485D01*
X89781742Y-73839485D02*
X89876980Y-73887104D01*
X89876980Y-73887104D02*
X89924600Y-73934723D01*
X89924600Y-73934723D02*
X89972219Y-74029961D01*
X89972219Y-74029961D02*
X89972219Y-74268056D01*
X89972219Y-74268056D02*
X89924600Y-74363294D01*
X89924600Y-74363294D02*
X89876980Y-74410913D01*
%TO.C,C3*%
X94372133Y-66403780D02*
X94324514Y-66451400D01*
X94324514Y-66451400D02*
X94181657Y-66499019D01*
X94181657Y-66499019D02*
X94086419Y-66499019D01*
X94086419Y-66499019D02*
X93943562Y-66451400D01*
X93943562Y-66451400D02*
X93848324Y-66356161D01*
X93848324Y-66356161D02*
X93800705Y-66260923D01*
X93800705Y-66260923D02*
X93753086Y-66070447D01*
X93753086Y-66070447D02*
X93753086Y-65927590D01*
X93753086Y-65927590D02*
X93800705Y-65737114D01*
X93800705Y-65737114D02*
X93848324Y-65641876D01*
X93848324Y-65641876D02*
X93943562Y-65546638D01*
X93943562Y-65546638D02*
X94086419Y-65499019D01*
X94086419Y-65499019D02*
X94181657Y-65499019D01*
X94181657Y-65499019D02*
X94324514Y-65546638D01*
X94324514Y-65546638D02*
X94372133Y-65594257D01*
X94705467Y-65499019D02*
X95324514Y-65499019D01*
X95324514Y-65499019D02*
X94991181Y-65879971D01*
X94991181Y-65879971D02*
X95134038Y-65879971D01*
X95134038Y-65879971D02*
X95229276Y-65927590D01*
X95229276Y-65927590D02*
X95276895Y-65975209D01*
X95276895Y-65975209D02*
X95324514Y-66070447D01*
X95324514Y-66070447D02*
X95324514Y-66308542D01*
X95324514Y-66308542D02*
X95276895Y-66403780D01*
X95276895Y-66403780D02*
X95229276Y-66451400D01*
X95229276Y-66451400D02*
X95134038Y-66499019D01*
X95134038Y-66499019D02*
X94848324Y-66499019D01*
X94848324Y-66499019D02*
X94753086Y-66451400D01*
X94753086Y-66451400D02*
X94705467Y-66403780D01*
%TO.C,R19*%
X124593419Y-107627657D02*
X124117228Y-107960990D01*
X124593419Y-108199085D02*
X123593419Y-108199085D01*
X123593419Y-108199085D02*
X123593419Y-107818133D01*
X123593419Y-107818133D02*
X123641038Y-107722895D01*
X123641038Y-107722895D02*
X123688657Y-107675276D01*
X123688657Y-107675276D02*
X123783895Y-107627657D01*
X123783895Y-107627657D02*
X123926752Y-107627657D01*
X123926752Y-107627657D02*
X124021990Y-107675276D01*
X124021990Y-107675276D02*
X124069609Y-107722895D01*
X124069609Y-107722895D02*
X124117228Y-107818133D01*
X124117228Y-107818133D02*
X124117228Y-108199085D01*
X124593419Y-106675276D02*
X124593419Y-107246704D01*
X124593419Y-106960990D02*
X123593419Y-106960990D01*
X123593419Y-106960990D02*
X123736276Y-107056228D01*
X123736276Y-107056228D02*
X123831514Y-107151466D01*
X123831514Y-107151466D02*
X123879133Y-107246704D01*
X124593419Y-106199085D02*
X124593419Y-106008609D01*
X124593419Y-106008609D02*
X124545800Y-105913371D01*
X124545800Y-105913371D02*
X124498180Y-105865752D01*
X124498180Y-105865752D02*
X124355323Y-105770514D01*
X124355323Y-105770514D02*
X124164847Y-105722895D01*
X124164847Y-105722895D02*
X123783895Y-105722895D01*
X123783895Y-105722895D02*
X123688657Y-105770514D01*
X123688657Y-105770514D02*
X123641038Y-105818133D01*
X123641038Y-105818133D02*
X123593419Y-105913371D01*
X123593419Y-105913371D02*
X123593419Y-106103847D01*
X123593419Y-106103847D02*
X123641038Y-106199085D01*
X123641038Y-106199085D02*
X123688657Y-106246704D01*
X123688657Y-106246704D02*
X123783895Y-106294323D01*
X123783895Y-106294323D02*
X124021990Y-106294323D01*
X124021990Y-106294323D02*
X124117228Y-106246704D01*
X124117228Y-106246704D02*
X124164847Y-106199085D01*
X124164847Y-106199085D02*
X124212466Y-106103847D01*
X124212466Y-106103847D02*
X124212466Y-105913371D01*
X124212466Y-105913371D02*
X124164847Y-105818133D01*
X124164847Y-105818133D02*
X124117228Y-105770514D01*
X124117228Y-105770514D02*
X124021990Y-105722895D01*
%TO.C,C1*%
X99655333Y-64435380D02*
X99607714Y-64483000D01*
X99607714Y-64483000D02*
X99464857Y-64530619D01*
X99464857Y-64530619D02*
X99369619Y-64530619D01*
X99369619Y-64530619D02*
X99226762Y-64483000D01*
X99226762Y-64483000D02*
X99131524Y-64387761D01*
X99131524Y-64387761D02*
X99083905Y-64292523D01*
X99083905Y-64292523D02*
X99036286Y-64102047D01*
X99036286Y-64102047D02*
X99036286Y-63959190D01*
X99036286Y-63959190D02*
X99083905Y-63768714D01*
X99083905Y-63768714D02*
X99131524Y-63673476D01*
X99131524Y-63673476D02*
X99226762Y-63578238D01*
X99226762Y-63578238D02*
X99369619Y-63530619D01*
X99369619Y-63530619D02*
X99464857Y-63530619D01*
X99464857Y-63530619D02*
X99607714Y-63578238D01*
X99607714Y-63578238D02*
X99655333Y-63625857D01*
X100607714Y-64530619D02*
X100036286Y-64530619D01*
X100322000Y-64530619D02*
X100322000Y-63530619D01*
X100322000Y-63530619D02*
X100226762Y-63673476D01*
X100226762Y-63673476D02*
X100131524Y-63768714D01*
X100131524Y-63768714D02*
X100036286Y-63816333D01*
%TO.C,C8*%
X94321333Y-78781380D02*
X94273714Y-78829000D01*
X94273714Y-78829000D02*
X94130857Y-78876619D01*
X94130857Y-78876619D02*
X94035619Y-78876619D01*
X94035619Y-78876619D02*
X93892762Y-78829000D01*
X93892762Y-78829000D02*
X93797524Y-78733761D01*
X93797524Y-78733761D02*
X93749905Y-78638523D01*
X93749905Y-78638523D02*
X93702286Y-78448047D01*
X93702286Y-78448047D02*
X93702286Y-78305190D01*
X93702286Y-78305190D02*
X93749905Y-78114714D01*
X93749905Y-78114714D02*
X93797524Y-78019476D01*
X93797524Y-78019476D02*
X93892762Y-77924238D01*
X93892762Y-77924238D02*
X94035619Y-77876619D01*
X94035619Y-77876619D02*
X94130857Y-77876619D01*
X94130857Y-77876619D02*
X94273714Y-77924238D01*
X94273714Y-77924238D02*
X94321333Y-77971857D01*
X94892762Y-78305190D02*
X94797524Y-78257571D01*
X94797524Y-78257571D02*
X94749905Y-78209952D01*
X94749905Y-78209952D02*
X94702286Y-78114714D01*
X94702286Y-78114714D02*
X94702286Y-78067095D01*
X94702286Y-78067095D02*
X94749905Y-77971857D01*
X94749905Y-77971857D02*
X94797524Y-77924238D01*
X94797524Y-77924238D02*
X94892762Y-77876619D01*
X94892762Y-77876619D02*
X95083238Y-77876619D01*
X95083238Y-77876619D02*
X95178476Y-77924238D01*
X95178476Y-77924238D02*
X95226095Y-77971857D01*
X95226095Y-77971857D02*
X95273714Y-78067095D01*
X95273714Y-78067095D02*
X95273714Y-78114714D01*
X95273714Y-78114714D02*
X95226095Y-78209952D01*
X95226095Y-78209952D02*
X95178476Y-78257571D01*
X95178476Y-78257571D02*
X95083238Y-78305190D01*
X95083238Y-78305190D02*
X94892762Y-78305190D01*
X94892762Y-78305190D02*
X94797524Y-78352809D01*
X94797524Y-78352809D02*
X94749905Y-78400428D01*
X94749905Y-78400428D02*
X94702286Y-78495666D01*
X94702286Y-78495666D02*
X94702286Y-78686142D01*
X94702286Y-78686142D02*
X94749905Y-78781380D01*
X94749905Y-78781380D02*
X94797524Y-78829000D01*
X94797524Y-78829000D02*
X94892762Y-78876619D01*
X94892762Y-78876619D02*
X95083238Y-78876619D01*
X95083238Y-78876619D02*
X95178476Y-78829000D01*
X95178476Y-78829000D02*
X95226095Y-78781380D01*
X95226095Y-78781380D02*
X95273714Y-78686142D01*
X95273714Y-78686142D02*
X95273714Y-78495666D01*
X95273714Y-78495666D02*
X95226095Y-78400428D01*
X95226095Y-78400428D02*
X95178476Y-78352809D01*
X95178476Y-78352809D02*
X95083238Y-78305190D01*
%TO.C,C14*%
X100322142Y-81266380D02*
X100274523Y-81314000D01*
X100274523Y-81314000D02*
X100131666Y-81361619D01*
X100131666Y-81361619D02*
X100036428Y-81361619D01*
X100036428Y-81361619D02*
X99893571Y-81314000D01*
X99893571Y-81314000D02*
X99798333Y-81218761D01*
X99798333Y-81218761D02*
X99750714Y-81123523D01*
X99750714Y-81123523D02*
X99703095Y-80933047D01*
X99703095Y-80933047D02*
X99703095Y-80790190D01*
X99703095Y-80790190D02*
X99750714Y-80599714D01*
X99750714Y-80599714D02*
X99798333Y-80504476D01*
X99798333Y-80504476D02*
X99893571Y-80409238D01*
X99893571Y-80409238D02*
X100036428Y-80361619D01*
X100036428Y-80361619D02*
X100131666Y-80361619D01*
X100131666Y-80361619D02*
X100274523Y-80409238D01*
X100274523Y-80409238D02*
X100322142Y-80456857D01*
X101274523Y-81361619D02*
X100703095Y-81361619D01*
X100988809Y-81361619D02*
X100988809Y-80361619D01*
X100988809Y-80361619D02*
X100893571Y-80504476D01*
X100893571Y-80504476D02*
X100798333Y-80599714D01*
X100798333Y-80599714D02*
X100703095Y-80647333D01*
X102131666Y-80694952D02*
X102131666Y-81361619D01*
X101893571Y-80314000D02*
X101655476Y-81028285D01*
X101655476Y-81028285D02*
X102274523Y-81028285D01*
%TO.C,R13*%
X101795342Y-76916619D02*
X101462009Y-76440428D01*
X101223914Y-76916619D02*
X101223914Y-75916619D01*
X101223914Y-75916619D02*
X101604866Y-75916619D01*
X101604866Y-75916619D02*
X101700104Y-75964238D01*
X101700104Y-75964238D02*
X101747723Y-76011857D01*
X101747723Y-76011857D02*
X101795342Y-76107095D01*
X101795342Y-76107095D02*
X101795342Y-76249952D01*
X101795342Y-76249952D02*
X101747723Y-76345190D01*
X101747723Y-76345190D02*
X101700104Y-76392809D01*
X101700104Y-76392809D02*
X101604866Y-76440428D01*
X101604866Y-76440428D02*
X101223914Y-76440428D01*
X102747723Y-76916619D02*
X102176295Y-76916619D01*
X102462009Y-76916619D02*
X102462009Y-75916619D01*
X102462009Y-75916619D02*
X102366771Y-76059476D01*
X102366771Y-76059476D02*
X102271533Y-76154714D01*
X102271533Y-76154714D02*
X102176295Y-76202333D01*
X103081057Y-75916619D02*
X103700104Y-75916619D01*
X103700104Y-75916619D02*
X103366771Y-76297571D01*
X103366771Y-76297571D02*
X103509628Y-76297571D01*
X103509628Y-76297571D02*
X103604866Y-76345190D01*
X103604866Y-76345190D02*
X103652485Y-76392809D01*
X103652485Y-76392809D02*
X103700104Y-76488047D01*
X103700104Y-76488047D02*
X103700104Y-76726142D01*
X103700104Y-76726142D02*
X103652485Y-76821380D01*
X103652485Y-76821380D02*
X103604866Y-76869000D01*
X103604866Y-76869000D02*
X103509628Y-76916619D01*
X103509628Y-76916619D02*
X103223914Y-76916619D01*
X103223914Y-76916619D02*
X103128676Y-76869000D01*
X103128676Y-76869000D02*
X103081057Y-76821380D01*
D11*
%TO.C,R22*%
X119660936Y-61241000D02*
X120115064Y-61241000D01*
X119660936Y-62711000D02*
X120115064Y-62711000D01*
%TO.C,R20*%
X112899564Y-62711000D02*
X112445436Y-62711000D01*
X112899564Y-61241000D02*
X112445436Y-61241000D01*
%TO.C,C17*%
X120775400Y-93515548D02*
X120775400Y-94038052D01*
X119305400Y-93515548D02*
X119305400Y-94038052D01*
%TO.C,C23*%
X104538748Y-83560000D02*
X105961252Y-83560000D01*
X104538748Y-81740000D02*
X105961252Y-81740000D01*
%TO.C,R9*%
X117115000Y-94027064D02*
X117115000Y-93572936D01*
X118585000Y-94027064D02*
X118585000Y-93572936D01*
%TO.C,J1*%
X80190400Y-84409600D02*
X80190400Y-74289600D01*
X81190400Y-84409600D02*
X81190400Y-74289600D01*
X84273400Y-78149600D02*
X84323400Y-78199600D01*
X76630400Y-84409600D02*
X87250400Y-84409600D01*
X87490400Y-84649600D02*
X87490400Y-82649600D01*
X85250400Y-84649600D02*
X87490400Y-84649600D01*
X81840400Y-75716600D02*
X81864400Y-75741600D01*
X84515400Y-77957600D02*
X84540400Y-77981600D01*
X76630400Y-84409600D02*
X76630400Y-74289600D01*
X76630400Y-74289600D02*
X87250400Y-74289600D01*
X85190400Y-84409600D02*
X85190400Y-74289600D01*
X87250400Y-84409600D02*
X87250400Y-74289600D01*
X82057400Y-75499600D02*
X82107400Y-75548600D01*
X84829399Y-82545600D02*
G75*
G03*
X84970789Y-81818786I-1638985J695998D01*
G01*
X83886400Y-80210600D02*
G75*
G03*
X82494884Y-80210395I-696000J-1639000D01*
G01*
X82494400Y-83488599D02*
G75*
G03*
X83885916Y-83488805I696001J1638994D01*
G01*
X81551401Y-81153600D02*
G75*
G03*
X81551195Y-82545116I1638994J-696001D01*
G01*
X84970400Y-81849600D02*
G75*
G03*
X84828899Y-81154099I-1780002J0D01*
G01*
X84970400Y-76849600D02*
G75*
G03*
X84970400Y-76849600I-1780000J0D01*
G01*
%TO.C,C28*%
X122201000Y-84828748D02*
X122201000Y-85351252D01*
X123671000Y-84828748D02*
X123671000Y-85351252D01*
%TO.C,R14*%
X106077064Y-79785000D02*
X105622936Y-79785000D01*
X106077064Y-78315000D02*
X105622936Y-78315000D01*
%TO.C,C25*%
X103682748Y-96880000D02*
X105105252Y-96880000D01*
X103682748Y-98700000D02*
X105105252Y-98700000D01*
%TO.C,C27*%
X132488000Y-96400252D02*
X132488000Y-95877748D01*
X133958000Y-96400252D02*
X133958000Y-95877748D01*
%TO.C,R21*%
X126535000Y-111074564D02*
X126535000Y-110620436D01*
X125065000Y-111074564D02*
X125065000Y-110620436D01*
%TO.C,Y1*%
X120000000Y-66567000D02*
X124000000Y-66567000D01*
X120000000Y-63267000D02*
X120000000Y-66567000D01*
%TO.C,TP2*%
X124351000Y-76855000D02*
G75*
G03*
X124351000Y-76855000I-700000J0D01*
G01*
%TO.C,C21*%
X96038748Y-105060000D02*
X97461252Y-105060000D01*
X96038748Y-103240000D02*
X97461252Y-103240000D01*
%TO.C,C9*%
X91334000Y-98755252D02*
X91334000Y-97332748D01*
X89514000Y-98755252D02*
X89514000Y-97332748D01*
%TO.C,C4*%
X96600000Y-74574400D02*
G75*
G03*
X96600000Y-74574400I-2620000J0D01*
G01*
%TO.C,U6*%
X126300000Y-93685000D02*
X128500000Y-93685000D01*
X126300000Y-88215000D02*
X122700000Y-88215000D01*
X126300000Y-88215000D02*
X128500000Y-88215000D01*
X126300000Y-93685000D02*
X124100000Y-93685000D01*
%TO.C,C7*%
X91159000Y-102877252D02*
X91159000Y-102354748D01*
X89689000Y-102877252D02*
X89689000Y-102354748D01*
%TO.C,R3*%
X100722936Y-84815000D02*
X101177064Y-84815000D01*
X100722936Y-86285000D02*
X101177064Y-86285000D01*
%TO.C,C6*%
X92235000Y-83911252D02*
X92235000Y-83388748D01*
X90765000Y-83911252D02*
X90765000Y-83388748D01*
%TO.C,R12*%
X120185436Y-98535000D02*
X120639564Y-98535000D01*
X120185436Y-97065000D02*
X120639564Y-97065000D01*
%TO.C,R11*%
X120322936Y-100985000D02*
X120777064Y-100985000D01*
X120322936Y-99515000D02*
X120777064Y-99515000D01*
%TO.C,L3*%
X114787221Y-86240000D02*
X115112779Y-86240000D01*
X114787221Y-87260000D02*
X115112779Y-87260000D01*
%TO.C,C10*%
X105468748Y-69623000D02*
X105991252Y-69623000D01*
X105468748Y-71093000D02*
X105991252Y-71093000D01*
%TO.C,C26*%
X118438748Y-89340000D02*
X119861252Y-89340000D01*
X118438748Y-91160000D02*
X119861252Y-91160000D01*
%TO.C,L6*%
X125718779Y-71142000D02*
X125393221Y-71142000D01*
X125718779Y-70122000D02*
X125393221Y-70122000D01*
%TO.C,J2*%
X82426400Y-87048800D02*
X86026400Y-87048800D01*
X82426400Y-94408800D02*
X86026400Y-94408800D01*
X87906400Y-88928800D02*
X87906400Y-92528800D01*
X80546400Y-88928800D02*
X80546400Y-92528800D01*
%TO.C,C19*%
X101461252Y-103565000D02*
X100938748Y-103565000D01*
X101461252Y-105035000D02*
X100938748Y-105035000D01*
%TO.C,R15*%
X119572936Y-81515000D02*
X120027064Y-81515000D01*
X119572936Y-82985000D02*
X120027064Y-82985000D01*
%TO.C,J4*%
X113919000Y-60385000D02*
X124139000Y-60385000D01*
X124139000Y-60385000D02*
X124139000Y-57725000D01*
X113919000Y-60385000D02*
X113919000Y-57725000D01*
X112649000Y-60385000D02*
X111319000Y-60385000D01*
X113919000Y-57725000D02*
X124139000Y-57725000D01*
X111319000Y-60385000D02*
X111319000Y-59055000D01*
%TO.C,U4*%
X112250000Y-93460000D02*
X110300000Y-93460000D01*
X112250000Y-93460000D02*
X114200000Y-93460000D01*
X112250000Y-88340000D02*
X114200000Y-88340000D01*
X112250000Y-88340000D02*
X108800000Y-88340000D01*
%TO.C,C31*%
X134847000Y-84371548D02*
X134847000Y-84894052D01*
X133377000Y-84371548D02*
X133377000Y-84894052D01*
%TO.C,C20*%
X114838748Y-83365000D02*
X115361252Y-83365000D01*
X114838748Y-84835000D02*
X115361252Y-84835000D01*
%TO.C,C36*%
X125944252Y-67865000D02*
X125421748Y-67865000D01*
X125944252Y-69335000D02*
X125421748Y-69335000D01*
%TO.C,R7*%
X103608936Y-93447000D02*
X104063064Y-93447000D01*
X103608936Y-94917000D02*
X104063064Y-94917000D01*
%TO.C,R1*%
X95277000Y-84354936D02*
X95277000Y-84809064D01*
X96747000Y-84354936D02*
X96747000Y-84809064D01*
%TO.C,R5*%
X95530936Y-100557000D02*
X95985064Y-100557000D01*
X95530936Y-99087000D02*
X95985064Y-99087000D01*
%TO.C,J5*%
X95020000Y-112600000D02*
X95020000Y-116200000D01*
X102380000Y-112600000D02*
X102380000Y-116200000D01*
X96900000Y-118080000D02*
X100500000Y-118080000D01*
X96900000Y-110720000D02*
X100500000Y-110720000D01*
%TO.C,C24*%
X114477748Y-79481000D02*
X115900252Y-79481000D01*
X114477748Y-81301000D02*
X115900252Y-81301000D01*
%TO.C,R17*%
X110022936Y-98635000D02*
X110477064Y-98635000D01*
X110022936Y-97165000D02*
X110477064Y-97165000D01*
%TO.C,L5*%
X132285200Y-84673221D02*
X132285200Y-84998779D01*
X131265200Y-84673221D02*
X131265200Y-84998779D01*
%TO.C,C12*%
X90588748Y-88185000D02*
X91111252Y-88185000D01*
X90588748Y-86715000D02*
X91111252Y-86715000D01*
%TO.C,C18*%
X110497252Y-83593000D02*
X109974748Y-83593000D01*
X110497252Y-85063000D02*
X109974748Y-85063000D01*
%TO.C,C11*%
X104147252Y-89167000D02*
X103624748Y-89167000D01*
X104147252Y-87697000D02*
X103624748Y-87697000D01*
%TO.C,R4*%
X90672936Y-91185000D02*
X91127064Y-91185000D01*
X90672936Y-89715000D02*
X91127064Y-89715000D01*
%TO.C,R2*%
X87250600Y-97610664D02*
X87250600Y-97156536D01*
X88720600Y-97610664D02*
X88720600Y-97156536D01*
%TO.C,C35*%
X130310000Y-105538748D02*
X130310000Y-106961252D01*
X128490000Y-105538748D02*
X128490000Y-106961252D01*
%TO.C,C29*%
X127100000Y-84828748D02*
X127100000Y-85351252D01*
X125630000Y-84828748D02*
X125630000Y-85351252D01*
%TO.C,L2*%
X95666779Y-95252000D02*
X95341221Y-95252000D01*
X95666779Y-94232000D02*
X95341221Y-94232000D01*
%TO.C,R18*%
X110022936Y-101585000D02*
X110477064Y-101585000D01*
X110022936Y-100115000D02*
X110477064Y-100115000D01*
%TO.C,C15*%
X91161252Y-92165000D02*
X90638748Y-92165000D01*
X91161252Y-93635000D02*
X90638748Y-93635000D01*
%TO.C,R6*%
X103658936Y-91667000D02*
X104113064Y-91667000D01*
X103658936Y-90197000D02*
X104113064Y-90197000D01*
%TO.C,J3*%
X82375600Y-101526800D02*
X85975600Y-101526800D01*
X82375600Y-108886800D02*
X85975600Y-108886800D01*
X80495600Y-103406800D02*
X80495600Y-107006800D01*
X87855600Y-103406800D02*
X87855600Y-107006800D01*
%TO.C,R10*%
X109972936Y-85865000D02*
X110427064Y-85865000D01*
X109972936Y-87335000D02*
X110427064Y-87335000D01*
%TO.C,R16*%
X119622936Y-86135000D02*
X120077064Y-86135000D01*
X119622936Y-84665000D02*
X120077064Y-84665000D01*
D10*
%TO.C,U7*%
X120198000Y-72434000D02*
X120498000Y-72434000D01*
X123548000Y-69084000D02*
X123323000Y-69084000D01*
X123548000Y-69084000D02*
X123548000Y-72434000D01*
X123548000Y-72434000D02*
X123248000Y-72434000D01*
X123323000Y-69084000D02*
X123323000Y-67859000D01*
X120198000Y-69084000D02*
X120198000Y-72434000D01*
X120198000Y-69084000D02*
X120498000Y-69084000D01*
D11*
%TO.C,C13*%
X105468748Y-68934000D02*
X105991252Y-68934000D01*
X105468748Y-67464000D02*
X105991252Y-67464000D01*
%TO.C,C34*%
X128551000Y-110482748D02*
X128551000Y-111005252D01*
X130021000Y-110482748D02*
X130021000Y-111005252D01*
%TO.C,R8*%
X99785064Y-100607000D02*
X99330936Y-100607000D01*
X99785064Y-99137000D02*
X99330936Y-99137000D01*
%TO.C,C16*%
X96019252Y-98271000D02*
X95496748Y-98271000D01*
X96019252Y-96801000D02*
X95496748Y-96801000D01*
%TO.C,U3*%
X97282000Y-93460000D02*
X100732000Y-93460000D01*
X97282000Y-88340000D02*
X95332000Y-88340000D01*
X97282000Y-88340000D02*
X99232000Y-88340000D01*
X97282000Y-93460000D02*
X95332000Y-93460000D01*
%TO.C,T1*%
X117247500Y-111750000D02*
G75*
G03*
X117247500Y-111750000I-3800000J0D01*
G01*
X119850624Y-111750000D02*
G75*
G03*
X119850624Y-111750000I-6403124J0D01*
G01*
%TO.C,C30*%
X131418000Y-96400252D02*
X131418000Y-95877748D01*
X129948000Y-96400252D02*
X129948000Y-95877748D01*
%TO.C,TP1*%
X121684000Y-76728000D02*
G75*
G03*
X121684000Y-76728000I-700000J0D01*
G01*
%TO.C,C5*%
X88723800Y-77731252D02*
X88723800Y-77208748D01*
X90193800Y-77731252D02*
X90193800Y-77208748D01*
%TO.C,C3*%
X94277548Y-66981400D02*
X94800052Y-66981400D01*
X94277548Y-68451400D02*
X94800052Y-68451400D01*
%TO.C,R19*%
X126515800Y-107211864D02*
X126515800Y-106757736D01*
X125045800Y-107211864D02*
X125045800Y-106757736D01*
%TO.C,C1*%
X102442000Y-67818000D02*
G75*
G03*
X102442000Y-67818000I-2620000J0D01*
G01*
%TO.C,C8*%
X93776748Y-79354000D02*
X95199252Y-79354000D01*
X93776748Y-81174000D02*
X95199252Y-81174000D01*
%TO.C,C14*%
X101261252Y-82115000D02*
X100738748Y-82115000D01*
X101261252Y-83585000D02*
X100738748Y-83585000D01*
%TO.C,R13*%
X106027064Y-75665000D02*
X105572936Y-75665000D01*
X106027064Y-77135000D02*
X105572936Y-77135000D01*
%TD*%
M02*
