M48
; DRILL file {KiCad (6.0.0)} date Thu Jun 16 16:12:26 2022
; FORMAT={-:-/ absolute / inch / decimal}
; #@! TF.CreationDate,2022-06-16T16:12:26+02:00
; #@! TF.GenerationSoftware,Kicad,Pcbnew,(6.0.0)
; #@! TF.FileFunction,Plated,1,4,PTH
FMAT,2
INCH
; #@! TA.AperFunction,Plated,PTH,ViaDrill
T1C0.0157
; #@! TA.AperFunction,Plated,PTH,ComponentDrill
T2C0.0197
; #@! TA.AperFunction,Plated,PTH,ComponentDrill
T3C0.0315
; #@! TA.AperFunction,Plated,PTH,ComponentDrill
T4C0.0394
; #@! TA.AperFunction,Plated,PTH,ComponentDrill
T5C0.0472
; #@! TA.AperFunction,Plated,PTH,ComponentDrill
T6C0.0551
; #@! TA.AperFunction,Plated,PTH,ComponentDrill
T7C0.0591
; #@! TA.AperFunction,Plated,PTH,ComponentDrill
T8C0.0669
; #@! TA.AperFunction,Plated,PTH,ComponentDrill
T9C0.1260
%
G90
G05
T1
X1.05Y-2.95
X1.05Y-3.1
X1.05Y-3.25
X1.05Y-3.4
X1.05Y-3.55
X1.05Y-3.7
X1.05Y-4.35
X1.15Y-3.55
X1.25Y-3.55
X1.25Y-4.35
X1.35Y-3.55
X1.4Y-4.65
X1.45Y-3.55
X1.5Y-4.65
X1.55Y-3.55
X1.6Y-4.65
X1.65Y-3.55
X1.695Y-2.595
X1.7Y-4.65
X1.75Y-3.55
X1.8Y-4.65
X1.85Y-3.55
X1.9Y-4.65
X1.95Y-3.55
X2.0Y-4.65
X2.1Y-4.65
X2.2Y-3.55
X2.2Y-4.65
X2.25Y-3.3
X2.27Y-2.89
X2.295Y-3.17
X2.3Y-3.55
X2.3Y-4.65
X2.35Y-3.3
X2.39Y-3.095
X2.39Y-3.17
X2.4Y-3.55
X2.4Y-4.65
X2.45Y-3.3
X2.475Y-4.06
X2.5Y-4.65
X2.539Y-3.094
X2.54Y-3.8856
X2.55Y-3.3
X2.6Y-3.65
X2.6Y-4.65
X2.655Y-3.285
X2.67Y-3.8
X2.67Y-3.885
X2.675Y-4.02
X2.68Y-2.995
X2.7Y-4.65
X2.75Y-2.815
X2.75Y-3.55
X2.765Y-3.055
X2.8Y-4.34
X2.8Y-4.65
X2.805Y-3.24
X2.825Y-3.35
X2.825Y-3.885
X2.9Y-3.55
X2.9Y-4.65
X2.925Y-3.35
X2.9744Y-2.811
X3.0Y-4.65
X3.04Y-3.19
X3.1Y-4.65
X3.11Y-3.37
X3.1499Y-3.61
X3.16Y-3.71
X3.195Y-2.77
X3.2Y-4.65
X3.2121Y-3.6102
X3.215Y-3.885
X3.23Y-3.21
X3.23Y-3.71
X3.24Y-4.0383
X3.25Y-3.5
X3.26Y-3.37
X3.29Y-2.77
X3.3Y-2.6
X3.3Y-4.65
X3.3224Y-4.4015
X3.325Y-3.69
X3.325Y-3.75
X3.3886Y-4.1874
X3.4Y-3.38
X3.4Y-3.45
X3.4Y-4.65
X3.445Y-3.93
X3.5Y-2.6
X3.5Y-3.38
X3.5Y-3.45
X3.5Y-4.65
X3.505Y-2.99
X3.5159Y-3.93
X3.525Y-3.12
X3.525Y-3.575
X3.55Y-2.76
X3.55Y-2.9
X3.575Y-4.4331
X3.58Y-3.35
X3.5914Y-4.0374
X3.595Y-4.14
X3.6Y-4.65
X3.65Y-2.95
X3.65Y-3.1
X3.65Y-3.2
X3.65Y-3.3
X3.65Y-3.45
X3.66Y-4.3
X3.7Y-4.65
X3.72Y-2.89
X3.7359Y-3.805
X3.8Y-3.45
X3.8Y-4.65
X3.9Y-4.65
X3.91Y-4.08
X3.9231Y-3.67
X3.95Y-3.45
X3.965Y-4.14
X3.9926Y-3.935
X4.0Y-3.785
X4.0Y-4.65
X4.1Y-3.45
X4.1Y-4.65
X4.2Y-4.55
X4.25Y-3.45
X4.3Y-2.6
X4.3Y-4.45
X4.4Y-3.45
X4.4Y-4.35
X4.5Y-2.6
X4.55Y-3.45
X4.7Y-3.0
X4.7Y-3.2
X4.7Y-3.45
T2
X1.0205Y-2.6575
X1.0205Y-4.61
X1.0482Y-2.5907
X1.0482Y-2.7243
X1.0482Y-4.5432
X1.0482Y-4.6768
X1.115Y-2.563
X1.115Y-2.752
X1.115Y-4.5155
X1.115Y-4.7045
X1.1818Y-2.5907
X1.1818Y-2.7243
X1.1818Y-4.5432
X1.1818Y-4.6768
X1.2095Y-2.6575
X1.2095Y-4.61
X4.5755Y-2.6575
X4.5755Y-4.605
X4.6032Y-2.5907
X4.6032Y-2.7243
X4.6032Y-4.5382
X4.6032Y-4.6718
X4.67Y-2.563
X4.67Y-2.752
X4.67Y-4.5105
X4.67Y-4.6995
X4.7368Y-2.5907
X4.7368Y-2.7243
X4.7368Y-4.5382
X4.7368Y-4.6718
X4.7645Y-2.6575
X4.7645Y-4.605
T3
X1.445Y-3.0116
X1.445Y-3.2084
X1.91Y-3.1966
X1.91Y-3.3934
X2.385Y-2.6316
X2.385Y-2.73
T4
X2.6781Y-2.5925
X2.7781Y-2.5925
X2.8781Y-2.5925
X2.9781Y-2.5925
X3.0781Y-2.5925
T5
X1.5281Y-3.76
X1.5281Y-4.39
X1.9219Y-3.76
X1.9219Y-4.39
T6
X1.8916Y-2.6292
X2.0884Y-2.6292
T7
X1.19Y-4.035
X4.06Y-2.68
X4.59Y-3.65
X4.595Y-4.09
T8
X1.09Y-3.935
X1.09Y-4.135
X1.29Y-3.935
X1.29Y-4.135
X3.96Y-2.58
X3.96Y-2.78
X4.16Y-2.58
X4.16Y-2.78
X4.49Y-3.55
X4.49Y-3.75
X4.495Y-3.99
X4.495Y-4.19
X4.69Y-3.55
X4.69Y-3.75
X4.695Y-3.99
X4.695Y-4.19
T9
X1.115Y-2.6575
X1.115Y-4.61
X4.67Y-2.6575
X4.67Y-4.605
T0
M30
