%TF.GenerationSoftware,KiCad,Pcbnew,(6.0.0)*%
%TF.CreationDate,2022-06-16T16:12:24+02:00*%
%TF.ProjectId,sdrt41,73647274-3431-42e6-9b69-6361645f7063,rev?*%
%TF.SameCoordinates,Original*%
%TF.FileFunction,Paste,Top*%
%TF.FilePolarity,Positive*%
%FSLAX46Y46*%
G04 Gerber Fmt 4.6, Leading zero omitted, Abs format (unit mm)*
G04 Created by KiCad (PCBNEW (6.0.0)) date 2022-06-16 16:12:24*
%MOMM*%
%LPD*%
G01*
G04 APERTURE LIST*
G04 Aperture macros list*
%AMRoundRect*
0 Rectangle with rounded corners*
0 $1 Rounding radius*
0 $2 $3 $4 $5 $6 $7 $8 $9 X,Y pos of 4 corners*
0 Add a 4 corners polygon primitive as box body*
4,1,4,$2,$3,$4,$5,$6,$7,$8,$9,$2,$3,0*
0 Add four circle primitives for the rounded corners*
1,1,$1+$1,$2,$3*
1,1,$1+$1,$4,$5*
1,1,$1+$1,$6,$7*
1,1,$1+$1,$8,$9*
0 Add four rect primitives between the rounded corners*
20,1,$1+$1,$2,$3,$4,$5,0*
20,1,$1+$1,$4,$5,$6,$7,0*
20,1,$1+$1,$6,$7,$8,$9,0*
20,1,$1+$1,$8,$9,$2,$3,0*%
G04 Aperture macros list end*
%ADD10RoundRect,0.250000X0.475000X-0.250000X0.475000X0.250000X-0.475000X0.250000X-0.475000X-0.250000X0*%
%ADD11RoundRect,0.250000X-0.262500X-0.450000X0.262500X-0.450000X0.262500X0.450000X-0.262500X0.450000X0*%
%ADD12RoundRect,0.250000X0.325000X0.650000X-0.325000X0.650000X-0.325000X-0.650000X0.325000X-0.650000X0*%
%ADD13RoundRect,0.250000X-0.650000X0.325000X-0.650000X-0.325000X0.650000X-0.325000X0.650000X0.325000X0*%
%ADD14RoundRect,0.150000X0.150000X-0.587500X0.150000X0.587500X-0.150000X0.587500X-0.150000X-0.587500X0*%
%ADD15RoundRect,0.250000X0.262500X0.450000X-0.262500X0.450000X-0.262500X-0.450000X0.262500X-0.450000X0*%
%ADD16RoundRect,0.250000X-0.250000X-0.475000X0.250000X-0.475000X0.250000X0.475000X-0.250000X0.475000X0*%
%ADD17RoundRect,0.250000X0.250000X0.475000X-0.250000X0.475000X-0.250000X-0.475000X0.250000X-0.475000X0*%
%ADD18R,0.300000X1.400000*%
%ADD19RoundRect,0.218750X-0.218750X-0.256250X0.218750X-0.256250X0.218750X0.256250X-0.218750X0.256250X0*%
%ADD20RoundRect,0.250000X-0.475000X0.250000X-0.475000X-0.250000X0.475000X-0.250000X0.475000X0.250000X0*%
%ADD21RoundRect,0.250000X-0.450000X0.262500X-0.450000X-0.262500X0.450000X-0.262500X0.450000X0.262500X0*%
%ADD22RoundRect,0.218750X-0.256250X0.218750X-0.256250X-0.218750X0.256250X-0.218750X0.256250X0.218750X0*%
%ADD23RoundRect,0.218750X0.218750X0.256250X-0.218750X0.256250X-0.218750X-0.256250X0.218750X-0.256250X0*%
%ADD24RoundRect,0.250000X0.450000X-0.262500X0.450000X0.262500X-0.450000X0.262500X-0.450000X-0.262500X0*%
%ADD25RoundRect,0.100000X-0.637500X-0.100000X0.637500X-0.100000X0.637500X0.100000X-0.637500X0.100000X0*%
%ADD26RoundRect,0.150000X-0.825000X-0.150000X0.825000X-0.150000X0.825000X0.150000X-0.825000X0.150000X0*%
%ADD27R,1.400000X1.200000*%
%ADD28RoundRect,0.250000X-0.325000X-0.650000X0.325000X-0.650000X0.325000X0.650000X-0.325000X0.650000X0*%
%ADD29RoundRect,0.150000X-0.725000X-0.150000X0.725000X-0.150000X0.725000X0.150000X-0.725000X0.150000X0*%
%ADD30RoundRect,0.150000X0.725000X0.150000X-0.725000X0.150000X-0.725000X-0.150000X0.725000X-0.150000X0*%
%ADD31RoundRect,0.150000X-0.587500X-0.150000X0.587500X-0.150000X0.587500X0.150000X-0.587500X0.150000X0*%
G04 APERTURE END LIST*
D10*
%TO.C,C7*%
X53213000Y-111567000D03*
X53213000Y-109667000D03*
%TD*%
D11*
%TO.C,R19*%
X76430500Y-94234000D03*
X78255500Y-94234000D03*
%TD*%
D12*
%TO.C,C11*%
X99646000Y-93218000D03*
X96696000Y-93218000D03*
%TD*%
D13*
%TO.C,C3*%
X59182000Y-96696000D03*
X59182000Y-99646000D03*
%TD*%
D14*
%TO.C,Q3*%
X89220000Y-72057500D03*
X91120000Y-72057500D03*
X90170000Y-70182500D03*
%TD*%
D11*
%TO.C,R3*%
X57888500Y-101981000D03*
X59713500Y-101981000D03*
%TD*%
D15*
%TO.C,R18*%
X79398500Y-114935000D03*
X77573500Y-114935000D03*
%TD*%
D16*
%TO.C,C10*%
X67884000Y-98679000D03*
X69784000Y-98679000D03*
%TD*%
%TO.C,C20*%
X101793000Y-93726000D03*
X103693000Y-93726000D03*
%TD*%
%TO.C,C31*%
X97475000Y-96520000D03*
X99375000Y-96520000D03*
%TD*%
D17*
%TO.C,C2*%
X89469000Y-79248000D03*
X87569000Y-79248000D03*
%TD*%
D18*
%TO.C,U7*%
X74914000Y-76032000D03*
X74414000Y-76032000D03*
X73914000Y-76032000D03*
X73414000Y-76032000D03*
X72914000Y-76032000D03*
X72914000Y-80432000D03*
X73414000Y-80432000D03*
X73914000Y-80432000D03*
X74414000Y-80432000D03*
X74914000Y-80432000D03*
%TD*%
D14*
%TO.C,Q1*%
X53152000Y-107363500D03*
X55052000Y-107363500D03*
X54102000Y-105488500D03*
%TD*%
D16*
%TO.C,C18*%
X67376000Y-83439000D03*
X69276000Y-83439000D03*
%TD*%
D19*
%TO.C,L6*%
X101574500Y-96139000D03*
X103149500Y-96139000D03*
%TD*%
D20*
%TO.C,C15*%
X73533000Y-101285000D03*
X73533000Y-103185000D03*
%TD*%
D17*
%TO.C,C21*%
X81595000Y-98740000D03*
X79695000Y-98740000D03*
%TD*%
D13*
%TO.C,C28*%
X89535000Y-92300000D03*
X89535000Y-95250000D03*
%TD*%
D17*
%TO.C,C8*%
X59624000Y-73279000D03*
X57724000Y-73279000D03*
%TD*%
D15*
%TO.C,R22*%
X94789000Y-109220000D03*
X92964000Y-109220000D03*
%TD*%
%TO.C,R24*%
X99337500Y-99949000D03*
X97512500Y-99949000D03*
%TD*%
D21*
%TO.C,R7*%
X81153000Y-70334500D03*
X81153000Y-72159500D03*
%TD*%
D16*
%TO.C,C25*%
X82489000Y-114935000D03*
X84389000Y-114935000D03*
%TD*%
D15*
%TO.C,R13*%
X86129500Y-108712000D03*
X84304500Y-108712000D03*
%TD*%
D22*
%TO.C,L4*%
X84455000Y-93700500D03*
X84455000Y-95275500D03*
%TD*%
D23*
%TO.C,L7*%
X81587500Y-91700000D03*
X80012500Y-91700000D03*
%TD*%
D20*
%TO.C,C13*%
X78740000Y-106487000D03*
X78740000Y-104587000D03*
%TD*%
D24*
%TO.C,R10*%
X82296000Y-102573500D03*
X82296000Y-100748500D03*
%TD*%
D11*
%TO.C,R27*%
X101322500Y-109220000D03*
X103147500Y-109220000D03*
%TD*%
D24*
%TO.C,R12*%
X86106000Y-72286500D03*
X86106000Y-70461500D03*
%TD*%
D21*
%TO.C,R16*%
X94488000Y-69953500D03*
X94488000Y-71778500D03*
%TD*%
D16*
%TO.C,C34*%
X108905000Y-92837000D03*
X110805000Y-92837000D03*
%TD*%
D11*
%TO.C,R25*%
X93067500Y-96647000D03*
X94892500Y-96647000D03*
%TD*%
%TO.C,R28*%
X93067500Y-93599000D03*
X94892500Y-93599000D03*
%TD*%
%TO.C,R23*%
X97385500Y-112776000D03*
X99210500Y-112776000D03*
%TD*%
D16*
%TO.C,C17*%
X79822000Y-108773000D03*
X81722000Y-108773000D03*
%TD*%
D22*
%TO.C,L2*%
X53975000Y-98145500D03*
X53975000Y-99720500D03*
%TD*%
D10*
%TO.C,C22*%
X75285600Y-113522800D03*
X75285600Y-111622800D03*
%TD*%
D25*
%TO.C,U5*%
X64955500Y-101103000D03*
X64955500Y-101753000D03*
X64955500Y-102403000D03*
X64955500Y-103053000D03*
X64955500Y-103703000D03*
X64955500Y-104353000D03*
X64955500Y-105003000D03*
X64955500Y-105653000D03*
X70680500Y-105653000D03*
X70680500Y-105003000D03*
X70680500Y-104353000D03*
X70680500Y-103703000D03*
X70680500Y-103053000D03*
X70680500Y-102403000D03*
X70680500Y-101753000D03*
X70680500Y-101103000D03*
%TD*%
D26*
%TO.C,U3*%
X79567000Y-75819000D03*
X79567000Y-77089000D03*
X79567000Y-78359000D03*
X79567000Y-79629000D03*
X79567000Y-80899000D03*
X79567000Y-82169000D03*
X79567000Y-83439000D03*
X84517000Y-83439000D03*
X84517000Y-82169000D03*
X84517000Y-80899000D03*
X84517000Y-79629000D03*
X84517000Y-78359000D03*
X84517000Y-77089000D03*
X84517000Y-75819000D03*
%TD*%
D11*
%TO.C,R2*%
X53189500Y-102108000D03*
X55014500Y-102108000D03*
%TD*%
D15*
%TO.C,R11*%
X79271500Y-111760000D03*
X77446500Y-111760000D03*
%TD*%
%TO.C,R26*%
X99337500Y-109220000D03*
X97512500Y-109220000D03*
%TD*%
D24*
%TO.C,R4*%
X58166000Y-111529500D03*
X58166000Y-109704500D03*
%TD*%
D27*
%TO.C,Y1*%
X70188000Y-75985000D03*
X67988000Y-75985000D03*
X67988000Y-77685000D03*
X70188000Y-77685000D03*
%TD*%
D20*
%TO.C,C14*%
X78740000Y-100711000D03*
X78740000Y-102611000D03*
%TD*%
D16*
%TO.C,C33*%
X109286000Y-103886000D03*
X111186000Y-103886000D03*
%TD*%
D28*
%TO.C,C27*%
X92505000Y-112649000D03*
X95455000Y-112649000D03*
%TD*%
D17*
%TO.C,C23*%
X75118000Y-83312000D03*
X73218000Y-83312000D03*
%TD*%
%TO.C,C16*%
X71389200Y-111861600D03*
X73289200Y-111861600D03*
%TD*%
D29*
%TO.C,U8*%
X97374000Y-102616000D03*
X97374000Y-103886000D03*
X97374000Y-105156000D03*
X97374000Y-106426000D03*
X102524000Y-106426000D03*
X102524000Y-105156000D03*
X102524000Y-103886000D03*
X102524000Y-102616000D03*
%TD*%
D15*
%TO.C,R9*%
X73556500Y-96139000D03*
X71731500Y-96139000D03*
%TD*%
D20*
%TO.C,C12*%
X86868000Y-93284000D03*
X86868000Y-95184000D03*
%TD*%
D24*
%TO.C,R8*%
X82296000Y-106383500D03*
X82296000Y-104558500D03*
%TD*%
D15*
%TO.C,R21*%
X94892500Y-99949000D03*
X93067500Y-99949000D03*
%TD*%
D19*
%TO.C,L3*%
X67792500Y-96520000D03*
X69367500Y-96520000D03*
%TD*%
D11*
%TO.C,R20*%
X80240500Y-94234000D03*
X82065500Y-94234000D03*
%TD*%
D10*
%TO.C,C9*%
X60706000Y-80513000D03*
X60706000Y-78613000D03*
%TD*%
D11*
%TO.C,R14*%
X87479500Y-99822000D03*
X89304500Y-99822000D03*
%TD*%
D17*
%TO.C,C30*%
X103185000Y-112776000D03*
X101285000Y-112776000D03*
%TD*%
%TO.C,C24*%
X97216000Y-66802000D03*
X95316000Y-66802000D03*
%TD*%
D30*
%TO.C,U6*%
X91221000Y-106360000D03*
X91221000Y-105090000D03*
X91221000Y-103820000D03*
X91221000Y-102550000D03*
X86071000Y-102550000D03*
X86071000Y-103820000D03*
X86071000Y-105090000D03*
X86071000Y-106360000D03*
%TD*%
D20*
%TO.C,C6*%
X56515000Y-97856000D03*
X56515000Y-99756000D03*
%TD*%
D21*
%TO.C,R1*%
X55626000Y-109704500D03*
X55626000Y-111529500D03*
%TD*%
D15*
%TO.C,R17*%
X84351500Y-111760000D03*
X82526500Y-111760000D03*
%TD*%
D21*
%TO.C,R6*%
X83566000Y-70334500D03*
X83566000Y-72159500D03*
%TD*%
D16*
%TO.C,C19*%
X71694000Y-98679000D03*
X73594000Y-98679000D03*
%TD*%
%TO.C,C26*%
X76393000Y-91694000D03*
X78293000Y-91694000D03*
%TD*%
D15*
%TO.C,R15*%
X92860500Y-66802000D03*
X91035500Y-66802000D03*
%TD*%
D24*
%TO.C,R5*%
X60706000Y-111529500D03*
X60706000Y-109704500D03*
%TD*%
D31*
%TO.C,Q2*%
X58244500Y-105476000D03*
X58244500Y-107376000D03*
X60119500Y-106426000D03*
%TD*%
D10*
%TO.C,C32*%
X94869000Y-106934000D03*
X94869000Y-105034000D03*
%TD*%
D23*
%TO.C,L1*%
X89027000Y-75946000D03*
X87452000Y-75946000D03*
%TD*%
D19*
%TO.C,L5*%
X67564000Y-80264000D03*
X69139000Y-80264000D03*
%TD*%
D17*
%TO.C,C29*%
X103312000Y-99949000D03*
X101412000Y-99949000D03*
%TD*%
M02*
