%TF.GenerationSoftware,KiCad,Pcbnew,(6.0.0)*%
%TF.CreationDate,2022-06-16T16:12:24+02:00*%
%TF.ProjectId,sdrt41,73647274-3431-42e6-9b69-6361645f7063,rev?*%
%TF.SameCoordinates,Original*%
%TF.FileFunction,Legend,Top*%
%TF.FilePolarity,Positive*%
%FSLAX46Y46*%
G04 Gerber Fmt 4.6, Leading zero omitted, Abs format (unit mm)*
G04 Created by KiCad (PCBNEW (6.0.0)) date 2022-06-16 16:12:24*
%MOMM*%
%LPD*%
G01*
G04 APERTURE LIST*
%ADD10C,0.150000*%
%ADD11C,0.120000*%
G04 APERTURE END LIST*
D10*
%TO.C,C7*%
X53570142Y-113577666D02*
X53617761Y-113625285D01*
X53665380Y-113768142D01*
X53665380Y-113863380D01*
X53617761Y-114006238D01*
X53522523Y-114101476D01*
X53427285Y-114149095D01*
X53236809Y-114196714D01*
X53093952Y-114196714D01*
X52903476Y-114149095D01*
X52808238Y-114101476D01*
X52713000Y-114006238D01*
X52665380Y-113863380D01*
X52665380Y-113768142D01*
X52713000Y-113625285D01*
X52760619Y-113577666D01*
X52665380Y-113244333D02*
X52665380Y-112577666D01*
X53665380Y-113006238D01*
%TO.C,R19*%
X76700142Y-96464380D02*
X76366809Y-95988190D01*
X76128714Y-96464380D02*
X76128714Y-95464380D01*
X76509666Y-95464380D01*
X76604904Y-95512000D01*
X76652523Y-95559619D01*
X76700142Y-95654857D01*
X76700142Y-95797714D01*
X76652523Y-95892952D01*
X76604904Y-95940571D01*
X76509666Y-95988190D01*
X76128714Y-95988190D01*
X77652523Y-96464380D02*
X77081095Y-96464380D01*
X77366809Y-96464380D02*
X77366809Y-95464380D01*
X77271571Y-95607238D01*
X77176333Y-95702476D01*
X77081095Y-95750095D01*
X78128714Y-96464380D02*
X78319190Y-96464380D01*
X78414428Y-96416761D01*
X78462047Y-96369142D01*
X78557285Y-96226285D01*
X78604904Y-96035809D01*
X78604904Y-95654857D01*
X78557285Y-95559619D01*
X78509666Y-95512000D01*
X78414428Y-95464380D01*
X78223952Y-95464380D01*
X78128714Y-95512000D01*
X78081095Y-95559619D01*
X78033476Y-95654857D01*
X78033476Y-95892952D01*
X78081095Y-95988190D01*
X78128714Y-96035809D01*
X78223952Y-96083428D01*
X78414428Y-96083428D01*
X78509666Y-96035809D01*
X78557285Y-95988190D01*
X78604904Y-95892952D01*
%TO.C,C11*%
X97655142Y-91797142D02*
X97607523Y-91844761D01*
X97464666Y-91892380D01*
X97369428Y-91892380D01*
X97226571Y-91844761D01*
X97131333Y-91749523D01*
X97083714Y-91654285D01*
X97036095Y-91463809D01*
X97036095Y-91320952D01*
X97083714Y-91130476D01*
X97131333Y-91035238D01*
X97226571Y-90940000D01*
X97369428Y-90892380D01*
X97464666Y-90892380D01*
X97607523Y-90940000D01*
X97655142Y-90987619D01*
X98607523Y-91892380D02*
X98036095Y-91892380D01*
X98321809Y-91892380D02*
X98321809Y-90892380D01*
X98226571Y-91035238D01*
X98131333Y-91130476D01*
X98036095Y-91178095D01*
X99559904Y-91892380D02*
X98988476Y-91892380D01*
X99274190Y-91892380D02*
X99274190Y-90892380D01*
X99178952Y-91035238D01*
X99083714Y-91130476D01*
X98988476Y-91178095D01*
%TO.C,C3*%
X59539142Y-94908666D02*
X59586761Y-94956285D01*
X59634380Y-95099142D01*
X59634380Y-95194380D01*
X59586761Y-95337238D01*
X59491523Y-95432476D01*
X59396285Y-95480095D01*
X59205809Y-95527714D01*
X59062952Y-95527714D01*
X58872476Y-95480095D01*
X58777238Y-95432476D01*
X58682000Y-95337238D01*
X58634380Y-95194380D01*
X58634380Y-95099142D01*
X58682000Y-94956285D01*
X58729619Y-94908666D01*
X58634380Y-94575333D02*
X58634380Y-93956285D01*
X59015333Y-94289619D01*
X59015333Y-94146761D01*
X59062952Y-94051523D01*
X59110571Y-94003904D01*
X59205809Y-93956285D01*
X59443904Y-93956285D01*
X59539142Y-94003904D01*
X59586761Y-94051523D01*
X59634380Y-94146761D01*
X59634380Y-94432476D01*
X59586761Y-94527714D01*
X59539142Y-94575333D01*
%TO.C,Q3*%
X88317619Y-71215238D02*
X88270000Y-71310476D01*
X88174761Y-71405714D01*
X88031904Y-71548571D01*
X87984285Y-71643809D01*
X87984285Y-71739047D01*
X88222380Y-71691428D02*
X88174761Y-71786666D01*
X88079523Y-71881904D01*
X87889047Y-71929523D01*
X87555714Y-71929523D01*
X87365238Y-71881904D01*
X87270000Y-71786666D01*
X87222380Y-71691428D01*
X87222380Y-71500952D01*
X87270000Y-71405714D01*
X87365238Y-71310476D01*
X87555714Y-71262857D01*
X87889047Y-71262857D01*
X88079523Y-71310476D01*
X88174761Y-71405714D01*
X88222380Y-71500952D01*
X88222380Y-71691428D01*
X87222380Y-70929523D02*
X87222380Y-70310476D01*
X87603333Y-70643809D01*
X87603333Y-70500952D01*
X87650952Y-70405714D01*
X87698571Y-70358095D01*
X87793809Y-70310476D01*
X88031904Y-70310476D01*
X88127142Y-70358095D01*
X88174761Y-70405714D01*
X88222380Y-70500952D01*
X88222380Y-70786666D01*
X88174761Y-70881904D01*
X88127142Y-70929523D01*
%TO.C,R3*%
X61301333Y-102433380D02*
X60968000Y-101957190D01*
X60729904Y-102433380D02*
X60729904Y-101433380D01*
X61110857Y-101433380D01*
X61206095Y-101481000D01*
X61253714Y-101528619D01*
X61301333Y-101623857D01*
X61301333Y-101766714D01*
X61253714Y-101861952D01*
X61206095Y-101909571D01*
X61110857Y-101957190D01*
X60729904Y-101957190D01*
X61634666Y-101433380D02*
X62253714Y-101433380D01*
X61920380Y-101814333D01*
X62063238Y-101814333D01*
X62158476Y-101861952D01*
X62206095Y-101909571D01*
X62253714Y-102004809D01*
X62253714Y-102242904D01*
X62206095Y-102338142D01*
X62158476Y-102385761D01*
X62063238Y-102433380D01*
X61777523Y-102433380D01*
X61682285Y-102385761D01*
X61634666Y-102338142D01*
%TO.C,R18*%
X77843142Y-117037380D02*
X77509809Y-116561190D01*
X77271714Y-117037380D02*
X77271714Y-116037380D01*
X77652666Y-116037380D01*
X77747904Y-116085000D01*
X77795523Y-116132619D01*
X77843142Y-116227857D01*
X77843142Y-116370714D01*
X77795523Y-116465952D01*
X77747904Y-116513571D01*
X77652666Y-116561190D01*
X77271714Y-116561190D01*
X78795523Y-117037380D02*
X78224095Y-117037380D01*
X78509809Y-117037380D02*
X78509809Y-116037380D01*
X78414571Y-116180238D01*
X78319333Y-116275476D01*
X78224095Y-116323095D01*
X79366952Y-116465952D02*
X79271714Y-116418333D01*
X79224095Y-116370714D01*
X79176476Y-116275476D01*
X79176476Y-116227857D01*
X79224095Y-116132619D01*
X79271714Y-116085000D01*
X79366952Y-116037380D01*
X79557428Y-116037380D01*
X79652666Y-116085000D01*
X79700285Y-116132619D01*
X79747904Y-116227857D01*
X79747904Y-116275476D01*
X79700285Y-116370714D01*
X79652666Y-116418333D01*
X79557428Y-116465952D01*
X79366952Y-116465952D01*
X79271714Y-116513571D01*
X79224095Y-116561190D01*
X79176476Y-116656428D01*
X79176476Y-116846904D01*
X79224095Y-116942142D01*
X79271714Y-116989761D01*
X79366952Y-117037380D01*
X79557428Y-117037380D01*
X79652666Y-116989761D01*
X79700285Y-116942142D01*
X79747904Y-116846904D01*
X79747904Y-116656428D01*
X79700285Y-116561190D01*
X79652666Y-116513571D01*
X79557428Y-116465952D01*
%TO.C,C10*%
X65397142Y-95607142D02*
X65349523Y-95654761D01*
X65206666Y-95702380D01*
X65111428Y-95702380D01*
X64968571Y-95654761D01*
X64873333Y-95559523D01*
X64825714Y-95464285D01*
X64778095Y-95273809D01*
X64778095Y-95130952D01*
X64825714Y-94940476D01*
X64873333Y-94845238D01*
X64968571Y-94750000D01*
X65111428Y-94702380D01*
X65206666Y-94702380D01*
X65349523Y-94750000D01*
X65397142Y-94797619D01*
X66349523Y-95702380D02*
X65778095Y-95702380D01*
X66063809Y-95702380D02*
X66063809Y-94702380D01*
X65968571Y-94845238D01*
X65873333Y-94940476D01*
X65778095Y-94988095D01*
X66968571Y-94702380D02*
X67063809Y-94702380D01*
X67159047Y-94750000D01*
X67206666Y-94797619D01*
X67254285Y-94892857D01*
X67301904Y-95083333D01*
X67301904Y-95321428D01*
X67254285Y-95511904D01*
X67206666Y-95607142D01*
X67159047Y-95654761D01*
X67063809Y-95702380D01*
X66968571Y-95702380D01*
X66873333Y-95654761D01*
X66825714Y-95607142D01*
X66778095Y-95511904D01*
X66730476Y-95321428D01*
X66730476Y-95083333D01*
X66778095Y-94892857D01*
X66825714Y-94797619D01*
X66873333Y-94750000D01*
X66968571Y-94702380D01*
%TO.C,C20*%
X102100142Y-92403142D02*
X102052523Y-92450761D01*
X101909666Y-92498380D01*
X101814428Y-92498380D01*
X101671571Y-92450761D01*
X101576333Y-92355523D01*
X101528714Y-92260285D01*
X101481095Y-92069809D01*
X101481095Y-91926952D01*
X101528714Y-91736476D01*
X101576333Y-91641238D01*
X101671571Y-91546000D01*
X101814428Y-91498380D01*
X101909666Y-91498380D01*
X102052523Y-91546000D01*
X102100142Y-91593619D01*
X102481095Y-91593619D02*
X102528714Y-91546000D01*
X102623952Y-91498380D01*
X102862047Y-91498380D01*
X102957285Y-91546000D01*
X103004904Y-91593619D01*
X103052523Y-91688857D01*
X103052523Y-91784095D01*
X103004904Y-91926952D01*
X102433476Y-92498380D01*
X103052523Y-92498380D01*
X103671571Y-91498380D02*
X103766809Y-91498380D01*
X103862047Y-91546000D01*
X103909666Y-91593619D01*
X103957285Y-91688857D01*
X104004904Y-91879333D01*
X104004904Y-92117428D01*
X103957285Y-92307904D01*
X103909666Y-92403142D01*
X103862047Y-92450761D01*
X103766809Y-92498380D01*
X103671571Y-92498380D01*
X103576333Y-92450761D01*
X103528714Y-92403142D01*
X103481095Y-92307904D01*
X103433476Y-92117428D01*
X103433476Y-91879333D01*
X103481095Y-91688857D01*
X103528714Y-91593619D01*
X103576333Y-91546000D01*
X103671571Y-91498380D01*
%TO.C,C31*%
X97782142Y-95197142D02*
X97734523Y-95244761D01*
X97591666Y-95292380D01*
X97496428Y-95292380D01*
X97353571Y-95244761D01*
X97258333Y-95149523D01*
X97210714Y-95054285D01*
X97163095Y-94863809D01*
X97163095Y-94720952D01*
X97210714Y-94530476D01*
X97258333Y-94435238D01*
X97353571Y-94340000D01*
X97496428Y-94292380D01*
X97591666Y-94292380D01*
X97734523Y-94340000D01*
X97782142Y-94387619D01*
X98115476Y-94292380D02*
X98734523Y-94292380D01*
X98401190Y-94673333D01*
X98544047Y-94673333D01*
X98639285Y-94720952D01*
X98686904Y-94768571D01*
X98734523Y-94863809D01*
X98734523Y-95101904D01*
X98686904Y-95197142D01*
X98639285Y-95244761D01*
X98544047Y-95292380D01*
X98258333Y-95292380D01*
X98163095Y-95244761D01*
X98115476Y-95197142D01*
X99686904Y-95292380D02*
X99115476Y-95292380D01*
X99401190Y-95292380D02*
X99401190Y-94292380D01*
X99305952Y-94435238D01*
X99210714Y-94530476D01*
X99115476Y-94578095D01*
%TO.C,C2*%
X88352333Y-81285142D02*
X88304714Y-81332761D01*
X88161857Y-81380380D01*
X88066619Y-81380380D01*
X87923761Y-81332761D01*
X87828523Y-81237523D01*
X87780904Y-81142285D01*
X87733285Y-80951809D01*
X87733285Y-80808952D01*
X87780904Y-80618476D01*
X87828523Y-80523238D01*
X87923761Y-80428000D01*
X88066619Y-80380380D01*
X88161857Y-80380380D01*
X88304714Y-80428000D01*
X88352333Y-80475619D01*
X88733285Y-80475619D02*
X88780904Y-80428000D01*
X88876142Y-80380380D01*
X89114238Y-80380380D01*
X89209476Y-80428000D01*
X89257095Y-80475619D01*
X89304714Y-80570857D01*
X89304714Y-80666095D01*
X89257095Y-80808952D01*
X88685666Y-81380380D01*
X89304714Y-81380380D01*
%TO.C,U7*%
X75966380Y-78993904D02*
X76775904Y-78993904D01*
X76871142Y-78946285D01*
X76918761Y-78898666D01*
X76966380Y-78803428D01*
X76966380Y-78612952D01*
X76918761Y-78517714D01*
X76871142Y-78470095D01*
X76775904Y-78422476D01*
X75966380Y-78422476D01*
X75966380Y-78041523D02*
X75966380Y-77374857D01*
X76966380Y-77803428D01*
%TO.C,Q1*%
X52109619Y-107410238D02*
X52062000Y-107505476D01*
X51966761Y-107600714D01*
X51823904Y-107743571D01*
X51776285Y-107838809D01*
X51776285Y-107934047D01*
X52014380Y-107886428D02*
X51966761Y-107981666D01*
X51871523Y-108076904D01*
X51681047Y-108124523D01*
X51347714Y-108124523D01*
X51157238Y-108076904D01*
X51062000Y-107981666D01*
X51014380Y-107886428D01*
X51014380Y-107695952D01*
X51062000Y-107600714D01*
X51157238Y-107505476D01*
X51347714Y-107457857D01*
X51681047Y-107457857D01*
X51871523Y-107505476D01*
X51966761Y-107600714D01*
X52014380Y-107695952D01*
X52014380Y-107886428D01*
X52014380Y-106505476D02*
X52014380Y-107076904D01*
X52014380Y-106791190D02*
X51014380Y-106791190D01*
X51157238Y-106886428D01*
X51252476Y-106981666D01*
X51300095Y-107076904D01*
%TO.C,J6*%
X116252666Y-87412380D02*
X116252666Y-88126666D01*
X116205047Y-88269523D01*
X116109809Y-88364761D01*
X115966952Y-88412380D01*
X115871714Y-88412380D01*
X117157428Y-87412380D02*
X116966952Y-87412380D01*
X116871714Y-87460000D01*
X116824095Y-87507619D01*
X116728857Y-87650476D01*
X116681238Y-87840952D01*
X116681238Y-88221904D01*
X116728857Y-88317142D01*
X116776476Y-88364761D01*
X116871714Y-88412380D01*
X117062190Y-88412380D01*
X117157428Y-88364761D01*
X117205047Y-88317142D01*
X117252666Y-88221904D01*
X117252666Y-87983809D01*
X117205047Y-87888571D01*
X117157428Y-87840952D01*
X117062190Y-87793333D01*
X116871714Y-87793333D01*
X116776476Y-87840952D01*
X116728857Y-87888571D01*
X116681238Y-87983809D01*
%TO.C,H1*%
X113538095Y-65412380D02*
X113538095Y-64412380D01*
X113538095Y-64888571D02*
X114109523Y-64888571D01*
X114109523Y-65412380D02*
X114109523Y-64412380D01*
X115109523Y-65412380D02*
X114538095Y-65412380D01*
X114823809Y-65412380D02*
X114823809Y-64412380D01*
X114728571Y-64555238D01*
X114633333Y-64650476D01*
X114538095Y-64698095D01*
%TO.C,C18*%
X64254142Y-83796142D02*
X64206523Y-83843761D01*
X64063666Y-83891380D01*
X63968428Y-83891380D01*
X63825571Y-83843761D01*
X63730333Y-83748523D01*
X63682714Y-83653285D01*
X63635095Y-83462809D01*
X63635095Y-83319952D01*
X63682714Y-83129476D01*
X63730333Y-83034238D01*
X63825571Y-82939000D01*
X63968428Y-82891380D01*
X64063666Y-82891380D01*
X64206523Y-82939000D01*
X64254142Y-82986619D01*
X65206523Y-83891380D02*
X64635095Y-83891380D01*
X64920809Y-83891380D02*
X64920809Y-82891380D01*
X64825571Y-83034238D01*
X64730333Y-83129476D01*
X64635095Y-83177095D01*
X65777952Y-83319952D02*
X65682714Y-83272333D01*
X65635095Y-83224714D01*
X65587476Y-83129476D01*
X65587476Y-83081857D01*
X65635095Y-82986619D01*
X65682714Y-82939000D01*
X65777952Y-82891380D01*
X65968428Y-82891380D01*
X66063666Y-82939000D01*
X66111285Y-82986619D01*
X66158904Y-83081857D01*
X66158904Y-83129476D01*
X66111285Y-83224714D01*
X66063666Y-83272333D01*
X65968428Y-83319952D01*
X65777952Y-83319952D01*
X65682714Y-83367571D01*
X65635095Y-83415190D01*
X65587476Y-83510428D01*
X65587476Y-83700904D01*
X65635095Y-83796142D01*
X65682714Y-83843761D01*
X65777952Y-83891380D01*
X65968428Y-83891380D01*
X66063666Y-83843761D01*
X66111285Y-83796142D01*
X66158904Y-83700904D01*
X66158904Y-83510428D01*
X66111285Y-83415190D01*
X66063666Y-83367571D01*
X65968428Y-83319952D01*
%TO.C,L6*%
X104862333Y-96591380D02*
X104386142Y-96591380D01*
X104386142Y-95591380D01*
X105624238Y-95591380D02*
X105433761Y-95591380D01*
X105338523Y-95639000D01*
X105290904Y-95686619D01*
X105195666Y-95829476D01*
X105148047Y-96019952D01*
X105148047Y-96400904D01*
X105195666Y-96496142D01*
X105243285Y-96543761D01*
X105338523Y-96591380D01*
X105529000Y-96591380D01*
X105624238Y-96543761D01*
X105671857Y-96496142D01*
X105719476Y-96400904D01*
X105719476Y-96162809D01*
X105671857Y-96067571D01*
X105624238Y-96019952D01*
X105529000Y-95972333D01*
X105338523Y-95972333D01*
X105243285Y-96019952D01*
X105195666Y-96067571D01*
X105148047Y-96162809D01*
%TO.C,C15*%
X75570142Y-102877857D02*
X75617761Y-102925476D01*
X75665380Y-103068333D01*
X75665380Y-103163571D01*
X75617761Y-103306428D01*
X75522523Y-103401666D01*
X75427285Y-103449285D01*
X75236809Y-103496904D01*
X75093952Y-103496904D01*
X74903476Y-103449285D01*
X74808238Y-103401666D01*
X74713000Y-103306428D01*
X74665380Y-103163571D01*
X74665380Y-103068333D01*
X74713000Y-102925476D01*
X74760619Y-102877857D01*
X75665380Y-101925476D02*
X75665380Y-102496904D01*
X75665380Y-102211190D02*
X74665380Y-102211190D01*
X74808238Y-102306428D01*
X74903476Y-102401666D01*
X74951095Y-102496904D01*
X74665380Y-101020714D02*
X74665380Y-101496904D01*
X75141571Y-101544523D01*
X75093952Y-101496904D01*
X75046333Y-101401666D01*
X75046333Y-101163571D01*
X75093952Y-101068333D01*
X75141571Y-101020714D01*
X75236809Y-100973095D01*
X75474904Y-100973095D01*
X75570142Y-101020714D01*
X75617761Y-101068333D01*
X75665380Y-101163571D01*
X75665380Y-101401666D01*
X75617761Y-101496904D01*
X75570142Y-101544523D01*
%TO.C,JP1*%
X65768380Y-98877333D02*
X66482666Y-98877333D01*
X66625523Y-98924952D01*
X66720761Y-99020190D01*
X66768380Y-99163047D01*
X66768380Y-99258285D01*
X66768380Y-98401142D02*
X65768380Y-98401142D01*
X65768380Y-98020190D01*
X65816000Y-97924952D01*
X65863619Y-97877333D01*
X65958857Y-97829714D01*
X66101714Y-97829714D01*
X66196952Y-97877333D01*
X66244571Y-97924952D01*
X66292190Y-98020190D01*
X66292190Y-98401142D01*
X66768380Y-96877333D02*
X66768380Y-97448761D01*
X66768380Y-97163047D02*
X65768380Y-97163047D01*
X65911238Y-97258285D01*
X66006476Y-97353523D01*
X66054095Y-97448761D01*
%TO.C,C21*%
X83669142Y-98940857D02*
X83716761Y-98988476D01*
X83764380Y-99131333D01*
X83764380Y-99226571D01*
X83716761Y-99369428D01*
X83621523Y-99464666D01*
X83526285Y-99512285D01*
X83335809Y-99559904D01*
X83192952Y-99559904D01*
X83002476Y-99512285D01*
X82907238Y-99464666D01*
X82812000Y-99369428D01*
X82764380Y-99226571D01*
X82764380Y-99131333D01*
X82812000Y-98988476D01*
X82859619Y-98940857D01*
X82859619Y-98559904D02*
X82812000Y-98512285D01*
X82764380Y-98417047D01*
X82764380Y-98178952D01*
X82812000Y-98083714D01*
X82859619Y-98036095D01*
X82954857Y-97988476D01*
X83050095Y-97988476D01*
X83192952Y-98036095D01*
X83764380Y-98607523D01*
X83764380Y-97988476D01*
X83764380Y-97036095D02*
X83764380Y-97607523D01*
X83764380Y-97321809D02*
X82764380Y-97321809D01*
X82907238Y-97417047D01*
X83002476Y-97512285D01*
X83050095Y-97607523D01*
%TO.C,C28*%
X91742142Y-94417857D02*
X91789761Y-94465476D01*
X91837380Y-94608333D01*
X91837380Y-94703571D01*
X91789761Y-94846428D01*
X91694523Y-94941666D01*
X91599285Y-94989285D01*
X91408809Y-95036904D01*
X91265952Y-95036904D01*
X91075476Y-94989285D01*
X90980238Y-94941666D01*
X90885000Y-94846428D01*
X90837380Y-94703571D01*
X90837380Y-94608333D01*
X90885000Y-94465476D01*
X90932619Y-94417857D01*
X90932619Y-94036904D02*
X90885000Y-93989285D01*
X90837380Y-93894047D01*
X90837380Y-93655952D01*
X90885000Y-93560714D01*
X90932619Y-93513095D01*
X91027857Y-93465476D01*
X91123095Y-93465476D01*
X91265952Y-93513095D01*
X91837380Y-94084523D01*
X91837380Y-93465476D01*
X91265952Y-92894047D02*
X91218333Y-92989285D01*
X91170714Y-93036904D01*
X91075476Y-93084523D01*
X91027857Y-93084523D01*
X90932619Y-93036904D01*
X90885000Y-92989285D01*
X90837380Y-92894047D01*
X90837380Y-92703571D01*
X90885000Y-92608333D01*
X90932619Y-92560714D01*
X91027857Y-92513095D01*
X91075476Y-92513095D01*
X91170714Y-92560714D01*
X91218333Y-92608333D01*
X91265952Y-92703571D01*
X91265952Y-92894047D01*
X91313571Y-92989285D01*
X91361190Y-93036904D01*
X91456428Y-93084523D01*
X91646904Y-93084523D01*
X91742142Y-93036904D01*
X91789761Y-92989285D01*
X91837380Y-92894047D01*
X91837380Y-92703571D01*
X91789761Y-92608333D01*
X91742142Y-92560714D01*
X91646904Y-92513095D01*
X91456428Y-92513095D01*
X91361190Y-92560714D01*
X91313571Y-92608333D01*
X91265952Y-92703571D01*
%TO.C,C8*%
X61428333Y-73636142D02*
X61380714Y-73683761D01*
X61237857Y-73731380D01*
X61142619Y-73731380D01*
X60999761Y-73683761D01*
X60904523Y-73588523D01*
X60856904Y-73493285D01*
X60809285Y-73302809D01*
X60809285Y-73159952D01*
X60856904Y-72969476D01*
X60904523Y-72874238D01*
X60999761Y-72779000D01*
X61142619Y-72731380D01*
X61237857Y-72731380D01*
X61380714Y-72779000D01*
X61428333Y-72826619D01*
X61999761Y-73159952D02*
X61904523Y-73112333D01*
X61856904Y-73064714D01*
X61809285Y-72969476D01*
X61809285Y-72921857D01*
X61856904Y-72826619D01*
X61904523Y-72779000D01*
X61999761Y-72731380D01*
X62190238Y-72731380D01*
X62285476Y-72779000D01*
X62333095Y-72826619D01*
X62380714Y-72921857D01*
X62380714Y-72969476D01*
X62333095Y-73064714D01*
X62285476Y-73112333D01*
X62190238Y-73159952D01*
X61999761Y-73159952D01*
X61904523Y-73207571D01*
X61856904Y-73255190D01*
X61809285Y-73350428D01*
X61809285Y-73540904D01*
X61856904Y-73636142D01*
X61904523Y-73683761D01*
X61999761Y-73731380D01*
X62190238Y-73731380D01*
X62285476Y-73683761D01*
X62333095Y-73636142D01*
X62380714Y-73540904D01*
X62380714Y-73350428D01*
X62333095Y-73255190D01*
X62285476Y-73207571D01*
X62190238Y-73159952D01*
%TO.C,R22*%
X93233642Y-111322380D02*
X92900309Y-110846190D01*
X92662214Y-111322380D02*
X92662214Y-110322380D01*
X93043166Y-110322380D01*
X93138404Y-110370000D01*
X93186023Y-110417619D01*
X93233642Y-110512857D01*
X93233642Y-110655714D01*
X93186023Y-110750952D01*
X93138404Y-110798571D01*
X93043166Y-110846190D01*
X92662214Y-110846190D01*
X93614595Y-110417619D02*
X93662214Y-110370000D01*
X93757452Y-110322380D01*
X93995547Y-110322380D01*
X94090785Y-110370000D01*
X94138404Y-110417619D01*
X94186023Y-110512857D01*
X94186023Y-110608095D01*
X94138404Y-110750952D01*
X93566976Y-111322380D01*
X94186023Y-111322380D01*
X94566976Y-110417619D02*
X94614595Y-110370000D01*
X94709833Y-110322380D01*
X94947928Y-110322380D01*
X95043166Y-110370000D01*
X95090785Y-110417619D01*
X95138404Y-110512857D01*
X95138404Y-110608095D01*
X95090785Y-110750952D01*
X94519357Y-111322380D01*
X95138404Y-111322380D01*
%TO.C,R24*%
X97909142Y-98750380D02*
X97575809Y-98274190D01*
X97337714Y-98750380D02*
X97337714Y-97750380D01*
X97718666Y-97750380D01*
X97813904Y-97798000D01*
X97861523Y-97845619D01*
X97909142Y-97940857D01*
X97909142Y-98083714D01*
X97861523Y-98178952D01*
X97813904Y-98226571D01*
X97718666Y-98274190D01*
X97337714Y-98274190D01*
X98290095Y-97845619D02*
X98337714Y-97798000D01*
X98432952Y-97750380D01*
X98671047Y-97750380D01*
X98766285Y-97798000D01*
X98813904Y-97845619D01*
X98861523Y-97940857D01*
X98861523Y-98036095D01*
X98813904Y-98178952D01*
X98242476Y-98750380D01*
X98861523Y-98750380D01*
X99718666Y-98083714D02*
X99718666Y-98750380D01*
X99480571Y-97702761D02*
X99242476Y-98417047D01*
X99861523Y-98417047D01*
%TO.C,J4*%
X102790666Y-64603380D02*
X102790666Y-65317666D01*
X102743047Y-65460523D01*
X102647809Y-65555761D01*
X102504952Y-65603380D01*
X102409714Y-65603380D01*
X103695428Y-64936714D02*
X103695428Y-65603380D01*
X103457333Y-64555761D02*
X103219238Y-65270047D01*
X103838285Y-65270047D01*
%TO.C,R7*%
X81605380Y-68365666D02*
X81129190Y-68699000D01*
X81605380Y-68937095D02*
X80605380Y-68937095D01*
X80605380Y-68556142D01*
X80653000Y-68460904D01*
X80700619Y-68413285D01*
X80795857Y-68365666D01*
X80938714Y-68365666D01*
X81033952Y-68413285D01*
X81081571Y-68460904D01*
X81129190Y-68556142D01*
X81129190Y-68937095D01*
X80605380Y-68032333D02*
X80605380Y-67365666D01*
X81605380Y-67794238D01*
%TO.C,C25*%
X82796142Y-117070142D02*
X82748523Y-117117761D01*
X82605666Y-117165380D01*
X82510428Y-117165380D01*
X82367571Y-117117761D01*
X82272333Y-117022523D01*
X82224714Y-116927285D01*
X82177095Y-116736809D01*
X82177095Y-116593952D01*
X82224714Y-116403476D01*
X82272333Y-116308238D01*
X82367571Y-116213000D01*
X82510428Y-116165380D01*
X82605666Y-116165380D01*
X82748523Y-116213000D01*
X82796142Y-116260619D01*
X83177095Y-116260619D02*
X83224714Y-116213000D01*
X83319952Y-116165380D01*
X83558047Y-116165380D01*
X83653285Y-116213000D01*
X83700904Y-116260619D01*
X83748523Y-116355857D01*
X83748523Y-116451095D01*
X83700904Y-116593952D01*
X83129476Y-117165380D01*
X83748523Y-117165380D01*
X84653285Y-116165380D02*
X84177095Y-116165380D01*
X84129476Y-116641571D01*
X84177095Y-116593952D01*
X84272333Y-116546333D01*
X84510428Y-116546333D01*
X84605666Y-116593952D01*
X84653285Y-116641571D01*
X84700904Y-116736809D01*
X84700904Y-116974904D01*
X84653285Y-117070142D01*
X84605666Y-117117761D01*
X84510428Y-117165380D01*
X84272333Y-117165380D01*
X84177095Y-117117761D01*
X84129476Y-117070142D01*
%TO.C,R13*%
X84574142Y-110814380D02*
X84240809Y-110338190D01*
X84002714Y-110814380D02*
X84002714Y-109814380D01*
X84383666Y-109814380D01*
X84478904Y-109862000D01*
X84526523Y-109909619D01*
X84574142Y-110004857D01*
X84574142Y-110147714D01*
X84526523Y-110242952D01*
X84478904Y-110290571D01*
X84383666Y-110338190D01*
X84002714Y-110338190D01*
X85526523Y-110814380D02*
X84955095Y-110814380D01*
X85240809Y-110814380D02*
X85240809Y-109814380D01*
X85145571Y-109957238D01*
X85050333Y-110052476D01*
X84955095Y-110100095D01*
X85859857Y-109814380D02*
X86478904Y-109814380D01*
X86145571Y-110195333D01*
X86288428Y-110195333D01*
X86383666Y-110242952D01*
X86431285Y-110290571D01*
X86478904Y-110385809D01*
X86478904Y-110623904D01*
X86431285Y-110719142D01*
X86383666Y-110766761D01*
X86288428Y-110814380D01*
X86002714Y-110814380D01*
X85907476Y-110766761D01*
X85859857Y-110719142D01*
%TO.C,L4*%
X84907380Y-91733666D02*
X84907380Y-92209857D01*
X83907380Y-92209857D01*
X84240714Y-90971761D02*
X84907380Y-90971761D01*
X83859761Y-91209857D02*
X84574047Y-91447952D01*
X84574047Y-90828904D01*
%TO.C,L7*%
X80859333Y-90622380D02*
X80383142Y-90622380D01*
X80383142Y-89622380D01*
X81097428Y-89622380D02*
X81764095Y-89622380D01*
X81335523Y-90622380D01*
%TO.C,C13*%
X77471542Y-106154457D02*
X77519161Y-106202076D01*
X77566780Y-106344933D01*
X77566780Y-106440171D01*
X77519161Y-106583028D01*
X77423923Y-106678266D01*
X77328685Y-106725885D01*
X77138209Y-106773504D01*
X76995352Y-106773504D01*
X76804876Y-106725885D01*
X76709638Y-106678266D01*
X76614400Y-106583028D01*
X76566780Y-106440171D01*
X76566780Y-106344933D01*
X76614400Y-106202076D01*
X76662019Y-106154457D01*
X77566780Y-105202076D02*
X77566780Y-105773504D01*
X77566780Y-105487790D02*
X76566780Y-105487790D01*
X76709638Y-105583028D01*
X76804876Y-105678266D01*
X76852495Y-105773504D01*
X76566780Y-104868742D02*
X76566780Y-104249695D01*
X76947733Y-104583028D01*
X76947733Y-104440171D01*
X76995352Y-104344933D01*
X77042971Y-104297314D01*
X77138209Y-104249695D01*
X77376304Y-104249695D01*
X77471542Y-104297314D01*
X77519161Y-104344933D01*
X77566780Y-104440171D01*
X77566780Y-104725885D01*
X77519161Y-104821123D01*
X77471542Y-104868742D01*
%TO.C,R10*%
X80970380Y-102293657D02*
X80494190Y-102626990D01*
X80970380Y-102865085D02*
X79970380Y-102865085D01*
X79970380Y-102484133D01*
X80018000Y-102388895D01*
X80065619Y-102341276D01*
X80160857Y-102293657D01*
X80303714Y-102293657D01*
X80398952Y-102341276D01*
X80446571Y-102388895D01*
X80494190Y-102484133D01*
X80494190Y-102865085D01*
X80970380Y-101341276D02*
X80970380Y-101912704D01*
X80970380Y-101626990D02*
X79970380Y-101626990D01*
X80113238Y-101722228D01*
X80208476Y-101817466D01*
X80256095Y-101912704D01*
X79970380Y-100722228D02*
X79970380Y-100626990D01*
X80018000Y-100531752D01*
X80065619Y-100484133D01*
X80160857Y-100436514D01*
X80351333Y-100388895D01*
X80589428Y-100388895D01*
X80779904Y-100436514D01*
X80875142Y-100484133D01*
X80922761Y-100531752D01*
X80970380Y-100626990D01*
X80970380Y-100722228D01*
X80922761Y-100817466D01*
X80875142Y-100865085D01*
X80779904Y-100912704D01*
X80589428Y-100960323D01*
X80351333Y-100960323D01*
X80160857Y-100912704D01*
X80065619Y-100865085D01*
X80018000Y-100817466D01*
X79970380Y-100722228D01*
%TO.C,J2*%
X29892666Y-97191380D02*
X29892666Y-97905666D01*
X29845047Y-98048523D01*
X29749809Y-98143761D01*
X29606952Y-98191380D01*
X29511714Y-98191380D01*
X30321238Y-97286619D02*
X30368857Y-97239000D01*
X30464095Y-97191380D01*
X30702190Y-97191380D01*
X30797428Y-97239000D01*
X30845047Y-97286619D01*
X30892666Y-97381857D01*
X30892666Y-97477095D01*
X30845047Y-97619952D01*
X30273619Y-98191380D01*
X30892666Y-98191380D01*
%TO.C,R27*%
X101592142Y-111450380D02*
X101258809Y-110974190D01*
X101020714Y-111450380D02*
X101020714Y-110450380D01*
X101401666Y-110450380D01*
X101496904Y-110498000D01*
X101544523Y-110545619D01*
X101592142Y-110640857D01*
X101592142Y-110783714D01*
X101544523Y-110878952D01*
X101496904Y-110926571D01*
X101401666Y-110974190D01*
X101020714Y-110974190D01*
X101973095Y-110545619D02*
X102020714Y-110498000D01*
X102115952Y-110450380D01*
X102354047Y-110450380D01*
X102449285Y-110498000D01*
X102496904Y-110545619D01*
X102544523Y-110640857D01*
X102544523Y-110736095D01*
X102496904Y-110878952D01*
X101925476Y-111450380D01*
X102544523Y-111450380D01*
X102877857Y-110450380D02*
X103544523Y-110450380D01*
X103115952Y-111450380D01*
%TO.C,J5*%
X116379666Y-98588380D02*
X116379666Y-99302666D01*
X116332047Y-99445523D01*
X116236809Y-99540761D01*
X116093952Y-99588380D01*
X115998714Y-99588380D01*
X117332047Y-98588380D02*
X116855857Y-98588380D01*
X116808238Y-99064571D01*
X116855857Y-99016952D01*
X116951095Y-98969333D01*
X117189190Y-98969333D01*
X117284428Y-99016952D01*
X117332047Y-99064571D01*
X117379666Y-99159809D01*
X117379666Y-99397904D01*
X117332047Y-99493142D01*
X117284428Y-99540761D01*
X117189190Y-99588380D01*
X116951095Y-99588380D01*
X116855857Y-99540761D01*
X116808238Y-99493142D01*
%TO.C,R12*%
X86558380Y-68714857D02*
X86082190Y-69048190D01*
X86558380Y-69286285D02*
X85558380Y-69286285D01*
X85558380Y-68905333D01*
X85606000Y-68810095D01*
X85653619Y-68762476D01*
X85748857Y-68714857D01*
X85891714Y-68714857D01*
X85986952Y-68762476D01*
X86034571Y-68810095D01*
X86082190Y-68905333D01*
X86082190Y-69286285D01*
X86558380Y-67762476D02*
X86558380Y-68333904D01*
X86558380Y-68048190D02*
X85558380Y-68048190D01*
X85701238Y-68143428D01*
X85796476Y-68238666D01*
X85844095Y-68333904D01*
X85653619Y-67381523D02*
X85606000Y-67333904D01*
X85558380Y-67238666D01*
X85558380Y-67000571D01*
X85606000Y-66905333D01*
X85653619Y-66857714D01*
X85748857Y-66810095D01*
X85844095Y-66810095D01*
X85986952Y-66857714D01*
X86558380Y-67429142D01*
X86558380Y-66810095D01*
%TO.C,R16*%
X96590380Y-71508857D02*
X96114190Y-71842190D01*
X96590380Y-72080285D02*
X95590380Y-72080285D01*
X95590380Y-71699333D01*
X95638000Y-71604095D01*
X95685619Y-71556476D01*
X95780857Y-71508857D01*
X95923714Y-71508857D01*
X96018952Y-71556476D01*
X96066571Y-71604095D01*
X96114190Y-71699333D01*
X96114190Y-72080285D01*
X96590380Y-70556476D02*
X96590380Y-71127904D01*
X96590380Y-70842190D02*
X95590380Y-70842190D01*
X95733238Y-70937428D01*
X95828476Y-71032666D01*
X95876095Y-71127904D01*
X95590380Y-69699333D02*
X95590380Y-69889809D01*
X95638000Y-69985047D01*
X95685619Y-70032666D01*
X95828476Y-70127904D01*
X96018952Y-70175523D01*
X96399904Y-70175523D01*
X96495142Y-70127904D01*
X96542761Y-70080285D01*
X96590380Y-69985047D01*
X96590380Y-69794571D01*
X96542761Y-69699333D01*
X96495142Y-69651714D01*
X96399904Y-69604095D01*
X96161809Y-69604095D01*
X96066571Y-69651714D01*
X96018952Y-69699333D01*
X95971333Y-69794571D01*
X95971333Y-69985047D01*
X96018952Y-70080285D01*
X96066571Y-70127904D01*
X96161809Y-70175523D01*
%TO.C,C34*%
X109212142Y-91514142D02*
X109164523Y-91561761D01*
X109021666Y-91609380D01*
X108926428Y-91609380D01*
X108783571Y-91561761D01*
X108688333Y-91466523D01*
X108640714Y-91371285D01*
X108593095Y-91180809D01*
X108593095Y-91037952D01*
X108640714Y-90847476D01*
X108688333Y-90752238D01*
X108783571Y-90657000D01*
X108926428Y-90609380D01*
X109021666Y-90609380D01*
X109164523Y-90657000D01*
X109212142Y-90704619D01*
X109545476Y-90609380D02*
X110164523Y-90609380D01*
X109831190Y-90990333D01*
X109974047Y-90990333D01*
X110069285Y-91037952D01*
X110116904Y-91085571D01*
X110164523Y-91180809D01*
X110164523Y-91418904D01*
X110116904Y-91514142D01*
X110069285Y-91561761D01*
X109974047Y-91609380D01*
X109688333Y-91609380D01*
X109593095Y-91561761D01*
X109545476Y-91514142D01*
X111021666Y-90942714D02*
X111021666Y-91609380D01*
X110783571Y-90561761D02*
X110545476Y-91276047D01*
X111164523Y-91276047D01*
%TO.C,R25*%
X93210142Y-98750380D02*
X92876809Y-98274190D01*
X92638714Y-98750380D02*
X92638714Y-97750380D01*
X93019666Y-97750380D01*
X93114904Y-97798000D01*
X93162523Y-97845619D01*
X93210142Y-97940857D01*
X93210142Y-98083714D01*
X93162523Y-98178952D01*
X93114904Y-98226571D01*
X93019666Y-98274190D01*
X92638714Y-98274190D01*
X93591095Y-97845619D02*
X93638714Y-97798000D01*
X93733952Y-97750380D01*
X93972047Y-97750380D01*
X94067285Y-97798000D01*
X94114904Y-97845619D01*
X94162523Y-97940857D01*
X94162523Y-98036095D01*
X94114904Y-98178952D01*
X93543476Y-98750380D01*
X94162523Y-98750380D01*
X95067285Y-97750380D02*
X94591095Y-97750380D01*
X94543476Y-98226571D01*
X94591095Y-98178952D01*
X94686333Y-98131333D01*
X94924428Y-98131333D01*
X95019666Y-98178952D01*
X95067285Y-98226571D01*
X95114904Y-98321809D01*
X95114904Y-98559904D01*
X95067285Y-98655142D01*
X95019666Y-98702761D01*
X94924428Y-98750380D01*
X94686333Y-98750380D01*
X94591095Y-98702761D01*
X94543476Y-98655142D01*
%TO.C,R28*%
X93337142Y-92401380D02*
X93003809Y-91925190D01*
X92765714Y-92401380D02*
X92765714Y-91401380D01*
X93146666Y-91401380D01*
X93241904Y-91449000D01*
X93289523Y-91496619D01*
X93337142Y-91591857D01*
X93337142Y-91734714D01*
X93289523Y-91829952D01*
X93241904Y-91877571D01*
X93146666Y-91925190D01*
X92765714Y-91925190D01*
X93718095Y-91496619D02*
X93765714Y-91449000D01*
X93860952Y-91401380D01*
X94099047Y-91401380D01*
X94194285Y-91449000D01*
X94241904Y-91496619D01*
X94289523Y-91591857D01*
X94289523Y-91687095D01*
X94241904Y-91829952D01*
X93670476Y-92401380D01*
X94289523Y-92401380D01*
X94860952Y-91829952D02*
X94765714Y-91782333D01*
X94718095Y-91734714D01*
X94670476Y-91639476D01*
X94670476Y-91591857D01*
X94718095Y-91496619D01*
X94765714Y-91449000D01*
X94860952Y-91401380D01*
X95051428Y-91401380D01*
X95146666Y-91449000D01*
X95194285Y-91496619D01*
X95241904Y-91591857D01*
X95241904Y-91639476D01*
X95194285Y-91734714D01*
X95146666Y-91782333D01*
X95051428Y-91829952D01*
X94860952Y-91829952D01*
X94765714Y-91877571D01*
X94718095Y-91925190D01*
X94670476Y-92020428D01*
X94670476Y-92210904D01*
X94718095Y-92306142D01*
X94765714Y-92353761D01*
X94860952Y-92401380D01*
X95051428Y-92401380D01*
X95146666Y-92353761D01*
X95194285Y-92306142D01*
X95241904Y-92210904D01*
X95241904Y-92020428D01*
X95194285Y-91925190D01*
X95146666Y-91877571D01*
X95051428Y-91829952D01*
%TO.C,R23*%
X97655142Y-115006380D02*
X97321809Y-114530190D01*
X97083714Y-115006380D02*
X97083714Y-114006380D01*
X97464666Y-114006380D01*
X97559904Y-114054000D01*
X97607523Y-114101619D01*
X97655142Y-114196857D01*
X97655142Y-114339714D01*
X97607523Y-114434952D01*
X97559904Y-114482571D01*
X97464666Y-114530190D01*
X97083714Y-114530190D01*
X98036095Y-114101619D02*
X98083714Y-114054000D01*
X98178952Y-114006380D01*
X98417047Y-114006380D01*
X98512285Y-114054000D01*
X98559904Y-114101619D01*
X98607523Y-114196857D01*
X98607523Y-114292095D01*
X98559904Y-114434952D01*
X97988476Y-115006380D01*
X98607523Y-115006380D01*
X98940857Y-114006380D02*
X99559904Y-114006380D01*
X99226571Y-114387333D01*
X99369428Y-114387333D01*
X99464666Y-114434952D01*
X99512285Y-114482571D01*
X99559904Y-114577809D01*
X99559904Y-114815904D01*
X99512285Y-114911142D01*
X99464666Y-114958761D01*
X99369428Y-115006380D01*
X99083714Y-115006380D01*
X98988476Y-114958761D01*
X98940857Y-114911142D01*
%TO.C,C17*%
X80129142Y-110593142D02*
X80081523Y-110640761D01*
X79938666Y-110688380D01*
X79843428Y-110688380D01*
X79700571Y-110640761D01*
X79605333Y-110545523D01*
X79557714Y-110450285D01*
X79510095Y-110259809D01*
X79510095Y-110116952D01*
X79557714Y-109926476D01*
X79605333Y-109831238D01*
X79700571Y-109736000D01*
X79843428Y-109688380D01*
X79938666Y-109688380D01*
X80081523Y-109736000D01*
X80129142Y-109783619D01*
X81081523Y-110688380D02*
X80510095Y-110688380D01*
X80795809Y-110688380D02*
X80795809Y-109688380D01*
X80700571Y-109831238D01*
X80605333Y-109926476D01*
X80510095Y-109974095D01*
X81414857Y-109688380D02*
X82081523Y-109688380D01*
X81652952Y-110688380D01*
%TO.C,L2*%
X54427380Y-96559666D02*
X54427380Y-97035857D01*
X53427380Y-97035857D01*
X53522619Y-96273952D02*
X53475000Y-96226333D01*
X53427380Y-96131095D01*
X53427380Y-95893000D01*
X53475000Y-95797761D01*
X53522619Y-95750142D01*
X53617857Y-95702523D01*
X53713095Y-95702523D01*
X53855952Y-95750142D01*
X54427380Y-96321571D01*
X54427380Y-95702523D01*
%TO.C,C22*%
X75642742Y-109913657D02*
X75690361Y-109961276D01*
X75737980Y-110104133D01*
X75737980Y-110199371D01*
X75690361Y-110342228D01*
X75595123Y-110437466D01*
X75499885Y-110485085D01*
X75309409Y-110532704D01*
X75166552Y-110532704D01*
X74976076Y-110485085D01*
X74880838Y-110437466D01*
X74785600Y-110342228D01*
X74737980Y-110199371D01*
X74737980Y-110104133D01*
X74785600Y-109961276D01*
X74833219Y-109913657D01*
X74833219Y-109532704D02*
X74785600Y-109485085D01*
X74737980Y-109389847D01*
X74737980Y-109151752D01*
X74785600Y-109056514D01*
X74833219Y-109008895D01*
X74928457Y-108961276D01*
X75023695Y-108961276D01*
X75166552Y-109008895D01*
X75737980Y-109580323D01*
X75737980Y-108961276D01*
X74833219Y-108580323D02*
X74785600Y-108532704D01*
X74737980Y-108437466D01*
X74737980Y-108199371D01*
X74785600Y-108104133D01*
X74833219Y-108056514D01*
X74928457Y-108008895D01*
X75023695Y-108008895D01*
X75166552Y-108056514D01*
X75737980Y-108627942D01*
X75737980Y-108008895D01*
%TO.C,C5*%
X57411687Y-65902389D02*
X57411687Y-65969732D01*
X57344343Y-66104419D01*
X57277000Y-66171763D01*
X57142312Y-66239106D01*
X57007625Y-66239106D01*
X56906610Y-66205435D01*
X56738251Y-66104419D01*
X56637236Y-66003404D01*
X56536221Y-65835045D01*
X56502549Y-65734030D01*
X56502549Y-65599343D01*
X56569893Y-65464656D01*
X56637236Y-65397312D01*
X56771923Y-65329969D01*
X56839267Y-65329969D01*
X57411687Y-64622862D02*
X57074969Y-64959580D01*
X57378015Y-65329969D01*
X57378015Y-65262625D01*
X57411687Y-65161610D01*
X57580045Y-64993251D01*
X57681061Y-64959580D01*
X57748404Y-64959580D01*
X57849419Y-64993251D01*
X58017778Y-65161610D01*
X58051450Y-65262625D01*
X58051450Y-65329969D01*
X58017778Y-65430984D01*
X57849419Y-65599343D01*
X57748404Y-65633015D01*
X57681061Y-65633015D01*
%TO.C,H4*%
X31242095Y-65222380D02*
X31242095Y-64222380D01*
X31242095Y-64698571D02*
X31813523Y-64698571D01*
X31813523Y-65222380D02*
X31813523Y-64222380D01*
X32718285Y-64555714D02*
X32718285Y-65222380D01*
X32480190Y-64174761D02*
X32242095Y-64889047D01*
X32861142Y-64889047D01*
%TO.C,U5*%
X67056095Y-100798380D02*
X67056095Y-101607904D01*
X67103714Y-101703142D01*
X67151333Y-101750761D01*
X67246571Y-101798380D01*
X67437047Y-101798380D01*
X67532285Y-101750761D01*
X67579904Y-101703142D01*
X67627523Y-101607904D01*
X67627523Y-100798380D01*
X68579904Y-100798380D02*
X68103714Y-100798380D01*
X68056095Y-101274571D01*
X68103714Y-101226952D01*
X68198952Y-101179333D01*
X68437047Y-101179333D01*
X68532285Y-101226952D01*
X68579904Y-101274571D01*
X68627523Y-101369809D01*
X68627523Y-101607904D01*
X68579904Y-101703142D01*
X68532285Y-101750761D01*
X68437047Y-101798380D01*
X68198952Y-101798380D01*
X68103714Y-101750761D01*
X68056095Y-101703142D01*
%TO.C,U3*%
X81280095Y-73801380D02*
X81280095Y-74610904D01*
X81327714Y-74706142D01*
X81375333Y-74753761D01*
X81470571Y-74801380D01*
X81661047Y-74801380D01*
X81756285Y-74753761D01*
X81803904Y-74706142D01*
X81851523Y-74610904D01*
X81851523Y-73801380D01*
X82232476Y-73801380D02*
X82851523Y-73801380D01*
X82518190Y-74182333D01*
X82661047Y-74182333D01*
X82756285Y-74229952D01*
X82803904Y-74277571D01*
X82851523Y-74372809D01*
X82851523Y-74610904D01*
X82803904Y-74706142D01*
X82756285Y-74753761D01*
X82661047Y-74801380D01*
X82375333Y-74801380D01*
X82280095Y-74753761D01*
X82232476Y-74706142D01*
%TO.C,R2*%
X52157333Y-101036380D02*
X51824000Y-100560190D01*
X51585904Y-101036380D02*
X51585904Y-100036380D01*
X51966857Y-100036380D01*
X52062095Y-100084000D01*
X52109714Y-100131619D01*
X52157333Y-100226857D01*
X52157333Y-100369714D01*
X52109714Y-100464952D01*
X52062095Y-100512571D01*
X51966857Y-100560190D01*
X51585904Y-100560190D01*
X52538285Y-100131619D02*
X52585904Y-100084000D01*
X52681142Y-100036380D01*
X52919238Y-100036380D01*
X53014476Y-100084000D01*
X53062095Y-100131619D01*
X53109714Y-100226857D01*
X53109714Y-100322095D01*
X53062095Y-100464952D01*
X52490666Y-101036380D01*
X53109714Y-101036380D01*
%TO.C,R11*%
X77716142Y-113862380D02*
X77382809Y-113386190D01*
X77144714Y-113862380D02*
X77144714Y-112862380D01*
X77525666Y-112862380D01*
X77620904Y-112910000D01*
X77668523Y-112957619D01*
X77716142Y-113052857D01*
X77716142Y-113195714D01*
X77668523Y-113290952D01*
X77620904Y-113338571D01*
X77525666Y-113386190D01*
X77144714Y-113386190D01*
X78668523Y-113862380D02*
X78097095Y-113862380D01*
X78382809Y-113862380D02*
X78382809Y-112862380D01*
X78287571Y-113005238D01*
X78192333Y-113100476D01*
X78097095Y-113148095D01*
X79620904Y-113862380D02*
X79049476Y-113862380D01*
X79335190Y-113862380D02*
X79335190Y-112862380D01*
X79239952Y-113005238D01*
X79144714Y-113100476D01*
X79049476Y-113148095D01*
%TO.C,R26*%
X97655142Y-111450380D02*
X97321809Y-110974190D01*
X97083714Y-111450380D02*
X97083714Y-110450380D01*
X97464666Y-110450380D01*
X97559904Y-110498000D01*
X97607523Y-110545619D01*
X97655142Y-110640857D01*
X97655142Y-110783714D01*
X97607523Y-110878952D01*
X97559904Y-110926571D01*
X97464666Y-110974190D01*
X97083714Y-110974190D01*
X98036095Y-110545619D02*
X98083714Y-110498000D01*
X98178952Y-110450380D01*
X98417047Y-110450380D01*
X98512285Y-110498000D01*
X98559904Y-110545619D01*
X98607523Y-110640857D01*
X98607523Y-110736095D01*
X98559904Y-110878952D01*
X97988476Y-111450380D01*
X98607523Y-111450380D01*
X99464666Y-110450380D02*
X99274190Y-110450380D01*
X99178952Y-110498000D01*
X99131333Y-110545619D01*
X99036095Y-110688476D01*
X98988476Y-110878952D01*
X98988476Y-111259904D01*
X99036095Y-111355142D01*
X99083714Y-111402761D01*
X99178952Y-111450380D01*
X99369428Y-111450380D01*
X99464666Y-111402761D01*
X99512285Y-111355142D01*
X99559904Y-111259904D01*
X99559904Y-111021809D01*
X99512285Y-110926571D01*
X99464666Y-110878952D01*
X99369428Y-110831333D01*
X99178952Y-110831333D01*
X99083714Y-110878952D01*
X99036095Y-110926571D01*
X98988476Y-111021809D01*
%TO.C,J1*%
X50212666Y-58674380D02*
X50212666Y-59388666D01*
X50165047Y-59531523D01*
X50069809Y-59626761D01*
X49926952Y-59674380D01*
X49831714Y-59674380D01*
X51212666Y-59674380D02*
X50641238Y-59674380D01*
X50926952Y-59674380D02*
X50926952Y-58674380D01*
X50831714Y-58817238D01*
X50736476Y-58912476D01*
X50641238Y-58960095D01*
%TO.C,R4*%
X58618380Y-113450666D02*
X58142190Y-113784000D01*
X58618380Y-114022095D02*
X57618380Y-114022095D01*
X57618380Y-113641142D01*
X57666000Y-113545904D01*
X57713619Y-113498285D01*
X57808857Y-113450666D01*
X57951714Y-113450666D01*
X58046952Y-113498285D01*
X58094571Y-113545904D01*
X58142190Y-113641142D01*
X58142190Y-114022095D01*
X57951714Y-112593523D02*
X58618380Y-112593523D01*
X57570761Y-112831619D02*
X58285047Y-113069714D01*
X58285047Y-112450666D01*
%TO.C,T1*%
X49363380Y-104266904D02*
X49363380Y-103695476D01*
X50363380Y-103981190D02*
X49363380Y-103981190D01*
X50363380Y-102838333D02*
X50363380Y-103409761D01*
X50363380Y-103124047D02*
X49363380Y-103124047D01*
X49506238Y-103219285D01*
X49601476Y-103314523D01*
X49649095Y-103409761D01*
%TO.C,C4*%
X43310142Y-79160666D02*
X43357761Y-79208285D01*
X43405380Y-79351142D01*
X43405380Y-79446380D01*
X43357761Y-79589238D01*
X43262523Y-79684476D01*
X43167285Y-79732095D01*
X42976809Y-79779714D01*
X42833952Y-79779714D01*
X42643476Y-79732095D01*
X42548238Y-79684476D01*
X42453000Y-79589238D01*
X42405380Y-79446380D01*
X42405380Y-79351142D01*
X42453000Y-79208285D01*
X42500619Y-79160666D01*
X42738714Y-78303523D02*
X43405380Y-78303523D01*
X42357761Y-78541619D02*
X43072047Y-78779714D01*
X43072047Y-78160666D01*
%TO.C,Y1*%
X68611809Y-74525190D02*
X68611809Y-75001380D01*
X68278476Y-74001380D02*
X68611809Y-74525190D01*
X68945142Y-74001380D01*
X69802285Y-75001380D02*
X69230857Y-75001380D01*
X69516571Y-75001380D02*
X69516571Y-74001380D01*
X69421333Y-74144238D01*
X69326095Y-74239476D01*
X69230857Y-74287095D01*
%TO.C,C14*%
X77369942Y-102242857D02*
X77417561Y-102290476D01*
X77465180Y-102433333D01*
X77465180Y-102528571D01*
X77417561Y-102671428D01*
X77322323Y-102766666D01*
X77227085Y-102814285D01*
X77036609Y-102861904D01*
X76893752Y-102861904D01*
X76703276Y-102814285D01*
X76608038Y-102766666D01*
X76512800Y-102671428D01*
X76465180Y-102528571D01*
X76465180Y-102433333D01*
X76512800Y-102290476D01*
X76560419Y-102242857D01*
X77465180Y-101290476D02*
X77465180Y-101861904D01*
X77465180Y-101576190D02*
X76465180Y-101576190D01*
X76608038Y-101671428D01*
X76703276Y-101766666D01*
X76750895Y-101861904D01*
X76798514Y-100433333D02*
X77465180Y-100433333D01*
X76417561Y-100671428D02*
X77131847Y-100909523D01*
X77131847Y-100290476D01*
%TO.C,C33*%
X109593142Y-102563142D02*
X109545523Y-102610761D01*
X109402666Y-102658380D01*
X109307428Y-102658380D01*
X109164571Y-102610761D01*
X109069333Y-102515523D01*
X109021714Y-102420285D01*
X108974095Y-102229809D01*
X108974095Y-102086952D01*
X109021714Y-101896476D01*
X109069333Y-101801238D01*
X109164571Y-101706000D01*
X109307428Y-101658380D01*
X109402666Y-101658380D01*
X109545523Y-101706000D01*
X109593142Y-101753619D01*
X109926476Y-101658380D02*
X110545523Y-101658380D01*
X110212190Y-102039333D01*
X110355047Y-102039333D01*
X110450285Y-102086952D01*
X110497904Y-102134571D01*
X110545523Y-102229809D01*
X110545523Y-102467904D01*
X110497904Y-102563142D01*
X110450285Y-102610761D01*
X110355047Y-102658380D01*
X110069333Y-102658380D01*
X109974095Y-102610761D01*
X109926476Y-102563142D01*
X110878857Y-101658380D02*
X111497904Y-101658380D01*
X111164571Y-102039333D01*
X111307428Y-102039333D01*
X111402666Y-102086952D01*
X111450285Y-102134571D01*
X111497904Y-102229809D01*
X111497904Y-102467904D01*
X111450285Y-102563142D01*
X111402666Y-102610761D01*
X111307428Y-102658380D01*
X111021714Y-102658380D01*
X110926476Y-102610761D01*
X110878857Y-102563142D01*
%TO.C,C27*%
X93337142Y-115292142D02*
X93289523Y-115339761D01*
X93146666Y-115387380D01*
X93051428Y-115387380D01*
X92908571Y-115339761D01*
X92813333Y-115244523D01*
X92765714Y-115149285D01*
X92718095Y-114958809D01*
X92718095Y-114815952D01*
X92765714Y-114625476D01*
X92813333Y-114530238D01*
X92908571Y-114435000D01*
X93051428Y-114387380D01*
X93146666Y-114387380D01*
X93289523Y-114435000D01*
X93337142Y-114482619D01*
X93718095Y-114482619D02*
X93765714Y-114435000D01*
X93860952Y-114387380D01*
X94099047Y-114387380D01*
X94194285Y-114435000D01*
X94241904Y-114482619D01*
X94289523Y-114577857D01*
X94289523Y-114673095D01*
X94241904Y-114815952D01*
X93670476Y-115387380D01*
X94289523Y-115387380D01*
X94622857Y-114387380D02*
X95289523Y-114387380D01*
X94860952Y-115387380D01*
%TO.C,C23*%
X73525142Y-85349142D02*
X73477523Y-85396761D01*
X73334666Y-85444380D01*
X73239428Y-85444380D01*
X73096571Y-85396761D01*
X73001333Y-85301523D01*
X72953714Y-85206285D01*
X72906095Y-85015809D01*
X72906095Y-84872952D01*
X72953714Y-84682476D01*
X73001333Y-84587238D01*
X73096571Y-84492000D01*
X73239428Y-84444380D01*
X73334666Y-84444380D01*
X73477523Y-84492000D01*
X73525142Y-84539619D01*
X73906095Y-84539619D02*
X73953714Y-84492000D01*
X74048952Y-84444380D01*
X74287047Y-84444380D01*
X74382285Y-84492000D01*
X74429904Y-84539619D01*
X74477523Y-84634857D01*
X74477523Y-84730095D01*
X74429904Y-84872952D01*
X73858476Y-85444380D01*
X74477523Y-85444380D01*
X74810857Y-84444380D02*
X75429904Y-84444380D01*
X75096571Y-84825333D01*
X75239428Y-84825333D01*
X75334666Y-84872952D01*
X75382285Y-84920571D01*
X75429904Y-85015809D01*
X75429904Y-85253904D01*
X75382285Y-85349142D01*
X75334666Y-85396761D01*
X75239428Y-85444380D01*
X74953714Y-85444380D01*
X74858476Y-85396761D01*
X74810857Y-85349142D01*
%TO.C,C16*%
X71645542Y-109373942D02*
X71597923Y-109421561D01*
X71455066Y-109469180D01*
X71359828Y-109469180D01*
X71216971Y-109421561D01*
X71121733Y-109326323D01*
X71074114Y-109231085D01*
X71026495Y-109040609D01*
X71026495Y-108897752D01*
X71074114Y-108707276D01*
X71121733Y-108612038D01*
X71216971Y-108516800D01*
X71359828Y-108469180D01*
X71455066Y-108469180D01*
X71597923Y-108516800D01*
X71645542Y-108564419D01*
X72597923Y-109469180D02*
X72026495Y-109469180D01*
X72312209Y-109469180D02*
X72312209Y-108469180D01*
X72216971Y-108612038D01*
X72121733Y-108707276D01*
X72026495Y-108754895D01*
X73455066Y-108469180D02*
X73264590Y-108469180D01*
X73169352Y-108516800D01*
X73121733Y-108564419D01*
X73026495Y-108707276D01*
X72978876Y-108897752D01*
X72978876Y-109278704D01*
X73026495Y-109373942D01*
X73074114Y-109421561D01*
X73169352Y-109469180D01*
X73359828Y-109469180D01*
X73455066Y-109421561D01*
X73502685Y-109373942D01*
X73550304Y-109278704D01*
X73550304Y-109040609D01*
X73502685Y-108945371D01*
X73455066Y-108897752D01*
X73359828Y-108850133D01*
X73169352Y-108850133D01*
X73074114Y-108897752D01*
X73026495Y-108945371D01*
X72978876Y-109040609D01*
%TO.C,U8*%
X98806095Y-100798380D02*
X98806095Y-101607904D01*
X98853714Y-101703142D01*
X98901333Y-101750761D01*
X98996571Y-101798380D01*
X99187047Y-101798380D01*
X99282285Y-101750761D01*
X99329904Y-101703142D01*
X99377523Y-101607904D01*
X99377523Y-100798380D01*
X99996571Y-101226952D02*
X99901333Y-101179333D01*
X99853714Y-101131714D01*
X99806095Y-101036476D01*
X99806095Y-100988857D01*
X99853714Y-100893619D01*
X99901333Y-100846000D01*
X99996571Y-100798380D01*
X100187047Y-100798380D01*
X100282285Y-100846000D01*
X100329904Y-100893619D01*
X100377523Y-100988857D01*
X100377523Y-101036476D01*
X100329904Y-101131714D01*
X100282285Y-101179333D01*
X100187047Y-101226952D01*
X99996571Y-101226952D01*
X99901333Y-101274571D01*
X99853714Y-101322190D01*
X99806095Y-101417428D01*
X99806095Y-101607904D01*
X99853714Y-101703142D01*
X99901333Y-101750761D01*
X99996571Y-101798380D01*
X100187047Y-101798380D01*
X100282285Y-101750761D01*
X100329904Y-101703142D01*
X100377523Y-101607904D01*
X100377523Y-101417428D01*
X100329904Y-101322190D01*
X100282285Y-101274571D01*
X100187047Y-101226952D01*
%TO.C,R9*%
X72223333Y-94940380D02*
X71890000Y-94464190D01*
X71651904Y-94940380D02*
X71651904Y-93940380D01*
X72032857Y-93940380D01*
X72128095Y-93988000D01*
X72175714Y-94035619D01*
X72223333Y-94130857D01*
X72223333Y-94273714D01*
X72175714Y-94368952D01*
X72128095Y-94416571D01*
X72032857Y-94464190D01*
X71651904Y-94464190D01*
X72699523Y-94940380D02*
X72890000Y-94940380D01*
X72985238Y-94892761D01*
X73032857Y-94845142D01*
X73128095Y-94702285D01*
X73175714Y-94511809D01*
X73175714Y-94130857D01*
X73128095Y-94035619D01*
X73080476Y-93988000D01*
X72985238Y-93940380D01*
X72794761Y-93940380D01*
X72699523Y-93988000D01*
X72651904Y-94035619D01*
X72604285Y-94130857D01*
X72604285Y-94368952D01*
X72651904Y-94464190D01*
X72699523Y-94511809D01*
X72794761Y-94559428D01*
X72985238Y-94559428D01*
X73080476Y-94511809D01*
X73128095Y-94464190D01*
X73175714Y-94368952D01*
%TO.C,C12*%
X87225142Y-91574857D02*
X87272761Y-91622476D01*
X87320380Y-91765333D01*
X87320380Y-91860571D01*
X87272761Y-92003428D01*
X87177523Y-92098666D01*
X87082285Y-92146285D01*
X86891809Y-92193904D01*
X86748952Y-92193904D01*
X86558476Y-92146285D01*
X86463238Y-92098666D01*
X86368000Y-92003428D01*
X86320380Y-91860571D01*
X86320380Y-91765333D01*
X86368000Y-91622476D01*
X86415619Y-91574857D01*
X87320380Y-90622476D02*
X87320380Y-91193904D01*
X87320380Y-90908190D02*
X86320380Y-90908190D01*
X86463238Y-91003428D01*
X86558476Y-91098666D01*
X86606095Y-91193904D01*
X86415619Y-90241523D02*
X86368000Y-90193904D01*
X86320380Y-90098666D01*
X86320380Y-89860571D01*
X86368000Y-89765333D01*
X86415619Y-89717714D01*
X86510857Y-89670095D01*
X86606095Y-89670095D01*
X86748952Y-89717714D01*
X87320380Y-90289142D01*
X87320380Y-89670095D01*
%TO.C,R8*%
X81098380Y-105637666D02*
X80622190Y-105971000D01*
X81098380Y-106209095D02*
X80098380Y-106209095D01*
X80098380Y-105828142D01*
X80146000Y-105732904D01*
X80193619Y-105685285D01*
X80288857Y-105637666D01*
X80431714Y-105637666D01*
X80526952Y-105685285D01*
X80574571Y-105732904D01*
X80622190Y-105828142D01*
X80622190Y-106209095D01*
X80526952Y-105066238D02*
X80479333Y-105161476D01*
X80431714Y-105209095D01*
X80336476Y-105256714D01*
X80288857Y-105256714D01*
X80193619Y-105209095D01*
X80146000Y-105161476D01*
X80098380Y-105066238D01*
X80098380Y-104875761D01*
X80146000Y-104780523D01*
X80193619Y-104732904D01*
X80288857Y-104685285D01*
X80336476Y-104685285D01*
X80431714Y-104732904D01*
X80479333Y-104780523D01*
X80526952Y-104875761D01*
X80526952Y-105066238D01*
X80574571Y-105161476D01*
X80622190Y-105209095D01*
X80717428Y-105256714D01*
X80907904Y-105256714D01*
X81003142Y-105209095D01*
X81050761Y-105161476D01*
X81098380Y-105066238D01*
X81098380Y-104875761D01*
X81050761Y-104780523D01*
X81003142Y-104732904D01*
X80907904Y-104685285D01*
X80717428Y-104685285D01*
X80622190Y-104732904D01*
X80574571Y-104780523D01*
X80526952Y-104875761D01*
%TO.C,R21*%
X93337142Y-102051380D02*
X93003809Y-101575190D01*
X92765714Y-102051380D02*
X92765714Y-101051380D01*
X93146666Y-101051380D01*
X93241904Y-101099000D01*
X93289523Y-101146619D01*
X93337142Y-101241857D01*
X93337142Y-101384714D01*
X93289523Y-101479952D01*
X93241904Y-101527571D01*
X93146666Y-101575190D01*
X92765714Y-101575190D01*
X93718095Y-101146619D02*
X93765714Y-101099000D01*
X93860952Y-101051380D01*
X94099047Y-101051380D01*
X94194285Y-101099000D01*
X94241904Y-101146619D01*
X94289523Y-101241857D01*
X94289523Y-101337095D01*
X94241904Y-101479952D01*
X93670476Y-102051380D01*
X94289523Y-102051380D01*
X95241904Y-102051380D02*
X94670476Y-102051380D01*
X94956190Y-102051380D02*
X94956190Y-101051380D01*
X94860952Y-101194238D01*
X94765714Y-101289476D01*
X94670476Y-101337095D01*
%TO.C,L3*%
X68413333Y-95542380D02*
X67937142Y-95542380D01*
X67937142Y-94542380D01*
X68651428Y-94542380D02*
X69270476Y-94542380D01*
X68937142Y-94923333D01*
X69080000Y-94923333D01*
X69175238Y-94970952D01*
X69222857Y-95018571D01*
X69270476Y-95113809D01*
X69270476Y-95351904D01*
X69222857Y-95447142D01*
X69175238Y-95494761D01*
X69080000Y-95542380D01*
X68794285Y-95542380D01*
X68699047Y-95494761D01*
X68651428Y-95447142D01*
%TO.C,R20*%
X80383142Y-96464380D02*
X80049809Y-95988190D01*
X79811714Y-96464380D02*
X79811714Y-95464380D01*
X80192666Y-95464380D01*
X80287904Y-95512000D01*
X80335523Y-95559619D01*
X80383142Y-95654857D01*
X80383142Y-95797714D01*
X80335523Y-95892952D01*
X80287904Y-95940571D01*
X80192666Y-95988190D01*
X79811714Y-95988190D01*
X80764095Y-95559619D02*
X80811714Y-95512000D01*
X80906952Y-95464380D01*
X81145047Y-95464380D01*
X81240285Y-95512000D01*
X81287904Y-95559619D01*
X81335523Y-95654857D01*
X81335523Y-95750095D01*
X81287904Y-95892952D01*
X80716476Y-96464380D01*
X81335523Y-96464380D01*
X81954571Y-95464380D02*
X82049809Y-95464380D01*
X82145047Y-95512000D01*
X82192666Y-95559619D01*
X82240285Y-95654857D01*
X82287904Y-95845333D01*
X82287904Y-96083428D01*
X82240285Y-96273904D01*
X82192666Y-96369142D01*
X82145047Y-96416761D01*
X82049809Y-96464380D01*
X81954571Y-96464380D01*
X81859333Y-96416761D01*
X81811714Y-96369142D01*
X81764095Y-96273904D01*
X81716476Y-96083428D01*
X81716476Y-95845333D01*
X81764095Y-95654857D01*
X81811714Y-95559619D01*
X81859333Y-95512000D01*
X81954571Y-95464380D01*
%TO.C,C9*%
X59383142Y-79729666D02*
X59430761Y-79777285D01*
X59478380Y-79920142D01*
X59478380Y-80015380D01*
X59430761Y-80158238D01*
X59335523Y-80253476D01*
X59240285Y-80301095D01*
X59049809Y-80348714D01*
X58906952Y-80348714D01*
X58716476Y-80301095D01*
X58621238Y-80253476D01*
X58526000Y-80158238D01*
X58478380Y-80015380D01*
X58478380Y-79920142D01*
X58526000Y-79777285D01*
X58573619Y-79729666D01*
X59478380Y-79253476D02*
X59478380Y-79063000D01*
X59430761Y-78967761D01*
X59383142Y-78920142D01*
X59240285Y-78824904D01*
X59049809Y-78777285D01*
X58668857Y-78777285D01*
X58573619Y-78824904D01*
X58526000Y-78872523D01*
X58478380Y-78967761D01*
X58478380Y-79158238D01*
X58526000Y-79253476D01*
X58573619Y-79301095D01*
X58668857Y-79348714D01*
X58906952Y-79348714D01*
X59002190Y-79301095D01*
X59049809Y-79253476D01*
X59097428Y-79158238D01*
X59097428Y-78967761D01*
X59049809Y-78872523D01*
X59002190Y-78824904D01*
X58906952Y-78777285D01*
%TO.C,R14*%
X87749142Y-98624380D02*
X87415809Y-98148190D01*
X87177714Y-98624380D02*
X87177714Y-97624380D01*
X87558666Y-97624380D01*
X87653904Y-97672000D01*
X87701523Y-97719619D01*
X87749142Y-97814857D01*
X87749142Y-97957714D01*
X87701523Y-98052952D01*
X87653904Y-98100571D01*
X87558666Y-98148190D01*
X87177714Y-98148190D01*
X88701523Y-98624380D02*
X88130095Y-98624380D01*
X88415809Y-98624380D02*
X88415809Y-97624380D01*
X88320571Y-97767238D01*
X88225333Y-97862476D01*
X88130095Y-97910095D01*
X89558666Y-97957714D02*
X89558666Y-98624380D01*
X89320571Y-97576761D02*
X89082476Y-98291047D01*
X89701523Y-98291047D01*
%TO.C,C30*%
X101465142Y-114911142D02*
X101417523Y-114958761D01*
X101274666Y-115006380D01*
X101179428Y-115006380D01*
X101036571Y-114958761D01*
X100941333Y-114863523D01*
X100893714Y-114768285D01*
X100846095Y-114577809D01*
X100846095Y-114434952D01*
X100893714Y-114244476D01*
X100941333Y-114149238D01*
X101036571Y-114054000D01*
X101179428Y-114006380D01*
X101274666Y-114006380D01*
X101417523Y-114054000D01*
X101465142Y-114101619D01*
X101798476Y-114006380D02*
X102417523Y-114006380D01*
X102084190Y-114387333D01*
X102227047Y-114387333D01*
X102322285Y-114434952D01*
X102369904Y-114482571D01*
X102417523Y-114577809D01*
X102417523Y-114815904D01*
X102369904Y-114911142D01*
X102322285Y-114958761D01*
X102227047Y-115006380D01*
X101941333Y-115006380D01*
X101846095Y-114958761D01*
X101798476Y-114911142D01*
X103036571Y-114006380D02*
X103131809Y-114006380D01*
X103227047Y-114054000D01*
X103274666Y-114101619D01*
X103322285Y-114196857D01*
X103369904Y-114387333D01*
X103369904Y-114625428D01*
X103322285Y-114815904D01*
X103274666Y-114911142D01*
X103227047Y-114958761D01*
X103131809Y-115006380D01*
X103036571Y-115006380D01*
X102941333Y-114958761D01*
X102893714Y-114911142D01*
X102846095Y-114815904D01*
X102798476Y-114625428D01*
X102798476Y-114387333D01*
X102846095Y-114196857D01*
X102893714Y-114101619D01*
X102941333Y-114054000D01*
X103036571Y-114006380D01*
%TO.C,C24*%
X95623142Y-68839142D02*
X95575523Y-68886761D01*
X95432666Y-68934380D01*
X95337428Y-68934380D01*
X95194571Y-68886761D01*
X95099333Y-68791523D01*
X95051714Y-68696285D01*
X95004095Y-68505809D01*
X95004095Y-68362952D01*
X95051714Y-68172476D01*
X95099333Y-68077238D01*
X95194571Y-67982000D01*
X95337428Y-67934380D01*
X95432666Y-67934380D01*
X95575523Y-67982000D01*
X95623142Y-68029619D01*
X96004095Y-68029619D02*
X96051714Y-67982000D01*
X96146952Y-67934380D01*
X96385047Y-67934380D01*
X96480285Y-67982000D01*
X96527904Y-68029619D01*
X96575523Y-68124857D01*
X96575523Y-68220095D01*
X96527904Y-68362952D01*
X95956476Y-68934380D01*
X96575523Y-68934380D01*
X97432666Y-68267714D02*
X97432666Y-68934380D01*
X97194571Y-67886761D02*
X96956476Y-68601047D01*
X97575523Y-68601047D01*
%TO.C,U6*%
X87884095Y-107307380D02*
X87884095Y-108116904D01*
X87931714Y-108212142D01*
X87979333Y-108259761D01*
X88074571Y-108307380D01*
X88265047Y-108307380D01*
X88360285Y-108259761D01*
X88407904Y-108212142D01*
X88455523Y-108116904D01*
X88455523Y-107307380D01*
X89360285Y-107307380D02*
X89169809Y-107307380D01*
X89074571Y-107355000D01*
X89026952Y-107402619D01*
X88931714Y-107545476D01*
X88884095Y-107735952D01*
X88884095Y-108116904D01*
X88931714Y-108212142D01*
X88979333Y-108259761D01*
X89074571Y-108307380D01*
X89265047Y-108307380D01*
X89360285Y-108259761D01*
X89407904Y-108212142D01*
X89455523Y-108116904D01*
X89455523Y-107878809D01*
X89407904Y-107783571D01*
X89360285Y-107735952D01*
X89265047Y-107688333D01*
X89074571Y-107688333D01*
X88979333Y-107735952D01*
X88931714Y-107783571D01*
X88884095Y-107878809D01*
%TO.C,C6*%
X56872142Y-96051666D02*
X56919761Y-96099285D01*
X56967380Y-96242142D01*
X56967380Y-96337380D01*
X56919761Y-96480238D01*
X56824523Y-96575476D01*
X56729285Y-96623095D01*
X56538809Y-96670714D01*
X56395952Y-96670714D01*
X56205476Y-96623095D01*
X56110238Y-96575476D01*
X56015000Y-96480238D01*
X55967380Y-96337380D01*
X55967380Y-96242142D01*
X56015000Y-96099285D01*
X56062619Y-96051666D01*
X55967380Y-95194523D02*
X55967380Y-95385000D01*
X56015000Y-95480238D01*
X56062619Y-95527857D01*
X56205476Y-95623095D01*
X56395952Y-95670714D01*
X56776904Y-95670714D01*
X56872142Y-95623095D01*
X56919761Y-95575476D01*
X56967380Y-95480238D01*
X56967380Y-95289761D01*
X56919761Y-95194523D01*
X56872142Y-95146904D01*
X56776904Y-95099285D01*
X56538809Y-95099285D01*
X56443571Y-95146904D01*
X56395952Y-95194523D01*
X56348333Y-95289761D01*
X56348333Y-95480238D01*
X56395952Y-95575476D01*
X56443571Y-95623095D01*
X56538809Y-95670714D01*
%TO.C,R1*%
X56078380Y-113450666D02*
X55602190Y-113784000D01*
X56078380Y-114022095D02*
X55078380Y-114022095D01*
X55078380Y-113641142D01*
X55126000Y-113545904D01*
X55173619Y-113498285D01*
X55268857Y-113450666D01*
X55411714Y-113450666D01*
X55506952Y-113498285D01*
X55554571Y-113545904D01*
X55602190Y-113641142D01*
X55602190Y-114022095D01*
X56078380Y-112498285D02*
X56078380Y-113069714D01*
X56078380Y-112784000D02*
X55078380Y-112784000D01*
X55221238Y-112879238D01*
X55316476Y-112974476D01*
X55364095Y-113069714D01*
%TO.C,J3*%
X65147380Y-66183333D02*
X65861666Y-66183333D01*
X66004523Y-66230952D01*
X66099761Y-66326190D01*
X66147380Y-66469047D01*
X66147380Y-66564285D01*
X65147380Y-65802380D02*
X65147380Y-65183333D01*
X65528333Y-65516666D01*
X65528333Y-65373809D01*
X65575952Y-65278571D01*
X65623571Y-65230952D01*
X65718809Y-65183333D01*
X65956904Y-65183333D01*
X66052142Y-65230952D01*
X66099761Y-65278571D01*
X66147380Y-65373809D01*
X66147380Y-65659523D01*
X66099761Y-65754761D01*
X66052142Y-65802380D01*
%TO.C,R17*%
X82796142Y-113862380D02*
X82462809Y-113386190D01*
X82224714Y-113862380D02*
X82224714Y-112862380D01*
X82605666Y-112862380D01*
X82700904Y-112910000D01*
X82748523Y-112957619D01*
X82796142Y-113052857D01*
X82796142Y-113195714D01*
X82748523Y-113290952D01*
X82700904Y-113338571D01*
X82605666Y-113386190D01*
X82224714Y-113386190D01*
X83748523Y-113862380D02*
X83177095Y-113862380D01*
X83462809Y-113862380D02*
X83462809Y-112862380D01*
X83367571Y-113005238D01*
X83272333Y-113100476D01*
X83177095Y-113148095D01*
X84081857Y-112862380D02*
X84748523Y-112862380D01*
X84319952Y-113862380D01*
%TO.C,R6*%
X84018380Y-68619666D02*
X83542190Y-68953000D01*
X84018380Y-69191095D02*
X83018380Y-69191095D01*
X83018380Y-68810142D01*
X83066000Y-68714904D01*
X83113619Y-68667285D01*
X83208857Y-68619666D01*
X83351714Y-68619666D01*
X83446952Y-68667285D01*
X83494571Y-68714904D01*
X83542190Y-68810142D01*
X83542190Y-69191095D01*
X83018380Y-67762523D02*
X83018380Y-67953000D01*
X83066000Y-68048238D01*
X83113619Y-68095857D01*
X83256476Y-68191095D01*
X83446952Y-68238714D01*
X83827904Y-68238714D01*
X83923142Y-68191095D01*
X83970761Y-68143476D01*
X84018380Y-68048238D01*
X84018380Y-67857761D01*
X83970761Y-67762523D01*
X83923142Y-67714904D01*
X83827904Y-67667285D01*
X83589809Y-67667285D01*
X83494571Y-67714904D01*
X83446952Y-67762523D01*
X83399333Y-67857761D01*
X83399333Y-68048238D01*
X83446952Y-68143476D01*
X83494571Y-68191095D01*
X83589809Y-68238714D01*
%TO.C,C19*%
X75049142Y-99036142D02*
X75001523Y-99083761D01*
X74858666Y-99131380D01*
X74763428Y-99131380D01*
X74620571Y-99083761D01*
X74525333Y-98988523D01*
X74477714Y-98893285D01*
X74430095Y-98702809D01*
X74430095Y-98559952D01*
X74477714Y-98369476D01*
X74525333Y-98274238D01*
X74620571Y-98179000D01*
X74763428Y-98131380D01*
X74858666Y-98131380D01*
X75001523Y-98179000D01*
X75049142Y-98226619D01*
X76001523Y-99131380D02*
X75430095Y-99131380D01*
X75715809Y-99131380D02*
X75715809Y-98131380D01*
X75620571Y-98274238D01*
X75525333Y-98369476D01*
X75430095Y-98417095D01*
X76477714Y-99131380D02*
X76668190Y-99131380D01*
X76763428Y-99083761D01*
X76811047Y-99036142D01*
X76906285Y-98893285D01*
X76953904Y-98702809D01*
X76953904Y-98321857D01*
X76906285Y-98226619D01*
X76858666Y-98179000D01*
X76763428Y-98131380D01*
X76572952Y-98131380D01*
X76477714Y-98179000D01*
X76430095Y-98226619D01*
X76382476Y-98321857D01*
X76382476Y-98559952D01*
X76430095Y-98655190D01*
X76477714Y-98702809D01*
X76572952Y-98750428D01*
X76763428Y-98750428D01*
X76858666Y-98702809D01*
X76906285Y-98655190D01*
X76953904Y-98559952D01*
%TO.C,C26*%
X73525142Y-92051142D02*
X73477523Y-92098761D01*
X73334666Y-92146380D01*
X73239428Y-92146380D01*
X73096571Y-92098761D01*
X73001333Y-92003523D01*
X72953714Y-91908285D01*
X72906095Y-91717809D01*
X72906095Y-91574952D01*
X72953714Y-91384476D01*
X73001333Y-91289238D01*
X73096571Y-91194000D01*
X73239428Y-91146380D01*
X73334666Y-91146380D01*
X73477523Y-91194000D01*
X73525142Y-91241619D01*
X73906095Y-91241619D02*
X73953714Y-91194000D01*
X74048952Y-91146380D01*
X74287047Y-91146380D01*
X74382285Y-91194000D01*
X74429904Y-91241619D01*
X74477523Y-91336857D01*
X74477523Y-91432095D01*
X74429904Y-91574952D01*
X73858476Y-92146380D01*
X74477523Y-92146380D01*
X75334666Y-91146380D02*
X75144190Y-91146380D01*
X75048952Y-91194000D01*
X75001333Y-91241619D01*
X74906095Y-91384476D01*
X74858476Y-91574952D01*
X74858476Y-91955904D01*
X74906095Y-92051142D01*
X74953714Y-92098761D01*
X75048952Y-92146380D01*
X75239428Y-92146380D01*
X75334666Y-92098761D01*
X75382285Y-92051142D01*
X75429904Y-91955904D01*
X75429904Y-91717809D01*
X75382285Y-91622571D01*
X75334666Y-91574952D01*
X75239428Y-91527333D01*
X75048952Y-91527333D01*
X74953714Y-91574952D01*
X74906095Y-91622571D01*
X74858476Y-91717809D01*
%TO.C,R15*%
X91305142Y-68904380D02*
X90971809Y-68428190D01*
X90733714Y-68904380D02*
X90733714Y-67904380D01*
X91114666Y-67904380D01*
X91209904Y-67952000D01*
X91257523Y-67999619D01*
X91305142Y-68094857D01*
X91305142Y-68237714D01*
X91257523Y-68332952D01*
X91209904Y-68380571D01*
X91114666Y-68428190D01*
X90733714Y-68428190D01*
X92257523Y-68904380D02*
X91686095Y-68904380D01*
X91971809Y-68904380D02*
X91971809Y-67904380D01*
X91876571Y-68047238D01*
X91781333Y-68142476D01*
X91686095Y-68190095D01*
X93162285Y-67904380D02*
X92686095Y-67904380D01*
X92638476Y-68380571D01*
X92686095Y-68332952D01*
X92781333Y-68285333D01*
X93019428Y-68285333D01*
X93114666Y-68332952D01*
X93162285Y-68380571D01*
X93209904Y-68475809D01*
X93209904Y-68713904D01*
X93162285Y-68809142D01*
X93114666Y-68856761D01*
X93019428Y-68904380D01*
X92781333Y-68904380D01*
X92686095Y-68856761D01*
X92638476Y-68809142D01*
%TO.C,H2*%
X117729095Y-112593380D02*
X117729095Y-111593380D01*
X117729095Y-112069571D02*
X118300523Y-112069571D01*
X118300523Y-112593380D02*
X118300523Y-111593380D01*
X118729095Y-111688619D02*
X118776714Y-111641000D01*
X118871952Y-111593380D01*
X119110047Y-111593380D01*
X119205285Y-111641000D01*
X119252904Y-111688619D01*
X119300523Y-111783857D01*
X119300523Y-111879095D01*
X119252904Y-112021952D01*
X118681476Y-112593380D01*
X119300523Y-112593380D01*
%TO.C,C1*%
X55121142Y-83859666D02*
X55168761Y-83907285D01*
X55216380Y-84050142D01*
X55216380Y-84145380D01*
X55168761Y-84288238D01*
X55073523Y-84383476D01*
X54978285Y-84431095D01*
X54787809Y-84478714D01*
X54644952Y-84478714D01*
X54454476Y-84431095D01*
X54359238Y-84383476D01*
X54264000Y-84288238D01*
X54216380Y-84145380D01*
X54216380Y-84050142D01*
X54264000Y-83907285D01*
X54311619Y-83859666D01*
X55216380Y-82907285D02*
X55216380Y-83478714D01*
X55216380Y-83193000D02*
X54216380Y-83193000D01*
X54359238Y-83288238D01*
X54454476Y-83383476D01*
X54502095Y-83478714D01*
%TO.C,R5*%
X61158380Y-113450666D02*
X60682190Y-113784000D01*
X61158380Y-114022095D02*
X60158380Y-114022095D01*
X60158380Y-113641142D01*
X60206000Y-113545904D01*
X60253619Y-113498285D01*
X60348857Y-113450666D01*
X60491714Y-113450666D01*
X60586952Y-113498285D01*
X60634571Y-113545904D01*
X60682190Y-113641142D01*
X60682190Y-114022095D01*
X60158380Y-112545904D02*
X60158380Y-113022095D01*
X60634571Y-113069714D01*
X60586952Y-113022095D01*
X60539333Y-112926857D01*
X60539333Y-112688761D01*
X60586952Y-112593523D01*
X60634571Y-112545904D01*
X60729809Y-112498285D01*
X60967904Y-112498285D01*
X61063142Y-112545904D01*
X61110761Y-112593523D01*
X61158380Y-112688761D01*
X61158380Y-112926857D01*
X61110761Y-113022095D01*
X61063142Y-113069714D01*
%TO.C,Q2*%
X59086761Y-104573619D02*
X58991523Y-104526000D01*
X58896285Y-104430761D01*
X58753428Y-104287904D01*
X58658190Y-104240285D01*
X58562952Y-104240285D01*
X58610571Y-104478380D02*
X58515333Y-104430761D01*
X58420095Y-104335523D01*
X58372476Y-104145047D01*
X58372476Y-103811714D01*
X58420095Y-103621238D01*
X58515333Y-103526000D01*
X58610571Y-103478380D01*
X58801047Y-103478380D01*
X58896285Y-103526000D01*
X58991523Y-103621238D01*
X59039142Y-103811714D01*
X59039142Y-104145047D01*
X58991523Y-104335523D01*
X58896285Y-104430761D01*
X58801047Y-104478380D01*
X58610571Y-104478380D01*
X59420095Y-103573619D02*
X59467714Y-103526000D01*
X59562952Y-103478380D01*
X59801047Y-103478380D01*
X59896285Y-103526000D01*
X59943904Y-103573619D01*
X59991523Y-103668857D01*
X59991523Y-103764095D01*
X59943904Y-103906952D01*
X59372476Y-104478380D01*
X59991523Y-104478380D01*
%TO.C,C32*%
X93546142Y-106626857D02*
X93593761Y-106674476D01*
X93641380Y-106817333D01*
X93641380Y-106912571D01*
X93593761Y-107055428D01*
X93498523Y-107150666D01*
X93403285Y-107198285D01*
X93212809Y-107245904D01*
X93069952Y-107245904D01*
X92879476Y-107198285D01*
X92784238Y-107150666D01*
X92689000Y-107055428D01*
X92641380Y-106912571D01*
X92641380Y-106817333D01*
X92689000Y-106674476D01*
X92736619Y-106626857D01*
X92641380Y-106293523D02*
X92641380Y-105674476D01*
X93022333Y-106007809D01*
X93022333Y-105864952D01*
X93069952Y-105769714D01*
X93117571Y-105722095D01*
X93212809Y-105674476D01*
X93450904Y-105674476D01*
X93546142Y-105722095D01*
X93593761Y-105769714D01*
X93641380Y-105864952D01*
X93641380Y-106150666D01*
X93593761Y-106245904D01*
X93546142Y-106293523D01*
X92736619Y-105293523D02*
X92689000Y-105245904D01*
X92641380Y-105150666D01*
X92641380Y-104912571D01*
X92689000Y-104817333D01*
X92736619Y-104769714D01*
X92831857Y-104722095D01*
X92927095Y-104722095D01*
X93069952Y-104769714D01*
X93641380Y-105341142D01*
X93641380Y-104722095D01*
%TO.C,H3*%
X27559095Y-112720380D02*
X27559095Y-111720380D01*
X27559095Y-112196571D02*
X28130523Y-112196571D01*
X28130523Y-112720380D02*
X28130523Y-111720380D01*
X28511476Y-111720380D02*
X29130523Y-111720380D01*
X28797190Y-112101333D01*
X28940047Y-112101333D01*
X29035285Y-112148952D01*
X29082904Y-112196571D01*
X29130523Y-112291809D01*
X29130523Y-112529904D01*
X29082904Y-112625142D01*
X29035285Y-112672761D01*
X28940047Y-112720380D01*
X28654333Y-112720380D01*
X28559095Y-112672761D01*
X28511476Y-112625142D01*
%TO.C,L1*%
X88072833Y-77828380D02*
X87596642Y-77828380D01*
X87596642Y-76828380D01*
X88929976Y-77828380D02*
X88358547Y-77828380D01*
X88644261Y-77828380D02*
X88644261Y-76828380D01*
X88549023Y-76971238D01*
X88453785Y-77066476D01*
X88358547Y-77114095D01*
%TO.C,L5*%
X68159333Y-82240380D02*
X67683142Y-82240380D01*
X67683142Y-81240380D01*
X68968857Y-81240380D02*
X68492666Y-81240380D01*
X68445047Y-81716571D01*
X68492666Y-81668952D01*
X68587904Y-81621333D01*
X68826000Y-81621333D01*
X68921238Y-81668952D01*
X68968857Y-81716571D01*
X69016476Y-81811809D01*
X69016476Y-82049904D01*
X68968857Y-82145142D01*
X68921238Y-82192761D01*
X68826000Y-82240380D01*
X68587904Y-82240380D01*
X68492666Y-82192761D01*
X68445047Y-82145142D01*
%TO.C,C29*%
X105021142Y-100306142D02*
X104973523Y-100353761D01*
X104830666Y-100401380D01*
X104735428Y-100401380D01*
X104592571Y-100353761D01*
X104497333Y-100258523D01*
X104449714Y-100163285D01*
X104402095Y-99972809D01*
X104402095Y-99829952D01*
X104449714Y-99639476D01*
X104497333Y-99544238D01*
X104592571Y-99449000D01*
X104735428Y-99401380D01*
X104830666Y-99401380D01*
X104973523Y-99449000D01*
X105021142Y-99496619D01*
X105402095Y-99496619D02*
X105449714Y-99449000D01*
X105544952Y-99401380D01*
X105783047Y-99401380D01*
X105878285Y-99449000D01*
X105925904Y-99496619D01*
X105973523Y-99591857D01*
X105973523Y-99687095D01*
X105925904Y-99829952D01*
X105354476Y-100401380D01*
X105973523Y-100401380D01*
X106449714Y-100401380D02*
X106640190Y-100401380D01*
X106735428Y-100353761D01*
X106783047Y-100306142D01*
X106878285Y-100163285D01*
X106925904Y-99972809D01*
X106925904Y-99591857D01*
X106878285Y-99496619D01*
X106830666Y-99449000D01*
X106735428Y-99401380D01*
X106544952Y-99401380D01*
X106449714Y-99449000D01*
X106402095Y-99496619D01*
X106354476Y-99591857D01*
X106354476Y-99829952D01*
X106402095Y-99925190D01*
X106449714Y-99972809D01*
X106544952Y-100020428D01*
X106735428Y-100020428D01*
X106830666Y-99972809D01*
X106878285Y-99925190D01*
X106925904Y-99829952D01*
D11*
%TO.C,C7*%
X52478000Y-110878252D02*
X52478000Y-110355748D01*
X53948000Y-110878252D02*
X53948000Y-110355748D01*
%TO.C,R19*%
X77115936Y-94969000D02*
X77570064Y-94969000D01*
X77115936Y-93499000D02*
X77570064Y-93499000D01*
%TO.C,C11*%
X98882252Y-94128000D02*
X97459748Y-94128000D01*
X98882252Y-92308000D02*
X97459748Y-92308000D01*
%TO.C,C3*%
X60092000Y-97459748D02*
X60092000Y-98882252D01*
X58272000Y-97459748D02*
X58272000Y-98882252D01*
%TO.C,Q3*%
X91730000Y-71120000D02*
X91730000Y-71770000D01*
X88610000Y-71120000D02*
X88610000Y-72795000D01*
X91730000Y-71120000D02*
X91730000Y-70470000D01*
X88610000Y-71120000D02*
X88610000Y-70470000D01*
%TO.C,R3*%
X58573936Y-101246000D02*
X59028064Y-101246000D01*
X58573936Y-102716000D02*
X59028064Y-102716000D01*
%TO.C,R18*%
X78713064Y-114200000D02*
X78258936Y-114200000D01*
X78713064Y-115670000D02*
X78258936Y-115670000D01*
%TO.C,C10*%
X68572748Y-97944000D02*
X69095252Y-97944000D01*
X68572748Y-99414000D02*
X69095252Y-99414000D01*
%TO.C,C20*%
X102481748Y-94461000D02*
X103004252Y-94461000D01*
X102481748Y-92991000D02*
X103004252Y-92991000D01*
%TO.C,C31*%
X98163748Y-97255000D02*
X98686252Y-97255000D01*
X98163748Y-95785000D02*
X98686252Y-95785000D01*
%TO.C,C2*%
X88780252Y-79983000D02*
X88257748Y-79983000D01*
X88780252Y-78513000D02*
X88257748Y-78513000D01*
D10*
%TO.C,U7*%
X75589000Y-76557000D02*
X75589000Y-79907000D01*
X72239000Y-76557000D02*
X72539000Y-76557000D01*
X75589000Y-76557000D02*
X75364000Y-76557000D01*
X75589000Y-79907000D02*
X75289000Y-79907000D01*
X72239000Y-79907000D02*
X72539000Y-79907000D01*
X72239000Y-76557000D02*
X72239000Y-79907000D01*
X75364000Y-76557000D02*
X75364000Y-75332000D01*
D11*
%TO.C,Q1*%
X52542000Y-106426000D02*
X52542000Y-108101000D01*
X55662000Y-106426000D02*
X55662000Y-107076000D01*
X55662000Y-106426000D02*
X55662000Y-105776000D01*
X52542000Y-106426000D02*
X52542000Y-105776000D01*
%TO.C,J6*%
X114786000Y-89030000D02*
X118386000Y-89030000D01*
X114786000Y-96390000D02*
X118386000Y-96390000D01*
X120266000Y-90910000D02*
X120266000Y-94510000D01*
X112906000Y-90910000D02*
X112906000Y-94510000D01*
%TO.C,C18*%
X68064748Y-82704000D02*
X68587252Y-82704000D01*
X68064748Y-84174000D02*
X68587252Y-84174000D01*
%TO.C,L6*%
X102199221Y-96649000D02*
X102524779Y-96649000D01*
X102199221Y-95629000D02*
X102524779Y-95629000D01*
%TO.C,C15*%
X74268000Y-101973748D02*
X74268000Y-102496252D01*
X72798000Y-101973748D02*
X72798000Y-102496252D01*
%TO.C,JP1*%
X63516000Y-99444000D02*
X63516000Y-96644000D01*
X65516000Y-99444000D02*
X63516000Y-99444000D01*
X63516000Y-96644000D02*
X65516000Y-96644000D01*
X65516000Y-96644000D02*
X65516000Y-99444000D01*
%TO.C,C21*%
X80906252Y-99475000D02*
X80383748Y-99475000D01*
X80906252Y-98005000D02*
X80383748Y-98005000D01*
%TO.C,C28*%
X88625000Y-93063748D02*
X88625000Y-94486252D01*
X90445000Y-93063748D02*
X90445000Y-94486252D01*
%TO.C,C8*%
X58935252Y-72544000D02*
X58412748Y-72544000D01*
X58935252Y-74014000D02*
X58412748Y-74014000D01*
%TO.C,R22*%
X94103564Y-109955000D02*
X93649436Y-109955000D01*
X94103564Y-108485000D02*
X93649436Y-108485000D01*
%TO.C,R24*%
X98652064Y-100684000D02*
X98197936Y-100684000D01*
X98652064Y-99214000D02*
X98197936Y-99214000D01*
%TO.C,J4*%
X99444000Y-66272000D02*
X99444000Y-69872000D01*
X101324000Y-64392000D02*
X104924000Y-64392000D01*
X101324000Y-71752000D02*
X104924000Y-71752000D01*
X106804000Y-66272000D02*
X106804000Y-69872000D01*
%TO.C,R7*%
X80418000Y-71019936D02*
X80418000Y-71474064D01*
X81888000Y-71019936D02*
X81888000Y-71474064D01*
%TO.C,C25*%
X83177748Y-114200000D02*
X83700252Y-114200000D01*
X83177748Y-115670000D02*
X83700252Y-115670000D01*
%TO.C,R13*%
X85444064Y-109447000D02*
X84989936Y-109447000D01*
X85444064Y-107977000D02*
X84989936Y-107977000D01*
%TO.C,L4*%
X84965000Y-94325221D02*
X84965000Y-94650779D01*
X83945000Y-94325221D02*
X83945000Y-94650779D01*
%TO.C,L7*%
X80962779Y-92210000D02*
X80637221Y-92210000D01*
X80962779Y-91190000D02*
X80637221Y-91190000D01*
%TO.C,C13*%
X79475000Y-105275748D02*
X79475000Y-105798252D01*
X78005000Y-105275748D02*
X78005000Y-105798252D01*
%TO.C,R10*%
X81561000Y-101888064D02*
X81561000Y-101433936D01*
X83031000Y-101888064D02*
X83031000Y-101433936D01*
%TO.C,J2*%
X33906000Y-100689000D02*
X33906000Y-104289000D01*
X28426000Y-106169000D02*
X32026000Y-106169000D01*
X26546000Y-100689000D02*
X26546000Y-104289000D01*
X28426000Y-98809000D02*
X32026000Y-98809000D01*
%TO.C,R27*%
X102007936Y-108485000D02*
X102462064Y-108485000D01*
X102007936Y-109955000D02*
X102462064Y-109955000D01*
%TO.C,J5*%
X114913000Y-100206000D02*
X118513000Y-100206000D01*
X113033000Y-102086000D02*
X113033000Y-105686000D01*
X114913000Y-107566000D02*
X118513000Y-107566000D01*
X120393000Y-102086000D02*
X120393000Y-105686000D01*
%TO.C,R12*%
X85371000Y-71601064D02*
X85371000Y-71146936D01*
X86841000Y-71601064D02*
X86841000Y-71146936D01*
%TO.C,R16*%
X93753000Y-70638936D02*
X93753000Y-71093064D01*
X95223000Y-70638936D02*
X95223000Y-71093064D01*
%TO.C,C34*%
X109593748Y-92102000D02*
X110116252Y-92102000D01*
X109593748Y-93572000D02*
X110116252Y-93572000D01*
%TO.C,R25*%
X93752936Y-95912000D02*
X94207064Y-95912000D01*
X93752936Y-97382000D02*
X94207064Y-97382000D01*
%TO.C,R28*%
X93752936Y-94334000D02*
X94207064Y-94334000D01*
X93752936Y-92864000D02*
X94207064Y-92864000D01*
%TO.C,R23*%
X98070936Y-112041000D02*
X98525064Y-112041000D01*
X98070936Y-113511000D02*
X98525064Y-113511000D01*
%TO.C,C17*%
X80510748Y-108038000D02*
X81033252Y-108038000D01*
X80510748Y-109508000D02*
X81033252Y-109508000D01*
%TO.C,L2*%
X54485000Y-98770221D02*
X54485000Y-99095779D01*
X53465000Y-98770221D02*
X53465000Y-99095779D01*
%TO.C,C22*%
X74550600Y-112834052D02*
X74550600Y-112311548D01*
X76020600Y-112834052D02*
X76020600Y-112311548D01*
%TO.C,C5*%
X63849000Y-68092000D02*
G75*
G03*
X63849000Y-68092000I-3270000J0D01*
G01*
%TO.C,U5*%
X67818000Y-106113000D02*
X65618000Y-106113000D01*
X67818000Y-100643000D02*
X70018000Y-100643000D01*
X67818000Y-106113000D02*
X70018000Y-106113000D01*
X67818000Y-100643000D02*
X64218000Y-100643000D01*
%TO.C,U3*%
X82042000Y-75194000D02*
X83992000Y-75194000D01*
X82042000Y-84064000D02*
X83992000Y-84064000D01*
X82042000Y-75194000D02*
X78592000Y-75194000D01*
X82042000Y-84064000D02*
X80092000Y-84064000D01*
%TO.C,R2*%
X53874936Y-102843000D02*
X54329064Y-102843000D01*
X53874936Y-101373000D02*
X54329064Y-101373000D01*
%TO.C,R11*%
X78586064Y-111025000D02*
X78131936Y-111025000D01*
X78586064Y-112495000D02*
X78131936Y-112495000D01*
%TO.C,R26*%
X98652064Y-108485000D02*
X98197936Y-108485000D01*
X98652064Y-109955000D02*
X98197936Y-109955000D01*
%TO.C,J1*%
X45486000Y-68782000D02*
X55606000Y-68782000D01*
X54396000Y-65649000D02*
X54347000Y-65699000D01*
X55606000Y-60222000D02*
X55606000Y-70842000D01*
X54179000Y-65432000D02*
X54154000Y-65456000D01*
X51938000Y-68107000D02*
X51914000Y-68132000D01*
X51746000Y-67865000D02*
X51696000Y-67915000D01*
X45486000Y-60222000D02*
X45486000Y-70842000D01*
X45486000Y-60222000D02*
X55606000Y-60222000D01*
X45246000Y-68842000D02*
X45246000Y-71082000D01*
X45486000Y-63782000D02*
X55606000Y-63782000D01*
X45486000Y-70842000D02*
X55606000Y-70842000D01*
X45486000Y-64782000D02*
X55606000Y-64782000D01*
X45246000Y-71082000D02*
X47246000Y-71082000D01*
X46407000Y-66086000D02*
G75*
G03*
X46406794Y-67477516I1638995J-696001D01*
G01*
X47350000Y-68421000D02*
G75*
G03*
X48076814Y-68562390I695998J1638986D01*
G01*
X49685000Y-67478000D02*
G75*
G03*
X49685206Y-66086484I-1638995J696001D01*
G01*
X48742000Y-65143000D02*
G75*
G03*
X47350484Y-65142794I-696001J-1638995D01*
G01*
X48046000Y-68562000D02*
G75*
G03*
X48741501Y-68420499I0J1780002D01*
G01*
X54826000Y-66782000D02*
G75*
G03*
X54826000Y-66782000I-1780000J0D01*
G01*
%TO.C,R4*%
X57431000Y-110844064D02*
X57431000Y-110389936D01*
X58901000Y-110844064D02*
X58901000Y-110389936D01*
%TO.C,T1*%
X51415000Y-103505000D02*
G75*
G03*
X51415000Y-103505000I-7600000J0D01*
G01*
X47115000Y-103505000D02*
G75*
G03*
X47115000Y-103505000I-3300000J0D01*
G01*
%TO.C,C4*%
X41823000Y-78994000D02*
G75*
G03*
X41823000Y-78994000I-5120000J0D01*
G01*
%TO.C,Y1*%
X71088000Y-75185000D02*
X67088000Y-75185000D01*
X71088000Y-78485000D02*
X71088000Y-75185000D01*
%TO.C,C14*%
X79475000Y-101399748D02*
X79475000Y-101922252D01*
X78005000Y-101399748D02*
X78005000Y-101922252D01*
%TO.C,C33*%
X109974748Y-104621000D02*
X110497252Y-104621000D01*
X109974748Y-103151000D02*
X110497252Y-103151000D01*
%TO.C,C27*%
X93268748Y-111739000D02*
X94691252Y-111739000D01*
X93268748Y-113559000D02*
X94691252Y-113559000D01*
%TO.C,C23*%
X74429252Y-82577000D02*
X73906748Y-82577000D01*
X74429252Y-84047000D02*
X73906748Y-84047000D01*
%TO.C,C16*%
X72600452Y-112596600D02*
X72077948Y-112596600D01*
X72600452Y-111126600D02*
X72077948Y-111126600D01*
%TO.C,U8*%
X99949000Y-101961000D02*
X96499000Y-101961000D01*
X99949000Y-101961000D02*
X101899000Y-101961000D01*
X99949000Y-107081000D02*
X101899000Y-107081000D01*
X99949000Y-107081000D02*
X97999000Y-107081000D01*
%TO.C,R9*%
X72871064Y-95404000D02*
X72416936Y-95404000D01*
X72871064Y-96874000D02*
X72416936Y-96874000D01*
%TO.C,C12*%
X87603000Y-93972748D02*
X87603000Y-94495252D01*
X86133000Y-93972748D02*
X86133000Y-94495252D01*
%TO.C,R8*%
X83031000Y-105698064D02*
X83031000Y-105243936D01*
X81561000Y-105698064D02*
X81561000Y-105243936D01*
%TO.C,R21*%
X94207064Y-100684000D02*
X93752936Y-100684000D01*
X94207064Y-99214000D02*
X93752936Y-99214000D01*
%TO.C,L3*%
X68417221Y-97030000D02*
X68742779Y-97030000D01*
X68417221Y-96010000D02*
X68742779Y-96010000D01*
%TO.C,R20*%
X80925936Y-93499000D02*
X81380064Y-93499000D01*
X80925936Y-94969000D02*
X81380064Y-94969000D01*
%TO.C,C9*%
X61441000Y-79824252D02*
X61441000Y-79301748D01*
X59971000Y-79824252D02*
X59971000Y-79301748D01*
%TO.C,R14*%
X88164936Y-100557000D02*
X88619064Y-100557000D01*
X88164936Y-99087000D02*
X88619064Y-99087000D01*
%TO.C,C30*%
X102496252Y-112041000D02*
X101973748Y-112041000D01*
X102496252Y-113511000D02*
X101973748Y-113511000D01*
%TO.C,C24*%
X96527252Y-67537000D02*
X96004748Y-67537000D01*
X96527252Y-66067000D02*
X96004748Y-66067000D01*
%TO.C,U6*%
X88646000Y-107015000D02*
X92096000Y-107015000D01*
X88646000Y-107015000D02*
X86696000Y-107015000D01*
X88646000Y-101895000D02*
X90596000Y-101895000D01*
X88646000Y-101895000D02*
X86696000Y-101895000D01*
%TO.C,C6*%
X55780000Y-98544748D02*
X55780000Y-99067252D01*
X57250000Y-98544748D02*
X57250000Y-99067252D01*
%TO.C,R1*%
X56361000Y-110389936D02*
X56361000Y-110844064D01*
X54891000Y-110389936D02*
X54891000Y-110844064D01*
%TO.C,J3*%
X69295000Y-67180000D02*
X69295000Y-64520000D01*
X68025000Y-67180000D02*
X66695000Y-67180000D01*
X66695000Y-67180000D02*
X66695000Y-65850000D01*
X79515000Y-67180000D02*
X79515000Y-64520000D01*
X69295000Y-64520000D02*
X79515000Y-64520000D01*
X69295000Y-67180000D02*
X79515000Y-67180000D01*
%TO.C,R17*%
X83666064Y-112495000D02*
X83211936Y-112495000D01*
X83666064Y-111025000D02*
X83211936Y-111025000D01*
%TO.C,R6*%
X82831000Y-71019936D02*
X82831000Y-71474064D01*
X84301000Y-71019936D02*
X84301000Y-71474064D01*
%TO.C,C19*%
X72382748Y-97944000D02*
X72905252Y-97944000D01*
X72382748Y-99414000D02*
X72905252Y-99414000D01*
%TO.C,C26*%
X77081748Y-92429000D02*
X77604252Y-92429000D01*
X77081748Y-90959000D02*
X77604252Y-90959000D01*
%TO.C,R15*%
X92175064Y-67537000D02*
X91720936Y-67537000D01*
X92175064Y-66067000D02*
X91720936Y-66067000D01*
%TO.C,C1*%
X53634000Y-83693000D02*
G75*
G03*
X53634000Y-83693000I-5120000J0D01*
G01*
%TO.C,R5*%
X61441000Y-110844064D02*
X61441000Y-110389936D01*
X59971000Y-110844064D02*
X59971000Y-110389936D01*
%TO.C,Q2*%
X59182000Y-107986000D02*
X58532000Y-107986000D01*
X59182000Y-104866000D02*
X57507000Y-104866000D01*
X59182000Y-107986000D02*
X59832000Y-107986000D01*
X59182000Y-104866000D02*
X59832000Y-104866000D01*
%TO.C,C32*%
X95604000Y-106245252D02*
X95604000Y-105722748D01*
X94134000Y-106245252D02*
X94134000Y-105722748D01*
%TO.C,L1*%
X88402279Y-75436000D02*
X88076721Y-75436000D01*
X88402279Y-76456000D02*
X88076721Y-76456000D01*
%TO.C,L5*%
X68188721Y-80774000D02*
X68514279Y-80774000D01*
X68188721Y-79754000D02*
X68514279Y-79754000D01*
%TO.C,C29*%
X102623252Y-100684000D02*
X102100748Y-100684000D01*
X102623252Y-99214000D02*
X102100748Y-99214000D01*
%TD*%
M02*
