%TF.GenerationSoftware,KiCad,Pcbnew,7.0.7*%
%TF.CreationDate,2023-12-04T17:07:47+01:00*%
%TF.ProjectId,sdrt41,73647274-3431-42e6-9b69-6361645f7063,rev?*%
%TF.SameCoordinates,Original*%
%TF.FileFunction,Paste,Top*%
%TF.FilePolarity,Positive*%
%FSLAX46Y46*%
G04 Gerber Fmt 4.6, Leading zero omitted, Abs format (unit mm)*
G04 Created by KiCad (PCBNEW 7.0.7) date 2023-12-04 17:07:47*
%MOMM*%
%LPD*%
G01*
G04 APERTURE LIST*
G04 Aperture macros list*
%AMRoundRect*
0 Rectangle with rounded corners*
0 $1 Rounding radius*
0 $2 $3 $4 $5 $6 $7 $8 $9 X,Y pos of 4 corners*
0 Add a 4 corners polygon primitive as box body*
4,1,4,$2,$3,$4,$5,$6,$7,$8,$9,$2,$3,0*
0 Add four circle primitives for the rounded corners*
1,1,$1+$1,$2,$3*
1,1,$1+$1,$4,$5*
1,1,$1+$1,$6,$7*
1,1,$1+$1,$8,$9*
0 Add four rect primitives between the rounded corners*
20,1,$1+$1,$2,$3,$4,$5,0*
20,1,$1+$1,$4,$5,$6,$7,0*
20,1,$1+$1,$6,$7,$8,$9,0*
20,1,$1+$1,$8,$9,$2,$3,0*%
G04 Aperture macros list end*
%ADD10RoundRect,0.250000X-0.475000X0.250000X-0.475000X-0.250000X0.475000X-0.250000X0.475000X0.250000X0*%
%ADD11RoundRect,0.250000X-0.250000X-0.475000X0.250000X-0.475000X0.250000X0.475000X-0.250000X0.475000X0*%
%ADD12RoundRect,0.250000X-0.262500X-0.450000X0.262500X-0.450000X0.262500X0.450000X-0.262500X0.450000X0*%
%ADD13RoundRect,0.250000X0.262500X0.450000X-0.262500X0.450000X-0.262500X-0.450000X0.262500X-0.450000X0*%
%ADD14RoundRect,0.100000X-0.637500X-0.100000X0.637500X-0.100000X0.637500X0.100000X-0.637500X0.100000X0*%
%ADD15RoundRect,0.250000X0.250000X0.475000X-0.250000X0.475000X-0.250000X-0.475000X0.250000X-0.475000X0*%
%ADD16RoundRect,0.250000X0.250000X1.500000X-0.250000X1.500000X-0.250000X-1.500000X0.250000X-1.500000X0*%
%ADD17RoundRect,0.250001X0.499999X1.449999X-0.499999X1.449999X-0.499999X-1.449999X0.499999X-1.449999X0*%
%ADD18RoundRect,0.250000X-0.450000X0.262500X-0.450000X-0.262500X0.450000X-0.262500X0.450000X0.262500X0*%
%ADD19R,3.600000X1.500000*%
%ADD20RoundRect,0.250000X0.475000X-0.250000X0.475000X0.250000X-0.475000X0.250000X-0.475000X-0.250000X0*%
%ADD21RoundRect,0.218750X-0.218750X-0.256250X0.218750X-0.256250X0.218750X0.256250X-0.218750X0.256250X0*%
%ADD22RoundRect,0.218750X0.218750X0.256250X-0.218750X0.256250X-0.218750X-0.256250X0.218750X-0.256250X0*%
%ADD23RoundRect,0.250000X0.450000X-0.262500X0.450000X0.262500X-0.450000X0.262500X-0.450000X-0.262500X0*%
%ADD24RoundRect,0.250000X-0.550000X1.500000X-0.550000X-1.500000X0.550000X-1.500000X0.550000X1.500000X0*%
%ADD25RoundRect,0.218750X-0.256250X0.218750X-0.256250X-0.218750X0.256250X-0.218750X0.256250X0.218750X0*%
%ADD26RoundRect,0.250000X-1.000000X1.950000X-1.000000X-1.950000X1.000000X-1.950000X1.000000X1.950000X0*%
%ADD27RoundRect,0.150000X0.150000X-0.725000X0.150000X0.725000X-0.150000X0.725000X-0.150000X-0.725000X0*%
%ADD28RoundRect,0.150000X-0.725000X-0.150000X0.725000X-0.150000X0.725000X0.150000X-0.725000X0.150000X0*%
%ADD29RoundRect,0.150000X0.725000X0.150000X-0.725000X0.150000X-0.725000X-0.150000X0.725000X-0.150000X0*%
%ADD30RoundRect,0.218750X0.256250X-0.218750X0.256250X0.218750X-0.256250X0.218750X-0.256250X-0.218750X0*%
%ADD31RoundRect,0.250000X-0.295000X0.295000X-0.295000X-0.295000X0.295000X-0.295000X0.295000X0.295000X0*%
%ADD32RoundRect,0.062500X-0.062500X0.337500X-0.062500X-0.337500X0.062500X-0.337500X0.062500X0.337500X0*%
%ADD33RoundRect,0.062500X-0.337500X0.062500X-0.337500X-0.062500X0.337500X-0.062500X0.337500X0.062500X0*%
%ADD34R,1.200000X1.400000*%
G04 APERTURE END LIST*
D10*
%TO.C,C35*%
X183342200Y-115534400D03*
X183342200Y-117434400D03*
%TD*%
D11*
%TO.C,C49*%
X156446200Y-73050400D03*
X158346200Y-73050400D03*
%TD*%
%TO.C,C43*%
X143083700Y-77876400D03*
X144983700Y-77876400D03*
%TD*%
D12*
%TO.C,R13*%
X139376700Y-101752400D03*
X141201700Y-101752400D03*
%TD*%
D11*
%TO.C,C9*%
X164226200Y-101244400D03*
X166126200Y-101244400D03*
%TD*%
D12*
%TO.C,R44*%
X160143200Y-73050400D03*
X161968200Y-73050400D03*
%TD*%
D13*
%TO.C,R29*%
X172316700Y-114452400D03*
X170491700Y-114452400D03*
%TD*%
D14*
%TO.C,U10*%
X163837700Y-77633400D03*
X163837700Y-78283400D03*
X163837700Y-78933400D03*
X163837700Y-79583400D03*
X163837700Y-80233400D03*
X163837700Y-80883400D03*
X163837700Y-81533400D03*
X163837700Y-82183400D03*
X169562700Y-82183400D03*
X169562700Y-81533400D03*
X169562700Y-80883400D03*
X169562700Y-80233400D03*
X169562700Y-79583400D03*
X169562700Y-78933400D03*
X169562700Y-78283400D03*
X169562700Y-77633400D03*
%TD*%
D13*
%TO.C,R38*%
X157095200Y-85215400D03*
X155270200Y-85215400D03*
%TD*%
D15*
%TO.C,C53*%
X165712200Y-73050400D03*
X163812200Y-73050400D03*
%TD*%
D13*
%TO.C,R12*%
X142344700Y-122453400D03*
X140519700Y-122453400D03*
%TD*%
D15*
%TO.C,C7*%
X129601000Y-118097200D03*
X127701000Y-118097200D03*
%TD*%
D11*
%TO.C,C8*%
X130830200Y-106197400D03*
X132730200Y-106197400D03*
%TD*%
D16*
%TO.C,J3*%
X130076200Y-76662400D03*
X128076200Y-76662400D03*
X126076200Y-76662400D03*
X124076200Y-76662400D03*
D17*
X132426200Y-70912400D03*
X121726200Y-70912400D03*
%TD*%
D18*
%TO.C,R9*%
X131654648Y-80721511D03*
X131654648Y-82546511D03*
%TD*%
D15*
%TO.C,C40*%
X137170200Y-72034400D03*
X135270200Y-72034400D03*
%TD*%
D11*
%TO.C,C18*%
X164226200Y-103530400D03*
X166126200Y-103530400D03*
%TD*%
%TO.C,C27*%
X160421200Y-104038400D03*
X162321200Y-104038400D03*
%TD*%
D19*
%TO.C,L3*%
X133654800Y-117956600D03*
X133654800Y-121006600D03*
%TD*%
D20*
%TO.C,C61*%
X119964200Y-92857400D03*
X119964200Y-90957400D03*
%TD*%
D21*
%TO.C,L4*%
X164261700Y-105435400D03*
X165836700Y-105435400D03*
%TD*%
D10*
%TO.C,C13*%
X136479200Y-108803400D03*
X136479200Y-110703400D03*
%TD*%
D12*
%TO.C,R37*%
X151055700Y-83210400D03*
X152880700Y-83210400D03*
%TD*%
D15*
%TO.C,C19*%
X144541200Y-106258400D03*
X142641200Y-106258400D03*
%TD*%
D22*
%TO.C,L12*%
X129514700Y-89179400D03*
X127939700Y-89179400D03*
%TD*%
D10*
%TO.C,C24*%
X152730200Y-100343400D03*
X152730200Y-102243400D03*
%TD*%
D11*
%TO.C,C55*%
X163718200Y-86766400D03*
X165618200Y-86766400D03*
%TD*%
%TO.C,C50*%
X144414200Y-88036400D03*
X146314200Y-88036400D03*
%TD*%
D12*
%TO.C,R28*%
X170491700Y-112420400D03*
X172316700Y-112420400D03*
%TD*%
D13*
%TO.C,R16*%
X157735200Y-116738400D03*
X155910200Y-116738400D03*
%TD*%
D12*
%TO.C,R2*%
X124032000Y-121009200D03*
X125857000Y-121009200D03*
%TD*%
%TO.C,R47*%
X172137700Y-72288400D03*
X173962700Y-72288400D03*
%TD*%
D10*
%TO.C,C41*%
X136474200Y-81601900D03*
X136474200Y-83501900D03*
%TD*%
D23*
%TO.C,R23*%
X173690200Y-122881400D03*
X173690200Y-121056400D03*
%TD*%
D13*
%TO.C,R18*%
X162283700Y-107467400D03*
X160458700Y-107467400D03*
%TD*%
D12*
%TO.C,R45*%
X163755700Y-84480400D03*
X165580700Y-84480400D03*
%TD*%
D15*
%TO.C,C6*%
X129601000Y-121107200D03*
X127701000Y-121107200D03*
%TD*%
D18*
%TO.C,R36*%
X147650200Y-77537900D03*
X147650200Y-79362900D03*
%TD*%
D11*
%TO.C,C21*%
X145435200Y-122453400D03*
X147335200Y-122453400D03*
%TD*%
D10*
%TO.C,C56*%
X167970200Y-74386400D03*
X167970200Y-76286400D03*
%TD*%
D20*
%TO.C,C4*%
X114376200Y-83525400D03*
X114376200Y-81625400D03*
%TD*%
D24*
%TO.C,C3*%
X113106200Y-93972400D03*
X113106200Y-99372400D03*
%TD*%
D25*
%TO.C,L6*%
X172420200Y-108838900D03*
X172420200Y-110413900D03*
%TD*%
D18*
%TO.C,R35*%
X136474200Y-85345900D03*
X136474200Y-87170900D03*
%TD*%
D10*
%TO.C,C39*%
X148666200Y-69917900D03*
X148666200Y-71817900D03*
%TD*%
D13*
%TO.C,R7*%
X149075700Y-116230400D03*
X147250700Y-116230400D03*
%TD*%
D11*
%TO.C,C51*%
X163464200Y-89560400D03*
X165364200Y-89560400D03*
%TD*%
D25*
%TO.C,L2*%
X147401200Y-101218900D03*
X147401200Y-102793900D03*
%TD*%
D11*
%TO.C,C38*%
X135270200Y-74066400D03*
X137170200Y-74066400D03*
%TD*%
D22*
%TO.C,L5*%
X144533700Y-99218400D03*
X142958700Y-99218400D03*
%TD*%
D10*
%TO.C,C11*%
X141686200Y-112105400D03*
X141686200Y-114005400D03*
%TD*%
D23*
%TO.C,R5*%
X145242200Y-110091900D03*
X145242200Y-108266900D03*
%TD*%
D20*
%TO.C,C36*%
X170134200Y-105750400D03*
X170134200Y-103850400D03*
%TD*%
D13*
%TO.C,R21*%
X166093700Y-116738400D03*
X164268700Y-116738400D03*
%TD*%
D26*
%TO.C,C1*%
X104597200Y-79256400D03*
X104597200Y-86656400D03*
%TD*%
D11*
%TO.C,C31*%
X170962200Y-101498400D03*
X172862200Y-101498400D03*
%TD*%
D12*
%TO.C,R19*%
X156013700Y-104165400D03*
X157838700Y-104165400D03*
%TD*%
%TO.C,R22*%
X156013700Y-101117400D03*
X157838700Y-101117400D03*
%TD*%
%TO.C,R1*%
X124032000Y-118059200D03*
X125857000Y-118059200D03*
%TD*%
%TO.C,R17*%
X160331700Y-120294400D03*
X162156700Y-120294400D03*
%TD*%
D11*
%TO.C,C15*%
X142768200Y-116291400D03*
X144668200Y-116291400D03*
%TD*%
D20*
%TO.C,C20*%
X138231800Y-121041200D03*
X138231800Y-119141200D03*
%TD*%
D22*
%TO.C,L10*%
X129514700Y-87401400D03*
X127939700Y-87401400D03*
%TD*%
D27*
%TO.C,U7*%
X174579200Y-113471400D03*
X175849200Y-113471400D03*
X177119200Y-113471400D03*
X178389200Y-113471400D03*
X178389200Y-108321400D03*
X177119200Y-108321400D03*
X175849200Y-108321400D03*
X174579200Y-108321400D03*
%TD*%
D23*
%TO.C,R26*%
X177246200Y-105712900D03*
X177246200Y-103887900D03*
%TD*%
D20*
%TO.C,C46*%
X139522200Y-89710900D03*
X139522200Y-87810900D03*
%TD*%
D14*
%TO.C,U3*%
X127901700Y-108621400D03*
X127901700Y-109271400D03*
X127901700Y-109921400D03*
X127901700Y-110571400D03*
X127901700Y-111221400D03*
X127901700Y-111871400D03*
X127901700Y-112521400D03*
X127901700Y-113171400D03*
X133626700Y-113171400D03*
X133626700Y-112521400D03*
X133626700Y-111871400D03*
X133626700Y-111221400D03*
X133626700Y-110571400D03*
X133626700Y-109921400D03*
X133626700Y-109271400D03*
X133626700Y-108621400D03*
%TD*%
D28*
%TO.C,U9*%
X155489200Y-78257400D03*
X155489200Y-79527400D03*
X155489200Y-80797400D03*
X155489200Y-82067400D03*
X160639200Y-82067400D03*
X160639200Y-80797400D03*
X160639200Y-79527400D03*
X160639200Y-78257400D03*
%TD*%
D18*
%TO.C,R32*%
X172420200Y-103887900D03*
X172420200Y-105712900D03*
%TD*%
D13*
%TO.C,R25*%
X176634700Y-118516400D03*
X174809700Y-118516400D03*
%TD*%
%TO.C,R41*%
X152814700Y-80670400D03*
X150989700Y-80670400D03*
%TD*%
D12*
%TO.C,R34*%
X135307700Y-76352400D03*
X137132700Y-76352400D03*
%TD*%
D15*
%TO.C,C54*%
X169936200Y-86766400D03*
X168036200Y-86766400D03*
%TD*%
D12*
%TO.C,R39*%
X144451700Y-90830400D03*
X146276700Y-90830400D03*
%TD*%
D25*
%TO.C,L9*%
X169748200Y-74802900D03*
X169748200Y-76377900D03*
%TD*%
D28*
%TO.C,U8*%
X139487200Y-81559400D03*
X139487200Y-82829400D03*
X139487200Y-84099400D03*
X139487200Y-85369400D03*
X144637200Y-85369400D03*
X144637200Y-84099400D03*
X144637200Y-82829400D03*
X144637200Y-81559400D03*
%TD*%
D20*
%TO.C,C33*%
X176098200Y-122956400D03*
X176098200Y-121056400D03*
%TD*%
D10*
%TO.C,C32*%
X179786200Y-100294400D03*
X179786200Y-102194400D03*
%TD*%
D13*
%TO.C,R6*%
X142217700Y-119278400D03*
X140392700Y-119278400D03*
%TD*%
%TO.C,R20*%
X162283700Y-116738400D03*
X160458700Y-116738400D03*
%TD*%
D12*
%TO.C,R43*%
X160143200Y-70764400D03*
X161968200Y-70764400D03*
%TD*%
D21*
%TO.C,L8*%
X155752700Y-76606400D03*
X157327700Y-76606400D03*
%TD*%
D18*
%TO.C,R42*%
X160858200Y-87377900D03*
X160858200Y-89202900D03*
%TD*%
D20*
%TO.C,C37*%
X151206200Y-71864900D03*
X151206200Y-69964900D03*
%TD*%
D10*
%TO.C,C42*%
X147650200Y-81056400D03*
X147650200Y-82956400D03*
%TD*%
D15*
%TO.C,C52*%
X165712200Y-70764400D03*
X163812200Y-70764400D03*
%TD*%
D10*
%TO.C,C12*%
X141686200Y-108229400D03*
X141686200Y-110129400D03*
%TD*%
D23*
%TO.C,R40*%
X141808200Y-89710900D03*
X141808200Y-87885900D03*
%TD*%
D11*
%TO.C,C29*%
X168422200Y-118516400D03*
X170322200Y-118516400D03*
%TD*%
%TO.C,C44*%
X150952200Y-78384400D03*
X152852200Y-78384400D03*
%TD*%
%TO.C,C23*%
X155976200Y-120294400D03*
X157876200Y-120294400D03*
%TD*%
D20*
%TO.C,C14*%
X138277600Y-117195600D03*
X138277600Y-115295600D03*
%TD*%
D11*
%TO.C,C58*%
X172100200Y-82194400D03*
X174000200Y-82194400D03*
%TD*%
D28*
%TO.C,U6*%
X160320200Y-110134400D03*
X160320200Y-111404400D03*
X160320200Y-112674400D03*
X160320200Y-113944400D03*
X165470200Y-113944400D03*
X165470200Y-112674400D03*
X165470200Y-111404400D03*
X165470200Y-110134400D03*
%TD*%
D13*
%TO.C,R4*%
X136502700Y-103657400D03*
X134677700Y-103657400D03*
%TD*%
D10*
%TO.C,C10*%
X149814200Y-100802400D03*
X149814200Y-102702400D03*
%TD*%
D18*
%TO.C,R31*%
X181056200Y-115571900D03*
X181056200Y-117396900D03*
%TD*%
D20*
%TO.C,C5*%
X118389400Y-98282800D03*
X118389400Y-96382800D03*
%TD*%
D15*
%TO.C,C59*%
X129804200Y-85369400D03*
X127904200Y-85369400D03*
%TD*%
D23*
%TO.C,R3*%
X145242200Y-113901900D03*
X145242200Y-112076900D03*
%TD*%
D13*
%TO.C,R15*%
X157838700Y-107467400D03*
X156013700Y-107467400D03*
%TD*%
D21*
%TO.C,L1*%
X130738700Y-104038400D03*
X132313700Y-104038400D03*
%TD*%
D12*
%TO.C,R14*%
X143186700Y-101752400D03*
X145011700Y-101752400D03*
%TD*%
D18*
%TO.C,R24*%
X177246200Y-100331900D03*
X177246200Y-102156900D03*
%TD*%
D10*
%TO.C,C30*%
X168864200Y-108676400D03*
X168864200Y-110576400D03*
%TD*%
D12*
%TO.C,R8*%
X150425700Y-107340400D03*
X152250700Y-107340400D03*
%TD*%
D15*
%TO.C,C26*%
X166131200Y-120294400D03*
X164231200Y-120294400D03*
%TD*%
D29*
%TO.C,U4*%
X154167200Y-113878400D03*
X154167200Y-112608400D03*
X154167200Y-111338400D03*
X154167200Y-110068400D03*
X149017200Y-110068400D03*
X149017200Y-111338400D03*
X149017200Y-112608400D03*
X149017200Y-113878400D03*
%TD*%
D21*
%TO.C,L7*%
X143535200Y-79654400D03*
X145110200Y-79654400D03*
%TD*%
D11*
%TO.C,C48*%
X156446200Y-70764400D03*
X158346200Y-70764400D03*
%TD*%
%TO.C,C34*%
X170454200Y-116484400D03*
X172354200Y-116484400D03*
%TD*%
D15*
%TO.C,C47*%
X161046200Y-76352400D03*
X159146200Y-76352400D03*
%TD*%
D18*
%TO.C,R10*%
X129749648Y-80721511D03*
X129749648Y-82546511D03*
%TD*%
D12*
%TO.C,R46*%
X168073700Y-89560400D03*
X169898700Y-89560400D03*
%TD*%
D30*
%TO.C,L11*%
X121869200Y-92506900D03*
X121869200Y-90931900D03*
%TD*%
D31*
%TO.C,U11*%
X123515200Y-86488400D03*
X122165200Y-86488400D03*
X123515200Y-87838400D03*
X122165200Y-87838400D03*
D32*
X123840200Y-85213400D03*
X123340200Y-85213400D03*
X122840200Y-85213400D03*
X122340200Y-85213400D03*
X121840200Y-85213400D03*
D33*
X120890200Y-86163400D03*
X120890200Y-86663400D03*
X120890200Y-87163400D03*
X120890200Y-87663400D03*
X120890200Y-88163400D03*
D32*
X121840200Y-89113400D03*
X122340200Y-89113400D03*
X122840200Y-89113400D03*
X123340200Y-89113400D03*
X123840200Y-89113400D03*
D33*
X124790200Y-88163400D03*
X124790200Y-87663400D03*
X124790200Y-87163400D03*
X124790200Y-86663400D03*
X124790200Y-86163400D03*
%TD*%
D23*
%TO.C,R30*%
X174706200Y-105712900D03*
X174706200Y-103887900D03*
%TD*%
D12*
%TO.C,R27*%
X174809700Y-115976400D03*
X176634700Y-115976400D03*
%TD*%
D13*
%TO.C,R11*%
X147297700Y-119278400D03*
X145472700Y-119278400D03*
%TD*%
D11*
%TO.C,C17*%
X134640200Y-106197400D03*
X136540200Y-106197400D03*
%TD*%
D18*
%TO.C,R33*%
X148666200Y-73661900D03*
X148666200Y-75486900D03*
%TD*%
D11*
%TO.C,C22*%
X139339200Y-99212400D03*
X141239200Y-99212400D03*
%TD*%
%TO.C,C57*%
X172100200Y-79400400D03*
X174000200Y-79400400D03*
%TD*%
D12*
%TO.C,R48*%
X171987200Y-75590400D03*
X173812200Y-75590400D03*
%TD*%
D20*
%TO.C,C28*%
X157815200Y-114452400D03*
X157815200Y-112552400D03*
%TD*%
D26*
%TO.C,C2*%
X104597200Y-92337400D03*
X104597200Y-99737400D03*
%TD*%
D34*
%TO.C,Y2*%
X123608200Y-82532400D03*
X123608200Y-80332400D03*
X121908200Y-80332400D03*
X121908200Y-82532400D03*
%TD*%
D11*
%TO.C,C45*%
X159146200Y-85215400D03*
X161046200Y-85215400D03*
%TD*%
D15*
%TO.C,C25*%
X166258200Y-107467400D03*
X164358200Y-107467400D03*
%TD*%
%TO.C,C60*%
X129804200Y-91211400D03*
X127904200Y-91211400D03*
%TD*%
M02*
