%TF.GenerationSoftware,KiCad,Pcbnew,7.0.7*%
%TF.CreationDate,2023-12-04T17:07:47+01:00*%
%TF.ProjectId,sdrt41,73647274-3431-42e6-9b69-6361645f7063,rev?*%
%TF.SameCoordinates,Original*%
%TF.FileFunction,Soldermask,Bot*%
%TF.FilePolarity,Negative*%
%FSLAX46Y46*%
G04 Gerber Fmt 4.6, Leading zero omitted, Abs format (unit mm)*
G04 Created by KiCad (PCBNEW 7.0.7) date 2023-12-04 17:07:47*
%MOMM*%
%LPD*%
G01*
G04 APERTURE LIST*
%ADD10C,2.000000*%
%ADD11C,0.800000*%
%ADD12C,6.400000*%
%ADD13C,3.000000*%
%ADD14C,2.050000*%
%ADD15C,2.250000*%
%ADD16R,2.800000X2.800000*%
%ADD17C,2.800000*%
%ADD18R,1.700000X1.700000*%
%ADD19O,1.700000X1.700000*%
%ADD20R,2.000000X1.500000*%
%ADD21R,2.000000X3.800000*%
G04 APERTURE END LIST*
D10*
%TO.C,J7*%
X128219200Y-100101400D03*
%TD*%
D11*
%TO.C,H1*%
X191143256Y-72225200D03*
X191846200Y-70528144D03*
X191846200Y-73922256D03*
X193543256Y-69825200D03*
D12*
X193543256Y-72225200D03*
D11*
X193543256Y-74625200D03*
X195240312Y-70528144D03*
X195240312Y-73922256D03*
X195943256Y-72225200D03*
%TD*%
D13*
%TO.C,T2*%
X178892200Y-86138400D03*
X185892200Y-86138400D03*
X187325000Y-70986000D03*
X182452200Y-70978400D03*
X177571400Y-71138400D03*
%TD*%
D14*
%TO.C,J2*%
X103505000Y-110591600D03*
D15*
X100965000Y-108051600D03*
X100965000Y-113131600D03*
X106045000Y-108051600D03*
X106045000Y-113131600D03*
%TD*%
D11*
%TO.C,H4*%
X100927200Y-72732400D03*
X101630144Y-71035344D03*
X101630144Y-74429456D03*
X103327200Y-70332400D03*
D12*
X103327200Y-72732400D03*
D11*
X103327200Y-75132400D03*
X105024256Y-71035344D03*
X105024256Y-74429456D03*
X105727200Y-72732400D03*
%TD*%
D16*
%TO.C,J1*%
X111368200Y-72014400D03*
D17*
X116368200Y-72014400D03*
%TD*%
D13*
%TO.C,T1*%
X119100600Y-105904000D03*
X112100600Y-105904000D03*
X110667800Y-121056400D03*
X115540600Y-121064000D03*
X120421400Y-120904000D03*
%TD*%
D10*
%TO.C,J8*%
X172288200Y-91846400D03*
%TD*%
D18*
%TO.C,J4*%
X190576200Y-106339400D03*
D19*
X193116200Y-106339400D03*
X190576200Y-108879400D03*
X193116200Y-108879400D03*
X190576200Y-111419400D03*
X193116200Y-111419400D03*
%TD*%
D14*
%TO.C,J6*%
X193370200Y-84226400D03*
D15*
X190830200Y-81686400D03*
X190830200Y-86766400D03*
X195910200Y-81686400D03*
X195910200Y-86766400D03*
%TD*%
D19*
%TO.C,J5*%
X140106400Y-73355200D03*
X140106400Y-70815200D03*
X142646400Y-73355200D03*
X142646400Y-70815200D03*
X145186400Y-73355200D03*
D18*
X145186400Y-70815200D03*
%TD*%
D11*
%TO.C,H2*%
X191143256Y-122407344D03*
X191846200Y-120710288D03*
X191846200Y-124104400D03*
X193543256Y-120007344D03*
D12*
X193543256Y-122407344D03*
D11*
X193543256Y-124807344D03*
X195240312Y-120710288D03*
X195240312Y-124104400D03*
X195943256Y-122407344D03*
%TD*%
%TO.C,H3*%
X100927200Y-122326400D03*
X101630144Y-120629344D03*
X101630144Y-124023456D03*
X103327200Y-119926400D03*
D12*
X103327200Y-122326400D03*
D11*
X103327200Y-124726400D03*
X105024256Y-120629344D03*
X105024256Y-124023456D03*
X105727200Y-122326400D03*
%TD*%
D20*
%TO.C,U2*%
X117399200Y-86752400D03*
X117399200Y-89052400D03*
D21*
X111099200Y-89052400D03*
D20*
X117399200Y-91352400D03*
%TD*%
%TO.C,U1*%
X117399200Y-79132400D03*
X117399200Y-81432400D03*
D21*
X111099200Y-81432400D03*
D20*
X117399200Y-83732400D03*
%TD*%
M02*
