M48
; DRILL file {KiCad 7.0.7} date Mon Dec  4 17:07:49 2023
; FORMAT={-:-/ absolute / inch / decimal}
; #@! TF.CreationDate,2023-12-04T17:07:49+01:00
; #@! TF.GenerationSoftware,Kicad,Pcbnew,7.0.7
; #@! TF.FileFunction,Plated,1,4,PTH
FMAT,2
INCH
; #@! TA.AperFunction,Plated,PTH,ViaDrill
T1C0.0157
; #@! TA.AperFunction,Plated,PTH,ComponentDrill
T2C0.0197
; #@! TA.AperFunction,Plated,PTH,ComponentDrill
T3C0.0394
; #@! TA.AperFunction,Plated,PTH,ComponentDrill
T4C0.0472
; #@! TA.AperFunction,Plated,PTH,ComponentDrill
T5C0.0551
; #@! TA.AperFunction,Plated,PTH,ComponentDrill
T6C0.0591
; #@! TA.AperFunction,Plated,PTH,ComponentDrill
T7C0.0669
; #@! TA.AperFunction,Plated,PTH,ComponentDrill
T8C0.1260
%
G90
G05
T1
X3.953Y-3.006
X3.953Y-4.561
X3.973Y-3.996
X4.003Y-3.506
X4.203Y-4.556
X4.248Y-3.996
X4.303Y-3.506
X4.339Y-4.906
X4.351Y-3.996
X4.368Y-3.211
X4.374Y-3.506
X4.439Y-4.906
X4.503Y-3.286
X4.539Y-4.906
X4.618Y-3.206
X4.622Y-3.5966
X4.639Y-4.906
X4.723Y-3.6558
X4.739Y-4.906
X4.798Y-3.642
X4.803Y-3.251
X4.813Y-3.406
X4.813Y-3.451
X4.839Y-4.906
X4.853Y-3.636
X4.863Y-3.406
X4.863Y-3.451
X4.868Y-3.166
X4.88Y-3.842
X4.898Y-3.756
X4.901Y-4.502
X4.903Y-4.056
X4.903Y-4.206
X4.903Y-4.356
X4.908Y-3.636
X4.9432Y-4.296
X4.955Y-4.65
X4.957Y-4.764
X4.964Y-3.468
X4.968Y-3.636
X4.97Y-3.54
X4.973Y-4.906
X4.9845Y-3.4042
X5.0132Y-4.501
X5.016Y-3.798
X5.053Y-4.116
X5.073Y-4.906
X5.078Y-3.756
X5.103Y-4.65
X5.103Y-4.768
X5.113Y-3.361
X5.113Y-3.591
X5.121Y-3.126
X5.1211Y-3.0182
X5.1282Y-4.319
X5.1482Y-4.181
X5.173Y-4.906
X5.1732Y-4.319
X5.218Y-3.402
X5.225Y-4.18
X5.273Y-4.906
X5.298Y-3.544
X5.303Y-3.656
X5.303Y-3.756
X5.3032Y-4.181
X5.3154Y-4.3662
X5.323Y-2.916
X5.353Y-2.756
X5.373Y-3.4319
X5.373Y-4.906
X5.4232Y-3.906
X5.443Y-3.416
X5.4432Y-4.826
X5.444Y-4.5392
X5.453Y-3.656
X5.453Y-3.756
X5.473Y-4.906
X5.4873Y-4.006
X5.491Y-3.532
X5.5582Y-4.576
X5.563Y-3.006
X5.573Y-4.906
X5.583Y-3.532
X5.603Y-3.656
X5.623Y-3.216
X5.623Y-3.266
X5.623Y-3.416
X5.633Y-3.066
X5.6382Y-4.006
X5.651Y-3.1348
X5.6632Y-4.821
X5.673Y-4.906
X5.6932Y-4.181
X5.703Y-3.656
X5.7082Y-4.006
X5.7182Y-4.3343
X5.753Y-3.806
X5.763Y-3.396
X5.773Y-4.906
X5.8006Y-4.6975
X5.813Y-3.0527
X5.853Y-3.656
X5.8668Y-4.4834
X5.873Y-4.906
X5.893Y-3.966
X5.903Y-3.806
X5.903Y-4.706
X5.9132Y-4.096
X5.9232Y-4.226
X5.9471Y-3.276
X5.953Y-2.83
X5.958Y-3.656
X5.973Y-2.966
X5.973Y-4.906
X5.9941Y-4.226
X6.003Y-4.106
X6.003Y-4.656
X6.013Y-3.901
X6.0189Y-3.276
X6.053Y-2.746
X6.053Y-2.826
X6.053Y-2.906
X6.053Y-3.656
X6.053Y-3.806
X6.053Y-4.736
X6.0696Y-4.3334
X6.073Y-4.906
X6.0732Y-4.436
X6.113Y-2.956
X6.1216Y-3.181
X6.123Y-3.286
X6.1382Y-4.596
X6.173Y-4.906
X6.203Y-3.806
X6.208Y-3.656
X6.2141Y-4.101
X6.263Y-3.006
X6.2656Y-3.3549
X6.273Y-4.906
X6.303Y-3.956
X6.3132Y-4.536
X6.3244Y-3.081
X6.3244Y-3.231
X6.333Y-3.5119
X6.343Y-3.006
X6.353Y-3.806
X6.358Y-3.656
X6.373Y-4.906
X6.3882Y-4.376
X6.403Y-3.956
X6.404Y-3.274
X6.443Y-3.416
X6.4432Y-4.436
X6.453Y-3.016
X6.453Y-3.8645
X6.463Y-4.076
X6.4656Y-3.986
X6.4708Y-4.231
X6.473Y-4.906
X6.508Y-3.07
X6.508Y-3.656
X6.514Y-3.212
X6.523Y-2.786
X6.523Y-2.876
X6.543Y-3.986
X6.553Y-3.806
X6.5595Y-3.21
X6.573Y-4.906
X6.5932Y-4.226
X6.5982Y-4.736
X6.603Y-3.076
X6.613Y-2.926
X6.6206Y-3.1325
X6.633Y-2.816
X6.6482Y-4.2786
X6.658Y-3.656
X6.673Y-4.906
X6.6782Y-4.846
X6.68Y-3.282
X6.683Y-2.866
X6.693Y-3.416
X6.7082Y-4.506
X6.7082Y-4.586
X6.735Y-3.08
X6.753Y-3.806
X6.773Y-2.976
X6.773Y-3.126
X6.773Y-3.236
X6.7782Y-4.746
X6.7882Y-4.226
X6.835Y-3.452
X6.903Y-3.806
X6.958Y-3.656
X7.0382Y-4.546
X7.053Y-3.806
X7.053Y-4.856
X7.0682Y-4.466
X7.108Y-3.656
X7.203Y-3.806
X7.203Y-4.006
X7.203Y-4.256
X7.203Y-4.456
X7.203Y-4.856
X7.258Y-3.656
X7.353Y-3.806
X7.353Y-4.056
X7.353Y-4.256
X7.353Y-4.406
X7.353Y-4.756
X7.403Y-3.656
X7.503Y-3.806
X7.553Y-3.656
X7.653Y-3.806
X7.703Y-3.656
X7.703Y-3.906
X7.703Y-4.056
X7.703Y-4.206
X7.703Y-4.356
X7.703Y-4.556
T2
X3.9735Y-2.8635
X3.9735Y-4.816
X4.0012Y-2.7967
X4.0012Y-2.9303
X4.0012Y-4.7492
X4.0012Y-4.8828
X4.068Y-2.769
X4.068Y-2.958
X4.068Y-4.7215
X4.068Y-4.9105
X4.1348Y-2.7967
X4.1348Y-2.9303
X4.1348Y-4.7492
X4.1348Y-4.8828
X4.1625Y-2.8635
X4.1625Y-4.816
X7.5253Y-2.8435
X7.5253Y-4.8192
X7.553Y-2.7767
X7.553Y-2.9103
X7.553Y-4.7524
X7.553Y-4.886
X7.6198Y-2.749
X7.6198Y-2.938
X7.6198Y-4.7247
X7.6198Y-4.9137
X7.6866Y-2.7767
X7.6866Y-2.9103
X7.6866Y-4.7524
X7.6866Y-4.886
X7.7143Y-2.8435
X7.7143Y-4.8192
T3
X5.048Y-3.941
X5.516Y-2.788
X5.516Y-2.888
X5.616Y-2.788
X5.616Y-2.888
X5.716Y-2.788
X5.716Y-2.888
X6.783Y-3.616
X7.503Y-4.1866
X7.503Y-4.2866
X7.503Y-4.3866
X7.603Y-4.1866
X7.603Y-4.2866
X7.603Y-4.3866
T4
X4.357Y-4.766
X4.4134Y-4.1694
X4.5488Y-4.7663
X4.689Y-4.1694
X4.741Y-4.76
X6.991Y-2.8007
X7.043Y-3.3913
X7.1832Y-2.7944
X7.3186Y-3.3913
X7.375Y-2.7947
T5
X4.3846Y-2.8352
X4.5814Y-2.8352
T6
X4.075Y-4.354
X7.613Y-3.316
T7
X3.975Y-4.254
X3.975Y-4.454
X4.175Y-4.254
X4.175Y-4.454
X7.513Y-3.216
X7.513Y-3.416
X7.713Y-3.216
X7.713Y-3.416
T8
X4.068Y-2.8635
X4.068Y-4.816
X7.6198Y-2.8435
X7.6198Y-4.8192
T0
M30
