%TF.GenerationSoftware,KiCad,Pcbnew,7.0.7*%
%TF.CreationDate,2023-12-04T17:07:47+01:00*%
%TF.ProjectId,sdrt41,73647274-3431-42e6-9b69-6361645f7063,rev?*%
%TF.SameCoordinates,Original*%
%TF.FileFunction,Copper,L4,Bot*%
%TF.FilePolarity,Positive*%
%FSLAX46Y46*%
G04 Gerber Fmt 4.6, Leading zero omitted, Abs format (unit mm)*
G04 Created by KiCad (PCBNEW 7.0.7) date 2023-12-04 17:07:47*
%MOMM*%
%LPD*%
G01*
G04 APERTURE LIST*
%TA.AperFunction,ComponentPad*%
%ADD10C,2.000000*%
%TD*%
%TA.AperFunction,ComponentPad*%
%ADD11C,0.800000*%
%TD*%
%TA.AperFunction,ComponentPad*%
%ADD12C,6.400000*%
%TD*%
%TA.AperFunction,ComponentPad*%
%ADD13C,3.000000*%
%TD*%
%TA.AperFunction,ComponentPad*%
%ADD14C,2.050000*%
%TD*%
%TA.AperFunction,ComponentPad*%
%ADD15C,2.250000*%
%TD*%
%TA.AperFunction,ComponentPad*%
%ADD16R,2.800000X2.800000*%
%TD*%
%TA.AperFunction,ComponentPad*%
%ADD17C,2.800000*%
%TD*%
%TA.AperFunction,ComponentPad*%
%ADD18R,1.700000X1.700000*%
%TD*%
%TA.AperFunction,ComponentPad*%
%ADD19O,1.700000X1.700000*%
%TD*%
%TA.AperFunction,SMDPad,CuDef*%
%ADD20R,2.000000X1.500000*%
%TD*%
%TA.AperFunction,SMDPad,CuDef*%
%ADD21R,2.000000X3.800000*%
%TD*%
%TA.AperFunction,ViaPad*%
%ADD22C,0.800000*%
%TD*%
%TA.AperFunction,Conductor*%
%ADD23C,0.500000*%
%TD*%
%TA.AperFunction,Conductor*%
%ADD24C,0.250000*%
%TD*%
G04 APERTURE END LIST*
D10*
%TO.P,J7,1,Pin_1*%
%TO.N,Net-(J7-Pin_1)*%
X128219200Y-100101400D03*
%TD*%
D11*
%TO.P,H1,1,1*%
%TO.N,GND*%
X191143256Y-72225200D03*
X191846200Y-70528144D03*
X191846200Y-73922256D03*
X193543256Y-69825200D03*
D12*
X193543256Y-72225200D03*
D11*
X193543256Y-74625200D03*
X195240312Y-70528144D03*
X195240312Y-73922256D03*
X195943256Y-72225200D03*
%TD*%
D13*
%TO.P,T2,1,AA*%
%TO.N,GND*%
X178892200Y-86138400D03*
%TO.P,T2,2,AB*%
%TO.N,Net-(J6-In)*%
X185892200Y-86138400D03*
%TO.P,T2,3,SA*%
%TO.N,Net-(T2-SA)*%
X187325000Y-70986000D03*
%TO.P,T2,4,SC*%
%TO.N,Net-(T2-SC)*%
X182452200Y-70978400D03*
%TO.P,T2,5,SB*%
%TO.N,Net-(T2-SB)*%
X177571400Y-71138400D03*
%TD*%
D14*
%TO.P,J2,1,In*%
%TO.N,Net-(J2-In)*%
X103505000Y-110591600D03*
D15*
%TO.P,J2,2,Ext*%
%TO.N,GND*%
X100965000Y-108051600D03*
X100965000Y-113131600D03*
X106045000Y-108051600D03*
X106045000Y-113131600D03*
%TD*%
D11*
%TO.P,H4,1,1*%
%TO.N,GND*%
X100927200Y-72732400D03*
X101630144Y-71035344D03*
X101630144Y-74429456D03*
X103327200Y-70332400D03*
D12*
X103327200Y-72732400D03*
D11*
X103327200Y-75132400D03*
X105024256Y-71035344D03*
X105024256Y-74429456D03*
X105727200Y-72732400D03*
%TD*%
D16*
%TO.P,J1,1,Pin_1*%
%TO.N,+12V*%
X111368200Y-72014400D03*
D17*
%TO.P,J1,2,Pin_2*%
%TO.N,GND*%
X116368200Y-72014400D03*
%TD*%
D13*
%TO.P,T1,1,AA*%
%TO.N,GND*%
X119100600Y-105904000D03*
%TO.P,T1,2,AB*%
%TO.N,Net-(J2-In)*%
X112100600Y-105904000D03*
%TO.P,T1,3,SA*%
%TO.N,GND*%
X110667800Y-121056400D03*
%TO.P,T1,4,SC*%
%TO.N,unconnected-(T1-SC-Pad4)*%
X115540600Y-121064000D03*
%TO.P,T1,5,SB*%
%TO.N,Net-(T1-SB)*%
X120421400Y-120904000D03*
%TD*%
D10*
%TO.P,J8,1,Pin_1*%
%TO.N,Net-(J8-Pin_1)*%
X172288200Y-91846400D03*
%TD*%
D18*
%TO.P,J4,1,Pin_1*%
%TO.N,/Q+*%
X190576200Y-106339400D03*
D19*
%TO.P,J4,2,Pin_2*%
%TO.N,/Q-*%
X193116200Y-106339400D03*
%TO.P,J4,3,Pin_3*%
%TO.N,GND*%
X190576200Y-108879400D03*
%TO.P,J4,4,Pin_4*%
X193116200Y-108879400D03*
%TO.P,J4,5,Pin_5*%
%TO.N,/I-*%
X190576200Y-111419400D03*
%TO.P,J4,6,Pin_6*%
%TO.N,/I+*%
X193116200Y-111419400D03*
%TD*%
D14*
%TO.P,J6,1,In*%
%TO.N,Net-(J6-In)*%
X193370200Y-84226400D03*
D15*
%TO.P,J6,2,Ext*%
%TO.N,GND*%
X190830200Y-81686400D03*
X190830200Y-86766400D03*
X195910200Y-81686400D03*
X195910200Y-86766400D03*
%TD*%
D19*
%TO.P,J5,6,Pin_6*%
%TO.N,unconnected-(J5-Pin_6-Pad6)*%
X140106400Y-73355200D03*
%TO.P,J5,5,Pin_5*%
%TO.N,/QSE/Q-tx*%
X140106400Y-70815200D03*
%TO.P,J5,4,Pin_4*%
%TO.N,unconnected-(J5-Pin_4-Pad4)*%
X142646400Y-73355200D03*
%TO.P,J5,3,Pin_3*%
%TO.N,GND*%
X142646400Y-70815200D03*
%TO.P,J5,2,Pin_2*%
%TO.N,unconnected-(J5-Pin_2-Pad2)*%
X145186400Y-73355200D03*
D18*
%TO.P,J5,1,Pin_1*%
%TO.N,/QSE/I-tx*%
X145186400Y-70815200D03*
%TD*%
D11*
%TO.P,H2,1,1*%
%TO.N,GND*%
X191143256Y-122407344D03*
X191846200Y-120710288D03*
X191846200Y-124104400D03*
X193543256Y-120007344D03*
D12*
X193543256Y-122407344D03*
D11*
X193543256Y-124807344D03*
X195240312Y-120710288D03*
X195240312Y-124104400D03*
X195943256Y-122407344D03*
%TD*%
%TO.P,H3,1,1*%
%TO.N,GND*%
X100927200Y-122326400D03*
X101630144Y-120629344D03*
X101630144Y-124023456D03*
X103327200Y-119926400D03*
D12*
X103327200Y-122326400D03*
D11*
X103327200Y-124726400D03*
X105024256Y-120629344D03*
X105024256Y-124023456D03*
X105727200Y-122326400D03*
%TD*%
D20*
%TO.P,U2,1,GND*%
%TO.N,GND*%
X117399200Y-86752400D03*
%TO.P,U2,2,VO*%
%TO.N,+3V3*%
X117399200Y-89052400D03*
D21*
X111099200Y-89052400D03*
D20*
%TO.P,U2,3,VI*%
%TO.N,+5V*%
X117399200Y-91352400D03*
%TD*%
%TO.P,U1,1,GND*%
%TO.N,GND*%
X117399200Y-79132400D03*
%TO.P,U1,2,VO*%
%TO.N,+5V*%
X117399200Y-81432400D03*
D21*
X111099200Y-81432400D03*
D20*
%TO.P,U1,3,VI*%
%TO.N,+12V*%
X117399200Y-83732400D03*
%TD*%
D22*
%TO.N,GND*%
X110515400Y-101498400D03*
X119964200Y-92857400D03*
X186766200Y-120802400D03*
X126238000Y-89916000D03*
X195656200Y-99212400D03*
X144856200Y-92862400D03*
X165684200Y-73050400D03*
X153746200Y-71780400D03*
X139014200Y-124612400D03*
X172166200Y-120548400D03*
X153746200Y-120294400D03*
X184353200Y-92862400D03*
X160355200Y-115214400D03*
X151206200Y-71882000D03*
X107899200Y-101498400D03*
X114376200Y-83464400D03*
X160096200Y-100482400D03*
X123647200Y-80416400D03*
X195656200Y-110642400D03*
X112750600Y-124612400D03*
X133934200Y-124612400D03*
X161493200Y-92862400D03*
X179146200Y-96672400D03*
X149936200Y-96672400D03*
X152476200Y-104292400D03*
X138506200Y-95402400D03*
X168478200Y-71526400D03*
X141554200Y-124612400D03*
X122250200Y-86512400D03*
X127335200Y-114325400D03*
X138252200Y-86766400D03*
X142316200Y-92862400D03*
X162661600Y-83159600D03*
X161112200Y-76352400D03*
X101676200Y-89052400D03*
X129870200Y-91211400D03*
X143845200Y-122453400D03*
X144607200Y-106197400D03*
X186766200Y-103022400D03*
X180543200Y-92862400D03*
X163652200Y-86766400D03*
X167467200Y-107340400D03*
X124536200Y-103022400D03*
X124536200Y-110642400D03*
X130256200Y-109702600D03*
X182956200Y-96672400D03*
X130076200Y-76662400D03*
X126187200Y-92354400D03*
X138257200Y-122580400D03*
X106756200Y-115722400D03*
X191846200Y-92862400D03*
X125907800Y-121005600D03*
X170388200Y-116484400D03*
X195656200Y-106832400D03*
X135966200Y-70002400D03*
X195656200Y-103022400D03*
X130764200Y-106197400D03*
X129616200Y-121107200D03*
X157683200Y-92862400D03*
X182956200Y-123342400D03*
X176733200Y-92862400D03*
X168864200Y-108676400D03*
X130073400Y-79400400D03*
X137749200Y-99212400D03*
X128981200Y-95402400D03*
X149682200Y-100736400D03*
X131394200Y-124612400D03*
X154167200Y-110068400D03*
X124409200Y-95402400D03*
X152476200Y-118262400D03*
X115290600Y-124612400D03*
X166954200Y-124612400D03*
X144988200Y-101752400D03*
X123520200Y-86512400D03*
X144094200Y-124612400D03*
X194386200Y-96672400D03*
X161366200Y-96672400D03*
X161874200Y-124612400D03*
X152730200Y-99085400D03*
X153746200Y-69748400D03*
X190576200Y-96672400D03*
X120370600Y-124612400D03*
X128346200Y-104546400D03*
X146634200Y-124612400D03*
X167970200Y-74320400D03*
X149936200Y-119532400D03*
X195656200Y-92862400D03*
X172034200Y-75590400D03*
X135204200Y-74066400D03*
X136474200Y-124612400D03*
X148666200Y-92862400D03*
X151714200Y-124612400D03*
X138506200Y-92862400D03*
X165684200Y-70764400D03*
X143078200Y-77876400D03*
X182956200Y-101752400D03*
X171526200Y-96672400D03*
X188036200Y-92862400D03*
X162636200Y-100482400D03*
X157556200Y-96672400D03*
X153746200Y-73812400D03*
X134696200Y-92862400D03*
X186766200Y-108102400D03*
X151333200Y-92862400D03*
X121996200Y-82575400D03*
X122910600Y-124612400D03*
X126314200Y-124612400D03*
X195656200Y-115722400D03*
X166192200Y-101244400D03*
X172034200Y-82194400D03*
X186766200Y-96672400D03*
X123520200Y-87655400D03*
X109296200Y-89052400D03*
X141808200Y-89712800D03*
X139471400Y-89712800D03*
X154254200Y-124612400D03*
X100914200Y-101498400D03*
X110210600Y-124612400D03*
X172420200Y-107340400D03*
X172034200Y-79400400D03*
X134701200Y-106197400D03*
X179532200Y-113436400D03*
X175336200Y-96672400D03*
X156794200Y-124612400D03*
X170388200Y-114452400D03*
X186766200Y-111912400D03*
X146126200Y-96672400D03*
X170002200Y-86766400D03*
X167594200Y-120294400D03*
X134696200Y-95402400D03*
X129870200Y-85369400D03*
X182956200Y-113182400D03*
X153746200Y-92862400D03*
X173609000Y-87680800D03*
X100406200Y-115849400D03*
X165303200Y-92862400D03*
X169626200Y-123088400D03*
X129616200Y-118110000D03*
X128854200Y-124612400D03*
X164160200Y-103530400D03*
X100406200Y-76352400D03*
X169113200Y-92862400D03*
X182956200Y-108102400D03*
X179146200Y-123342400D03*
X151714200Y-75336400D03*
X124485400Y-114350800D03*
X178770200Y-115468400D03*
X141178200Y-116230400D03*
X122250200Y-87655400D03*
X153746200Y-96672400D03*
X164414200Y-124612400D03*
X155524200Y-83464400D03*
X117830600Y-124612400D03*
X149174200Y-124612400D03*
X166446200Y-96672400D03*
X124536200Y-106832400D03*
X159334200Y-124612400D03*
X169494200Y-124612400D03*
%TO.N,+5V*%
X117399200Y-91352400D03*
X169748200Y-72796400D03*
X117297200Y-81432400D03*
X155270200Y-75082400D03*
X164226200Y-101244400D03*
X143535200Y-79622900D03*
X163906200Y-98157700D03*
X110947200Y-81559400D03*
%TO.N,+3V3*%
X111099200Y-89052400D03*
X121869200Y-92506900D03*
%TO.N,+12C*%
X149017200Y-113878400D03*
X150195200Y-104038400D03*
%TO.N,Net-(U8C-V+)*%
X151055700Y-83210400D03*
X142824200Y-81686400D03*
%TO.N,Net-(C21-Pad2)*%
X139376700Y-101752400D03*
X147335200Y-119315900D03*
%TO.N,Net-(U3-VCC)*%
X132715000Y-106172000D03*
X125857000Y-118110000D03*
%TO.N,Clock1*%
X127406400Y-96469200D03*
X124663200Y-92354400D03*
X131399200Y-109702600D03*
%TO.N,Clock2*%
X125557200Y-109118400D03*
X123952000Y-97586800D03*
X123266200Y-92354400D03*
%TO.N,Net-(U3-1B3)*%
X135010080Y-110900480D03*
X138277600Y-115295600D03*
%TO.N,Net-(U6B-+)*%
X163657200Y-112674400D03*
X164358200Y-107467400D03*
%TO.N,Net-(U8B--)*%
X147650200Y-77537900D03*
X141300200Y-76352400D03*
%TO.N,Net-(U9C-V+)*%
X160639200Y-78257400D03*
X159080200Y-76352400D03*
%TO.N,Net-(U10-1B1)*%
X168163531Y-79564590D03*
X166610700Y-81534000D03*
%TO.N,Net-(U4A--)*%
X154259200Y-112674400D03*
X152250700Y-107340400D03*
%TO.N,Net-(U4B-+)*%
X145242200Y-110091900D03*
X143210200Y-101752400D03*
%TO.N,Net-(C41-Pad1)*%
X136474200Y-87170900D03*
X146380200Y-86258400D03*
%TO.N,Net-(C42-Pad1)*%
X142824200Y-82956400D03*
X142824200Y-86766400D03*
%TO.N,Net-(U6A--)*%
X157838700Y-104165400D03*
X162260200Y-111150400D03*
%TO.N,Net-(C45-Pad1)*%
X159146200Y-85215400D03*
X160858200Y-89202900D03*
%TO.N,Net-(T2-SA)*%
X165455600Y-81584800D03*
%TO.N,Net-(T2-SB)*%
X169672000Y-83362800D03*
%TO.N,Net-(U8A-+)*%
X155489200Y-80797400D03*
X160639200Y-82067400D03*
X152880700Y-83210400D03*
%TO.N,Net-(R16-Pad2)*%
X150449200Y-107340400D03*
X155910200Y-116738400D03*
%TO.N,Clock3*%
X165303200Y-77978000D03*
X126606622Y-86467115D03*
X132537200Y-86410800D03*
%TO.N,Clock4*%
X126085600Y-88087200D03*
X134569200Y-90017600D03*
X167716200Y-78130400D03*
%TO.N,Net-(J8-Pin_1)*%
X163906200Y-76606400D03*
X171069000Y-78232000D03*
%TD*%
D23*
%TO.N,+5V*%
X110947200Y-81559400D02*
X110947200Y-81584400D01*
X117399200Y-81432400D02*
X117297200Y-81432400D01*
X119642200Y-83425400D02*
X136588164Y-83425400D01*
X167716200Y-72796400D02*
X165430200Y-75082400D01*
X108446200Y-89980400D02*
X109931200Y-91465400D01*
X150729700Y-79622900D02*
X143535200Y-79622900D01*
X108446200Y-84085400D02*
X108446200Y-89980400D01*
X117297200Y-81432400D02*
X117649200Y-81432400D01*
X165430200Y-75082400D02*
X155270200Y-75082400D01*
X111099200Y-81432400D02*
X110972200Y-81559400D01*
X155270200Y-75082400D02*
X150729700Y-79622900D01*
X163906200Y-98157700D02*
X163906200Y-100924400D01*
X163906200Y-100924400D02*
X164226200Y-101244400D01*
X117286200Y-91465400D02*
X117399200Y-91352400D01*
X109931200Y-91465400D02*
X117286200Y-91465400D01*
X140390664Y-79622900D02*
X143535200Y-79622900D01*
X110947200Y-81584400D02*
X108446200Y-84085400D01*
X117649200Y-81432400D02*
X119642200Y-83425400D01*
X136588164Y-83425400D02*
X140390664Y-79622900D01*
X167716200Y-72796400D02*
X169748200Y-72796400D01*
X110972200Y-81559400D02*
X110947200Y-81559400D01*
%TO.N,+3V3*%
X117399200Y-89052400D02*
X118414700Y-89052400D01*
X118414700Y-89052400D02*
X121869200Y-92506900D01*
X111099200Y-89052400D02*
X117399200Y-89052400D01*
%TO.N,+12V*%
X111368200Y-77951400D02*
X111368200Y-72014400D01*
X117149200Y-83732400D02*
X111368200Y-77951400D01*
X117399200Y-83732400D02*
X117149200Y-83732400D01*
X117399200Y-83732400D02*
X117749200Y-83732400D01*
D24*
%TO.N,+12C*%
X147401200Y-106832400D02*
X147401200Y-112262400D01*
X150195200Y-104038400D02*
X147401200Y-106832400D01*
X147401200Y-112262400D02*
X149017200Y-113878400D01*
%TO.N,Net-(U8C-V+)*%
X149531700Y-81686400D02*
X151055700Y-83210400D01*
X142824200Y-81686400D02*
X149531700Y-81686400D01*
%TO.N,Net-(C21-Pad2)*%
X139376700Y-101752400D02*
X139376700Y-111357400D01*
X139376700Y-111357400D02*
X147335200Y-119315900D01*
%TO.N,Net-(U3-VCC)*%
X132715000Y-111252000D02*
X132715000Y-106172000D01*
X125857000Y-118110000D02*
X132715000Y-111252000D01*
%TO.N,Clock1*%
X127355600Y-96520000D02*
X127406400Y-96469200D01*
X126669800Y-108204000D02*
X129900600Y-108204000D01*
X129900600Y-108204000D02*
X131399200Y-109702600D01*
X126060200Y-96520000D02*
X126060200Y-107594400D01*
X126060200Y-96520000D02*
X127355600Y-96520000D01*
X124663200Y-92354400D02*
X126060200Y-93751400D01*
X126060200Y-93751400D02*
X126060200Y-96520000D01*
X126060200Y-107594400D02*
X126669800Y-108204000D01*
%TO.N,Clock2*%
X125557200Y-97637600D02*
X125557200Y-109118400D01*
X124002800Y-97637600D02*
X123952000Y-97586800D01*
X125557200Y-97637600D02*
X124002800Y-97637600D01*
X125557200Y-94273705D02*
X125557200Y-97637600D01*
X125557200Y-94273705D02*
X123637895Y-92354400D01*
X123637895Y-92354400D02*
X123266200Y-92354400D01*
%TO.N,Net-(U3-1B3)*%
X135010080Y-112028080D02*
X138277600Y-115295600D01*
X135010080Y-110900480D02*
X135010080Y-112028080D01*
%TO.N,Net-(U6B-+)*%
X163657200Y-112674400D02*
X163657200Y-108168400D01*
X163657200Y-108168400D02*
X164358200Y-107467400D01*
%TO.N,Net-(U8B--)*%
X146464700Y-76352400D02*
X147650200Y-77537900D01*
X141300200Y-76352400D02*
X146464700Y-76352400D01*
D23*
%TO.N,Net-(U9C-V+)*%
X160639200Y-77911400D02*
X159080200Y-76352400D01*
X160639200Y-78257400D02*
X160639200Y-77911400D01*
D24*
%TO.N,Net-(U10-1B1)*%
X166610700Y-81117421D02*
X168163531Y-79564590D01*
X166610700Y-81534000D02*
X166610700Y-81117421D01*
%TO.N,Net-(U4A--)*%
X152227200Y-107363900D02*
X152227200Y-111277400D01*
X152227200Y-111277400D02*
X153624200Y-112674400D01*
X153624200Y-112674400D02*
X154259200Y-112674400D01*
X152250700Y-107340400D02*
X152227200Y-107363900D01*
%TO.N,Net-(U4B-+)*%
X143210200Y-108059900D02*
X143210200Y-101752400D01*
X145242200Y-110091900D02*
X143210200Y-108059900D01*
%TO.N,Net-(C41-Pad1)*%
X145147200Y-87491400D02*
X136794700Y-87491400D01*
X136794700Y-87491400D02*
X136474200Y-87170900D01*
X146380200Y-86258400D02*
X145147200Y-87491400D01*
%TO.N,Net-(C42-Pad1)*%
X142824200Y-86766400D02*
X142824200Y-82956400D01*
%TO.N,Net-(U6A--)*%
X162260200Y-111150400D02*
X162260200Y-108586900D01*
X162260200Y-108586900D02*
X157838700Y-104165400D01*
%TO.N,Net-(C45-Pad1)*%
X159146200Y-87490900D02*
X160858200Y-89202900D01*
X159146200Y-85215400D02*
X159146200Y-87490900D01*
D23*
%TO.N,Net-(T2-SA)*%
X167276118Y-84480400D02*
X173830600Y-84480400D01*
X173830600Y-84480400D02*
X187325000Y-70986000D01*
X166612200Y-83816482D02*
X167276118Y-84480400D01*
X165455600Y-81584800D02*
X166612200Y-82741400D01*
X166612200Y-82741400D02*
X166612200Y-83816482D01*
%TO.N,Net-(T2-SB)*%
X169672000Y-83362800D02*
X169672000Y-82964682D01*
X177571400Y-75065282D02*
X177571400Y-71138400D01*
X169672000Y-82964682D02*
X177571400Y-75065282D01*
D24*
%TO.N,Net-(U8A-+)*%
X155489200Y-80797400D02*
X156159200Y-80797400D01*
X153076200Y-83210400D02*
X152880700Y-83210400D01*
X157429200Y-82067400D02*
X160639200Y-82067400D01*
X156159200Y-80797400D02*
X157429200Y-82067400D01*
X155489200Y-80797400D02*
X153076200Y-83210400D01*
D23*
%TO.N,Net-(J6-In)*%
X187804200Y-84226400D02*
X185892200Y-86138400D01*
X193370200Y-84226400D02*
X187804200Y-84226400D01*
D24*
%TO.N,Net-(R16-Pad2)*%
X150449200Y-111277400D02*
X155910200Y-116738400D01*
X150449200Y-107340400D02*
X150449200Y-111277400D01*
%TO.N,Clock3*%
X155002499Y-79622400D02*
X154277499Y-80347400D01*
X132103803Y-87656997D02*
X131216400Y-87656997D01*
X126606622Y-86467115D02*
X126606622Y-87452321D01*
X132537200Y-86410800D02*
X132537200Y-87223600D01*
X163658800Y-79622400D02*
X155002499Y-79622400D01*
X154277499Y-80347400D02*
X141046200Y-80347400D01*
X126606622Y-87452321D02*
X126811298Y-87656997D01*
X132537200Y-87223600D02*
X132103803Y-87656997D01*
X165303200Y-77978000D02*
X163658800Y-79622400D01*
X141046200Y-80347400D02*
X133736603Y-87656997D01*
X133736603Y-87656997D02*
X131216400Y-87656997D01*
X126811298Y-87656997D02*
X131216400Y-87656997D01*
%TO.N,Clock4*%
X166852600Y-78994000D02*
X167716200Y-78130400D01*
X126085600Y-88087200D02*
X126105397Y-88106997D01*
X134512797Y-88106997D02*
X141822395Y-80797400D01*
X154463895Y-80797400D02*
X155188895Y-80072400D01*
X134569200Y-90017600D02*
X134512797Y-89961197D01*
X163845196Y-80072400D02*
X164923596Y-78994000D01*
X164923596Y-78994000D02*
X166852600Y-78994000D01*
X126105397Y-88106997D02*
X134512797Y-88106997D01*
X141822395Y-80797400D02*
X154463895Y-80797400D01*
X134512797Y-89961197D02*
X134512797Y-88106997D01*
X155188895Y-80072400D02*
X163845196Y-80072400D01*
%TO.N,Net-(J8-Pin_1)*%
X163906200Y-76606400D02*
X167217505Y-76606400D01*
X167217505Y-76606400D02*
X168843105Y-78232000D01*
X168843105Y-78232000D02*
X171069000Y-78232000D01*
%TD*%
%TA.AperFunction,Conductor*%
%TO.N,GND*%
G36*
X141849289Y-81770576D02*
G01*
X141906124Y-81813123D01*
X141928445Y-81870045D01*
X141929284Y-81869867D01*
X141930359Y-81874925D01*
X141930565Y-81875450D01*
X141930657Y-81876325D01*
X141930658Y-81876328D01*
X141989673Y-82057956D01*
X141989676Y-82057961D01*
X142085157Y-82223340D01*
X142085158Y-82223342D01*
X142085160Y-82223344D01*
X142097537Y-82237090D01*
X142128254Y-82301098D01*
X142119489Y-82371552D01*
X142097537Y-82405709D01*
X142094384Y-82409212D01*
X142085157Y-82419459D01*
X141990168Y-82583986D01*
X141989673Y-82584844D01*
X141986781Y-82593744D01*
X141930657Y-82766472D01*
X141910696Y-82956400D01*
X141930657Y-83146327D01*
X141946301Y-83194473D01*
X141989673Y-83327956D01*
X141989676Y-83327961D01*
X142079372Y-83483320D01*
X142085160Y-83493344D01*
X142158337Y-83574615D01*
X142189053Y-83638620D01*
X142190700Y-83658924D01*
X142190700Y-86063874D01*
X142170698Y-86131995D01*
X142158337Y-86148184D01*
X142085157Y-86229459D01*
X141989676Y-86394838D01*
X141989673Y-86394844D01*
X141978041Y-86430642D01*
X141930657Y-86576472D01*
X141912938Y-86745070D01*
X141885925Y-86810727D01*
X141827704Y-86851357D01*
X141787628Y-86857900D01*
X137415280Y-86857900D01*
X137347159Y-86837898D01*
X137306161Y-86794900D01*
X137302834Y-86789138D01*
X137213240Y-86633956D01*
X137136183Y-86548376D01*
X137105467Y-86484369D01*
X137114231Y-86413915D01*
X137140722Y-86374974D01*
X141716163Y-81799535D01*
X141778473Y-81765511D01*
X141849289Y-81770576D01*
G37*
%TD.AperFunction*%
%TA.AperFunction,Conductor*%
G36*
X163158073Y-75860902D02*
G01*
X163204566Y-75914558D01*
X163214670Y-75984832D01*
X163185176Y-76049412D01*
X163183588Y-76051210D01*
X163167165Y-76069448D01*
X163167158Y-76069458D01*
X163071676Y-76234838D01*
X163071673Y-76234845D01*
X163012657Y-76416472D01*
X162992696Y-76606399D01*
X163012657Y-76796327D01*
X163033033Y-76859035D01*
X163071673Y-76977956D01*
X163084952Y-77000956D01*
X163167158Y-77143341D01*
X163167165Y-77143351D01*
X163294944Y-77285264D01*
X163320655Y-77303944D01*
X163449448Y-77397518D01*
X163623912Y-77475194D01*
X163810713Y-77514900D01*
X164001687Y-77514900D01*
X164188488Y-77475194D01*
X164313348Y-77419602D01*
X164383713Y-77410168D01*
X164448011Y-77440274D01*
X164485824Y-77500362D01*
X164485149Y-77571356D01*
X164473719Y-77597703D01*
X164468675Y-77606439D01*
X164468673Y-77606445D01*
X164409657Y-77788072D01*
X164392292Y-77953292D01*
X164365279Y-78018949D01*
X164356077Y-78029216D01*
X163433298Y-78951996D01*
X163370988Y-78986020D01*
X163344205Y-78988900D01*
X161484151Y-78988900D01*
X161416030Y-78968898D01*
X161369537Y-78915242D01*
X161359433Y-78844968D01*
X161375032Y-78799900D01*
X161378240Y-78794344D01*
X161473727Y-78628956D01*
X161532742Y-78447328D01*
X161552704Y-78257400D01*
X161532742Y-78067472D01*
X161473727Y-77885844D01*
X161380072Y-77723630D01*
X161370792Y-77703727D01*
X161355726Y-77662334D01*
X161347404Y-77637219D01*
X161331314Y-77588662D01*
X161331309Y-77588655D01*
X161328212Y-77582011D01*
X161328274Y-77581981D01*
X161324988Y-77575195D01*
X161324928Y-77575226D01*
X161321633Y-77568665D01*
X161278966Y-77503794D01*
X161239787Y-77440274D01*
X161238230Y-77437749D01*
X161238227Y-77437746D01*
X161233678Y-77431992D01*
X161233731Y-77431949D01*
X161228966Y-77426100D01*
X161228915Y-77426144D01*
X161224198Y-77420522D01*
X161167718Y-77367237D01*
X160000325Y-76199844D01*
X159969588Y-76149687D01*
X159922846Y-76005834D01*
X159920819Y-75934869D01*
X159957482Y-75874071D01*
X160021194Y-75842746D01*
X160042680Y-75840900D01*
X163089952Y-75840900D01*
X163158073Y-75860902D01*
G37*
%TD.AperFunction*%
%TA.AperFunction,Conductor*%
G36*
X192569477Y-108645402D02*
G01*
X192615970Y-108699058D01*
X192626074Y-108769332D01*
X192622253Y-108786896D01*
X192616200Y-108807511D01*
X192616200Y-108951288D01*
X192622253Y-108971904D01*
X192622252Y-109042900D01*
X192583867Y-109102626D01*
X192519286Y-109132118D01*
X192501356Y-109133400D01*
X191191044Y-109133400D01*
X191122923Y-109113398D01*
X191076430Y-109059742D01*
X191066326Y-108989468D01*
X191070147Y-108971904D01*
X191076200Y-108951288D01*
X191076200Y-108807511D01*
X191070147Y-108786896D01*
X191070148Y-108715900D01*
X191108533Y-108656174D01*
X191173114Y-108626682D01*
X191191044Y-108625400D01*
X192501356Y-108625400D01*
X192569477Y-108645402D01*
G37*
%TD.AperFunction*%
%TA.AperFunction,Conductor*%
G36*
X104723922Y-73769912D02*
G01*
X104950783Y-73996773D01*
X104984809Y-74059085D01*
X104979744Y-74129900D01*
X104937197Y-74186736D01*
X104931690Y-74190633D01*
X104844015Y-74249215D01*
X104785433Y-74336890D01*
X104730956Y-74382418D01*
X104660512Y-74391265D01*
X104596468Y-74360624D01*
X104591573Y-74355983D01*
X104364712Y-74129122D01*
X104330686Y-74066810D01*
X104335751Y-73995995D01*
X104371974Y-73944218D01*
X104462070Y-73867270D01*
X104539018Y-73777175D01*
X104598465Y-73738368D01*
X104669460Y-73737860D01*
X104723922Y-73769912D01*
G37*
%TD.AperFunction*%
%TA.AperFunction,Conductor*%
G36*
X102063604Y-73740950D02*
G01*
X102115381Y-73777173D01*
X102190636Y-73865287D01*
X102192330Y-73867270D01*
X102282422Y-73944216D01*
X102321231Y-74003667D01*
X102321737Y-74074662D01*
X102289686Y-74129122D01*
X102062825Y-74355983D01*
X102000513Y-74390009D01*
X101929698Y-74384944D01*
X101872862Y-74342397D01*
X101868964Y-74336889D01*
X101865639Y-74331913D01*
X101865639Y-74331911D01*
X101810384Y-74249216D01*
X101810382Y-74249215D01*
X101810382Y-74249214D01*
X101722709Y-74190633D01*
X101677181Y-74136157D01*
X101668332Y-74065714D01*
X101698973Y-74001669D01*
X101703615Y-73996773D01*
X101930477Y-73769911D01*
X101992789Y-73735885D01*
X102063604Y-73740950D01*
G37*
%TD.AperFunction*%
%TA.AperFunction,Conductor*%
G36*
X104724700Y-71079854D02*
G01*
X104781536Y-71122401D01*
X104785433Y-71127909D01*
X104844014Y-71215582D01*
X104844015Y-71215582D01*
X104844016Y-71215584D01*
X104926711Y-71270839D01*
X104926713Y-71270839D01*
X104931689Y-71274164D01*
X104977217Y-71328641D01*
X104986066Y-71399084D01*
X104955425Y-71463128D01*
X104950783Y-71468025D01*
X104723922Y-71694886D01*
X104661610Y-71728912D01*
X104590795Y-71723847D01*
X104539016Y-71687622D01*
X104462070Y-71597530D01*
X104462070Y-71597529D01*
X104371974Y-71520581D01*
X104333167Y-71461133D01*
X104332659Y-71390139D01*
X104364711Y-71335677D01*
X104591573Y-71108815D01*
X104653885Y-71074789D01*
X104724700Y-71079854D01*
G37*
%TD.AperFunction*%
%TA.AperFunction,Conductor*%
G36*
X102057929Y-71104174D02*
G01*
X102062826Y-71108816D01*
X102289687Y-71335677D01*
X102323713Y-71397989D01*
X102318648Y-71468804D01*
X102282423Y-71520583D01*
X102192330Y-71597530D01*
X102115383Y-71687623D01*
X102055932Y-71726432D01*
X101984937Y-71726938D01*
X101930477Y-71694887D01*
X101703616Y-71468026D01*
X101669590Y-71405714D01*
X101674655Y-71334899D01*
X101717202Y-71278063D01*
X101722710Y-71274165D01*
X101727687Y-71270839D01*
X101727689Y-71270839D01*
X101810384Y-71215584D01*
X101865639Y-71132889D01*
X101865639Y-71132887D01*
X101868965Y-71127910D01*
X101923442Y-71082382D01*
X101993885Y-71073533D01*
X102057929Y-71104174D01*
G37*
%TD.AperFunction*%
%TA.AperFunction,Conductor*%
G36*
X142166609Y-71039945D02*
G01*
X142223445Y-71082492D01*
X142228562Y-71089861D01*
X142264639Y-71145998D01*
X142373300Y-71240152D01*
X142373301Y-71240152D01*
X142380111Y-71246053D01*
X142378086Y-71248389D01*
X142414484Y-71290387D01*
X142424595Y-71360660D01*
X142395109Y-71425243D01*
X142388972Y-71431836D01*
X141880710Y-71940098D01*
X141901094Y-71955963D01*
X141901100Y-71955968D01*
X141934606Y-71974100D01*
X141984997Y-72024113D01*
X142000349Y-72093430D01*
X141975789Y-72160043D01*
X141934609Y-72195726D01*
X141900830Y-72214006D01*
X141900824Y-72214011D01*
X141723162Y-72352291D01*
X141570679Y-72517929D01*
X141481883Y-72653843D01*
X141427879Y-72699931D01*
X141357531Y-72709506D01*
X141293174Y-72679529D01*
X141270917Y-72653843D01*
X141182120Y-72517929D01*
X141029637Y-72352291D01*
X140921407Y-72268052D01*
X140851976Y-72214011D01*
X140847149Y-72211399D01*
X140818720Y-72196014D01*
X140768329Y-72146002D01*
X140752976Y-72076685D01*
X140777536Y-72010072D01*
X140818720Y-71974386D01*
X140851976Y-71956389D01*
X141029640Y-71818106D01*
X141182122Y-71652468D01*
X141271216Y-71516098D01*
X141325219Y-71470010D01*
X141395567Y-71460435D01*
X141459924Y-71490412D01*
X141482182Y-71516098D01*
X141523322Y-71579066D01*
X142033481Y-71068906D01*
X142095794Y-71034881D01*
X142166609Y-71039945D01*
G37*
%TD.AperFunction*%
%TA.AperFunction,Conductor*%
G36*
X143252733Y-71062776D02*
G01*
X143259317Y-71068907D01*
X143790995Y-71600585D01*
X143825021Y-71662897D01*
X143827900Y-71689680D01*
X143827900Y-71713849D01*
X143834409Y-71774396D01*
X143834411Y-71774404D01*
X143885510Y-71911402D01*
X143885512Y-71911407D01*
X143973138Y-72028461D01*
X144090191Y-72116086D01*
X144090192Y-72116086D01*
X144090196Y-72116089D01*
X144205210Y-72158987D01*
X144262042Y-72201532D01*
X144286853Y-72268052D01*
X144271762Y-72337426D01*
X144253875Y-72362379D01*
X144110680Y-72517929D01*
X144110679Y-72517929D01*
X144021883Y-72653843D01*
X143967879Y-72699931D01*
X143897531Y-72709506D01*
X143833174Y-72679529D01*
X143810917Y-72653843D01*
X143722120Y-72517929D01*
X143569637Y-72352291D01*
X143461407Y-72268052D01*
X143391976Y-72214011D01*
X143358192Y-72195728D01*
X143307802Y-72145716D01*
X143292450Y-72076399D01*
X143317010Y-72009786D01*
X143358193Y-71974101D01*
X143391699Y-71955968D01*
X143391702Y-71955966D01*
X143412088Y-71940098D01*
X142903827Y-71431838D01*
X142869802Y-71369525D01*
X142874866Y-71298710D01*
X142913545Y-71247040D01*
X142912689Y-71246053D01*
X142917230Y-71242117D01*
X142917413Y-71241874D01*
X142917910Y-71241528D01*
X142919495Y-71240153D01*
X142919500Y-71240152D01*
X143028161Y-71145998D01*
X143064224Y-71089881D01*
X143117878Y-71043389D01*
X143188152Y-71033284D01*
X143252733Y-71062776D01*
G37*
%TD.AperFunction*%
%TA.AperFunction,Conductor*%
G36*
X191988019Y-68643193D02*
G01*
X192034578Y-68696791D01*
X192044769Y-68767053D01*
X192015355Y-68831670D01*
X191977232Y-68861542D01*
X191686711Y-69009571D01*
X191360758Y-69221247D01*
X191105343Y-69428077D01*
X191772727Y-70095460D01*
X191806752Y-70157773D01*
X191801688Y-70228588D01*
X191759141Y-70285424D01*
X191753634Y-70289321D01*
X191665959Y-70347903D01*
X191607377Y-70435578D01*
X191552900Y-70481106D01*
X191482456Y-70489953D01*
X191418412Y-70459312D01*
X191413516Y-70454671D01*
X190746133Y-69787287D01*
X190539303Y-70042702D01*
X190327627Y-70368655D01*
X190151179Y-70714952D01*
X190151175Y-70714960D01*
X190011900Y-71077785D01*
X189911307Y-71453204D01*
X189850506Y-71837085D01*
X189830167Y-72225193D01*
X189830167Y-72225206D01*
X189850506Y-72613314D01*
X189911307Y-72997195D01*
X190011900Y-73372614D01*
X190151175Y-73735439D01*
X190151179Y-73735447D01*
X190327621Y-74081735D01*
X190327625Y-74081741D01*
X190539298Y-74407691D01*
X190539310Y-74407708D01*
X190746132Y-74663111D01*
X191413516Y-73995727D01*
X191475829Y-73961702D01*
X191546644Y-73966766D01*
X191603480Y-74009313D01*
X191607377Y-74014821D01*
X191665959Y-74102496D01*
X191753632Y-74161077D01*
X191799160Y-74215553D01*
X191808009Y-74285996D01*
X191777368Y-74350041D01*
X191772727Y-74354937D01*
X191105342Y-75022321D01*
X191105343Y-75022322D01*
X191360747Y-75229145D01*
X191360764Y-75229157D01*
X191686714Y-75440830D01*
X191686720Y-75440834D01*
X192033008Y-75617276D01*
X192033016Y-75617280D01*
X192395841Y-75756555D01*
X192771260Y-75857148D01*
X193155141Y-75917949D01*
X193543250Y-75938289D01*
X193543262Y-75938289D01*
X193931370Y-75917949D01*
X194315251Y-75857148D01*
X194690670Y-75756555D01*
X195053495Y-75617280D01*
X195053503Y-75617276D01*
X195399791Y-75440834D01*
X195399797Y-75440830D01*
X195725757Y-75229150D01*
X195981167Y-75022321D01*
X195313784Y-74354939D01*
X195279759Y-74292626D01*
X195284823Y-74221811D01*
X195327370Y-74164975D01*
X195332878Y-74161077D01*
X195337855Y-74157751D01*
X195337857Y-74157751D01*
X195420552Y-74102496D01*
X195475807Y-74019801D01*
X195475807Y-74019799D01*
X195479133Y-74014822D01*
X195533610Y-73969294D01*
X195604053Y-73960445D01*
X195668097Y-73991086D01*
X195672995Y-73995728D01*
X196340377Y-74663111D01*
X196547206Y-74407701D01*
X196758886Y-74081741D01*
X196758890Y-74081735D01*
X196935332Y-73735447D01*
X196935336Y-73735439D01*
X197074611Y-73372614D01*
X197175204Y-72997195D01*
X197236005Y-72613314D01*
X197256345Y-72225206D01*
X197256345Y-72225193D01*
X197236005Y-71837085D01*
X197175204Y-71453204D01*
X197074611Y-71077785D01*
X196980298Y-70832090D01*
X196974559Y-70761326D01*
X197007990Y-70698693D01*
X197069975Y-70664076D01*
X197140836Y-70668467D01*
X197198074Y-70710470D01*
X197205483Y-70721299D01*
X197260096Y-70810789D01*
X197262082Y-70814291D01*
X197352345Y-70985980D01*
X197390299Y-71062776D01*
X197440210Y-71163768D01*
X197442012Y-71167758D01*
X197515885Y-71347719D01*
X197587285Y-71531770D01*
X197588828Y-71536240D01*
X197645743Y-71723530D01*
X197700091Y-71911739D01*
X197701302Y-71916670D01*
X197740900Y-72111497D01*
X197777665Y-72300454D01*
X197778471Y-72305822D01*
X197801215Y-72519555D01*
X197818760Y-72688907D01*
X197819095Y-72695392D01*
X197821669Y-87761039D01*
X197668682Y-123131543D01*
X197665017Y-123161172D01*
X197661217Y-123176579D01*
X197659879Y-123181226D01*
X197598389Y-123367664D01*
X197533079Y-123553175D01*
X197531442Y-123557345D01*
X197452805Y-123738469D01*
X197370223Y-123916084D01*
X197368364Y-123919763D01*
X197273229Y-124093646D01*
X197174076Y-124262128D01*
X197172072Y-124265313D01*
X197061238Y-124430252D01*
X196946355Y-124588268D01*
X196944280Y-124590967D01*
X196818704Y-124745408D01*
X196689062Y-124891634D01*
X196686987Y-124893864D01*
X196548816Y-125035305D01*
X196546635Y-125037432D01*
X196403472Y-125170466D01*
X196251998Y-125299628D01*
X196249348Y-125301766D01*
X196181220Y-125353775D01*
X196114937Y-125379212D01*
X196045423Y-125364775D01*
X195994750Y-125315048D01*
X195978937Y-125247028D01*
X195981167Y-125204465D01*
X195313784Y-124537083D01*
X195279759Y-124474770D01*
X195284823Y-124403955D01*
X195327370Y-124347119D01*
X195332878Y-124343221D01*
X195337855Y-124339895D01*
X195337857Y-124339895D01*
X195420552Y-124284640D01*
X195475807Y-124201945D01*
X195475807Y-124201943D01*
X195479133Y-124196966D01*
X195533610Y-124151438D01*
X195604053Y-124142589D01*
X195668097Y-124173230D01*
X195672995Y-124177872D01*
X196340377Y-124845255D01*
X196547206Y-124589845D01*
X196758886Y-124263885D01*
X196758890Y-124263879D01*
X196935332Y-123917591D01*
X196935336Y-123917583D01*
X197074611Y-123554758D01*
X197175204Y-123179339D01*
X197236005Y-122795458D01*
X197256345Y-122407350D01*
X197256345Y-122407337D01*
X197236005Y-122019229D01*
X197175204Y-121635348D01*
X197074611Y-121259929D01*
X196935336Y-120897104D01*
X196935332Y-120897096D01*
X196758884Y-120550799D01*
X196547213Y-120224852D01*
X196547201Y-120224835D01*
X196340378Y-119969431D01*
X196340377Y-119969430D01*
X195672993Y-120636815D01*
X195610681Y-120670840D01*
X195539865Y-120665775D01*
X195483030Y-120623228D01*
X195479133Y-120617720D01*
X195420552Y-120530047D01*
X195332877Y-120471465D01*
X195287349Y-120416989D01*
X195278500Y-120346546D01*
X195309141Y-120282501D01*
X195313783Y-120277604D01*
X195981167Y-119610220D01*
X195725764Y-119403398D01*
X195725747Y-119403386D01*
X195399797Y-119191713D01*
X195399791Y-119191709D01*
X195053503Y-119015267D01*
X195053495Y-119015263D01*
X194690670Y-118875988D01*
X194315251Y-118775395D01*
X193931370Y-118714594D01*
X193543262Y-118694255D01*
X193543250Y-118694255D01*
X193155141Y-118714594D01*
X192771260Y-118775395D01*
X192395841Y-118875988D01*
X192033016Y-119015263D01*
X192033008Y-119015267D01*
X191686711Y-119191715D01*
X191360758Y-119403391D01*
X191105343Y-119610221D01*
X191772727Y-120277604D01*
X191806752Y-120339917D01*
X191801688Y-120410732D01*
X191759141Y-120467568D01*
X191753634Y-120471465D01*
X191665959Y-120530047D01*
X191607377Y-120617722D01*
X191552900Y-120663250D01*
X191482456Y-120672097D01*
X191418412Y-120641456D01*
X191413516Y-120636815D01*
X190746133Y-119969431D01*
X190539303Y-120224846D01*
X190327627Y-120550799D01*
X190151179Y-120897096D01*
X190151175Y-120897104D01*
X190011900Y-121259929D01*
X189911307Y-121635348D01*
X189850506Y-122019229D01*
X189830167Y-122407337D01*
X189830167Y-122407350D01*
X189850506Y-122795458D01*
X189911307Y-123179339D01*
X190011900Y-123554758D01*
X190151175Y-123917583D01*
X190151179Y-123917591D01*
X190327621Y-124263879D01*
X190327625Y-124263885D01*
X190539298Y-124589835D01*
X190539310Y-124589852D01*
X190746132Y-124845255D01*
X191413516Y-124177871D01*
X191475829Y-124143846D01*
X191546644Y-124148910D01*
X191603480Y-124191457D01*
X191607377Y-124196965D01*
X191665959Y-124284640D01*
X191753632Y-124343221D01*
X191799160Y-124397697D01*
X191808009Y-124468140D01*
X191777368Y-124532185D01*
X191772727Y-124537081D01*
X191105342Y-125204465D01*
X191105343Y-125204466D01*
X191360747Y-125411289D01*
X191360764Y-125411301D01*
X191686714Y-125622974D01*
X191686720Y-125622978D01*
X192033008Y-125799420D01*
X192033016Y-125799424D01*
X192395841Y-125938699D01*
X192609693Y-125996000D01*
X192670316Y-126032952D01*
X192701337Y-126096812D01*
X192692909Y-126167307D01*
X192647706Y-126222054D01*
X192580081Y-126243671D01*
X192577159Y-126243707D01*
X141431350Y-126274995D01*
X103937940Y-126237439D01*
X103869839Y-126217369D01*
X103823400Y-126163666D01*
X103813367Y-126093382D01*
X103842924Y-126028831D01*
X103902689Y-125990507D01*
X103918356Y-125986990D01*
X104099193Y-125958349D01*
X104474614Y-125857755D01*
X104837439Y-125718480D01*
X104837447Y-125718476D01*
X105183735Y-125542034D01*
X105183741Y-125542030D01*
X105509701Y-125330350D01*
X105765111Y-125123521D01*
X105097728Y-124456139D01*
X105063703Y-124393826D01*
X105068767Y-124323011D01*
X105111314Y-124266175D01*
X105116822Y-124262277D01*
X105121799Y-124258951D01*
X105121801Y-124258951D01*
X105204496Y-124203696D01*
X105259751Y-124121001D01*
X105259751Y-124120999D01*
X105263077Y-124116022D01*
X105317554Y-124070494D01*
X105387997Y-124061645D01*
X105452041Y-124092286D01*
X105456939Y-124096928D01*
X106124321Y-124764311D01*
X106331150Y-124508901D01*
X106542830Y-124182941D01*
X106542834Y-124182935D01*
X106719276Y-123836647D01*
X106719280Y-123836639D01*
X106858555Y-123473814D01*
X106959148Y-123098395D01*
X107019949Y-122714514D01*
X107040289Y-122326406D01*
X107040289Y-122326393D01*
X107019949Y-121938285D01*
X106959148Y-121554404D01*
X106858555Y-121178985D01*
X106811501Y-121056404D01*
X108655108Y-121056404D01*
X108673852Y-121330448D01*
X108673853Y-121330454D01*
X108729742Y-121599411D01*
X108729744Y-121599419D01*
X108821738Y-121858265D01*
X108948114Y-122102156D01*
X108948116Y-122102159D01*
X109078340Y-122286647D01*
X109982320Y-121382667D01*
X110044633Y-121348642D01*
X110115448Y-121353706D01*
X110171377Y-121395056D01*
X110211347Y-121447146D01*
X110239876Y-121484326D01*
X110329139Y-121552819D01*
X110371007Y-121610157D01*
X110375229Y-121681028D01*
X110341531Y-121741877D01*
X109438515Y-122644892D01*
X109438515Y-122644894D01*
X109507113Y-122700704D01*
X109507118Y-122700707D01*
X109741830Y-122843438D01*
X109993789Y-122952880D01*
X110258309Y-123026995D01*
X110530435Y-123064399D01*
X110530449Y-123064400D01*
X110805151Y-123064400D01*
X110805164Y-123064399D01*
X111077290Y-123026995D01*
X111341810Y-122952880D01*
X111593769Y-122843438D01*
X111828479Y-122700709D01*
X111897083Y-122644893D01*
X110994068Y-121741879D01*
X110960043Y-121679566D01*
X110965107Y-121608751D01*
X111006460Y-121552820D01*
X111095725Y-121484325D01*
X111124248Y-121447153D01*
X111164221Y-121395058D01*
X111221558Y-121353192D01*
X111292429Y-121348970D01*
X111353278Y-121382668D01*
X112257257Y-122286647D01*
X112387482Y-122102162D01*
X112387485Y-122102156D01*
X112513861Y-121858265D01*
X112605855Y-121599419D01*
X112605857Y-121599411D01*
X112661746Y-121330454D01*
X112661747Y-121330448D01*
X112679972Y-121064004D01*
X113527407Y-121064004D01*
X113546156Y-121338116D01*
X113546157Y-121338122D01*
X113546158Y-121338130D01*
X113568814Y-121447154D01*
X113602060Y-121607146D01*
X113602062Y-121607154D01*
X113628317Y-121681028D01*
X113694077Y-121866058D01*
X113816414Y-122102159D01*
X113820492Y-122110028D01*
X113863329Y-122170714D01*
X113978943Y-122334502D01*
X114166489Y-122535314D01*
X114379631Y-122708718D01*
X114614400Y-122851484D01*
X114866423Y-122960953D01*
X115131004Y-123035085D01*
X115226104Y-123048156D01*
X115403204Y-123072499D01*
X115403215Y-123072500D01*
X115677985Y-123072500D01*
X115677995Y-123072499D01*
X115807545Y-123054692D01*
X115950196Y-123035085D01*
X116214777Y-122960953D01*
X116466800Y-122851484D01*
X116701569Y-122708718D01*
X116914711Y-122535314D01*
X117102257Y-122334502D01*
X117260711Y-122110023D01*
X117387123Y-121866058D01*
X117479138Y-121607153D01*
X117535042Y-121338130D01*
X117535567Y-121330454D01*
X117553793Y-121064004D01*
X117553793Y-121063995D01*
X117542849Y-120904004D01*
X118408207Y-120904004D01*
X118426956Y-121178116D01*
X118426957Y-121178122D01*
X118426958Y-121178130D01*
X118434211Y-121213031D01*
X118482860Y-121447146D01*
X118482862Y-121447154D01*
X118565159Y-121678713D01*
X118574877Y-121706058D01*
X118639328Y-121830444D01*
X118701292Y-121950028D01*
X118740536Y-122005624D01*
X118859743Y-122174502D01*
X119047289Y-122375314D01*
X119260431Y-122548718D01*
X119495200Y-122691484D01*
X119495202Y-122691485D01*
X119516433Y-122700707D01*
X119747223Y-122800953D01*
X120011804Y-122875085D01*
X120106904Y-122888156D01*
X120284004Y-122912499D01*
X120284015Y-122912500D01*
X120558785Y-122912500D01*
X120558795Y-122912499D01*
X120688345Y-122894692D01*
X120830996Y-122875085D01*
X121095577Y-122800953D01*
X121347600Y-122691484D01*
X121582369Y-122548718D01*
X121795511Y-122375314D01*
X121983057Y-122174502D01*
X122141511Y-121950023D01*
X122267923Y-121706058D01*
X122359938Y-121447153D01*
X122415842Y-121178130D01*
X122423575Y-121065083D01*
X122434593Y-120904004D01*
X122434593Y-120903995D01*
X122415843Y-120629883D01*
X122415842Y-120629877D01*
X122415842Y-120629870D01*
X122359938Y-120360847D01*
X122267923Y-120101942D01*
X122141511Y-119857977D01*
X121983057Y-119633498D01*
X121795511Y-119432686D01*
X121582369Y-119259282D01*
X121347600Y-119116516D01*
X121347601Y-119116516D01*
X121347597Y-119116514D01*
X121095580Y-119007048D01*
X121095578Y-119007047D01*
X121095577Y-119007047D01*
X120963286Y-118969980D01*
X120830993Y-118932914D01*
X120558795Y-118895500D01*
X120558785Y-118895500D01*
X120284015Y-118895500D01*
X120284004Y-118895500D01*
X120011806Y-118932914D01*
X119747219Y-119007048D01*
X119495202Y-119116514D01*
X119260428Y-119259284D01*
X119047286Y-119432688D01*
X118859743Y-119633498D01*
X118701292Y-119857971D01*
X118574877Y-120101941D01*
X118482862Y-120360845D01*
X118482860Y-120360853D01*
X118453397Y-120502641D01*
X118427068Y-120629344D01*
X118426957Y-120629877D01*
X118426956Y-120629883D01*
X118408207Y-120903995D01*
X118408207Y-120904004D01*
X117542849Y-120904004D01*
X117535043Y-120789883D01*
X117535042Y-120789877D01*
X117535042Y-120789870D01*
X117479138Y-120520847D01*
X117387123Y-120261942D01*
X117260711Y-120017977D01*
X117253205Y-120007344D01*
X117169307Y-119888487D01*
X117102257Y-119793498D01*
X116914711Y-119592686D01*
X116701569Y-119419282D01*
X116466800Y-119276516D01*
X116466801Y-119276516D01*
X116466797Y-119276514D01*
X116214780Y-119167048D01*
X116214778Y-119167047D01*
X116214777Y-119167047D01*
X116013904Y-119110765D01*
X115950193Y-119092914D01*
X115677995Y-119055500D01*
X115677985Y-119055500D01*
X115403215Y-119055500D01*
X115403204Y-119055500D01*
X115131006Y-119092914D01*
X114866419Y-119167048D01*
X114614402Y-119276514D01*
X114379628Y-119419284D01*
X114166486Y-119592688D01*
X113978943Y-119793498D01*
X113820492Y-120017971D01*
X113694077Y-120261941D01*
X113602062Y-120520845D01*
X113602060Y-120520853D01*
X113569741Y-120676382D01*
X113547721Y-120782351D01*
X113546157Y-120789877D01*
X113546156Y-120789883D01*
X113527407Y-121063995D01*
X113527407Y-121064004D01*
X112679972Y-121064004D01*
X112680492Y-121056404D01*
X112680492Y-121056395D01*
X112661747Y-120782351D01*
X112661746Y-120782345D01*
X112605857Y-120513388D01*
X112605855Y-120513380D01*
X112513861Y-120254534D01*
X112387485Y-120010643D01*
X112387481Y-120010637D01*
X112257257Y-119826150D01*
X111353277Y-120730131D01*
X111290965Y-120764157D01*
X111220150Y-120759092D01*
X111164219Y-120717739D01*
X111163192Y-120716401D01*
X111105686Y-120641456D01*
X111095726Y-120628476D01*
X111081711Y-120617722D01*
X111006456Y-120559977D01*
X110964591Y-120502641D01*
X110960369Y-120431770D01*
X110994067Y-120370920D01*
X111897083Y-119467904D01*
X111828480Y-119412091D01*
X111593769Y-119269361D01*
X111341810Y-119159919D01*
X111077290Y-119085804D01*
X110805164Y-119048400D01*
X110530435Y-119048400D01*
X110258309Y-119085804D01*
X109993789Y-119159919D01*
X109741830Y-119269361D01*
X109507125Y-119412087D01*
X109438515Y-119467905D01*
X110341531Y-120370920D01*
X110375556Y-120433233D01*
X110370492Y-120504048D01*
X110329141Y-120559978D01*
X110239875Y-120628475D01*
X110171378Y-120717741D01*
X110114040Y-120759608D01*
X110043169Y-120763829D01*
X109982320Y-120730131D01*
X109078340Y-119826150D01*
X108948117Y-120010636D01*
X108821738Y-120254534D01*
X108729744Y-120513380D01*
X108729742Y-120513388D01*
X108673853Y-120782345D01*
X108673852Y-120782351D01*
X108655108Y-121056395D01*
X108655108Y-121056404D01*
X106811501Y-121056404D01*
X106719280Y-120816160D01*
X106719276Y-120816152D01*
X106542828Y-120469855D01*
X106331157Y-120143908D01*
X106331145Y-120143891D01*
X106124322Y-119888487D01*
X106124321Y-119888486D01*
X105456937Y-120555871D01*
X105394625Y-120589896D01*
X105323809Y-120584831D01*
X105266974Y-120542284D01*
X105263077Y-120536776D01*
X105204496Y-120449103D01*
X105116821Y-120390521D01*
X105071293Y-120336045D01*
X105062444Y-120265602D01*
X105093085Y-120201557D01*
X105097727Y-120196660D01*
X105765111Y-119529276D01*
X105509708Y-119322454D01*
X105509691Y-119322442D01*
X105183741Y-119110769D01*
X105183735Y-119110765D01*
X104837447Y-118934323D01*
X104837439Y-118934319D01*
X104474614Y-118795044D01*
X104099195Y-118694451D01*
X103715314Y-118633650D01*
X103327206Y-118613311D01*
X103327194Y-118613311D01*
X102939085Y-118633650D01*
X102555204Y-118694451D01*
X102179785Y-118795044D01*
X101816960Y-118934319D01*
X101816952Y-118934323D01*
X101470655Y-119110771D01*
X101144702Y-119322447D01*
X100889287Y-119529277D01*
X101556671Y-120196660D01*
X101590696Y-120258973D01*
X101585632Y-120329788D01*
X101543085Y-120386624D01*
X101537578Y-120390521D01*
X101449903Y-120449103D01*
X101391321Y-120536778D01*
X101336844Y-120582306D01*
X101266400Y-120591153D01*
X101202356Y-120560512D01*
X101197460Y-120555871D01*
X100530077Y-119888487D01*
X100323247Y-120143902D01*
X100111571Y-120469855D01*
X99935123Y-120816152D01*
X99935119Y-120816160D01*
X99795844Y-121178985D01*
X99695251Y-121554404D01*
X99634450Y-121938285D01*
X99614111Y-122326393D01*
X99614111Y-122326406D01*
X99634450Y-122714514D01*
X99695251Y-123098395D01*
X99795844Y-123473814D01*
X99935119Y-123836639D01*
X99935123Y-123836647D01*
X100111565Y-124182935D01*
X100111569Y-124182941D01*
X100323242Y-124508891D01*
X100323254Y-124508908D01*
X100530076Y-124764311D01*
X101197460Y-124096927D01*
X101259773Y-124062902D01*
X101330588Y-124067966D01*
X101387424Y-124110513D01*
X101391321Y-124116021D01*
X101449903Y-124203696D01*
X101537576Y-124262277D01*
X101583104Y-124316753D01*
X101591953Y-124387196D01*
X101561312Y-124451241D01*
X101556671Y-124456137D01*
X100889286Y-125123521D01*
X100889287Y-125123522D01*
X101144691Y-125330345D01*
X101144708Y-125330357D01*
X101470658Y-125542030D01*
X101470664Y-125542034D01*
X101816952Y-125718476D01*
X101816960Y-125718480D01*
X102179785Y-125857755D01*
X102531955Y-125952119D01*
X102542616Y-125958617D01*
X102563409Y-125959648D01*
X102728268Y-125985759D01*
X102792421Y-126016171D01*
X102829948Y-126076440D01*
X102828934Y-126147429D01*
X102789701Y-126206601D01*
X102724706Y-126235169D01*
X102708432Y-126236208D01*
X102681241Y-126236181D01*
X102663151Y-126234857D01*
X102662038Y-126234694D01*
X102592755Y-126224572D01*
X102587660Y-126223612D01*
X102515272Y-126206849D01*
X102502599Y-126199707D01*
X102502342Y-126199790D01*
X102470919Y-126196578D01*
X102435161Y-126188297D01*
X102396370Y-126179315D01*
X102332011Y-126163443D01*
X102206918Y-126132594D01*
X102202268Y-126131256D01*
X102014470Y-126069317D01*
X101831412Y-126004871D01*
X101827241Y-126003234D01*
X101645125Y-125924166D01*
X101469542Y-125842530D01*
X101465863Y-125840670D01*
X101291230Y-125745125D01*
X101124510Y-125647010D01*
X101121325Y-125645005D01*
X100955766Y-125533756D01*
X100799330Y-125420021D01*
X100796632Y-125417945D01*
X100641640Y-125291921D01*
X100496859Y-125163561D01*
X100494629Y-125161485D01*
X100352657Y-125022795D01*
X100350530Y-125020614D01*
X100218829Y-124878882D01*
X100121133Y-124764311D01*
X100089209Y-124726872D01*
X100087082Y-124724237D01*
X99969724Y-124570505D01*
X99888930Y-124456139D01*
X99854609Y-124407556D01*
X99852543Y-124404438D01*
X99750572Y-124240082D01*
X99667843Y-124096927D01*
X99650949Y-124067694D01*
X99649004Y-124064059D01*
X99605736Y-123976418D01*
X99563310Y-123890484D01*
X99479985Y-123710224D01*
X99478271Y-123706141D01*
X99409538Y-123524570D01*
X99397699Y-123491310D01*
X99343223Y-123338264D01*
X99341798Y-123333714D01*
X99290648Y-123145356D01*
X99241892Y-122955160D01*
X99240818Y-122950114D01*
X99207636Y-122754992D01*
X99176858Y-122564172D01*
X99176225Y-122558732D01*
X99160977Y-122346558D01*
X99149022Y-122173300D01*
X99148875Y-122169017D01*
X99146755Y-113617878D01*
X99166740Y-113549756D01*
X99220384Y-113503249D01*
X99290656Y-113493128D01*
X99355244Y-113522605D01*
X99393642Y-113582322D01*
X99395273Y-113588435D01*
X99407119Y-113637775D01*
X99407121Y-113637781D01*
X99505486Y-113875257D01*
X99639791Y-114094424D01*
X99641252Y-114096135D01*
X100100343Y-113637045D01*
X100162656Y-113603020D01*
X100233471Y-113608084D01*
X100285471Y-113644569D01*
X100377003Y-113752329D01*
X100377005Y-113752330D01*
X100377009Y-113752335D01*
X100447583Y-113805984D01*
X100489707Y-113863129D01*
X100494248Y-113933981D01*
X100460424Y-113995384D01*
X100000462Y-114455345D01*
X100000462Y-114455346D01*
X100002174Y-114456807D01*
X100221342Y-114591113D01*
X100458816Y-114689478D01*
X100708753Y-114749482D01*
X100965000Y-114769649D01*
X101221246Y-114749482D01*
X101471183Y-114689478D01*
X101708657Y-114591113D01*
X101927825Y-114456807D01*
X101929535Y-114455346D01*
X101473152Y-113998963D01*
X101439127Y-113936650D01*
X101444191Y-113865835D01*
X101479168Y-113818758D01*
X101477471Y-113816967D01*
X101489069Y-113805981D01*
X101616658Y-113685123D01*
X101636580Y-113655739D01*
X101691363Y-113610582D01*
X101761865Y-113602211D01*
X101825700Y-113633284D01*
X101829965Y-113637354D01*
X102288746Y-114096135D01*
X102290207Y-114094425D01*
X102424513Y-113875257D01*
X102522878Y-113637783D01*
X102582882Y-113387846D01*
X102603049Y-113131600D01*
X104406950Y-113131600D01*
X104427117Y-113387846D01*
X104487121Y-113637783D01*
X104585486Y-113875257D01*
X104719791Y-114094424D01*
X104721252Y-114096135D01*
X105180343Y-113637045D01*
X105242656Y-113603020D01*
X105313471Y-113608084D01*
X105365471Y-113644569D01*
X105457003Y-113752329D01*
X105457005Y-113752330D01*
X105457009Y-113752335D01*
X105527583Y-113805984D01*
X105569707Y-113863129D01*
X105574248Y-113933981D01*
X105540424Y-113995384D01*
X105080462Y-114455345D01*
X105080462Y-114455346D01*
X105082174Y-114456807D01*
X105301342Y-114591113D01*
X105538816Y-114689478D01*
X105788753Y-114749482D01*
X106045000Y-114769649D01*
X106301246Y-114749482D01*
X106551183Y-114689478D01*
X106788657Y-114591113D01*
X107007825Y-114456807D01*
X107009535Y-114455346D01*
X106553152Y-113998963D01*
X106519127Y-113936650D01*
X106524191Y-113865835D01*
X106559168Y-113818758D01*
X106557471Y-113816967D01*
X106569069Y-113805981D01*
X106696658Y-113685123D01*
X106716580Y-113655739D01*
X106771363Y-113610582D01*
X106841865Y-113602211D01*
X106905700Y-113633284D01*
X106909965Y-113637354D01*
X107368746Y-114096135D01*
X107370207Y-114094425D01*
X107504513Y-113875257D01*
X107602878Y-113637783D01*
X107662882Y-113387846D01*
X107683049Y-113131599D01*
X107662882Y-112875353D01*
X107602878Y-112625416D01*
X107504513Y-112387942D01*
X107370207Y-112168774D01*
X107368746Y-112167062D01*
X106909654Y-112626154D01*
X106847342Y-112660179D01*
X106776526Y-112655114D01*
X106724526Y-112618628D01*
X106632995Y-112510869D01*
X106632993Y-112510867D01*
X106632991Y-112510865D01*
X106562415Y-112457214D01*
X106520291Y-112400068D01*
X106515750Y-112329217D01*
X106549574Y-112267813D01*
X107009536Y-111807852D01*
X107007824Y-111806391D01*
X106788657Y-111672086D01*
X106551183Y-111573721D01*
X106301246Y-111513717D01*
X106045000Y-111493550D01*
X105788753Y-111513717D01*
X105538816Y-111573721D01*
X105301342Y-111672086D01*
X105082177Y-111806390D01*
X105082174Y-111806393D01*
X105080462Y-111807852D01*
X105536847Y-112264236D01*
X105570872Y-112326549D01*
X105565808Y-112397364D01*
X105530843Y-112444455D01*
X105532528Y-112446234D01*
X105393339Y-112578079D01*
X105373417Y-112607462D01*
X105318632Y-112652619D01*
X105248130Y-112660988D01*
X105184296Y-112629912D01*
X105180034Y-112625845D01*
X104721252Y-112167062D01*
X104719793Y-112168774D01*
X104719790Y-112168777D01*
X104585486Y-112387942D01*
X104487121Y-112625416D01*
X104427117Y-112875353D01*
X104406950Y-113131600D01*
X102603049Y-113131600D01*
X102582882Y-112875353D01*
X102522878Y-112625416D01*
X102424513Y-112387942D01*
X102290207Y-112168774D01*
X102288746Y-112167062D01*
X101829654Y-112626154D01*
X101767342Y-112660179D01*
X101696526Y-112655114D01*
X101644526Y-112618628D01*
X101552995Y-112510869D01*
X101552993Y-112510867D01*
X101552991Y-112510865D01*
X101482415Y-112457214D01*
X101440291Y-112400068D01*
X101435750Y-112329217D01*
X101469574Y-112267813D01*
X101929536Y-111807852D01*
X101927824Y-111806391D01*
X101708657Y-111672086D01*
X101471183Y-111573721D01*
X101221246Y-111513717D01*
X100965000Y-111493550D01*
X100708753Y-111513717D01*
X100458816Y-111573721D01*
X100221342Y-111672086D01*
X100002177Y-111806390D01*
X100002174Y-111806393D01*
X100000462Y-111807852D01*
X100456847Y-112264236D01*
X100490872Y-112326549D01*
X100485808Y-112397364D01*
X100450843Y-112444455D01*
X100452528Y-112446234D01*
X100313339Y-112578079D01*
X100293417Y-112607462D01*
X100238632Y-112652619D01*
X100168130Y-112660988D01*
X100104296Y-112629912D01*
X100100034Y-112625845D01*
X99641252Y-112167062D01*
X99639793Y-112168774D01*
X99639790Y-112168777D01*
X99505486Y-112387942D01*
X99407121Y-112625417D01*
X99395034Y-112675766D01*
X99359682Y-112737335D01*
X99296655Y-112770018D01*
X99225964Y-112763437D01*
X99170053Y-112719683D01*
X99146672Y-112652647D01*
X99146515Y-112646383D01*
X99146387Y-112129841D01*
X99146006Y-110591600D01*
X101966758Y-110591600D01*
X101980858Y-110770766D01*
X101985696Y-110832233D01*
X102042044Y-111066941D01*
X102127623Y-111273546D01*
X102134416Y-111289947D01*
X102260536Y-111495756D01*
X102417299Y-111679301D01*
X102600844Y-111836064D01*
X102806653Y-111962184D01*
X103029657Y-112054555D01*
X103264366Y-112110904D01*
X103505000Y-112129842D01*
X103745634Y-112110904D01*
X103980343Y-112054555D01*
X104203347Y-111962184D01*
X104409156Y-111836064D01*
X104592701Y-111679301D01*
X104749464Y-111495756D01*
X104875584Y-111289947D01*
X104967955Y-111066943D01*
X105024304Y-110832234D01*
X105043242Y-110591600D01*
X105024304Y-110350966D01*
X104967955Y-110116257D01*
X104875584Y-109893253D01*
X104749464Y-109687444D01*
X104592701Y-109503899D01*
X104409156Y-109347136D01*
X104203347Y-109221016D01*
X104064245Y-109163398D01*
X103980341Y-109128644D01*
X103816227Y-109089244D01*
X103745634Y-109072296D01*
X103505000Y-109053358D01*
X103264366Y-109072296D01*
X103029658Y-109128644D01*
X102806654Y-109221015D01*
X102600845Y-109347135D01*
X102417299Y-109503899D01*
X102260535Y-109687445D01*
X102134415Y-109893254D01*
X102042044Y-110116258D01*
X101997317Y-110302560D01*
X101985696Y-110350966D01*
X101966758Y-110591600D01*
X99146006Y-110591600D01*
X99145495Y-108532629D01*
X99165480Y-108464506D01*
X99219124Y-108417999D01*
X99289396Y-108407878D01*
X99353984Y-108437355D01*
X99392382Y-108497072D01*
X99394014Y-108503185D01*
X99407122Y-108557784D01*
X99505486Y-108795257D01*
X99639791Y-109014424D01*
X99641252Y-109016135D01*
X100100343Y-108557045D01*
X100162656Y-108523020D01*
X100233471Y-108528084D01*
X100285471Y-108564569D01*
X100377003Y-108672329D01*
X100377005Y-108672330D01*
X100377009Y-108672335D01*
X100447583Y-108725984D01*
X100489707Y-108783129D01*
X100494248Y-108853981D01*
X100460424Y-108915384D01*
X100000462Y-109375345D01*
X100000462Y-109375346D01*
X100002174Y-109376807D01*
X100221342Y-109511113D01*
X100458816Y-109609478D01*
X100708753Y-109669482D01*
X100964999Y-109689649D01*
X101221246Y-109669482D01*
X101471183Y-109609478D01*
X101708657Y-109511113D01*
X101927825Y-109376807D01*
X101929535Y-109375346D01*
X101473152Y-108918963D01*
X101439127Y-108856650D01*
X101444191Y-108785835D01*
X101479168Y-108738758D01*
X101477471Y-108736967D01*
X101489069Y-108725981D01*
X101616658Y-108605123D01*
X101636580Y-108575739D01*
X101691363Y-108530582D01*
X101761865Y-108522211D01*
X101825700Y-108553284D01*
X101829965Y-108557354D01*
X102288746Y-109016135D01*
X102290207Y-109014425D01*
X102424513Y-108795257D01*
X102522878Y-108557783D01*
X102582882Y-108307846D01*
X102603049Y-108051600D01*
X104406950Y-108051600D01*
X104427117Y-108307846D01*
X104487121Y-108557783D01*
X104585486Y-108795257D01*
X104719791Y-109014424D01*
X104721252Y-109016135D01*
X105180343Y-108557045D01*
X105242656Y-108523020D01*
X105313471Y-108528084D01*
X105365471Y-108564569D01*
X105457003Y-108672329D01*
X105457005Y-108672330D01*
X105457009Y-108672335D01*
X105527583Y-108725984D01*
X105569707Y-108783129D01*
X105574248Y-108853981D01*
X105540424Y-108915384D01*
X105080462Y-109375345D01*
X105080462Y-109375346D01*
X105082174Y-109376807D01*
X105301342Y-109511113D01*
X105538816Y-109609478D01*
X105788753Y-109669482D01*
X106044999Y-109689649D01*
X106301246Y-109669482D01*
X106551183Y-109609478D01*
X106788657Y-109511113D01*
X107007825Y-109376807D01*
X107009535Y-109375346D01*
X106553152Y-108918963D01*
X106519127Y-108856650D01*
X106524191Y-108785835D01*
X106559168Y-108738758D01*
X106557471Y-108736967D01*
X106569069Y-108725981D01*
X106696658Y-108605123D01*
X106716580Y-108575739D01*
X106771363Y-108530582D01*
X106841865Y-108522211D01*
X106905700Y-108553284D01*
X106909965Y-108557354D01*
X107368746Y-109016135D01*
X107370207Y-109014425D01*
X107504513Y-108795257D01*
X107602878Y-108557783D01*
X107662882Y-108307846D01*
X107683049Y-108051599D01*
X107662882Y-107795353D01*
X107602878Y-107545416D01*
X107504513Y-107307942D01*
X107370207Y-107088774D01*
X107368746Y-107087062D01*
X107368745Y-107087062D01*
X106909654Y-107546154D01*
X106847342Y-107580179D01*
X106776526Y-107575114D01*
X106724526Y-107538628D01*
X106632995Y-107430869D01*
X106632993Y-107430867D01*
X106632991Y-107430865D01*
X106562415Y-107377214D01*
X106520291Y-107320068D01*
X106515750Y-107249217D01*
X106549574Y-107187813D01*
X107009536Y-106727852D01*
X107007824Y-106726391D01*
X106788657Y-106592086D01*
X106551183Y-106493721D01*
X106301246Y-106433717D01*
X106044999Y-106413550D01*
X105788753Y-106433717D01*
X105538816Y-106493721D01*
X105301342Y-106592086D01*
X105082177Y-106726390D01*
X105082174Y-106726393D01*
X105080462Y-106727852D01*
X105536847Y-107184236D01*
X105570872Y-107246549D01*
X105565808Y-107317364D01*
X105530843Y-107364455D01*
X105532528Y-107366234D01*
X105393339Y-107498079D01*
X105373417Y-107527462D01*
X105318632Y-107572619D01*
X105248130Y-107580988D01*
X105184296Y-107549912D01*
X105180034Y-107545845D01*
X104721252Y-107087062D01*
X104719793Y-107088774D01*
X104719790Y-107088777D01*
X104585486Y-107307942D01*
X104487121Y-107545416D01*
X104427117Y-107795353D01*
X104406950Y-108051600D01*
X102603049Y-108051600D01*
X102582882Y-107795353D01*
X102522878Y-107545416D01*
X102424513Y-107307942D01*
X102290207Y-107088774D01*
X102288746Y-107087062D01*
X101829654Y-107546154D01*
X101767342Y-107580179D01*
X101696526Y-107575114D01*
X101644526Y-107538628D01*
X101552995Y-107430869D01*
X101552993Y-107430867D01*
X101552991Y-107430865D01*
X101482415Y-107377214D01*
X101440291Y-107320068D01*
X101435750Y-107249217D01*
X101469574Y-107187813D01*
X101929536Y-106727852D01*
X101927824Y-106726391D01*
X101708657Y-106592086D01*
X101471183Y-106493721D01*
X101221246Y-106433717D01*
X100964999Y-106413550D01*
X100708753Y-106433717D01*
X100458816Y-106493721D01*
X100221342Y-106592086D01*
X100002177Y-106726390D01*
X100002174Y-106726393D01*
X100000462Y-106727852D01*
X100456847Y-107184236D01*
X100490872Y-107246549D01*
X100485808Y-107317364D01*
X100450843Y-107364455D01*
X100452528Y-107366234D01*
X100313339Y-107498079D01*
X100293417Y-107527462D01*
X100238632Y-107572619D01*
X100168130Y-107580988D01*
X100104296Y-107549912D01*
X100100034Y-107545845D01*
X99641252Y-107087062D01*
X99639793Y-107088774D01*
X99639790Y-107088777D01*
X99505486Y-107307942D01*
X99407121Y-107545417D01*
X99393776Y-107601006D01*
X99358424Y-107662575D01*
X99295397Y-107695258D01*
X99224706Y-107688677D01*
X99168795Y-107644923D01*
X99145414Y-107577887D01*
X99145257Y-107571623D01*
X99145234Y-107480592D01*
X99144843Y-105904004D01*
X110087407Y-105904004D01*
X110106156Y-106178116D01*
X110106157Y-106178122D01*
X110106158Y-106178130D01*
X110119568Y-106242660D01*
X110162060Y-106447146D01*
X110162062Y-106447154D01*
X110215440Y-106597344D01*
X110254077Y-106706058D01*
X110380352Y-106949759D01*
X110380492Y-106950028D01*
X110448397Y-107046227D01*
X110538943Y-107174502D01*
X110635111Y-107277472D01*
X110722395Y-107370931D01*
X110726489Y-107375314D01*
X110939631Y-107548718D01*
X111167712Y-107687417D01*
X111174402Y-107691485D01*
X111248253Y-107723563D01*
X111426423Y-107800953D01*
X111691004Y-107875085D01*
X111775996Y-107886767D01*
X111963204Y-107912499D01*
X111963215Y-107912500D01*
X112237985Y-107912500D01*
X112237995Y-107912499D01*
X112387175Y-107891994D01*
X112510196Y-107875085D01*
X112774777Y-107800953D01*
X113026800Y-107691484D01*
X113261569Y-107548718D01*
X113474711Y-107375314D01*
X113662257Y-107174502D01*
X113820711Y-106950023D01*
X113947123Y-106706058D01*
X114039138Y-106447153D01*
X114095042Y-106178130D01*
X114113793Y-105904004D01*
X117087908Y-105904004D01*
X117106652Y-106178048D01*
X117106653Y-106178054D01*
X117162542Y-106447011D01*
X117162544Y-106447019D01*
X117254538Y-106705865D01*
X117380914Y-106949756D01*
X117380916Y-106949759D01*
X117511140Y-107134247D01*
X118415120Y-106230267D01*
X118477433Y-106196242D01*
X118548248Y-106201306D01*
X118604177Y-106242656D01*
X118667482Y-106325157D01*
X118672676Y-106331926D01*
X118683720Y-106340400D01*
X118750286Y-106391478D01*
X118761939Y-106400419D01*
X118803807Y-106457757D01*
X118808029Y-106528628D01*
X118774331Y-106589477D01*
X117871315Y-107492492D01*
X117871315Y-107492494D01*
X117939913Y-107548304D01*
X117939918Y-107548307D01*
X118174630Y-107691038D01*
X118426589Y-107800480D01*
X118691109Y-107874595D01*
X118963235Y-107911999D01*
X118963249Y-107912000D01*
X119237951Y-107912000D01*
X119237964Y-107911999D01*
X119510090Y-107874595D01*
X119774610Y-107800480D01*
X120026569Y-107691038D01*
X120261279Y-107548309D01*
X120329883Y-107492493D01*
X119426868Y-106589479D01*
X119392843Y-106527166D01*
X119397907Y-106456351D01*
X119439260Y-106400420D01*
X119528525Y-106331925D01*
X119533718Y-106325157D01*
X119597021Y-106242658D01*
X119654358Y-106200792D01*
X119725229Y-106196570D01*
X119786078Y-106230268D01*
X120690057Y-107134247D01*
X120820282Y-106949762D01*
X120820285Y-106949756D01*
X120946661Y-106705865D01*
X121038655Y-106447019D01*
X121038657Y-106447011D01*
X121094546Y-106178054D01*
X121094547Y-106178048D01*
X121113292Y-105904004D01*
X121113292Y-105903995D01*
X121094547Y-105629951D01*
X121094546Y-105629945D01*
X121038657Y-105360988D01*
X121038655Y-105360980D01*
X120946661Y-105102134D01*
X120820285Y-104858243D01*
X120820281Y-104858237D01*
X120690057Y-104673750D01*
X119786077Y-105577731D01*
X119723765Y-105611757D01*
X119652950Y-105606692D01*
X119597019Y-105565339D01*
X119528526Y-105476076D01*
X119528525Y-105476075D01*
X119439256Y-105407577D01*
X119397391Y-105350241D01*
X119393169Y-105279370D01*
X119426867Y-105218520D01*
X120329883Y-104315504D01*
X120261280Y-104259691D01*
X120026569Y-104116961D01*
X119774610Y-104007519D01*
X119510090Y-103933404D01*
X119237964Y-103896000D01*
X118963235Y-103896000D01*
X118691109Y-103933404D01*
X118426589Y-104007519D01*
X118174630Y-104116961D01*
X117939925Y-104259687D01*
X117871315Y-104315505D01*
X118774331Y-105218520D01*
X118808356Y-105280833D01*
X118803292Y-105351648D01*
X118761941Y-105407578D01*
X118672675Y-105476075D01*
X118604178Y-105565341D01*
X118546840Y-105607208D01*
X118475969Y-105611429D01*
X118415120Y-105577731D01*
X117511140Y-104673750D01*
X117380917Y-104858236D01*
X117254538Y-105102134D01*
X117162544Y-105360980D01*
X117162542Y-105360988D01*
X117106653Y-105629945D01*
X117106652Y-105629951D01*
X117087908Y-105903995D01*
X117087908Y-105904004D01*
X114113793Y-105904004D01*
X114113793Y-105904000D01*
X114113299Y-105896784D01*
X114095043Y-105629883D01*
X114095042Y-105629877D01*
X114095042Y-105629870D01*
X114039138Y-105360847D01*
X113947123Y-105101942D01*
X113820711Y-104857977D01*
X113811031Y-104844264D01*
X113790530Y-104815221D01*
X113662257Y-104633498D01*
X113474711Y-104432686D01*
X113261569Y-104259282D01*
X113026800Y-104116516D01*
X113026801Y-104116516D01*
X113026797Y-104116514D01*
X112774780Y-104007048D01*
X112774778Y-104007047D01*
X112774777Y-104007047D01*
X112642486Y-103969981D01*
X112510193Y-103932914D01*
X112237995Y-103895500D01*
X112237985Y-103895500D01*
X111963215Y-103895500D01*
X111963204Y-103895500D01*
X111691006Y-103932914D01*
X111426419Y-104007048D01*
X111174402Y-104116514D01*
X110939628Y-104259284D01*
X110726486Y-104432688D01*
X110538943Y-104633498D01*
X110380492Y-104857971D01*
X110254077Y-105101941D01*
X110162062Y-105360845D01*
X110162060Y-105360853D01*
X110145455Y-105440762D01*
X110110868Y-105607208D01*
X110106157Y-105629877D01*
X110106156Y-105629883D01*
X110087407Y-105903995D01*
X110087407Y-105904004D01*
X99144843Y-105904004D01*
X99140891Y-89958194D01*
X107682859Y-89958194D01*
X107687460Y-90010772D01*
X107687700Y-90016266D01*
X107687700Y-90024582D01*
X107691547Y-90057494D01*
X107698312Y-90134819D01*
X107699796Y-90142006D01*
X107699731Y-90142019D01*
X107701365Y-90149389D01*
X107701429Y-90149375D01*
X107703121Y-90156516D01*
X107729673Y-90229464D01*
X107754085Y-90303136D01*
X107757187Y-90309788D01*
X107757126Y-90309816D01*
X107760411Y-90316602D01*
X107760470Y-90316573D01*
X107763760Y-90323124D01*
X107763764Y-90323131D01*
X107763765Y-90323132D01*
X107806432Y-90388005D01*
X107806433Y-90388005D01*
X107847167Y-90454048D01*
X107851722Y-90459808D01*
X107851668Y-90459850D01*
X107856428Y-90465692D01*
X107856479Y-90465650D01*
X107861193Y-90471268D01*
X107861198Y-90471273D01*
X107861199Y-90471274D01*
X107917682Y-90524563D01*
X109349292Y-91956173D01*
X109361265Y-91970027D01*
X109375730Y-91989457D01*
X109416175Y-92023394D01*
X109420221Y-92027102D01*
X109426099Y-92032980D01*
X109452096Y-92053536D01*
X109511560Y-92103432D01*
X109511566Y-92103435D01*
X109517695Y-92107467D01*
X109517657Y-92107523D01*
X109524011Y-92111571D01*
X109524047Y-92111514D01*
X109530289Y-92115364D01*
X109530291Y-92115365D01*
X109530294Y-92115367D01*
X109600647Y-92148173D01*
X109670012Y-92183009D01*
X109670014Y-92183009D01*
X109676913Y-92185521D01*
X109676889Y-92185584D01*
X109684006Y-92188058D01*
X109684028Y-92187994D01*
X109690992Y-92190302D01*
X109767018Y-92205999D01*
X109842543Y-92223900D01*
X109849832Y-92224752D01*
X109849824Y-92224818D01*
X109857322Y-92225584D01*
X109857328Y-92225518D01*
X109864635Y-92226156D01*
X109864642Y-92226158D01*
X109942245Y-92223900D01*
X115814315Y-92223900D01*
X115882436Y-92243902D01*
X115928929Y-92297558D01*
X115932370Y-92305867D01*
X115948310Y-92348604D01*
X116035938Y-92465661D01*
X116152992Y-92553287D01*
X116152994Y-92553288D01*
X116152996Y-92553289D01*
X116212075Y-92575324D01*
X116289995Y-92604388D01*
X116290003Y-92604390D01*
X116350550Y-92610899D01*
X116350555Y-92610899D01*
X116350562Y-92610900D01*
X116350568Y-92610900D01*
X118447832Y-92610900D01*
X118447838Y-92610900D01*
X118447845Y-92610899D01*
X118447849Y-92610899D01*
X118508396Y-92604390D01*
X118508399Y-92604389D01*
X118508401Y-92604389D01*
X118645404Y-92553289D01*
X118762461Y-92465661D01*
X118850089Y-92348604D01*
X118901189Y-92211601D01*
X118901792Y-92205999D01*
X118907699Y-92151049D01*
X118907699Y-92151047D01*
X118907700Y-92151038D01*
X118907699Y-90922269D01*
X118927701Y-90854149D01*
X118981357Y-90807656D01*
X119051631Y-90797552D01*
X119116211Y-90827045D01*
X119122794Y-90833175D01*
X120949074Y-92659455D01*
X120979812Y-92709613D01*
X121034673Y-92878456D01*
X121034676Y-92878461D01*
X121130158Y-93043841D01*
X121130165Y-93043851D01*
X121257944Y-93185764D01*
X121309461Y-93223193D01*
X121412448Y-93298018D01*
X121586912Y-93375694D01*
X121773713Y-93415400D01*
X121964687Y-93415400D01*
X122151488Y-93375694D01*
X122325952Y-93298018D01*
X122480453Y-93185766D01*
X122556556Y-93101244D01*
X122616999Y-93064005D01*
X122687983Y-93065356D01*
X122724250Y-93083618D01*
X122809448Y-93145518D01*
X122983912Y-93223194D01*
X123170713Y-93262900D01*
X123361687Y-93262900D01*
X123532948Y-93226497D01*
X123603739Y-93231899D01*
X123648240Y-93260649D01*
X124886794Y-94499203D01*
X124920820Y-94561515D01*
X124923699Y-94588298D01*
X124923699Y-95742545D01*
X124923700Y-96878100D01*
X124903698Y-96946221D01*
X124850042Y-96992714D01*
X124797700Y-97004100D01*
X124705940Y-97004100D01*
X124637819Y-96984098D01*
X124612303Y-96962410D01*
X124597726Y-96946221D01*
X124563253Y-96907934D01*
X124408752Y-96795682D01*
X124234288Y-96718006D01*
X124047487Y-96678300D01*
X123856513Y-96678300D01*
X123669711Y-96718006D01*
X123495247Y-96795682D01*
X123340744Y-96907935D01*
X123212965Y-97049848D01*
X123212958Y-97049858D01*
X123117476Y-97215238D01*
X123117473Y-97215245D01*
X123058457Y-97396872D01*
X123038496Y-97586800D01*
X123058457Y-97776727D01*
X123088526Y-97869270D01*
X123117473Y-97958356D01*
X123117476Y-97958361D01*
X123212958Y-98123741D01*
X123212965Y-98123751D01*
X123340744Y-98265664D01*
X123381347Y-98295164D01*
X123495248Y-98377918D01*
X123669712Y-98455594D01*
X123856513Y-98495300D01*
X124047487Y-98495300D01*
X124234288Y-98455594D01*
X124408752Y-98377918D01*
X124522652Y-98295164D01*
X124589521Y-98271305D01*
X124596714Y-98271100D01*
X124797700Y-98271100D01*
X124865821Y-98291102D01*
X124912314Y-98344758D01*
X124923700Y-98397100D01*
X124923700Y-108415874D01*
X124903698Y-108483995D01*
X124891337Y-108500184D01*
X124818157Y-108581459D01*
X124722676Y-108746838D01*
X124722673Y-108746845D01*
X124663657Y-108928472D01*
X124643696Y-109118400D01*
X124663657Y-109308327D01*
X124685908Y-109376807D01*
X124722673Y-109489956D01*
X124722676Y-109489961D01*
X124818158Y-109655341D01*
X124818165Y-109655351D01*
X124945944Y-109797264D01*
X124945947Y-109797266D01*
X125100448Y-109909518D01*
X125274912Y-109987194D01*
X125461713Y-110026900D01*
X125652687Y-110026900D01*
X125839488Y-109987194D01*
X126013952Y-109909518D01*
X126168453Y-109797266D01*
X126241306Y-109716355D01*
X126296234Y-109655351D01*
X126296235Y-109655349D01*
X126296240Y-109655344D01*
X126391727Y-109489956D01*
X126450742Y-109308328D01*
X126470704Y-109118400D01*
X126455797Y-108976577D01*
X126468570Y-108906739D01*
X126517072Y-108854892D01*
X126581842Y-108838524D01*
X126581842Y-108837500D01*
X126585897Y-108837500D01*
X126585905Y-108837498D01*
X126585929Y-108837500D01*
X126589770Y-108837500D01*
X126610024Y-108837500D01*
X126629734Y-108839051D01*
X126631941Y-108839400D01*
X126649743Y-108842220D01*
X126683670Y-108839012D01*
X126696717Y-108837780D01*
X126702650Y-108837500D01*
X129586006Y-108837500D01*
X129654127Y-108857502D01*
X129675101Y-108874405D01*
X130452077Y-109651381D01*
X130486103Y-109713693D01*
X130488292Y-109727305D01*
X130505657Y-109892527D01*
X130511178Y-109909517D01*
X130564673Y-110074156D01*
X130564676Y-110074161D01*
X130660158Y-110239541D01*
X130660165Y-110239551D01*
X130787944Y-110381464D01*
X130787947Y-110381466D01*
X130942448Y-110493718D01*
X131116912Y-110571394D01*
X131303713Y-110611100D01*
X131494687Y-110611100D01*
X131681488Y-110571394D01*
X131855952Y-110493718D01*
X131881438Y-110475200D01*
X131948306Y-110451342D01*
X132017457Y-110467421D01*
X132066938Y-110518335D01*
X132081500Y-110577136D01*
X132081500Y-110937404D01*
X132061498Y-111005525D01*
X132044595Y-111026499D01*
X125906500Y-117164595D01*
X125844188Y-117198621D01*
X125817405Y-117201500D01*
X125761513Y-117201500D01*
X125574711Y-117241206D01*
X125400247Y-117318882D01*
X125245744Y-117431135D01*
X125117965Y-117573048D01*
X125117958Y-117573058D01*
X125022476Y-117738438D01*
X125022473Y-117738445D01*
X124963457Y-117920072D01*
X124943496Y-118110000D01*
X124963457Y-118299927D01*
X124986387Y-118370495D01*
X125022473Y-118481556D01*
X125022476Y-118481561D01*
X125117958Y-118646941D01*
X125117965Y-118646951D01*
X125245744Y-118788864D01*
X125245747Y-118788866D01*
X125400248Y-118901118D01*
X125574712Y-118978794D01*
X125761513Y-119018500D01*
X125952487Y-119018500D01*
X126139288Y-118978794D01*
X126313752Y-118901118D01*
X126468253Y-118788866D01*
X126477183Y-118778948D01*
X126596034Y-118646951D01*
X126596035Y-118646949D01*
X126596040Y-118646944D01*
X126691527Y-118481556D01*
X126750542Y-118299928D01*
X126767907Y-118134703D01*
X126794920Y-118069048D01*
X126804113Y-118058789D01*
X133103657Y-111759245D01*
X133116092Y-111749284D01*
X133115905Y-111749057D01*
X133122009Y-111744005D01*
X133122018Y-111744000D01*
X133169999Y-111692904D01*
X133191135Y-111671769D01*
X133195437Y-111666221D01*
X133199267Y-111661735D01*
X133231586Y-111627321D01*
X133241345Y-111609567D01*
X133252204Y-111593038D01*
X133264614Y-111577040D01*
X133283354Y-111533732D01*
X133285965Y-111528404D01*
X133308695Y-111487060D01*
X133313733Y-111467435D01*
X133320138Y-111448730D01*
X133328181Y-111430145D01*
X133335561Y-111383547D01*
X133336762Y-111377740D01*
X133348500Y-111332030D01*
X133348500Y-111311775D01*
X133350051Y-111292063D01*
X133350386Y-111289947D01*
X133353220Y-111272057D01*
X133348778Y-111225069D01*
X133348499Y-111219170D01*
X133348499Y-110900480D01*
X134096576Y-110900480D01*
X134116537Y-111090407D01*
X134136030Y-111150399D01*
X134175553Y-111272036D01*
X134175556Y-111272041D01*
X134270332Y-111436199D01*
X134271040Y-111437424D01*
X134344217Y-111518695D01*
X134374933Y-111582700D01*
X134376580Y-111603004D01*
X134376580Y-111944226D01*
X134374831Y-111960068D01*
X134375124Y-111960096D01*
X134374378Y-111967987D01*
X134376580Y-112038037D01*
X134376580Y-112067931D01*
X134376581Y-112067952D01*
X134377458Y-112074900D01*
X134377924Y-112080812D01*
X134379406Y-112127968D01*
X134379407Y-112127973D01*
X134385057Y-112147419D01*
X134389066Y-112166777D01*
X134391605Y-112186873D01*
X134391606Y-112186879D01*
X134408973Y-112230742D01*
X134410896Y-112236359D01*
X134424062Y-112281673D01*
X134434374Y-112299111D01*
X134443068Y-112316859D01*
X134450524Y-112335689D01*
X134450530Y-112335700D01*
X134478257Y-112373863D01*
X134481517Y-112378826D01*
X134505540Y-112419445D01*
X134519859Y-112433764D01*
X134532697Y-112448794D01*
X134534250Y-112450931D01*
X134544608Y-112465187D01*
X134547803Y-112467830D01*
X134580966Y-112495265D01*
X134585347Y-112499251D01*
X136677208Y-114591113D01*
X137330477Y-115244382D01*
X137364503Y-115306694D01*
X137366692Y-115320306D01*
X137384057Y-115485527D01*
X137414126Y-115578070D01*
X137443073Y-115667156D01*
X137443076Y-115667161D01*
X137538558Y-115832541D01*
X137538565Y-115832551D01*
X137666344Y-115974464D01*
X137666347Y-115974466D01*
X137820848Y-116086718D01*
X137995312Y-116164394D01*
X138182113Y-116204100D01*
X138373087Y-116204100D01*
X138559888Y-116164394D01*
X138734352Y-116086718D01*
X138888853Y-115974466D01*
X138913330Y-115947282D01*
X139016634Y-115832551D01*
X139016635Y-115832549D01*
X139016640Y-115832544D01*
X139112127Y-115667156D01*
X139171142Y-115485528D01*
X139191104Y-115295600D01*
X139171142Y-115105672D01*
X139112127Y-114924044D01*
X139016640Y-114758656D01*
X139016638Y-114758654D01*
X139016634Y-114758648D01*
X138888855Y-114616735D01*
X138734352Y-114504482D01*
X138559888Y-114426806D01*
X138373087Y-114387100D01*
X138317194Y-114387100D01*
X138249073Y-114367098D01*
X138228099Y-114350195D01*
X135680485Y-111802580D01*
X135646459Y-111740268D01*
X135643580Y-111713485D01*
X135643580Y-111603004D01*
X135663582Y-111534883D01*
X135675938Y-111518700D01*
X135749120Y-111437424D01*
X135844607Y-111272036D01*
X135903622Y-111090408D01*
X135923584Y-110900480D01*
X135903622Y-110710552D01*
X135844607Y-110528924D01*
X135749120Y-110363536D01*
X135749118Y-110363534D01*
X135749114Y-110363528D01*
X135621335Y-110221615D01*
X135466832Y-110109362D01*
X135292368Y-110031686D01*
X135105567Y-109991980D01*
X134914593Y-109991980D01*
X134727791Y-110031686D01*
X134553327Y-110109362D01*
X134398824Y-110221615D01*
X134271045Y-110363528D01*
X134271038Y-110363538D01*
X134175556Y-110528918D01*
X134175553Y-110528925D01*
X134116537Y-110710552D01*
X134096576Y-110900480D01*
X133348499Y-110900480D01*
X133348499Y-106874524D01*
X133368501Y-106806404D01*
X133380863Y-106790214D01*
X133388245Y-106782016D01*
X133454040Y-106708944D01*
X133549527Y-106543556D01*
X133608542Y-106361928D01*
X133628504Y-106172000D01*
X133608542Y-105982072D01*
X133549527Y-105800444D01*
X133454040Y-105635056D01*
X133454038Y-105635054D01*
X133454034Y-105635048D01*
X133326255Y-105493135D01*
X133171752Y-105380882D01*
X132997288Y-105303206D01*
X132810487Y-105263500D01*
X132619513Y-105263500D01*
X132432711Y-105303206D01*
X132258247Y-105380882D01*
X132103744Y-105493135D01*
X131975965Y-105635048D01*
X131975958Y-105635058D01*
X131880476Y-105800438D01*
X131880473Y-105800445D01*
X131821457Y-105982072D01*
X131801496Y-106172000D01*
X131821457Y-106361927D01*
X131849150Y-106447154D01*
X131880473Y-106543556D01*
X131906986Y-106589477D01*
X131972983Y-106703789D01*
X131975960Y-106708944D01*
X132049136Y-106790214D01*
X132079853Y-106854220D01*
X132081500Y-106874524D01*
X132081500Y-108828063D01*
X132061498Y-108896184D01*
X132007842Y-108942677D01*
X131937568Y-108952781D01*
X131881440Y-108930000D01*
X131855952Y-108911482D01*
X131681488Y-108833806D01*
X131494687Y-108794100D01*
X131438795Y-108794100D01*
X131370674Y-108774098D01*
X131349700Y-108757195D01*
X130407844Y-107815339D01*
X130397879Y-107802901D01*
X130397652Y-107803090D01*
X130392601Y-107796984D01*
X130392600Y-107796982D01*
X130388438Y-107793074D01*
X130341521Y-107749016D01*
X130320377Y-107727871D01*
X130320372Y-107727866D01*
X130314825Y-107723563D01*
X130310317Y-107719712D01*
X130275925Y-107687417D01*
X130275919Y-107687413D01*
X130258163Y-107677651D01*
X130241647Y-107666802D01*
X130225641Y-107654386D01*
X130193064Y-107640289D01*
X130182340Y-107635648D01*
X130177008Y-107633036D01*
X130135661Y-107610305D01*
X130116036Y-107605266D01*
X130097336Y-107598864D01*
X130078745Y-107590819D01*
X130078743Y-107590818D01*
X130078742Y-107590818D01*
X130032142Y-107583437D01*
X130026329Y-107582233D01*
X129980630Y-107570500D01*
X129960376Y-107570500D01*
X129940666Y-107568949D01*
X129920657Y-107565780D01*
X129920656Y-107565780D01*
X129873683Y-107570220D01*
X129867750Y-107570500D01*
X126984395Y-107570500D01*
X126916274Y-107550498D01*
X126895299Y-107533595D01*
X126730604Y-107368899D01*
X126696579Y-107306587D01*
X126693700Y-107279804D01*
X126693700Y-101752400D01*
X138463196Y-101752400D01*
X138483157Y-101942327D01*
X138513226Y-102034870D01*
X138542173Y-102123956D01*
X138637660Y-102289344D01*
X138710837Y-102370615D01*
X138741553Y-102434620D01*
X138743200Y-102454924D01*
X138743200Y-111273546D01*
X138741451Y-111289388D01*
X138741744Y-111289416D01*
X138740998Y-111297307D01*
X138740998Y-111297309D01*
X138742090Y-111332031D01*
X138743200Y-111367357D01*
X138743200Y-111397251D01*
X138743201Y-111397272D01*
X138744078Y-111404220D01*
X138744544Y-111410132D01*
X138746026Y-111457288D01*
X138746027Y-111457293D01*
X138751677Y-111476739D01*
X138755686Y-111496097D01*
X138758225Y-111516193D01*
X138758226Y-111516199D01*
X138775593Y-111560062D01*
X138777516Y-111565679D01*
X138790682Y-111610993D01*
X138800994Y-111628431D01*
X138809688Y-111646179D01*
X138817144Y-111665009D01*
X138817150Y-111665020D01*
X138844877Y-111703183D01*
X138848137Y-111708146D01*
X138872160Y-111748765D01*
X138886479Y-111763084D01*
X138899317Y-111778114D01*
X138908856Y-111791243D01*
X138911228Y-111794507D01*
X138939494Y-111817891D01*
X138947586Y-111824585D01*
X138951967Y-111828571D01*
X142790550Y-115667154D01*
X146388077Y-119264681D01*
X146422103Y-119326993D01*
X146424292Y-119340605D01*
X146441657Y-119505827D01*
X146449277Y-119529277D01*
X146500673Y-119687456D01*
X146500676Y-119687461D01*
X146596158Y-119852841D01*
X146596165Y-119852851D01*
X146723944Y-119994764D01*
X146723947Y-119994766D01*
X146878448Y-120107018D01*
X147052912Y-120184694D01*
X147239713Y-120224400D01*
X147430687Y-120224400D01*
X147617488Y-120184694D01*
X147791952Y-120107018D01*
X147946453Y-119994766D01*
X148042148Y-119888486D01*
X148074234Y-119852851D01*
X148074235Y-119852849D01*
X148074240Y-119852844D01*
X148169727Y-119687456D01*
X148228742Y-119505828D01*
X148248704Y-119315900D01*
X148228742Y-119125972D01*
X148169727Y-118944344D01*
X148074240Y-118778956D01*
X148074238Y-118778954D01*
X148074234Y-118778948D01*
X147946455Y-118637035D01*
X147791952Y-118524782D01*
X147617488Y-118447106D01*
X147430687Y-118407400D01*
X147374794Y-118407400D01*
X147306673Y-118387398D01*
X147285699Y-118370495D01*
X140047105Y-111131900D01*
X140013079Y-111069588D01*
X140010200Y-111042805D01*
X140010200Y-102454924D01*
X140030202Y-102386803D01*
X140042558Y-102370620D01*
X140115740Y-102289344D01*
X140211227Y-102123956D01*
X140270242Y-101942328D01*
X140290204Y-101752400D01*
X140290204Y-101752399D01*
X142296696Y-101752399D01*
X142316657Y-101942327D01*
X142346726Y-102034870D01*
X142375673Y-102123956D01*
X142471160Y-102289344D01*
X142544337Y-102370615D01*
X142575053Y-102434620D01*
X142576700Y-102454924D01*
X142576700Y-107976046D01*
X142574951Y-107991888D01*
X142575244Y-107991916D01*
X142574498Y-107999807D01*
X142574498Y-107999809D01*
X142574641Y-108004344D01*
X142576700Y-108069857D01*
X142576700Y-108099751D01*
X142576701Y-108099772D01*
X142577578Y-108106720D01*
X142578044Y-108112632D01*
X142579526Y-108159788D01*
X142579527Y-108159793D01*
X142585177Y-108179239D01*
X142589186Y-108198597D01*
X142591725Y-108218693D01*
X142591726Y-108218699D01*
X142609093Y-108262562D01*
X142611016Y-108268179D01*
X142624182Y-108313493D01*
X142634494Y-108330931D01*
X142643188Y-108348679D01*
X142650644Y-108367509D01*
X142650650Y-108367520D01*
X142678377Y-108405683D01*
X142681637Y-108410646D01*
X142705660Y-108451265D01*
X142719979Y-108465584D01*
X142732817Y-108480614D01*
X142742356Y-108493743D01*
X142744728Y-108497007D01*
X142750643Y-108501900D01*
X142781086Y-108527085D01*
X142785467Y-108531071D01*
X143923877Y-109669482D01*
X144295077Y-110040682D01*
X144329103Y-110102994D01*
X144331292Y-110116606D01*
X144348657Y-110281827D01*
X144355394Y-110302560D01*
X144407673Y-110463456D01*
X144436041Y-110512591D01*
X144503158Y-110628841D01*
X144503165Y-110628851D01*
X144630944Y-110770764D01*
X144642057Y-110778838D01*
X144785448Y-110883018D01*
X144959912Y-110960694D01*
X145146713Y-111000400D01*
X145337687Y-111000400D01*
X145524488Y-110960694D01*
X145698952Y-110883018D01*
X145853453Y-110770766D01*
X145853455Y-110770764D01*
X145981234Y-110628851D01*
X145981235Y-110628849D01*
X145981240Y-110628844D01*
X146076727Y-110463456D01*
X146135742Y-110281828D01*
X146155704Y-110091900D01*
X146135742Y-109901972D01*
X146076727Y-109720344D01*
X145981240Y-109554956D01*
X145981238Y-109554954D01*
X145981234Y-109554948D01*
X145853455Y-109413035D01*
X145698952Y-109300782D01*
X145524488Y-109223106D01*
X145337687Y-109183400D01*
X145281794Y-109183400D01*
X145213673Y-109163398D01*
X145192699Y-109146495D01*
X143880605Y-107834400D01*
X143846579Y-107772088D01*
X143843700Y-107745305D01*
X143843700Y-106812343D01*
X146762980Y-106812343D01*
X146767420Y-106859317D01*
X146767700Y-106865250D01*
X146767700Y-112178546D01*
X146765951Y-112194388D01*
X146766244Y-112194416D01*
X146765498Y-112202307D01*
X146767700Y-112272357D01*
X146767700Y-112302251D01*
X146767701Y-112302272D01*
X146768578Y-112309220D01*
X146769044Y-112315132D01*
X146770526Y-112362288D01*
X146770527Y-112362293D01*
X146776177Y-112381739D01*
X146780186Y-112401097D01*
X146782725Y-112421193D01*
X146782726Y-112421199D01*
X146800093Y-112465062D01*
X146802016Y-112470679D01*
X146815182Y-112515993D01*
X146825494Y-112533431D01*
X146834188Y-112551179D01*
X146841644Y-112570009D01*
X146841650Y-112570020D01*
X146869377Y-112608183D01*
X146872637Y-112613146D01*
X146896660Y-112653765D01*
X146910979Y-112668084D01*
X146923817Y-112683114D01*
X146933356Y-112696243D01*
X146935728Y-112699507D01*
X146960117Y-112719683D01*
X146972086Y-112729585D01*
X146976467Y-112733571D01*
X147825217Y-113582322D01*
X148070077Y-113827182D01*
X148104103Y-113889494D01*
X148106292Y-113903106D01*
X148123657Y-114068327D01*
X148132137Y-114094424D01*
X148182673Y-114249956D01*
X148182676Y-114249961D01*
X148278158Y-114415341D01*
X148278165Y-114415351D01*
X148405944Y-114557264D01*
X148405947Y-114557266D01*
X148560448Y-114669518D01*
X148734912Y-114747194D01*
X148921713Y-114786900D01*
X149112687Y-114786900D01*
X149299488Y-114747194D01*
X149473952Y-114669518D01*
X149628453Y-114557266D01*
X149756240Y-114415344D01*
X149851727Y-114249956D01*
X149910742Y-114068328D01*
X149930704Y-113878400D01*
X149910742Y-113688472D01*
X149851727Y-113506844D01*
X149756240Y-113341456D01*
X149756238Y-113341454D01*
X149756234Y-113341448D01*
X149628455Y-113199535D01*
X149473952Y-113087282D01*
X149299488Y-113009606D01*
X149112687Y-112969900D01*
X149056795Y-112969900D01*
X148988674Y-112949898D01*
X148967699Y-112932995D01*
X148071604Y-112036899D01*
X148037579Y-111974587D01*
X148034700Y-111947804D01*
X148034700Y-107340400D01*
X149535696Y-107340400D01*
X149555657Y-107530327D01*
X149575313Y-107590819D01*
X149614673Y-107711956D01*
X149614676Y-107711961D01*
X149687999Y-107838961D01*
X149710160Y-107877344D01*
X149783337Y-107958615D01*
X149814053Y-108022620D01*
X149815700Y-108042924D01*
X149815700Y-111193546D01*
X149813951Y-111209388D01*
X149814244Y-111209416D01*
X149813498Y-111217307D01*
X149815700Y-111287357D01*
X149815700Y-111317251D01*
X149815701Y-111317272D01*
X149816578Y-111324220D01*
X149817044Y-111330132D01*
X149818526Y-111377288D01*
X149818527Y-111377293D01*
X149824177Y-111396739D01*
X149828186Y-111416097D01*
X149830725Y-111436193D01*
X149830726Y-111436199D01*
X149848093Y-111480062D01*
X149850016Y-111485679D01*
X149863182Y-111530993D01*
X149873494Y-111548431D01*
X149882188Y-111566179D01*
X149889644Y-111585009D01*
X149889650Y-111585020D01*
X149917377Y-111623183D01*
X149920637Y-111628146D01*
X149944660Y-111668765D01*
X149958979Y-111683084D01*
X149971817Y-111698114D01*
X149977250Y-111705591D01*
X149983728Y-111714507D01*
X150011994Y-111737891D01*
X150020086Y-111744585D01*
X150024467Y-111748571D01*
X152525850Y-114249954D01*
X154963077Y-116687181D01*
X154997103Y-116749493D01*
X154999292Y-116763105D01*
X155016657Y-116928327D01*
X155046726Y-117020870D01*
X155075673Y-117109956D01*
X155075676Y-117109961D01*
X155171158Y-117275341D01*
X155171165Y-117275351D01*
X155298944Y-117417264D01*
X155318036Y-117431135D01*
X155453448Y-117529518D01*
X155627912Y-117607194D01*
X155814713Y-117646900D01*
X156005687Y-117646900D01*
X156192488Y-117607194D01*
X156366952Y-117529518D01*
X156521453Y-117417266D01*
X156521455Y-117417264D01*
X156649234Y-117275351D01*
X156649235Y-117275349D01*
X156649240Y-117275344D01*
X156744727Y-117109956D01*
X156803742Y-116928328D01*
X156823704Y-116738400D01*
X156803742Y-116548472D01*
X156744727Y-116366844D01*
X156649240Y-116201456D01*
X156649238Y-116201454D01*
X156649234Y-116201448D01*
X156521455Y-116059535D01*
X156366952Y-115947282D01*
X156192488Y-115869606D01*
X156005687Y-115829900D01*
X155949795Y-115829900D01*
X155881674Y-115809898D01*
X155860700Y-115792995D01*
X153797872Y-113730167D01*
X153763846Y-113667855D01*
X153768911Y-113597040D01*
X153811458Y-113540204D01*
X153877978Y-113515393D01*
X153938217Y-113525966D01*
X153976909Y-113543193D01*
X153976910Y-113543193D01*
X153976912Y-113543194D01*
X154163713Y-113582900D01*
X154354687Y-113582900D01*
X154541488Y-113543194D01*
X154715952Y-113465518D01*
X154870453Y-113353266D01*
X154947141Y-113268095D01*
X154998234Y-113211351D01*
X154998235Y-113211349D01*
X154998240Y-113211344D01*
X155093727Y-113045956D01*
X155152742Y-112864328D01*
X155172704Y-112674400D01*
X155152742Y-112484472D01*
X155093727Y-112302844D01*
X154998240Y-112137456D01*
X154998238Y-112137454D01*
X154998234Y-112137448D01*
X154870455Y-111995535D01*
X154715952Y-111883282D01*
X154541488Y-111805606D01*
X154354687Y-111765900D01*
X154163713Y-111765900D01*
X153976911Y-111805606D01*
X153830728Y-111870691D01*
X153760361Y-111880125D01*
X153696064Y-111850018D01*
X153690384Y-111844679D01*
X152897605Y-111051900D01*
X152863579Y-110989588D01*
X152860700Y-110962805D01*
X152860700Y-108069024D01*
X152880702Y-108000903D01*
X152893060Y-107984717D01*
X152989740Y-107877344D01*
X153085227Y-107711956D01*
X153144242Y-107530328D01*
X153164204Y-107340400D01*
X153144242Y-107150472D01*
X153085227Y-106968844D01*
X152989740Y-106803456D01*
X152989738Y-106803454D01*
X152989734Y-106803448D01*
X152861955Y-106661535D01*
X152707452Y-106549282D01*
X152532988Y-106471606D01*
X152346187Y-106431900D01*
X152155213Y-106431900D01*
X151968411Y-106471606D01*
X151793947Y-106549282D01*
X151639444Y-106661535D01*
X151511665Y-106803448D01*
X151511658Y-106803458D01*
X151459069Y-106894546D01*
X151407686Y-106943539D01*
X151337973Y-106956975D01*
X151272062Y-106930589D01*
X151240831Y-106894546D01*
X151188241Y-106803458D01*
X151188234Y-106803448D01*
X151060455Y-106661535D01*
X150905952Y-106549282D01*
X150731488Y-106471606D01*
X150544687Y-106431900D01*
X150353713Y-106431900D01*
X150166911Y-106471606D01*
X149992447Y-106549282D01*
X149837944Y-106661535D01*
X149710165Y-106803448D01*
X149710158Y-106803458D01*
X149614676Y-106968838D01*
X149614673Y-106968845D01*
X149555657Y-107150472D01*
X149535696Y-107340400D01*
X148034700Y-107340400D01*
X148034700Y-107146993D01*
X148054702Y-107078872D01*
X148071600Y-107057903D01*
X150145699Y-104983804D01*
X150208011Y-104949779D01*
X150234794Y-104946900D01*
X150290687Y-104946900D01*
X150477488Y-104907194D01*
X150651952Y-104829518D01*
X150806453Y-104717266D01*
X150934240Y-104575344D01*
X151029727Y-104409956D01*
X151088742Y-104228328D01*
X151095356Y-104165399D01*
X156925196Y-104165399D01*
X156945157Y-104355327D01*
X156962907Y-104409954D01*
X157004173Y-104536956D01*
X157004176Y-104536961D01*
X157099658Y-104702341D01*
X157099665Y-104702351D01*
X157227444Y-104844264D01*
X157288699Y-104888768D01*
X157381948Y-104956518D01*
X157556412Y-105034194D01*
X157743213Y-105073900D01*
X157799106Y-105073900D01*
X157867227Y-105093902D01*
X157888201Y-105110805D01*
X161589795Y-108812399D01*
X161623821Y-108874711D01*
X161626700Y-108901494D01*
X161626700Y-110447874D01*
X161606698Y-110515995D01*
X161594337Y-110532184D01*
X161521157Y-110613459D01*
X161425676Y-110778838D01*
X161425673Y-110778845D01*
X161366657Y-110960472D01*
X161346696Y-111150399D01*
X161366657Y-111340327D01*
X161385155Y-111397256D01*
X161425673Y-111521956D01*
X161440958Y-111548431D01*
X161521158Y-111687341D01*
X161521165Y-111687351D01*
X161648944Y-111829264D01*
X161686055Y-111856227D01*
X161803448Y-111941518D01*
X161977912Y-112019194D01*
X162164713Y-112058900D01*
X162355687Y-112058900D01*
X162542488Y-112019194D01*
X162716952Y-111941518D01*
X162823639Y-111864004D01*
X162890507Y-111840146D01*
X162959658Y-111856227D01*
X163009138Y-111907141D01*
X163023700Y-111965941D01*
X163023700Y-111971874D01*
X163003698Y-112039995D01*
X162991337Y-112056184D01*
X162918157Y-112137459D01*
X162824828Y-112299111D01*
X162822673Y-112302844D01*
X162818119Y-112316859D01*
X162763657Y-112484472D01*
X162743696Y-112674399D01*
X162763657Y-112864327D01*
X162767240Y-112875353D01*
X162822673Y-113045956D01*
X162822676Y-113045961D01*
X162918158Y-113211341D01*
X162918165Y-113211351D01*
X163045944Y-113353264D01*
X163045947Y-113353266D01*
X163200448Y-113465518D01*
X163374912Y-113543194D01*
X163561713Y-113582900D01*
X163752687Y-113582900D01*
X163939488Y-113543194D01*
X164113952Y-113465518D01*
X164268453Y-113353266D01*
X164345141Y-113268095D01*
X164396234Y-113211351D01*
X164396235Y-113211349D01*
X164396240Y-113211344D01*
X164491727Y-113045956D01*
X164550742Y-112864328D01*
X164570704Y-112674400D01*
X164550742Y-112484472D01*
X164491727Y-112302844D01*
X164414323Y-112168777D01*
X164396242Y-112137459D01*
X164396241Y-112137458D01*
X164396240Y-112137456D01*
X164323063Y-112056184D01*
X164292346Y-111992176D01*
X164290700Y-111971874D01*
X164290700Y-111419400D01*
X189213044Y-111419400D01*
X189231072Y-111636963D01*
X189231637Y-111643775D01*
X189286902Y-111862012D01*
X189286903Y-111862013D01*
X189286904Y-111862016D01*
X189363614Y-112036899D01*
X189377341Y-112068193D01*
X189500475Y-112256665D01*
X189500479Y-112256670D01*
X189608365Y-112373863D01*
X189651935Y-112421193D01*
X189652962Y-112422308D01*
X189683702Y-112446234D01*
X189830624Y-112560589D01*
X190028626Y-112667742D01*
X190028627Y-112667742D01*
X190028628Y-112667743D01*
X190121154Y-112699507D01*
X190241565Y-112740844D01*
X190463631Y-112777900D01*
X190463635Y-112777900D01*
X190688765Y-112777900D01*
X190688769Y-112777900D01*
X190910835Y-112740844D01*
X191123774Y-112667742D01*
X191321776Y-112560589D01*
X191499440Y-112422306D01*
X191651922Y-112256668D01*
X191692612Y-112194388D01*
X191740717Y-112120757D01*
X191794720Y-112074668D01*
X191865068Y-112065093D01*
X191929426Y-112095070D01*
X191951683Y-112120757D01*
X192040475Y-112256665D01*
X192040479Y-112256670D01*
X192148365Y-112373863D01*
X192191935Y-112421193D01*
X192192962Y-112422308D01*
X192223702Y-112446234D01*
X192370624Y-112560589D01*
X192568626Y-112667742D01*
X192568627Y-112667742D01*
X192568628Y-112667743D01*
X192661154Y-112699507D01*
X192781565Y-112740844D01*
X193003631Y-112777900D01*
X193003635Y-112777900D01*
X193228765Y-112777900D01*
X193228769Y-112777900D01*
X193450835Y-112740844D01*
X193663774Y-112667742D01*
X193861776Y-112560589D01*
X194039440Y-112422306D01*
X194191922Y-112256668D01*
X194315060Y-112068191D01*
X194405496Y-111862016D01*
X194460764Y-111643768D01*
X194479356Y-111419400D01*
X194460764Y-111195032D01*
X194428997Y-111069588D01*
X194405497Y-110976787D01*
X194405496Y-110976786D01*
X194405496Y-110976784D01*
X194315060Y-110770609D01*
X194308340Y-110760324D01*
X194191924Y-110582134D01*
X194191920Y-110582129D01*
X194039437Y-110416491D01*
X193893059Y-110302560D01*
X193861776Y-110278211D01*
X193827992Y-110259928D01*
X193777602Y-110209916D01*
X193762250Y-110140599D01*
X193786810Y-110073986D01*
X193827993Y-110038301D01*
X193861500Y-110020167D01*
X193861501Y-110020167D01*
X194039102Y-109881934D01*
X194191525Y-109716358D01*
X194314619Y-109527948D01*
X194405020Y-109321856D01*
X194405023Y-109321849D01*
X194452744Y-109133400D01*
X193731044Y-109133400D01*
X193662923Y-109113398D01*
X193616430Y-109059742D01*
X193606326Y-108989468D01*
X193610147Y-108971904D01*
X193616200Y-108951288D01*
X193616200Y-108807511D01*
X193610147Y-108786896D01*
X193610148Y-108715900D01*
X193648533Y-108656174D01*
X193713114Y-108626682D01*
X193731044Y-108625400D01*
X194452744Y-108625400D01*
X194452744Y-108625399D01*
X194405023Y-108436950D01*
X194405020Y-108436943D01*
X194314619Y-108230851D01*
X194191525Y-108042441D01*
X194039102Y-107876865D01*
X193861501Y-107738632D01*
X193861500Y-107738631D01*
X193827991Y-107720497D01*
X193777601Y-107670483D01*
X193762250Y-107601166D01*
X193786812Y-107534553D01*
X193827990Y-107498872D01*
X193861776Y-107480589D01*
X194039440Y-107342306D01*
X194191922Y-107176668D01*
X194315060Y-106988191D01*
X194405496Y-106782016D01*
X194460764Y-106563768D01*
X194479356Y-106339400D01*
X194460764Y-106115032D01*
X194427094Y-105982072D01*
X194405497Y-105896787D01*
X194405496Y-105896786D01*
X194405496Y-105896784D01*
X194315060Y-105690609D01*
X194278767Y-105635058D01*
X194191924Y-105502134D01*
X194191920Y-105502129D01*
X194062420Y-105361457D01*
X194039440Y-105336494D01*
X194039439Y-105336493D01*
X194039437Y-105336491D01*
X193919567Y-105243192D01*
X193861776Y-105198211D01*
X193663774Y-105091058D01*
X193663772Y-105091057D01*
X193663771Y-105091056D01*
X193450839Y-105017957D01*
X193450830Y-105017955D01*
X193406676Y-105010587D01*
X193228769Y-104980900D01*
X193003631Y-104980900D01*
X192855411Y-105005633D01*
X192781569Y-105017955D01*
X192781560Y-105017957D01*
X192568628Y-105091056D01*
X192568626Y-105091058D01*
X192370626Y-105198210D01*
X192370624Y-105198211D01*
X192192962Y-105336491D01*
X192131954Y-105402763D01*
X192071101Y-105439333D01*
X192000136Y-105437198D01*
X191941591Y-105397036D01*
X191921199Y-105361457D01*
X191877089Y-105243197D01*
X191877087Y-105243192D01*
X191789461Y-105126138D01*
X191672407Y-105038512D01*
X191672402Y-105038510D01*
X191535404Y-104987411D01*
X191535396Y-104987409D01*
X191474849Y-104980900D01*
X191474838Y-104980900D01*
X189677562Y-104980900D01*
X189677550Y-104980900D01*
X189617003Y-104987409D01*
X189616995Y-104987411D01*
X189479997Y-105038510D01*
X189479992Y-105038512D01*
X189362938Y-105126138D01*
X189275312Y-105243192D01*
X189275310Y-105243197D01*
X189224211Y-105380195D01*
X189224209Y-105380203D01*
X189217700Y-105440750D01*
X189217700Y-107238049D01*
X189224209Y-107298596D01*
X189224211Y-107298604D01*
X189275310Y-107435602D01*
X189275312Y-107435607D01*
X189362938Y-107552661D01*
X189479992Y-107640287D01*
X189479996Y-107640289D01*
X189595512Y-107683375D01*
X189652348Y-107725922D01*
X189677158Y-107792442D01*
X189662066Y-107861816D01*
X189644181Y-107886767D01*
X189500874Y-108042441D01*
X189377780Y-108230851D01*
X189287379Y-108436943D01*
X189287376Y-108436950D01*
X189239655Y-108625399D01*
X189239656Y-108625400D01*
X189961356Y-108625400D01*
X190029477Y-108645402D01*
X190075970Y-108699058D01*
X190086074Y-108769332D01*
X190082253Y-108786896D01*
X190076200Y-108807511D01*
X190076200Y-108951288D01*
X190082253Y-108971904D01*
X190082252Y-109042900D01*
X190043867Y-109102626D01*
X189979286Y-109132118D01*
X189961356Y-109133400D01*
X189239655Y-109133400D01*
X189287376Y-109321849D01*
X189287379Y-109321856D01*
X189377780Y-109527948D01*
X189500874Y-109716358D01*
X189653297Y-109881934D01*
X189830898Y-110020167D01*
X189830904Y-110020171D01*
X189864407Y-110038302D01*
X189914797Y-110088315D01*
X189930149Y-110157632D01*
X189905588Y-110224245D01*
X189864407Y-110259928D01*
X189830630Y-110278207D01*
X189830624Y-110278211D01*
X189652962Y-110416491D01*
X189500479Y-110582129D01*
X189500475Y-110582134D01*
X189377341Y-110770606D01*
X189286903Y-110976786D01*
X189286902Y-110976787D01*
X189231637Y-111195024D01*
X189231636Y-111195030D01*
X189231636Y-111195032D01*
X189213044Y-111419400D01*
X164290700Y-111419400D01*
X164290700Y-108501900D01*
X164310702Y-108433779D01*
X164364358Y-108387286D01*
X164416700Y-108375900D01*
X164453687Y-108375900D01*
X164640488Y-108336194D01*
X164814952Y-108258518D01*
X164969453Y-108146266D01*
X165003347Y-108108623D01*
X165097234Y-108004351D01*
X165097235Y-108004349D01*
X165097240Y-108004344D01*
X165192727Y-107838956D01*
X165251742Y-107657328D01*
X165271704Y-107467400D01*
X165251742Y-107277472D01*
X165192727Y-107095844D01*
X165097240Y-106930456D01*
X165097238Y-106930454D01*
X165097234Y-106930448D01*
X164969455Y-106788535D01*
X164814952Y-106676282D01*
X164640488Y-106598606D01*
X164453687Y-106558900D01*
X164262713Y-106558900D01*
X164075911Y-106598606D01*
X163901447Y-106676282D01*
X163746944Y-106788535D01*
X163619165Y-106930448D01*
X163619158Y-106930458D01*
X163523676Y-107095838D01*
X163523673Y-107095845D01*
X163464657Y-107277472D01*
X163447293Y-107442690D01*
X163420280Y-107508347D01*
X163411078Y-107518615D01*
X163268537Y-107661156D01*
X163256103Y-107671119D01*
X163256291Y-107671346D01*
X163250182Y-107676399D01*
X163202215Y-107727479D01*
X163181066Y-107748627D01*
X163176760Y-107754177D01*
X163172914Y-107758679D01*
X163140617Y-107793074D01*
X163140611Y-107793083D01*
X163130851Y-107810835D01*
X163120003Y-107827350D01*
X163107586Y-107843358D01*
X163088845Y-107886664D01*
X163086234Y-107891994D01*
X163063505Y-107933339D01*
X163063503Y-107933344D01*
X163058467Y-107952959D01*
X163052064Y-107971662D01*
X163044019Y-107990252D01*
X163036637Y-108036856D01*
X163035433Y-108042668D01*
X163023700Y-108088368D01*
X163023700Y-108108623D01*
X163022149Y-108128333D01*
X163018980Y-108148342D01*
X163018979Y-108148350D01*
X163019609Y-108155010D01*
X163006104Y-108224710D01*
X162957059Y-108276044D01*
X162888047Y-108292713D01*
X162820979Y-108269426D01*
X162785714Y-108231000D01*
X162764741Y-108195535D01*
X162750418Y-108181212D01*
X162737577Y-108166179D01*
X162725671Y-108149792D01*
X162699731Y-108128333D01*
X162689308Y-108119710D01*
X162684936Y-108115731D01*
X158785821Y-104216616D01*
X158751795Y-104154304D01*
X158749608Y-104140706D01*
X158732242Y-103975472D01*
X158673227Y-103793844D01*
X158577740Y-103628456D01*
X158577738Y-103628454D01*
X158577734Y-103628448D01*
X158449955Y-103486535D01*
X158295452Y-103374282D01*
X158120988Y-103296606D01*
X157934187Y-103256900D01*
X157743213Y-103256900D01*
X157556411Y-103296606D01*
X157381947Y-103374282D01*
X157227444Y-103486535D01*
X157099665Y-103628448D01*
X157099658Y-103628458D01*
X157004176Y-103793838D01*
X157004173Y-103793845D01*
X156945157Y-103975472D01*
X156925196Y-104165399D01*
X151095356Y-104165399D01*
X151108704Y-104038400D01*
X151088742Y-103848472D01*
X151029727Y-103666844D01*
X150934240Y-103501456D01*
X150934238Y-103501454D01*
X150934234Y-103501448D01*
X150806455Y-103359535D01*
X150651952Y-103247282D01*
X150477488Y-103169606D01*
X150290687Y-103129900D01*
X150099713Y-103129900D01*
X149912911Y-103169606D01*
X149738447Y-103247282D01*
X149583944Y-103359535D01*
X149456165Y-103501448D01*
X149456158Y-103501458D01*
X149360676Y-103666838D01*
X149360673Y-103666845D01*
X149301657Y-103848472D01*
X149284292Y-104013692D01*
X149257279Y-104079349D01*
X149248077Y-104089616D01*
X147012536Y-106325157D01*
X147000101Y-106335121D01*
X147000289Y-106335348D01*
X146994180Y-106340401D01*
X146946216Y-106391478D01*
X146925066Y-106412627D01*
X146920760Y-106418177D01*
X146916914Y-106422679D01*
X146884617Y-106457074D01*
X146884611Y-106457083D01*
X146874851Y-106474835D01*
X146864003Y-106491350D01*
X146851586Y-106507358D01*
X146832845Y-106550664D01*
X146830234Y-106555994D01*
X146807505Y-106597339D01*
X146807503Y-106597344D01*
X146802467Y-106616959D01*
X146796064Y-106635662D01*
X146788019Y-106654252D01*
X146780637Y-106700856D01*
X146779433Y-106706668D01*
X146767700Y-106752368D01*
X146767700Y-106772623D01*
X146766149Y-106792333D01*
X146762980Y-106812342D01*
X146762980Y-106812343D01*
X143843700Y-106812343D01*
X143843700Y-102454924D01*
X143863702Y-102386803D01*
X143876058Y-102370620D01*
X143949240Y-102289344D01*
X144044727Y-102123956D01*
X144103742Y-101942328D01*
X144123704Y-101752400D01*
X144103742Y-101562472D01*
X144044727Y-101380844D01*
X143949240Y-101215456D01*
X143949238Y-101215454D01*
X143949234Y-101215448D01*
X143821455Y-101073535D01*
X143666952Y-100961282D01*
X143492488Y-100883606D01*
X143305687Y-100843900D01*
X143114713Y-100843900D01*
X142927911Y-100883606D01*
X142753447Y-100961282D01*
X142598944Y-101073535D01*
X142471165Y-101215448D01*
X142471158Y-101215458D01*
X142403870Y-101332005D01*
X142375673Y-101380844D01*
X142368196Y-101403857D01*
X142316657Y-101562472D01*
X142296696Y-101752399D01*
X140290204Y-101752399D01*
X140270242Y-101562472D01*
X140211227Y-101380844D01*
X140115740Y-101215456D01*
X140115738Y-101215454D01*
X140115734Y-101215448D01*
X139987955Y-101073535D01*
X139833452Y-100961282D01*
X139658988Y-100883606D01*
X139472187Y-100843900D01*
X139281213Y-100843900D01*
X139094411Y-100883606D01*
X138919947Y-100961282D01*
X138765444Y-101073535D01*
X138637665Y-101215448D01*
X138637658Y-101215458D01*
X138570370Y-101332005D01*
X138542173Y-101380844D01*
X138534696Y-101403857D01*
X138483157Y-101562472D01*
X138463196Y-101752400D01*
X126693700Y-101752400D01*
X126693700Y-100945862D01*
X126713702Y-100877741D01*
X126767358Y-100831248D01*
X126837632Y-100821144D01*
X126902212Y-100850638D01*
X126927129Y-100880023D01*
X126981398Y-100968580D01*
X126995025Y-100990817D01*
X126995026Y-100990819D01*
X127149230Y-101171369D01*
X127329780Y-101325573D01*
X127329784Y-101325576D01*
X127532237Y-101449640D01*
X127751606Y-101540505D01*
X127982489Y-101595935D01*
X128219200Y-101614565D01*
X128455911Y-101595935D01*
X128686794Y-101540505D01*
X128906163Y-101449640D01*
X129108616Y-101325576D01*
X129289169Y-101171369D01*
X129443376Y-100990816D01*
X129567440Y-100788363D01*
X129658305Y-100568994D01*
X129713735Y-100338111D01*
X129732365Y-100101400D01*
X129713735Y-99864689D01*
X129658305Y-99633806D01*
X129567440Y-99414437D01*
X129443376Y-99211984D01*
X129443373Y-99211980D01*
X129289169Y-99031430D01*
X129108619Y-98877226D01*
X129108617Y-98877225D01*
X129108616Y-98877224D01*
X128906163Y-98753160D01*
X128686794Y-98662295D01*
X128686792Y-98662294D01*
X128528851Y-98624376D01*
X128455911Y-98606865D01*
X128219200Y-98588235D01*
X128219199Y-98588235D01*
X127982489Y-98606865D01*
X127751607Y-98662294D01*
X127532238Y-98753159D01*
X127329782Y-98877225D01*
X127329780Y-98877226D01*
X127149230Y-99031430D01*
X126995026Y-99211980D01*
X126995018Y-99211991D01*
X126927132Y-99322772D01*
X126874485Y-99370403D01*
X126804443Y-99382010D01*
X126739246Y-99353907D01*
X126699592Y-99295016D01*
X126693700Y-99256937D01*
X126693700Y-98157700D01*
X162992696Y-98157700D01*
X163012657Y-98347627D01*
X163047738Y-98455593D01*
X163071673Y-98529256D01*
X163130819Y-98631700D01*
X163147700Y-98694699D01*
X163147700Y-100859959D01*
X163146370Y-100878219D01*
X163142859Y-100902186D01*
X163142859Y-100902194D01*
X163147460Y-100954772D01*
X163147700Y-100960266D01*
X163147700Y-100968582D01*
X163151547Y-101001494D01*
X163158312Y-101078819D01*
X163159796Y-101086006D01*
X163159731Y-101086019D01*
X163161365Y-101093389D01*
X163161429Y-101093375D01*
X163163121Y-101100516D01*
X163189673Y-101173464D01*
X163214085Y-101247136D01*
X163217187Y-101253788D01*
X163217126Y-101253816D01*
X163220411Y-101260602D01*
X163220470Y-101260573D01*
X163223760Y-101267124D01*
X163266433Y-101332005D01*
X163307167Y-101398048D01*
X163311722Y-101403808D01*
X163311659Y-101403857D01*
X163322323Y-101416983D01*
X163322476Y-101417217D01*
X163336851Y-101447233D01*
X163391673Y-101615956D01*
X163391676Y-101615961D01*
X163487158Y-101781341D01*
X163487165Y-101781351D01*
X163614944Y-101923264D01*
X163614947Y-101923266D01*
X163769448Y-102035518D01*
X163943912Y-102113194D01*
X164130713Y-102152900D01*
X164321687Y-102152900D01*
X164508488Y-102113194D01*
X164682952Y-102035518D01*
X164837453Y-101923266D01*
X164965240Y-101781344D01*
X165060727Y-101615956D01*
X165119742Y-101434328D01*
X165139704Y-101244400D01*
X165119742Y-101054472D01*
X165060727Y-100872844D01*
X164965240Y-100707456D01*
X164965238Y-100707454D01*
X164965234Y-100707448D01*
X164837455Y-100565535D01*
X164716638Y-100477756D01*
X164673284Y-100421533D01*
X164664699Y-100375820D01*
X164664699Y-99633806D01*
X164664699Y-98694695D01*
X164681579Y-98631701D01*
X164740727Y-98529256D01*
X164799742Y-98347628D01*
X164819704Y-98157700D01*
X164799742Y-97967772D01*
X164740727Y-97786144D01*
X164645240Y-97620756D01*
X164645238Y-97620754D01*
X164645234Y-97620748D01*
X164517455Y-97478835D01*
X164362952Y-97366582D01*
X164188488Y-97288906D01*
X164001687Y-97249200D01*
X163810713Y-97249200D01*
X163623911Y-97288906D01*
X163449447Y-97366582D01*
X163294944Y-97478835D01*
X163167165Y-97620748D01*
X163167158Y-97620758D01*
X163071676Y-97786138D01*
X163071673Y-97786145D01*
X163012657Y-97967772D01*
X162992696Y-98157700D01*
X126693700Y-98157700D01*
X126693700Y-97321649D01*
X126713702Y-97253528D01*
X126767358Y-97207035D01*
X126837632Y-97196931D01*
X126893757Y-97219711D01*
X126949648Y-97260318D01*
X127124112Y-97337994D01*
X127310913Y-97377700D01*
X127501887Y-97377700D01*
X127688688Y-97337994D01*
X127863152Y-97260318D01*
X128017653Y-97148066D01*
X128145440Y-97006144D01*
X128240927Y-96840756D01*
X128299942Y-96659128D01*
X128319904Y-96469200D01*
X128299942Y-96279272D01*
X128240927Y-96097644D01*
X128145440Y-95932256D01*
X128145438Y-95932254D01*
X128145434Y-95932248D01*
X128017655Y-95790335D01*
X127863152Y-95678082D01*
X127688688Y-95600406D01*
X127501887Y-95560700D01*
X127310913Y-95560700D01*
X127124111Y-95600406D01*
X126949647Y-95678082D01*
X126893759Y-95718687D01*
X126826891Y-95742545D01*
X126757739Y-95726463D01*
X126708260Y-95675549D01*
X126693700Y-95616754D01*
X126693699Y-93835249D01*
X126695449Y-93819412D01*
X126695155Y-93819385D01*
X126695901Y-93811492D01*
X126693700Y-93741459D01*
X126693700Y-93711551D01*
X126693700Y-93711544D01*
X126692820Y-93704585D01*
X126692355Y-93698680D01*
X126690873Y-93651510D01*
X126685222Y-93632063D01*
X126681212Y-93612700D01*
X126678674Y-93592603D01*
X126661299Y-93548720D01*
X126659379Y-93543111D01*
X126646218Y-93497807D01*
X126635905Y-93480369D01*
X126627210Y-93462622D01*
X126619752Y-93443783D01*
X126592021Y-93405615D01*
X126588762Y-93400655D01*
X126574000Y-93375693D01*
X126564742Y-93360037D01*
X126564741Y-93360035D01*
X126550418Y-93345712D01*
X126537577Y-93330679D01*
X126525671Y-93314292D01*
X126505999Y-93298018D01*
X126489308Y-93284210D01*
X126484936Y-93280231D01*
X125610321Y-92405616D01*
X125576295Y-92343304D01*
X125574108Y-92329706D01*
X125556742Y-92164472D01*
X125497727Y-91982844D01*
X125418951Y-91846400D01*
X170775035Y-91846400D01*
X170793665Y-92083111D01*
X170800484Y-92111514D01*
X170849094Y-92313992D01*
X170865832Y-92354400D01*
X170939960Y-92533363D01*
X171032743Y-92684771D01*
X171064025Y-92735817D01*
X171064026Y-92735819D01*
X171218230Y-92916369D01*
X171367493Y-93043851D01*
X171398784Y-93070576D01*
X171601237Y-93194640D01*
X171820606Y-93285505D01*
X172051489Y-93340935D01*
X172288200Y-93359565D01*
X172524911Y-93340935D01*
X172755794Y-93285505D01*
X172975163Y-93194640D01*
X173177616Y-93070576D01*
X173358169Y-92916369D01*
X173512376Y-92735816D01*
X173636440Y-92533363D01*
X173727305Y-92313994D01*
X173782735Y-92083111D01*
X173801365Y-91846400D01*
X173782735Y-91609689D01*
X173727305Y-91378806D01*
X173636440Y-91159437D01*
X173512376Y-90956984D01*
X173485999Y-90926100D01*
X173358169Y-90776430D01*
X173177619Y-90622226D01*
X173177617Y-90622225D01*
X173177616Y-90622224D01*
X172975163Y-90498160D01*
X172963177Y-90493195D01*
X172755792Y-90407294D01*
X172597851Y-90369376D01*
X172524911Y-90351865D01*
X172288200Y-90333235D01*
X172051489Y-90351865D01*
X171820607Y-90407294D01*
X171601238Y-90498159D01*
X171398782Y-90622225D01*
X171398780Y-90622226D01*
X171218230Y-90776430D01*
X171064026Y-90956980D01*
X171064025Y-90956982D01*
X170939959Y-91159438D01*
X170849094Y-91378807D01*
X170793665Y-91609689D01*
X170780444Y-91777680D01*
X170775035Y-91846400D01*
X125418951Y-91846400D01*
X125402240Y-91817456D01*
X125402238Y-91817454D01*
X125402234Y-91817448D01*
X125274455Y-91675535D01*
X125119952Y-91563282D01*
X124945488Y-91485606D01*
X124758687Y-91445900D01*
X124567713Y-91445900D01*
X124380911Y-91485606D01*
X124206447Y-91563282D01*
X124051944Y-91675535D01*
X124049005Y-91678182D01*
X124046934Y-91679175D01*
X124046605Y-91679415D01*
X124046561Y-91679354D01*
X123984996Y-91708896D01*
X123914543Y-91700128D01*
X123880395Y-91678182D01*
X123877455Y-91675535D01*
X123722952Y-91563282D01*
X123548488Y-91485606D01*
X123361687Y-91445900D01*
X123170713Y-91445900D01*
X122983911Y-91485606D01*
X122809447Y-91563282D01*
X122654944Y-91675535D01*
X122578844Y-91760054D01*
X122518398Y-91797294D01*
X122447415Y-91795942D01*
X122411147Y-91777680D01*
X122325952Y-91715782D01*
X122151488Y-91638106D01*
X122088427Y-91624701D01*
X122025954Y-91590972D01*
X122025531Y-91590550D01*
X118996608Y-88561627D01*
X118984636Y-88547775D01*
X118970169Y-88528342D01*
X118970167Y-88528340D01*
X118952707Y-88513689D01*
X118913381Y-88454578D01*
X118907700Y-88417169D01*
X118907700Y-88253767D01*
X118907699Y-88253750D01*
X118901190Y-88193203D01*
X118901188Y-88193195D01*
X118860868Y-88085095D01*
X118850089Y-88056196D01*
X118850087Y-88056193D01*
X118850087Y-88056192D01*
X118791172Y-87977491D01*
X118766361Y-87910971D01*
X118781453Y-87841596D01*
X118791173Y-87826472D01*
X118849643Y-87748366D01*
X118849644Y-87748364D01*
X118900694Y-87611493D01*
X118907199Y-87550997D01*
X118907200Y-87550985D01*
X118907200Y-87006400D01*
X115891200Y-87006400D01*
X115891200Y-87550997D01*
X115897705Y-87611493D01*
X115948755Y-87748364D01*
X115948755Y-87748365D01*
X116007227Y-87826473D01*
X116032038Y-87892993D01*
X116016947Y-87962367D01*
X116007228Y-87977490D01*
X115948312Y-88056193D01*
X115948310Y-88056197D01*
X115897210Y-88193199D01*
X115896341Y-88196878D01*
X115894883Y-88199436D01*
X115894456Y-88200584D01*
X115894270Y-88200514D01*
X115861209Y-88258573D01*
X115798299Y-88291479D01*
X115773719Y-88293900D01*
X112733700Y-88293900D01*
X112665579Y-88273898D01*
X112619086Y-88220242D01*
X112607700Y-88167900D01*
X112607700Y-87103767D01*
X112607699Y-87103750D01*
X112601190Y-87043203D01*
X112601188Y-87043195D01*
X112562796Y-86940265D01*
X112550089Y-86906196D01*
X112550088Y-86906194D01*
X112550087Y-86906192D01*
X112462461Y-86789138D01*
X112345407Y-86701512D01*
X112345402Y-86701510D01*
X112208404Y-86650411D01*
X112208396Y-86650409D01*
X112147849Y-86643900D01*
X112147838Y-86643900D01*
X110050562Y-86643900D01*
X110050550Y-86643900D01*
X109990003Y-86650409D01*
X109989995Y-86650411D01*
X109852997Y-86701510D01*
X109852992Y-86701512D01*
X109735938Y-86789138D01*
X109648312Y-86906192D01*
X109648310Y-86906197D01*
X109597211Y-87043195D01*
X109597209Y-87043203D01*
X109590700Y-87103750D01*
X109590700Y-89748029D01*
X109570698Y-89816150D01*
X109517042Y-89862643D01*
X109446768Y-89872747D01*
X109382188Y-89843253D01*
X109375605Y-89837124D01*
X109241605Y-89703124D01*
X109207579Y-89640812D01*
X109204700Y-89614029D01*
X109204700Y-86498400D01*
X115891200Y-86498400D01*
X117145200Y-86498400D01*
X117145200Y-85494400D01*
X117653200Y-85494400D01*
X117653200Y-86498400D01*
X118907200Y-86498400D01*
X118907200Y-85953814D01*
X118907199Y-85953802D01*
X118900694Y-85893306D01*
X118849644Y-85756435D01*
X118849644Y-85756434D01*
X118762104Y-85639495D01*
X118645165Y-85551955D01*
X118508293Y-85500905D01*
X118447797Y-85494400D01*
X117653200Y-85494400D01*
X117145200Y-85494400D01*
X116350602Y-85494400D01*
X116290106Y-85500905D01*
X116153235Y-85551955D01*
X116153234Y-85551955D01*
X116036295Y-85639495D01*
X115948755Y-85756434D01*
X115948755Y-85756435D01*
X115897705Y-85893306D01*
X115891200Y-85953802D01*
X115891200Y-86498400D01*
X109204700Y-86498400D01*
X109204700Y-84451771D01*
X109224702Y-84383650D01*
X109241600Y-84362680D01*
X109772428Y-83831851D01*
X109834739Y-83797828D01*
X109905552Y-83802891D01*
X109905554Y-83802892D01*
X109905555Y-83802893D01*
X109989995Y-83834388D01*
X109990003Y-83834390D01*
X110050550Y-83840899D01*
X110050555Y-83840899D01*
X110050562Y-83840900D01*
X110050568Y-83840900D01*
X112147832Y-83840900D01*
X112147838Y-83840900D01*
X112147845Y-83840899D01*
X112147849Y-83840899D01*
X112208396Y-83834390D01*
X112208399Y-83834389D01*
X112208401Y-83834389D01*
X112345404Y-83783289D01*
X112387147Y-83752041D01*
X112462461Y-83695661D01*
X112550087Y-83578607D01*
X112550087Y-83578606D01*
X112550089Y-83578604D01*
X112601189Y-83441601D01*
X112605627Y-83400327D01*
X112607699Y-83381049D01*
X112607700Y-83381032D01*
X112607700Y-80567771D01*
X112627702Y-80499650D01*
X112681358Y-80453157D01*
X112751632Y-80443053D01*
X112816212Y-80472547D01*
X112822795Y-80478676D01*
X115853794Y-83509675D01*
X115887820Y-83571987D01*
X115890699Y-83598770D01*
X115890699Y-84531032D01*
X115890700Y-84531049D01*
X115897209Y-84591596D01*
X115897211Y-84591604D01*
X115948310Y-84728602D01*
X115948312Y-84728607D01*
X116035938Y-84845661D01*
X116152992Y-84933287D01*
X116152994Y-84933288D01*
X116152996Y-84933289D01*
X116212075Y-84955324D01*
X116289995Y-84984388D01*
X116290003Y-84984390D01*
X116350550Y-84990899D01*
X116350555Y-84990899D01*
X116350562Y-84990900D01*
X116350568Y-84990900D01*
X118447832Y-84990900D01*
X118447838Y-84990900D01*
X118447845Y-84990899D01*
X118447849Y-84990899D01*
X118508396Y-84984390D01*
X118508399Y-84984389D01*
X118508401Y-84984389D01*
X118645404Y-84933289D01*
X118656818Y-84924745D01*
X118762461Y-84845661D01*
X118850087Y-84728607D01*
X118850087Y-84728606D01*
X118850089Y-84728604D01*
X118901189Y-84591601D01*
X118907700Y-84531038D01*
X118907700Y-84069441D01*
X118927702Y-84001320D01*
X118981358Y-83954827D01*
X119051632Y-83944723D01*
X119114689Y-83972918D01*
X119127175Y-83983394D01*
X119131221Y-83987102D01*
X119136714Y-83992595D01*
X119137101Y-83992982D01*
X119147897Y-84001518D01*
X119163095Y-84013535D01*
X119222560Y-84063432D01*
X119222566Y-84063435D01*
X119228695Y-84067467D01*
X119228658Y-84067522D01*
X119235011Y-84071569D01*
X119235047Y-84071513D01*
X119241292Y-84075365D01*
X119241295Y-84075367D01*
X119311652Y-84108175D01*
X119381012Y-84143009D01*
X119381013Y-84143009D01*
X119381017Y-84143011D01*
X119387913Y-84145521D01*
X119387889Y-84145585D01*
X119395005Y-84148059D01*
X119395027Y-84147995D01*
X119401991Y-84150303D01*
X119478049Y-84166007D01*
X119512066Y-84174069D01*
X119553544Y-84183900D01*
X119553550Y-84183900D01*
X119560833Y-84184752D01*
X119560825Y-84184819D01*
X119568322Y-84185585D01*
X119568328Y-84185519D01*
X119575635Y-84186157D01*
X119575642Y-84186159D01*
X119653280Y-84183900D01*
X136009605Y-84183900D01*
X136077726Y-84203902D01*
X136124219Y-84257558D01*
X136134323Y-84327832D01*
X136104829Y-84392412D01*
X136098700Y-84398995D01*
X133576677Y-86921017D01*
X133514365Y-86955043D01*
X133443549Y-86949978D01*
X133386714Y-86907431D01*
X133361903Y-86840911D01*
X133371005Y-86789064D01*
X133369686Y-86788636D01*
X133371728Y-86782354D01*
X133430742Y-86600728D01*
X133450704Y-86410800D01*
X133430742Y-86220872D01*
X133371727Y-86039244D01*
X133276240Y-85873856D01*
X133276238Y-85873854D01*
X133276234Y-85873848D01*
X133148455Y-85731935D01*
X132993952Y-85619682D01*
X132819488Y-85542006D01*
X132632687Y-85502300D01*
X132441713Y-85502300D01*
X132254911Y-85542006D01*
X132080447Y-85619682D01*
X131925944Y-85731935D01*
X131798165Y-85873848D01*
X131798158Y-85873858D01*
X131705829Y-86033777D01*
X131702673Y-86039244D01*
X131688199Y-86083786D01*
X131643657Y-86220872D01*
X131623696Y-86410800D01*
X131643657Y-86600727D01*
X131669920Y-86681553D01*
X131702673Y-86782356D01*
X131732777Y-86834498D01*
X131749515Y-86903491D01*
X131726295Y-86970583D01*
X131670488Y-87014471D01*
X131623658Y-87023497D01*
X127552678Y-87023497D01*
X127484557Y-87003495D01*
X127438064Y-86949839D01*
X127427960Y-86879565D01*
X127439816Y-86845308D01*
X127438462Y-86844705D01*
X127441140Y-86838685D01*
X127441149Y-86838671D01*
X127500164Y-86657043D01*
X127520126Y-86467115D01*
X127500164Y-86277187D01*
X127441149Y-86095559D01*
X127345662Y-85930171D01*
X127345660Y-85930169D01*
X127345656Y-85930163D01*
X127217877Y-85788250D01*
X127063374Y-85675997D01*
X126888910Y-85598321D01*
X126702109Y-85558615D01*
X126511135Y-85558615D01*
X126324333Y-85598321D01*
X126149869Y-85675997D01*
X125995366Y-85788250D01*
X125867587Y-85930163D01*
X125867580Y-85930173D01*
X125772098Y-86095553D01*
X125772095Y-86095560D01*
X125713079Y-86277187D01*
X125693118Y-86467114D01*
X125713079Y-86657042D01*
X125739515Y-86738400D01*
X125772095Y-86838671D01*
X125772098Y-86838676D01*
X125862432Y-86995140D01*
X125867582Y-87004059D01*
X125873220Y-87010321D01*
X125903939Y-87074327D01*
X125895177Y-87144780D01*
X125849716Y-87199313D01*
X125809565Y-87216283D01*
X125809592Y-87216365D01*
X125808637Y-87216675D01*
X125805794Y-87217877D01*
X125803318Y-87218403D01*
X125803316Y-87218403D01*
X125628847Y-87296082D01*
X125474344Y-87408335D01*
X125346565Y-87550248D01*
X125346558Y-87550258D01*
X125260579Y-87699179D01*
X125251073Y-87715644D01*
X125240442Y-87748364D01*
X125192057Y-87897272D01*
X125172096Y-88087200D01*
X125192057Y-88277127D01*
X125197670Y-88294400D01*
X125251073Y-88458756D01*
X125251076Y-88458761D01*
X125346558Y-88624141D01*
X125346565Y-88624151D01*
X125474344Y-88766064D01*
X125474347Y-88766066D01*
X125628848Y-88878318D01*
X125803312Y-88955994D01*
X125990113Y-88995700D01*
X126181087Y-88995700D01*
X126367888Y-88955994D01*
X126542352Y-88878318D01*
X126696853Y-88766066D01*
X126696855Y-88766064D01*
X126698924Y-88764561D01*
X126765792Y-88740703D01*
X126772985Y-88740497D01*
X133753297Y-88740497D01*
X133821418Y-88760499D01*
X133867911Y-88814155D01*
X133879297Y-88866497D01*
X133879297Y-89377716D01*
X133859295Y-89445837D01*
X133846935Y-89462025D01*
X133830157Y-89480659D01*
X133734676Y-89646038D01*
X133734673Y-89646045D01*
X133675657Y-89827672D01*
X133655696Y-90017600D01*
X133675657Y-90207527D01*
X133698526Y-90277909D01*
X133734673Y-90389156D01*
X133734676Y-90389161D01*
X133830158Y-90554541D01*
X133830165Y-90554551D01*
X133957944Y-90696464D01*
X133957947Y-90696466D01*
X134112448Y-90808718D01*
X134286912Y-90886394D01*
X134473713Y-90926100D01*
X134664687Y-90926100D01*
X134851488Y-90886394D01*
X135025952Y-90808718D01*
X135180453Y-90696466D01*
X135308240Y-90554544D01*
X135403727Y-90389156D01*
X135462742Y-90207528D01*
X135482704Y-90017600D01*
X135462742Y-89827672D01*
X135403727Y-89646044D01*
X135308240Y-89480656D01*
X135259102Y-89426083D01*
X135178660Y-89336742D01*
X135147943Y-89272734D01*
X135146297Y-89252432D01*
X135146297Y-88421591D01*
X135166299Y-88353470D01*
X135183196Y-88332501D01*
X135675717Y-87839980D01*
X135738026Y-87805958D01*
X135808841Y-87811022D01*
X135858442Y-87844764D01*
X135862944Y-87849764D01*
X135862947Y-87849766D01*
X136017448Y-87962018D01*
X136191912Y-88039694D01*
X136378713Y-88079400D01*
X136521542Y-88079400D01*
X136552873Y-88083357D01*
X136559637Y-88085093D01*
X136559640Y-88085095D01*
X136579274Y-88090136D01*
X136597963Y-88096535D01*
X136616555Y-88104581D01*
X136663170Y-88111963D01*
X136668942Y-88113158D01*
X136714670Y-88124900D01*
X136734931Y-88124900D01*
X136754639Y-88126450D01*
X136774643Y-88129619D01*
X136809164Y-88126356D01*
X136821610Y-88125180D01*
X136827542Y-88124900D01*
X145063347Y-88124900D01*
X145079188Y-88126649D01*
X145079216Y-88126356D01*
X145087102Y-88127100D01*
X145087109Y-88127102D01*
X145157158Y-88124900D01*
X145187056Y-88124900D01*
X145194018Y-88124019D01*
X145199919Y-88123554D01*
X145247089Y-88122073D01*
X145266547Y-88116419D01*
X145285894Y-88112413D01*
X145305997Y-88109874D01*
X145306980Y-88109485D01*
X145319365Y-88104581D01*
X145349879Y-88092499D01*
X145355474Y-88090583D01*
X145393971Y-88079400D01*
X145400791Y-88077419D01*
X145400795Y-88077417D01*
X145418226Y-88067108D01*
X145435980Y-88058409D01*
X145454817Y-88050952D01*
X145492986Y-88023218D01*
X145497944Y-88019962D01*
X145538562Y-87995942D01*
X145552885Y-87981618D01*
X145567924Y-87968774D01*
X145576743Y-87962367D01*
X145584307Y-87956872D01*
X145614388Y-87920508D01*
X145618366Y-87916136D01*
X146330699Y-87203804D01*
X146393012Y-87169779D01*
X146419795Y-87166900D01*
X146475687Y-87166900D01*
X146662488Y-87127194D01*
X146836952Y-87049518D01*
X146991453Y-86937266D01*
X147043407Y-86879565D01*
X147119234Y-86795351D01*
X147119235Y-86795349D01*
X147119240Y-86795344D01*
X147214727Y-86629956D01*
X147273742Y-86448328D01*
X147293704Y-86258400D01*
X147273742Y-86068472D01*
X147214727Y-85886844D01*
X147119240Y-85721456D01*
X147119238Y-85721454D01*
X147119234Y-85721448D01*
X146991455Y-85579535D01*
X146836952Y-85467282D01*
X146662488Y-85389606D01*
X146475687Y-85349900D01*
X146284713Y-85349900D01*
X146097911Y-85389606D01*
X145923447Y-85467282D01*
X145768944Y-85579535D01*
X145641165Y-85721448D01*
X145641158Y-85721458D01*
X145553170Y-85873858D01*
X145545673Y-85886844D01*
X145531598Y-85930163D01*
X145486657Y-86068472D01*
X145469293Y-86233690D01*
X145442280Y-86299347D01*
X145433079Y-86309615D01*
X144921700Y-86820995D01*
X144859387Y-86855020D01*
X144832604Y-86857900D01*
X143860772Y-86857900D01*
X143792651Y-86837898D01*
X143746158Y-86784242D01*
X143735462Y-86745070D01*
X143728785Y-86681546D01*
X143717742Y-86576472D01*
X143658727Y-86394844D01*
X143583595Y-86264712D01*
X143563242Y-86229459D01*
X143563241Y-86229458D01*
X143563240Y-86229456D01*
X143490063Y-86148184D01*
X143459346Y-86084176D01*
X143457700Y-86063874D01*
X143457700Y-85215399D01*
X158232696Y-85215399D01*
X158252657Y-85405327D01*
X158272788Y-85467282D01*
X158311673Y-85586956D01*
X158407160Y-85752344D01*
X158480337Y-85833615D01*
X158511053Y-85897620D01*
X158512700Y-85917924D01*
X158512700Y-87407046D01*
X158510951Y-87422888D01*
X158511244Y-87422916D01*
X158510498Y-87430807D01*
X158510498Y-87430809D01*
X158511009Y-87447069D01*
X158512700Y-87500857D01*
X158512700Y-87530751D01*
X158512701Y-87530772D01*
X158513578Y-87537720D01*
X158514044Y-87543632D01*
X158515526Y-87590788D01*
X158515527Y-87590793D01*
X158521177Y-87610239D01*
X158525186Y-87629597D01*
X158527725Y-87649693D01*
X158527726Y-87649699D01*
X158545093Y-87693562D01*
X158547016Y-87699179D01*
X158560182Y-87744493D01*
X158570494Y-87761931D01*
X158579188Y-87779679D01*
X158586644Y-87798509D01*
X158586650Y-87798520D01*
X158614377Y-87836683D01*
X158617637Y-87841646D01*
X158641660Y-87882265D01*
X158655979Y-87896584D01*
X158668817Y-87911614D01*
X158672095Y-87916125D01*
X158680728Y-87928007D01*
X158708994Y-87951391D01*
X158717086Y-87958085D01*
X158721467Y-87962071D01*
X159321023Y-88561627D01*
X159911077Y-89151681D01*
X159945103Y-89213993D01*
X159947292Y-89227605D01*
X159964657Y-89392827D01*
X159993195Y-89480654D01*
X160023673Y-89574456D01*
X160023676Y-89574461D01*
X160119158Y-89739841D01*
X160119165Y-89739851D01*
X160246944Y-89881764D01*
X160288010Y-89911600D01*
X160401448Y-89994018D01*
X160575912Y-90071694D01*
X160762713Y-90111400D01*
X160953687Y-90111400D01*
X161140488Y-90071694D01*
X161314952Y-89994018D01*
X161469453Y-89881766D01*
X161481147Y-89868779D01*
X161597234Y-89739851D01*
X161597235Y-89739849D01*
X161597240Y-89739844D01*
X161692727Y-89574456D01*
X161751742Y-89392828D01*
X161771704Y-89202900D01*
X161751742Y-89012972D01*
X161692727Y-88831344D01*
X161597240Y-88665956D01*
X161597238Y-88665954D01*
X161597234Y-88665948D01*
X161469455Y-88524035D01*
X161314952Y-88411782D01*
X161140488Y-88334106D01*
X160953687Y-88294400D01*
X160897794Y-88294400D01*
X160829673Y-88274398D01*
X160808699Y-88257495D01*
X159816605Y-87265400D01*
X159782579Y-87203088D01*
X159779700Y-87176305D01*
X159779700Y-86138404D01*
X176879508Y-86138404D01*
X176898252Y-86412448D01*
X176898253Y-86412454D01*
X176954142Y-86681411D01*
X176954144Y-86681419D01*
X177046138Y-86940265D01*
X177172514Y-87184156D01*
X177172516Y-87184159D01*
X177302740Y-87368647D01*
X178206720Y-86464667D01*
X178269033Y-86430642D01*
X178339848Y-86435706D01*
X178395777Y-86477056D01*
X178464275Y-86566325D01*
X178552416Y-86633958D01*
X178553539Y-86634819D01*
X178595407Y-86692157D01*
X178599629Y-86763028D01*
X178565931Y-86823877D01*
X177662915Y-87726892D01*
X177662915Y-87726894D01*
X177731513Y-87782704D01*
X177731518Y-87782707D01*
X177966230Y-87925438D01*
X178218189Y-88034880D01*
X178482709Y-88108995D01*
X178754835Y-88146399D01*
X178754849Y-88146400D01*
X179029551Y-88146400D01*
X179029564Y-88146399D01*
X179301690Y-88108995D01*
X179566210Y-88034880D01*
X179818169Y-87925438D01*
X180052879Y-87782709D01*
X180121483Y-87726893D01*
X179218468Y-86823879D01*
X179184443Y-86761566D01*
X179189507Y-86690751D01*
X179230860Y-86634820D01*
X179231984Y-86633958D01*
X179320125Y-86566325D01*
X179388621Y-86477058D01*
X179445958Y-86435192D01*
X179516829Y-86430970D01*
X179577678Y-86464668D01*
X180481657Y-87368647D01*
X180611882Y-87184162D01*
X180611885Y-87184156D01*
X180738261Y-86940265D01*
X180830255Y-86681419D01*
X180830257Y-86681411D01*
X180886146Y-86412454D01*
X180886147Y-86412448D01*
X180904892Y-86138404D01*
X183879007Y-86138404D01*
X183897756Y-86412516D01*
X183897757Y-86412522D01*
X183897758Y-86412530D01*
X183925988Y-86548377D01*
X183953660Y-86681546D01*
X183953662Y-86681554D01*
X184014010Y-86851357D01*
X184045677Y-86940458D01*
X184171952Y-87184159D01*
X184172092Y-87184428D01*
X184213355Y-87242884D01*
X184330543Y-87408902D01*
X184518089Y-87609714D01*
X184731231Y-87783118D01*
X184918950Y-87897272D01*
X184966002Y-87925885D01*
X184970892Y-87928009D01*
X185218023Y-88035353D01*
X185482604Y-88109485D01*
X185574180Y-88122072D01*
X185754804Y-88146899D01*
X185754815Y-88146900D01*
X186029585Y-88146900D01*
X186029595Y-88146899D01*
X186173624Y-88127102D01*
X186301796Y-88109485D01*
X186566377Y-88035353D01*
X186818400Y-87925884D01*
X187053169Y-87783118D01*
X187266311Y-87609714D01*
X187453857Y-87408902D01*
X187612311Y-87184423D01*
X187738723Y-86940458D01*
X187830738Y-86681553D01*
X187886642Y-86412530D01*
X187894384Y-86299347D01*
X187905393Y-86138404D01*
X187905393Y-86138395D01*
X187886643Y-85864283D01*
X187886642Y-85864277D01*
X187886642Y-85864270D01*
X187830738Y-85595247D01*
X187772776Y-85432161D01*
X187768812Y-85361277D01*
X187802405Y-85300874D01*
X188081476Y-85021804D01*
X188143789Y-84987779D01*
X188170572Y-84984900D01*
X190230443Y-84984900D01*
X190298564Y-85004902D01*
X190345057Y-85058558D01*
X190355161Y-85128832D01*
X190325667Y-85193412D01*
X190278661Y-85227309D01*
X190086542Y-85306886D01*
X189867377Y-85441190D01*
X189867374Y-85441193D01*
X189865662Y-85442652D01*
X190322047Y-85899036D01*
X190356072Y-85961349D01*
X190351008Y-86032164D01*
X190316043Y-86079255D01*
X190317728Y-86081034D01*
X190178539Y-86212879D01*
X190158617Y-86242262D01*
X190103832Y-86287419D01*
X190033330Y-86295788D01*
X189969496Y-86264712D01*
X189965234Y-86260645D01*
X189506452Y-85801862D01*
X189504993Y-85803574D01*
X189504990Y-85803577D01*
X189370686Y-86022742D01*
X189272321Y-86260216D01*
X189212317Y-86510153D01*
X189192150Y-86766400D01*
X189212317Y-87022646D01*
X189272321Y-87272583D01*
X189370686Y-87510057D01*
X189504991Y-87729224D01*
X189506452Y-87730935D01*
X189965543Y-87271845D01*
X190027856Y-87237820D01*
X190098671Y-87242884D01*
X190150671Y-87279369D01*
X190242203Y-87387129D01*
X190242205Y-87387130D01*
X190242209Y-87387135D01*
X190312783Y-87440784D01*
X190354907Y-87497929D01*
X190359448Y-87568781D01*
X190325624Y-87630184D01*
X189865662Y-88090145D01*
X189865662Y-88090146D01*
X189867374Y-88091607D01*
X190086542Y-88225913D01*
X190324016Y-88324278D01*
X190573953Y-88384282D01*
X190830200Y-88404449D01*
X191086446Y-88384282D01*
X191336383Y-88324278D01*
X191573857Y-88225913D01*
X191793025Y-88091607D01*
X191794736Y-88090146D01*
X191338352Y-87633763D01*
X191304327Y-87571450D01*
X191309391Y-87500635D01*
X191344368Y-87453558D01*
X191342671Y-87451767D01*
X191354269Y-87440781D01*
X191481858Y-87319923D01*
X191501780Y-87290539D01*
X191556563Y-87245382D01*
X191627065Y-87237011D01*
X191690900Y-87268084D01*
X191695165Y-87272154D01*
X192153946Y-87730935D01*
X192155407Y-87729225D01*
X192289713Y-87510057D01*
X192388078Y-87272583D01*
X192448082Y-87022646D01*
X192468249Y-86766400D01*
X194272150Y-86766400D01*
X194292317Y-87022646D01*
X194352321Y-87272583D01*
X194450686Y-87510057D01*
X194584991Y-87729224D01*
X194586452Y-87730935D01*
X195045543Y-87271845D01*
X195107856Y-87237820D01*
X195178671Y-87242884D01*
X195230671Y-87279369D01*
X195322203Y-87387129D01*
X195322205Y-87387130D01*
X195322209Y-87387135D01*
X195392783Y-87440784D01*
X195434907Y-87497929D01*
X195439448Y-87568781D01*
X195405624Y-87630184D01*
X194945662Y-88090145D01*
X194945662Y-88090146D01*
X194947374Y-88091607D01*
X195166542Y-88225913D01*
X195404016Y-88324278D01*
X195653953Y-88384282D01*
X195910200Y-88404449D01*
X196166446Y-88384282D01*
X196416383Y-88324278D01*
X196653857Y-88225913D01*
X196873025Y-88091607D01*
X196874735Y-88090146D01*
X196418352Y-87633763D01*
X196384327Y-87571450D01*
X196389391Y-87500635D01*
X196424368Y-87453558D01*
X196422671Y-87451767D01*
X196434269Y-87440781D01*
X196561858Y-87319923D01*
X196581780Y-87290539D01*
X196636563Y-87245382D01*
X196707065Y-87237011D01*
X196770900Y-87268084D01*
X196775165Y-87272154D01*
X197233946Y-87730935D01*
X197235407Y-87729225D01*
X197369713Y-87510057D01*
X197468078Y-87272583D01*
X197528082Y-87022646D01*
X197548249Y-86766400D01*
X197528082Y-86510153D01*
X197468078Y-86260216D01*
X197369713Y-86022742D01*
X197235407Y-85803574D01*
X197233946Y-85801862D01*
X197233945Y-85801862D01*
X196774854Y-86260954D01*
X196712542Y-86294979D01*
X196641726Y-86289914D01*
X196589726Y-86253428D01*
X196498195Y-86145669D01*
X196498193Y-86145667D01*
X196498191Y-86145665D01*
X196427615Y-86092014D01*
X196385491Y-86034868D01*
X196380950Y-85964017D01*
X196414774Y-85902613D01*
X196874736Y-85442652D01*
X196873024Y-85441191D01*
X196653857Y-85306886D01*
X196416383Y-85208521D01*
X196166446Y-85148517D01*
X195910200Y-85128350D01*
X195653953Y-85148517D01*
X195404016Y-85208521D01*
X195166542Y-85306886D01*
X194947377Y-85441190D01*
X194947374Y-85441193D01*
X194945662Y-85442652D01*
X195402047Y-85899036D01*
X195436072Y-85961349D01*
X195431008Y-86032164D01*
X195396043Y-86079255D01*
X195397728Y-86081034D01*
X195258539Y-86212879D01*
X195238617Y-86242262D01*
X195183832Y-86287419D01*
X195113330Y-86295788D01*
X195049496Y-86264712D01*
X195045234Y-86260645D01*
X194586452Y-85801862D01*
X194584993Y-85803574D01*
X194584990Y-85803577D01*
X194450686Y-86022742D01*
X194352321Y-86260216D01*
X194292317Y-86510153D01*
X194272150Y-86766400D01*
X192468249Y-86766400D01*
X192448082Y-86510153D01*
X192388078Y-86260216D01*
X192289713Y-86022742D01*
X192155407Y-85803574D01*
X192153946Y-85801862D01*
X192153945Y-85801862D01*
X191694854Y-86260954D01*
X191632542Y-86294979D01*
X191561726Y-86289914D01*
X191509726Y-86253428D01*
X191418195Y-86145669D01*
X191418193Y-86145667D01*
X191418191Y-86145665D01*
X191347615Y-86092014D01*
X191305491Y-86034868D01*
X191300950Y-85964017D01*
X191334774Y-85902613D01*
X191794736Y-85442652D01*
X191793024Y-85441191D01*
X191573857Y-85306886D01*
X191381739Y-85227309D01*
X191326458Y-85182761D01*
X191304037Y-85115397D01*
X191321595Y-85046606D01*
X191373557Y-84998228D01*
X191429957Y-84984900D01*
X191965914Y-84984900D01*
X192034035Y-85004902D01*
X192073346Y-85045065D01*
X192125730Y-85130548D01*
X192125733Y-85130552D01*
X192125734Y-85130554D01*
X192125736Y-85130556D01*
X192282499Y-85314101D01*
X192466044Y-85470864D01*
X192671853Y-85596984D01*
X192894857Y-85689355D01*
X193129566Y-85745704D01*
X193370200Y-85764642D01*
X193610834Y-85745704D01*
X193845543Y-85689355D01*
X194068547Y-85596984D01*
X194274356Y-85470864D01*
X194457901Y-85314101D01*
X194614664Y-85130556D01*
X194740784Y-84924747D01*
X194833155Y-84701743D01*
X194889504Y-84467034D01*
X194908442Y-84226400D01*
X194889504Y-83985766D01*
X194833155Y-83751057D01*
X194740784Y-83528053D01*
X194614664Y-83322244D01*
X194457901Y-83138699D01*
X194274356Y-82981936D01*
X194068547Y-82855816D01*
X194049910Y-82848096D01*
X193845541Y-82763444D01*
X193668340Y-82720902D01*
X193610834Y-82707096D01*
X193370200Y-82688158D01*
X193129566Y-82707096D01*
X192894858Y-82763444D01*
X192671854Y-82855815D01*
X192466045Y-82981935D01*
X192282499Y-83138699D01*
X192125733Y-83322247D01*
X192125730Y-83322251D01*
X192073346Y-83407735D01*
X192020699Y-83455366D01*
X191965914Y-83467900D01*
X191429957Y-83467900D01*
X191361836Y-83447898D01*
X191315343Y-83394242D01*
X191305239Y-83323968D01*
X191334733Y-83259388D01*
X191381739Y-83225491D01*
X191573857Y-83145913D01*
X191793025Y-83011607D01*
X191794735Y-83010146D01*
X191338352Y-82553763D01*
X191304327Y-82491450D01*
X191309391Y-82420635D01*
X191344368Y-82373558D01*
X191342671Y-82371767D01*
X191354269Y-82360781D01*
X191481858Y-82239923D01*
X191501780Y-82210539D01*
X191556563Y-82165382D01*
X191627065Y-82157011D01*
X191690900Y-82188084D01*
X191695165Y-82192154D01*
X192153946Y-82650935D01*
X192155407Y-82649225D01*
X192289713Y-82430057D01*
X192388078Y-82192583D01*
X192448082Y-81942646D01*
X192468249Y-81686400D01*
X194272150Y-81686400D01*
X194292317Y-81942646D01*
X194352321Y-82192583D01*
X194450686Y-82430057D01*
X194584991Y-82649224D01*
X194586452Y-82650935D01*
X195045543Y-82191845D01*
X195107856Y-82157820D01*
X195178671Y-82162884D01*
X195230671Y-82199369D01*
X195322203Y-82307129D01*
X195322205Y-82307130D01*
X195322209Y-82307135D01*
X195392783Y-82360784D01*
X195434907Y-82417929D01*
X195439448Y-82488781D01*
X195405624Y-82550184D01*
X194945662Y-83010145D01*
X194945662Y-83010146D01*
X194947374Y-83011607D01*
X195166542Y-83145913D01*
X195404016Y-83244278D01*
X195653953Y-83304282D01*
X195910199Y-83324449D01*
X196166446Y-83304282D01*
X196416383Y-83244278D01*
X196653857Y-83145913D01*
X196873025Y-83011607D01*
X196874735Y-83010146D01*
X196418352Y-82553763D01*
X196384327Y-82491450D01*
X196389391Y-82420635D01*
X196424368Y-82373558D01*
X196422671Y-82371767D01*
X196434269Y-82360781D01*
X196561858Y-82239923D01*
X196581780Y-82210539D01*
X196636563Y-82165382D01*
X196707065Y-82157011D01*
X196770900Y-82188084D01*
X196775165Y-82192154D01*
X197233946Y-82650935D01*
X197235407Y-82649225D01*
X197369713Y-82430057D01*
X197468078Y-82192583D01*
X197528082Y-81942646D01*
X197548249Y-81686400D01*
X197528082Y-81430153D01*
X197468078Y-81180216D01*
X197369713Y-80942742D01*
X197235407Y-80723574D01*
X197233946Y-80721862D01*
X196774854Y-81180954D01*
X196712542Y-81214979D01*
X196641726Y-81209914D01*
X196589726Y-81173428D01*
X196498195Y-81065669D01*
X196498193Y-81065667D01*
X196498191Y-81065665D01*
X196427615Y-81012014D01*
X196385491Y-80954868D01*
X196380950Y-80884017D01*
X196414774Y-80822613D01*
X196874736Y-80362652D01*
X196873024Y-80361191D01*
X196653857Y-80226886D01*
X196416383Y-80128521D01*
X196166446Y-80068517D01*
X195910199Y-80048350D01*
X195653953Y-80068517D01*
X195404016Y-80128521D01*
X195166542Y-80226886D01*
X194947377Y-80361190D01*
X194947374Y-80361193D01*
X194945662Y-80362652D01*
X195402047Y-80819036D01*
X195436072Y-80881349D01*
X195431008Y-80952164D01*
X195396043Y-80999255D01*
X195397728Y-81001034D01*
X195258539Y-81132879D01*
X195238617Y-81162262D01*
X195183832Y-81207419D01*
X195113330Y-81215788D01*
X195049496Y-81184712D01*
X195045234Y-81180645D01*
X194586452Y-80721862D01*
X194584993Y-80723574D01*
X194584990Y-80723577D01*
X194450686Y-80942742D01*
X194352321Y-81180216D01*
X194292317Y-81430153D01*
X194272150Y-81686400D01*
X192468249Y-81686400D01*
X192448082Y-81430153D01*
X192388078Y-81180216D01*
X192289713Y-80942742D01*
X192155407Y-80723574D01*
X192153946Y-80721862D01*
X192153945Y-80721862D01*
X191694854Y-81180954D01*
X191632542Y-81214979D01*
X191561726Y-81209914D01*
X191509726Y-81173428D01*
X191418195Y-81065669D01*
X191418193Y-81065667D01*
X191418191Y-81065665D01*
X191347615Y-81012014D01*
X191305491Y-80954868D01*
X191300950Y-80884017D01*
X191334774Y-80822613D01*
X191794736Y-80362652D01*
X191793024Y-80361191D01*
X191573857Y-80226886D01*
X191336383Y-80128521D01*
X191086446Y-80068517D01*
X190830199Y-80048350D01*
X190573953Y-80068517D01*
X190324016Y-80128521D01*
X190086542Y-80226886D01*
X189867377Y-80361190D01*
X189867374Y-80361193D01*
X189865662Y-80362652D01*
X190322047Y-80819036D01*
X190356072Y-80881349D01*
X190351008Y-80952164D01*
X190316043Y-80999255D01*
X190317728Y-81001034D01*
X190178539Y-81132879D01*
X190158617Y-81162262D01*
X190103832Y-81207419D01*
X190033330Y-81215788D01*
X189969496Y-81184712D01*
X189965234Y-81180645D01*
X189506452Y-80721862D01*
X189504993Y-80723574D01*
X189504990Y-80723577D01*
X189370686Y-80942742D01*
X189272321Y-81180216D01*
X189212317Y-81430153D01*
X189192150Y-81686400D01*
X189212317Y-81942646D01*
X189272321Y-82192583D01*
X189370686Y-82430057D01*
X189504991Y-82649224D01*
X189506452Y-82650935D01*
X189965543Y-82191845D01*
X190027856Y-82157820D01*
X190098671Y-82162884D01*
X190150671Y-82199369D01*
X190242203Y-82307129D01*
X190242205Y-82307130D01*
X190242209Y-82307135D01*
X190312783Y-82360784D01*
X190354907Y-82417929D01*
X190359448Y-82488781D01*
X190325624Y-82550184D01*
X189865662Y-83010145D01*
X189865662Y-83010146D01*
X189867374Y-83011607D01*
X190086542Y-83145913D01*
X190278661Y-83225491D01*
X190333942Y-83270039D01*
X190356363Y-83337403D01*
X190338805Y-83406194D01*
X190286843Y-83454572D01*
X190230443Y-83467900D01*
X187868641Y-83467900D01*
X187850381Y-83466570D01*
X187826411Y-83463059D01*
X187773815Y-83467660D01*
X187768322Y-83467900D01*
X187760018Y-83467900D01*
X187738076Y-83470464D01*
X187727105Y-83471747D01*
X187717932Y-83472549D01*
X187649777Y-83478512D01*
X187642586Y-83479997D01*
X187642572Y-83479932D01*
X187635214Y-83481563D01*
X187635230Y-83481628D01*
X187628089Y-83483320D01*
X187555144Y-83509869D01*
X187481460Y-83534285D01*
X187474813Y-83537386D01*
X187474785Y-83537326D01*
X187468001Y-83540610D01*
X187468031Y-83540669D01*
X187461468Y-83543965D01*
X187396600Y-83586628D01*
X187330547Y-83627371D01*
X187324792Y-83631922D01*
X187324751Y-83631870D01*
X187318904Y-83636633D01*
X187318946Y-83636683D01*
X187313328Y-83641396D01*
X187260036Y-83697882D01*
X186731657Y-84226260D01*
X186669345Y-84260286D01*
X186598530Y-84255221D01*
X186592365Y-84252734D01*
X186566387Y-84241450D01*
X186566378Y-84241447D01*
X186566377Y-84241447D01*
X186360985Y-84183899D01*
X186301793Y-84167314D01*
X186029595Y-84129900D01*
X186029585Y-84129900D01*
X185754815Y-84129900D01*
X185754804Y-84129900D01*
X185482606Y-84167314D01*
X185218019Y-84241448D01*
X184966002Y-84350914D01*
X184731228Y-84493684D01*
X184518086Y-84667088D01*
X184330543Y-84867898D01*
X184172092Y-85092371D01*
X184172088Y-85092377D01*
X184172089Y-85092377D01*
X184045677Y-85336342D01*
X184004245Y-85452920D01*
X183953662Y-85595245D01*
X183953660Y-85595253D01*
X183918799Y-85763014D01*
X183900765Y-85849803D01*
X183897757Y-85864277D01*
X183897756Y-85864283D01*
X183879007Y-86138395D01*
X183879007Y-86138404D01*
X180904892Y-86138404D01*
X180904892Y-86138395D01*
X180886147Y-85864351D01*
X180886146Y-85864345D01*
X180830257Y-85595388D01*
X180830255Y-85595380D01*
X180738261Y-85336534D01*
X180611885Y-85092643D01*
X180611881Y-85092637D01*
X180481657Y-84908150D01*
X179577677Y-85812131D01*
X179515365Y-85846157D01*
X179444550Y-85841092D01*
X179388619Y-85799739D01*
X179379803Y-85788250D01*
X179320125Y-85710475D01*
X179230856Y-85641977D01*
X179188991Y-85584641D01*
X179184769Y-85513770D01*
X179218467Y-85452920D01*
X180121483Y-84549904D01*
X180052880Y-84494091D01*
X179818169Y-84351361D01*
X179566210Y-84241919D01*
X179301690Y-84167804D01*
X179029564Y-84130400D01*
X178754835Y-84130400D01*
X178482709Y-84167804D01*
X178218189Y-84241919D01*
X177966230Y-84351361D01*
X177731525Y-84494087D01*
X177662915Y-84549905D01*
X178565931Y-85452920D01*
X178599956Y-85515233D01*
X178594892Y-85586048D01*
X178553541Y-85641978D01*
X178464275Y-85710475D01*
X178395778Y-85799741D01*
X178338440Y-85841608D01*
X178267569Y-85845829D01*
X178206720Y-85812131D01*
X177302740Y-84908150D01*
X177172517Y-85092636D01*
X177046138Y-85336534D01*
X176954144Y-85595380D01*
X176954142Y-85595388D01*
X176898253Y-85864345D01*
X176898252Y-85864351D01*
X176879508Y-86138395D01*
X176879508Y-86138404D01*
X159779700Y-86138404D01*
X159779700Y-85917924D01*
X159799702Y-85849803D01*
X159812058Y-85833620D01*
X159885240Y-85752344D01*
X159980727Y-85586956D01*
X160039742Y-85405328D01*
X160059704Y-85215400D01*
X160039742Y-85025472D01*
X159980727Y-84843844D01*
X159885240Y-84678456D01*
X159885238Y-84678454D01*
X159885234Y-84678448D01*
X159757455Y-84536535D01*
X159602952Y-84424282D01*
X159428488Y-84346606D01*
X159241687Y-84306900D01*
X159050713Y-84306900D01*
X158863911Y-84346606D01*
X158689447Y-84424282D01*
X158534944Y-84536535D01*
X158407165Y-84678448D01*
X158407158Y-84678458D01*
X158311676Y-84843838D01*
X158311673Y-84843845D01*
X158252657Y-85025472D01*
X158232696Y-85215399D01*
X143457700Y-85215399D01*
X143457700Y-83658924D01*
X143477702Y-83590803D01*
X143490058Y-83574620D01*
X143563240Y-83493344D01*
X143658727Y-83327956D01*
X143717742Y-83146328D01*
X143737704Y-82956400D01*
X143717742Y-82766472D01*
X143658727Y-82584844D01*
X143627949Y-82531535D01*
X143614881Y-82508900D01*
X143598143Y-82439904D01*
X143621364Y-82372813D01*
X143677171Y-82328926D01*
X143724000Y-82319900D01*
X149217106Y-82319900D01*
X149285227Y-82339902D01*
X149306201Y-82356805D01*
X150108577Y-83159181D01*
X150142603Y-83221493D01*
X150144792Y-83235105D01*
X150162157Y-83400327D01*
X150187036Y-83476893D01*
X150221173Y-83581956D01*
X150221174Y-83581957D01*
X150221176Y-83581961D01*
X150316658Y-83747341D01*
X150316665Y-83747351D01*
X150444444Y-83889264D01*
X150488468Y-83921249D01*
X150598948Y-84001518D01*
X150773412Y-84079194D01*
X150960213Y-84118900D01*
X151151187Y-84118900D01*
X151337988Y-84079194D01*
X151512452Y-84001518D01*
X151666953Y-83889266D01*
X151666955Y-83889264D01*
X151794734Y-83747351D01*
X151794735Y-83747349D01*
X151794740Y-83747344D01*
X151859081Y-83635901D01*
X151910464Y-83586909D01*
X151980177Y-83573473D01*
X152046088Y-83599859D01*
X152077319Y-83635902D01*
X152141658Y-83747341D01*
X152141665Y-83747351D01*
X152269444Y-83889264D01*
X152313468Y-83921249D01*
X152423948Y-84001518D01*
X152598412Y-84079194D01*
X152785213Y-84118900D01*
X152976187Y-84118900D01*
X153162988Y-84079194D01*
X153337452Y-84001518D01*
X153491953Y-83889266D01*
X153491955Y-83889264D01*
X153619734Y-83747351D01*
X153619735Y-83747349D01*
X153619740Y-83747344D01*
X153715227Y-83581956D01*
X153715766Y-83580299D01*
X153747276Y-83483320D01*
X153761075Y-83440847D01*
X153791809Y-83390693D01*
X155439701Y-81742802D01*
X155502011Y-81708779D01*
X155528794Y-81705900D01*
X155584687Y-81705900D01*
X155771488Y-81666194D01*
X155941891Y-81590325D01*
X156012257Y-81580892D01*
X156076554Y-81610998D01*
X156082234Y-81616338D01*
X156921953Y-82456057D01*
X156931920Y-82468497D01*
X156932147Y-82468310D01*
X156937199Y-82474417D01*
X156988295Y-82522399D01*
X157009425Y-82543530D01*
X157014968Y-82547830D01*
X157019481Y-82551685D01*
X157033965Y-82565286D01*
X157053879Y-82583986D01*
X157053880Y-82583986D01*
X157053882Y-82583988D01*
X157071629Y-82593744D01*
X157088159Y-82604602D01*
X157104159Y-82617013D01*
X157134159Y-82629995D01*
X157147451Y-82635747D01*
X157152785Y-82638359D01*
X157194140Y-82661095D01*
X157213762Y-82666133D01*
X157232463Y-82672535D01*
X157245014Y-82677967D01*
X157251052Y-82680580D01*
X157251053Y-82680580D01*
X157251055Y-82680581D01*
X157297677Y-82687964D01*
X157303462Y-82689163D01*
X157349170Y-82700900D01*
X157369424Y-82700900D01*
X157389134Y-82702451D01*
X157391341Y-82702800D01*
X157409143Y-82705620D01*
X157443070Y-82702412D01*
X157456117Y-82701180D01*
X157462050Y-82700900D01*
X159931000Y-82700900D01*
X159999121Y-82720902D01*
X160024637Y-82742590D01*
X160027947Y-82746266D01*
X160182448Y-82858518D01*
X160356912Y-82936194D01*
X160543713Y-82975900D01*
X160734687Y-82975900D01*
X160921488Y-82936194D01*
X161095952Y-82858518D01*
X161250453Y-82746266D01*
X161270073Y-82724476D01*
X161378234Y-82604351D01*
X161378235Y-82604349D01*
X161378240Y-82604344D01*
X161473727Y-82438956D01*
X161532742Y-82257328D01*
X161552704Y-82067400D01*
X161532742Y-81877472D01*
X161473727Y-81695844D01*
X161378240Y-81530456D01*
X161378238Y-81530454D01*
X161378234Y-81530448D01*
X161250455Y-81388535D01*
X161095952Y-81276282D01*
X160921488Y-81198606D01*
X160734687Y-81158900D01*
X160543713Y-81158900D01*
X160356911Y-81198606D01*
X160182447Y-81276282D01*
X160027947Y-81388533D01*
X160024637Y-81392210D01*
X159964191Y-81429450D01*
X159931000Y-81433900D01*
X157743795Y-81433900D01*
X157675674Y-81413898D01*
X157654700Y-81396995D01*
X157178700Y-80920995D01*
X157144674Y-80858683D01*
X157149739Y-80787868D01*
X157192286Y-80731032D01*
X157258806Y-80706221D01*
X157267795Y-80705900D01*
X163761343Y-80705900D01*
X163777184Y-80707649D01*
X163777212Y-80707356D01*
X163785098Y-80708100D01*
X163785105Y-80708102D01*
X163855154Y-80705900D01*
X163885052Y-80705900D01*
X163892014Y-80705019D01*
X163897915Y-80704554D01*
X163945085Y-80703073D01*
X163964543Y-80697419D01*
X163983890Y-80693413D01*
X164003993Y-80690874D01*
X164047875Y-80673499D01*
X164053470Y-80671583D01*
X164082012Y-80663291D01*
X164098787Y-80658419D01*
X164098791Y-80658417D01*
X164116222Y-80648108D01*
X164133976Y-80639409D01*
X164152813Y-80631952D01*
X164190982Y-80604218D01*
X164195940Y-80600962D01*
X164236558Y-80576942D01*
X164250881Y-80562618D01*
X164265920Y-80549774D01*
X164282303Y-80537872D01*
X164312384Y-80501508D01*
X164316362Y-80497136D01*
X165149096Y-79664404D01*
X165211409Y-79630379D01*
X165238192Y-79627500D01*
X166768747Y-79627500D01*
X166784588Y-79629249D01*
X166784616Y-79628956D01*
X166792502Y-79629700D01*
X166792509Y-79629702D01*
X166862558Y-79627500D01*
X166892456Y-79627500D01*
X166892462Y-79627499D01*
X166892878Y-79627473D01*
X166892997Y-79627500D01*
X166896419Y-79627500D01*
X166896419Y-79628274D01*
X166962121Y-79643153D01*
X167011896Y-79693779D01*
X167026398Y-79763279D01*
X167001024Y-79829586D01*
X166989895Y-79842319D01*
X166222036Y-80610178D01*
X166209601Y-80620142D01*
X166209789Y-80620369D01*
X166203680Y-80625422D01*
X166155715Y-80676500D01*
X166134566Y-80697648D01*
X166130260Y-80703198D01*
X166126414Y-80707700D01*
X166094117Y-80742095D01*
X166094110Y-80742105D01*
X166090775Y-80748171D01*
X166040424Y-80798224D01*
X165971005Y-80813110D01*
X165917369Y-80796578D01*
X165912358Y-80793685D01*
X165912353Y-80793682D01*
X165912352Y-80793682D01*
X165737888Y-80716006D01*
X165551087Y-80676300D01*
X165360113Y-80676300D01*
X165173311Y-80716006D01*
X164998847Y-80793682D01*
X164844344Y-80905935D01*
X164716565Y-81047848D01*
X164716558Y-81047858D01*
X164621997Y-81211643D01*
X164621073Y-81213244D01*
X164618311Y-81221746D01*
X164562057Y-81394872D01*
X164542096Y-81584799D01*
X164562057Y-81774727D01*
X164570119Y-81799537D01*
X164621073Y-81956356D01*
X164621076Y-81956361D01*
X164716558Y-82121741D01*
X164716565Y-82121751D01*
X164844344Y-82263664D01*
X164896971Y-82301900D01*
X164998848Y-82375918D01*
X165173312Y-82453594D01*
X165236369Y-82466997D01*
X165298843Y-82500725D01*
X165299268Y-82501149D01*
X165816795Y-83018676D01*
X165850821Y-83080988D01*
X165853700Y-83107771D01*
X165853700Y-83752041D01*
X165852370Y-83770301D01*
X165850468Y-83783289D01*
X165848859Y-83794271D01*
X165853314Y-83845194D01*
X165853460Y-83846854D01*
X165853700Y-83852348D01*
X165853700Y-83860664D01*
X165857547Y-83893576D01*
X165864312Y-83970901D01*
X165865796Y-83978088D01*
X165865731Y-83978101D01*
X165867365Y-83985471D01*
X165867429Y-83985457D01*
X165869121Y-83992598D01*
X165889035Y-84047308D01*
X165895673Y-84065547D01*
X165897650Y-84071513D01*
X165920085Y-84139218D01*
X165923187Y-84145870D01*
X165923126Y-84145898D01*
X165926411Y-84152684D01*
X165926470Y-84152655D01*
X165929760Y-84159206D01*
X165929764Y-84159213D01*
X165929765Y-84159214D01*
X165947487Y-84186159D01*
X165972433Y-84224087D01*
X166013167Y-84290130D01*
X166017722Y-84295890D01*
X166017668Y-84295932D01*
X166022428Y-84301774D01*
X166022479Y-84301732D01*
X166027193Y-84307350D01*
X166027198Y-84307355D01*
X166027199Y-84307356D01*
X166083682Y-84360645D01*
X166694216Y-84971179D01*
X166706183Y-84985027D01*
X166720649Y-85004458D01*
X166741321Y-85021804D01*
X166761093Y-85038394D01*
X166765139Y-85042102D01*
X166771018Y-85047981D01*
X166797013Y-85068535D01*
X166856478Y-85118432D01*
X166856484Y-85118435D01*
X166862613Y-85122467D01*
X166862576Y-85122522D01*
X166868929Y-85126569D01*
X166868965Y-85126513D01*
X166875210Y-85130365D01*
X166875213Y-85130367D01*
X166945570Y-85163175D01*
X167014930Y-85198009D01*
X167014931Y-85198009D01*
X167014935Y-85198011D01*
X167021831Y-85200521D01*
X167021807Y-85200585D01*
X167028923Y-85203059D01*
X167028945Y-85202995D01*
X167035909Y-85205303D01*
X167111967Y-85221007D01*
X167138557Y-85227309D01*
X167187462Y-85238900D01*
X167187468Y-85238900D01*
X167194751Y-85239752D01*
X167194743Y-85239819D01*
X167202240Y-85240585D01*
X167202246Y-85240519D01*
X167209553Y-85241157D01*
X167209560Y-85241159D01*
X167287198Y-85238900D01*
X173766159Y-85238900D01*
X173784419Y-85240230D01*
X173789315Y-85240947D01*
X173808389Y-85243741D01*
X173841746Y-85240822D01*
X173860985Y-85239140D01*
X173866478Y-85238900D01*
X173874776Y-85238900D01*
X173874780Y-85238900D01*
X173901112Y-85235821D01*
X173907696Y-85235052D01*
X173914460Y-85234460D01*
X173985026Y-85228287D01*
X173985032Y-85228284D01*
X173992218Y-85226802D01*
X173992231Y-85226868D01*
X173999587Y-85225236D01*
X173999572Y-85225171D01*
X174006704Y-85223479D01*
X174006713Y-85223479D01*
X174079665Y-85196926D01*
X174153338Y-85172514D01*
X174153340Y-85172512D01*
X174159989Y-85169412D01*
X174160018Y-85169474D01*
X174166803Y-85166189D01*
X174166773Y-85166129D01*
X174173328Y-85162836D01*
X174173332Y-85162835D01*
X174238205Y-85120166D01*
X174304251Y-85079430D01*
X174304260Y-85079420D01*
X174310008Y-85074877D01*
X174310050Y-85074931D01*
X174315889Y-85070175D01*
X174315846Y-85070123D01*
X174321465Y-85065406D01*
X174321474Y-85065401D01*
X174374763Y-85008917D01*
X186485543Y-72898136D01*
X186547853Y-72864112D01*
X186618668Y-72869177D01*
X186624822Y-72871659D01*
X186650823Y-72882953D01*
X186915404Y-72957085D01*
X186978810Y-72965800D01*
X187187604Y-72994499D01*
X187187615Y-72994500D01*
X187462385Y-72994500D01*
X187462395Y-72994499D01*
X187591945Y-72976692D01*
X187734596Y-72957085D01*
X187999177Y-72882953D01*
X188251200Y-72773484D01*
X188485969Y-72630718D01*
X188699111Y-72457314D01*
X188886657Y-72256502D01*
X189045111Y-72032023D01*
X189171523Y-71788058D01*
X189263538Y-71529153D01*
X189319442Y-71260130D01*
X189319600Y-71257816D01*
X189338193Y-70986004D01*
X189338193Y-70985995D01*
X189319443Y-70711883D01*
X189319442Y-70711877D01*
X189319442Y-70711870D01*
X189263538Y-70442847D01*
X189171523Y-70183942D01*
X189045111Y-69939977D01*
X189041793Y-69935277D01*
X188985830Y-69855995D01*
X188886657Y-69715498D01*
X188701058Y-69516771D01*
X188699113Y-69514688D01*
X188698649Y-69514310D01*
X188485969Y-69341282D01*
X188251200Y-69198516D01*
X188251201Y-69198516D01*
X188251197Y-69198514D01*
X187999180Y-69089048D01*
X187999178Y-69089047D01*
X187999177Y-69089047D01*
X187822877Y-69039650D01*
X187734593Y-69014914D01*
X187462395Y-68977500D01*
X187462385Y-68977500D01*
X187187615Y-68977500D01*
X187187604Y-68977500D01*
X186915406Y-69014914D01*
X186650819Y-69089048D01*
X186398802Y-69198514D01*
X186248698Y-69289795D01*
X186176526Y-69333684D01*
X186164028Y-69341284D01*
X185950886Y-69514688D01*
X185763343Y-69715498D01*
X185604892Y-69939971D01*
X185478477Y-70183941D01*
X185386462Y-70442845D01*
X185386460Y-70442853D01*
X185358962Y-70575182D01*
X185331283Y-70708384D01*
X185330557Y-70711877D01*
X185330556Y-70711883D01*
X185311807Y-70985995D01*
X185311807Y-70986004D01*
X185330556Y-71260116D01*
X185330557Y-71260122D01*
X185330558Y-71260130D01*
X185358630Y-71395217D01*
X185386460Y-71529146D01*
X185386464Y-71529159D01*
X185444421Y-71692237D01*
X185448386Y-71763123D01*
X185414791Y-71823526D01*
X173553324Y-83684995D01*
X173491012Y-83719021D01*
X173464229Y-83721900D01*
X170683999Y-83721900D01*
X170615878Y-83701898D01*
X170569385Y-83648242D01*
X170559281Y-83577968D01*
X170564166Y-83556962D01*
X170565542Y-83552728D01*
X170585504Y-83362800D01*
X170569060Y-83206349D01*
X170581832Y-83136513D01*
X170605272Y-83104089D01*
X178062178Y-75647183D01*
X178076017Y-75635223D01*
X178095458Y-75620751D01*
X178129401Y-75580297D01*
X178133100Y-75576261D01*
X178138981Y-75570382D01*
X178148947Y-75557776D01*
X178159535Y-75544387D01*
X178181881Y-75517754D01*
X178209432Y-75484922D01*
X178209433Y-75484918D01*
X178209436Y-75484916D01*
X178213470Y-75478784D01*
X178213527Y-75478821D01*
X178217571Y-75472473D01*
X178217512Y-75472437D01*
X178221361Y-75466194D01*
X178221367Y-75466187D01*
X178254175Y-75395829D01*
X178289009Y-75326470D01*
X178289010Y-75326464D01*
X178291519Y-75319573D01*
X178291584Y-75319596D01*
X178294058Y-75312479D01*
X178293994Y-75312458D01*
X178296303Y-75305490D01*
X178312007Y-75229432D01*
X178326019Y-75170311D01*
X178329900Y-75153938D01*
X178329900Y-75153931D01*
X178330752Y-75146650D01*
X178330819Y-75146657D01*
X178331585Y-75139159D01*
X178331519Y-75139154D01*
X178332157Y-75131847D01*
X178332159Y-75131840D01*
X178329900Y-75054202D01*
X178329900Y-73081369D01*
X178349902Y-73013248D01*
X178403558Y-72966755D01*
X178405636Y-72965829D01*
X178497600Y-72925884D01*
X178732369Y-72783118D01*
X178945511Y-72609714D01*
X179133057Y-72408902D01*
X179291511Y-72184423D01*
X179417923Y-71940458D01*
X179509938Y-71681553D01*
X179565842Y-71412530D01*
X179572554Y-71314400D01*
X179584593Y-71138404D01*
X179584593Y-71138395D01*
X179573649Y-70978404D01*
X180439007Y-70978404D01*
X180457756Y-71252516D01*
X180457757Y-71252522D01*
X180457758Y-71252530D01*
X180477539Y-71347719D01*
X180513660Y-71521546D01*
X180513662Y-71521554D01*
X180599516Y-71763123D01*
X180605677Y-71780458D01*
X180731928Y-72024113D01*
X180732092Y-72024428D01*
X180788462Y-72104286D01*
X180890543Y-72248902D01*
X181078089Y-72449714D01*
X181291231Y-72623118D01*
X181526000Y-72765884D01*
X181778023Y-72875353D01*
X182042604Y-72949485D01*
X182137704Y-72962556D01*
X182314804Y-72986899D01*
X182314815Y-72986900D01*
X182589585Y-72986900D01*
X182589595Y-72986899D01*
X182743097Y-72965800D01*
X182861796Y-72949485D01*
X183126377Y-72875353D01*
X183378400Y-72765884D01*
X183613169Y-72623118D01*
X183826311Y-72449714D01*
X184013857Y-72248902D01*
X184172311Y-72024423D01*
X184298723Y-71780458D01*
X184390738Y-71521553D01*
X184446642Y-71252530D01*
X184449169Y-71215582D01*
X184465393Y-70978404D01*
X184465393Y-70978395D01*
X184446643Y-70704283D01*
X184446642Y-70704277D01*
X184446642Y-70704270D01*
X184390738Y-70435247D01*
X184298723Y-70176342D01*
X184172311Y-69932377D01*
X184013857Y-69707898D01*
X183826311Y-69507086D01*
X183613169Y-69333682D01*
X183395055Y-69201044D01*
X183378397Y-69190914D01*
X183126380Y-69081448D01*
X183126378Y-69081447D01*
X183126377Y-69081447D01*
X182965716Y-69036432D01*
X182861793Y-69007314D01*
X182589595Y-68969900D01*
X182589585Y-68969900D01*
X182314815Y-68969900D01*
X182314804Y-68969900D01*
X182042606Y-69007314D01*
X181778019Y-69081448D01*
X181526002Y-69190914D01*
X181291228Y-69333684D01*
X181078086Y-69507088D01*
X180890543Y-69707898D01*
X180732092Y-69932371D01*
X180605677Y-70176341D01*
X180513662Y-70435245D01*
X180513660Y-70435253D01*
X180480025Y-70597114D01*
X180466111Y-70664076D01*
X180457757Y-70704277D01*
X180457756Y-70704283D01*
X180439007Y-70978395D01*
X180439007Y-70978404D01*
X179573649Y-70978404D01*
X179565843Y-70864283D01*
X179565842Y-70864277D01*
X179565842Y-70864270D01*
X179509938Y-70595247D01*
X179417923Y-70336342D01*
X179291511Y-70092377D01*
X179284468Y-70082400D01*
X179234624Y-70011786D01*
X179133057Y-69867898D01*
X178945511Y-69667086D01*
X178732369Y-69493682D01*
X178497600Y-69350916D01*
X178497601Y-69350916D01*
X178497597Y-69350914D01*
X178245580Y-69241448D01*
X178245578Y-69241447D01*
X178245577Y-69241447D01*
X177984851Y-69168395D01*
X177980993Y-69167314D01*
X177708795Y-69129900D01*
X177708785Y-69129900D01*
X177434015Y-69129900D01*
X177434004Y-69129900D01*
X177161806Y-69167314D01*
X176897219Y-69241448D01*
X176645202Y-69350914D01*
X176410428Y-69493684D01*
X176197286Y-69667088D01*
X176009743Y-69867898D01*
X175851292Y-70092371D01*
X175724877Y-70336341D01*
X175632862Y-70595245D01*
X175632860Y-70595253D01*
X175607987Y-70714952D01*
X175579854Y-70850338D01*
X175576957Y-70864277D01*
X175576956Y-70864283D01*
X175558207Y-71138395D01*
X175558207Y-71138404D01*
X175576956Y-71412516D01*
X175576957Y-71412522D01*
X175576958Y-71412530D01*
X175604267Y-71543945D01*
X175632860Y-71681546D01*
X175632862Y-71681554D01*
X175663315Y-71767240D01*
X175724877Y-71940458D01*
X175845442Y-72173139D01*
X175851292Y-72184428D01*
X175882167Y-72228168D01*
X176009743Y-72408902D01*
X176197289Y-72609714D01*
X176410431Y-72783118D01*
X176645200Y-72925884D01*
X176737099Y-72965801D01*
X176791610Y-73011285D01*
X176812878Y-73079021D01*
X176812900Y-73081369D01*
X176812899Y-74698910D01*
X176792897Y-74767031D01*
X176775994Y-74788005D01*
X169181225Y-82382774D01*
X169167376Y-82394744D01*
X169147943Y-82409212D01*
X169114007Y-82449653D01*
X169110300Y-82453699D01*
X169104421Y-82459579D01*
X169104412Y-82459589D01*
X169083863Y-82485578D01*
X169035234Y-82543534D01*
X169033965Y-82545046D01*
X169029935Y-82551173D01*
X169029880Y-82551137D01*
X169025825Y-82557502D01*
X169025882Y-82557537D01*
X169022028Y-82563783D01*
X168989220Y-82634140D01*
X168954391Y-82703494D01*
X168951882Y-82710389D01*
X168951820Y-82710366D01*
X168949343Y-82717492D01*
X168949404Y-82717513D01*
X168947097Y-82724472D01*
X168931392Y-82800533D01*
X168924374Y-82830141D01*
X168910891Y-82864079D01*
X168837472Y-82991244D01*
X168837470Y-82991249D01*
X168778457Y-83172871D01*
X168758496Y-83362800D01*
X168778457Y-83552725D01*
X168779834Y-83556962D01*
X168781862Y-83627930D01*
X168745200Y-83688728D01*
X168681488Y-83720054D01*
X168660001Y-83721900D01*
X167642489Y-83721900D01*
X167574368Y-83701898D01*
X167553398Y-83684999D01*
X167407604Y-83539205D01*
X167373579Y-83476893D01*
X167370700Y-83450110D01*
X167370700Y-82805835D01*
X167372031Y-82787572D01*
X167375540Y-82763616D01*
X167375541Y-82763611D01*
X167372117Y-82724472D01*
X167370940Y-82711013D01*
X167370700Y-82705520D01*
X167370700Y-82697224D01*
X167369640Y-82688158D01*
X167367155Y-82666900D01*
X167366852Y-82664304D01*
X167364213Y-82634140D01*
X167360087Y-82586973D01*
X167360086Y-82586970D01*
X167360086Y-82586968D01*
X167358603Y-82579787D01*
X167358669Y-82579773D01*
X167357039Y-82572419D01*
X167356973Y-82572435D01*
X167355279Y-82565293D01*
X167355279Y-82565287D01*
X167328730Y-82492344D01*
X167304314Y-82418661D01*
X167304310Y-82418655D01*
X167301214Y-82412015D01*
X167301276Y-82411986D01*
X167297991Y-82405200D01*
X167297931Y-82405231D01*
X167294637Y-82398672D01*
X167294635Y-82398670D01*
X167294635Y-82398668D01*
X167267101Y-82356805D01*
X167251967Y-82333794D01*
X167245043Y-82322568D01*
X167226306Y-82254089D01*
X167247566Y-82186350D01*
X167258642Y-82172118D01*
X167349740Y-82070944D01*
X167445227Y-81905556D01*
X167504242Y-81723928D01*
X167524204Y-81534000D01*
X167504242Y-81344072D01*
X167473096Y-81248218D01*
X167471069Y-81177254D01*
X167503833Y-81120190D01*
X168114030Y-80509994D01*
X168176343Y-80475969D01*
X168203126Y-80473090D01*
X168259018Y-80473090D01*
X168445819Y-80433384D01*
X168620283Y-80355708D01*
X168774784Y-80243456D01*
X168774786Y-80243454D01*
X168902565Y-80101541D01*
X168902566Y-80101539D01*
X168902571Y-80101534D01*
X168998058Y-79936146D01*
X169057073Y-79754518D01*
X169077035Y-79564590D01*
X169057073Y-79374662D01*
X168998058Y-79193034D01*
X168918074Y-79054499D01*
X168901337Y-78985505D01*
X168924557Y-78918413D01*
X168980364Y-78874526D01*
X169027194Y-78865500D01*
X170360800Y-78865500D01*
X170428921Y-78885502D01*
X170454437Y-78907190D01*
X170457747Y-78910866D01*
X170612248Y-79023118D01*
X170786712Y-79100794D01*
X170973513Y-79140500D01*
X171164487Y-79140500D01*
X171351288Y-79100794D01*
X171525752Y-79023118D01*
X171680253Y-78910866D01*
X171683563Y-78907190D01*
X171808034Y-78768951D01*
X171808035Y-78768949D01*
X171808040Y-78768944D01*
X171903527Y-78603556D01*
X171962542Y-78421928D01*
X171982504Y-78232000D01*
X171962542Y-78042072D01*
X171903527Y-77860444D01*
X171808040Y-77695056D01*
X171808038Y-77695054D01*
X171808034Y-77695048D01*
X171680255Y-77553135D01*
X171525752Y-77440882D01*
X171351288Y-77363206D01*
X171164487Y-77323500D01*
X170973513Y-77323500D01*
X170786711Y-77363206D01*
X170612247Y-77440882D01*
X170457747Y-77553133D01*
X170454437Y-77556810D01*
X170393991Y-77594050D01*
X170360800Y-77598500D01*
X169157699Y-77598500D01*
X169089578Y-77578498D01*
X169068604Y-77561595D01*
X167724749Y-76217739D01*
X167714784Y-76205301D01*
X167714557Y-76205490D01*
X167709506Y-76199384D01*
X167709505Y-76199382D01*
X167658425Y-76151415D01*
X167656696Y-76149686D01*
X167637282Y-76130271D01*
X167637277Y-76130266D01*
X167631730Y-76125963D01*
X167627222Y-76122112D01*
X167592830Y-76089817D01*
X167592824Y-76089813D01*
X167575068Y-76080051D01*
X167558552Y-76069202D01*
X167542546Y-76056786D01*
X167511794Y-76043478D01*
X167499245Y-76038048D01*
X167493913Y-76035436D01*
X167452566Y-76012705D01*
X167432941Y-76007666D01*
X167414241Y-76001264D01*
X167408429Y-75998749D01*
X167395650Y-75993219D01*
X167395648Y-75993218D01*
X167395647Y-75993218D01*
X167349047Y-75985837D01*
X167343234Y-75984633D01*
X167297535Y-75972900D01*
X167277281Y-75972900D01*
X167257571Y-75971349D01*
X167237562Y-75968180D01*
X167237561Y-75968180D01*
X167190588Y-75972620D01*
X167184655Y-75972900D01*
X165877453Y-75972900D01*
X165809332Y-75952898D01*
X165762839Y-75899242D01*
X165752735Y-75828968D01*
X165782229Y-75764388D01*
X165808214Y-75741629D01*
X165837805Y-75722166D01*
X165845615Y-75717349D01*
X165903851Y-75681430D01*
X165903860Y-75681420D01*
X165909608Y-75676877D01*
X165909650Y-75676931D01*
X165915489Y-75672175D01*
X165915446Y-75672123D01*
X165921065Y-75667406D01*
X165921074Y-75667401D01*
X165974363Y-75610917D01*
X166981739Y-74603541D01*
X167993476Y-73591805D01*
X168055788Y-73557779D01*
X168082571Y-73554900D01*
X169205613Y-73554900D01*
X169273734Y-73574902D01*
X169279671Y-73578962D01*
X169291448Y-73587518D01*
X169465912Y-73665194D01*
X169652713Y-73704900D01*
X169843687Y-73704900D01*
X170030488Y-73665194D01*
X170204952Y-73587518D01*
X170359453Y-73475266D01*
X170372270Y-73461031D01*
X170487234Y-73333351D01*
X170487235Y-73333349D01*
X170487240Y-73333344D01*
X170582727Y-73167956D01*
X170641742Y-72986328D01*
X170661704Y-72796400D01*
X170641742Y-72606472D01*
X170582727Y-72424844D01*
X170487240Y-72259456D01*
X170487238Y-72259454D01*
X170487234Y-72259448D01*
X170359455Y-72117535D01*
X170204952Y-72005282D01*
X170030488Y-71927606D01*
X169843687Y-71887900D01*
X169652713Y-71887900D01*
X169465911Y-71927606D01*
X169291445Y-72005283D01*
X169279676Y-72013835D01*
X169212809Y-72037694D01*
X169205613Y-72037900D01*
X167780641Y-72037900D01*
X167762381Y-72036570D01*
X167738411Y-72033059D01*
X167685815Y-72037660D01*
X167680322Y-72037900D01*
X167672018Y-72037900D01*
X167650076Y-72040464D01*
X167639105Y-72041747D01*
X167629932Y-72042549D01*
X167561777Y-72048512D01*
X167554586Y-72049997D01*
X167554572Y-72049932D01*
X167547214Y-72051563D01*
X167547230Y-72051628D01*
X167540089Y-72053320D01*
X167467144Y-72079869D01*
X167393460Y-72104285D01*
X167386813Y-72107386D01*
X167386785Y-72107326D01*
X167380001Y-72110610D01*
X167380031Y-72110669D01*
X167373468Y-72113965D01*
X167308600Y-72156628D01*
X167242547Y-72197371D01*
X167236792Y-72201922D01*
X167236751Y-72201870D01*
X167230904Y-72206633D01*
X167230946Y-72206683D01*
X167225328Y-72211396D01*
X167172036Y-72267882D01*
X165152924Y-74286995D01*
X165090612Y-74321020D01*
X165063829Y-74323900D01*
X155812787Y-74323900D01*
X155744666Y-74303898D01*
X155738724Y-74299835D01*
X155726954Y-74291283D01*
X155632467Y-74249215D01*
X155552488Y-74213606D01*
X155365687Y-74173900D01*
X155174713Y-74173900D01*
X154987911Y-74213606D01*
X154813447Y-74291282D01*
X154658944Y-74403535D01*
X154531165Y-74545448D01*
X154531158Y-74545458D01*
X154435676Y-74710838D01*
X154435672Y-74710845D01*
X154380812Y-74879685D01*
X154350074Y-74929843D01*
X150452424Y-78827495D01*
X150390112Y-78861520D01*
X150363329Y-78864400D01*
X144077787Y-78864400D01*
X144009666Y-78844398D01*
X144003724Y-78840335D01*
X143991954Y-78831783D01*
X143920343Y-78799900D01*
X143817488Y-78754106D01*
X143630687Y-78714400D01*
X143439713Y-78714400D01*
X143252911Y-78754106D01*
X143078445Y-78831783D01*
X143066676Y-78840335D01*
X142999809Y-78864194D01*
X142992613Y-78864400D01*
X140455105Y-78864400D01*
X140436845Y-78863070D01*
X140412875Y-78859559D01*
X140360279Y-78864160D01*
X140354786Y-78864400D01*
X140346482Y-78864400D01*
X140324540Y-78866964D01*
X140313569Y-78868247D01*
X140306163Y-78868895D01*
X140236241Y-78875012D01*
X140229050Y-78876497D01*
X140229036Y-78876432D01*
X140221672Y-78878065D01*
X140221688Y-78878129D01*
X140214555Y-78879819D01*
X140170839Y-78895729D01*
X140141602Y-78906371D01*
X140139131Y-78907190D01*
X140067927Y-78930785D01*
X140061279Y-78933886D01*
X140061250Y-78933825D01*
X140054456Y-78937114D01*
X140054486Y-78937173D01*
X140047933Y-78940463D01*
X139983058Y-78983132D01*
X139917015Y-79023868D01*
X139911252Y-79028425D01*
X139911211Y-79028373D01*
X139905368Y-79033133D01*
X139905410Y-79033183D01*
X139899792Y-79037896D01*
X139876251Y-79062848D01*
X139846500Y-79094382D01*
X138064738Y-80876145D01*
X136310888Y-82629995D01*
X136248576Y-82664020D01*
X136221793Y-82666900D01*
X120008571Y-82666900D01*
X119940450Y-82646898D01*
X119919476Y-82629995D01*
X118944605Y-81655124D01*
X118910579Y-81592812D01*
X118907700Y-81566029D01*
X118907700Y-81120188D01*
X118907700Y-80633762D01*
X118907699Y-80633750D01*
X118901190Y-80573203D01*
X118901188Y-80573195D01*
X118856415Y-80453157D01*
X118850089Y-80436196D01*
X118850087Y-80436193D01*
X118850087Y-80436192D01*
X118791172Y-80357491D01*
X118766361Y-80290971D01*
X118781453Y-80221596D01*
X118791173Y-80206472D01*
X118849643Y-80128366D01*
X118849644Y-80128364D01*
X118900694Y-79991493D01*
X118907199Y-79930997D01*
X118907200Y-79930985D01*
X118907200Y-79386400D01*
X115891200Y-79386400D01*
X115891200Y-79930997D01*
X115897705Y-79991493D01*
X115948755Y-80128364D01*
X115948755Y-80128365D01*
X116007227Y-80206473D01*
X116032038Y-80272993D01*
X116016947Y-80342367D01*
X116007228Y-80357490D01*
X115948312Y-80436193D01*
X115948310Y-80436197D01*
X115897211Y-80573195D01*
X115897209Y-80573203D01*
X115890700Y-80633750D01*
X115890699Y-80633767D01*
X115890699Y-81097029D01*
X115870697Y-81165150D01*
X115817041Y-81211643D01*
X115746767Y-81221746D01*
X115682186Y-81192253D01*
X115675618Y-81186137D01*
X113367881Y-78878400D01*
X115891200Y-78878400D01*
X117145200Y-78878400D01*
X117145200Y-77874400D01*
X117653200Y-77874400D01*
X117653200Y-78878400D01*
X118907200Y-78878400D01*
X118907200Y-78333814D01*
X118907199Y-78333802D01*
X118900694Y-78273306D01*
X118849644Y-78136435D01*
X118849644Y-78136434D01*
X118762104Y-78019495D01*
X118645165Y-77931955D01*
X118508293Y-77880905D01*
X118447797Y-77874400D01*
X117653200Y-77874400D01*
X117145200Y-77874400D01*
X116350602Y-77874400D01*
X116290106Y-77880905D01*
X116153235Y-77931955D01*
X116153234Y-77931955D01*
X116036295Y-78019495D01*
X115948755Y-78136434D01*
X115948755Y-78136435D01*
X115897705Y-78273306D01*
X115891200Y-78333802D01*
X115891200Y-78878400D01*
X113367881Y-78878400D01*
X112163604Y-77674123D01*
X112129578Y-77611811D01*
X112126700Y-77585037D01*
X112126700Y-76352400D01*
X140386696Y-76352400D01*
X140406657Y-76542327D01*
X140434950Y-76629400D01*
X140465673Y-76723956D01*
X140465676Y-76723961D01*
X140561158Y-76889341D01*
X140561165Y-76889351D01*
X140688944Y-77031264D01*
X140688947Y-77031266D01*
X140843448Y-77143518D01*
X141017912Y-77221194D01*
X141204713Y-77260900D01*
X141395687Y-77260900D01*
X141582488Y-77221194D01*
X141756952Y-77143518D01*
X141911453Y-77031266D01*
X141914762Y-77027590D01*
X141975209Y-76990350D01*
X142008400Y-76985900D01*
X146150106Y-76985900D01*
X146218227Y-77005902D01*
X146239201Y-77022805D01*
X146703077Y-77486681D01*
X146737103Y-77548993D01*
X146739292Y-77562605D01*
X146756657Y-77727827D01*
X146786726Y-77820370D01*
X146815673Y-77909456D01*
X146815676Y-77909461D01*
X146911158Y-78074841D01*
X146911165Y-78074851D01*
X147038944Y-78216764D01*
X147038947Y-78216766D01*
X147193448Y-78329018D01*
X147367912Y-78406694D01*
X147554713Y-78446400D01*
X147745687Y-78446400D01*
X147932488Y-78406694D01*
X148106952Y-78329018D01*
X148261453Y-78216766D01*
X148261631Y-78216568D01*
X148389234Y-78074851D01*
X148389235Y-78074849D01*
X148389240Y-78074844D01*
X148484727Y-77909456D01*
X148543742Y-77727828D01*
X148563704Y-77537900D01*
X148543742Y-77347972D01*
X148484727Y-77166344D01*
X148389240Y-77000956D01*
X148389238Y-77000954D01*
X148389234Y-77000948D01*
X148261455Y-76859035D01*
X148106952Y-76746782D01*
X147932488Y-76669106D01*
X147745687Y-76629400D01*
X147689795Y-76629400D01*
X147621674Y-76609398D01*
X147600700Y-76592495D01*
X146971944Y-75963739D01*
X146961979Y-75951301D01*
X146961752Y-75951490D01*
X146956701Y-75945384D01*
X146956700Y-75945382D01*
X146905621Y-75897416D01*
X146884477Y-75876271D01*
X146884472Y-75876266D01*
X146878925Y-75871963D01*
X146874417Y-75868112D01*
X146840025Y-75835817D01*
X146840019Y-75835813D01*
X146822263Y-75826051D01*
X146805747Y-75815202D01*
X146789741Y-75802786D01*
X146758989Y-75789478D01*
X146746440Y-75784048D01*
X146741108Y-75781436D01*
X146699761Y-75758705D01*
X146680136Y-75753666D01*
X146661436Y-75747264D01*
X146648414Y-75741629D01*
X146642845Y-75739219D01*
X146642843Y-75739218D01*
X146642842Y-75739218D01*
X146596242Y-75731837D01*
X146590429Y-75730633D01*
X146544730Y-75718900D01*
X146524476Y-75718900D01*
X146504766Y-75717349D01*
X146484757Y-75714180D01*
X146484756Y-75714180D01*
X146437783Y-75718620D01*
X146431850Y-75718900D01*
X142008400Y-75718900D01*
X141940279Y-75698898D01*
X141914763Y-75677210D01*
X141911452Y-75673533D01*
X141756952Y-75561282D01*
X141582488Y-75483606D01*
X141395687Y-75443900D01*
X141204713Y-75443900D01*
X141017911Y-75483606D01*
X140843447Y-75561282D01*
X140688944Y-75673535D01*
X140561165Y-75815448D01*
X140561158Y-75815458D01*
X140470421Y-75972620D01*
X140465673Y-75980844D01*
X140461652Y-75993219D01*
X140406657Y-76162472D01*
X140386696Y-76352400D01*
X112126700Y-76352400D01*
X112126700Y-74048900D01*
X112146702Y-73980779D01*
X112200358Y-73934286D01*
X112252700Y-73922900D01*
X112816832Y-73922900D01*
X112816838Y-73922900D01*
X112816845Y-73922899D01*
X112816849Y-73922899D01*
X112877396Y-73916390D01*
X112877399Y-73916389D01*
X112877401Y-73916389D01*
X113014404Y-73865289D01*
X113036454Y-73848783D01*
X113131461Y-73777661D01*
X113219087Y-73660607D01*
X113219087Y-73660606D01*
X113219089Y-73660604D01*
X113263160Y-73542445D01*
X113270188Y-73523604D01*
X113270190Y-73523596D01*
X113276699Y-73463049D01*
X113276700Y-73463032D01*
X113276700Y-72014400D01*
X114455326Y-72014400D01*
X114474796Y-72286633D01*
X114532808Y-72553310D01*
X114532808Y-72553311D01*
X114628188Y-72809036D01*
X114758985Y-73048573D01*
X114851384Y-73172004D01*
X115608930Y-72414457D01*
X115671243Y-72380432D01*
X115742058Y-72385496D01*
X115792337Y-72419997D01*
X115900605Y-72542206D01*
X115953074Y-72578422D01*
X115997775Y-72633580D01*
X116005558Y-72704149D01*
X115973954Y-72767723D01*
X115970594Y-72771214D01*
X115210593Y-73531214D01*
X115334022Y-73623611D01*
X115573564Y-73754411D01*
X115573563Y-73754411D01*
X115829288Y-73849791D01*
X116095967Y-73907803D01*
X116095965Y-73907803D01*
X116368199Y-73927273D01*
X116640433Y-73907803D01*
X116907110Y-73849791D01*
X116907111Y-73849791D01*
X117162836Y-73754411D01*
X117402377Y-73623612D01*
X117525805Y-73531214D01*
X117349791Y-73355200D01*
X138743244Y-73355200D01*
X138761449Y-73574902D01*
X138761837Y-73579575D01*
X138817102Y-73797812D01*
X138817103Y-73797813D01*
X138817104Y-73797816D01*
X138907398Y-74003667D01*
X138907541Y-74003993D01*
X139030675Y-74192465D01*
X139030679Y-74192470D01*
X139183162Y-74358108D01*
X139225762Y-74391265D01*
X139360824Y-74496389D01*
X139558826Y-74603542D01*
X139558827Y-74603542D01*
X139558828Y-74603543D01*
X139670627Y-74641923D01*
X139771765Y-74676644D01*
X139993831Y-74713700D01*
X139993835Y-74713700D01*
X140218965Y-74713700D01*
X140218969Y-74713700D01*
X140441035Y-74676644D01*
X140653974Y-74603542D01*
X140851976Y-74496389D01*
X141029640Y-74358106D01*
X141182122Y-74192468D01*
X141270918Y-74056554D01*
X141324920Y-74010468D01*
X141395268Y-74000892D01*
X141459625Y-74030869D01*
X141481880Y-74056553D01*
X141483535Y-74059085D01*
X141570675Y-74192465D01*
X141570679Y-74192470D01*
X141723162Y-74358108D01*
X141765762Y-74391265D01*
X141900824Y-74496389D01*
X142098826Y-74603542D01*
X142098827Y-74603542D01*
X142098828Y-74603543D01*
X142210627Y-74641923D01*
X142311765Y-74676644D01*
X142533831Y-74713700D01*
X142533835Y-74713700D01*
X142758965Y-74713700D01*
X142758969Y-74713700D01*
X142981035Y-74676644D01*
X143193974Y-74603542D01*
X143391976Y-74496389D01*
X143569640Y-74358106D01*
X143722122Y-74192468D01*
X143810918Y-74056554D01*
X143864920Y-74010468D01*
X143935268Y-74000892D01*
X143999625Y-74030869D01*
X144021880Y-74056553D01*
X144023535Y-74059085D01*
X144110675Y-74192465D01*
X144110679Y-74192470D01*
X144263162Y-74358108D01*
X144305762Y-74391265D01*
X144440824Y-74496389D01*
X144638826Y-74603542D01*
X144638827Y-74603542D01*
X144638828Y-74603543D01*
X144750627Y-74641923D01*
X144851765Y-74676644D01*
X145073831Y-74713700D01*
X145073835Y-74713700D01*
X145298965Y-74713700D01*
X145298969Y-74713700D01*
X145521035Y-74676644D01*
X145733974Y-74603542D01*
X145931976Y-74496389D01*
X146109640Y-74358106D01*
X146262122Y-74192468D01*
X146385260Y-74003991D01*
X146475696Y-73797816D01*
X146530964Y-73579568D01*
X146549556Y-73355200D01*
X146530964Y-73130832D01*
X146517844Y-73079021D01*
X146475697Y-72912587D01*
X146475696Y-72912586D01*
X146475696Y-72912584D01*
X146385260Y-72706409D01*
X146373825Y-72688907D01*
X146262124Y-72517934D01*
X146262119Y-72517929D01*
X146199319Y-72449711D01*
X146118924Y-72362379D01*
X146087503Y-72298714D01*
X146095490Y-72228168D01*
X146140348Y-72173139D01*
X146167583Y-72158989D01*
X146282604Y-72116089D01*
X146285442Y-72113965D01*
X146399661Y-72028461D01*
X146487287Y-71911407D01*
X146487287Y-71911406D01*
X146487289Y-71911404D01*
X146538389Y-71774401D01*
X146539470Y-71764354D01*
X146544899Y-71713849D01*
X146544900Y-71713832D01*
X146544900Y-69916567D01*
X146544899Y-69916550D01*
X146538390Y-69856003D01*
X146538388Y-69855995D01*
X146496117Y-69742664D01*
X146487289Y-69718996D01*
X146487288Y-69718994D01*
X146487287Y-69718992D01*
X146399661Y-69601938D01*
X146282607Y-69514312D01*
X146282602Y-69514310D01*
X146145604Y-69463211D01*
X146145596Y-69463209D01*
X146085049Y-69456700D01*
X146085038Y-69456700D01*
X144287762Y-69456700D01*
X144287750Y-69456700D01*
X144227203Y-69463209D01*
X144227195Y-69463211D01*
X144090197Y-69514310D01*
X144090192Y-69514312D01*
X143973138Y-69601938D01*
X143885512Y-69718992D01*
X143885510Y-69718997D01*
X143834411Y-69855995D01*
X143834409Y-69856003D01*
X143827900Y-69916550D01*
X143827900Y-69940718D01*
X143807898Y-70008839D01*
X143790995Y-70029814D01*
X143259316Y-70561492D01*
X143197004Y-70595517D01*
X143126188Y-70590452D01*
X143069353Y-70547905D01*
X143064236Y-70540536D01*
X143028161Y-70484402D01*
X142919500Y-70390248D01*
X142919498Y-70390247D01*
X142912689Y-70384347D01*
X142914712Y-70382011D01*
X142878312Y-70340009D01*
X142868202Y-70269736D01*
X142897690Y-70205152D01*
X142903826Y-70198561D01*
X143412088Y-69690299D01*
X143391706Y-69674435D01*
X143391699Y-69674430D01*
X143193771Y-69567318D01*
X143193769Y-69567316D01*
X142980916Y-69494244D01*
X142980909Y-69494242D01*
X142758923Y-69457200D01*
X142533877Y-69457200D01*
X142311890Y-69494242D01*
X142311883Y-69494244D01*
X142099030Y-69567316D01*
X142099028Y-69567318D01*
X141901100Y-69674430D01*
X141880710Y-69690299D01*
X141880710Y-69690300D01*
X142388972Y-70198561D01*
X142422997Y-70260874D01*
X142417933Y-70331689D01*
X142379254Y-70383357D01*
X142380111Y-70384347D01*
X142375564Y-70388286D01*
X142375386Y-70388525D01*
X142374898Y-70388863D01*
X142264638Y-70484402D01*
X142228575Y-70540518D01*
X142174919Y-70587011D01*
X142104645Y-70597114D01*
X142040064Y-70567621D01*
X142033482Y-70561492D01*
X141523322Y-70051332D01*
X141523320Y-70051332D01*
X141482180Y-70114302D01*
X141428176Y-70160390D01*
X141357828Y-70169965D01*
X141293471Y-70139987D01*
X141271222Y-70114311D01*
X141182122Y-69977932D01*
X141029640Y-69812294D01*
X141029639Y-69812293D01*
X141029637Y-69812291D01*
X140940180Y-69742664D01*
X140851976Y-69674011D01*
X140653974Y-69566858D01*
X140653972Y-69566857D01*
X140653971Y-69566856D01*
X140441039Y-69493757D01*
X140441030Y-69493755D01*
X140396876Y-69486387D01*
X140218969Y-69456700D01*
X139993831Y-69456700D01*
X139845611Y-69481433D01*
X139771769Y-69493755D01*
X139771760Y-69493757D01*
X139558828Y-69566856D01*
X139558826Y-69566858D01*
X139360826Y-69674010D01*
X139360824Y-69674011D01*
X139183162Y-69812291D01*
X139030679Y-69977929D01*
X139030675Y-69977934D01*
X138907541Y-70166406D01*
X138817103Y-70372586D01*
X138817102Y-70372587D01*
X138761837Y-70590824D01*
X138761836Y-70590830D01*
X138761836Y-70590832D01*
X138752898Y-70698693D01*
X138743610Y-70810789D01*
X138743244Y-70815200D01*
X138761315Y-71033284D01*
X138761837Y-71039575D01*
X138817102Y-71257812D01*
X138817103Y-71257813D01*
X138817104Y-71257816D01*
X138907540Y-71463991D01*
X138907541Y-71463993D01*
X139030675Y-71652465D01*
X139030679Y-71652470D01*
X139183162Y-71818108D01*
X139207544Y-71837085D01*
X139360824Y-71956389D01*
X139394080Y-71974386D01*
X139444471Y-72024400D01*
X139459823Y-72093716D01*
X139435262Y-72160329D01*
X139394080Y-72196013D01*
X139360826Y-72214010D01*
X139360824Y-72214011D01*
X139183162Y-72352291D01*
X139030679Y-72517929D01*
X139030675Y-72517934D01*
X138907541Y-72706406D01*
X138817103Y-72912586D01*
X138817102Y-72912587D01*
X138761837Y-73130824D01*
X138761836Y-73130830D01*
X138761836Y-73130832D01*
X138743244Y-73355200D01*
X117349791Y-73355200D01*
X116765805Y-72771214D01*
X116731779Y-72708902D01*
X116736844Y-72638087D01*
X116779391Y-72581251D01*
X116783288Y-72578448D01*
X116835795Y-72542206D01*
X116944060Y-72419999D01*
X117004204Y-72382274D01*
X117075196Y-72383054D01*
X117127467Y-72414458D01*
X117885014Y-73172005D01*
X117977412Y-73048577D01*
X118108211Y-72809036D01*
X118203591Y-72553311D01*
X118203591Y-72553310D01*
X118261603Y-72286633D01*
X118281073Y-72014400D01*
X118261603Y-71742166D01*
X118203591Y-71475489D01*
X118203591Y-71475488D01*
X118108211Y-71219763D01*
X117977411Y-70980222D01*
X117885014Y-70856794D01*
X117885014Y-70856793D01*
X117127467Y-71614341D01*
X117065155Y-71648367D01*
X116994340Y-71643302D01*
X116944060Y-71608800D01*
X116917718Y-71579066D01*
X116835795Y-71486594D01*
X116829979Y-71482579D01*
X116783323Y-71450375D01*
X116738623Y-71395217D01*
X116730840Y-71324648D01*
X116762445Y-71261074D01*
X116765804Y-71257583D01*
X117525804Y-70497584D01*
X117402373Y-70405185D01*
X117162835Y-70274388D01*
X117162836Y-70274388D01*
X116907111Y-70179008D01*
X116640432Y-70120996D01*
X116640434Y-70120996D01*
X116368200Y-70101526D01*
X116095966Y-70120996D01*
X115829289Y-70179008D01*
X115829288Y-70179008D01*
X115573563Y-70274388D01*
X115334023Y-70405187D01*
X115210594Y-70497583D01*
X115210593Y-70497584D01*
X115970594Y-71257585D01*
X116004620Y-71319897D01*
X115999555Y-71390712D01*
X115957008Y-71447548D01*
X115953076Y-71450376D01*
X115900605Y-71486593D01*
X115792339Y-71608800D01*
X115732194Y-71646525D01*
X115661202Y-71645745D01*
X115608932Y-71614341D01*
X114851384Y-70856793D01*
X114851383Y-70856794D01*
X114758987Y-70980223D01*
X114628188Y-71219763D01*
X114532808Y-71475488D01*
X114532808Y-71475489D01*
X114474796Y-71742166D01*
X114455326Y-72014400D01*
X113276700Y-72014400D01*
X113276700Y-70565767D01*
X113276699Y-70565750D01*
X113270190Y-70505203D01*
X113270188Y-70505195D01*
X113224744Y-70383357D01*
X113219089Y-70368196D01*
X113219088Y-70368194D01*
X113219087Y-70368192D01*
X113131461Y-70251138D01*
X113014407Y-70163512D01*
X113014402Y-70163510D01*
X112877404Y-70112411D01*
X112877396Y-70112409D01*
X112816849Y-70105900D01*
X112816838Y-70105900D01*
X109919562Y-70105900D01*
X109919550Y-70105900D01*
X109859003Y-70112409D01*
X109858995Y-70112411D01*
X109721997Y-70163510D01*
X109721992Y-70163512D01*
X109604938Y-70251138D01*
X109517312Y-70368192D01*
X109517310Y-70368197D01*
X109466211Y-70505195D01*
X109466209Y-70505203D01*
X109459700Y-70565750D01*
X109459700Y-73463049D01*
X109466209Y-73523596D01*
X109466211Y-73523604D01*
X109517310Y-73660602D01*
X109517312Y-73660607D01*
X109604938Y-73777661D01*
X109721992Y-73865287D01*
X109721994Y-73865288D01*
X109721996Y-73865289D01*
X109772336Y-73884065D01*
X109858995Y-73916388D01*
X109859003Y-73916390D01*
X109919550Y-73922899D01*
X109919555Y-73922899D01*
X109919562Y-73922900D01*
X110483700Y-73922900D01*
X110551821Y-73942902D01*
X110598314Y-73996558D01*
X110609700Y-74048900D01*
X110609700Y-77886959D01*
X110608370Y-77905219D01*
X110604859Y-77929186D01*
X110604859Y-77929194D01*
X110609460Y-77981772D01*
X110609700Y-77987266D01*
X110609700Y-77995582D01*
X110613547Y-78028494D01*
X110620312Y-78105819D01*
X110621796Y-78113006D01*
X110621731Y-78113019D01*
X110623365Y-78120389D01*
X110623429Y-78120375D01*
X110625121Y-78127516D01*
X110651673Y-78200464D01*
X110676085Y-78274136D01*
X110679187Y-78280788D01*
X110679126Y-78280816D01*
X110682411Y-78287602D01*
X110682470Y-78287573D01*
X110685760Y-78294124D01*
X110685764Y-78294131D01*
X110685765Y-78294132D01*
X110716261Y-78340498D01*
X110728433Y-78359005D01*
X110769167Y-78425048D01*
X110773722Y-78430808D01*
X110773668Y-78430850D01*
X110778428Y-78436692D01*
X110778479Y-78436650D01*
X110783193Y-78442268D01*
X110783198Y-78442273D01*
X110783199Y-78442274D01*
X110839682Y-78495563D01*
X111152925Y-78808806D01*
X111186949Y-78871117D01*
X111181885Y-78941932D01*
X111139338Y-78998768D01*
X111072818Y-79023579D01*
X111063829Y-79023900D01*
X110050550Y-79023900D01*
X109990003Y-79030409D01*
X109989995Y-79030411D01*
X109852997Y-79081510D01*
X109852992Y-79081512D01*
X109735938Y-79169138D01*
X109648312Y-79286192D01*
X109648310Y-79286197D01*
X109597211Y-79423195D01*
X109597209Y-79423203D01*
X109590700Y-79483750D01*
X109590700Y-81816028D01*
X109570698Y-81884149D01*
X109553795Y-81905123D01*
X107955425Y-83503492D01*
X107941576Y-83515462D01*
X107922142Y-83529931D01*
X107918488Y-83534286D01*
X107888207Y-83570371D01*
X107884500Y-83574417D01*
X107878621Y-83580297D01*
X107878612Y-83580307D01*
X107864014Y-83598770D01*
X107858063Y-83606296D01*
X107828612Y-83641396D01*
X107808165Y-83665764D01*
X107804135Y-83671891D01*
X107804080Y-83671855D01*
X107800025Y-83678220D01*
X107800082Y-83678255D01*
X107796228Y-83684501D01*
X107763420Y-83754858D01*
X107728591Y-83824212D01*
X107726082Y-83831107D01*
X107726020Y-83831084D01*
X107723543Y-83838210D01*
X107723604Y-83838231D01*
X107721297Y-83845190D01*
X107712196Y-83889266D01*
X107705592Y-83921250D01*
X107688684Y-83992595D01*
X107687700Y-83996745D01*
X107686848Y-84004034D01*
X107686781Y-84004026D01*
X107686014Y-84011526D01*
X107686081Y-84011532D01*
X107685441Y-84018842D01*
X107687700Y-84096479D01*
X107687700Y-89915959D01*
X107686370Y-89934219D01*
X107682859Y-89958186D01*
X107682859Y-89958194D01*
X99140891Y-89958194D01*
X99136700Y-73050301D01*
X99136700Y-73050298D01*
X99134303Y-73038195D01*
X99136733Y-73037713D01*
X99131206Y-73006123D01*
X99137234Y-72870670D01*
X99143772Y-72732406D01*
X99614111Y-72732406D01*
X99634450Y-73120514D01*
X99695251Y-73504395D01*
X99795844Y-73879814D01*
X99935119Y-74242639D01*
X99935123Y-74242647D01*
X100111565Y-74588935D01*
X100111569Y-74588941D01*
X100323242Y-74914891D01*
X100323254Y-74914908D01*
X100530076Y-75170311D01*
X101197460Y-74502927D01*
X101259773Y-74468902D01*
X101330588Y-74473966D01*
X101387424Y-74516513D01*
X101391321Y-74522021D01*
X101449903Y-74609696D01*
X101537576Y-74668277D01*
X101583104Y-74722753D01*
X101591953Y-74793196D01*
X101561312Y-74857241D01*
X101556671Y-74862137D01*
X100889286Y-75529521D01*
X100889287Y-75529522D01*
X101144691Y-75736345D01*
X101144708Y-75736357D01*
X101470658Y-75948030D01*
X101470664Y-75948034D01*
X101816952Y-76124476D01*
X101816960Y-76124480D01*
X102179785Y-76263755D01*
X102555204Y-76364348D01*
X102939085Y-76425149D01*
X103327194Y-76445489D01*
X103327206Y-76445489D01*
X103715314Y-76425149D01*
X104099195Y-76364348D01*
X104474614Y-76263755D01*
X104837439Y-76124480D01*
X104837447Y-76124476D01*
X105183735Y-75948034D01*
X105183741Y-75948030D01*
X105509701Y-75736350D01*
X105765111Y-75529521D01*
X105097728Y-74862139D01*
X105063703Y-74799826D01*
X105068767Y-74729011D01*
X105111314Y-74672175D01*
X105116822Y-74668277D01*
X105121799Y-74664951D01*
X105121801Y-74664951D01*
X105204496Y-74609696D01*
X105259751Y-74527001D01*
X105259751Y-74526999D01*
X105263077Y-74522022D01*
X105317554Y-74476494D01*
X105387997Y-74467645D01*
X105452041Y-74498286D01*
X105456939Y-74502928D01*
X106124321Y-75170311D01*
X106331150Y-74914901D01*
X106542830Y-74588941D01*
X106542834Y-74588935D01*
X106719276Y-74242647D01*
X106719280Y-74242639D01*
X106858555Y-73879814D01*
X106959148Y-73504395D01*
X107019949Y-73120514D01*
X107040289Y-72732406D01*
X107040289Y-72732393D01*
X107019949Y-72344285D01*
X106959148Y-71960404D01*
X106858555Y-71584985D01*
X106719280Y-71222160D01*
X106719276Y-71222152D01*
X106542828Y-70875855D01*
X106331157Y-70549908D01*
X106331145Y-70549891D01*
X106124322Y-70294487D01*
X106124321Y-70294486D01*
X105456937Y-70961871D01*
X105394625Y-70995896D01*
X105323809Y-70990831D01*
X105266974Y-70948284D01*
X105263077Y-70942776D01*
X105204496Y-70855103D01*
X105116821Y-70796521D01*
X105071293Y-70742045D01*
X105062444Y-70671602D01*
X105093085Y-70607557D01*
X105097727Y-70602660D01*
X105765111Y-69935276D01*
X105509708Y-69728454D01*
X105509691Y-69728442D01*
X105183741Y-69516769D01*
X105183735Y-69516765D01*
X104837447Y-69340323D01*
X104837439Y-69340319D01*
X104474614Y-69201044D01*
X104099195Y-69100451D01*
X103715314Y-69039650D01*
X103327206Y-69019311D01*
X103327194Y-69019311D01*
X102939085Y-69039650D01*
X102555204Y-69100451D01*
X102179785Y-69201044D01*
X101816960Y-69340319D01*
X101816952Y-69340323D01*
X101470655Y-69516771D01*
X101144702Y-69728447D01*
X100889287Y-69935277D01*
X101556671Y-70602660D01*
X101590696Y-70664973D01*
X101585632Y-70735788D01*
X101543085Y-70792624D01*
X101537578Y-70796521D01*
X101449903Y-70855103D01*
X101391321Y-70942778D01*
X101336844Y-70988306D01*
X101266400Y-70997153D01*
X101202356Y-70966512D01*
X101197460Y-70961871D01*
X100530077Y-70294487D01*
X100323247Y-70549902D01*
X100111571Y-70875855D01*
X99935123Y-71222152D01*
X99935119Y-71222160D01*
X99795844Y-71584985D01*
X99695251Y-71960404D01*
X99634450Y-72344285D01*
X99614111Y-72732393D01*
X99614111Y-72732406D01*
X99143772Y-72732406D01*
X99147084Y-72662359D01*
X99147569Y-72657006D01*
X99173497Y-72463826D01*
X99201246Y-72269387D01*
X99202162Y-72264409D01*
X99245707Y-72071814D01*
X99291164Y-71883007D01*
X99292431Y-71878494D01*
X99353249Y-71689479D01*
X99416083Y-71506490D01*
X99417596Y-71502538D01*
X99495255Y-71318982D01*
X99574928Y-71143065D01*
X99576654Y-71139559D01*
X99670521Y-70963233D01*
X99766364Y-70795749D01*
X99768228Y-70792702D01*
X99877577Y-70625118D01*
X99988803Y-70467416D01*
X99990711Y-70464857D01*
X100114707Y-70307404D01*
X100240358Y-70160854D01*
X100242267Y-70158730D01*
X100378909Y-70013815D01*
X100380915Y-70011786D01*
X100519840Y-69877739D01*
X100669730Y-69744721D01*
X100672174Y-69742664D01*
X100823060Y-69622378D01*
X100969155Y-69514310D01*
X100983926Y-69503384D01*
X100986927Y-69501296D01*
X101148431Y-69395823D01*
X101318942Y-69291764D01*
X101322415Y-69289795D01*
X101493267Y-69199972D01*
X101671941Y-69111670D01*
X101675851Y-69109903D01*
X101854801Y-69036446D01*
X102039919Y-68964633D01*
X102044378Y-68963094D01*
X102230213Y-68906621D01*
X102419898Y-68851848D01*
X102424767Y-68850653D01*
X102595883Y-68815875D01*
X102617344Y-68811514D01*
X102676987Y-68799909D01*
X102808572Y-68774306D01*
X102813935Y-68773501D01*
X102874532Y-68767053D01*
X103021305Y-68751434D01*
X103188869Y-68734074D01*
X103197016Y-68733231D01*
X103203433Y-68732895D01*
X191919877Y-68623276D01*
X191988019Y-68643193D01*
G37*
%TD.AperFunction*%
%TA.AperFunction,Conductor*%
G36*
X194939978Y-123444856D02*
G01*
X195166839Y-123671717D01*
X195200865Y-123734029D01*
X195195800Y-123804844D01*
X195153253Y-123861680D01*
X195147746Y-123865577D01*
X195060071Y-123924159D01*
X195001489Y-124011834D01*
X194947012Y-124057362D01*
X194876568Y-124066209D01*
X194812524Y-124035568D01*
X194807629Y-124030927D01*
X194580768Y-123804066D01*
X194546742Y-123741754D01*
X194551807Y-123670939D01*
X194588030Y-123619162D01*
X194678126Y-123542214D01*
X194755074Y-123452119D01*
X194814521Y-123413312D01*
X194885516Y-123412804D01*
X194939978Y-123444856D01*
G37*
%TD.AperFunction*%
%TA.AperFunction,Conductor*%
G36*
X192279660Y-123415894D02*
G01*
X192331437Y-123452117D01*
X192393317Y-123524570D01*
X192408386Y-123542214D01*
X192498478Y-123619160D01*
X192537287Y-123678611D01*
X192537793Y-123749606D01*
X192505742Y-123804066D01*
X192278881Y-124030927D01*
X192216569Y-124064953D01*
X192145754Y-124059888D01*
X192088918Y-124017341D01*
X192085020Y-124011833D01*
X192081695Y-124006857D01*
X192081695Y-124006855D01*
X192026440Y-123924160D01*
X192026438Y-123924159D01*
X192026438Y-123924158D01*
X191938765Y-123865577D01*
X191893237Y-123811101D01*
X191884388Y-123740658D01*
X191915029Y-123676613D01*
X191919671Y-123671717D01*
X192146533Y-123444855D01*
X192208845Y-123410829D01*
X192279660Y-123415894D01*
G37*
%TD.AperFunction*%
%TA.AperFunction,Conductor*%
G36*
X104723922Y-123363912D02*
G01*
X104950783Y-123590773D01*
X104984809Y-123653085D01*
X104979744Y-123723900D01*
X104937197Y-123780736D01*
X104931690Y-123784633D01*
X104844015Y-123843215D01*
X104785433Y-123930890D01*
X104730956Y-123976418D01*
X104660512Y-123985265D01*
X104596468Y-123954624D01*
X104591573Y-123949983D01*
X104364712Y-123723122D01*
X104330686Y-123660810D01*
X104335751Y-123589995D01*
X104371974Y-123538218D01*
X104462070Y-123461270D01*
X104539018Y-123371175D01*
X104598465Y-123332368D01*
X104669460Y-123331860D01*
X104723922Y-123363912D01*
G37*
%TD.AperFunction*%
%TA.AperFunction,Conductor*%
G36*
X102063604Y-123334950D02*
G01*
X102115381Y-123371173D01*
X102178311Y-123444856D01*
X102192330Y-123461270D01*
X102282422Y-123538216D01*
X102321231Y-123597667D01*
X102321737Y-123668662D01*
X102289686Y-123723122D01*
X102062825Y-123949983D01*
X102000513Y-123984009D01*
X101929698Y-123978944D01*
X101872862Y-123936397D01*
X101868964Y-123930889D01*
X101865639Y-123925913D01*
X101865639Y-123925911D01*
X101810384Y-123843216D01*
X101810382Y-123843215D01*
X101810382Y-123843214D01*
X101722709Y-123784633D01*
X101677181Y-123730157D01*
X101668332Y-123659714D01*
X101698973Y-123595669D01*
X101703615Y-123590773D01*
X101930477Y-123363911D01*
X101992789Y-123329885D01*
X102063604Y-123334950D01*
G37*
%TD.AperFunction*%
%TA.AperFunction,Conductor*%
G36*
X194940756Y-120754798D02*
G01*
X194997592Y-120797345D01*
X195001489Y-120802853D01*
X195060070Y-120890526D01*
X195060071Y-120890526D01*
X195060072Y-120890528D01*
X195142767Y-120945783D01*
X195142769Y-120945783D01*
X195147745Y-120949108D01*
X195193273Y-121003585D01*
X195202122Y-121074028D01*
X195171481Y-121138072D01*
X195166839Y-121142969D01*
X194939978Y-121369830D01*
X194877666Y-121403856D01*
X194806851Y-121398791D01*
X194755072Y-121362566D01*
X194678126Y-121272474D01*
X194678125Y-121272474D01*
X194588030Y-121195525D01*
X194549223Y-121136077D01*
X194548715Y-121065083D01*
X194580767Y-121010621D01*
X194807629Y-120783759D01*
X194869941Y-120749733D01*
X194940756Y-120754798D01*
G37*
%TD.AperFunction*%
%TA.AperFunction,Conductor*%
G36*
X192273985Y-120779118D02*
G01*
X192278882Y-120783760D01*
X192505743Y-121010621D01*
X192539769Y-121072933D01*
X192534704Y-121143748D01*
X192498479Y-121195527D01*
X192408386Y-121272474D01*
X192331439Y-121362567D01*
X192271988Y-121401376D01*
X192200993Y-121401882D01*
X192146533Y-121369831D01*
X191919672Y-121142970D01*
X191885646Y-121080658D01*
X191890711Y-121009843D01*
X191933258Y-120953007D01*
X191938766Y-120949109D01*
X191943743Y-120945783D01*
X191943745Y-120945783D01*
X192026440Y-120890528D01*
X192081695Y-120807833D01*
X192081695Y-120807831D01*
X192085021Y-120802854D01*
X192139498Y-120757326D01*
X192209941Y-120748477D01*
X192273985Y-120779118D01*
G37*
%TD.AperFunction*%
%TA.AperFunction,Conductor*%
G36*
X104724700Y-120673854D02*
G01*
X104781536Y-120716401D01*
X104785433Y-120721909D01*
X104844014Y-120809582D01*
X104844015Y-120809582D01*
X104844016Y-120809584D01*
X104926711Y-120864839D01*
X104926713Y-120864839D01*
X104931689Y-120868164D01*
X104977217Y-120922641D01*
X104986066Y-120993084D01*
X104955425Y-121057128D01*
X104950783Y-121062025D01*
X104723922Y-121288886D01*
X104661610Y-121322912D01*
X104590795Y-121317847D01*
X104539016Y-121281622D01*
X104462070Y-121191530D01*
X104462069Y-121191530D01*
X104371974Y-121114581D01*
X104333167Y-121055133D01*
X104332659Y-120984139D01*
X104364711Y-120929677D01*
X104591573Y-120702815D01*
X104653885Y-120668789D01*
X104724700Y-120673854D01*
G37*
%TD.AperFunction*%
%TA.AperFunction,Conductor*%
G36*
X102057929Y-120698174D02*
G01*
X102062826Y-120702816D01*
X102289687Y-120929677D01*
X102323713Y-120991989D01*
X102318648Y-121062804D01*
X102282423Y-121114583D01*
X102192330Y-121191530D01*
X102115383Y-121281623D01*
X102055932Y-121320432D01*
X101984937Y-121320938D01*
X101930477Y-121288887D01*
X101703616Y-121062026D01*
X101669590Y-120999714D01*
X101674655Y-120928899D01*
X101717202Y-120872063D01*
X101722710Y-120868165D01*
X101727687Y-120864839D01*
X101727689Y-120864839D01*
X101810384Y-120809584D01*
X101865639Y-120726889D01*
X101865639Y-120726887D01*
X101868965Y-120721910D01*
X101923442Y-120676382D01*
X101993885Y-120667533D01*
X102057929Y-120698174D01*
G37*
%TD.AperFunction*%
%TA.AperFunction,Conductor*%
G36*
X194939978Y-73262712D02*
G01*
X195166839Y-73489573D01*
X195200865Y-73551885D01*
X195195800Y-73622700D01*
X195153253Y-73679536D01*
X195147746Y-73683433D01*
X195060071Y-73742015D01*
X195001489Y-73829690D01*
X194947012Y-73875218D01*
X194876568Y-73884065D01*
X194812524Y-73853424D01*
X194807629Y-73848783D01*
X194580768Y-73621922D01*
X194546742Y-73559610D01*
X194551807Y-73488795D01*
X194588030Y-73437018D01*
X194678126Y-73360070D01*
X194755074Y-73269975D01*
X194814521Y-73231168D01*
X194885516Y-73230660D01*
X194939978Y-73262712D01*
G37*
%TD.AperFunction*%
%TA.AperFunction,Conductor*%
G36*
X192279660Y-73233750D02*
G01*
X192331437Y-73269973D01*
X192385560Y-73333344D01*
X192408386Y-73360070D01*
X192498478Y-73437016D01*
X192537287Y-73496467D01*
X192537793Y-73567462D01*
X192505742Y-73621922D01*
X192278881Y-73848783D01*
X192216569Y-73882809D01*
X192145754Y-73877744D01*
X192088918Y-73835197D01*
X192085020Y-73829689D01*
X192081695Y-73824713D01*
X192081695Y-73824711D01*
X192026440Y-73742016D01*
X192026438Y-73742015D01*
X192026438Y-73742014D01*
X191938765Y-73683433D01*
X191893237Y-73628957D01*
X191884388Y-73558514D01*
X191915029Y-73494469D01*
X191919671Y-73489573D01*
X192146533Y-73262711D01*
X192208845Y-73228685D01*
X192279660Y-73233750D01*
G37*
%TD.AperFunction*%
%TA.AperFunction,Conductor*%
G36*
X192273985Y-70596974D02*
G01*
X192278882Y-70601616D01*
X192505743Y-70828477D01*
X192539769Y-70890789D01*
X192534704Y-70961604D01*
X192498479Y-71013383D01*
X192408386Y-71090330D01*
X192331439Y-71180423D01*
X192271988Y-71219232D01*
X192200993Y-71219738D01*
X192146533Y-71187687D01*
X191919672Y-70960826D01*
X191885646Y-70898514D01*
X191890711Y-70827699D01*
X191933258Y-70770863D01*
X191938766Y-70766965D01*
X191943743Y-70763639D01*
X191943745Y-70763639D01*
X192026440Y-70708384D01*
X192081695Y-70625689D01*
X192081695Y-70625687D01*
X192085021Y-70620710D01*
X192139498Y-70575182D01*
X192209941Y-70566333D01*
X192273985Y-70596974D01*
G37*
%TD.AperFunction*%
%TD*%
M02*
