M48
; DRILL file {KiCad (6.0.0)} date Tue Jun 28 23:59:46 2022
; FORMAT={-:-/ absolute / inch / decimal}
; #@! TF.CreationDate,2022-06-28T23:59:46+02:00
; #@! TF.GenerationSoftware,Kicad,Pcbnew,(6.0.0)
; #@! TF.FileFunction,Plated,1,4,PTH
FMAT,2
INCH
; #@! TA.AperFunction,Plated,PTH,ViaDrill
T1C0.0157
; #@! TA.AperFunction,Plated,PTH,ComponentDrill
T2C0.0197
; #@! TA.AperFunction,Plated,PTH,ComponentDrill
T3C0.0236
; #@! TA.AperFunction,Plated,PTH,ComponentDrill
T4C0.0315
; #@! TA.AperFunction,Plated,PTH,ComponentDrill
T5C0.0394
; #@! TA.AperFunction,Plated,PTH,ComponentDrill
T6C0.0472
; #@! TA.AperFunction,Plated,PTH,ComponentDrill
T7C0.0551
; #@! TA.AperFunction,Plated,PTH,ComponentDrill
T8C0.0591
; #@! TA.AperFunction,Plated,PTH,ComponentDrill
T9C0.0669
; #@! TA.AperFunction,Plated,PTH,ComponentDrill
T10C0.1260
%
G90
G05
T1
X3.2Y-2.4
X3.2Y-2.55
X3.35Y-2.3
X3.5Y-2.05
X3.5Y-2.3
X3.55Y-4.25
X3.614Y-2.464
X3.6161Y-3.6575
X3.65Y-2.05
X3.7Y-4.25
X3.7087Y-2.7854
X3.74Y-2.07
X3.772Y-2.29
X3.79Y-3.73
X3.85Y-4.25
X3.86Y-2.07
X3.87Y-3.84
X3.875Y-3.6
X3.9Y-2.9
X3.93Y-3.45
X3.9385Y-3.3681
X3.95Y-3.75
X4.0Y-2.9
X4.0Y-4.25
X4.05Y-3.71
X4.0526Y-3.4816
X4.063Y-2.348
X4.1Y-2.9
X4.1Y-3.35
X4.1314Y-3.1122
X4.18Y-3.48
X4.2Y-3.35
X4.233Y-3.656
X4.25Y-3.75
X4.3Y-2.9
X4.3179Y-3.6037
X4.34Y-2.6
X4.3765Y-3.8543
X4.4Y-2.9
X4.4Y-3.75
X4.42Y-2.38
X4.45Y-3.41
X4.495Y-3.308
X4.51Y-2.62
X4.521Y-3.655
X4.55Y-3.75
X4.56Y-2.51
X4.6Y-2.8
X4.66Y-2.7
X4.7106Y-2.9237
X4.7525Y-3.2382
X4.7602Y-2.5128
X4.78Y-3.95
X4.799Y-3.549
X4.8Y-2.8
X4.8445Y-3.3878
X4.856Y-3.718
X4.916Y-3.545
X4.92Y-3.95
X4.954Y-3.5197
X4.963Y-3.655
X4.989Y-3.574
X5.0Y-2.5
X5.0Y-2.7
X5.0Y-3.1
X5.0Y-3.3
X5.001Y-3.525
X5.019Y-3.4575
X5.0295Y-2.9272
X5.06Y-3.95
X5.087Y-3.253
X5.088Y-3.384
X5.09Y-4.06
X5.147Y-3.491
X5.148Y-3.578
X5.156Y-3.622
X5.188Y-3.232
X5.3Y-2.4
X5.3Y-2.7
X5.3Y-3.0
X5.3Y-3.2
X5.3Y-3.6
X5.3Y-3.8
X5.3Y-4.0
X5.3Y-4.2
X5.3Y-4.4
X5.302Y-3.466
T2
X3.1969Y-2.1093
X3.1969Y-4.5807
X3.2245Y-2.0424
X3.2245Y-2.1761
X3.2245Y-4.5139
X3.2245Y-4.6475
X3.2913Y-2.0148
X3.2913Y-2.2037
X3.2913Y-4.4862
X3.2913Y-4.6752
X3.3582Y-2.0424
X3.3582Y-2.1761
X3.3582Y-4.5139
X3.3582Y-4.6475
X3.3858Y-2.1093
X3.3858Y-4.5807
X5.1102Y-2.1093
X5.1102Y-4.5807
X5.1379Y-2.0424
X5.1379Y-2.1761
X5.1379Y-4.5139
X5.1379Y-4.6475
X5.2047Y-2.0148
X5.2047Y-2.2037
X5.2047Y-4.4862
X5.2047Y-4.6752
X5.2715Y-2.0424
X5.2715Y-2.1761
X5.2715Y-4.5139
X5.2715Y-4.6475
X5.2992Y-2.1093
X5.2992Y-4.5807
T3
X3.6606Y-2.936
X3.7087Y-2.5551
X3.7394Y-2.936
X3.7874Y-2.5551
X4.0138Y-2.5591
X4.0925Y-2.5591
T4
X4.2675Y-2.252
X4.4675Y-2.252
T5
X4.0719Y-2.0492
X4.1719Y-2.0492
X4.2719Y-2.0492
X4.3719Y-2.0492
X4.4719Y-2.0492
T6
X4.1712Y-4.2618
X4.1712Y-4.5374
X4.7605Y-4.2209
X4.768Y-4.402
X4.7727Y-4.5882
T7
X3.2752Y-3.0256
X3.2752Y-3.2224
T8
X3.314Y-4.142
X3.316Y-3.572
X3.8858Y-4.5039
X4.8957Y-2.1319
T9
X3.214Y-4.042
X3.214Y-4.242
X3.216Y-3.472
X3.216Y-3.672
X3.414Y-4.042
X3.414Y-4.242
X3.416Y-3.472
X3.416Y-3.672
X3.7858Y-4.4039
X3.7858Y-4.6039
X3.9858Y-4.4039
X3.9858Y-4.6039
X4.7957Y-2.0319
X4.7957Y-2.2319
X4.9957Y-2.0319
X4.9957Y-2.2319
T10
X3.2913Y-2.1093
X3.2913Y-4.5807
X5.2047Y-2.1093
X5.2047Y-4.5807
T0
M30
