%TF.GenerationSoftware,KiCad,Pcbnew,(6.0.9)*%
%TF.CreationDate,2023-01-25T17:31:36+01:00*%
%TF.ProjectId,sdrt41-tx,73647274-3431-42d7-9478-2e6b69636164,rev?*%
%TF.SameCoordinates,Original*%
%TF.FileFunction,Copper,L4,Bot*%
%TF.FilePolarity,Positive*%
%FSLAX46Y46*%
G04 Gerber Fmt 4.6, Leading zero omitted, Abs format (unit mm)*
G04 Created by KiCad (PCBNEW (6.0.9)) date 2023-01-25 17:31:36*
%MOMM*%
%LPD*%
G01*
G04 APERTURE LIST*
%TA.AperFunction,ComponentPad*%
%ADD10R,2.800000X2.800000*%
%TD*%
%TA.AperFunction,ComponentPad*%
%ADD11C,2.800000*%
%TD*%
%TA.AperFunction,ComponentPad*%
%ADD12C,1.200000*%
%TD*%
%TA.AperFunction,ComponentPad*%
%ADD13C,6.400000*%
%TD*%
%TA.AperFunction,ComponentPad*%
%ADD14C,0.800000*%
%TD*%
%TA.AperFunction,ComponentPad*%
%ADD15C,2.050000*%
%TD*%
%TA.AperFunction,ComponentPad*%
%ADD16C,2.250000*%
%TD*%
%TA.AperFunction,ComponentPad*%
%ADD17R,1.700000X1.700000*%
%TD*%
%TA.AperFunction,ComponentPad*%
%ADD18O,1.700000X1.700000*%
%TD*%
%TA.AperFunction,ComponentPad*%
%ADD19C,1.600000*%
%TD*%
%TA.AperFunction,ComponentPad*%
%ADD20O,1.600000X1.600000*%
%TD*%
%TA.AperFunction,ComponentPad*%
%ADD21C,3.000000*%
%TD*%
%TA.AperFunction,SMDPad,CuDef*%
%ADD22R,2.000000X1.500000*%
%TD*%
%TA.AperFunction,SMDPad,CuDef*%
%ADD23R,2.000000X3.800000*%
%TD*%
%TA.AperFunction,ViaPad*%
%ADD24C,0.800000*%
%TD*%
%TA.AperFunction,Conductor*%
%ADD25C,1.000000*%
%TD*%
%TA.AperFunction,Conductor*%
%ADD26C,0.500000*%
%TD*%
%TA.AperFunction,Conductor*%
%ADD27C,0.250000*%
%TD*%
G04 APERTURE END LIST*
D10*
%TO.P,J6,1,Pin_1*%
%TO.N,GND*%
X83190400Y-81849600D03*
D11*
%TO.P,J6,2,Pin_2*%
%TO.N,Net-(C33-Pad1)*%
X83190400Y-76849600D03*
%TD*%
D12*
%TO.P,C33,1*%
%TO.N,Net-(C33-Pad1)*%
X92980000Y-74574400D03*
%TO.P,C33,2*%
%TO.N,GND*%
X94980000Y-74574400D03*
%TD*%
D13*
%TO.P,H1,1,1*%
%TO.N,GND*%
X83600000Y-116350000D03*
D14*
X81902944Y-114652944D03*
X83600000Y-118750000D03*
X81200000Y-116350000D03*
X86000000Y-116350000D03*
X83600000Y-113950000D03*
X85297056Y-118047056D03*
X85297056Y-114652944D03*
X81902944Y-118047056D03*
%TD*%
%TO.P,H4,1,1*%
%TO.N,GND*%
X81902944Y-51877944D03*
X83600000Y-51175000D03*
X85297056Y-51877944D03*
X83600000Y-55975000D03*
X81200000Y-53575000D03*
X81902944Y-55272056D03*
X86000000Y-53575000D03*
X85297056Y-55272056D03*
D13*
X83600000Y-53575000D03*
%TD*%
D15*
%TO.P,J1,1,In*%
%TO.N,Net-(C4-Pad2)*%
X84226400Y-90728800D03*
D16*
%TO.P,J1,2,Ext*%
%TO.N,GND*%
X81686400Y-88188800D03*
X86766400Y-93268800D03*
X81686400Y-93268800D03*
X86766400Y-88188800D03*
%TD*%
D17*
%TO.P,J3,1,Pin_1*%
%TO.N,GND*%
X103425000Y-52050000D03*
D18*
%TO.P,J3,2,Pin_2*%
X105965000Y-52050000D03*
%TO.P,J3,3,Pin_3*%
%TO.N,rx-tx*%
X108505000Y-52050000D03*
%TO.P,J3,4,Pin_4*%
%TO.N,GND*%
X111045000Y-52050000D03*
%TO.P,J3,5,Pin_5*%
%TO.N,Net-(C2-Pad1)*%
X113585000Y-52050000D03*
%TD*%
D15*
%TO.P,J4,1,In*%
%TO.N,Net-(J4-Pad1)*%
X98700000Y-114400000D03*
D16*
%TO.P,J4,2,Ext*%
%TO.N,GND*%
X101240000Y-116940000D03*
X96160000Y-116940000D03*
X96160000Y-111860000D03*
X101240000Y-111860000D03*
%TD*%
D15*
%TO.P,J2,1,In*%
%TO.N,Net-(C5-Pad2)*%
X84175600Y-105206800D03*
D16*
%TO.P,J2,2,Ext*%
%TO.N,GND*%
X81635600Y-102666800D03*
X86715600Y-107746800D03*
X81635600Y-107746800D03*
X86715600Y-102666800D03*
%TD*%
D19*
%TO.P,L1,1,1*%
%TO.N,+5V*%
X108395000Y-57200000D03*
D20*
%TO.P,L1,2,2*%
%TO.N,Net-(C2-Pad1)*%
X113475000Y-57200000D03*
%TD*%
D13*
%TO.P,H2,1,1*%
%TO.N,GND*%
X132200000Y-53575000D03*
D14*
X129800000Y-53575000D03*
X130502944Y-55272056D03*
X132200000Y-51175000D03*
X130502944Y-51877944D03*
X132200000Y-55975000D03*
X134600000Y-53575000D03*
X133897056Y-55272056D03*
X133897056Y-51877944D03*
%TD*%
%TO.P,H3,1,1*%
%TO.N,GND*%
X132200000Y-118750000D03*
X129800000Y-116350000D03*
X132200000Y-113950000D03*
X133897056Y-114652944D03*
D13*
X132200000Y-116350000D03*
D14*
X134600000Y-116350000D03*
X133897056Y-118047056D03*
X130502944Y-118047056D03*
X130502944Y-114652944D03*
%TD*%
D15*
%TO.P,J5,1,In*%
%TO.N,Net-(C8-Pad1)*%
X123190000Y-54102000D03*
D16*
%TO.P,J5,2,Ext*%
%TO.N,GND*%
X125730000Y-56642000D03*
X120650000Y-51562000D03*
X120650000Y-56642000D03*
X125730000Y-51562000D03*
%TD*%
D21*
%TO.P,T1,1,AA*%
%TO.N,GND*%
X105947500Y-108250000D03*
%TO.P,T1,2,AB*%
%TO.N,Net-(J4-Pad1)*%
X105947500Y-115250000D03*
%TO.P,T1,3,SA*%
%TO.N,Net-(T1-Pad3)*%
X121227500Y-116540000D03*
%TO.P,T1,4,SC*%
%TO.N,Net-(C30-Pad2)*%
X121107500Y-111810000D03*
%TO.P,T1,5,SB*%
%TO.N,Net-(T1-Pad5)*%
X120917500Y-107210000D03*
%TD*%
D12*
%TO.P,C1,1*%
%TO.N,+5V*%
X94200000Y-64900000D03*
%TO.P,C1,2*%
%TO.N,GND*%
X96200000Y-64900000D03*
%TD*%
D22*
%TO.P,U6,1,GND*%
%TO.N,GND*%
X89408400Y-67905600D03*
D23*
%TO.P,U6,2,VO*%
%TO.N,+5V*%
X83108400Y-70205600D03*
D22*
X89408400Y-70205600D03*
%TO.P,U6,3,VI*%
%TO.N,Net-(C33-Pad1)*%
X89408400Y-72505600D03*
%TD*%
D24*
%TO.N,+5V*%
X95808800Y-58166000D03*
X131775200Y-82092800D03*
X113030000Y-86614000D03*
X96266000Y-94742000D03*
X94200000Y-70750000D03*
%TO.N,GND*%
X129209800Y-82626200D03*
X88900000Y-52070000D03*
X134620000Y-101600000D03*
X100330000Y-95250000D03*
X128524000Y-100330000D03*
X106680000Y-85090000D03*
X92710000Y-52070000D03*
X134620000Y-91440000D03*
X109220000Y-73660000D03*
X99822000Y-87630000D03*
X88900000Y-58420000D03*
X93980000Y-107950000D03*
X123342400Y-94437200D03*
X134620000Y-60960000D03*
X90170000Y-107950000D03*
X101600000Y-73660000D03*
X111760000Y-95250000D03*
X104140000Y-73660000D03*
X107518200Y-92862400D03*
X134670800Y-88036400D03*
X99060000Y-73660000D03*
X129286000Y-103124000D03*
X85090000Y-58420000D03*
X101600000Y-107950000D03*
X81280000Y-60960000D03*
X106172000Y-88392000D03*
X134620000Y-96520000D03*
X112268000Y-60452000D03*
X134620000Y-81280000D03*
X94996000Y-52578000D03*
X134620000Y-68580000D03*
X97790000Y-107950000D03*
X134620000Y-111760000D03*
X104140000Y-85090000D03*
X121920000Y-71120000D03*
X118364000Y-60833000D03*
X111760000Y-73660000D03*
X126873000Y-65786000D03*
X98298000Y-97536000D03*
X127000000Y-68580000D03*
X114173000Y-84023200D03*
X127000000Y-78740000D03*
X107950000Y-95250000D03*
X110236000Y-66040000D03*
X134620000Y-106680000D03*
X116840000Y-72009000D03*
X81280000Y-64770000D03*
X115570000Y-95250000D03*
X134620000Y-76200000D03*
X98044000Y-52578000D03*
%TO.N,Net-(C10-Pad2)*%
X114833400Y-92837000D03*
X109675000Y-91535000D03*
X102936000Y-88432000D03*
%TO.N,Net-(C13-Pad1)*%
X91850000Y-92900000D03*
X102870000Y-94234000D03*
%TO.N,Net-(C23-Pad2)*%
X133223000Y-95189000D03*
X121412000Y-100330000D03*
X130759200Y-90881200D03*
X126720600Y-90779600D03*
%TO.N,Net-(C24-Pad2)*%
X123050000Y-86050000D03*
X126060200Y-92837000D03*
X124866400Y-90043000D03*
X104937500Y-79050000D03*
%TO.N,Net-(C25-Pad2)*%
X120712500Y-82250000D03*
X126275489Y-85941511D03*
X127025400Y-89535000D03*
%TO.N,Net-(C26-Pad2)*%
X111162500Y-97900000D03*
X121894600Y-90144600D03*
X130962400Y-91998800D03*
%TO.N,Net-(C28-Pad2)*%
X129235200Y-85953600D03*
X103200200Y-59639200D03*
X127482600Y-87821100D03*
%TO.N,Net-(TP1-Pad1)*%
X125831600Y-89399500D03*
X119650000Y-74262500D03*
%TO.N,Net-(U4-Pad2)*%
X120910000Y-63825000D03*
X114554000Y-66548000D03*
%TO.N,Net-(U4-Pad12)*%
X115824000Y-63754000D03*
X118364000Y-68580000D03*
%TO.N,Net-(C12-Pad2)*%
X100037500Y-85550000D03*
X98425000Y-91440000D03*
%TO.N,Net-(TP2-Pad1)*%
X130733800Y-88671400D03*
X123063000Y-65913000D03*
%TD*%
D25*
%TO.N,+5V*%
X101900000Y-57200000D02*
X94200000Y-64900000D01*
X86817200Y-67527600D02*
X89408400Y-64936400D01*
D26*
X94200000Y-70750000D02*
X97487918Y-70750000D01*
X102616000Y-82228082D02*
X107001918Y-86614000D01*
D25*
X89408400Y-64936400D02*
X94163600Y-64936400D01*
X94163600Y-64936400D02*
X94200000Y-64900000D01*
D26*
X107001918Y-86614000D02*
X113030000Y-86614000D01*
X97487918Y-70750000D02*
X102616000Y-75878082D01*
D25*
X86817200Y-70205600D02*
X89408400Y-70205600D01*
X108395000Y-57200000D02*
X101900000Y-57200000D01*
X93655600Y-70205600D02*
X94200000Y-70750000D01*
D26*
X94200000Y-70750000D02*
X96266000Y-72816000D01*
X96266000Y-72816000D02*
X96266000Y-94742000D01*
D25*
X83108400Y-70205600D02*
X86817200Y-70205600D01*
X86817200Y-70205600D02*
X86817200Y-67527600D01*
X89408400Y-70205600D02*
X93655600Y-70205600D01*
D26*
X102616000Y-75878082D02*
X102616000Y-82228082D01*
D25*
%TO.N,Net-(C2-Pad1)*%
X113585000Y-52050000D02*
X113585000Y-57090000D01*
X113585000Y-57090000D02*
X113475000Y-57200000D01*
D26*
%TO.N,Net-(C10-Pad2)*%
X114833400Y-92837000D02*
X108694191Y-92837000D01*
X114833400Y-92837000D02*
X110977000Y-92837000D01*
X110977000Y-92837000D02*
X109675000Y-91535000D01*
X104289191Y-88432000D02*
X102936000Y-88432000D01*
X108694191Y-92837000D02*
X104289191Y-88432000D01*
D27*
%TO.N,Net-(C13-Pad1)*%
X91850000Y-92900000D02*
X91850000Y-93628000D01*
X101129000Y-95975000D02*
X102870000Y-94234000D01*
X94197000Y-95975000D02*
X101129000Y-95975000D01*
X91850000Y-93628000D02*
X94197000Y-95975000D01*
%TO.N,Net-(C23-Pad2)*%
X130759200Y-90881200D02*
X132283200Y-90881200D01*
X126720600Y-90779600D02*
X130657600Y-90779600D01*
X132283200Y-90881200D02*
X133223000Y-91821000D01*
X130657600Y-90779600D02*
X130759200Y-90881200D01*
X133223000Y-91821000D02*
X133223000Y-95189000D01*
%TO.N,Net-(C24-Pad2)*%
X126060200Y-92837000D02*
X124866400Y-91643200D01*
X115852168Y-79050000D02*
X104937500Y-79050000D01*
X124866400Y-87866400D02*
X123050000Y-86050000D01*
X122852168Y-86050000D02*
X115852168Y-79050000D01*
X124866400Y-90043000D02*
X124866400Y-87866400D01*
X123050000Y-86050000D02*
X122852168Y-86050000D01*
X124866400Y-91643200D02*
X124866400Y-90043000D01*
%TO.N,Net-(C25-Pad2)*%
X126275489Y-88785089D02*
X126275489Y-85941511D01*
X124922000Y-82250000D02*
X120712500Y-82250000D01*
X127025400Y-89535000D02*
X126275489Y-88785089D01*
X126275489Y-85941511D02*
X126275489Y-83603489D01*
X126275489Y-83603489D02*
X124922000Y-82250000D01*
%TO.N,Net-(C26-Pad2)*%
X125311511Y-93561511D02*
X129399689Y-93561511D01*
X129399689Y-93561511D02*
X130962400Y-91998800D01*
X121894600Y-90144600D02*
X125311511Y-93561511D01*
X114139200Y-97900000D02*
X111162500Y-97900000D01*
X121894600Y-90144600D02*
X114139200Y-97900000D01*
%TO.N,Net-(C28-Pad2)*%
X127482600Y-87706200D02*
X129235200Y-85953600D01*
X115959614Y-69215000D02*
X112386386Y-69215000D01*
X112386386Y-69215000D02*
X103200200Y-60028814D01*
X127482600Y-87821100D02*
X127482600Y-87706200D01*
X127482600Y-87821100D02*
X127724511Y-87579189D01*
X127724511Y-87579189D02*
X127724511Y-80979897D01*
X103200200Y-60028814D02*
X103200200Y-59639200D01*
X127724511Y-80979897D02*
X115959614Y-69215000D01*
%TO.N,Net-(TP1-Pad1)*%
X125315920Y-87291306D02*
X121031814Y-83007200D01*
X119650000Y-82212114D02*
X119650000Y-74262500D01*
X125831600Y-89399500D02*
X125315920Y-88883820D01*
X120445086Y-83007200D02*
X119650000Y-82212114D01*
X125315920Y-88883820D02*
X125315920Y-87291306D01*
X121031814Y-83007200D02*
X120445086Y-83007200D01*
D26*
%TO.N,Net-(U4-Pad2)*%
X114554000Y-66548000D02*
X118187000Y-66548000D01*
X118187000Y-66548000D02*
X120910000Y-63825000D01*
%TO.N,Net-(U4-Pad12)*%
X113704489Y-65873511D02*
X115824000Y-63754000D01*
X113704489Y-66899880D02*
X113704489Y-65873511D01*
X118364000Y-68580000D02*
X115384609Y-68580000D01*
X115384609Y-68580000D02*
X113704489Y-66899880D01*
%TO.N,Net-(C12-Pad2)*%
X98425000Y-91440000D02*
X100671511Y-89193489D01*
X100671511Y-86184011D02*
X100037500Y-85550000D01*
X100671511Y-89193489D02*
X100671511Y-86184011D01*
D25*
%TO.N,Net-(C33-Pad1)*%
X89408400Y-72505600D02*
X90911200Y-72505600D01*
X90911200Y-72505600D02*
X92980000Y-74574400D01*
X85064400Y-76849600D02*
X89408400Y-72505600D01*
X83190400Y-76849600D02*
X85064400Y-76849600D01*
D27*
%TO.N,Net-(TP2-Pad1)*%
X123063000Y-69663000D02*
X130733800Y-77333800D01*
X130733800Y-77333800D02*
X130733800Y-88671400D01*
X123063000Y-65913000D02*
X123063000Y-69663000D01*
%TD*%
%TA.AperFunction,Conductor*%
%TO.N,GND*%
G36*
X81268794Y-50478502D02*
G01*
X81315287Y-50532158D01*
X81325391Y-50602432D01*
X81295897Y-50667012D01*
X81279968Y-50682420D01*
X81176165Y-50766478D01*
X81167700Y-50778733D01*
X81174034Y-50789824D01*
X83587188Y-53202978D01*
X83601132Y-53210592D01*
X83602965Y-53210461D01*
X83609580Y-53206210D01*
X86025100Y-50790690D01*
X86032241Y-50777614D01*
X86024784Y-50767247D01*
X85920032Y-50682420D01*
X85879680Y-50624006D01*
X85877316Y-50553048D01*
X85913688Y-50492077D01*
X85977251Y-50460449D01*
X85999327Y-50458500D01*
X102410603Y-50458500D01*
X102478724Y-50478502D01*
X102525217Y-50532158D01*
X102535321Y-50602432D01*
X102505827Y-50667012D01*
X102454833Y-50702482D01*
X102336946Y-50746676D01*
X102321351Y-50755214D01*
X102219276Y-50831715D01*
X102206715Y-50844276D01*
X102130214Y-50946351D01*
X102121676Y-50961946D01*
X102076522Y-51082394D01*
X102072895Y-51097649D01*
X102067369Y-51148514D01*
X102067000Y-51155328D01*
X102067000Y-51777885D01*
X102071475Y-51793124D01*
X102072865Y-51794329D01*
X102080548Y-51796000D01*
X106093000Y-51796000D01*
X106161121Y-51816002D01*
X106207614Y-51869658D01*
X106219000Y-51922000D01*
X106219000Y-53368517D01*
X106223064Y-53382359D01*
X106236478Y-53384393D01*
X106243184Y-53383534D01*
X106253262Y-53381392D01*
X106457255Y-53320191D01*
X106466842Y-53316433D01*
X106658095Y-53222739D01*
X106666945Y-53217464D01*
X106840328Y-53093792D01*
X106848200Y-53087139D01*
X106999052Y-52936812D01*
X107005730Y-52928965D01*
X107133022Y-52751819D01*
X107134279Y-52752722D01*
X107181373Y-52709362D01*
X107251311Y-52697145D01*
X107316751Y-52724678D01*
X107344579Y-52756511D01*
X107404987Y-52855088D01*
X107551250Y-53023938D01*
X107723126Y-53166632D01*
X107916000Y-53279338D01*
X108124692Y-53359030D01*
X108129760Y-53360061D01*
X108129763Y-53360062D01*
X108224862Y-53379410D01*
X108343597Y-53403567D01*
X108348772Y-53403757D01*
X108348774Y-53403757D01*
X108561673Y-53411564D01*
X108561677Y-53411564D01*
X108566837Y-53411753D01*
X108571957Y-53411097D01*
X108571959Y-53411097D01*
X108783288Y-53384025D01*
X108783289Y-53384025D01*
X108788416Y-53383368D01*
X108793366Y-53381883D01*
X108997429Y-53320661D01*
X108997434Y-53320659D01*
X109002384Y-53319174D01*
X109202994Y-53220896D01*
X109384860Y-53091173D01*
X109543096Y-52933489D01*
X109572435Y-52892660D01*
X109673453Y-52752077D01*
X109674640Y-52752930D01*
X109721960Y-52709362D01*
X109791897Y-52697145D01*
X109857338Y-52724678D01*
X109885166Y-52756511D01*
X109942694Y-52850388D01*
X109948777Y-52858699D01*
X110088213Y-53019667D01*
X110095580Y-53026883D01*
X110259434Y-53162916D01*
X110267881Y-53168831D01*
X110451756Y-53276279D01*
X110461042Y-53280729D01*
X110660001Y-53356703D01*
X110669899Y-53359579D01*
X110773250Y-53380606D01*
X110787299Y-53379410D01*
X110791000Y-53369065D01*
X110791000Y-51922000D01*
X110811002Y-51853879D01*
X110864658Y-51807386D01*
X110917000Y-51796000D01*
X111173000Y-51796000D01*
X111241121Y-51816002D01*
X111287614Y-51869658D01*
X111299000Y-51922000D01*
X111299000Y-53368517D01*
X111303064Y-53382359D01*
X111316478Y-53384393D01*
X111323184Y-53383534D01*
X111333262Y-53381392D01*
X111537255Y-53320191D01*
X111546842Y-53316433D01*
X111738095Y-53222739D01*
X111746945Y-53217464D01*
X111920328Y-53093792D01*
X111928200Y-53087139D01*
X112079052Y-52936812D01*
X112085730Y-52928965D01*
X112213022Y-52751819D01*
X112214279Y-52752722D01*
X112261373Y-52709362D01*
X112331311Y-52697145D01*
X112396751Y-52724678D01*
X112424579Y-52756511D01*
X112484987Y-52855088D01*
X112488367Y-52858990D01*
X112545737Y-52925219D01*
X112575220Y-52989804D01*
X112576500Y-53007717D01*
X112576500Y-56195812D01*
X112556498Y-56263933D01*
X112539595Y-56284907D01*
X112468802Y-56355700D01*
X112465645Y-56360208D01*
X112465643Y-56360211D01*
X112449859Y-56382753D01*
X112337477Y-56543251D01*
X112335154Y-56548232D01*
X112335151Y-56548238D01*
X112243039Y-56745775D01*
X112240716Y-56750757D01*
X112181457Y-56971913D01*
X112161502Y-57200000D01*
X112181457Y-57428087D01*
X112182881Y-57433400D01*
X112182881Y-57433402D01*
X112226833Y-57597430D01*
X112240716Y-57649243D01*
X112243039Y-57654224D01*
X112243039Y-57654225D01*
X112335151Y-57851762D01*
X112335154Y-57851767D01*
X112337477Y-57856749D01*
X112340634Y-57861257D01*
X112425624Y-57982635D01*
X112468802Y-58044300D01*
X112630700Y-58206198D01*
X112635208Y-58209355D01*
X112635211Y-58209357D01*
X112686693Y-58245405D01*
X112818251Y-58337523D01*
X112823233Y-58339846D01*
X112823238Y-58339849D01*
X113020775Y-58431961D01*
X113025757Y-58434284D01*
X113031065Y-58435706D01*
X113031067Y-58435707D01*
X113241598Y-58492119D01*
X113241600Y-58492119D01*
X113246913Y-58493543D01*
X113475000Y-58513498D01*
X113703087Y-58493543D01*
X113708400Y-58492119D01*
X113708402Y-58492119D01*
X113918933Y-58435707D01*
X113918935Y-58435706D01*
X113924243Y-58434284D01*
X113929225Y-58431961D01*
X114126762Y-58339849D01*
X114126767Y-58339846D01*
X114131749Y-58337523D01*
X114263307Y-58245405D01*
X114314789Y-58209357D01*
X114314792Y-58209355D01*
X114319300Y-58206198D01*
X114481198Y-58044300D01*
X114524377Y-57982635D01*
X114535695Y-57966471D01*
X119690884Y-57966471D01*
X119694570Y-57971740D01*
X119902121Y-58098927D01*
X119910915Y-58103408D01*
X120139242Y-58197984D01*
X120148627Y-58201033D01*
X120388940Y-58258728D01*
X120398687Y-58260271D01*
X120645070Y-58279662D01*
X120654930Y-58279662D01*
X120901313Y-58260271D01*
X120911060Y-58258728D01*
X121151373Y-58201033D01*
X121160758Y-58197984D01*
X121389085Y-58103408D01*
X121397879Y-58098927D01*
X121603928Y-57972660D01*
X121607968Y-57966471D01*
X124770884Y-57966471D01*
X124774570Y-57971740D01*
X124982121Y-58098927D01*
X124990915Y-58103408D01*
X125219242Y-58197984D01*
X125228627Y-58201033D01*
X125468940Y-58258728D01*
X125478687Y-58260271D01*
X125725070Y-58279662D01*
X125734930Y-58279662D01*
X125981313Y-58260271D01*
X125991060Y-58258728D01*
X126231373Y-58201033D01*
X126240758Y-58197984D01*
X126469085Y-58103408D01*
X126477879Y-58098927D01*
X126683928Y-57972660D01*
X126689190Y-57964599D01*
X126683183Y-57954393D01*
X125742812Y-57014022D01*
X125728868Y-57006408D01*
X125727035Y-57006539D01*
X125720420Y-57010790D01*
X124778276Y-57952934D01*
X124770884Y-57966471D01*
X121607968Y-57966471D01*
X121609190Y-57964599D01*
X121603183Y-57954393D01*
X120662812Y-57014022D01*
X120648868Y-57006408D01*
X120647035Y-57006539D01*
X120640420Y-57010790D01*
X119698276Y-57952934D01*
X119690884Y-57966471D01*
X114535695Y-57966471D01*
X114609366Y-57861257D01*
X114612523Y-57856749D01*
X114614846Y-57851767D01*
X114614849Y-57851762D01*
X114706961Y-57654225D01*
X114706961Y-57654224D01*
X114709284Y-57649243D01*
X114723168Y-57597430D01*
X114767119Y-57433402D01*
X114767119Y-57433400D01*
X114768543Y-57428087D01*
X114788498Y-57200000D01*
X114768543Y-56971913D01*
X114709284Y-56750757D01*
X114706961Y-56745775D01*
X114660869Y-56646930D01*
X119012338Y-56646930D01*
X119031729Y-56893313D01*
X119033272Y-56903060D01*
X119090967Y-57143373D01*
X119094016Y-57152758D01*
X119188592Y-57381085D01*
X119193073Y-57389879D01*
X119319340Y-57595928D01*
X119327401Y-57601190D01*
X119337607Y-57595183D01*
X120277978Y-56654812D01*
X120284356Y-56643132D01*
X121014408Y-56643132D01*
X121014539Y-56644965D01*
X121018790Y-56651580D01*
X121960934Y-57593724D01*
X121974471Y-57601116D01*
X121979740Y-57597430D01*
X122106927Y-57389879D01*
X122111408Y-57381085D01*
X122205984Y-57152758D01*
X122209033Y-57143373D01*
X122266728Y-56903060D01*
X122268271Y-56893313D01*
X122287662Y-56646930D01*
X124092338Y-56646930D01*
X124111729Y-56893313D01*
X124113272Y-56903060D01*
X124170967Y-57143373D01*
X124174016Y-57152758D01*
X124268592Y-57381085D01*
X124273073Y-57389879D01*
X124399340Y-57595928D01*
X124407401Y-57601190D01*
X124417607Y-57595183D01*
X125357978Y-56654812D01*
X125364356Y-56643132D01*
X126094408Y-56643132D01*
X126094539Y-56644965D01*
X126098790Y-56651580D01*
X127040934Y-57593724D01*
X127054471Y-57601116D01*
X127059740Y-57597430D01*
X127186927Y-57389879D01*
X127191408Y-57381085D01*
X127285984Y-57152758D01*
X127289033Y-57143373D01*
X127346728Y-56903060D01*
X127348271Y-56893313D01*
X127367662Y-56646930D01*
X127367662Y-56637070D01*
X127348271Y-56390687D01*
X127346728Y-56380940D01*
X127344674Y-56372386D01*
X129767759Y-56372386D01*
X129775216Y-56382753D01*
X130014935Y-56576874D01*
X130020272Y-56580751D01*
X130340685Y-56788830D01*
X130346394Y-56792127D01*
X130686811Y-56965578D01*
X130692836Y-56968260D01*
X131049502Y-57105171D01*
X131055784Y-57107212D01*
X131424816Y-57206094D01*
X131431266Y-57207465D01*
X131808629Y-57267234D01*
X131815167Y-57267920D01*
X132196699Y-57287916D01*
X132203301Y-57287916D01*
X132584833Y-57267920D01*
X132591371Y-57267234D01*
X132968734Y-57207465D01*
X132975184Y-57206094D01*
X133344216Y-57107212D01*
X133350498Y-57105171D01*
X133707164Y-56968260D01*
X133713189Y-56965578D01*
X134053606Y-56792127D01*
X134059315Y-56788830D01*
X134379728Y-56580751D01*
X134385065Y-56576874D01*
X134623835Y-56383522D01*
X134632300Y-56371267D01*
X134625966Y-56360176D01*
X132212812Y-53947022D01*
X132198868Y-53939408D01*
X132197035Y-53939539D01*
X132190420Y-53943790D01*
X129774900Y-56359310D01*
X129767759Y-56372386D01*
X127344674Y-56372386D01*
X127289033Y-56140627D01*
X127285984Y-56131242D01*
X127191408Y-55902915D01*
X127186927Y-55894121D01*
X127060660Y-55688072D01*
X127052599Y-55682810D01*
X127042393Y-55688817D01*
X126102022Y-56629188D01*
X126094408Y-56643132D01*
X125364356Y-56643132D01*
X125365592Y-56640868D01*
X125365461Y-56639035D01*
X125361210Y-56632420D01*
X124419066Y-55690276D01*
X124405529Y-55682884D01*
X124400260Y-55686570D01*
X124273073Y-55894121D01*
X124268592Y-55902915D01*
X124174016Y-56131242D01*
X124170967Y-56140627D01*
X124113272Y-56380940D01*
X124111729Y-56390687D01*
X124092338Y-56637070D01*
X124092338Y-56646930D01*
X122287662Y-56646930D01*
X122287662Y-56637070D01*
X122268271Y-56390687D01*
X122266728Y-56380940D01*
X122209033Y-56140627D01*
X122205984Y-56131242D01*
X122111408Y-55902915D01*
X122106927Y-55894121D01*
X121980660Y-55688072D01*
X121972599Y-55682810D01*
X121962393Y-55688817D01*
X121022022Y-56629188D01*
X121014408Y-56643132D01*
X120284356Y-56643132D01*
X120285592Y-56640868D01*
X120285461Y-56639035D01*
X120281210Y-56632420D01*
X119339066Y-55690276D01*
X119325529Y-55682884D01*
X119320260Y-55686570D01*
X119193073Y-55894121D01*
X119188592Y-55902915D01*
X119094016Y-56131242D01*
X119090967Y-56140627D01*
X119033272Y-56380940D01*
X119031729Y-56390687D01*
X119012338Y-56637070D01*
X119012338Y-56646930D01*
X114660869Y-56646930D01*
X114614846Y-56548232D01*
X114614844Y-56548229D01*
X114612523Y-56543251D01*
X114610248Y-56540001D01*
X114593500Y-56477499D01*
X114593500Y-55319401D01*
X119690810Y-55319401D01*
X119696817Y-55329607D01*
X120637188Y-56269978D01*
X120651132Y-56277592D01*
X120652965Y-56277461D01*
X120659580Y-56273210D01*
X121601724Y-55331066D01*
X121609116Y-55317529D01*
X121605430Y-55312260D01*
X121397879Y-55185073D01*
X121389085Y-55180592D01*
X121160758Y-55086016D01*
X121151373Y-55082967D01*
X120911060Y-55025272D01*
X120901313Y-55023729D01*
X120654930Y-55004338D01*
X120645070Y-55004338D01*
X120398687Y-55023729D01*
X120388940Y-55025272D01*
X120148627Y-55082967D01*
X120139242Y-55086016D01*
X119910915Y-55180592D01*
X119902121Y-55185073D01*
X119696072Y-55311340D01*
X119690810Y-55319401D01*
X114593500Y-55319401D01*
X114593500Y-54102000D01*
X121651758Y-54102000D01*
X121670696Y-54342634D01*
X121671850Y-54347441D01*
X121671851Y-54347447D01*
X121707267Y-54494961D01*
X121727045Y-54577343D01*
X121728938Y-54581914D01*
X121728939Y-54581916D01*
X121788413Y-54725498D01*
X121819416Y-54800347D01*
X121945536Y-55006156D01*
X122102299Y-55189701D01*
X122285844Y-55346464D01*
X122491653Y-55472584D01*
X122496223Y-55474477D01*
X122496227Y-55474479D01*
X122710084Y-55563061D01*
X122714657Y-55564955D01*
X122797039Y-55584733D01*
X122944553Y-55620149D01*
X122944559Y-55620150D01*
X122949366Y-55621304D01*
X123190000Y-55640242D01*
X123430634Y-55621304D01*
X123435441Y-55620150D01*
X123435447Y-55620149D01*
X123582961Y-55584733D01*
X123665343Y-55564955D01*
X123669916Y-55563061D01*
X123883773Y-55474479D01*
X123883777Y-55474477D01*
X123888347Y-55472584D01*
X124094156Y-55346464D01*
X124125843Y-55319401D01*
X124770810Y-55319401D01*
X124776817Y-55329607D01*
X125717188Y-56269978D01*
X125731132Y-56277592D01*
X125732965Y-56277461D01*
X125739580Y-56273210D01*
X126681724Y-55331066D01*
X126689116Y-55317529D01*
X126685430Y-55312260D01*
X126477879Y-55185073D01*
X126469085Y-55180592D01*
X126240758Y-55086016D01*
X126231373Y-55082967D01*
X125991060Y-55025272D01*
X125981313Y-55023729D01*
X125734930Y-55004338D01*
X125725070Y-55004338D01*
X125478687Y-55023729D01*
X125468940Y-55025272D01*
X125228627Y-55082967D01*
X125219242Y-55086016D01*
X124990915Y-55180592D01*
X124982121Y-55185073D01*
X124776072Y-55311340D01*
X124770810Y-55319401D01*
X124125843Y-55319401D01*
X124277701Y-55189701D01*
X124434464Y-55006156D01*
X124560584Y-54800347D01*
X124591588Y-54725498D01*
X124651061Y-54581916D01*
X124651062Y-54581914D01*
X124652955Y-54577343D01*
X124672733Y-54494961D01*
X124708149Y-54347447D01*
X124708150Y-54347441D01*
X124709304Y-54342634D01*
X124728242Y-54102000D01*
X124709304Y-53861366D01*
X124708150Y-53856559D01*
X124708149Y-53856553D01*
X124654110Y-53631469D01*
X124652955Y-53626657D01*
X124635526Y-53584580D01*
X124632925Y-53578301D01*
X128487084Y-53578301D01*
X128507080Y-53959833D01*
X128507766Y-53966371D01*
X128567535Y-54343734D01*
X128568906Y-54350184D01*
X128667788Y-54719216D01*
X128669829Y-54725498D01*
X128806740Y-55082164D01*
X128809422Y-55088189D01*
X128982872Y-55428603D01*
X128986169Y-55434313D01*
X129194253Y-55754735D01*
X129198123Y-55760061D01*
X129391478Y-55998835D01*
X129403733Y-56007300D01*
X129414824Y-56000966D01*
X131827978Y-53587812D01*
X131835592Y-53573868D01*
X131835461Y-53572035D01*
X131831210Y-53565420D01*
X129415690Y-51149900D01*
X129402614Y-51142759D01*
X129392247Y-51150216D01*
X129198123Y-51389939D01*
X129194253Y-51395265D01*
X128986169Y-51715687D01*
X128982872Y-51721397D01*
X128809422Y-52061811D01*
X128806740Y-52067836D01*
X128669829Y-52424502D01*
X128667788Y-52430784D01*
X128568906Y-52799816D01*
X128567535Y-52806266D01*
X128507766Y-53183629D01*
X128507080Y-53190167D01*
X128487084Y-53571699D01*
X128487084Y-53578301D01*
X124632925Y-53578301D01*
X124562479Y-53408227D01*
X124562477Y-53408223D01*
X124560584Y-53403653D01*
X124434464Y-53197844D01*
X124277701Y-53014299D01*
X124128034Y-52886471D01*
X124770884Y-52886471D01*
X124774570Y-52891740D01*
X124982121Y-53018927D01*
X124990915Y-53023408D01*
X125219242Y-53117984D01*
X125228627Y-53121033D01*
X125468940Y-53178728D01*
X125478687Y-53180271D01*
X125725070Y-53199662D01*
X125734930Y-53199662D01*
X125981313Y-53180271D01*
X125991060Y-53178728D01*
X126231373Y-53121033D01*
X126240758Y-53117984D01*
X126469085Y-53023408D01*
X126477879Y-53018927D01*
X126683928Y-52892660D01*
X126689190Y-52884599D01*
X126683183Y-52874393D01*
X125742812Y-51934022D01*
X125728868Y-51926408D01*
X125727035Y-51926539D01*
X125720420Y-51930790D01*
X124778276Y-52872934D01*
X124770884Y-52886471D01*
X124128034Y-52886471D01*
X124094156Y-52857536D01*
X123888347Y-52731416D01*
X123883777Y-52729523D01*
X123883773Y-52729521D01*
X123669916Y-52640939D01*
X123669914Y-52640938D01*
X123665343Y-52639045D01*
X123582961Y-52619267D01*
X123435447Y-52583851D01*
X123435441Y-52583850D01*
X123430634Y-52582696D01*
X123190000Y-52563758D01*
X122949366Y-52582696D01*
X122944559Y-52583850D01*
X122944553Y-52583851D01*
X122797039Y-52619267D01*
X122714657Y-52639045D01*
X122710086Y-52640938D01*
X122710084Y-52640939D01*
X122496227Y-52729521D01*
X122496223Y-52729523D01*
X122491653Y-52731416D01*
X122285844Y-52857536D01*
X122102299Y-53014299D01*
X121945536Y-53197844D01*
X121819416Y-53403653D01*
X121817523Y-53408223D01*
X121817521Y-53408227D01*
X121744474Y-53584580D01*
X121727045Y-53626657D01*
X121725890Y-53631469D01*
X121671851Y-53856553D01*
X121671850Y-53856559D01*
X121670696Y-53861366D01*
X121651758Y-54102000D01*
X114593500Y-54102000D01*
X114593500Y-53013970D01*
X114613502Y-52945849D01*
X114621460Y-52935120D01*
X114623096Y-52933489D01*
X114656882Y-52886471D01*
X119690884Y-52886471D01*
X119694570Y-52891740D01*
X119902121Y-53018927D01*
X119910915Y-53023408D01*
X120139242Y-53117984D01*
X120148627Y-53121033D01*
X120388940Y-53178728D01*
X120398687Y-53180271D01*
X120645070Y-53199662D01*
X120654930Y-53199662D01*
X120901313Y-53180271D01*
X120911060Y-53178728D01*
X121151373Y-53121033D01*
X121160758Y-53117984D01*
X121389085Y-53023408D01*
X121397879Y-53018927D01*
X121603928Y-52892660D01*
X121609190Y-52884599D01*
X121603183Y-52874393D01*
X120662812Y-51934022D01*
X120648868Y-51926408D01*
X120647035Y-51926539D01*
X120640420Y-51930790D01*
X119698276Y-52872934D01*
X119690884Y-52886471D01*
X114656882Y-52886471D01*
X114753453Y-52752077D01*
X114763665Y-52731416D01*
X114850136Y-52556453D01*
X114850137Y-52556451D01*
X114852430Y-52551811D01*
X114917370Y-52338069D01*
X114946529Y-52116590D01*
X114947829Y-52063373D01*
X114948074Y-52053365D01*
X114948074Y-52053361D01*
X114948156Y-52050000D01*
X114929852Y-51827361D01*
X114875431Y-51610702D01*
X114786354Y-51405840D01*
X114696677Y-51267220D01*
X114667822Y-51222617D01*
X114667820Y-51222614D01*
X114665014Y-51218277D01*
X114514670Y-51053051D01*
X114510619Y-51049852D01*
X114510615Y-51049848D01*
X114343414Y-50917800D01*
X114343410Y-50917798D01*
X114339359Y-50914598D01*
X114303028Y-50894542D01*
X114211970Y-50844276D01*
X114143789Y-50806638D01*
X114138920Y-50804914D01*
X114138916Y-50804912D01*
X113938087Y-50733795D01*
X113938083Y-50733794D01*
X113933212Y-50732069D01*
X113928119Y-50731162D01*
X113928116Y-50731161D01*
X113801160Y-50708547D01*
X113737602Y-50676909D01*
X113701239Y-50615932D01*
X113703616Y-50544975D01*
X113743977Y-50486567D01*
X113809509Y-50459252D01*
X113823256Y-50458500D01*
X119186008Y-50458500D01*
X119254129Y-50478502D01*
X119300622Y-50532158D01*
X119310726Y-50602432D01*
X119293441Y-50650335D01*
X119193073Y-50814121D01*
X119188592Y-50822915D01*
X119094016Y-51051242D01*
X119090967Y-51060627D01*
X119033272Y-51300940D01*
X119031729Y-51310687D01*
X119012338Y-51557070D01*
X119012338Y-51566930D01*
X119031729Y-51813313D01*
X119033272Y-51823060D01*
X119090967Y-52063373D01*
X119094016Y-52072758D01*
X119188592Y-52301085D01*
X119193073Y-52309879D01*
X119319340Y-52515928D01*
X119327401Y-52521190D01*
X119337607Y-52515183D01*
X120560905Y-51291885D01*
X120623217Y-51257859D01*
X120694032Y-51262924D01*
X120739095Y-51291885D01*
X121960934Y-52513724D01*
X121974471Y-52521116D01*
X121979740Y-52517430D01*
X122106927Y-52309879D01*
X122111408Y-52301085D01*
X122205984Y-52072758D01*
X122209033Y-52063373D01*
X122266728Y-51823060D01*
X122268271Y-51813313D01*
X122287662Y-51566930D01*
X122287662Y-51557070D01*
X122268271Y-51310687D01*
X122266728Y-51300940D01*
X122209033Y-51060627D01*
X122205984Y-51051242D01*
X122111408Y-50822915D01*
X122106927Y-50814121D01*
X122006559Y-50650335D01*
X121988021Y-50581801D01*
X122009477Y-50514124D01*
X122064117Y-50468792D01*
X122113992Y-50458500D01*
X124266008Y-50458500D01*
X124334129Y-50478502D01*
X124380622Y-50532158D01*
X124390726Y-50602432D01*
X124373441Y-50650335D01*
X124273073Y-50814121D01*
X124268592Y-50822915D01*
X124174016Y-51051242D01*
X124170967Y-51060627D01*
X124113272Y-51300940D01*
X124111729Y-51310687D01*
X124092338Y-51557070D01*
X124092338Y-51566930D01*
X124111729Y-51813313D01*
X124113272Y-51823060D01*
X124170967Y-52063373D01*
X124174016Y-52072758D01*
X124268592Y-52301085D01*
X124273073Y-52309879D01*
X124399340Y-52515928D01*
X124407401Y-52521190D01*
X124417607Y-52515183D01*
X125640905Y-51291885D01*
X125703217Y-51257859D01*
X125774032Y-51262924D01*
X125819095Y-51291885D01*
X127040934Y-52513724D01*
X127054471Y-52521116D01*
X127059740Y-52517430D01*
X127186927Y-52309879D01*
X127191408Y-52301085D01*
X127285984Y-52072758D01*
X127289033Y-52063373D01*
X127346728Y-51823060D01*
X127348271Y-51813313D01*
X127367662Y-51566930D01*
X127367662Y-51557070D01*
X127348271Y-51310687D01*
X127346728Y-51300940D01*
X127289033Y-51060627D01*
X127285984Y-51051242D01*
X127191408Y-50822915D01*
X127186927Y-50814121D01*
X127086559Y-50650335D01*
X127068021Y-50581801D01*
X127089477Y-50514124D01*
X127144117Y-50468792D01*
X127193992Y-50458500D01*
X129800673Y-50458500D01*
X129868794Y-50478502D01*
X129915287Y-50532158D01*
X129925391Y-50602432D01*
X129895897Y-50667012D01*
X129879968Y-50682420D01*
X129776165Y-50766478D01*
X129767700Y-50778733D01*
X129774034Y-50789824D01*
X132187188Y-53202978D01*
X132201132Y-53210592D01*
X132202965Y-53210461D01*
X132209580Y-53206210D01*
X134625100Y-50790690D01*
X134632241Y-50777614D01*
X134624784Y-50767247D01*
X134520032Y-50682420D01*
X134479680Y-50624006D01*
X134477316Y-50553048D01*
X134513688Y-50492077D01*
X134577251Y-50460449D01*
X134599327Y-50458500D01*
X135265047Y-50458500D01*
X135333168Y-50478502D01*
X135379661Y-50532158D01*
X135391047Y-50584590D01*
X135390560Y-51267220D01*
X135370509Y-51335326D01*
X135316821Y-51381781D01*
X135246539Y-51391835D01*
X135181980Y-51362296D01*
X135166640Y-51346424D01*
X135008523Y-51151167D01*
X134996267Y-51142700D01*
X134985176Y-51149034D01*
X132572022Y-53562188D01*
X132564408Y-53576132D01*
X132564539Y-53577965D01*
X132568790Y-53584580D01*
X134984310Y-56000100D01*
X134997386Y-56007241D01*
X135007755Y-55999783D01*
X135163345Y-55807645D01*
X135221759Y-55767293D01*
X135292716Y-55764927D01*
X135353688Y-55801300D01*
X135385316Y-55864863D01*
X135387265Y-55887029D01*
X135345824Y-113986976D01*
X135325773Y-114055082D01*
X135272085Y-114101537D01*
X135201803Y-114111591D01*
X135137244Y-114082052D01*
X135121904Y-114066180D01*
X135008523Y-113926167D01*
X134996267Y-113917700D01*
X134985176Y-113924034D01*
X132572022Y-116337188D01*
X132564408Y-116351132D01*
X132564539Y-116352965D01*
X132568790Y-116359580D01*
X134984310Y-118775100D01*
X134997386Y-118782241D01*
X135007753Y-118774784D01*
X135118531Y-118637985D01*
X135176945Y-118597633D01*
X135247902Y-118595268D01*
X135308874Y-118631641D01*
X135340502Y-118695204D01*
X135342451Y-118717364D01*
X135342026Y-119312241D01*
X135341953Y-119415022D01*
X135321902Y-119483128D01*
X135268213Y-119529583D01*
X135215840Y-119540932D01*
X135014173Y-119540752D01*
X134508078Y-119540299D01*
X134439977Y-119520236D01*
X134393533Y-119466539D01*
X134383492Y-119396256D01*
X134413042Y-119331701D01*
X134428898Y-119316379D01*
X134623835Y-119158522D01*
X134632300Y-119146267D01*
X134625966Y-119135176D01*
X132212812Y-116722022D01*
X132198868Y-116714408D01*
X132197035Y-116714539D01*
X132190420Y-116718790D01*
X129774900Y-119134310D01*
X129767759Y-119147386D01*
X129775216Y-119157753D01*
X129965992Y-119312241D01*
X130006344Y-119370655D01*
X130008709Y-119441612D01*
X129972336Y-119502584D01*
X129908773Y-119534212D01*
X129886584Y-119536161D01*
X85961751Y-119496837D01*
X85893648Y-119476774D01*
X85847204Y-119423077D01*
X85837163Y-119352794D01*
X85866713Y-119288239D01*
X85882569Y-119272917D01*
X86023835Y-119158522D01*
X86032300Y-119146267D01*
X86025966Y-119135176D01*
X83612812Y-116722022D01*
X83598868Y-116714408D01*
X83597035Y-116714539D01*
X83590420Y-116718790D01*
X81174900Y-119134310D01*
X81167759Y-119147386D01*
X81175216Y-119157753D01*
X81312204Y-119268684D01*
X81352556Y-119327098D01*
X81354921Y-119398055D01*
X81318548Y-119459027D01*
X81254985Y-119490655D01*
X81232799Y-119492604D01*
X80633933Y-119492068D01*
X80565831Y-119472005D01*
X80519387Y-119418308D01*
X80508047Y-119366158D01*
X80507628Y-118779212D01*
X80527581Y-118711078D01*
X80581204Y-118664547D01*
X80651471Y-118654393D01*
X80716072Y-118683840D01*
X80731548Y-118699828D01*
X80791478Y-118773834D01*
X80803733Y-118782300D01*
X80814824Y-118775966D01*
X83227978Y-116362812D01*
X83234356Y-116351132D01*
X83964408Y-116351132D01*
X83964539Y-116352965D01*
X83968790Y-116359580D01*
X86384310Y-118775100D01*
X86397386Y-118782241D01*
X86407753Y-118774784D01*
X86601877Y-118535061D01*
X86605747Y-118529735D01*
X86778011Y-118264471D01*
X95200884Y-118264471D01*
X95204570Y-118269740D01*
X95412121Y-118396927D01*
X95420915Y-118401408D01*
X95649242Y-118495984D01*
X95658627Y-118499033D01*
X95898940Y-118556728D01*
X95908687Y-118558271D01*
X96155070Y-118577662D01*
X96164930Y-118577662D01*
X96411313Y-118558271D01*
X96421060Y-118556728D01*
X96661373Y-118499033D01*
X96670758Y-118495984D01*
X96899085Y-118401408D01*
X96907879Y-118396927D01*
X97113928Y-118270660D01*
X97117968Y-118264471D01*
X100280884Y-118264471D01*
X100284570Y-118269740D01*
X100492121Y-118396927D01*
X100500915Y-118401408D01*
X100729242Y-118495984D01*
X100738627Y-118499033D01*
X100978940Y-118556728D01*
X100988687Y-118558271D01*
X101235070Y-118577662D01*
X101244930Y-118577662D01*
X101491313Y-118558271D01*
X101501060Y-118556728D01*
X101741373Y-118499033D01*
X101750758Y-118495984D01*
X101979085Y-118401408D01*
X101987879Y-118396927D01*
X102193928Y-118270660D01*
X102199190Y-118262599D01*
X102193183Y-118252393D01*
X101252812Y-117312022D01*
X101238868Y-117304408D01*
X101237035Y-117304539D01*
X101230420Y-117308790D01*
X100288276Y-118250934D01*
X100280884Y-118264471D01*
X97117968Y-118264471D01*
X97119190Y-118262599D01*
X97113183Y-118252393D01*
X96172812Y-117312022D01*
X96158868Y-117304408D01*
X96157035Y-117304539D01*
X96150420Y-117308790D01*
X95208276Y-118250934D01*
X95200884Y-118264471D01*
X86778011Y-118264471D01*
X86813831Y-118209313D01*
X86817128Y-118203603D01*
X86990578Y-117863189D01*
X86993260Y-117857164D01*
X87130171Y-117500498D01*
X87132212Y-117494216D01*
X87231094Y-117125184D01*
X87232465Y-117118734D01*
X87259993Y-116944930D01*
X94522338Y-116944930D01*
X94541729Y-117191313D01*
X94543272Y-117201060D01*
X94600967Y-117441373D01*
X94604016Y-117450758D01*
X94698592Y-117679085D01*
X94703073Y-117687879D01*
X94829340Y-117893928D01*
X94837401Y-117899190D01*
X94847607Y-117893183D01*
X95787978Y-116952812D01*
X95794356Y-116941132D01*
X96524408Y-116941132D01*
X96524539Y-116942965D01*
X96528790Y-116949580D01*
X97470934Y-117891724D01*
X97484471Y-117899116D01*
X97489740Y-117895430D01*
X97616927Y-117687879D01*
X97621408Y-117679085D01*
X97715984Y-117450758D01*
X97719033Y-117441373D01*
X97776728Y-117201060D01*
X97778271Y-117191313D01*
X97797662Y-116944930D01*
X99602338Y-116944930D01*
X99621729Y-117191313D01*
X99623272Y-117201060D01*
X99680967Y-117441373D01*
X99684016Y-117450758D01*
X99778592Y-117679085D01*
X99783073Y-117687879D01*
X99909340Y-117893928D01*
X99917401Y-117899190D01*
X99927607Y-117893183D01*
X100867978Y-116952812D01*
X100874356Y-116941132D01*
X101604408Y-116941132D01*
X101604539Y-116942965D01*
X101608790Y-116949580D01*
X102550934Y-117891724D01*
X102564471Y-117899116D01*
X102569740Y-117895430D01*
X102696927Y-117687879D01*
X102701408Y-117679085D01*
X102795984Y-117450758D01*
X102799033Y-117441373D01*
X102856728Y-117201060D01*
X102858271Y-117191313D01*
X102877662Y-116944930D01*
X102877662Y-116935070D01*
X102858271Y-116688687D01*
X102856728Y-116678940D01*
X102799033Y-116438627D01*
X102795984Y-116429242D01*
X102701408Y-116200915D01*
X102696927Y-116192121D01*
X102570660Y-115986072D01*
X102562599Y-115980810D01*
X102552393Y-115986817D01*
X101612022Y-116927188D01*
X101604408Y-116941132D01*
X100874356Y-116941132D01*
X100875592Y-116938868D01*
X100875461Y-116937035D01*
X100871210Y-116930420D01*
X99929066Y-115988276D01*
X99915529Y-115980884D01*
X99910260Y-115984570D01*
X99783073Y-116192121D01*
X99778592Y-116200915D01*
X99684016Y-116429242D01*
X99680967Y-116438627D01*
X99623272Y-116678940D01*
X99621729Y-116688687D01*
X99602338Y-116935070D01*
X99602338Y-116944930D01*
X97797662Y-116944930D01*
X97797662Y-116935070D01*
X97778271Y-116688687D01*
X97776728Y-116678940D01*
X97719033Y-116438627D01*
X97715984Y-116429242D01*
X97621408Y-116200915D01*
X97616927Y-116192121D01*
X97490660Y-115986072D01*
X97482599Y-115980810D01*
X97472393Y-115986817D01*
X96532022Y-116927188D01*
X96524408Y-116941132D01*
X95794356Y-116941132D01*
X95795592Y-116938868D01*
X95795461Y-116937035D01*
X95791210Y-116930420D01*
X94849066Y-115988276D01*
X94835529Y-115980884D01*
X94830260Y-115984570D01*
X94703073Y-116192121D01*
X94698592Y-116200915D01*
X94604016Y-116429242D01*
X94600967Y-116438627D01*
X94543272Y-116678940D01*
X94541729Y-116688687D01*
X94522338Y-116935070D01*
X94522338Y-116944930D01*
X87259993Y-116944930D01*
X87292234Y-116741371D01*
X87292920Y-116734833D01*
X87312916Y-116353301D01*
X87312916Y-116346699D01*
X87292920Y-115965167D01*
X87292234Y-115958629D01*
X87238188Y-115617401D01*
X95200810Y-115617401D01*
X95206817Y-115627607D01*
X96147188Y-116567978D01*
X96161132Y-116575592D01*
X96162965Y-116575461D01*
X96169580Y-116571210D01*
X97111724Y-115629066D01*
X97119116Y-115615529D01*
X97115430Y-115610260D01*
X96907879Y-115483073D01*
X96899085Y-115478592D01*
X96670758Y-115384016D01*
X96661373Y-115380967D01*
X96421060Y-115323272D01*
X96411313Y-115321729D01*
X96164930Y-115302338D01*
X96155070Y-115302338D01*
X95908687Y-115321729D01*
X95898940Y-115323272D01*
X95658627Y-115380967D01*
X95649242Y-115384016D01*
X95420915Y-115478592D01*
X95412121Y-115483073D01*
X95206072Y-115609340D01*
X95200810Y-115617401D01*
X87238188Y-115617401D01*
X87232465Y-115581266D01*
X87231094Y-115574816D01*
X87132212Y-115205784D01*
X87130171Y-115199502D01*
X86993260Y-114842836D01*
X86990578Y-114836811D01*
X86817128Y-114496397D01*
X86813831Y-114490687D01*
X86754938Y-114400000D01*
X97161758Y-114400000D01*
X97180696Y-114640634D01*
X97181850Y-114645441D01*
X97181851Y-114645447D01*
X97197016Y-114708612D01*
X97237045Y-114875343D01*
X97238938Y-114879914D01*
X97238939Y-114879916D01*
X97317562Y-115069728D01*
X97329416Y-115098347D01*
X97455536Y-115304156D01*
X97612299Y-115487701D01*
X97795844Y-115644464D01*
X98001653Y-115770584D01*
X98006223Y-115772477D01*
X98006227Y-115772479D01*
X98159328Y-115835895D01*
X98224657Y-115862955D01*
X98307039Y-115882733D01*
X98454553Y-115918149D01*
X98454559Y-115918150D01*
X98459366Y-115919304D01*
X98700000Y-115938242D01*
X98940634Y-115919304D01*
X98945441Y-115918150D01*
X98945447Y-115918149D01*
X99092961Y-115882733D01*
X99175343Y-115862955D01*
X99240672Y-115835895D01*
X99393773Y-115772479D01*
X99393777Y-115772477D01*
X99398347Y-115770584D01*
X99604156Y-115644464D01*
X99635843Y-115617401D01*
X100280810Y-115617401D01*
X100286817Y-115627607D01*
X101227188Y-116567978D01*
X101241132Y-116575592D01*
X101242965Y-116575461D01*
X101249580Y-116571210D01*
X102191724Y-115629066D01*
X102199116Y-115615529D01*
X102195430Y-115610260D01*
X101987879Y-115483073D01*
X101979085Y-115478592D01*
X101750758Y-115384016D01*
X101741373Y-115380967D01*
X101501060Y-115323272D01*
X101491313Y-115321729D01*
X101244930Y-115302338D01*
X101235070Y-115302338D01*
X100988687Y-115321729D01*
X100978940Y-115323272D01*
X100738627Y-115380967D01*
X100729242Y-115384016D01*
X100500915Y-115478592D01*
X100492121Y-115483073D01*
X100286072Y-115609340D01*
X100280810Y-115617401D01*
X99635843Y-115617401D01*
X99787701Y-115487701D01*
X99944464Y-115304156D01*
X99990570Y-115228918D01*
X103934417Y-115228918D01*
X103950182Y-115502320D01*
X103951007Y-115506525D01*
X103951008Y-115506533D01*
X103972760Y-115617401D01*
X104002905Y-115771053D01*
X104004292Y-115775103D01*
X104004293Y-115775108D01*
X104080816Y-115998612D01*
X104091612Y-116030144D01*
X104093539Y-116033975D01*
X104198024Y-116241721D01*
X104214660Y-116274799D01*
X104217086Y-116278328D01*
X104217089Y-116278334D01*
X104275150Y-116362812D01*
X104369774Y-116500490D01*
X104372661Y-116503663D01*
X104372662Y-116503664D01*
X104403468Y-116537519D01*
X104554082Y-116703043D01*
X104764175Y-116878707D01*
X104767816Y-116880991D01*
X104992524Y-117021951D01*
X104992528Y-117021953D01*
X104996164Y-117024234D01*
X105077709Y-117061053D01*
X105241845Y-117135164D01*
X105241849Y-117135166D01*
X105245757Y-117136930D01*
X105249877Y-117138150D01*
X105249876Y-117138150D01*
X105504223Y-117213491D01*
X105504227Y-117213492D01*
X105508336Y-117214709D01*
X105512570Y-117215357D01*
X105512575Y-117215358D01*
X105774798Y-117255483D01*
X105774800Y-117255483D01*
X105779040Y-117256132D01*
X105918412Y-117258322D01*
X106048571Y-117260367D01*
X106048577Y-117260367D01*
X106052862Y-117260434D01*
X106324735Y-117227534D01*
X106589627Y-117158041D01*
X106593587Y-117156401D01*
X106593592Y-117156399D01*
X106716132Y-117105641D01*
X106842636Y-117053241D01*
X106960859Y-116984157D01*
X107075379Y-116917237D01*
X107075380Y-116917236D01*
X107079082Y-116915073D01*
X107294589Y-116746094D01*
X107317917Y-116722022D01*
X107482186Y-116552509D01*
X107485169Y-116549431D01*
X107487702Y-116545983D01*
X107487706Y-116545978D01*
X107507583Y-116518918D01*
X119214417Y-116518918D01*
X119230182Y-116792320D01*
X119231007Y-116796525D01*
X119231008Y-116796533D01*
X119256642Y-116927188D01*
X119282905Y-117061053D01*
X119284292Y-117065103D01*
X119284293Y-117065108D01*
X119368831Y-117312022D01*
X119371612Y-117320144D01*
X119494660Y-117564799D01*
X119497086Y-117568328D01*
X119497089Y-117568334D01*
X119573207Y-117679085D01*
X119649774Y-117790490D01*
X119652661Y-117793663D01*
X119652662Y-117793664D01*
X119748615Y-117899116D01*
X119834082Y-117993043D01*
X120044175Y-118168707D01*
X120047816Y-118170991D01*
X120272524Y-118311951D01*
X120272528Y-118311953D01*
X120276164Y-118314234D01*
X120344044Y-118344883D01*
X120521845Y-118425164D01*
X120521849Y-118425166D01*
X120525757Y-118426930D01*
X120529877Y-118428150D01*
X120529876Y-118428150D01*
X120784223Y-118503491D01*
X120784227Y-118503492D01*
X120788336Y-118504709D01*
X120792570Y-118505357D01*
X120792575Y-118505358D01*
X121054798Y-118545483D01*
X121054800Y-118545483D01*
X121059040Y-118546132D01*
X121198412Y-118548322D01*
X121328571Y-118550367D01*
X121328577Y-118550367D01*
X121332862Y-118550434D01*
X121604735Y-118517534D01*
X121869627Y-118448041D01*
X121873587Y-118446401D01*
X121873592Y-118446399D01*
X121996132Y-118395641D01*
X122122636Y-118343241D01*
X122359082Y-118205073D01*
X122574589Y-118036094D01*
X122616309Y-117993043D01*
X122742146Y-117863189D01*
X122765169Y-117839431D01*
X122767702Y-117835983D01*
X122767706Y-117835978D01*
X122924757Y-117622178D01*
X122927295Y-117618723D01*
X122954654Y-117568334D01*
X123055918Y-117381830D01*
X123055919Y-117381828D01*
X123057968Y-117378054D01*
X123124848Y-117201060D01*
X123153251Y-117125895D01*
X123153252Y-117125891D01*
X123154769Y-117121877D01*
X123196165Y-116941132D01*
X123214949Y-116859117D01*
X123214950Y-116859113D01*
X123215907Y-116854933D01*
X123228058Y-116718790D01*
X123240031Y-116584627D01*
X123240031Y-116584625D01*
X123240251Y-116582161D01*
X123240693Y-116540000D01*
X123238000Y-116500490D01*
X123227966Y-116353301D01*
X128487084Y-116353301D01*
X128507080Y-116734833D01*
X128507766Y-116741371D01*
X128567535Y-117118734D01*
X128568906Y-117125184D01*
X128667788Y-117494216D01*
X128669829Y-117500498D01*
X128806740Y-117857164D01*
X128809422Y-117863189D01*
X128982872Y-118203603D01*
X128986169Y-118209313D01*
X129194253Y-118529735D01*
X129198123Y-118535061D01*
X129391478Y-118773835D01*
X129403733Y-118782300D01*
X129414824Y-118775966D01*
X131827978Y-116362812D01*
X131835592Y-116348868D01*
X131835461Y-116347035D01*
X131831210Y-116340420D01*
X129415690Y-113924900D01*
X129402614Y-113917759D01*
X129392247Y-113925216D01*
X129198123Y-114164939D01*
X129194253Y-114170265D01*
X128986169Y-114490687D01*
X128982872Y-114496397D01*
X128809422Y-114836811D01*
X128806740Y-114842836D01*
X128669829Y-115199502D01*
X128667788Y-115205784D01*
X128568906Y-115574816D01*
X128567535Y-115581266D01*
X128507766Y-115958629D01*
X128507080Y-115965167D01*
X128487084Y-116346699D01*
X128487084Y-116353301D01*
X123227966Y-116353301D01*
X123222359Y-116271055D01*
X123222358Y-116271049D01*
X123222067Y-116266778D01*
X123166532Y-115998612D01*
X123075117Y-115740465D01*
X122949513Y-115497112D01*
X122945154Y-115490909D01*
X122867885Y-115380967D01*
X122792045Y-115273057D01*
X122605625Y-115072445D01*
X122602310Y-115069731D01*
X122602306Y-115069728D01*
X122463244Y-114955907D01*
X122393705Y-114898990D01*
X122160204Y-114755901D01*
X122156268Y-114754173D01*
X121913373Y-114647549D01*
X121913369Y-114647548D01*
X121909445Y-114645825D01*
X121646066Y-114570800D01*
X121641824Y-114570196D01*
X121641818Y-114570195D01*
X121441334Y-114541662D01*
X121374943Y-114532213D01*
X121231089Y-114531460D01*
X121105377Y-114530802D01*
X121105371Y-114530802D01*
X121101091Y-114530780D01*
X121096847Y-114531339D01*
X121096843Y-114531339D01*
X120977802Y-114547011D01*
X120829578Y-114566525D01*
X120825438Y-114567658D01*
X120825436Y-114567658D01*
X120752508Y-114587609D01*
X120565428Y-114638788D01*
X120561480Y-114640472D01*
X120317482Y-114744546D01*
X120317478Y-114744548D01*
X120313530Y-114746232D01*
X120293625Y-114758145D01*
X120082225Y-114884664D01*
X120082221Y-114884667D01*
X120078543Y-114886868D01*
X119864818Y-115058094D01*
X119822615Y-115102567D01*
X119680349Y-115252484D01*
X119676308Y-115256742D01*
X119516502Y-115479136D01*
X119388357Y-115721161D01*
X119386885Y-115725184D01*
X119386883Y-115725188D01*
X119295714Y-115974317D01*
X119294243Y-115978337D01*
X119235904Y-116245907D01*
X119235568Y-116250177D01*
X119215618Y-116503664D01*
X119214417Y-116518918D01*
X107507583Y-116518918D01*
X107632497Y-116348868D01*
X107647295Y-116328723D01*
X107674654Y-116278334D01*
X107775918Y-116091830D01*
X107775919Y-116091828D01*
X107777968Y-116088054D01*
X107863026Y-115862955D01*
X107873251Y-115835895D01*
X107873252Y-115835891D01*
X107874769Y-115831877D01*
X107917692Y-115644464D01*
X107934949Y-115569117D01*
X107934950Y-115569113D01*
X107935907Y-115564933D01*
X107942514Y-115490909D01*
X107960031Y-115294627D01*
X107960031Y-115294625D01*
X107960251Y-115292161D01*
X107960693Y-115250000D01*
X107957679Y-115205784D01*
X107942359Y-114981055D01*
X107942358Y-114981049D01*
X107942067Y-114976778D01*
X107886532Y-114708612D01*
X107795117Y-114450465D01*
X107669513Y-114207112D01*
X107659540Y-114192921D01*
X107514508Y-113986562D01*
X107512045Y-113983057D01*
X107360927Y-113820434D01*
X107328546Y-113785588D01*
X107328543Y-113785585D01*
X107325625Y-113782445D01*
X107322310Y-113779731D01*
X107322306Y-113779728D01*
X107120905Y-113614883D01*
X107113705Y-113608990D01*
X106880204Y-113465901D01*
X106876268Y-113464173D01*
X106633373Y-113357549D01*
X106633369Y-113357548D01*
X106629445Y-113355825D01*
X106366066Y-113280800D01*
X106361824Y-113280196D01*
X106361818Y-113280195D01*
X106161334Y-113251662D01*
X106094943Y-113242213D01*
X105951089Y-113241460D01*
X105825377Y-113240802D01*
X105825371Y-113240802D01*
X105821091Y-113240780D01*
X105816847Y-113241339D01*
X105816843Y-113241339D01*
X105697802Y-113257011D01*
X105549578Y-113276525D01*
X105545438Y-113277658D01*
X105545436Y-113277658D01*
X105472508Y-113297609D01*
X105285428Y-113348788D01*
X105281480Y-113350472D01*
X105037482Y-113454546D01*
X105037478Y-113454548D01*
X105033530Y-113456232D01*
X104973624Y-113492085D01*
X104802225Y-113594664D01*
X104802221Y-113594667D01*
X104798543Y-113596868D01*
X104584818Y-113768094D01*
X104539232Y-113816132D01*
X104436015Y-113924900D01*
X104396308Y-113966742D01*
X104236502Y-114189136D01*
X104108357Y-114431161D01*
X104106885Y-114435184D01*
X104106883Y-114435188D01*
X104031759Y-114640472D01*
X104014243Y-114688337D01*
X103955904Y-114955907D01*
X103934417Y-115228918D01*
X99990570Y-115228918D01*
X100070584Y-115098347D01*
X100082439Y-115069728D01*
X100161061Y-114879916D01*
X100161062Y-114879914D01*
X100162955Y-114875343D01*
X100202984Y-114708612D01*
X100218149Y-114645447D01*
X100218150Y-114645441D01*
X100219304Y-114640634D01*
X100238242Y-114400000D01*
X100219304Y-114159366D01*
X100218150Y-114154559D01*
X100218149Y-114154553D01*
X100182112Y-114004451D01*
X100162955Y-113924657D01*
X100160098Y-113917759D01*
X100072479Y-113706227D01*
X100072477Y-113706223D01*
X100070584Y-113701653D01*
X99944464Y-113495844D01*
X99787701Y-113312299D01*
X99638034Y-113184471D01*
X100280884Y-113184471D01*
X100284570Y-113189740D01*
X100492121Y-113316927D01*
X100500915Y-113321408D01*
X100729242Y-113415984D01*
X100738627Y-113419033D01*
X100978940Y-113476728D01*
X100988687Y-113478271D01*
X101235070Y-113497662D01*
X101244930Y-113497662D01*
X101491313Y-113478271D01*
X101501060Y-113476728D01*
X101741373Y-113419033D01*
X101750758Y-113415984D01*
X101979085Y-113321408D01*
X101987879Y-113316927D01*
X102193928Y-113190660D01*
X102199190Y-113182599D01*
X102193183Y-113172393D01*
X101252812Y-112232022D01*
X101238868Y-112224408D01*
X101237035Y-112224539D01*
X101230420Y-112228790D01*
X100288276Y-113170934D01*
X100280884Y-113184471D01*
X99638034Y-113184471D01*
X99604156Y-113155536D01*
X99398347Y-113029416D01*
X99393777Y-113027523D01*
X99393773Y-113027521D01*
X99179916Y-112938939D01*
X99179914Y-112938938D01*
X99175343Y-112937045D01*
X99092961Y-112917267D01*
X98945447Y-112881851D01*
X98945441Y-112881850D01*
X98940634Y-112880696D01*
X98700000Y-112861758D01*
X98459366Y-112880696D01*
X98454559Y-112881850D01*
X98454553Y-112881851D01*
X98307039Y-112917267D01*
X98224657Y-112937045D01*
X98220086Y-112938938D01*
X98220084Y-112938939D01*
X98006227Y-113027521D01*
X98006223Y-113027523D01*
X98001653Y-113029416D01*
X97795844Y-113155536D01*
X97612299Y-113312299D01*
X97455536Y-113495844D01*
X97329416Y-113701653D01*
X97327523Y-113706223D01*
X97327521Y-113706227D01*
X97239902Y-113917759D01*
X97237045Y-113924657D01*
X97217888Y-114004451D01*
X97181851Y-114154553D01*
X97181850Y-114154559D01*
X97180696Y-114159366D01*
X97161758Y-114400000D01*
X86754938Y-114400000D01*
X86605747Y-114170265D01*
X86601877Y-114164939D01*
X86408522Y-113926165D01*
X86396267Y-113917700D01*
X86385176Y-113924034D01*
X83972022Y-116337188D01*
X83964408Y-116351132D01*
X83234356Y-116351132D01*
X83235592Y-116348868D01*
X83235461Y-116347035D01*
X83231210Y-116340420D01*
X80815690Y-113924900D01*
X80802614Y-113917759D01*
X80792247Y-113925216D01*
X80728083Y-114004451D01*
X80669668Y-114044803D01*
X80598711Y-114047167D01*
X80537740Y-114010794D01*
X80506112Y-113947232D01*
X80504164Y-113925253D01*
X80503899Y-113553733D01*
X81167700Y-113553733D01*
X81174034Y-113564824D01*
X83587188Y-115977978D01*
X83601132Y-115985592D01*
X83602965Y-115985461D01*
X83609580Y-115981210D01*
X86025100Y-113565690D01*
X86032241Y-113552614D01*
X86024784Y-113542247D01*
X85785065Y-113348126D01*
X85779728Y-113344249D01*
X85533692Y-113184471D01*
X95200884Y-113184471D01*
X95204570Y-113189740D01*
X95412121Y-113316927D01*
X95420915Y-113321408D01*
X95649242Y-113415984D01*
X95658627Y-113419033D01*
X95898940Y-113476728D01*
X95908687Y-113478271D01*
X96155070Y-113497662D01*
X96164930Y-113497662D01*
X96411313Y-113478271D01*
X96421060Y-113476728D01*
X96661373Y-113419033D01*
X96670758Y-113415984D01*
X96899085Y-113321408D01*
X96907879Y-113316927D01*
X97113928Y-113190660D01*
X97119190Y-113182599D01*
X97113183Y-113172393D01*
X96172812Y-112232022D01*
X96158868Y-112224408D01*
X96157035Y-112224539D01*
X96150420Y-112228790D01*
X95208276Y-113170934D01*
X95200884Y-113184471D01*
X85533692Y-113184471D01*
X85459315Y-113136170D01*
X85453606Y-113132873D01*
X85113189Y-112959422D01*
X85107164Y-112956740D01*
X84750498Y-112819829D01*
X84744216Y-112817788D01*
X84375184Y-112718906D01*
X84368734Y-112717535D01*
X83991371Y-112657766D01*
X83984833Y-112657080D01*
X83603301Y-112637084D01*
X83596699Y-112637084D01*
X83215167Y-112657080D01*
X83208629Y-112657766D01*
X82831266Y-112717535D01*
X82824816Y-112718906D01*
X82455784Y-112817788D01*
X82449502Y-112819829D01*
X82092836Y-112956740D01*
X82086811Y-112959422D01*
X81746397Y-113132872D01*
X81740687Y-113136169D01*
X81420265Y-113344253D01*
X81414939Y-113348123D01*
X81176165Y-113541478D01*
X81167700Y-113553733D01*
X80503899Y-113553733D01*
X80502693Y-111864930D01*
X94522338Y-111864930D01*
X94541729Y-112111313D01*
X94543272Y-112121060D01*
X94600967Y-112361373D01*
X94604016Y-112370758D01*
X94698592Y-112599085D01*
X94703073Y-112607879D01*
X94829340Y-112813928D01*
X94837401Y-112819190D01*
X94847607Y-112813183D01*
X95787978Y-111872812D01*
X95794356Y-111861132D01*
X96524408Y-111861132D01*
X96524539Y-111862965D01*
X96528790Y-111869580D01*
X97470934Y-112811724D01*
X97484471Y-112819116D01*
X97489740Y-112815430D01*
X97616927Y-112607879D01*
X97621408Y-112599085D01*
X97715984Y-112370758D01*
X97719033Y-112361373D01*
X97776728Y-112121060D01*
X97778271Y-112111313D01*
X97797662Y-111864930D01*
X99602338Y-111864930D01*
X99621729Y-112111313D01*
X99623272Y-112121060D01*
X99680967Y-112361373D01*
X99684016Y-112370758D01*
X99778592Y-112599085D01*
X99783073Y-112607879D01*
X99909340Y-112813928D01*
X99917401Y-112819190D01*
X99927607Y-112813183D01*
X100867978Y-111872812D01*
X100874356Y-111861132D01*
X101604408Y-111861132D01*
X101604539Y-111862965D01*
X101608790Y-111869580D01*
X102550934Y-112811724D01*
X102564471Y-112819116D01*
X102569740Y-112815430D01*
X102696927Y-112607879D01*
X102701408Y-112599085D01*
X102795984Y-112370758D01*
X102799033Y-112361373D01*
X102856728Y-112121060D01*
X102858271Y-112111313D01*
X102877662Y-111864930D01*
X102877662Y-111855070D01*
X102872456Y-111788918D01*
X119094417Y-111788918D01*
X119110182Y-112062320D01*
X119111007Y-112066525D01*
X119111008Y-112066533D01*
X119119794Y-112111313D01*
X119162905Y-112331053D01*
X119164292Y-112335103D01*
X119164293Y-112335108D01*
X119185105Y-112395895D01*
X119251612Y-112590144D01*
X119253539Y-112593975D01*
X119366810Y-112819190D01*
X119374660Y-112834799D01*
X119377086Y-112838328D01*
X119377089Y-112838334D01*
X119444138Y-112935890D01*
X119529774Y-113060490D01*
X119714082Y-113263043D01*
X119717377Y-113265798D01*
X119717378Y-113265799D01*
X119730206Y-113276525D01*
X119924175Y-113438707D01*
X119927816Y-113440991D01*
X120152524Y-113581951D01*
X120152528Y-113581953D01*
X120156164Y-113584234D01*
X120224044Y-113614883D01*
X120401845Y-113695164D01*
X120401849Y-113695166D01*
X120405757Y-113696930D01*
X120468893Y-113715632D01*
X120664223Y-113773491D01*
X120664227Y-113773492D01*
X120668336Y-113774709D01*
X120672570Y-113775357D01*
X120672575Y-113775358D01*
X120934798Y-113815483D01*
X120934800Y-113815483D01*
X120939040Y-113816132D01*
X121078412Y-113818322D01*
X121208571Y-113820367D01*
X121208577Y-113820367D01*
X121212862Y-113820434D01*
X121484735Y-113787534D01*
X121749627Y-113718041D01*
X121753587Y-113716401D01*
X121753592Y-113716399D01*
X121876132Y-113665641D01*
X122002636Y-113613241D01*
X122104472Y-113553733D01*
X129767700Y-113553733D01*
X129774034Y-113564824D01*
X132187188Y-115977978D01*
X132201132Y-115985592D01*
X132202965Y-115985461D01*
X132209580Y-115981210D01*
X134625100Y-113565690D01*
X134632241Y-113552614D01*
X134624784Y-113542247D01*
X134385065Y-113348126D01*
X134379728Y-113344249D01*
X134059315Y-113136170D01*
X134053606Y-113132873D01*
X133713189Y-112959422D01*
X133707164Y-112956740D01*
X133350498Y-112819829D01*
X133344216Y-112817788D01*
X132975184Y-112718906D01*
X132968734Y-112717535D01*
X132591371Y-112657766D01*
X132584833Y-112657080D01*
X132203301Y-112637084D01*
X132196699Y-112637084D01*
X131815167Y-112657080D01*
X131808629Y-112657766D01*
X131431266Y-112717535D01*
X131424816Y-112718906D01*
X131055784Y-112817788D01*
X131049502Y-112819829D01*
X130692836Y-112956740D01*
X130686811Y-112959422D01*
X130346397Y-113132872D01*
X130340687Y-113136169D01*
X130020265Y-113344253D01*
X130014939Y-113348123D01*
X129776165Y-113541478D01*
X129767700Y-113553733D01*
X122104472Y-113553733D01*
X122203537Y-113495844D01*
X122235379Y-113477237D01*
X122235380Y-113477236D01*
X122239082Y-113475073D01*
X122454589Y-113306094D01*
X122482146Y-113277658D01*
X122642186Y-113112509D01*
X122645169Y-113109431D01*
X122647702Y-113105983D01*
X122647706Y-113105978D01*
X122804757Y-112892178D01*
X122807295Y-112888723D01*
X122834654Y-112838334D01*
X122935918Y-112651830D01*
X122935919Y-112651828D01*
X122937968Y-112648054D01*
X123034769Y-112391877D01*
X123059607Y-112283427D01*
X123094949Y-112129117D01*
X123094950Y-112129113D01*
X123095907Y-112124933D01*
X123118697Y-111869580D01*
X123120031Y-111854627D01*
X123120031Y-111854625D01*
X123120251Y-111852161D01*
X123120693Y-111810000D01*
X123118965Y-111784648D01*
X123102359Y-111541055D01*
X123102358Y-111541049D01*
X123102067Y-111536778D01*
X123046532Y-111268612D01*
X122955117Y-111010465D01*
X122829513Y-110767112D01*
X122819540Y-110752921D01*
X122676268Y-110549066D01*
X122672045Y-110543057D01*
X122485625Y-110342445D01*
X122482310Y-110339731D01*
X122482306Y-110339728D01*
X122277023Y-110171706D01*
X122273705Y-110168990D01*
X122040204Y-110025901D01*
X122036268Y-110024173D01*
X121793373Y-109917549D01*
X121793369Y-109917548D01*
X121789445Y-109915825D01*
X121526066Y-109840800D01*
X121521824Y-109840196D01*
X121521818Y-109840195D01*
X121321334Y-109811662D01*
X121254943Y-109802213D01*
X121111089Y-109801460D01*
X120985377Y-109800802D01*
X120985371Y-109800802D01*
X120981091Y-109800780D01*
X120976847Y-109801339D01*
X120976843Y-109801339D01*
X120857802Y-109817011D01*
X120709578Y-109836525D01*
X120705438Y-109837658D01*
X120705436Y-109837658D01*
X120661685Y-109849627D01*
X120445428Y-109908788D01*
X120431685Y-109914650D01*
X120197482Y-110014546D01*
X120197478Y-110014548D01*
X120193530Y-110016232D01*
X120173625Y-110028145D01*
X119962225Y-110154664D01*
X119962221Y-110154667D01*
X119958543Y-110156868D01*
X119744818Y-110328094D01*
X119556308Y-110526742D01*
X119396502Y-110749136D01*
X119268357Y-110991161D01*
X119266885Y-110995184D01*
X119266883Y-110995188D01*
X119259814Y-111014506D01*
X119174243Y-111248337D01*
X119115904Y-111515907D01*
X119094417Y-111788918D01*
X102872456Y-111788918D01*
X102858271Y-111608687D01*
X102856728Y-111598940D01*
X102799033Y-111358627D01*
X102795984Y-111349242D01*
X102701408Y-111120915D01*
X102696927Y-111112121D01*
X102570660Y-110906072D01*
X102562599Y-110900810D01*
X102552393Y-110906817D01*
X101612022Y-111847188D01*
X101604408Y-111861132D01*
X100874356Y-111861132D01*
X100875592Y-111858868D01*
X100875461Y-111857035D01*
X100871210Y-111850420D01*
X99929066Y-110908276D01*
X99915529Y-110900884D01*
X99910260Y-110904570D01*
X99783073Y-111112121D01*
X99778592Y-111120915D01*
X99684016Y-111349242D01*
X99680967Y-111358627D01*
X99623272Y-111598940D01*
X99621729Y-111608687D01*
X99602338Y-111855070D01*
X99602338Y-111864930D01*
X97797662Y-111864930D01*
X97797662Y-111855070D01*
X97778271Y-111608687D01*
X97776728Y-111598940D01*
X97719033Y-111358627D01*
X97715984Y-111349242D01*
X97621408Y-111120915D01*
X97616927Y-111112121D01*
X97490660Y-110906072D01*
X97482599Y-110900810D01*
X97472393Y-110906817D01*
X96532022Y-111847188D01*
X96524408Y-111861132D01*
X95794356Y-111861132D01*
X95795592Y-111858868D01*
X95795461Y-111857035D01*
X95791210Y-111850420D01*
X94849066Y-110908276D01*
X94835529Y-110900884D01*
X94830260Y-110904570D01*
X94703073Y-111112121D01*
X94698592Y-111120915D01*
X94604016Y-111349242D01*
X94600967Y-111358627D01*
X94543272Y-111598940D01*
X94541729Y-111608687D01*
X94522338Y-111855070D01*
X94522338Y-111864930D01*
X80502693Y-111864930D01*
X80501745Y-110537401D01*
X95200810Y-110537401D01*
X95206817Y-110547607D01*
X96147188Y-111487978D01*
X96161132Y-111495592D01*
X96162965Y-111495461D01*
X96169580Y-111491210D01*
X97111724Y-110549066D01*
X97118094Y-110537401D01*
X100280810Y-110537401D01*
X100286817Y-110547607D01*
X101227188Y-111487978D01*
X101241132Y-111495592D01*
X101242965Y-111495461D01*
X101249580Y-111491210D01*
X102191724Y-110549066D01*
X102199116Y-110535529D01*
X102195430Y-110530260D01*
X101987879Y-110403073D01*
X101979085Y-110398592D01*
X101750758Y-110304016D01*
X101741373Y-110300967D01*
X101501060Y-110243272D01*
X101491313Y-110241729D01*
X101244930Y-110222338D01*
X101235070Y-110222338D01*
X100988687Y-110241729D01*
X100978940Y-110243272D01*
X100738627Y-110300967D01*
X100729242Y-110304016D01*
X100500915Y-110398592D01*
X100492121Y-110403073D01*
X100286072Y-110529340D01*
X100280810Y-110537401D01*
X97118094Y-110537401D01*
X97119116Y-110535529D01*
X97115430Y-110530260D01*
X96907879Y-110403073D01*
X96899085Y-110398592D01*
X96670758Y-110304016D01*
X96661373Y-110300967D01*
X96421060Y-110243272D01*
X96411313Y-110241729D01*
X96164930Y-110222338D01*
X96155070Y-110222338D01*
X95908687Y-110241729D01*
X95898940Y-110243272D01*
X95658627Y-110300967D01*
X95649242Y-110304016D01*
X95420915Y-110398592D01*
X95412121Y-110403073D01*
X95206072Y-110529340D01*
X95200810Y-110537401D01*
X80501745Y-110537401D01*
X80501247Y-109839654D01*
X104723118Y-109839654D01*
X104730173Y-109849627D01*
X104761179Y-109875551D01*
X104768098Y-109880579D01*
X104992772Y-110021515D01*
X105000307Y-110025556D01*
X105242020Y-110134694D01*
X105250051Y-110137680D01*
X105504332Y-110213002D01*
X105512684Y-110214869D01*
X105774840Y-110254984D01*
X105783374Y-110255700D01*
X106048545Y-110259867D01*
X106057096Y-110259418D01*
X106320383Y-110227557D01*
X106328784Y-110225955D01*
X106585324Y-110158653D01*
X106593426Y-110155926D01*
X106838449Y-110054434D01*
X106846117Y-110050628D01*
X107075098Y-109916822D01*
X107082179Y-109912009D01*
X107162155Y-109849301D01*
X107170625Y-109837442D01*
X107164108Y-109825818D01*
X105960312Y-108622022D01*
X105946368Y-108614408D01*
X105944535Y-108614539D01*
X105937920Y-108618790D01*
X104730410Y-109826300D01*
X104723118Y-109839654D01*
X80501247Y-109839654D01*
X80500841Y-109270713D01*
X80500785Y-109191692D01*
X80520738Y-109123557D01*
X80574361Y-109077026D01*
X80644628Y-109066872D01*
X80692620Y-109084169D01*
X80887721Y-109203727D01*
X80896515Y-109208208D01*
X81124842Y-109302784D01*
X81134227Y-109305833D01*
X81374540Y-109363528D01*
X81384287Y-109365071D01*
X81630670Y-109384462D01*
X81640530Y-109384462D01*
X81886913Y-109365071D01*
X81896660Y-109363528D01*
X82136973Y-109305833D01*
X82146358Y-109302784D01*
X82374685Y-109208208D01*
X82383479Y-109203727D01*
X82589528Y-109077460D01*
X82593568Y-109071271D01*
X85756484Y-109071271D01*
X85760170Y-109076540D01*
X85967721Y-109203727D01*
X85976515Y-109208208D01*
X86204842Y-109302784D01*
X86214227Y-109305833D01*
X86454540Y-109363528D01*
X86464287Y-109365071D01*
X86710670Y-109384462D01*
X86720530Y-109384462D01*
X86966913Y-109365071D01*
X86976660Y-109363528D01*
X87216973Y-109305833D01*
X87226358Y-109302784D01*
X87454685Y-109208208D01*
X87463479Y-109203727D01*
X87669528Y-109077460D01*
X87674790Y-109069399D01*
X87668783Y-109059193D01*
X86728412Y-108118822D01*
X86714468Y-108111208D01*
X86712635Y-108111339D01*
X86706020Y-108115590D01*
X85763876Y-109057734D01*
X85756484Y-109071271D01*
X82593568Y-109071271D01*
X82594790Y-109069399D01*
X82588783Y-109059193D01*
X81365485Y-107835895D01*
X81331459Y-107773583D01*
X81333294Y-107747932D01*
X82000008Y-107747932D01*
X82000139Y-107749765D01*
X82004390Y-107756380D01*
X82946534Y-108698524D01*
X82960071Y-108705916D01*
X82965340Y-108702230D01*
X83092527Y-108494679D01*
X83097008Y-108485885D01*
X83191584Y-108257558D01*
X83194633Y-108248173D01*
X83252328Y-108007860D01*
X83253871Y-107998113D01*
X83273262Y-107751730D01*
X85077938Y-107751730D01*
X85097329Y-107998113D01*
X85098872Y-108007860D01*
X85156567Y-108248173D01*
X85159616Y-108257558D01*
X85254192Y-108485885D01*
X85258673Y-108494679D01*
X85384940Y-108700728D01*
X85393001Y-108705990D01*
X85403207Y-108699983D01*
X86343578Y-107759612D01*
X86349956Y-107747932D01*
X87080008Y-107747932D01*
X87080139Y-107749765D01*
X87084390Y-107756380D01*
X88026534Y-108698524D01*
X88040071Y-108705916D01*
X88045340Y-108702230D01*
X88172527Y-108494679D01*
X88177008Y-108485885D01*
X88271584Y-108257558D01*
X88274633Y-108248173D01*
X88278227Y-108233204D01*
X103935165Y-108233204D01*
X103950432Y-108497969D01*
X103951505Y-108506470D01*
X104002565Y-108766722D01*
X104004776Y-108774974D01*
X104090684Y-109025894D01*
X104093999Y-109033779D01*
X104213164Y-109270713D01*
X104217520Y-109278079D01*
X104346847Y-109466250D01*
X104357101Y-109474594D01*
X104370842Y-109467448D01*
X105575478Y-108262812D01*
X105581856Y-108251132D01*
X106311908Y-108251132D01*
X106312039Y-108252965D01*
X106316290Y-108259580D01*
X107523230Y-109466520D01*
X107535439Y-109473187D01*
X107546939Y-109464497D01*
X107644331Y-109331913D01*
X107648918Y-109324685D01*
X107775462Y-109091621D01*
X107779030Y-109083827D01*
X107872771Y-108835750D01*
X107875248Y-108827544D01*
X107934454Y-108569038D01*
X107935794Y-108560577D01*
X107959531Y-108294616D01*
X107959777Y-108289677D01*
X107960166Y-108252485D01*
X107960023Y-108247519D01*
X107941862Y-107981123D01*
X107940701Y-107972649D01*
X107886919Y-107712944D01*
X107884620Y-107704709D01*
X107796088Y-107454705D01*
X107792691Y-107446854D01*
X107671050Y-107211178D01*
X107666622Y-107203866D01*
X107656116Y-107188918D01*
X118904417Y-107188918D01*
X118920182Y-107462320D01*
X118921007Y-107466525D01*
X118921008Y-107466533D01*
X118926689Y-107495487D01*
X118972905Y-107731053D01*
X118974292Y-107735103D01*
X118974293Y-107735108D01*
X119048482Y-107951795D01*
X119061612Y-107990144D01*
X119184660Y-108234799D01*
X119187086Y-108238328D01*
X119187089Y-108238334D01*
X119225771Y-108294616D01*
X119339774Y-108460490D01*
X119342661Y-108463663D01*
X119342662Y-108463664D01*
X119479828Y-108614408D01*
X119524082Y-108663043D01*
X119734175Y-108838707D01*
X119737816Y-108840991D01*
X119962524Y-108981951D01*
X119962528Y-108981953D01*
X119966164Y-108984234D01*
X120075894Y-109033779D01*
X120211845Y-109095164D01*
X120211849Y-109095166D01*
X120215757Y-109096930D01*
X120219877Y-109098150D01*
X120219876Y-109098150D01*
X120474223Y-109173491D01*
X120474227Y-109173492D01*
X120478336Y-109174709D01*
X120482570Y-109175357D01*
X120482575Y-109175358D01*
X120744798Y-109215483D01*
X120744800Y-109215483D01*
X120749040Y-109216132D01*
X120888412Y-109218322D01*
X121018571Y-109220367D01*
X121018577Y-109220367D01*
X121022862Y-109220434D01*
X121294735Y-109187534D01*
X121559627Y-109118041D01*
X121563587Y-109116401D01*
X121563592Y-109116399D01*
X121705221Y-109057734D01*
X121812636Y-109013241D01*
X122049082Y-108875073D01*
X122264589Y-108706094D01*
X122268334Y-108702230D01*
X122452186Y-108512509D01*
X122455169Y-108509431D01*
X122457702Y-108505983D01*
X122457706Y-108505978D01*
X122614757Y-108292178D01*
X122617295Y-108288723D01*
X122631364Y-108262812D01*
X122745918Y-108051830D01*
X122745919Y-108051828D01*
X122747968Y-108048054D01*
X122844769Y-107791877D01*
X122905907Y-107524933D01*
X122912876Y-107446854D01*
X122930031Y-107254627D01*
X122930031Y-107254625D01*
X122930251Y-107252161D01*
X122930693Y-107210000D01*
X122929548Y-107193198D01*
X122912359Y-106941055D01*
X122912358Y-106941049D01*
X122912067Y-106936778D01*
X122856532Y-106668612D01*
X122765117Y-106410465D01*
X122639513Y-106167112D01*
X122629540Y-106152921D01*
X122484508Y-105946562D01*
X122482045Y-105943057D01*
X122295625Y-105742445D01*
X122292310Y-105739731D01*
X122292306Y-105739728D01*
X122087023Y-105571706D01*
X122083705Y-105568990D01*
X121850204Y-105425901D01*
X121846268Y-105424173D01*
X121603373Y-105317549D01*
X121603369Y-105317548D01*
X121599445Y-105315825D01*
X121336066Y-105240800D01*
X121331824Y-105240196D01*
X121331818Y-105240195D01*
X121131334Y-105211662D01*
X121064943Y-105202213D01*
X120921089Y-105201460D01*
X120795377Y-105200802D01*
X120795371Y-105200802D01*
X120791091Y-105200780D01*
X120786847Y-105201339D01*
X120786843Y-105201339D01*
X120667802Y-105217011D01*
X120519578Y-105236525D01*
X120515438Y-105237658D01*
X120515436Y-105237658D01*
X120442508Y-105257609D01*
X120255428Y-105308788D01*
X120251480Y-105310472D01*
X120007482Y-105414546D01*
X120007478Y-105414548D01*
X120003530Y-105416232D01*
X119951395Y-105447434D01*
X119772225Y-105554664D01*
X119772221Y-105554667D01*
X119768543Y-105556868D01*
X119554818Y-105728094D01*
X119366308Y-105926742D01*
X119206502Y-106149136D01*
X119078357Y-106391161D01*
X119076885Y-106395184D01*
X119076883Y-106395188D01*
X118985714Y-106644317D01*
X118984243Y-106648337D01*
X118925904Y-106915907D01*
X118904417Y-107188918D01*
X107656116Y-107188918D01*
X107547531Y-107034417D01*
X107537009Y-107026037D01*
X107523621Y-107033089D01*
X106319522Y-108237188D01*
X106311908Y-108251132D01*
X105581856Y-108251132D01*
X105583092Y-108248868D01*
X105582961Y-108247035D01*
X105578710Y-108240420D01*
X104371314Y-107033024D01*
X104359304Y-107026466D01*
X104347564Y-107035434D01*
X104239435Y-107185911D01*
X104234918Y-107193196D01*
X104110825Y-107427567D01*
X104107339Y-107435395D01*
X104016200Y-107684446D01*
X104013811Y-107692670D01*
X103957312Y-107951795D01*
X103956063Y-107960250D01*
X103935254Y-108224653D01*
X103935165Y-108233204D01*
X88278227Y-108233204D01*
X88332328Y-108007860D01*
X88333871Y-107998113D01*
X88353262Y-107751730D01*
X88353262Y-107741870D01*
X88333871Y-107495487D01*
X88332328Y-107485740D01*
X88274633Y-107245427D01*
X88271584Y-107236042D01*
X88177008Y-107007715D01*
X88172527Y-106998921D01*
X88046260Y-106792872D01*
X88038199Y-106787610D01*
X88027993Y-106793617D01*
X87087622Y-107733988D01*
X87080008Y-107747932D01*
X86349956Y-107747932D01*
X86351192Y-107745668D01*
X86351061Y-107743835D01*
X86346810Y-107737220D01*
X85404666Y-106795076D01*
X85391129Y-106787684D01*
X85385860Y-106791370D01*
X85258673Y-106998921D01*
X85254192Y-107007715D01*
X85159616Y-107236042D01*
X85156567Y-107245427D01*
X85098872Y-107485740D01*
X85097329Y-107495487D01*
X85077938Y-107741870D01*
X85077938Y-107751730D01*
X83273262Y-107751730D01*
X83273262Y-107741870D01*
X83253871Y-107495487D01*
X83252328Y-107485740D01*
X83194633Y-107245427D01*
X83191584Y-107236042D01*
X83097008Y-107007715D01*
X83092527Y-106998921D01*
X82966260Y-106792872D01*
X82958199Y-106787610D01*
X82947993Y-106793617D01*
X82007622Y-107733988D01*
X82000008Y-107747932D01*
X81333294Y-107747932D01*
X81336524Y-107702768D01*
X81365485Y-107657705D01*
X82587324Y-106435866D01*
X82594716Y-106422329D01*
X82591030Y-106417060D01*
X82383479Y-106289873D01*
X82374685Y-106285392D01*
X82146358Y-106190816D01*
X82136973Y-106187767D01*
X81896660Y-106130072D01*
X81886913Y-106128529D01*
X81640530Y-106109138D01*
X81630670Y-106109138D01*
X81384287Y-106128529D01*
X81374540Y-106130072D01*
X81134227Y-106187767D01*
X81124842Y-106190816D01*
X80896515Y-106285392D01*
X80887721Y-106289873D01*
X80690559Y-106410694D01*
X80622025Y-106429232D01*
X80554349Y-106407776D01*
X80509016Y-106353136D01*
X80498724Y-106303351D01*
X80497941Y-105206800D01*
X82637358Y-105206800D01*
X82656296Y-105447434D01*
X82657450Y-105452241D01*
X82657451Y-105452247D01*
X82682040Y-105554664D01*
X82712645Y-105682143D01*
X82714538Y-105686714D01*
X82714539Y-105686716D01*
X82738925Y-105745588D01*
X82805016Y-105905147D01*
X82931136Y-106110956D01*
X83087899Y-106294501D01*
X83271444Y-106451264D01*
X83477253Y-106577384D01*
X83481823Y-106579277D01*
X83481827Y-106579279D01*
X83695684Y-106667861D01*
X83700257Y-106669755D01*
X83782639Y-106689533D01*
X83930153Y-106724949D01*
X83930159Y-106724950D01*
X83934966Y-106726104D01*
X84175600Y-106745042D01*
X84416234Y-106726104D01*
X84421041Y-106724950D01*
X84421047Y-106724949D01*
X84568561Y-106689533D01*
X84650943Y-106669755D01*
X84655516Y-106667861D01*
X84869373Y-106579279D01*
X84869377Y-106579277D01*
X84873947Y-106577384D01*
X85079756Y-106451264D01*
X85111443Y-106424201D01*
X85756410Y-106424201D01*
X85762417Y-106434407D01*
X86702788Y-107374778D01*
X86716732Y-107382392D01*
X86718565Y-107382261D01*
X86725180Y-107378010D01*
X87440690Y-106662500D01*
X104724084Y-106662500D01*
X104730480Y-106673770D01*
X105934688Y-107877978D01*
X105948632Y-107885592D01*
X105950465Y-107885461D01*
X105957080Y-107881210D01*
X107164104Y-106674186D01*
X107171295Y-106661017D01*
X107163973Y-106650780D01*
X107116733Y-106612115D01*
X107109761Y-106607160D01*
X106883622Y-106468582D01*
X106876052Y-106464624D01*
X106633204Y-106358022D01*
X106625144Y-106355120D01*
X106370092Y-106282467D01*
X106361714Y-106280685D01*
X106099156Y-106243318D01*
X106090611Y-106242691D01*
X105825408Y-106241302D01*
X105816874Y-106241839D01*
X105553933Y-106276456D01*
X105545535Y-106278149D01*
X105289738Y-106348127D01*
X105281643Y-106350946D01*
X105037699Y-106454997D01*
X105030077Y-106458881D01*
X104802513Y-106595075D01*
X104795481Y-106599962D01*
X104732553Y-106650377D01*
X104724084Y-106662500D01*
X87440690Y-106662500D01*
X87667324Y-106435866D01*
X87674716Y-106422329D01*
X87671030Y-106417060D01*
X87463479Y-106289873D01*
X87454685Y-106285392D01*
X87226358Y-106190816D01*
X87216973Y-106187767D01*
X86976660Y-106130072D01*
X86966913Y-106128529D01*
X86720530Y-106109138D01*
X86710670Y-106109138D01*
X86464287Y-106128529D01*
X86454540Y-106130072D01*
X86214227Y-106187767D01*
X86204842Y-106190816D01*
X85976515Y-106285392D01*
X85967721Y-106289873D01*
X85761672Y-106416140D01*
X85756410Y-106424201D01*
X85111443Y-106424201D01*
X85263301Y-106294501D01*
X85420064Y-106110956D01*
X85546184Y-105905147D01*
X85612276Y-105745588D01*
X85636661Y-105686716D01*
X85636662Y-105686714D01*
X85638555Y-105682143D01*
X85669160Y-105554664D01*
X85693749Y-105452247D01*
X85693750Y-105452241D01*
X85694904Y-105447434D01*
X85713842Y-105206800D01*
X85694904Y-104966166D01*
X85693750Y-104961359D01*
X85693749Y-104961353D01*
X85639710Y-104736269D01*
X85638555Y-104731457D01*
X85546184Y-104508453D01*
X85420064Y-104302644D01*
X85263301Y-104119099D01*
X85113634Y-103991271D01*
X85756484Y-103991271D01*
X85760170Y-103996540D01*
X85967721Y-104123727D01*
X85976515Y-104128208D01*
X86204842Y-104222784D01*
X86214227Y-104225833D01*
X86454540Y-104283528D01*
X86464287Y-104285071D01*
X86710670Y-104304462D01*
X86720530Y-104304462D01*
X86966913Y-104285071D01*
X86976660Y-104283528D01*
X87216973Y-104225833D01*
X87226358Y-104222784D01*
X87454685Y-104128208D01*
X87463479Y-104123727D01*
X87669528Y-103997460D01*
X87674790Y-103989399D01*
X87668783Y-103979193D01*
X86728412Y-103038822D01*
X86714468Y-103031208D01*
X86712635Y-103031339D01*
X86706020Y-103035590D01*
X85763876Y-103977734D01*
X85756484Y-103991271D01*
X85113634Y-103991271D01*
X85079756Y-103962336D01*
X84873947Y-103836216D01*
X84869377Y-103834323D01*
X84869373Y-103834321D01*
X84655516Y-103745739D01*
X84655514Y-103745738D01*
X84650943Y-103743845D01*
X84568561Y-103724067D01*
X84421047Y-103688651D01*
X84421041Y-103688650D01*
X84416234Y-103687496D01*
X84175600Y-103668558D01*
X83934966Y-103687496D01*
X83930159Y-103688650D01*
X83930153Y-103688651D01*
X83782639Y-103724067D01*
X83700257Y-103743845D01*
X83695686Y-103745738D01*
X83695684Y-103745739D01*
X83481827Y-103834321D01*
X83481823Y-103834323D01*
X83477253Y-103836216D01*
X83271444Y-103962336D01*
X83087899Y-104119099D01*
X82931136Y-104302644D01*
X82805016Y-104508453D01*
X82712645Y-104731457D01*
X82711490Y-104736269D01*
X82657451Y-104961353D01*
X82657450Y-104961359D01*
X82656296Y-104966166D01*
X82637358Y-105206800D01*
X80497941Y-105206800D01*
X80497298Y-104306858D01*
X80497157Y-104109467D01*
X80517110Y-104041334D01*
X80570733Y-103994803D01*
X80641000Y-103984649D01*
X80688992Y-104001946D01*
X80887721Y-104123727D01*
X80896515Y-104128208D01*
X81124842Y-104222784D01*
X81134227Y-104225833D01*
X81374540Y-104283528D01*
X81384287Y-104285071D01*
X81630670Y-104304462D01*
X81640530Y-104304462D01*
X81886913Y-104285071D01*
X81896660Y-104283528D01*
X82136973Y-104225833D01*
X82146358Y-104222784D01*
X82374685Y-104128208D01*
X82383479Y-104123727D01*
X82589528Y-103997460D01*
X82594790Y-103989399D01*
X82588783Y-103979193D01*
X81365485Y-102755895D01*
X81331459Y-102693583D01*
X81333294Y-102667932D01*
X82000008Y-102667932D01*
X82000139Y-102669765D01*
X82004390Y-102676380D01*
X82946534Y-103618524D01*
X82960071Y-103625916D01*
X82965340Y-103622230D01*
X83092527Y-103414679D01*
X83097008Y-103405885D01*
X83191584Y-103177558D01*
X83194633Y-103168173D01*
X83252328Y-102927860D01*
X83253871Y-102918113D01*
X83273262Y-102671730D01*
X85077938Y-102671730D01*
X85097329Y-102918113D01*
X85098872Y-102927860D01*
X85156567Y-103168173D01*
X85159616Y-103177558D01*
X85254192Y-103405885D01*
X85258673Y-103414679D01*
X85384940Y-103620728D01*
X85393001Y-103625990D01*
X85403207Y-103619983D01*
X86343578Y-102679612D01*
X86349956Y-102667932D01*
X87080008Y-102667932D01*
X87080139Y-102669765D01*
X87084390Y-102676380D01*
X88026534Y-103618524D01*
X88040071Y-103625916D01*
X88045340Y-103622230D01*
X88172527Y-103414679D01*
X88177008Y-103405885D01*
X88271584Y-103177558D01*
X88274633Y-103168173D01*
X88332328Y-102927860D01*
X88333871Y-102918113D01*
X88353262Y-102671730D01*
X88353262Y-102661870D01*
X88333871Y-102415487D01*
X88332328Y-102405740D01*
X88274633Y-102165427D01*
X88271584Y-102156042D01*
X88177008Y-101927715D01*
X88172527Y-101918921D01*
X88046260Y-101712872D01*
X88038199Y-101707610D01*
X88027993Y-101713617D01*
X87087622Y-102653988D01*
X87080008Y-102667932D01*
X86349956Y-102667932D01*
X86351192Y-102665668D01*
X86351061Y-102663835D01*
X86346810Y-102657220D01*
X85404666Y-101715076D01*
X85391129Y-101707684D01*
X85385860Y-101711370D01*
X85258673Y-101918921D01*
X85254192Y-101927715D01*
X85159616Y-102156042D01*
X85156567Y-102165427D01*
X85098872Y-102405740D01*
X85097329Y-102415487D01*
X85077938Y-102661870D01*
X85077938Y-102671730D01*
X83273262Y-102671730D01*
X83273262Y-102661870D01*
X83253871Y-102415487D01*
X83252328Y-102405740D01*
X83194633Y-102165427D01*
X83191584Y-102156042D01*
X83097008Y-101927715D01*
X83092527Y-101918921D01*
X82966260Y-101712872D01*
X82958199Y-101707610D01*
X82947993Y-101713617D01*
X82007622Y-102653988D01*
X82000008Y-102667932D01*
X81333294Y-102667932D01*
X81336524Y-102622768D01*
X81365485Y-102577705D01*
X82587324Y-101355866D01*
X82593694Y-101344201D01*
X85756410Y-101344201D01*
X85762417Y-101354407D01*
X86702788Y-102294778D01*
X86716732Y-102302392D01*
X86718565Y-102302261D01*
X86725180Y-102298010D01*
X87667324Y-101355866D01*
X87674716Y-101342329D01*
X87671030Y-101337060D01*
X87463479Y-101209873D01*
X87454685Y-101205392D01*
X87226358Y-101110816D01*
X87216973Y-101107767D01*
X86976660Y-101050072D01*
X86966913Y-101048529D01*
X86720530Y-101029138D01*
X86710670Y-101029138D01*
X86464287Y-101048529D01*
X86454540Y-101050072D01*
X86214227Y-101107767D01*
X86204842Y-101110816D01*
X85976515Y-101205392D01*
X85967721Y-101209873D01*
X85761672Y-101336140D01*
X85756410Y-101344201D01*
X82593694Y-101344201D01*
X82594716Y-101342329D01*
X82591030Y-101337060D01*
X82383479Y-101209873D01*
X82374685Y-101205392D01*
X82146358Y-101110816D01*
X82136973Y-101107767D01*
X81896660Y-101050072D01*
X81886913Y-101048529D01*
X81640530Y-101029138D01*
X81630670Y-101029138D01*
X81384287Y-101048529D01*
X81374540Y-101050072D01*
X81134227Y-101107767D01*
X81124842Y-101110816D01*
X80896515Y-101205392D01*
X80887721Y-101209873D01*
X80686934Y-101332915D01*
X80618400Y-101351453D01*
X80550723Y-101329996D01*
X80505390Y-101275357D01*
X80495099Y-101225572D01*
X80494460Y-100330000D01*
X120498496Y-100330000D01*
X120518458Y-100519928D01*
X120577473Y-100701556D01*
X120672960Y-100866944D01*
X120800747Y-101008866D01*
X120828649Y-101029138D01*
X120941069Y-101110816D01*
X120955248Y-101121118D01*
X120961276Y-101123802D01*
X120961278Y-101123803D01*
X121123681Y-101196109D01*
X121129712Y-101198794D01*
X121223112Y-101218647D01*
X121310056Y-101237128D01*
X121310061Y-101237128D01*
X121316513Y-101238500D01*
X121507487Y-101238500D01*
X121513939Y-101237128D01*
X121513944Y-101237128D01*
X121600887Y-101218647D01*
X121694288Y-101198794D01*
X121700319Y-101196109D01*
X121862722Y-101123803D01*
X121862724Y-101123802D01*
X121868752Y-101121118D01*
X121882932Y-101110816D01*
X121995351Y-101029138D01*
X122023253Y-101008866D01*
X122151040Y-100866944D01*
X122246527Y-100701556D01*
X122305542Y-100519928D01*
X122325504Y-100330000D01*
X122305542Y-100140072D01*
X122246527Y-99958444D01*
X122151040Y-99793056D01*
X122023253Y-99651134D01*
X121868752Y-99538882D01*
X121862724Y-99536198D01*
X121862722Y-99536197D01*
X121700319Y-99463891D01*
X121700318Y-99463891D01*
X121694288Y-99461206D01*
X121600887Y-99441353D01*
X121513944Y-99422872D01*
X121513939Y-99422872D01*
X121507487Y-99421500D01*
X121316513Y-99421500D01*
X121310061Y-99422872D01*
X121310056Y-99422872D01*
X121223113Y-99441353D01*
X121129712Y-99461206D01*
X121123682Y-99463891D01*
X121123681Y-99463891D01*
X120961278Y-99536197D01*
X120961276Y-99536198D01*
X120955248Y-99538882D01*
X120800747Y-99651134D01*
X120672960Y-99793056D01*
X120577473Y-99958444D01*
X120518458Y-100140072D01*
X120498496Y-100330000D01*
X80494460Y-100330000D01*
X80490419Y-94668279D01*
X80510372Y-94600144D01*
X80563995Y-94553613D01*
X80634262Y-94543459D01*
X80698249Y-94572378D01*
X80719812Y-94590794D01*
X80727792Y-94596592D01*
X80938521Y-94725727D01*
X80947315Y-94730208D01*
X81175642Y-94824784D01*
X81185027Y-94827833D01*
X81425340Y-94885528D01*
X81435087Y-94887071D01*
X81681470Y-94906462D01*
X81691330Y-94906462D01*
X81937713Y-94887071D01*
X81947460Y-94885528D01*
X82187773Y-94827833D01*
X82197158Y-94824784D01*
X82425485Y-94730208D01*
X82434279Y-94725727D01*
X82640328Y-94599460D01*
X82644368Y-94593271D01*
X85807284Y-94593271D01*
X85810970Y-94598540D01*
X86018521Y-94725727D01*
X86027315Y-94730208D01*
X86255642Y-94824784D01*
X86265027Y-94827833D01*
X86505340Y-94885528D01*
X86515087Y-94887071D01*
X86761470Y-94906462D01*
X86771330Y-94906462D01*
X87017713Y-94887071D01*
X87027460Y-94885528D01*
X87267773Y-94827833D01*
X87277158Y-94824784D01*
X87505485Y-94730208D01*
X87514279Y-94725727D01*
X87720328Y-94599460D01*
X87725590Y-94591399D01*
X87719583Y-94581193D01*
X86779212Y-93640822D01*
X86765268Y-93633208D01*
X86763435Y-93633339D01*
X86756820Y-93637590D01*
X85814676Y-94579734D01*
X85807284Y-94593271D01*
X82644368Y-94593271D01*
X82645590Y-94591399D01*
X82639583Y-94581193D01*
X81416285Y-93357895D01*
X81382259Y-93295583D01*
X81384094Y-93269932D01*
X82050808Y-93269932D01*
X82050939Y-93271765D01*
X82055190Y-93278380D01*
X82997334Y-94220524D01*
X83010871Y-94227916D01*
X83016140Y-94224230D01*
X83143327Y-94016679D01*
X83147808Y-94007885D01*
X83242384Y-93779558D01*
X83245433Y-93770173D01*
X83303128Y-93529860D01*
X83304671Y-93520113D01*
X83324062Y-93273730D01*
X85128738Y-93273730D01*
X85148129Y-93520113D01*
X85149672Y-93529860D01*
X85207367Y-93770173D01*
X85210416Y-93779558D01*
X85304992Y-94007885D01*
X85309473Y-94016679D01*
X85435740Y-94222728D01*
X85443801Y-94227990D01*
X85454007Y-94221983D01*
X86394378Y-93281612D01*
X86400756Y-93269932D01*
X87130808Y-93269932D01*
X87130939Y-93271765D01*
X87135190Y-93278380D01*
X88077334Y-94220524D01*
X88090871Y-94227916D01*
X88096140Y-94224230D01*
X88223327Y-94016679D01*
X88227808Y-94007885D01*
X88322384Y-93779558D01*
X88325433Y-93770173D01*
X88383128Y-93529860D01*
X88384671Y-93520113D01*
X88404062Y-93273730D01*
X88404062Y-93263870D01*
X88384671Y-93017487D01*
X88383128Y-93007740D01*
X88325433Y-92767427D01*
X88322384Y-92758042D01*
X88227808Y-92529715D01*
X88223327Y-92520921D01*
X88097060Y-92314872D01*
X88088999Y-92309610D01*
X88078793Y-92315617D01*
X87138422Y-93255988D01*
X87130808Y-93269932D01*
X86400756Y-93269932D01*
X86401992Y-93267668D01*
X86401861Y-93265835D01*
X86397610Y-93259220D01*
X85455466Y-92317076D01*
X85441929Y-92309684D01*
X85436660Y-92313370D01*
X85309473Y-92520921D01*
X85304992Y-92529715D01*
X85210416Y-92758042D01*
X85207367Y-92767427D01*
X85149672Y-93007740D01*
X85148129Y-93017487D01*
X85128738Y-93263870D01*
X85128738Y-93273730D01*
X83324062Y-93273730D01*
X83324062Y-93263870D01*
X83304671Y-93017487D01*
X83303128Y-93007740D01*
X83245433Y-92767427D01*
X83242384Y-92758042D01*
X83147808Y-92529715D01*
X83143327Y-92520921D01*
X83017060Y-92314872D01*
X83008999Y-92309610D01*
X82998793Y-92315617D01*
X82058422Y-93255988D01*
X82050808Y-93269932D01*
X81384094Y-93269932D01*
X81387324Y-93224768D01*
X81416285Y-93179705D01*
X82638124Y-91957866D01*
X82645516Y-91944329D01*
X82641830Y-91939060D01*
X82434279Y-91811873D01*
X82425485Y-91807392D01*
X82197158Y-91712816D01*
X82187773Y-91709767D01*
X81947460Y-91652072D01*
X81937713Y-91650529D01*
X81691330Y-91631138D01*
X81681470Y-91631138D01*
X81435087Y-91650529D01*
X81425340Y-91652072D01*
X81185027Y-91709767D01*
X81175642Y-91712816D01*
X80947315Y-91807392D01*
X80938521Y-91811873D01*
X80727792Y-91941008D01*
X80719819Y-91946800D01*
X80696253Y-91966928D01*
X80631463Y-91995959D01*
X80561263Y-91985354D01*
X80507941Y-91938480D01*
X80488422Y-91871207D01*
X80488381Y-91813001D01*
X80488054Y-91355387D01*
X80487607Y-90728800D01*
X82688158Y-90728800D01*
X82707096Y-90969434D01*
X82708250Y-90974241D01*
X82708251Y-90974247D01*
X82729492Y-91062721D01*
X82763445Y-91204143D01*
X82765338Y-91208714D01*
X82765339Y-91208716D01*
X82852087Y-91418144D01*
X82855816Y-91427147D01*
X82981936Y-91632956D01*
X83094978Y-91765311D01*
X83134476Y-91811556D01*
X83138699Y-91816501D01*
X83322244Y-91973264D01*
X83528053Y-92099384D01*
X83532623Y-92101277D01*
X83532627Y-92101279D01*
X83743749Y-92188728D01*
X83751057Y-92191755D01*
X83833439Y-92211533D01*
X83980953Y-92246949D01*
X83980959Y-92246950D01*
X83985766Y-92248104D01*
X84226400Y-92267042D01*
X84467034Y-92248104D01*
X84471841Y-92246950D01*
X84471847Y-92246949D01*
X84619361Y-92211533D01*
X84701743Y-92191755D01*
X84709051Y-92188728D01*
X84920173Y-92101279D01*
X84920177Y-92101277D01*
X84924747Y-92099384D01*
X85130556Y-91973264D01*
X85162243Y-91946201D01*
X85807210Y-91946201D01*
X85813217Y-91956407D01*
X86753588Y-92896778D01*
X86767532Y-92904392D01*
X86769365Y-92904261D01*
X86775980Y-92900010D01*
X87718124Y-91957866D01*
X87725516Y-91944329D01*
X87721830Y-91939060D01*
X87514279Y-91811873D01*
X87505485Y-91807392D01*
X87277158Y-91712816D01*
X87267773Y-91709767D01*
X87027460Y-91652072D01*
X87017713Y-91650529D01*
X86771330Y-91631138D01*
X86761470Y-91631138D01*
X86515087Y-91650529D01*
X86505340Y-91652072D01*
X86265027Y-91709767D01*
X86255642Y-91712816D01*
X86027315Y-91807392D01*
X86018521Y-91811873D01*
X85812472Y-91938140D01*
X85807210Y-91946201D01*
X85162243Y-91946201D01*
X85314101Y-91816501D01*
X85318325Y-91811556D01*
X85357822Y-91765311D01*
X85470864Y-91632956D01*
X85596984Y-91427147D01*
X85600714Y-91418144D01*
X85687461Y-91208716D01*
X85687462Y-91208714D01*
X85689355Y-91204143D01*
X85723308Y-91062721D01*
X85744549Y-90974247D01*
X85744550Y-90974241D01*
X85745704Y-90969434D01*
X85764642Y-90728800D01*
X85745704Y-90488166D01*
X85744550Y-90483359D01*
X85744549Y-90483353D01*
X85696320Y-90282467D01*
X85689355Y-90253457D01*
X85687461Y-90248884D01*
X85598879Y-90035027D01*
X85598877Y-90035023D01*
X85596984Y-90030453D01*
X85470864Y-89824644D01*
X85314101Y-89641099D01*
X85164434Y-89513271D01*
X85807284Y-89513271D01*
X85810970Y-89518540D01*
X86018521Y-89645727D01*
X86027315Y-89650208D01*
X86255642Y-89744784D01*
X86265027Y-89747833D01*
X86505340Y-89805528D01*
X86515087Y-89807071D01*
X86761470Y-89826462D01*
X86771330Y-89826462D01*
X87017713Y-89807071D01*
X87027460Y-89805528D01*
X87267773Y-89747833D01*
X87277158Y-89744784D01*
X87505485Y-89650208D01*
X87514279Y-89645727D01*
X87720328Y-89519460D01*
X87725590Y-89511399D01*
X87719583Y-89501193D01*
X86779212Y-88560822D01*
X86765268Y-88553208D01*
X86763435Y-88553339D01*
X86756820Y-88557590D01*
X85814676Y-89499734D01*
X85807284Y-89513271D01*
X85164434Y-89513271D01*
X85130556Y-89484336D01*
X84924747Y-89358216D01*
X84920177Y-89356323D01*
X84920173Y-89356321D01*
X84706316Y-89267739D01*
X84706314Y-89267738D01*
X84701743Y-89265845D01*
X84583562Y-89237472D01*
X84471847Y-89210651D01*
X84471841Y-89210650D01*
X84467034Y-89209496D01*
X84226400Y-89190558D01*
X83985766Y-89209496D01*
X83980959Y-89210650D01*
X83980953Y-89210651D01*
X83869238Y-89237472D01*
X83751057Y-89265845D01*
X83746486Y-89267738D01*
X83746484Y-89267739D01*
X83532627Y-89356321D01*
X83532623Y-89356323D01*
X83528053Y-89358216D01*
X83322244Y-89484336D01*
X83138699Y-89641099D01*
X82981936Y-89824644D01*
X82855816Y-90030453D01*
X82853923Y-90035023D01*
X82853921Y-90035027D01*
X82765339Y-90248884D01*
X82763445Y-90253457D01*
X82756480Y-90282467D01*
X82708251Y-90483353D01*
X82708250Y-90483359D01*
X82707096Y-90488166D01*
X82688158Y-90728800D01*
X80487607Y-90728800D01*
X80486791Y-89585180D01*
X80506744Y-89517045D01*
X80560367Y-89470514D01*
X80630634Y-89460360D01*
X80694622Y-89489279D01*
X80719819Y-89510800D01*
X80727792Y-89516592D01*
X80938521Y-89645727D01*
X80947315Y-89650208D01*
X81175642Y-89744784D01*
X81185027Y-89747833D01*
X81425340Y-89805528D01*
X81435087Y-89807071D01*
X81681470Y-89826462D01*
X81691330Y-89826462D01*
X81937713Y-89807071D01*
X81947460Y-89805528D01*
X82187773Y-89747833D01*
X82197158Y-89744784D01*
X82425485Y-89650208D01*
X82434279Y-89645727D01*
X82640328Y-89519460D01*
X82645590Y-89511399D01*
X82639583Y-89501193D01*
X81416285Y-88277895D01*
X81382259Y-88215583D01*
X81384094Y-88189932D01*
X82050808Y-88189932D01*
X82050939Y-88191765D01*
X82055190Y-88198380D01*
X82997334Y-89140524D01*
X83010871Y-89147916D01*
X83016140Y-89144230D01*
X83143327Y-88936679D01*
X83147808Y-88927885D01*
X83242384Y-88699558D01*
X83245433Y-88690173D01*
X83303128Y-88449860D01*
X83304671Y-88440113D01*
X83324062Y-88193730D01*
X85128738Y-88193730D01*
X85148129Y-88440113D01*
X85149672Y-88449860D01*
X85207367Y-88690173D01*
X85210416Y-88699558D01*
X85304992Y-88927885D01*
X85309473Y-88936679D01*
X85435740Y-89142728D01*
X85443801Y-89147990D01*
X85454007Y-89141983D01*
X86394378Y-88201612D01*
X86400756Y-88189932D01*
X87130808Y-88189932D01*
X87130939Y-88191765D01*
X87135190Y-88198380D01*
X88077334Y-89140524D01*
X88090871Y-89147916D01*
X88096140Y-89144230D01*
X88223327Y-88936679D01*
X88227808Y-88927885D01*
X88322384Y-88699558D01*
X88325433Y-88690173D01*
X88383128Y-88449860D01*
X88384671Y-88440113D01*
X88404062Y-88193730D01*
X88404062Y-88183870D01*
X88384671Y-87937487D01*
X88383128Y-87927740D01*
X88325433Y-87687427D01*
X88322384Y-87678042D01*
X88227808Y-87449715D01*
X88223327Y-87440921D01*
X88097060Y-87234872D01*
X88088999Y-87229610D01*
X88078793Y-87235617D01*
X87138422Y-88175988D01*
X87130808Y-88189932D01*
X86400756Y-88189932D01*
X86401992Y-88187668D01*
X86401861Y-88185835D01*
X86397610Y-88179220D01*
X85455466Y-87237076D01*
X85441929Y-87229684D01*
X85436660Y-87233370D01*
X85309473Y-87440921D01*
X85304992Y-87449715D01*
X85210416Y-87678042D01*
X85207367Y-87687427D01*
X85149672Y-87927740D01*
X85148129Y-87937487D01*
X85128738Y-88183870D01*
X85128738Y-88193730D01*
X83324062Y-88193730D01*
X83324062Y-88183870D01*
X83304671Y-87937487D01*
X83303128Y-87927740D01*
X83245433Y-87687427D01*
X83242384Y-87678042D01*
X83147808Y-87449715D01*
X83143327Y-87440921D01*
X83017060Y-87234872D01*
X83008999Y-87229610D01*
X82998793Y-87235617D01*
X82058422Y-88175988D01*
X82050808Y-88189932D01*
X81384094Y-88189932D01*
X81387324Y-88144768D01*
X81416285Y-88099705D01*
X82638124Y-86877866D01*
X82644494Y-86866201D01*
X85807210Y-86866201D01*
X85813217Y-86876407D01*
X86753588Y-87816778D01*
X86767532Y-87824392D01*
X86769365Y-87824261D01*
X86775980Y-87820010D01*
X87718124Y-86877866D01*
X87725516Y-86864329D01*
X87721830Y-86859060D01*
X87514279Y-86731873D01*
X87505485Y-86727392D01*
X87277158Y-86632816D01*
X87267773Y-86629767D01*
X87027460Y-86572072D01*
X87017713Y-86570529D01*
X86771330Y-86551138D01*
X86761470Y-86551138D01*
X86515087Y-86570529D01*
X86505340Y-86572072D01*
X86265027Y-86629767D01*
X86255642Y-86632816D01*
X86027315Y-86727392D01*
X86018521Y-86731873D01*
X85812472Y-86858140D01*
X85807210Y-86866201D01*
X82644494Y-86866201D01*
X82645516Y-86864329D01*
X82641830Y-86859060D01*
X82434279Y-86731873D01*
X82425485Y-86727392D01*
X82197158Y-86632816D01*
X82187773Y-86629767D01*
X81947460Y-86572072D01*
X81937713Y-86570529D01*
X81691330Y-86551138D01*
X81681470Y-86551138D01*
X81435087Y-86570529D01*
X81425340Y-86572072D01*
X81185027Y-86629767D01*
X81175642Y-86632816D01*
X80947315Y-86727392D01*
X80938521Y-86731873D01*
X80727792Y-86861008D01*
X80719819Y-86866801D01*
X80692629Y-86890023D01*
X80627839Y-86919054D01*
X80557639Y-86908449D01*
X80504316Y-86861574D01*
X80484798Y-86794302D01*
X80484754Y-86732749D01*
X80482299Y-83294269D01*
X81282401Y-83294269D01*
X81282771Y-83301090D01*
X81288295Y-83351952D01*
X81291921Y-83367204D01*
X81337076Y-83487654D01*
X81345614Y-83503249D01*
X81422115Y-83605324D01*
X81434676Y-83617885D01*
X81536751Y-83694386D01*
X81552346Y-83702924D01*
X81672794Y-83748078D01*
X81688049Y-83751705D01*
X81738914Y-83757231D01*
X81745728Y-83757600D01*
X82918285Y-83757600D01*
X82933524Y-83753125D01*
X82934729Y-83751735D01*
X82936400Y-83744052D01*
X82936400Y-83739484D01*
X83444400Y-83739484D01*
X83448875Y-83754723D01*
X83450265Y-83755928D01*
X83457948Y-83757599D01*
X84635069Y-83757599D01*
X84641890Y-83757229D01*
X84692752Y-83751705D01*
X84708004Y-83748079D01*
X84828454Y-83702924D01*
X84844049Y-83694386D01*
X84946124Y-83617885D01*
X84958685Y-83605324D01*
X85035186Y-83503249D01*
X85043724Y-83487654D01*
X85088878Y-83367206D01*
X85092505Y-83351951D01*
X85098031Y-83301086D01*
X85098400Y-83294272D01*
X85098400Y-82121715D01*
X85093925Y-82106476D01*
X85092535Y-82105271D01*
X85084852Y-82103600D01*
X83462515Y-82103600D01*
X83447276Y-82108075D01*
X83446071Y-82109465D01*
X83444400Y-82117148D01*
X83444400Y-83739484D01*
X82936400Y-83739484D01*
X82936400Y-82121715D01*
X82931925Y-82106476D01*
X82930535Y-82105271D01*
X82922852Y-82103600D01*
X81300516Y-82103600D01*
X81285277Y-82108075D01*
X81284072Y-82109465D01*
X81282401Y-82117148D01*
X81282401Y-83294269D01*
X80482299Y-83294269D01*
X80481074Y-81577485D01*
X81282400Y-81577485D01*
X81286875Y-81592724D01*
X81288265Y-81593929D01*
X81295948Y-81595600D01*
X82918285Y-81595600D01*
X82933524Y-81591125D01*
X82934729Y-81589735D01*
X82936400Y-81582052D01*
X82936400Y-81577485D01*
X83444400Y-81577485D01*
X83448875Y-81592724D01*
X83450265Y-81593929D01*
X83457948Y-81595600D01*
X85080284Y-81595600D01*
X85095523Y-81591125D01*
X85096728Y-81589735D01*
X85098399Y-81582052D01*
X85098399Y-80404931D01*
X85098029Y-80398110D01*
X85092505Y-80347248D01*
X85088879Y-80331996D01*
X85043724Y-80211546D01*
X85035186Y-80195951D01*
X84958685Y-80093876D01*
X84946124Y-80081315D01*
X84844049Y-80004814D01*
X84828454Y-79996276D01*
X84708006Y-79951122D01*
X84692751Y-79947495D01*
X84641886Y-79941969D01*
X84635072Y-79941600D01*
X83462515Y-79941600D01*
X83447276Y-79946075D01*
X83446071Y-79947465D01*
X83444400Y-79955148D01*
X83444400Y-81577485D01*
X82936400Y-81577485D01*
X82936400Y-79959716D01*
X82931925Y-79944477D01*
X82930535Y-79943272D01*
X82922852Y-79941601D01*
X81745731Y-79941601D01*
X81738910Y-79941971D01*
X81688048Y-79947495D01*
X81672796Y-79951121D01*
X81552346Y-79996276D01*
X81536751Y-80004814D01*
X81434676Y-80081315D01*
X81422115Y-80093876D01*
X81345614Y-80195951D01*
X81337076Y-80211546D01*
X81291922Y-80331994D01*
X81288295Y-80347249D01*
X81282769Y-80398114D01*
X81282400Y-80404928D01*
X81282400Y-81577485D01*
X80481074Y-81577485D01*
X80477657Y-76789499D01*
X81277969Y-76789499D01*
X81278144Y-76793951D01*
X81288371Y-77054234D01*
X81288580Y-77059563D01*
X81337137Y-77325437D01*
X81422672Y-77581817D01*
X81431616Y-77599716D01*
X81540111Y-77816848D01*
X81543478Y-77823587D01*
X81567123Y-77857799D01*
X81649963Y-77977658D01*
X81697144Y-78045924D01*
X81880605Y-78244390D01*
X81884059Y-78247202D01*
X81884060Y-78247203D01*
X81950504Y-78301297D01*
X82090199Y-78415027D01*
X82094017Y-78417326D01*
X82094019Y-78417327D01*
X82194139Y-78477604D01*
X82321746Y-78554430D01*
X82325841Y-78556164D01*
X82325843Y-78556165D01*
X82566524Y-78658080D01*
X82566531Y-78658082D01*
X82570625Y-78659816D01*
X82664584Y-78684729D01*
X82827572Y-78727945D01*
X82827577Y-78727946D01*
X82831869Y-78729084D01*
X82836278Y-78729606D01*
X82836284Y-78729607D01*
X82985610Y-78747280D01*
X83100268Y-78760851D01*
X83370464Y-78754483D01*
X83374859Y-78753751D01*
X83374864Y-78753751D01*
X83632667Y-78710841D01*
X83632671Y-78710840D01*
X83637069Y-78710108D01*
X83830392Y-78648968D01*
X83890514Y-78629954D01*
X83890516Y-78629953D01*
X83894760Y-78628611D01*
X83898771Y-78626685D01*
X83898776Y-78626683D01*
X84134379Y-78513548D01*
X84134380Y-78513547D01*
X84138398Y-78511618D01*
X84282957Y-78415027D01*
X84359413Y-78363941D01*
X84359417Y-78363938D01*
X84363121Y-78361463D01*
X84366438Y-78358492D01*
X84366442Y-78358489D01*
X84561129Y-78184112D01*
X84564445Y-78181142D01*
X84738353Y-77974254D01*
X84773797Y-77917421D01*
X84826814Y-77870207D01*
X84880707Y-77858100D01*
X85002557Y-77858100D01*
X85016164Y-77858837D01*
X85047662Y-77862259D01*
X85047667Y-77862259D01*
X85053788Y-77862924D01*
X85080038Y-77860627D01*
X85103788Y-77858550D01*
X85108614Y-77858221D01*
X85111086Y-77858100D01*
X85114169Y-77858100D01*
X85126138Y-77856926D01*
X85156906Y-77853910D01*
X85158219Y-77853788D01*
X85202484Y-77849915D01*
X85250813Y-77845687D01*
X85255932Y-77844200D01*
X85261233Y-77843680D01*
X85350234Y-77816809D01*
X85351367Y-77816474D01*
X85434814Y-77792230D01*
X85434818Y-77792228D01*
X85440736Y-77790509D01*
X85445468Y-77788056D01*
X85450569Y-77786516D01*
X85456012Y-77783622D01*
X85532660Y-77742869D01*
X85533826Y-77742257D01*
X85610853Y-77702329D01*
X85616326Y-77699492D01*
X85620489Y-77696169D01*
X85625196Y-77693666D01*
X85697318Y-77634845D01*
X85698174Y-77634154D01*
X85737373Y-77602862D01*
X85739877Y-77600358D01*
X85740595Y-77599716D01*
X85744928Y-77596015D01*
X85778462Y-77568665D01*
X85807688Y-77533337D01*
X85815677Y-77524558D01*
X87672372Y-75667863D01*
X89539229Y-73801005D01*
X89601541Y-73766979D01*
X89628324Y-73764100D01*
X90456534Y-73764100D01*
X90518716Y-73757345D01*
X90601310Y-73726382D01*
X90672116Y-73721199D01*
X90734634Y-73755269D01*
X91919167Y-74939801D01*
X91944497Y-74976144D01*
X92015898Y-75131024D01*
X92133479Y-75297397D01*
X92137613Y-75301424D01*
X92253541Y-75414356D01*
X92279410Y-75439557D01*
X92284206Y-75442762D01*
X92284209Y-75442764D01*
X92352149Y-75488160D01*
X92448803Y-75552742D01*
X92454106Y-75555020D01*
X92454109Y-75555022D01*
X92630680Y-75630883D01*
X92635987Y-75633163D01*
X92708817Y-75649643D01*
X92829055Y-75676850D01*
X92829060Y-75676851D01*
X92834692Y-75678125D01*
X92840463Y-75678352D01*
X92840465Y-75678352D01*
X92903470Y-75680827D01*
X93038263Y-75686123D01*
X93239883Y-75656890D01*
X93245347Y-75655035D01*
X93245352Y-75655034D01*
X93427327Y-75593262D01*
X93427332Y-75593260D01*
X93432799Y-75591404D01*
X93479283Y-75565372D01*
X93531471Y-75536145D01*
X93610551Y-75491858D01*
X93767186Y-75361586D01*
X93817222Y-75301424D01*
X93893763Y-75209394D01*
X93893764Y-75209393D01*
X93897458Y-75204951D01*
X93897745Y-75204439D01*
X93951506Y-75160692D01*
X94012704Y-75151484D01*
X94034321Y-75153626D01*
X94049676Y-75145513D01*
X94607979Y-74587211D01*
X94615592Y-74573268D01*
X94615461Y-74571434D01*
X94611210Y-74564820D01*
X94048538Y-74002149D01*
X94034601Y-73994539D01*
X94004552Y-73996688D01*
X93935178Y-73981597D01*
X93894604Y-73946398D01*
X93810758Y-73834115D01*
X93810758Y-73834114D01*
X93807305Y-73829491D01*
X93657703Y-73691200D01*
X93485404Y-73582488D01*
X93449223Y-73568053D01*
X93391213Y-73544909D01*
X93348809Y-73516974D01*
X91668055Y-71836221D01*
X91658953Y-71826078D01*
X91639097Y-71801382D01*
X91635232Y-71796575D01*
X91596778Y-71764308D01*
X91593131Y-71761128D01*
X91591319Y-71759485D01*
X91589125Y-71757291D01*
X91555851Y-71729958D01*
X91555053Y-71729296D01*
X91483726Y-71669446D01*
X91479056Y-71666878D01*
X91474939Y-71663497D01*
X91393114Y-71619623D01*
X91391955Y-71618994D01*
X91315819Y-71577138D01*
X91315811Y-71577135D01*
X91310413Y-71574167D01*
X91305331Y-71572555D01*
X91300637Y-71570038D01*
X91211669Y-71542838D01*
X91210641Y-71542518D01*
X91121894Y-71514365D01*
X91116598Y-71513771D01*
X91111502Y-71512213D01*
X91018943Y-71502810D01*
X91017807Y-71502689D01*
X90984192Y-71498919D01*
X90971470Y-71497492D01*
X90971466Y-71497492D01*
X90967973Y-71497100D01*
X90964446Y-71497100D01*
X90963461Y-71497045D01*
X90957781Y-71496598D01*
X90931682Y-71493947D01*
X90920864Y-71492848D01*
X90920861Y-71492848D01*
X90914738Y-71492226D01*
X90909312Y-71492739D01*
X90841497Y-71472570D01*
X90809163Y-71442378D01*
X90800760Y-71431166D01*
X90775911Y-71364663D01*
X90790962Y-71295280D01*
X90800754Y-71280042D01*
X90812378Y-71264532D01*
X90869237Y-71222019D01*
X90913202Y-71214100D01*
X93185676Y-71214100D01*
X93253797Y-71234102D01*
X93274771Y-71251005D01*
X93522075Y-71498309D01*
X93524452Y-71500262D01*
X93524457Y-71500266D01*
X93558832Y-71528502D01*
X93636261Y-71592103D01*
X93810563Y-71685562D01*
X93816456Y-71687364D01*
X93816459Y-71687365D01*
X93993804Y-71741586D01*
X93999698Y-71743388D01*
X94005829Y-71744011D01*
X94005830Y-71744011D01*
X94048468Y-71748342D01*
X94089752Y-71752535D01*
X94155502Y-71779318D01*
X94166114Y-71788795D01*
X95470595Y-73093276D01*
X95504621Y-73155588D01*
X95507500Y-73182371D01*
X95507500Y-73405915D01*
X95487498Y-73474036D01*
X95433842Y-73520529D01*
X95363568Y-73530633D01*
X95334809Y-73522945D01*
X95301396Y-73509615D01*
X95290373Y-73506349D01*
X95101982Y-73468876D01*
X95090535Y-73467673D01*
X94898477Y-73465159D01*
X94886997Y-73466062D01*
X94697697Y-73498590D01*
X94686577Y-73501570D01*
X94506365Y-73568053D01*
X94495991Y-73573001D01*
X94412385Y-73622742D01*
X94402788Y-73633075D01*
X94406275Y-73641465D01*
X95250115Y-74485305D01*
X95284141Y-74547617D01*
X95279076Y-74618432D01*
X95250115Y-74663495D01*
X94980000Y-74933610D01*
X94409263Y-75504348D01*
X94403067Y-75515694D01*
X94412949Y-75528184D01*
X94444239Y-75549091D01*
X94454349Y-75554581D01*
X94630835Y-75630405D01*
X94641778Y-75633960D01*
X94829120Y-75676352D01*
X94840530Y-75677854D01*
X95032469Y-75685395D01*
X95043951Y-75684793D01*
X95234045Y-75657232D01*
X95245240Y-75654544D01*
X95340998Y-75622038D01*
X95411933Y-75619082D01*
X95473206Y-75654945D01*
X95505363Y-75718242D01*
X95507500Y-75741351D01*
X95507500Y-94205001D01*
X95490619Y-94268000D01*
X95431473Y-94370444D01*
X95372458Y-94552072D01*
X95371768Y-94558633D01*
X95371768Y-94558635D01*
X95368128Y-94593271D01*
X95352496Y-94742000D01*
X95353186Y-94748565D01*
X95370863Y-94916749D01*
X95372458Y-94931928D01*
X95431473Y-95113556D01*
X95447392Y-95141128D01*
X95453958Y-95152501D01*
X95470695Y-95221496D01*
X95447474Y-95288588D01*
X95391667Y-95332475D01*
X95344838Y-95341500D01*
X94511595Y-95341500D01*
X94443474Y-95321498D01*
X94422500Y-95304595D01*
X92644891Y-93526986D01*
X92610865Y-93464674D01*
X92615930Y-93393859D01*
X92624867Y-93374891D01*
X92681223Y-93277279D01*
X92681224Y-93277278D01*
X92684527Y-93271556D01*
X92743542Y-93089928D01*
X92750164Y-93026928D01*
X92762814Y-92906565D01*
X92763504Y-92900000D01*
X92743542Y-92710072D01*
X92684527Y-92528444D01*
X92589040Y-92363056D01*
X92574699Y-92347128D01*
X92465675Y-92226045D01*
X92465674Y-92226044D01*
X92461253Y-92221134D01*
X92320494Y-92118866D01*
X92312094Y-92112763D01*
X92312093Y-92112762D01*
X92306752Y-92108882D01*
X92300724Y-92106198D01*
X92300722Y-92106197D01*
X92138319Y-92033891D01*
X92138318Y-92033891D01*
X92132288Y-92031206D01*
X92038887Y-92011353D01*
X91951944Y-91992872D01*
X91951939Y-91992872D01*
X91945487Y-91991500D01*
X91754513Y-91991500D01*
X91748061Y-91992872D01*
X91748056Y-91992872D01*
X91661113Y-92011353D01*
X91567712Y-92031206D01*
X91561682Y-92033891D01*
X91561681Y-92033891D01*
X91399278Y-92106197D01*
X91399276Y-92106198D01*
X91393248Y-92108882D01*
X91387907Y-92112762D01*
X91387906Y-92112763D01*
X91379506Y-92118866D01*
X91238747Y-92221134D01*
X91234326Y-92226044D01*
X91234325Y-92226045D01*
X91125302Y-92347128D01*
X91110960Y-92363056D01*
X91015473Y-92528444D01*
X90956458Y-92710072D01*
X90936496Y-92900000D01*
X90937186Y-92906565D01*
X90949837Y-93026928D01*
X90956458Y-93089928D01*
X91015473Y-93271556D01*
X91110960Y-93436944D01*
X91182918Y-93516862D01*
X91213634Y-93580867D01*
X91215219Y-93597211D01*
X91216438Y-93635986D01*
X91216500Y-93639945D01*
X91216500Y-93667856D01*
X91216997Y-93671790D01*
X91216997Y-93671791D01*
X91217005Y-93671856D01*
X91217938Y-93683693D01*
X91219327Y-93727889D01*
X91224978Y-93747339D01*
X91228987Y-93766700D01*
X91231526Y-93786797D01*
X91234445Y-93794168D01*
X91234445Y-93794170D01*
X91247804Y-93827912D01*
X91251649Y-93839142D01*
X91263982Y-93881593D01*
X91268015Y-93888412D01*
X91268017Y-93888417D01*
X91274293Y-93899028D01*
X91282988Y-93916776D01*
X91290448Y-93935617D01*
X91295110Y-93942033D01*
X91295110Y-93942034D01*
X91316436Y-93971387D01*
X91322952Y-93981307D01*
X91345458Y-94019362D01*
X91359779Y-94033683D01*
X91372619Y-94048716D01*
X91384528Y-94065107D01*
X91390634Y-94070158D01*
X91418605Y-94093298D01*
X91427384Y-94101288D01*
X93693343Y-96367247D01*
X93700887Y-96375537D01*
X93705000Y-96382018D01*
X93710777Y-96387443D01*
X93754667Y-96428658D01*
X93757509Y-96431413D01*
X93777230Y-96451134D01*
X93780425Y-96453612D01*
X93789447Y-96461318D01*
X93821679Y-96491586D01*
X93828628Y-96495406D01*
X93839432Y-96501346D01*
X93855956Y-96512199D01*
X93871959Y-96524613D01*
X93912543Y-96542176D01*
X93923173Y-96547383D01*
X93961940Y-96568695D01*
X93969617Y-96570666D01*
X93969622Y-96570668D01*
X93981558Y-96573732D01*
X94000266Y-96580137D01*
X94018855Y-96588181D01*
X94026683Y-96589421D01*
X94026690Y-96589423D01*
X94062524Y-96595099D01*
X94074144Y-96597505D01*
X94105959Y-96605673D01*
X94116970Y-96608500D01*
X94137224Y-96608500D01*
X94156934Y-96610051D01*
X94176943Y-96613220D01*
X94184835Y-96612474D01*
X94203580Y-96610702D01*
X94220962Y-96609059D01*
X94232819Y-96608500D01*
X101050233Y-96608500D01*
X101061416Y-96609027D01*
X101068909Y-96610702D01*
X101076835Y-96610453D01*
X101076836Y-96610453D01*
X101136986Y-96608562D01*
X101140945Y-96608500D01*
X101168856Y-96608500D01*
X101172791Y-96608003D01*
X101172856Y-96607995D01*
X101184693Y-96607062D01*
X101216951Y-96606048D01*
X101220970Y-96605922D01*
X101228889Y-96605673D01*
X101248343Y-96600021D01*
X101267700Y-96596013D01*
X101279930Y-96594468D01*
X101279931Y-96594468D01*
X101287797Y-96593474D01*
X101295168Y-96590555D01*
X101295170Y-96590555D01*
X101328912Y-96577196D01*
X101340142Y-96573351D01*
X101374983Y-96563229D01*
X101374984Y-96563229D01*
X101382593Y-96561018D01*
X101389412Y-96556985D01*
X101389417Y-96556983D01*
X101400028Y-96550707D01*
X101417776Y-96542012D01*
X101436617Y-96534552D01*
X101456987Y-96519753D01*
X101472387Y-96508564D01*
X101482307Y-96502048D01*
X101513535Y-96483580D01*
X101513538Y-96483578D01*
X101520362Y-96479542D01*
X101534683Y-96465221D01*
X101549717Y-96452380D01*
X101551432Y-96451134D01*
X101566107Y-96440472D01*
X101594298Y-96406395D01*
X101602288Y-96397616D01*
X102820500Y-95179405D01*
X102882812Y-95145379D01*
X102909595Y-95142500D01*
X102965487Y-95142500D01*
X102971939Y-95141128D01*
X102971944Y-95141128D01*
X103058888Y-95122647D01*
X103152288Y-95102794D01*
X103158319Y-95100109D01*
X103320722Y-95027803D01*
X103320724Y-95027802D01*
X103326752Y-95025118D01*
X103481253Y-94912866D01*
X103609040Y-94770944D01*
X103704527Y-94605556D01*
X103763542Y-94423928D01*
X103783504Y-94234000D01*
X103775223Y-94155206D01*
X103764232Y-94050635D01*
X103764232Y-94050633D01*
X103763542Y-94044072D01*
X103704527Y-93862444D01*
X103609040Y-93697056D01*
X103554053Y-93635986D01*
X103485675Y-93560045D01*
X103485674Y-93560044D01*
X103481253Y-93555134D01*
X103382157Y-93483136D01*
X103332094Y-93446763D01*
X103332093Y-93446762D01*
X103326752Y-93442882D01*
X103320724Y-93440198D01*
X103320722Y-93440197D01*
X103158319Y-93367891D01*
X103158318Y-93367891D01*
X103152288Y-93365206D01*
X103058888Y-93345353D01*
X102971944Y-93326872D01*
X102971939Y-93326872D01*
X102965487Y-93325500D01*
X102774513Y-93325500D01*
X102768061Y-93326872D01*
X102768056Y-93326872D01*
X102681113Y-93345353D01*
X102587712Y-93365206D01*
X102581682Y-93367891D01*
X102581681Y-93367891D01*
X102419278Y-93440197D01*
X102419276Y-93440198D01*
X102413248Y-93442882D01*
X102407907Y-93446762D01*
X102407906Y-93446763D01*
X102357843Y-93483136D01*
X102258747Y-93555134D01*
X102254326Y-93560044D01*
X102254325Y-93560045D01*
X102185948Y-93635986D01*
X102130960Y-93697056D01*
X102035473Y-93862444D01*
X101976458Y-94044072D01*
X101975768Y-94050633D01*
X101975768Y-94050635D01*
X101969080Y-94114273D01*
X101960363Y-94197213D01*
X101959093Y-94209293D01*
X101932080Y-94274950D01*
X101922878Y-94285218D01*
X100903500Y-95304595D01*
X100841188Y-95338621D01*
X100814405Y-95341500D01*
X97187162Y-95341500D01*
X97119041Y-95321498D01*
X97072548Y-95267842D01*
X97062444Y-95197568D01*
X97078042Y-95152501D01*
X97084608Y-95141128D01*
X97100527Y-95113556D01*
X97159542Y-94931928D01*
X97161138Y-94916749D01*
X97178814Y-94748565D01*
X97179504Y-94742000D01*
X97163872Y-94593271D01*
X97160232Y-94558635D01*
X97160232Y-94558633D01*
X97159542Y-94552072D01*
X97100527Y-94370444D01*
X97041381Y-94268000D01*
X97024500Y-94205001D01*
X97024500Y-91440000D01*
X97511496Y-91440000D01*
X97512186Y-91446565D01*
X97529224Y-91608669D01*
X97531458Y-91629928D01*
X97590473Y-91811556D01*
X97685960Y-91976944D01*
X97690378Y-91981851D01*
X97690379Y-91981852D01*
X97802340Y-92106197D01*
X97813747Y-92118866D01*
X97836774Y-92135596D01*
X97961266Y-92226045D01*
X97968248Y-92231118D01*
X97974276Y-92233802D01*
X97974278Y-92233803D01*
X98048935Y-92267042D01*
X98142712Y-92308794D01*
X98236112Y-92328647D01*
X98323056Y-92347128D01*
X98323061Y-92347128D01*
X98329513Y-92348500D01*
X98520487Y-92348500D01*
X98526939Y-92347128D01*
X98526944Y-92347128D01*
X98613888Y-92328647D01*
X98707288Y-92308794D01*
X98801065Y-92267042D01*
X98875722Y-92233803D01*
X98875724Y-92233802D01*
X98881752Y-92231118D01*
X98888735Y-92226045D01*
X99013226Y-92135596D01*
X99036253Y-92118866D01*
X99047660Y-92106197D01*
X99159621Y-91981852D01*
X99159622Y-91981851D01*
X99164040Y-91976944D01*
X99259527Y-91811556D01*
X99314387Y-91642714D01*
X99345125Y-91592556D01*
X101160422Y-89777259D01*
X101174834Y-89764873D01*
X101186429Y-89756340D01*
X101186434Y-89756335D01*
X101192329Y-89751997D01*
X101197068Y-89746419D01*
X101197071Y-89746416D01*
X101226546Y-89711721D01*
X101233476Y-89704205D01*
X101239171Y-89698510D01*
X101256792Y-89676238D01*
X101259583Y-89672834D01*
X101302102Y-89622786D01*
X101302103Y-89622784D01*
X101306844Y-89617204D01*
X101310172Y-89610688D01*
X101313539Y-89605639D01*
X101316706Y-89600510D01*
X101321245Y-89594773D01*
X101352166Y-89528614D01*
X101354072Y-89524714D01*
X101359915Y-89513271D01*
X101387280Y-89459681D01*
X101389019Y-89452573D01*
X101391118Y-89446930D01*
X101393035Y-89441167D01*
X101396133Y-89434539D01*
X101398162Y-89424787D01*
X101410997Y-89363077D01*
X101411968Y-89358788D01*
X101427984Y-89293334D01*
X101429319Y-89287879D01*
X101429902Y-89278491D01*
X101430011Y-89276725D01*
X101430047Y-89276727D01*
X101430286Y-89272734D01*
X101430660Y-89268542D01*
X101432151Y-89261374D01*
X101430057Y-89183968D01*
X101430011Y-89180561D01*
X101430011Y-88432000D01*
X102022496Y-88432000D01*
X102023186Y-88438565D01*
X102041720Y-88614903D01*
X102042458Y-88621928D01*
X102101473Y-88803556D01*
X102104776Y-88809278D01*
X102104777Y-88809279D01*
X102121159Y-88837653D01*
X102196960Y-88968944D01*
X102201378Y-88973851D01*
X102201379Y-88973852D01*
X102320325Y-89105955D01*
X102324747Y-89110866D01*
X102375742Y-89147916D01*
X102473904Y-89219235D01*
X102479248Y-89223118D01*
X102485276Y-89225802D01*
X102485278Y-89225803D01*
X102599656Y-89276727D01*
X102653712Y-89300794D01*
X102747112Y-89320647D01*
X102834056Y-89339128D01*
X102834061Y-89339128D01*
X102840513Y-89340500D01*
X103031487Y-89340500D01*
X103037939Y-89339128D01*
X103037944Y-89339128D01*
X103124888Y-89320647D01*
X103218288Y-89300794D01*
X103272344Y-89276727D01*
X103386722Y-89225803D01*
X103386724Y-89225802D01*
X103392752Y-89223118D01*
X103398091Y-89219239D01*
X103398098Y-89219235D01*
X103404528Y-89214563D01*
X103478587Y-89190500D01*
X103922820Y-89190500D01*
X103990941Y-89210502D01*
X104011915Y-89227405D01*
X108110421Y-93325911D01*
X108122807Y-93340323D01*
X108131340Y-93351918D01*
X108131345Y-93351923D01*
X108135683Y-93357818D01*
X108141261Y-93362557D01*
X108141264Y-93362560D01*
X108175959Y-93392035D01*
X108183475Y-93398965D01*
X108189171Y-93404661D01*
X108192032Y-93406924D01*
X108192037Y-93406929D01*
X108211457Y-93422293D01*
X108214858Y-93425082D01*
X108270476Y-93472333D01*
X108276989Y-93475659D01*
X108282028Y-93479020D01*
X108287170Y-93482196D01*
X108292907Y-93486734D01*
X108359066Y-93517655D01*
X108362960Y-93519558D01*
X108427999Y-93552769D01*
X108435108Y-93554508D01*
X108440742Y-93556604D01*
X108446512Y-93558523D01*
X108453141Y-93561622D01*
X108460304Y-93563112D01*
X108460307Y-93563113D01*
X108511021Y-93573661D01*
X108524626Y-93576491D01*
X108528892Y-93577457D01*
X108599801Y-93594808D01*
X108605403Y-93595156D01*
X108605406Y-93595156D01*
X108610955Y-93595500D01*
X108610953Y-93595535D01*
X108614925Y-93595775D01*
X108619146Y-93596152D01*
X108626306Y-93597641D01*
X108703733Y-93595546D01*
X108707141Y-93595500D01*
X110889059Y-93595500D01*
X110900260Y-93595999D01*
X110901950Y-93596150D01*
X110909115Y-93597640D01*
X110986520Y-93595546D01*
X110989928Y-93595500D01*
X114290813Y-93595500D01*
X114364872Y-93619563D01*
X114371302Y-93624235D01*
X114371309Y-93624239D01*
X114376648Y-93628118D01*
X114382676Y-93630802D01*
X114382678Y-93630803D01*
X114520462Y-93692148D01*
X114551112Y-93705794D01*
X114644513Y-93725647D01*
X114731456Y-93744128D01*
X114731461Y-93744128D01*
X114737913Y-93745500D01*
X114928887Y-93745500D01*
X114935339Y-93744128D01*
X114935344Y-93744128D01*
X115022287Y-93725647D01*
X115115688Y-93705794D01*
X115146338Y-93692148D01*
X115284122Y-93630803D01*
X115284124Y-93630802D01*
X115290152Y-93628118D01*
X115295497Y-93624235D01*
X115360600Y-93576934D01*
X115444653Y-93515866D01*
X115488116Y-93467595D01*
X115568021Y-93378852D01*
X115568022Y-93378851D01*
X115572440Y-93373944D01*
X115667927Y-93208556D01*
X115726942Y-93026928D01*
X115735637Y-92944205D01*
X115746214Y-92843565D01*
X115746904Y-92837000D01*
X115734253Y-92716635D01*
X115727632Y-92653635D01*
X115727632Y-92653633D01*
X115726942Y-92647072D01*
X115667927Y-92465444D01*
X115572440Y-92300056D01*
X115501379Y-92221134D01*
X115449075Y-92163045D01*
X115449074Y-92163044D01*
X115444653Y-92158134D01*
X115335047Y-92078500D01*
X115295494Y-92049763D01*
X115295493Y-92049762D01*
X115290152Y-92045882D01*
X115284124Y-92043198D01*
X115284122Y-92043197D01*
X115121719Y-91970891D01*
X115121718Y-91970891D01*
X115115688Y-91968206D01*
X115012163Y-91946201D01*
X114935344Y-91929872D01*
X114935339Y-91929872D01*
X114928887Y-91928500D01*
X114737913Y-91928500D01*
X114731461Y-91929872D01*
X114731456Y-91929872D01*
X114654637Y-91946201D01*
X114551112Y-91968206D01*
X114545082Y-91970891D01*
X114545081Y-91970891D01*
X114382678Y-92043197D01*
X114382676Y-92043198D01*
X114376648Y-92045882D01*
X114371309Y-92049761D01*
X114371302Y-92049765D01*
X114364872Y-92054437D01*
X114290813Y-92078500D01*
X111343371Y-92078500D01*
X111275250Y-92058498D01*
X111254276Y-92041595D01*
X110595125Y-91382444D01*
X110564387Y-91332285D01*
X110559273Y-91316544D01*
X110509527Y-91163444D01*
X110414040Y-90998056D01*
X110286253Y-90856134D01*
X110131752Y-90743882D01*
X110125724Y-90741198D01*
X110125722Y-90741197D01*
X109963319Y-90668891D01*
X109963318Y-90668891D01*
X109957288Y-90666206D01*
X109863154Y-90646197D01*
X109776944Y-90627872D01*
X109776939Y-90627872D01*
X109770487Y-90626500D01*
X109579513Y-90626500D01*
X109573061Y-90627872D01*
X109573056Y-90627872D01*
X109486846Y-90646197D01*
X109392712Y-90666206D01*
X109386682Y-90668891D01*
X109386681Y-90668891D01*
X109224278Y-90741197D01*
X109224276Y-90741198D01*
X109218248Y-90743882D01*
X109063747Y-90856134D01*
X108935960Y-90998056D01*
X108840473Y-91163444D01*
X108781458Y-91345072D01*
X108780768Y-91351633D01*
X108780768Y-91351635D01*
X108764442Y-91506966D01*
X108761496Y-91535000D01*
X108760207Y-91534865D01*
X108742184Y-91596245D01*
X108688528Y-91642738D01*
X108618254Y-91652842D01*
X108553674Y-91623348D01*
X108547091Y-91617219D01*
X104872961Y-87943089D01*
X104860575Y-87928677D01*
X104852042Y-87917082D01*
X104852037Y-87917077D01*
X104847699Y-87911182D01*
X104842121Y-87906443D01*
X104842118Y-87906440D01*
X104807423Y-87876965D01*
X104799907Y-87870035D01*
X104794212Y-87864340D01*
X104788071Y-87859482D01*
X104771940Y-87846719D01*
X104768536Y-87843928D01*
X104718488Y-87801409D01*
X104718486Y-87801408D01*
X104712906Y-87796667D01*
X104706390Y-87793339D01*
X104701341Y-87789972D01*
X104696212Y-87786805D01*
X104690475Y-87782266D01*
X104624316Y-87751345D01*
X104620416Y-87749439D01*
X104620048Y-87749251D01*
X104555383Y-87716231D01*
X104548275Y-87714492D01*
X104542632Y-87712393D01*
X104536869Y-87710476D01*
X104530241Y-87707378D01*
X104458774Y-87692513D01*
X104454490Y-87691543D01*
X104383581Y-87674192D01*
X104377979Y-87673844D01*
X104377976Y-87673844D01*
X104372427Y-87673500D01*
X104372429Y-87673464D01*
X104368436Y-87673225D01*
X104364244Y-87672851D01*
X104357076Y-87671360D01*
X104290866Y-87673151D01*
X104279670Y-87673454D01*
X104276263Y-87673500D01*
X103478587Y-87673500D01*
X103404528Y-87649437D01*
X103398098Y-87644765D01*
X103398091Y-87644761D01*
X103392752Y-87640882D01*
X103386724Y-87638198D01*
X103386722Y-87638197D01*
X103224319Y-87565891D01*
X103224318Y-87565891D01*
X103218288Y-87563206D01*
X103124887Y-87543353D01*
X103037944Y-87524872D01*
X103037939Y-87524872D01*
X103031487Y-87523500D01*
X102840513Y-87523500D01*
X102834061Y-87524872D01*
X102834056Y-87524872D01*
X102747113Y-87543353D01*
X102653712Y-87563206D01*
X102647682Y-87565891D01*
X102647681Y-87565891D01*
X102485278Y-87638197D01*
X102485276Y-87638198D01*
X102479248Y-87640882D01*
X102473907Y-87644762D01*
X102473906Y-87644763D01*
X102467473Y-87649437D01*
X102324747Y-87753134D01*
X102320326Y-87758044D01*
X102320325Y-87758045D01*
X102216229Y-87873656D01*
X102196960Y-87895056D01*
X102101473Y-88060444D01*
X102042458Y-88242072D01*
X102022496Y-88432000D01*
X101430011Y-88432000D01*
X101430011Y-86251081D01*
X101431444Y-86232131D01*
X101433610Y-86217896D01*
X101433610Y-86217892D01*
X101434710Y-86210662D01*
X101430426Y-86157993D01*
X101430011Y-86147778D01*
X101430011Y-86139718D01*
X101426720Y-86111491D01*
X101426289Y-86107132D01*
X101424182Y-86081226D01*
X101420371Y-86034375D01*
X101418116Y-86027414D01*
X101416929Y-86021474D01*
X101415540Y-86015599D01*
X101414693Y-86008330D01*
X101389775Y-85939681D01*
X101388358Y-85935553D01*
X101368118Y-85873075D01*
X101368117Y-85873073D01*
X101365862Y-85866112D01*
X101362066Y-85859857D01*
X101359560Y-85854383D01*
X101356841Y-85848953D01*
X101354344Y-85842074D01*
X101340001Y-85820197D01*
X101314325Y-85781035D01*
X101311978Y-85777316D01*
X101274106Y-85714904D01*
X101266708Y-85706527D01*
X101266735Y-85706503D01*
X101264082Y-85703511D01*
X101261379Y-85700278D01*
X101257367Y-85694159D01*
X101201128Y-85640883D01*
X101198686Y-85638505D01*
X100957625Y-85397444D01*
X100926887Y-85347285D01*
X100925506Y-85343033D01*
X100872027Y-85178444D01*
X100776540Y-85013056D01*
X100648753Y-84871134D01*
X100494252Y-84758882D01*
X100488224Y-84756198D01*
X100488222Y-84756197D01*
X100325819Y-84683891D01*
X100325818Y-84683891D01*
X100319788Y-84681206D01*
X100226388Y-84661353D01*
X100139444Y-84642872D01*
X100139439Y-84642872D01*
X100132987Y-84641500D01*
X99942013Y-84641500D01*
X99935561Y-84642872D01*
X99935556Y-84642872D01*
X99848612Y-84661353D01*
X99755212Y-84681206D01*
X99749182Y-84683891D01*
X99749181Y-84683891D01*
X99586778Y-84756197D01*
X99586776Y-84756198D01*
X99580748Y-84758882D01*
X99426247Y-84871134D01*
X99298460Y-85013056D01*
X99202973Y-85178444D01*
X99143958Y-85360072D01*
X99123996Y-85550000D01*
X99124686Y-85556565D01*
X99140886Y-85710695D01*
X99143958Y-85739928D01*
X99202973Y-85921556D01*
X99206276Y-85927278D01*
X99206277Y-85927279D01*
X99213648Y-85940045D01*
X99298460Y-86086944D01*
X99302878Y-86091851D01*
X99302879Y-86091852D01*
X99421825Y-86223955D01*
X99426247Y-86228866D01*
X99580748Y-86341118D01*
X99586776Y-86343802D01*
X99586778Y-86343803D01*
X99747306Y-86415274D01*
X99755212Y-86418794D01*
X99761667Y-86420166D01*
X99761670Y-86420167D01*
X99791275Y-86426459D01*
X99813208Y-86431121D01*
X99875681Y-86464849D01*
X99910002Y-86526998D01*
X99913011Y-86554368D01*
X99913011Y-88827118D01*
X99893009Y-88895239D01*
X99876106Y-88916213D01*
X98268669Y-90523650D01*
X98205772Y-90557801D01*
X98149176Y-90569831D01*
X98149167Y-90569834D01*
X98142712Y-90571206D01*
X98136682Y-90573891D01*
X98136681Y-90573891D01*
X97974278Y-90646197D01*
X97974276Y-90646198D01*
X97968248Y-90648882D01*
X97962907Y-90652762D01*
X97962906Y-90652763D01*
X97940708Y-90668891D01*
X97813747Y-90761134D01*
X97685960Y-90903056D01*
X97590473Y-91068444D01*
X97531458Y-91250072D01*
X97530768Y-91256633D01*
X97530768Y-91256635D01*
X97518009Y-91378029D01*
X97511496Y-91440000D01*
X97024500Y-91440000D01*
X97024500Y-72883069D01*
X97025933Y-72864118D01*
X97028099Y-72849883D01*
X97028099Y-72849881D01*
X97029199Y-72842651D01*
X97024915Y-72789982D01*
X97024500Y-72779767D01*
X97024500Y-72771707D01*
X97021211Y-72743493D01*
X97020778Y-72739118D01*
X97015454Y-72673661D01*
X97015453Y-72673658D01*
X97014860Y-72666363D01*
X97012604Y-72659399D01*
X97011413Y-72653440D01*
X97010029Y-72647585D01*
X97009182Y-72640319D01*
X96984265Y-72571673D01*
X96982848Y-72567545D01*
X96962607Y-72505064D01*
X96962606Y-72505062D01*
X96960351Y-72498101D01*
X96956555Y-72491846D01*
X96954049Y-72486372D01*
X96951330Y-72480942D01*
X96948833Y-72474063D01*
X96908809Y-72413016D01*
X96906472Y-72409312D01*
X96871509Y-72351693D01*
X96871505Y-72351688D01*
X96868595Y-72346892D01*
X96861197Y-72338516D01*
X96861223Y-72338493D01*
X96858574Y-72335503D01*
X96855866Y-72332264D01*
X96851856Y-72326148D01*
X96846549Y-72321121D01*
X96846546Y-72321117D01*
X96795617Y-72272872D01*
X96793175Y-72270494D01*
X96246276Y-71723595D01*
X96212250Y-71661283D01*
X96217315Y-71590468D01*
X96259862Y-71533632D01*
X96326382Y-71508821D01*
X96335371Y-71508500D01*
X97121547Y-71508500D01*
X97189668Y-71528502D01*
X97210642Y-71545405D01*
X101820595Y-76155358D01*
X101854621Y-76217670D01*
X101857500Y-76244453D01*
X101857500Y-82161012D01*
X101856067Y-82179962D01*
X101852801Y-82201431D01*
X101853394Y-82208723D01*
X101853394Y-82208726D01*
X101857085Y-82254100D01*
X101857500Y-82264315D01*
X101857500Y-82272375D01*
X101857925Y-82276019D01*
X101860789Y-82300589D01*
X101861222Y-82304964D01*
X101867140Y-82377719D01*
X101869396Y-82384683D01*
X101870587Y-82390642D01*
X101871971Y-82396497D01*
X101872818Y-82403763D01*
X101897735Y-82472409D01*
X101899152Y-82476537D01*
X101921649Y-82545981D01*
X101925445Y-82552236D01*
X101927951Y-82557710D01*
X101930670Y-82563140D01*
X101933167Y-82570019D01*
X101937180Y-82576139D01*
X101937180Y-82576140D01*
X101973186Y-82631058D01*
X101975523Y-82634762D01*
X102013405Y-82697189D01*
X102017121Y-82701397D01*
X102017122Y-82701398D01*
X102020803Y-82705566D01*
X102020776Y-82705590D01*
X102023429Y-82708582D01*
X102026132Y-82711815D01*
X102030144Y-82717934D01*
X102035456Y-82722966D01*
X102086383Y-82771210D01*
X102088825Y-82773588D01*
X106418148Y-87102911D01*
X106430534Y-87117323D01*
X106439067Y-87128918D01*
X106439072Y-87128923D01*
X106443410Y-87134818D01*
X106448988Y-87139557D01*
X106448991Y-87139560D01*
X106483686Y-87169035D01*
X106491202Y-87175965D01*
X106496898Y-87181661D01*
X106499759Y-87183924D01*
X106499764Y-87183929D01*
X106519184Y-87199293D01*
X106522585Y-87202082D01*
X106578203Y-87249333D01*
X106584716Y-87252659D01*
X106589755Y-87256020D01*
X106594897Y-87259196D01*
X106600634Y-87263734D01*
X106666793Y-87294655D01*
X106670687Y-87296558D01*
X106735726Y-87329769D01*
X106742835Y-87331508D01*
X106748469Y-87333604D01*
X106754239Y-87335523D01*
X106760868Y-87338622D01*
X106768031Y-87340112D01*
X106768034Y-87340113D01*
X106818748Y-87350661D01*
X106832353Y-87353491D01*
X106836619Y-87354457D01*
X106907528Y-87371808D01*
X106913130Y-87372156D01*
X106913133Y-87372156D01*
X106918682Y-87372500D01*
X106918680Y-87372535D01*
X106922652Y-87372775D01*
X106926873Y-87373152D01*
X106934033Y-87374641D01*
X107011460Y-87372546D01*
X107014868Y-87372500D01*
X112487413Y-87372500D01*
X112561472Y-87396563D01*
X112567902Y-87401235D01*
X112567909Y-87401239D01*
X112573248Y-87405118D01*
X112579276Y-87407802D01*
X112579278Y-87407803D01*
X112653663Y-87440921D01*
X112747712Y-87482794D01*
X112841112Y-87502647D01*
X112928056Y-87521128D01*
X112928061Y-87521128D01*
X112934513Y-87522500D01*
X113125487Y-87522500D01*
X113131939Y-87521128D01*
X113131944Y-87521128D01*
X113218888Y-87502647D01*
X113312288Y-87482794D01*
X113406337Y-87440921D01*
X113480722Y-87407803D01*
X113480724Y-87407802D01*
X113486752Y-87405118D01*
X113492097Y-87401235D01*
X113557200Y-87353934D01*
X113641253Y-87292866D01*
X113684716Y-87244595D01*
X113764621Y-87155852D01*
X113764622Y-87155851D01*
X113769040Y-87150944D01*
X113864527Y-86985556D01*
X113923542Y-86803928D01*
X113931948Y-86723955D01*
X113942814Y-86620565D01*
X113943504Y-86614000D01*
X113937537Y-86557231D01*
X113924232Y-86430635D01*
X113924232Y-86430633D01*
X113923542Y-86424072D01*
X113864527Y-86242444D01*
X113769040Y-86077056D01*
X113641253Y-85935134D01*
X113530109Y-85854383D01*
X113492094Y-85826763D01*
X113492093Y-85826762D01*
X113486752Y-85822882D01*
X113480724Y-85820198D01*
X113480722Y-85820197D01*
X113318319Y-85747891D01*
X113318318Y-85747891D01*
X113312288Y-85745206D01*
X113218888Y-85725353D01*
X113131944Y-85706872D01*
X113131939Y-85706872D01*
X113125487Y-85705500D01*
X112934513Y-85705500D01*
X112928061Y-85706872D01*
X112928056Y-85706872D01*
X112841112Y-85725353D01*
X112747712Y-85745206D01*
X112741682Y-85747891D01*
X112741681Y-85747891D01*
X112579278Y-85820197D01*
X112579276Y-85820198D01*
X112573248Y-85822882D01*
X112567909Y-85826761D01*
X112567902Y-85826765D01*
X112561472Y-85831437D01*
X112487413Y-85855500D01*
X107368289Y-85855500D01*
X107300168Y-85835498D01*
X107279194Y-85818595D01*
X103411405Y-81950806D01*
X103377379Y-81888494D01*
X103374500Y-81861711D01*
X103374500Y-75945152D01*
X103375933Y-75926202D01*
X103378099Y-75911967D01*
X103378099Y-75911963D01*
X103379199Y-75904733D01*
X103374915Y-75852064D01*
X103374500Y-75841849D01*
X103374500Y-75833789D01*
X103371211Y-75805575D01*
X103370778Y-75801200D01*
X103365454Y-75735743D01*
X103365453Y-75735740D01*
X103364860Y-75728445D01*
X103362604Y-75721481D01*
X103361413Y-75715522D01*
X103360029Y-75709667D01*
X103359182Y-75702401D01*
X103334265Y-75633755D01*
X103332848Y-75629627D01*
X103312607Y-75567146D01*
X103312606Y-75567144D01*
X103310351Y-75560183D01*
X103306555Y-75553928D01*
X103304049Y-75548454D01*
X103301330Y-75543024D01*
X103298833Y-75536145D01*
X103294820Y-75530024D01*
X103258814Y-75475106D01*
X103256467Y-75471387D01*
X103218595Y-75408975D01*
X103211197Y-75400598D01*
X103211224Y-75400574D01*
X103208571Y-75397582D01*
X103205868Y-75394349D01*
X103201856Y-75388230D01*
X103145617Y-75334954D01*
X103143175Y-75332576D01*
X98071688Y-70261089D01*
X98059302Y-70246677D01*
X98050769Y-70235082D01*
X98050764Y-70235077D01*
X98046426Y-70229182D01*
X98040848Y-70224443D01*
X98040845Y-70224440D01*
X98006150Y-70194965D01*
X97998634Y-70188035D01*
X97992939Y-70182340D01*
X97986798Y-70177482D01*
X97970667Y-70164719D01*
X97967263Y-70161928D01*
X97917215Y-70119409D01*
X97917213Y-70119408D01*
X97911633Y-70114667D01*
X97905117Y-70111339D01*
X97900068Y-70107972D01*
X97894939Y-70104805D01*
X97889202Y-70100266D01*
X97823043Y-70069345D01*
X97819143Y-70067439D01*
X97804522Y-70059973D01*
X97754110Y-70034231D01*
X97747002Y-70032492D01*
X97741359Y-70030393D01*
X97735596Y-70028476D01*
X97728968Y-70025378D01*
X97657501Y-70010513D01*
X97653217Y-70009543D01*
X97582308Y-69992192D01*
X97576706Y-69991844D01*
X97576703Y-69991844D01*
X97571154Y-69991500D01*
X97571156Y-69991464D01*
X97567163Y-69991225D01*
X97562971Y-69990851D01*
X97555803Y-69989360D01*
X97489593Y-69991151D01*
X97478397Y-69991454D01*
X97474990Y-69991500D01*
X94919926Y-69991500D01*
X94851805Y-69971498D01*
X94830831Y-69954596D01*
X94412451Y-69536217D01*
X94403349Y-69526073D01*
X94383497Y-69501382D01*
X94379632Y-69496575D01*
X94341178Y-69464308D01*
X94337531Y-69461128D01*
X94335719Y-69459485D01*
X94333525Y-69457291D01*
X94300251Y-69429958D01*
X94299453Y-69429296D01*
X94228126Y-69369446D01*
X94223456Y-69366878D01*
X94219339Y-69363497D01*
X94137514Y-69319623D01*
X94136355Y-69318994D01*
X94060219Y-69277138D01*
X94060211Y-69277135D01*
X94054813Y-69274167D01*
X94049731Y-69272555D01*
X94045037Y-69270038D01*
X93956069Y-69242838D01*
X93955041Y-69242518D01*
X93866294Y-69214365D01*
X93860998Y-69213771D01*
X93855902Y-69212213D01*
X93763343Y-69202810D01*
X93762207Y-69202689D01*
X93728592Y-69198919D01*
X93715870Y-69197492D01*
X93715866Y-69197492D01*
X93712373Y-69197100D01*
X93708846Y-69197100D01*
X93707861Y-69197045D01*
X93702181Y-69196598D01*
X93672775Y-69193611D01*
X93665263Y-69192848D01*
X93665261Y-69192848D01*
X93659138Y-69192226D01*
X93616859Y-69196223D01*
X93613491Y-69196541D01*
X93601633Y-69197100D01*
X90913202Y-69197100D01*
X90845081Y-69177098D01*
X90812379Y-69146668D01*
X90800445Y-69130745D01*
X90775599Y-69064241D01*
X90790652Y-68994859D01*
X90800447Y-68979618D01*
X90853186Y-68909248D01*
X90861724Y-68893654D01*
X90906878Y-68773206D01*
X90910505Y-68757951D01*
X90916031Y-68707086D01*
X90916400Y-68700272D01*
X90916400Y-68177715D01*
X90911925Y-68162476D01*
X90910535Y-68161271D01*
X90902852Y-68159600D01*
X89280400Y-68159600D01*
X89212279Y-68139598D01*
X89165786Y-68085942D01*
X89154400Y-68033600D01*
X89154400Y-67633485D01*
X89662400Y-67633485D01*
X89666875Y-67648724D01*
X89668265Y-67649929D01*
X89675948Y-67651600D01*
X90898284Y-67651600D01*
X90913523Y-67647125D01*
X90914728Y-67645735D01*
X90916399Y-67638052D01*
X90916399Y-67110931D01*
X90916029Y-67104110D01*
X90910505Y-67053248D01*
X90906879Y-67037996D01*
X90861724Y-66917546D01*
X90853186Y-66901951D01*
X90776685Y-66799876D01*
X90764124Y-66787315D01*
X90662049Y-66710814D01*
X90646454Y-66702276D01*
X90526006Y-66657122D01*
X90510751Y-66653495D01*
X90459886Y-66647969D01*
X90453072Y-66647600D01*
X89680515Y-66647600D01*
X89665276Y-66652075D01*
X89664071Y-66653465D01*
X89662400Y-66661148D01*
X89662400Y-67633485D01*
X89154400Y-67633485D01*
X89154400Y-66668826D01*
X89174402Y-66600705D01*
X89191304Y-66579731D01*
X89789229Y-65981805D01*
X89851542Y-65947780D01*
X89878325Y-65944900D01*
X93797798Y-65944900D01*
X93847538Y-65955133D01*
X93849568Y-65956005D01*
X93855987Y-65958763D01*
X93928817Y-65975243D01*
X94049055Y-66002450D01*
X94049060Y-66002451D01*
X94054692Y-66003725D01*
X94060463Y-66003952D01*
X94060465Y-66003952D01*
X94123470Y-66006427D01*
X94258263Y-66011723D01*
X94459883Y-65982490D01*
X94465347Y-65980635D01*
X94465352Y-65980634D01*
X94647327Y-65918862D01*
X94647332Y-65918860D01*
X94652799Y-65917004D01*
X94658653Y-65913726D01*
X94769054Y-65851898D01*
X94787989Y-65841294D01*
X95623066Y-65841294D01*
X95632948Y-65853783D01*
X95664239Y-65874691D01*
X95674349Y-65880181D01*
X95850835Y-65956005D01*
X95861778Y-65959560D01*
X96049120Y-66001952D01*
X96060530Y-66003454D01*
X96252469Y-66010995D01*
X96263951Y-66010393D01*
X96454045Y-65982832D01*
X96465240Y-65980144D01*
X96647131Y-65918400D01*
X96657628Y-65913726D01*
X96768032Y-65851898D01*
X96777895Y-65841821D01*
X96774940Y-65834151D01*
X96212811Y-65272021D01*
X96198868Y-65264408D01*
X96197034Y-65264539D01*
X96190420Y-65268790D01*
X95629259Y-65829952D01*
X95623066Y-65841294D01*
X94787989Y-65841294D01*
X94830551Y-65817458D01*
X94987186Y-65687186D01*
X95107698Y-65542286D01*
X95113763Y-65534994D01*
X95113764Y-65534993D01*
X95117458Y-65530551D01*
X95117745Y-65530039D01*
X95171506Y-65486292D01*
X95232704Y-65477084D01*
X95254321Y-65479226D01*
X95269676Y-65471113D01*
X95839658Y-64901132D01*
X96564408Y-64901132D01*
X96564539Y-64902966D01*
X96568790Y-64909580D01*
X97130239Y-65471028D01*
X97142614Y-65477785D01*
X97149194Y-65472859D01*
X97213726Y-65357628D01*
X97218400Y-65347131D01*
X97280144Y-65165240D01*
X97282832Y-65154045D01*
X97310689Y-64961911D01*
X97311319Y-64954528D01*
X97312650Y-64903704D01*
X97312407Y-64896305D01*
X97294643Y-64702975D01*
X97292545Y-64691654D01*
X97240408Y-64506791D01*
X97236283Y-64496044D01*
X97152163Y-64325465D01*
X97144869Y-64319990D01*
X97132449Y-64326762D01*
X96572021Y-64887189D01*
X96564408Y-64901132D01*
X95839658Y-64901132D01*
X96200000Y-64540790D01*
X96770282Y-63970507D01*
X96777041Y-63958128D01*
X96757734Y-63932337D01*
X96759957Y-63930673D01*
X96735877Y-63901046D01*
X96727993Y-63830488D01*
X96762988Y-63763247D01*
X100887034Y-59639200D01*
X102286696Y-59639200D01*
X102306658Y-59829128D01*
X102365673Y-60010756D01*
X102461160Y-60176144D01*
X102588947Y-60318066D01*
X102594289Y-60321947D01*
X102594291Y-60321949D01*
X102649059Y-60361740D01*
X102683451Y-60399536D01*
X102691622Y-60413353D01*
X102691626Y-60413358D01*
X102695658Y-60420176D01*
X102709979Y-60434497D01*
X102722819Y-60449530D01*
X102734728Y-60465921D01*
X102740834Y-60470972D01*
X102768805Y-60494112D01*
X102777584Y-60502102D01*
X111882734Y-69607253D01*
X111890274Y-69615539D01*
X111894386Y-69622018D01*
X111900163Y-69627443D01*
X111944037Y-69668643D01*
X111946879Y-69671398D01*
X111966616Y-69691135D01*
X111969813Y-69693615D01*
X111978833Y-69701318D01*
X112011065Y-69731586D01*
X112018011Y-69735405D01*
X112018014Y-69735407D01*
X112028820Y-69741348D01*
X112045339Y-69752199D01*
X112061345Y-69764614D01*
X112068614Y-69767759D01*
X112068618Y-69767762D01*
X112101923Y-69782174D01*
X112112573Y-69787391D01*
X112151326Y-69808695D01*
X112159001Y-69810666D01*
X112159002Y-69810666D01*
X112170948Y-69813733D01*
X112189653Y-69820137D01*
X112208241Y-69828181D01*
X112216064Y-69829420D01*
X112216074Y-69829423D01*
X112251910Y-69835099D01*
X112263530Y-69837505D01*
X112298675Y-69846528D01*
X112306356Y-69848500D01*
X112326610Y-69848500D01*
X112346320Y-69850051D01*
X112366329Y-69853220D01*
X112374221Y-69852474D01*
X112410347Y-69849059D01*
X112422205Y-69848500D01*
X115645020Y-69848500D01*
X115713141Y-69868502D01*
X115734115Y-69885405D01*
X119162397Y-73313688D01*
X119196423Y-73376000D01*
X119191358Y-73446816D01*
X119147363Y-73504719D01*
X119111696Y-73530633D01*
X119038747Y-73583634D01*
X119034326Y-73588544D01*
X119034325Y-73588545D01*
X118938366Y-73695119D01*
X118910960Y-73725556D01*
X118815473Y-73890944D01*
X118756458Y-74072572D01*
X118755768Y-74079133D01*
X118755768Y-74079135D01*
X118737186Y-74255935D01*
X118736496Y-74262500D01*
X118756458Y-74452428D01*
X118815473Y-74634056D01*
X118910960Y-74799444D01*
X118984137Y-74880715D01*
X119014853Y-74944721D01*
X119016500Y-74965024D01*
X119016500Y-81014237D01*
X118996498Y-81082358D01*
X118942842Y-81128851D01*
X118872568Y-81138955D01*
X118807988Y-81109461D01*
X118801405Y-81103332D01*
X116355820Y-78657747D01*
X116348280Y-78649461D01*
X116344168Y-78642982D01*
X116330295Y-78629954D01*
X116294517Y-78596357D01*
X116291675Y-78593602D01*
X116271938Y-78573865D01*
X116268741Y-78571385D01*
X116259719Y-78563680D01*
X116233268Y-78538841D01*
X116227489Y-78533414D01*
X116220543Y-78529595D01*
X116220540Y-78529593D01*
X116209734Y-78523652D01*
X116193215Y-78512801D01*
X116191690Y-78511618D01*
X116177209Y-78500386D01*
X116169940Y-78497241D01*
X116169936Y-78497238D01*
X116136631Y-78482826D01*
X116125981Y-78477609D01*
X116087228Y-78456305D01*
X116067605Y-78451267D01*
X116048902Y-78444863D01*
X116037588Y-78439967D01*
X116037587Y-78439967D01*
X116030313Y-78436819D01*
X116022490Y-78435580D01*
X116022480Y-78435577D01*
X115986644Y-78429901D01*
X115975024Y-78427495D01*
X115939879Y-78418472D01*
X115939878Y-78418472D01*
X115932198Y-78416500D01*
X115911944Y-78416500D01*
X115892233Y-78414949D01*
X115880054Y-78413020D01*
X115872225Y-78411780D01*
X115864333Y-78412526D01*
X115828207Y-78415941D01*
X115816349Y-78416500D01*
X105645700Y-78416500D01*
X105577579Y-78396498D01*
X105558353Y-78380157D01*
X105558080Y-78380460D01*
X105553168Y-78376037D01*
X105548753Y-78371134D01*
X105394252Y-78258882D01*
X105388224Y-78256198D01*
X105388222Y-78256197D01*
X105225819Y-78183891D01*
X105225818Y-78183891D01*
X105219788Y-78181206D01*
X105126387Y-78161353D01*
X105039444Y-78142872D01*
X105039439Y-78142872D01*
X105032987Y-78141500D01*
X104842013Y-78141500D01*
X104835561Y-78142872D01*
X104835556Y-78142872D01*
X104748613Y-78161353D01*
X104655212Y-78181206D01*
X104649182Y-78183891D01*
X104649181Y-78183891D01*
X104486778Y-78256197D01*
X104486776Y-78256198D01*
X104480748Y-78258882D01*
X104326247Y-78371134D01*
X104321826Y-78376044D01*
X104321825Y-78376045D01*
X104212703Y-78497238D01*
X104198460Y-78513056D01*
X104102973Y-78678444D01*
X104043958Y-78860072D01*
X104023996Y-79050000D01*
X104043958Y-79239928D01*
X104102973Y-79421556D01*
X104198460Y-79586944D01*
X104326247Y-79728866D01*
X104480748Y-79841118D01*
X104486776Y-79843802D01*
X104486778Y-79843803D01*
X104649181Y-79916109D01*
X104655212Y-79918794D01*
X104748612Y-79938647D01*
X104835556Y-79957128D01*
X104835561Y-79957128D01*
X104842013Y-79958500D01*
X105032987Y-79958500D01*
X105039439Y-79957128D01*
X105039444Y-79957128D01*
X105126388Y-79938647D01*
X105219788Y-79918794D01*
X105225819Y-79916109D01*
X105388222Y-79843803D01*
X105388224Y-79843802D01*
X105394252Y-79841118D01*
X105548753Y-79728866D01*
X105553168Y-79723963D01*
X105558080Y-79719540D01*
X105559205Y-79720789D01*
X105612514Y-79687949D01*
X105645700Y-79683500D01*
X115537574Y-79683500D01*
X115605695Y-79703502D01*
X115626669Y-79720405D01*
X118906191Y-82999928D01*
X122140009Y-86233746D01*
X122170747Y-86283904D01*
X122215473Y-86421556D01*
X122310960Y-86586944D01*
X122315378Y-86591851D01*
X122315379Y-86591852D01*
X122434325Y-86723955D01*
X122438747Y-86728866D01*
X122593248Y-86841118D01*
X122599276Y-86843802D01*
X122599278Y-86843803D01*
X122761681Y-86916109D01*
X122767712Y-86918794D01*
X122861113Y-86938647D01*
X122948056Y-86957128D01*
X122948061Y-86957128D01*
X122954513Y-86958500D01*
X123010406Y-86958500D01*
X123078527Y-86978502D01*
X123099501Y-86995405D01*
X124195995Y-88091899D01*
X124230021Y-88154211D01*
X124232900Y-88180994D01*
X124232900Y-89340476D01*
X124212898Y-89408597D01*
X124200542Y-89424779D01*
X124127360Y-89506056D01*
X124031873Y-89671444D01*
X123972858Y-89853072D01*
X123972168Y-89859633D01*
X123972168Y-89859635D01*
X123955829Y-90015091D01*
X123952896Y-90043000D01*
X123953586Y-90049565D01*
X123970623Y-90211660D01*
X123972858Y-90232928D01*
X124031873Y-90414556D01*
X124035176Y-90420278D01*
X124035177Y-90420279D01*
X124038605Y-90426216D01*
X124127360Y-90579944D01*
X124200536Y-90661214D01*
X124231253Y-90725221D01*
X124232900Y-90745524D01*
X124232900Y-91282805D01*
X124212898Y-91350926D01*
X124159242Y-91397419D01*
X124088968Y-91407523D01*
X124024388Y-91378029D01*
X124017805Y-91371900D01*
X122841722Y-90195817D01*
X122807696Y-90133505D01*
X122805507Y-90119892D01*
X122788832Y-89961235D01*
X122788832Y-89961233D01*
X122788142Y-89954672D01*
X122729127Y-89773044D01*
X122724410Y-89764873D01*
X122673236Y-89676238D01*
X122633640Y-89607656D01*
X122608649Y-89579900D01*
X122510275Y-89470645D01*
X122510274Y-89470644D01*
X122505853Y-89465734D01*
X122400021Y-89388842D01*
X122356694Y-89357363D01*
X122356693Y-89357362D01*
X122351352Y-89353482D01*
X122345324Y-89350798D01*
X122345322Y-89350797D01*
X122182919Y-89278491D01*
X122182918Y-89278491D01*
X122176888Y-89275806D01*
X122074568Y-89254057D01*
X121996544Y-89237472D01*
X121996539Y-89237472D01*
X121990087Y-89236100D01*
X121799113Y-89236100D01*
X121792661Y-89237472D01*
X121792656Y-89237472D01*
X121714632Y-89254057D01*
X121612312Y-89275806D01*
X121606282Y-89278491D01*
X121606281Y-89278491D01*
X121443878Y-89350797D01*
X121443876Y-89350798D01*
X121437848Y-89353482D01*
X121432507Y-89357362D01*
X121432506Y-89357363D01*
X121389179Y-89388842D01*
X121283347Y-89465734D01*
X121278926Y-89470644D01*
X121278925Y-89470645D01*
X121180552Y-89579900D01*
X121155560Y-89607656D01*
X121115964Y-89676238D01*
X121064791Y-89764873D01*
X121060073Y-89773044D01*
X121001058Y-89954672D01*
X121000368Y-89961233D01*
X121000368Y-89961235D01*
X120983693Y-90119893D01*
X120956680Y-90185550D01*
X120947478Y-90195818D01*
X113913700Y-97229595D01*
X113851388Y-97263621D01*
X113824605Y-97266500D01*
X111870700Y-97266500D01*
X111802579Y-97246498D01*
X111783353Y-97230157D01*
X111783080Y-97230460D01*
X111778168Y-97226037D01*
X111773753Y-97221134D01*
X111619252Y-97108882D01*
X111613224Y-97106198D01*
X111613222Y-97106197D01*
X111450819Y-97033891D01*
X111450818Y-97033891D01*
X111444788Y-97031206D01*
X111351388Y-97011353D01*
X111264444Y-96992872D01*
X111264439Y-96992872D01*
X111257987Y-96991500D01*
X111067013Y-96991500D01*
X111060561Y-96992872D01*
X111060556Y-96992872D01*
X110973613Y-97011353D01*
X110880212Y-97031206D01*
X110874182Y-97033891D01*
X110874181Y-97033891D01*
X110711778Y-97106197D01*
X110711776Y-97106198D01*
X110705748Y-97108882D01*
X110551247Y-97221134D01*
X110546826Y-97226044D01*
X110546825Y-97226045D01*
X110512992Y-97263621D01*
X110423460Y-97363056D01*
X110327973Y-97528444D01*
X110268958Y-97710072D01*
X110248996Y-97900000D01*
X110268958Y-98089928D01*
X110327973Y-98271556D01*
X110423460Y-98436944D01*
X110427878Y-98441851D01*
X110427879Y-98441852D01*
X110509952Y-98533003D01*
X110551247Y-98578866D01*
X110705748Y-98691118D01*
X110711776Y-98693802D01*
X110711778Y-98693803D01*
X110874181Y-98766109D01*
X110880212Y-98768794D01*
X110973613Y-98788647D01*
X111060556Y-98807128D01*
X111060561Y-98807128D01*
X111067013Y-98808500D01*
X111257987Y-98808500D01*
X111264439Y-98807128D01*
X111264444Y-98807128D01*
X111351388Y-98788647D01*
X111444788Y-98768794D01*
X111450819Y-98766109D01*
X111613222Y-98693803D01*
X111613224Y-98693802D01*
X111619252Y-98691118D01*
X111773753Y-98578866D01*
X111778168Y-98573963D01*
X111783080Y-98569540D01*
X111784205Y-98570789D01*
X111837514Y-98537949D01*
X111870700Y-98533500D01*
X114060433Y-98533500D01*
X114071616Y-98534027D01*
X114079109Y-98535702D01*
X114087035Y-98535453D01*
X114087036Y-98535453D01*
X114147186Y-98533562D01*
X114151145Y-98533500D01*
X114179056Y-98533500D01*
X114182991Y-98533003D01*
X114183056Y-98532995D01*
X114194893Y-98532062D01*
X114227151Y-98531048D01*
X114231170Y-98530922D01*
X114239089Y-98530673D01*
X114258543Y-98525021D01*
X114277900Y-98521013D01*
X114290130Y-98519468D01*
X114290131Y-98519468D01*
X114297997Y-98518474D01*
X114305368Y-98515555D01*
X114305370Y-98515555D01*
X114339112Y-98502196D01*
X114350342Y-98498351D01*
X114385183Y-98488229D01*
X114385184Y-98488229D01*
X114392793Y-98486018D01*
X114399612Y-98481985D01*
X114399617Y-98481983D01*
X114410228Y-98475707D01*
X114427976Y-98467012D01*
X114446817Y-98459552D01*
X114482587Y-98433564D01*
X114492507Y-98427048D01*
X114523735Y-98408580D01*
X114523738Y-98408578D01*
X114530562Y-98404542D01*
X114544883Y-98390221D01*
X114559917Y-98377380D01*
X114569894Y-98370131D01*
X114576307Y-98365472D01*
X114604498Y-98331395D01*
X114612488Y-98322616D01*
X121805505Y-91129600D01*
X121867817Y-91095574D01*
X121938632Y-91100639D01*
X121983695Y-91129600D01*
X124807859Y-93953764D01*
X124815399Y-93962050D01*
X124819511Y-93968529D01*
X124825288Y-93973954D01*
X124869162Y-94015154D01*
X124872004Y-94017909D01*
X124891741Y-94037646D01*
X124894938Y-94040126D01*
X124903958Y-94047829D01*
X124936190Y-94078097D01*
X124943136Y-94081916D01*
X124943139Y-94081918D01*
X124953945Y-94087859D01*
X124970464Y-94098710D01*
X124986470Y-94111125D01*
X124993739Y-94114270D01*
X124993743Y-94114273D01*
X125027048Y-94128685D01*
X125037698Y-94133902D01*
X125076451Y-94155206D01*
X125084126Y-94157177D01*
X125084127Y-94157177D01*
X125096073Y-94160244D01*
X125114778Y-94166648D01*
X125133366Y-94174692D01*
X125141189Y-94175931D01*
X125141199Y-94175934D01*
X125177035Y-94181610D01*
X125188655Y-94184016D01*
X125220470Y-94192184D01*
X125231481Y-94195011D01*
X125251735Y-94195011D01*
X125271445Y-94196562D01*
X125291454Y-94199731D01*
X125299346Y-94198985D01*
X125318091Y-94197213D01*
X125335473Y-94195570D01*
X125347330Y-94195011D01*
X129320922Y-94195011D01*
X129332105Y-94195538D01*
X129339598Y-94197213D01*
X129347524Y-94196964D01*
X129347525Y-94196964D01*
X129407675Y-94195073D01*
X129411634Y-94195011D01*
X129439545Y-94195011D01*
X129443480Y-94194514D01*
X129443545Y-94194506D01*
X129455382Y-94193573D01*
X129487640Y-94192559D01*
X129491659Y-94192433D01*
X129499578Y-94192184D01*
X129519032Y-94186532D01*
X129538389Y-94182524D01*
X129550619Y-94180979D01*
X129550620Y-94180979D01*
X129558486Y-94179985D01*
X129565857Y-94177066D01*
X129565859Y-94177066D01*
X129599601Y-94163707D01*
X129610831Y-94159862D01*
X129645672Y-94149740D01*
X129645673Y-94149740D01*
X129653282Y-94147529D01*
X129660101Y-94143496D01*
X129660106Y-94143494D01*
X129670717Y-94137218D01*
X129688465Y-94128523D01*
X129707306Y-94121063D01*
X129743076Y-94095075D01*
X129752996Y-94088559D01*
X129784224Y-94070091D01*
X129784227Y-94070089D01*
X129791051Y-94066053D01*
X129805372Y-94051732D01*
X129820406Y-94038891D01*
X129830383Y-94031642D01*
X129836796Y-94026983D01*
X129864987Y-93992906D01*
X129872977Y-93984127D01*
X130912900Y-92944205D01*
X130975212Y-92910179D01*
X131001995Y-92907300D01*
X131057887Y-92907300D01*
X131064339Y-92905928D01*
X131064344Y-92905928D01*
X131151288Y-92887447D01*
X131244688Y-92867594D01*
X131274428Y-92854353D01*
X131413122Y-92792603D01*
X131413124Y-92792602D01*
X131419152Y-92789918D01*
X131573653Y-92677666D01*
X131595291Y-92653635D01*
X131697021Y-92540652D01*
X131697022Y-92540651D01*
X131701440Y-92535744D01*
X131796927Y-92370356D01*
X131855942Y-92188728D01*
X131858642Y-92163045D01*
X131875214Y-92005365D01*
X131875904Y-91998800D01*
X131872883Y-91970053D01*
X131856632Y-91815435D01*
X131856632Y-91815433D01*
X131855942Y-91808872D01*
X131813950Y-91679635D01*
X131811922Y-91608669D01*
X131848585Y-91547871D01*
X131912297Y-91516546D01*
X131933783Y-91514700D01*
X131968605Y-91514700D01*
X132036726Y-91534702D01*
X132057701Y-91551605D01*
X132552596Y-92046501D01*
X132586621Y-92108813D01*
X132589500Y-92135596D01*
X132589500Y-94486476D01*
X132569498Y-94554597D01*
X132557142Y-94570779D01*
X132483960Y-94652056D01*
X132388473Y-94817444D01*
X132329458Y-94999072D01*
X132328768Y-95005633D01*
X132328768Y-95005635D01*
X132318412Y-95104166D01*
X132309496Y-95189000D01*
X132310186Y-95195565D01*
X132325222Y-95338621D01*
X132329458Y-95378928D01*
X132388473Y-95560556D01*
X132483960Y-95725944D01*
X132611747Y-95867866D01*
X132766248Y-95980118D01*
X132772276Y-95982802D01*
X132772278Y-95982803D01*
X132934681Y-96055109D01*
X132940712Y-96057794D01*
X133034113Y-96077647D01*
X133121056Y-96096128D01*
X133121061Y-96096128D01*
X133127513Y-96097500D01*
X133318487Y-96097500D01*
X133324939Y-96096128D01*
X133324944Y-96096128D01*
X133411887Y-96077647D01*
X133505288Y-96057794D01*
X133511319Y-96055109D01*
X133673722Y-95982803D01*
X133673724Y-95982802D01*
X133679752Y-95980118D01*
X133834253Y-95867866D01*
X133962040Y-95725944D01*
X134057527Y-95560556D01*
X134116542Y-95378928D01*
X134120779Y-95338621D01*
X134135814Y-95195565D01*
X134136504Y-95189000D01*
X134127588Y-95104166D01*
X134117232Y-95005635D01*
X134117232Y-95005633D01*
X134116542Y-94999072D01*
X134057527Y-94817444D01*
X133962040Y-94652056D01*
X133888863Y-94570785D01*
X133858147Y-94506779D01*
X133856500Y-94486476D01*
X133856500Y-91899767D01*
X133857027Y-91888584D01*
X133858702Y-91881091D01*
X133856562Y-91813000D01*
X133856500Y-91809043D01*
X133856500Y-91781144D01*
X133855996Y-91777153D01*
X133855063Y-91765311D01*
X133853923Y-91729036D01*
X133853674Y-91721111D01*
X133851462Y-91713497D01*
X133851461Y-91713492D01*
X133848023Y-91701659D01*
X133844012Y-91682295D01*
X133842467Y-91670064D01*
X133841474Y-91662203D01*
X133838557Y-91654836D01*
X133838556Y-91654831D01*
X133825198Y-91621092D01*
X133821354Y-91609865D01*
X133811230Y-91575022D01*
X133809018Y-91567407D01*
X133804676Y-91560066D01*
X133798707Y-91549972D01*
X133790012Y-91532224D01*
X133782552Y-91513383D01*
X133756564Y-91477613D01*
X133750048Y-91467693D01*
X133731580Y-91436465D01*
X133731578Y-91436462D01*
X133727542Y-91429638D01*
X133713221Y-91415317D01*
X133700380Y-91400283D01*
X133693131Y-91390306D01*
X133688472Y-91383893D01*
X133682367Y-91378842D01*
X133682362Y-91378837D01*
X133654396Y-91355701D01*
X133645618Y-91347713D01*
X132786852Y-90488947D01*
X132779312Y-90480661D01*
X132775200Y-90474182D01*
X132725548Y-90427556D01*
X132722707Y-90424802D01*
X132702970Y-90405065D01*
X132699773Y-90402585D01*
X132690751Y-90394880D01*
X132664300Y-90370041D01*
X132658521Y-90364614D01*
X132651575Y-90360795D01*
X132651572Y-90360793D01*
X132640766Y-90354852D01*
X132624247Y-90344001D01*
X132623783Y-90343641D01*
X132608241Y-90331586D01*
X132600972Y-90328441D01*
X132600968Y-90328438D01*
X132567663Y-90314026D01*
X132557013Y-90308809D01*
X132518260Y-90287505D01*
X132498637Y-90282467D01*
X132479934Y-90276063D01*
X132468620Y-90271167D01*
X132468619Y-90271167D01*
X132461345Y-90268019D01*
X132453522Y-90266780D01*
X132453512Y-90266777D01*
X132417676Y-90261101D01*
X132406056Y-90258695D01*
X132370911Y-90249672D01*
X132370910Y-90249672D01*
X132363230Y-90247700D01*
X132342976Y-90247700D01*
X132323265Y-90246149D01*
X132311086Y-90244220D01*
X132303257Y-90242980D01*
X132295365Y-90243726D01*
X132259239Y-90247141D01*
X132247381Y-90247700D01*
X131467400Y-90247700D01*
X131399279Y-90227698D01*
X131380053Y-90211357D01*
X131379780Y-90211660D01*
X131374868Y-90207237D01*
X131370453Y-90202334D01*
X131347352Y-90185550D01*
X131221294Y-90093963D01*
X131221293Y-90093962D01*
X131215952Y-90090082D01*
X131209924Y-90087398D01*
X131209922Y-90087397D01*
X131047519Y-90015091D01*
X131047518Y-90015091D01*
X131041488Y-90012406D01*
X130948087Y-89992553D01*
X130861144Y-89974072D01*
X130861139Y-89974072D01*
X130854687Y-89972700D01*
X130663713Y-89972700D01*
X130657261Y-89974072D01*
X130657256Y-89974072D01*
X130570313Y-89992553D01*
X130476912Y-90012406D01*
X130470882Y-90015091D01*
X130470881Y-90015091D01*
X130308478Y-90087397D01*
X130308476Y-90087398D01*
X130302448Y-90090082D01*
X130297107Y-90093962D01*
X130297106Y-90093963D01*
X130258467Y-90122036D01*
X130184406Y-90146100D01*
X127939864Y-90146100D01*
X127871743Y-90126098D01*
X127825250Y-90072442D01*
X127815146Y-90002168D01*
X127830744Y-89957103D01*
X127859927Y-89906556D01*
X127918942Y-89724928D01*
X127920740Y-89707826D01*
X127938214Y-89541565D01*
X127938904Y-89535000D01*
X127928345Y-89434539D01*
X127919632Y-89351635D01*
X127919632Y-89351633D01*
X127918942Y-89345072D01*
X127859927Y-89163444D01*
X127847537Y-89141983D01*
X127767741Y-89003774D01*
X127764440Y-88998056D01*
X127742647Y-88973852D01*
X127677645Y-88901660D01*
X127646927Y-88837653D01*
X127655692Y-88767199D01*
X127701155Y-88712668D01*
X127745087Y-88694103D01*
X127758427Y-88691268D01*
X127758433Y-88691266D01*
X127764888Y-88689894D01*
X127770919Y-88687209D01*
X127933322Y-88614903D01*
X127933324Y-88614902D01*
X127939352Y-88612218D01*
X128093853Y-88499966D01*
X128221640Y-88358044D01*
X128317127Y-88192656D01*
X128376142Y-88011028D01*
X128378439Y-87989179D01*
X128395414Y-87827665D01*
X128396104Y-87821100D01*
X128389784Y-87760971D01*
X128402556Y-87691133D01*
X128425999Y-87658705D01*
X129185699Y-86899005D01*
X129248011Y-86864979D01*
X129274794Y-86862100D01*
X129330687Y-86862100D01*
X129337139Y-86860728D01*
X129337144Y-86860728D01*
X129429399Y-86841118D01*
X129517488Y-86822394D01*
X129558964Y-86803928D01*
X129685922Y-86747403D01*
X129685924Y-86747402D01*
X129691952Y-86744718D01*
X129713771Y-86728866D01*
X129804114Y-86663227D01*
X129846453Y-86632466D01*
X129880666Y-86594469D01*
X129941110Y-86557231D01*
X130012094Y-86558583D01*
X130071078Y-86598097D01*
X130099336Y-86663227D01*
X130100300Y-86678781D01*
X130100300Y-87968876D01*
X130080298Y-88036997D01*
X130067942Y-88053179D01*
X129994760Y-88134456D01*
X129899273Y-88299844D01*
X129840258Y-88481472D01*
X129839568Y-88488033D01*
X129839568Y-88488035D01*
X129832258Y-88557590D01*
X129820296Y-88671400D01*
X129820986Y-88677965D01*
X129837770Y-88837653D01*
X129840258Y-88861328D01*
X129899273Y-89042956D01*
X129994760Y-89208344D01*
X129999178Y-89213251D01*
X129999179Y-89213252D01*
X130112518Y-89339128D01*
X130122547Y-89350266D01*
X130277048Y-89462518D01*
X130283076Y-89465202D01*
X130283078Y-89465203D01*
X130439846Y-89535000D01*
X130451512Y-89540194D01*
X130544912Y-89560047D01*
X130631856Y-89578528D01*
X130631861Y-89578528D01*
X130638313Y-89579900D01*
X130829287Y-89579900D01*
X130835739Y-89578528D01*
X130835744Y-89578528D01*
X130922688Y-89560047D01*
X131016088Y-89540194D01*
X131027754Y-89535000D01*
X131184522Y-89465203D01*
X131184524Y-89465202D01*
X131190552Y-89462518D01*
X131345053Y-89350266D01*
X131355082Y-89339128D01*
X131468421Y-89213252D01*
X131468422Y-89213251D01*
X131472840Y-89208344D01*
X131568327Y-89042956D01*
X131627342Y-88861328D01*
X131629831Y-88837653D01*
X131646614Y-88677965D01*
X131647304Y-88671400D01*
X131635342Y-88557590D01*
X131628032Y-88488035D01*
X131628032Y-88488033D01*
X131627342Y-88481472D01*
X131568327Y-88299844D01*
X131472840Y-88134456D01*
X131399663Y-88053185D01*
X131368947Y-87989179D01*
X131367300Y-87968876D01*
X131367300Y-83090492D01*
X131387302Y-83022371D01*
X131440958Y-82975878D01*
X131511232Y-82965774D01*
X131519497Y-82967245D01*
X131673256Y-82999928D01*
X131673261Y-82999928D01*
X131679713Y-83001300D01*
X131870687Y-83001300D01*
X131877139Y-82999928D01*
X131877144Y-82999928D01*
X131990287Y-82975878D01*
X132057488Y-82961594D01*
X132063519Y-82958909D01*
X132225922Y-82886603D01*
X132225924Y-82886602D01*
X132231952Y-82883918D01*
X132386453Y-82771666D01*
X132430303Y-82722966D01*
X132509821Y-82634652D01*
X132509822Y-82634651D01*
X132514240Y-82629744D01*
X132609727Y-82464356D01*
X132668742Y-82282728D01*
X132688704Y-82092800D01*
X132668742Y-81902872D01*
X132609727Y-81721244D01*
X132604853Y-81712801D01*
X132547244Y-81613020D01*
X132514240Y-81555856D01*
X132386453Y-81413934D01*
X132273435Y-81331821D01*
X132237294Y-81305563D01*
X132237293Y-81305562D01*
X132231952Y-81301682D01*
X132225924Y-81298998D01*
X132225922Y-81298997D01*
X132063519Y-81226691D01*
X132063518Y-81226691D01*
X132057488Y-81224006D01*
X131964087Y-81204153D01*
X131877144Y-81185672D01*
X131877139Y-81185672D01*
X131870687Y-81184300D01*
X131679713Y-81184300D01*
X131673261Y-81185672D01*
X131673256Y-81185672D01*
X131519497Y-81218355D01*
X131448706Y-81212953D01*
X131392074Y-81170136D01*
X131367580Y-81103498D01*
X131367300Y-81095108D01*
X131367300Y-77412563D01*
X131367827Y-77401379D01*
X131369501Y-77393891D01*
X131367362Y-77325832D01*
X131367300Y-77321875D01*
X131367300Y-77293944D01*
X131366794Y-77289938D01*
X131365861Y-77278092D01*
X131364722Y-77241837D01*
X131364473Y-77233910D01*
X131358822Y-77214458D01*
X131354814Y-77195106D01*
X131353268Y-77182868D01*
X131353267Y-77182866D01*
X131352274Y-77175003D01*
X131335994Y-77133886D01*
X131332159Y-77122685D01*
X131319818Y-77080206D01*
X131315785Y-77073387D01*
X131315783Y-77073382D01*
X131309507Y-77062771D01*
X131300810Y-77045021D01*
X131293352Y-77026183D01*
X131267371Y-76990423D01*
X131260853Y-76980501D01*
X131242378Y-76949260D01*
X131242374Y-76949255D01*
X131238342Y-76942437D01*
X131224018Y-76928113D01*
X131211176Y-76913078D01*
X131199272Y-76896693D01*
X131165206Y-76868511D01*
X131156427Y-76860522D01*
X123733405Y-69437500D01*
X123699379Y-69375188D01*
X123696500Y-69348405D01*
X123696500Y-66615524D01*
X123716502Y-66547403D01*
X123728858Y-66531221D01*
X123802040Y-66449944D01*
X123897527Y-66284556D01*
X123956542Y-66102928D01*
X123966205Y-66010995D01*
X123975814Y-65919565D01*
X123976504Y-65913000D01*
X123969023Y-65841821D01*
X123957232Y-65729635D01*
X123957232Y-65729633D01*
X123956542Y-65723072D01*
X123897527Y-65541444D01*
X123802040Y-65376056D01*
X123786840Y-65359174D01*
X123678675Y-65239045D01*
X123678674Y-65239044D01*
X123674253Y-65234134D01*
X123519752Y-65121882D01*
X123513724Y-65119198D01*
X123513722Y-65119197D01*
X123351319Y-65046891D01*
X123351318Y-65046891D01*
X123345288Y-65044206D01*
X123251888Y-65024353D01*
X123164944Y-65005872D01*
X123164939Y-65005872D01*
X123158487Y-65004500D01*
X122967513Y-65004500D01*
X122961061Y-65005872D01*
X122961056Y-65005872D01*
X122874112Y-65024353D01*
X122780712Y-65044206D01*
X122774682Y-65046891D01*
X122774681Y-65046891D01*
X122612278Y-65119197D01*
X122612276Y-65119198D01*
X122606248Y-65121882D01*
X122451747Y-65234134D01*
X122447326Y-65239044D01*
X122447325Y-65239045D01*
X122339161Y-65359174D01*
X122323960Y-65376056D01*
X122228473Y-65541444D01*
X122169458Y-65723072D01*
X122168768Y-65729633D01*
X122168768Y-65729635D01*
X122156977Y-65841821D01*
X122149496Y-65913000D01*
X122150186Y-65919565D01*
X122159796Y-66010995D01*
X122169458Y-66102928D01*
X122228473Y-66284556D01*
X122323960Y-66449944D01*
X122397137Y-66531215D01*
X122427853Y-66595221D01*
X122429500Y-66615524D01*
X122429500Y-69584233D01*
X122428973Y-69595416D01*
X122427298Y-69602909D01*
X122427547Y-69610835D01*
X122427547Y-69610836D01*
X122429438Y-69670986D01*
X122429500Y-69674945D01*
X122429500Y-69702856D01*
X122429997Y-69706790D01*
X122429997Y-69706791D01*
X122430005Y-69706856D01*
X122430938Y-69718693D01*
X122432327Y-69762889D01*
X122437930Y-69782174D01*
X122437978Y-69782339D01*
X122441987Y-69801700D01*
X122444526Y-69821797D01*
X122447445Y-69829168D01*
X122447445Y-69829170D01*
X122460804Y-69862912D01*
X122464649Y-69874142D01*
X122476982Y-69916593D01*
X122481015Y-69923412D01*
X122481017Y-69923417D01*
X122487293Y-69934028D01*
X122495988Y-69951776D01*
X122503448Y-69970617D01*
X122508110Y-69977033D01*
X122508110Y-69977034D01*
X122529436Y-70006387D01*
X122535952Y-70016307D01*
X122544283Y-70030393D01*
X122558458Y-70054362D01*
X122572779Y-70068683D01*
X122585619Y-70083716D01*
X122597528Y-70100107D01*
X122615128Y-70114667D01*
X122631605Y-70128298D01*
X122640384Y-70136288D01*
X130063395Y-77559299D01*
X130097421Y-77621611D01*
X130100300Y-77648394D01*
X130100300Y-85228419D01*
X130080298Y-85296540D01*
X130026642Y-85343033D01*
X129956368Y-85353137D01*
X129891788Y-85323643D01*
X129880670Y-85312736D01*
X129846453Y-85274734D01*
X129691952Y-85162482D01*
X129685924Y-85159798D01*
X129685922Y-85159797D01*
X129523519Y-85087491D01*
X129523518Y-85087491D01*
X129517488Y-85084806D01*
X129424087Y-85064953D01*
X129337144Y-85046472D01*
X129337139Y-85046472D01*
X129330687Y-85045100D01*
X129139713Y-85045100D01*
X129133261Y-85046472D01*
X129133256Y-85046472D01*
X129046313Y-85064953D01*
X128952912Y-85084806D01*
X128946882Y-85087491D01*
X128946881Y-85087491D01*
X128784478Y-85159797D01*
X128784476Y-85159798D01*
X128778448Y-85162482D01*
X128623947Y-85274734D01*
X128577646Y-85326157D01*
X128517201Y-85363395D01*
X128446217Y-85362043D01*
X128387233Y-85322529D01*
X128358975Y-85257399D01*
X128358011Y-85241845D01*
X128358011Y-81058664D01*
X128358538Y-81047481D01*
X128360213Y-81039988D01*
X128358073Y-80971897D01*
X128358011Y-80967940D01*
X128358011Y-80940041D01*
X128357507Y-80936050D01*
X128356574Y-80924208D01*
X128355434Y-80887933D01*
X128355185Y-80880008D01*
X128352973Y-80872394D01*
X128352972Y-80872389D01*
X128349534Y-80860556D01*
X128345523Y-80841192D01*
X128343978Y-80828961D01*
X128342985Y-80821100D01*
X128340068Y-80813733D01*
X128340067Y-80813728D01*
X128326709Y-80779989D01*
X128322865Y-80768762D01*
X128312741Y-80733919D01*
X128310529Y-80726304D01*
X128300218Y-80708869D01*
X128291523Y-80691121D01*
X128284063Y-80672280D01*
X128258075Y-80636510D01*
X128251559Y-80626590D01*
X128233091Y-80595362D01*
X128233089Y-80595359D01*
X128229053Y-80588535D01*
X128214732Y-80574214D01*
X128201891Y-80559180D01*
X128194642Y-80549203D01*
X128189983Y-80542790D01*
X128155906Y-80514599D01*
X128147127Y-80506609D01*
X117194114Y-69553595D01*
X117160088Y-69491283D01*
X117165153Y-69420468D01*
X117207700Y-69363632D01*
X117274220Y-69338821D01*
X117283209Y-69338500D01*
X117821413Y-69338500D01*
X117895472Y-69362563D01*
X117901902Y-69367235D01*
X117901909Y-69367239D01*
X117907248Y-69371118D01*
X117913276Y-69373802D01*
X117913278Y-69373803D01*
X118056345Y-69437500D01*
X118081712Y-69448794D01*
X118154704Y-69464309D01*
X118262056Y-69487128D01*
X118262061Y-69487128D01*
X118268513Y-69488500D01*
X118459487Y-69488500D01*
X118465939Y-69487128D01*
X118465944Y-69487128D01*
X118573296Y-69464309D01*
X118646288Y-69448794D01*
X118671655Y-69437500D01*
X118814722Y-69373803D01*
X118814724Y-69373802D01*
X118820752Y-69371118D01*
X118826097Y-69367235D01*
X118876157Y-69330864D01*
X118975253Y-69258866D01*
X119015903Y-69213720D01*
X119098621Y-69121852D01*
X119098622Y-69121851D01*
X119103040Y-69116944D01*
X119198527Y-68951556D01*
X119257542Y-68769928D01*
X119277504Y-68580000D01*
X119257542Y-68390072D01*
X119198527Y-68208444D01*
X119103040Y-68043056D01*
X118975253Y-67901134D01*
X118845179Y-67806629D01*
X118826094Y-67792763D01*
X118826093Y-67792762D01*
X118820752Y-67788882D01*
X118814724Y-67786198D01*
X118814722Y-67786197D01*
X118652319Y-67713891D01*
X118652318Y-67713891D01*
X118646288Y-67711206D01*
X118552888Y-67691353D01*
X118465944Y-67672872D01*
X118465939Y-67672872D01*
X118459487Y-67671500D01*
X118268513Y-67671500D01*
X118262061Y-67672872D01*
X118262056Y-67672872D01*
X118175112Y-67691353D01*
X118081712Y-67711206D01*
X118075682Y-67713891D01*
X118075681Y-67713891D01*
X117913278Y-67786197D01*
X117913276Y-67786198D01*
X117907248Y-67788882D01*
X117901909Y-67792761D01*
X117901902Y-67792765D01*
X117895472Y-67797437D01*
X117821413Y-67821500D01*
X115750980Y-67821500D01*
X115682859Y-67801498D01*
X115661885Y-67784595D01*
X115398885Y-67521595D01*
X115364859Y-67459283D01*
X115369924Y-67388468D01*
X115412471Y-67331632D01*
X115478991Y-67306821D01*
X115487980Y-67306500D01*
X118119930Y-67306500D01*
X118138880Y-67307933D01*
X118153115Y-67310099D01*
X118153119Y-67310099D01*
X118160349Y-67311199D01*
X118167641Y-67310606D01*
X118167644Y-67310606D01*
X118213018Y-67306915D01*
X118223233Y-67306500D01*
X118231293Y-67306500D01*
X118244583Y-67304951D01*
X118259507Y-67303211D01*
X118263882Y-67302778D01*
X118329339Y-67297454D01*
X118329342Y-67297453D01*
X118336637Y-67296860D01*
X118343601Y-67294604D01*
X118349560Y-67293413D01*
X118355415Y-67292029D01*
X118362681Y-67291182D01*
X118431327Y-67266265D01*
X118435455Y-67264848D01*
X118497936Y-67244607D01*
X118497938Y-67244606D01*
X118504899Y-67242351D01*
X118511154Y-67238555D01*
X118516628Y-67236049D01*
X118522058Y-67233330D01*
X118528937Y-67230833D01*
X118535058Y-67226820D01*
X118589976Y-67190814D01*
X118593680Y-67188477D01*
X118656107Y-67150595D01*
X118664484Y-67143197D01*
X118664508Y-67143224D01*
X118667500Y-67140571D01*
X118670733Y-67137868D01*
X118676852Y-67133856D01*
X118730128Y-67077617D01*
X118732506Y-67075175D01*
X121066331Y-64741350D01*
X121129228Y-64707199D01*
X121185824Y-64695169D01*
X121185833Y-64695166D01*
X121192288Y-64693794D01*
X121198319Y-64691109D01*
X121360722Y-64618803D01*
X121360724Y-64618802D01*
X121366752Y-64616118D01*
X121521253Y-64503866D01*
X121585182Y-64432866D01*
X121644621Y-64366852D01*
X121644622Y-64366851D01*
X121649040Y-64361944D01*
X121744527Y-64196556D01*
X121803542Y-64014928D01*
X121805352Y-63997713D01*
X121822814Y-63831565D01*
X121823504Y-63825000D01*
X121803542Y-63635072D01*
X121744527Y-63453444D01*
X121649040Y-63288056D01*
X121585112Y-63217056D01*
X121525675Y-63151045D01*
X121525674Y-63151044D01*
X121521253Y-63146134D01*
X121366752Y-63033882D01*
X121360724Y-63031198D01*
X121360722Y-63031197D01*
X121198319Y-62958891D01*
X121198318Y-62958891D01*
X121192288Y-62956206D01*
X121098887Y-62936353D01*
X121011944Y-62917872D01*
X121011939Y-62917872D01*
X121005487Y-62916500D01*
X120814513Y-62916500D01*
X120808061Y-62917872D01*
X120808056Y-62917872D01*
X120721113Y-62936353D01*
X120627712Y-62956206D01*
X120621682Y-62958891D01*
X120621681Y-62958891D01*
X120459278Y-63031197D01*
X120459276Y-63031198D01*
X120453248Y-63033882D01*
X120298747Y-63146134D01*
X120294326Y-63151044D01*
X120294325Y-63151045D01*
X120234889Y-63217056D01*
X120170960Y-63288056D01*
X120075473Y-63453444D01*
X120027385Y-63601444D01*
X120020613Y-63622285D01*
X119989875Y-63672444D01*
X117909724Y-65752595D01*
X117847412Y-65786621D01*
X117820629Y-65789500D01*
X115165371Y-65789500D01*
X115097250Y-65769498D01*
X115050757Y-65715842D01*
X115040653Y-65645568D01*
X115070147Y-65580988D01*
X115076276Y-65574405D01*
X115980331Y-64670350D01*
X116043228Y-64636199D01*
X116099824Y-64624169D01*
X116099833Y-64624166D01*
X116106288Y-64622794D01*
X116130000Y-64612237D01*
X116274722Y-64547803D01*
X116274724Y-64547802D01*
X116280752Y-64545118D01*
X116435253Y-64432866D01*
X116494692Y-64366852D01*
X116558621Y-64295852D01*
X116558622Y-64295851D01*
X116563040Y-64290944D01*
X116658527Y-64125556D01*
X116717542Y-63943928D01*
X116718780Y-63932155D01*
X116736814Y-63760565D01*
X116737504Y-63754000D01*
X116728932Y-63672444D01*
X116718232Y-63570635D01*
X116718232Y-63570633D01*
X116717542Y-63564072D01*
X116658527Y-63382444D01*
X116563040Y-63217056D01*
X116503604Y-63151045D01*
X116439675Y-63080045D01*
X116439674Y-63080044D01*
X116435253Y-63075134D01*
X116280752Y-62962882D01*
X116274724Y-62960198D01*
X116274722Y-62960197D01*
X116112319Y-62887891D01*
X116112318Y-62887891D01*
X116106288Y-62885206D01*
X116012888Y-62865353D01*
X115925944Y-62846872D01*
X115925939Y-62846872D01*
X115919487Y-62845500D01*
X115728513Y-62845500D01*
X115722061Y-62846872D01*
X115722056Y-62846872D01*
X115635112Y-62865353D01*
X115541712Y-62885206D01*
X115535682Y-62887891D01*
X115535681Y-62887891D01*
X115373278Y-62960197D01*
X115373276Y-62960198D01*
X115367248Y-62962882D01*
X115212747Y-63075134D01*
X115208326Y-63080044D01*
X115208325Y-63080045D01*
X115144397Y-63151045D01*
X115084960Y-63217056D01*
X114989473Y-63382444D01*
X114964362Y-63459729D01*
X114934613Y-63551285D01*
X114903875Y-63601444D01*
X113215578Y-65289741D01*
X113201166Y-65302127D01*
X113189571Y-65310660D01*
X113189566Y-65310665D01*
X113183671Y-65315003D01*
X113178932Y-65320581D01*
X113178929Y-65320584D01*
X113149454Y-65355279D01*
X113142524Y-65362795D01*
X113136829Y-65368490D01*
X113134549Y-65371372D01*
X113119208Y-65390762D01*
X113116417Y-65394166D01*
X113073898Y-65444214D01*
X113069156Y-65449796D01*
X113065828Y-65456312D01*
X113062461Y-65461361D01*
X113059294Y-65466490D01*
X113054755Y-65472227D01*
X113023834Y-65538386D01*
X113021931Y-65542280D01*
X112988720Y-65607319D01*
X112986981Y-65614427D01*
X112984882Y-65620070D01*
X112982965Y-65625833D01*
X112979867Y-65632461D01*
X112967717Y-65690877D01*
X112965003Y-65703923D01*
X112964033Y-65708207D01*
X112946681Y-65779121D01*
X112945989Y-65790275D01*
X112945953Y-65790273D01*
X112945714Y-65794266D01*
X112945340Y-65798458D01*
X112943849Y-65805626D01*
X112944047Y-65812943D01*
X112945943Y-65883032D01*
X112945989Y-65886439D01*
X112945989Y-66832810D01*
X112944556Y-66851760D01*
X112941290Y-66873229D01*
X112941883Y-66880521D01*
X112941883Y-66880524D01*
X112945574Y-66925898D01*
X112945989Y-66936113D01*
X112945989Y-66944173D01*
X112946414Y-66947817D01*
X112949278Y-66972387D01*
X112949711Y-66976762D01*
X112955629Y-67049517D01*
X112957885Y-67056481D01*
X112959076Y-67062440D01*
X112960460Y-67068295D01*
X112961307Y-67075561D01*
X112986224Y-67144207D01*
X112987641Y-67148335D01*
X113010138Y-67217779D01*
X113013934Y-67224034D01*
X113016440Y-67229508D01*
X113019159Y-67234938D01*
X113021656Y-67241817D01*
X113025669Y-67247937D01*
X113025669Y-67247938D01*
X113061675Y-67302856D01*
X113064012Y-67306560D01*
X113101894Y-67368987D01*
X113105610Y-67373195D01*
X113105611Y-67373196D01*
X113109292Y-67377364D01*
X113109265Y-67377388D01*
X113111918Y-67380380D01*
X113114621Y-67383613D01*
X113118633Y-67389732D01*
X113123945Y-67394764D01*
X113174872Y-67443008D01*
X113177314Y-67445386D01*
X114098333Y-68366405D01*
X114132359Y-68428717D01*
X114127294Y-68499532D01*
X114084747Y-68556368D01*
X114018227Y-68581179D01*
X114009238Y-68581500D01*
X112700980Y-68581500D01*
X112632859Y-68561498D01*
X112611885Y-68544595D01*
X104099949Y-60032658D01*
X104065923Y-59970346D01*
X104069211Y-59904627D01*
X104091702Y-59835406D01*
X104093742Y-59829128D01*
X104113704Y-59639200D01*
X104093742Y-59449272D01*
X104034727Y-59267644D01*
X103939240Y-59102256D01*
X103914249Y-59074500D01*
X103815875Y-58965245D01*
X103815874Y-58965244D01*
X103811453Y-58960334D01*
X103656952Y-58848082D01*
X103650924Y-58845398D01*
X103650922Y-58845397D01*
X103488519Y-58773091D01*
X103488518Y-58773091D01*
X103482488Y-58770406D01*
X103389088Y-58750553D01*
X103302144Y-58732072D01*
X103302139Y-58732072D01*
X103295687Y-58730700D01*
X103104713Y-58730700D01*
X103098261Y-58732072D01*
X103098256Y-58732072D01*
X103011312Y-58750553D01*
X102917912Y-58770406D01*
X102911882Y-58773091D01*
X102911881Y-58773091D01*
X102749478Y-58845397D01*
X102749476Y-58845398D01*
X102743448Y-58848082D01*
X102588947Y-58960334D01*
X102584526Y-58965244D01*
X102584525Y-58965245D01*
X102486152Y-59074500D01*
X102461160Y-59102256D01*
X102365673Y-59267644D01*
X102306658Y-59449272D01*
X102286696Y-59639200D01*
X100887034Y-59639200D01*
X102280829Y-58245405D01*
X102343141Y-58211379D01*
X102369924Y-58208500D01*
X107514260Y-58208500D01*
X107586531Y-58231287D01*
X107738251Y-58337523D01*
X107743233Y-58339846D01*
X107743238Y-58339849D01*
X107940775Y-58431961D01*
X107945757Y-58434284D01*
X107951065Y-58435706D01*
X107951067Y-58435707D01*
X108161598Y-58492119D01*
X108161600Y-58492119D01*
X108166913Y-58493543D01*
X108395000Y-58513498D01*
X108623087Y-58493543D01*
X108628400Y-58492119D01*
X108628402Y-58492119D01*
X108838933Y-58435707D01*
X108838935Y-58435706D01*
X108844243Y-58434284D01*
X108849225Y-58431961D01*
X109046762Y-58339849D01*
X109046767Y-58339846D01*
X109051749Y-58337523D01*
X109183307Y-58245405D01*
X109234789Y-58209357D01*
X109234792Y-58209355D01*
X109239300Y-58206198D01*
X109401198Y-58044300D01*
X109444377Y-57982635D01*
X109529366Y-57861257D01*
X109532523Y-57856749D01*
X109534846Y-57851767D01*
X109534849Y-57851762D01*
X109626961Y-57654225D01*
X109626961Y-57654224D01*
X109629284Y-57649243D01*
X109643168Y-57597430D01*
X109687119Y-57433402D01*
X109687119Y-57433400D01*
X109688543Y-57428087D01*
X109708498Y-57200000D01*
X109688543Y-56971913D01*
X109629284Y-56750757D01*
X109626961Y-56745775D01*
X109534849Y-56548238D01*
X109534846Y-56548232D01*
X109532523Y-56543251D01*
X109420141Y-56382753D01*
X109404357Y-56360211D01*
X109404355Y-56360208D01*
X109401198Y-56355700D01*
X109239300Y-56193802D01*
X109234792Y-56190645D01*
X109234789Y-56190643D01*
X109149955Y-56131242D01*
X109051749Y-56062477D01*
X109046767Y-56060154D01*
X109046762Y-56060151D01*
X108849225Y-55968039D01*
X108849224Y-55968039D01*
X108844243Y-55965716D01*
X108838935Y-55964294D01*
X108838933Y-55964293D01*
X108628402Y-55907881D01*
X108628400Y-55907881D01*
X108623087Y-55906457D01*
X108395000Y-55886502D01*
X108166913Y-55906457D01*
X108161600Y-55907881D01*
X108161598Y-55907881D01*
X107951067Y-55964293D01*
X107951065Y-55964294D01*
X107945757Y-55965716D01*
X107940776Y-55968039D01*
X107940775Y-55968039D01*
X107743238Y-56060151D01*
X107743233Y-56060154D01*
X107738251Y-56062477D01*
X107640045Y-56131242D01*
X107586531Y-56168713D01*
X107514260Y-56191500D01*
X101961840Y-56191500D01*
X101948232Y-56190763D01*
X101916736Y-56187341D01*
X101916732Y-56187341D01*
X101910611Y-56186676D01*
X101892611Y-56188251D01*
X101860609Y-56191050D01*
X101855784Y-56191379D01*
X101853313Y-56191500D01*
X101850231Y-56191500D01*
X101827763Y-56193703D01*
X101807489Y-56195691D01*
X101806174Y-56195813D01*
X101773913Y-56198636D01*
X101713587Y-56203913D01*
X101708468Y-56205400D01*
X101703167Y-56205920D01*
X101614194Y-56232782D01*
X101613054Y-56233120D01*
X101523663Y-56259091D01*
X101518929Y-56261545D01*
X101513831Y-56263084D01*
X101508387Y-56265978D01*
X101508386Y-56265979D01*
X101431831Y-56306684D01*
X101430663Y-56307298D01*
X101348074Y-56350108D01*
X101343911Y-56353431D01*
X101339204Y-56355934D01*
X101334430Y-56359828D01*
X101334428Y-56359829D01*
X101267105Y-56414737D01*
X101266160Y-56415500D01*
X101227027Y-56446739D01*
X101224536Y-56449230D01*
X101223809Y-56449880D01*
X101219463Y-56453592D01*
X101200588Y-56468987D01*
X101185938Y-56480935D01*
X101182015Y-56485677D01*
X101182013Y-56485679D01*
X101156703Y-56516273D01*
X101148713Y-56525053D01*
X93831926Y-63841840D01*
X93786442Y-63870957D01*
X93720734Y-63895198D01*
X93715773Y-63898150D01*
X93715772Y-63898150D01*
X93695543Y-63910185D01*
X93631120Y-63927900D01*
X89470242Y-63927900D01*
X89456635Y-63927163D01*
X89425137Y-63923741D01*
X89425132Y-63923741D01*
X89419011Y-63923076D01*
X89401011Y-63924651D01*
X89369009Y-63927450D01*
X89364184Y-63927779D01*
X89361713Y-63927900D01*
X89358631Y-63927900D01*
X89336163Y-63930103D01*
X89315889Y-63932091D01*
X89314574Y-63932213D01*
X89282313Y-63935036D01*
X89221987Y-63940313D01*
X89216868Y-63941800D01*
X89211567Y-63942320D01*
X89122594Y-63969182D01*
X89121454Y-63969520D01*
X89032063Y-63995491D01*
X89027329Y-63997945D01*
X89022231Y-63999484D01*
X89016787Y-64002378D01*
X89016786Y-64002379D01*
X88940231Y-64043084D01*
X88939063Y-64043698D01*
X88856474Y-64086508D01*
X88852311Y-64089831D01*
X88847604Y-64092334D01*
X88775482Y-64151155D01*
X88774626Y-64151846D01*
X88735427Y-64183138D01*
X88732923Y-64185642D01*
X88732205Y-64186284D01*
X88727872Y-64189985D01*
X88694338Y-64217335D01*
X88690411Y-64222082D01*
X88690409Y-64222084D01*
X88665113Y-64252662D01*
X88657123Y-64261442D01*
X86147821Y-66770745D01*
X86137678Y-66779847D01*
X86108175Y-66803568D01*
X86104208Y-66808296D01*
X86075909Y-66842021D01*
X86072728Y-66845669D01*
X86071085Y-66847481D01*
X86068891Y-66849675D01*
X86041558Y-66882949D01*
X86040896Y-66883747D01*
X85981046Y-66955074D01*
X85978478Y-66959744D01*
X85975097Y-66963861D01*
X85969354Y-66974572D01*
X85931223Y-67045686D01*
X85930594Y-67046845D01*
X85888738Y-67122981D01*
X85888735Y-67122989D01*
X85885767Y-67128387D01*
X85884155Y-67133469D01*
X85881638Y-67138163D01*
X85854438Y-67227131D01*
X85854118Y-67228159D01*
X85825965Y-67316906D01*
X85825371Y-67322202D01*
X85823813Y-67327298D01*
X85820066Y-67364190D01*
X85814418Y-67419787D01*
X85814289Y-67420993D01*
X85808700Y-67470827D01*
X85808700Y-67474354D01*
X85808645Y-67475339D01*
X85808198Y-67481019D01*
X85803826Y-67524062D01*
X85804406Y-67530193D01*
X85808141Y-67569709D01*
X85808700Y-67581567D01*
X85808700Y-69071100D01*
X85788698Y-69139221D01*
X85735042Y-69185714D01*
X85682700Y-69197100D01*
X84742900Y-69197100D01*
X84674779Y-69177098D01*
X84628286Y-69123442D01*
X84616900Y-69071100D01*
X84616900Y-68257466D01*
X84610145Y-68195284D01*
X84559015Y-68058895D01*
X84471661Y-67942339D01*
X84355105Y-67854985D01*
X84218716Y-67803855D01*
X84156534Y-67797100D01*
X82060266Y-67797100D01*
X81998084Y-67803855D01*
X81861695Y-67854985D01*
X81745139Y-67942339D01*
X81657785Y-68058895D01*
X81606655Y-68195284D01*
X81599900Y-68257466D01*
X81599900Y-72153734D01*
X81606655Y-72215916D01*
X81657785Y-72352305D01*
X81745139Y-72468861D01*
X81861695Y-72556215D01*
X81998084Y-72607345D01*
X82060266Y-72614100D01*
X84156534Y-72614100D01*
X84218716Y-72607345D01*
X84355105Y-72556215D01*
X84471661Y-72468861D01*
X84559015Y-72352305D01*
X84610145Y-72215916D01*
X84616900Y-72153734D01*
X84616900Y-71340100D01*
X84636902Y-71271979D01*
X84690558Y-71225486D01*
X84742900Y-71214100D01*
X86757327Y-71214100D01*
X86770497Y-71214790D01*
X86803996Y-71218311D01*
X86803998Y-71218311D01*
X86810125Y-71218955D01*
X86857770Y-71214619D01*
X86869190Y-71214100D01*
X87903598Y-71214100D01*
X87971719Y-71234102D01*
X88004421Y-71264531D01*
X88016041Y-71280036D01*
X88040889Y-71346539D01*
X88025837Y-71415922D01*
X88016049Y-71431154D01*
X87957785Y-71508895D01*
X87906655Y-71645284D01*
X87899900Y-71707466D01*
X87899900Y-72535676D01*
X87879898Y-72603797D01*
X87862995Y-72624771D01*
X84848864Y-75638902D01*
X84786552Y-75672928D01*
X84715737Y-75667863D01*
X84658418Y-75624666D01*
X84645342Y-75606962D01*
X84630027Y-75591404D01*
X84458869Y-75417537D01*
X84455738Y-75414356D01*
X84350188Y-75333803D01*
X84244428Y-75253089D01*
X84244424Y-75253087D01*
X84240887Y-75250387D01*
X84005075Y-75118327D01*
X83753009Y-75020810D01*
X83748684Y-75019807D01*
X83748679Y-75019806D01*
X83643148Y-74995346D01*
X83489718Y-74959782D01*
X83220454Y-74936461D01*
X83216019Y-74936705D01*
X83216015Y-74936705D01*
X82955034Y-74951068D01*
X82955027Y-74951069D01*
X82950591Y-74951313D01*
X82881661Y-74965024D01*
X82689884Y-75003170D01*
X82689879Y-75003171D01*
X82685512Y-75004040D01*
X82681309Y-75005516D01*
X82434715Y-75092113D01*
X82434712Y-75092114D01*
X82430507Y-75093591D01*
X82426554Y-75095644D01*
X82426548Y-75095647D01*
X82314935Y-75153626D01*
X82190664Y-75218180D01*
X82187049Y-75220763D01*
X82187043Y-75220767D01*
X81974390Y-75372731D01*
X81974386Y-75372734D01*
X81970769Y-75375319D01*
X81872988Y-75468597D01*
X81788988Y-75548730D01*
X81775208Y-75561875D01*
X81607885Y-75774124D01*
X81605653Y-75777966D01*
X81605650Y-75777971D01*
X81474374Y-76003977D01*
X81474371Y-76003984D01*
X81472136Y-76007831D01*
X81370672Y-76258335D01*
X81305516Y-76520635D01*
X81277969Y-76789499D01*
X80477657Y-76789499D01*
X80464364Y-58166000D01*
X94895296Y-58166000D01*
X94895986Y-58172565D01*
X94913324Y-58337523D01*
X94915258Y-58355928D01*
X94974273Y-58537556D01*
X95069760Y-58702944D01*
X95074178Y-58707851D01*
X95074179Y-58707852D01*
X95193125Y-58839955D01*
X95197547Y-58844866D01*
X95352048Y-58957118D01*
X95358076Y-58959802D01*
X95358078Y-58959803D01*
X95520481Y-59032109D01*
X95526512Y-59034794D01*
X95619912Y-59054647D01*
X95706856Y-59073128D01*
X95706861Y-59073128D01*
X95713313Y-59074500D01*
X95904287Y-59074500D01*
X95910739Y-59073128D01*
X95910744Y-59073128D01*
X95997688Y-59054647D01*
X96091088Y-59034794D01*
X96097119Y-59032109D01*
X96259522Y-58959803D01*
X96259524Y-58959802D01*
X96265552Y-58957118D01*
X96420053Y-58844866D01*
X96424475Y-58839955D01*
X96543421Y-58707852D01*
X96543422Y-58707851D01*
X96547840Y-58702944D01*
X96643327Y-58537556D01*
X96702342Y-58355928D01*
X96704277Y-58337523D01*
X96721614Y-58172565D01*
X96722304Y-58166000D01*
X96702342Y-57976072D01*
X96643327Y-57794444D01*
X96547840Y-57629056D01*
X96522750Y-57601190D01*
X96424475Y-57492045D01*
X96424474Y-57492044D01*
X96420053Y-57487134D01*
X96265552Y-57374882D01*
X96259524Y-57372198D01*
X96259522Y-57372197D01*
X96097119Y-57299891D01*
X96097118Y-57299891D01*
X96091088Y-57297206D01*
X95997687Y-57277353D01*
X95910744Y-57258872D01*
X95910739Y-57258872D01*
X95904287Y-57257500D01*
X95713313Y-57257500D01*
X95706861Y-57258872D01*
X95706856Y-57258872D01*
X95619913Y-57277353D01*
X95526512Y-57297206D01*
X95520482Y-57299891D01*
X95520481Y-57299891D01*
X95358078Y-57372197D01*
X95358076Y-57372198D01*
X95352048Y-57374882D01*
X95197547Y-57487134D01*
X95193126Y-57492044D01*
X95193125Y-57492045D01*
X95094851Y-57601190D01*
X95069760Y-57629056D01*
X94974273Y-57794444D01*
X94915258Y-57976072D01*
X94895296Y-58166000D01*
X80464364Y-58166000D01*
X80463084Y-56372386D01*
X81167759Y-56372386D01*
X81175216Y-56382753D01*
X81414935Y-56576874D01*
X81420272Y-56580751D01*
X81740685Y-56788830D01*
X81746394Y-56792127D01*
X82086811Y-56965578D01*
X82092836Y-56968260D01*
X82449502Y-57105171D01*
X82455784Y-57107212D01*
X82824816Y-57206094D01*
X82831266Y-57207465D01*
X83208629Y-57267234D01*
X83215167Y-57267920D01*
X83596699Y-57287916D01*
X83603301Y-57287916D01*
X83984833Y-57267920D01*
X83991371Y-57267234D01*
X84368734Y-57207465D01*
X84375184Y-57206094D01*
X84744216Y-57107212D01*
X84750498Y-57105171D01*
X85107164Y-56968260D01*
X85113189Y-56965578D01*
X85453606Y-56792127D01*
X85459315Y-56788830D01*
X85779728Y-56580751D01*
X85785065Y-56576874D01*
X86023835Y-56383522D01*
X86032300Y-56371267D01*
X86025966Y-56360176D01*
X83612812Y-53947022D01*
X83598868Y-53939408D01*
X83597035Y-53939539D01*
X83590420Y-53943790D01*
X81174900Y-56359310D01*
X81167759Y-56372386D01*
X80463084Y-56372386D01*
X80462782Y-55948828D01*
X80482734Y-55880696D01*
X80536357Y-55834165D01*
X80606624Y-55824011D01*
X80671225Y-55853458D01*
X80686701Y-55869446D01*
X80791478Y-55998835D01*
X80803733Y-56007300D01*
X80814824Y-56000966D01*
X83227978Y-53587812D01*
X83234356Y-53576132D01*
X83964408Y-53576132D01*
X83964539Y-53577965D01*
X83968790Y-53584580D01*
X86384310Y-56000100D01*
X86397386Y-56007241D01*
X86407753Y-55999784D01*
X86601877Y-55760061D01*
X86605747Y-55754735D01*
X86813831Y-55434313D01*
X86817128Y-55428603D01*
X86990578Y-55088189D01*
X86993260Y-55082164D01*
X87130171Y-54725498D01*
X87132212Y-54719216D01*
X87231094Y-54350184D01*
X87232465Y-54343734D01*
X87292234Y-53966371D01*
X87292920Y-53959833D01*
X87312916Y-53578301D01*
X87312916Y-53571699D01*
X87292920Y-53190167D01*
X87292234Y-53183629D01*
X87254386Y-52944669D01*
X102067001Y-52944669D01*
X102067371Y-52951490D01*
X102072895Y-53002352D01*
X102076521Y-53017604D01*
X102121676Y-53138054D01*
X102130214Y-53153649D01*
X102206715Y-53255724D01*
X102219276Y-53268285D01*
X102321351Y-53344786D01*
X102336946Y-53353324D01*
X102457394Y-53398478D01*
X102472649Y-53402105D01*
X102523514Y-53407631D01*
X102530328Y-53408000D01*
X103152885Y-53408000D01*
X103168124Y-53403525D01*
X103169329Y-53402135D01*
X103171000Y-53394452D01*
X103171000Y-53389884D01*
X103679000Y-53389884D01*
X103683475Y-53405123D01*
X103684865Y-53406328D01*
X103692548Y-53407999D01*
X104319669Y-53407999D01*
X104326490Y-53407629D01*
X104377352Y-53402105D01*
X104392604Y-53398479D01*
X104513054Y-53353324D01*
X104528649Y-53344786D01*
X104630724Y-53268285D01*
X104643285Y-53255724D01*
X104719786Y-53153649D01*
X104728325Y-53138052D01*
X104769425Y-53028418D01*
X104812066Y-52971653D01*
X104878628Y-52946953D01*
X104947977Y-52962160D01*
X104982645Y-52990150D01*
X105008219Y-53019674D01*
X105015580Y-53026883D01*
X105179434Y-53162916D01*
X105187881Y-53168831D01*
X105371756Y-53276279D01*
X105381042Y-53280729D01*
X105580001Y-53356703D01*
X105589899Y-53359579D01*
X105693250Y-53380606D01*
X105707299Y-53379410D01*
X105711000Y-53369065D01*
X105711000Y-52322115D01*
X105706525Y-52306876D01*
X105705135Y-52305671D01*
X105697452Y-52304000D01*
X103697115Y-52304000D01*
X103681876Y-52308475D01*
X103680671Y-52309865D01*
X103679000Y-52317548D01*
X103679000Y-53389884D01*
X103171000Y-53389884D01*
X103171000Y-52322115D01*
X103166525Y-52306876D01*
X103165135Y-52305671D01*
X103157452Y-52304000D01*
X102085116Y-52304000D01*
X102069877Y-52308475D01*
X102068672Y-52309865D01*
X102067001Y-52317548D01*
X102067001Y-52944669D01*
X87254386Y-52944669D01*
X87232465Y-52806266D01*
X87231094Y-52799816D01*
X87132212Y-52430784D01*
X87130171Y-52424502D01*
X86993260Y-52067836D01*
X86990578Y-52061811D01*
X86817128Y-51721397D01*
X86813831Y-51715687D01*
X86605747Y-51395265D01*
X86601877Y-51389939D01*
X86408522Y-51151165D01*
X86396267Y-51142700D01*
X86385176Y-51149034D01*
X83972022Y-53562188D01*
X83964408Y-53576132D01*
X83234356Y-53576132D01*
X83235592Y-53573868D01*
X83235461Y-53572035D01*
X83231210Y-53565420D01*
X80815690Y-51149900D01*
X80802614Y-51142759D01*
X80792248Y-51150215D01*
X80683318Y-51284733D01*
X80624903Y-51325085D01*
X80553946Y-51327451D01*
X80492974Y-51291078D01*
X80461346Y-51227516D01*
X80459397Y-51205529D01*
X80458953Y-50584590D01*
X80478906Y-50516455D01*
X80532529Y-50469924D01*
X80584953Y-50458500D01*
X81200673Y-50458500D01*
X81268794Y-50478502D01*
G37*
%TD.AperFunction*%
%TD*%
M02*
