%TF.GenerationSoftware,KiCad,Pcbnew,(6.0.0)*%
%TF.CreationDate,2022-06-28T23:59:44+02:00*%
%TF.ProjectId,sdrt41-tx,73647274-3431-42d7-9478-2e6b69636164,rev?*%
%TF.SameCoordinates,Original*%
%TF.FileFunction,Soldermask,Bot*%
%TF.FilePolarity,Negative*%
%FSLAX46Y46*%
G04 Gerber Fmt 4.6, Leading zero omitted, Abs format (unit mm)*
G04 Created by KiCad (PCBNEW (6.0.0)) date 2022-06-28 23:59:44*
%MOMM*%
%LPD*%
G01*
G04 APERTURE LIST*
%ADD10R,2.800000X2.800000*%
%ADD11C,2.800000*%
%ADD12C,1.200000*%
%ADD13C,6.400000*%
%ADD14C,0.800000*%
%ADD15C,2.050000*%
%ADD16C,2.250000*%
%ADD17R,1.700000X1.700000*%
%ADD18O,1.700000X1.700000*%
%ADD19C,1.600000*%
%ADD20O,1.600000X1.600000*%
%ADD21C,3.000000*%
%ADD22R,2.000000X1.500000*%
%ADD23R,2.000000X3.800000*%
G04 APERTURE END LIST*
D10*
%TO.C,J6*%
X83190400Y-81849600D03*
D11*
X83190400Y-76849600D03*
%TD*%
D12*
%TO.C,C33*%
X92980000Y-74574400D03*
X94980000Y-74574400D03*
%TD*%
%TO.C,C11*%
X101950000Y-65000000D03*
X103950000Y-65000000D03*
%TD*%
D13*
%TO.C,H1*%
X83600000Y-116350000D03*
D14*
X81902944Y-114652944D03*
X83600000Y-118750000D03*
X81200000Y-116350000D03*
X86000000Y-116350000D03*
X83600000Y-113950000D03*
X85297056Y-118047056D03*
X85297056Y-114652944D03*
X81902944Y-118047056D03*
%TD*%
%TO.C,H4*%
X81902944Y-51877944D03*
X83600000Y-51175000D03*
X85297056Y-51877944D03*
X83600000Y-55975000D03*
X81200000Y-53575000D03*
X81902944Y-55272056D03*
X86000000Y-53575000D03*
X85297056Y-55272056D03*
D13*
X83600000Y-53575000D03*
%TD*%
D15*
%TO.C,J1*%
X84226400Y-90728800D03*
D16*
X81686400Y-88188800D03*
X86766400Y-93268800D03*
X81686400Y-93268800D03*
X86766400Y-88188800D03*
%TD*%
D17*
%TO.C,J3*%
X103425000Y-52050000D03*
D18*
X105965000Y-52050000D03*
X108505000Y-52050000D03*
X111045000Y-52050000D03*
X113585000Y-52050000D03*
%TD*%
D15*
%TO.C,J4*%
X98700000Y-114400000D03*
D16*
X101240000Y-116940000D03*
X96160000Y-116940000D03*
X96160000Y-111860000D03*
X101240000Y-111860000D03*
%TD*%
D15*
%TO.C,J2*%
X84175600Y-105206800D03*
D16*
X81635600Y-102666800D03*
X86715600Y-107746800D03*
X81635600Y-107746800D03*
X86715600Y-102666800D03*
%TD*%
D19*
%TO.C,L1*%
X108395000Y-57200000D03*
D20*
X113475000Y-57200000D03*
%TD*%
D13*
%TO.C,H2*%
X132200000Y-53575000D03*
D14*
X129800000Y-53575000D03*
X130502944Y-55272056D03*
X132200000Y-51175000D03*
X130502944Y-51877944D03*
X132200000Y-55975000D03*
X134600000Y-53575000D03*
X133897056Y-55272056D03*
X133897056Y-51877944D03*
%TD*%
%TO.C,H3*%
X132200000Y-118750000D03*
X129800000Y-116350000D03*
X132200000Y-113950000D03*
X133897056Y-114652944D03*
D13*
X132200000Y-116350000D03*
D14*
X134600000Y-116350000D03*
X133897056Y-118047056D03*
X130502944Y-118047056D03*
X130502944Y-114652944D03*
%TD*%
D15*
%TO.C,J5*%
X124350000Y-54150000D03*
D16*
X126890000Y-51610000D03*
X121810000Y-51610000D03*
X121810000Y-56690000D03*
X126890000Y-56690000D03*
%TD*%
D21*
%TO.C,T1*%
X105947500Y-108250000D03*
X105947500Y-115250000D03*
X121227500Y-116540000D03*
X121107500Y-111810000D03*
X120917500Y-107210000D03*
%TD*%
D12*
%TO.C,C1*%
X94200000Y-64900000D03*
X96200000Y-64900000D03*
%TD*%
D22*
%TO.C,U1*%
X89408400Y-60336400D03*
X89408400Y-62636400D03*
D23*
X83108400Y-62636400D03*
D22*
X89408400Y-64936400D03*
%TD*%
%TO.C,U6*%
X89408400Y-67905600D03*
D23*
X83108400Y-70205600D03*
D22*
X89408400Y-70205600D03*
X89408400Y-72505600D03*
%TD*%
M02*
