%TF.GenerationSoftware,KiCad,Pcbnew,(6.0.0)*%
%TF.CreationDate,2022-06-28T23:59:44+02:00*%
%TF.ProjectId,sdrt41-tx,73647274-3431-42d7-9478-2e6b69636164,rev?*%
%TF.SameCoordinates,Original*%
%TF.FileFunction,Legend,Top*%
%TF.FilePolarity,Positive*%
%FSLAX46Y46*%
G04 Gerber Fmt 4.6, Leading zero omitted, Abs format (unit mm)*
G04 Created by KiCad (PCBNEW (6.0.0)) date 2022-06-28 23:59:44*
%MOMM*%
%LPD*%
G01*
G04 APERTURE LIST*
%ADD10C,0.150000*%
%ADD11C,0.120000*%
G04 APERTURE END LIST*
D10*
%TO.C,R23*%
X113911142Y-59254380D02*
X113577809Y-58778190D01*
X113339714Y-59254380D02*
X113339714Y-58254380D01*
X113720666Y-58254380D01*
X113815904Y-58302000D01*
X113863523Y-58349619D01*
X113911142Y-58444857D01*
X113911142Y-58587714D01*
X113863523Y-58682952D01*
X113815904Y-58730571D01*
X113720666Y-58778190D01*
X113339714Y-58778190D01*
X114292095Y-58349619D02*
X114339714Y-58302000D01*
X114434952Y-58254380D01*
X114673047Y-58254380D01*
X114768285Y-58302000D01*
X114815904Y-58349619D01*
X114863523Y-58444857D01*
X114863523Y-58540095D01*
X114815904Y-58682952D01*
X114244476Y-59254380D01*
X114863523Y-59254380D01*
X115196857Y-58254380D02*
X115815904Y-58254380D01*
X115482571Y-58635333D01*
X115625428Y-58635333D01*
X115720666Y-58682952D01*
X115768285Y-58730571D01*
X115815904Y-58825809D01*
X115815904Y-59063904D01*
X115768285Y-59159142D01*
X115720666Y-59206761D01*
X115625428Y-59254380D01*
X115339714Y-59254380D01*
X115244476Y-59206761D01*
X115196857Y-59159142D01*
%TO.C,C19*%
X104607142Y-81157142D02*
X104559523Y-81204761D01*
X104416666Y-81252380D01*
X104321428Y-81252380D01*
X104178571Y-81204761D01*
X104083333Y-81109523D01*
X104035714Y-81014285D01*
X103988095Y-80823809D01*
X103988095Y-80680952D01*
X104035714Y-80490476D01*
X104083333Y-80395238D01*
X104178571Y-80300000D01*
X104321428Y-80252380D01*
X104416666Y-80252380D01*
X104559523Y-80300000D01*
X104607142Y-80347619D01*
X105559523Y-81252380D02*
X104988095Y-81252380D01*
X105273809Y-81252380D02*
X105273809Y-80252380D01*
X105178571Y-80395238D01*
X105083333Y-80490476D01*
X104988095Y-80538095D01*
X106035714Y-81252380D02*
X106226190Y-81252380D01*
X106321428Y-81204761D01*
X106369047Y-81157142D01*
X106464285Y-81014285D01*
X106511904Y-80823809D01*
X106511904Y-80442857D01*
X106464285Y-80347619D01*
X106416666Y-80300000D01*
X106321428Y-80252380D01*
X106130952Y-80252380D01*
X106035714Y-80300000D01*
X105988095Y-80347619D01*
X105940476Y-80442857D01*
X105940476Y-80680952D01*
X105988095Y-80776190D01*
X106035714Y-80823809D01*
X106130952Y-80871428D01*
X106321428Y-80871428D01*
X106416666Y-80823809D01*
X106464285Y-80776190D01*
X106511904Y-80680952D01*
%TO.C,R9*%
X118435380Y-96813666D02*
X117959190Y-97147000D01*
X118435380Y-97385095D02*
X117435380Y-97385095D01*
X117435380Y-97004142D01*
X117483000Y-96908904D01*
X117530619Y-96861285D01*
X117625857Y-96813666D01*
X117768714Y-96813666D01*
X117863952Y-96861285D01*
X117911571Y-96908904D01*
X117959190Y-97004142D01*
X117959190Y-97385095D01*
X118435380Y-96337476D02*
X118435380Y-96147000D01*
X118387761Y-96051761D01*
X118340142Y-96004142D01*
X118197285Y-95908904D01*
X118006809Y-95861285D01*
X117625857Y-95861285D01*
X117530619Y-95908904D01*
X117483000Y-95956523D01*
X117435380Y-96051761D01*
X117435380Y-96242238D01*
X117483000Y-96337476D01*
X117530619Y-96385095D01*
X117625857Y-96432714D01*
X117863952Y-96432714D01*
X117959190Y-96385095D01*
X118006809Y-96337476D01*
X118054428Y-96242238D01*
X118054428Y-96051761D01*
X118006809Y-95956523D01*
X117959190Y-95908904D01*
X117863952Y-95861285D01*
%TO.C,J6*%
X75082780Y-79682933D02*
X75797066Y-79682933D01*
X75939923Y-79730552D01*
X76035161Y-79825790D01*
X76082780Y-79968647D01*
X76082780Y-80063885D01*
X75082780Y-78778171D02*
X75082780Y-78968647D01*
X75130400Y-79063885D01*
X75178019Y-79111504D01*
X75320876Y-79206742D01*
X75511352Y-79254361D01*
X75892304Y-79254361D01*
X75987542Y-79206742D01*
X76035161Y-79159123D01*
X76082780Y-79063885D01*
X76082780Y-78873409D01*
X76035161Y-78778171D01*
X75987542Y-78730552D01*
X75892304Y-78682933D01*
X75654209Y-78682933D01*
X75558971Y-78730552D01*
X75511352Y-78778171D01*
X75463733Y-78873409D01*
X75463733Y-79063885D01*
X75511352Y-79159123D01*
X75558971Y-79206742D01*
X75654209Y-79254361D01*
%TO.C,C24*%
X123357142Y-84707142D02*
X123309523Y-84754761D01*
X123166666Y-84802380D01*
X123071428Y-84802380D01*
X122928571Y-84754761D01*
X122833333Y-84659523D01*
X122785714Y-84564285D01*
X122738095Y-84373809D01*
X122738095Y-84230952D01*
X122785714Y-84040476D01*
X122833333Y-83945238D01*
X122928571Y-83850000D01*
X123071428Y-83802380D01*
X123166666Y-83802380D01*
X123309523Y-83850000D01*
X123357142Y-83897619D01*
X123738095Y-83897619D02*
X123785714Y-83850000D01*
X123880952Y-83802380D01*
X124119047Y-83802380D01*
X124214285Y-83850000D01*
X124261904Y-83897619D01*
X124309523Y-83992857D01*
X124309523Y-84088095D01*
X124261904Y-84230952D01*
X123690476Y-84802380D01*
X124309523Y-84802380D01*
X125166666Y-84135714D02*
X125166666Y-84802380D01*
X124928571Y-83754761D02*
X124690476Y-84469047D01*
X125309523Y-84469047D01*
%TO.C,C2*%
X118467142Y-56300666D02*
X118514761Y-56348285D01*
X118562380Y-56491142D01*
X118562380Y-56586380D01*
X118514761Y-56729238D01*
X118419523Y-56824476D01*
X118324285Y-56872095D01*
X118133809Y-56919714D01*
X117990952Y-56919714D01*
X117800476Y-56872095D01*
X117705238Y-56824476D01*
X117610000Y-56729238D01*
X117562380Y-56586380D01*
X117562380Y-56491142D01*
X117610000Y-56348285D01*
X117657619Y-56300666D01*
X117657619Y-55919714D02*
X117610000Y-55872095D01*
X117562380Y-55776857D01*
X117562380Y-55538761D01*
X117610000Y-55443523D01*
X117657619Y-55395904D01*
X117752857Y-55348285D01*
X117848095Y-55348285D01*
X117990952Y-55395904D01*
X118562380Y-55967333D01*
X118562380Y-55348285D01*
%TO.C,R14*%
X101769942Y-79471780D02*
X101436609Y-78995590D01*
X101198514Y-79471780D02*
X101198514Y-78471780D01*
X101579466Y-78471780D01*
X101674704Y-78519400D01*
X101722323Y-78567019D01*
X101769942Y-78662257D01*
X101769942Y-78805114D01*
X101722323Y-78900352D01*
X101674704Y-78947971D01*
X101579466Y-78995590D01*
X101198514Y-78995590D01*
X102722323Y-79471780D02*
X102150895Y-79471780D01*
X102436609Y-79471780D02*
X102436609Y-78471780D01*
X102341371Y-78614638D01*
X102246133Y-78709876D01*
X102150895Y-78757495D01*
X103579466Y-78805114D02*
X103579466Y-79471780D01*
X103341371Y-78424161D02*
X103103276Y-79138447D01*
X103722323Y-79138447D01*
%TO.C,C21*%
X103751142Y-96297142D02*
X103703523Y-96344761D01*
X103560666Y-96392380D01*
X103465428Y-96392380D01*
X103322571Y-96344761D01*
X103227333Y-96249523D01*
X103179714Y-96154285D01*
X103132095Y-95963809D01*
X103132095Y-95820952D01*
X103179714Y-95630476D01*
X103227333Y-95535238D01*
X103322571Y-95440000D01*
X103465428Y-95392380D01*
X103560666Y-95392380D01*
X103703523Y-95440000D01*
X103751142Y-95487619D01*
X104132095Y-95487619D02*
X104179714Y-95440000D01*
X104274952Y-95392380D01*
X104513047Y-95392380D01*
X104608285Y-95440000D01*
X104655904Y-95487619D01*
X104703523Y-95582857D01*
X104703523Y-95678095D01*
X104655904Y-95820952D01*
X104084476Y-96392380D01*
X104703523Y-96392380D01*
X105655904Y-96392380D02*
X105084476Y-96392380D01*
X105370190Y-96392380D02*
X105370190Y-95392380D01*
X105274952Y-95535238D01*
X105179714Y-95630476D01*
X105084476Y-95678095D01*
%TO.C,C29*%
X129617742Y-82106657D02*
X129665361Y-82154276D01*
X129712980Y-82297133D01*
X129712980Y-82392371D01*
X129665361Y-82535228D01*
X129570123Y-82630466D01*
X129474885Y-82678085D01*
X129284409Y-82725704D01*
X129141552Y-82725704D01*
X128951076Y-82678085D01*
X128855838Y-82630466D01*
X128760600Y-82535228D01*
X128712980Y-82392371D01*
X128712980Y-82297133D01*
X128760600Y-82154276D01*
X128808219Y-82106657D01*
X128808219Y-81725704D02*
X128760600Y-81678085D01*
X128712980Y-81582847D01*
X128712980Y-81344752D01*
X128760600Y-81249514D01*
X128808219Y-81201895D01*
X128903457Y-81154276D01*
X128998695Y-81154276D01*
X129141552Y-81201895D01*
X129712980Y-81773323D01*
X129712980Y-81154276D01*
X129712980Y-80678085D02*
X129712980Y-80487609D01*
X129665361Y-80392371D01*
X129617742Y-80344752D01*
X129474885Y-80249514D01*
X129284409Y-80201895D01*
X128903457Y-80201895D01*
X128808219Y-80249514D01*
X128760600Y-80297133D01*
X128712980Y-80392371D01*
X128712980Y-80582847D01*
X128760600Y-80678085D01*
X128808219Y-80725704D01*
X128903457Y-80773323D01*
X129141552Y-80773323D01*
X129236790Y-80725704D01*
X129284409Y-80678085D01*
X129332028Y-80582847D01*
X129332028Y-80392371D01*
X129284409Y-80297133D01*
X129236790Y-80249514D01*
X129141552Y-80201895D01*
%TO.C,C23*%
X125257142Y-102287142D02*
X125209523Y-102334761D01*
X125066666Y-102382380D01*
X124971428Y-102382380D01*
X124828571Y-102334761D01*
X124733333Y-102239523D01*
X124685714Y-102144285D01*
X124638095Y-101953809D01*
X124638095Y-101810952D01*
X124685714Y-101620476D01*
X124733333Y-101525238D01*
X124828571Y-101430000D01*
X124971428Y-101382380D01*
X125066666Y-101382380D01*
X125209523Y-101430000D01*
X125257142Y-101477619D01*
X125638095Y-101477619D02*
X125685714Y-101430000D01*
X125780952Y-101382380D01*
X126019047Y-101382380D01*
X126114285Y-101430000D01*
X126161904Y-101477619D01*
X126209523Y-101572857D01*
X126209523Y-101668095D01*
X126161904Y-101810952D01*
X125590476Y-102382380D01*
X126209523Y-102382380D01*
X126542857Y-101382380D02*
X127161904Y-101382380D01*
X126828571Y-101763333D01*
X126971428Y-101763333D01*
X127066666Y-101810952D01*
X127114285Y-101858571D01*
X127161904Y-101953809D01*
X127161904Y-102191904D01*
X127114285Y-102287142D01*
X127066666Y-102334761D01*
X126971428Y-102382380D01*
X126685714Y-102382380D01*
X126590476Y-102334761D01*
X126542857Y-102287142D01*
%TO.C,R21*%
X124602380Y-111490357D02*
X124126190Y-111823690D01*
X124602380Y-112061785D02*
X123602380Y-112061785D01*
X123602380Y-111680833D01*
X123650000Y-111585595D01*
X123697619Y-111537976D01*
X123792857Y-111490357D01*
X123935714Y-111490357D01*
X124030952Y-111537976D01*
X124078571Y-111585595D01*
X124126190Y-111680833D01*
X124126190Y-112061785D01*
X123697619Y-111109404D02*
X123650000Y-111061785D01*
X123602380Y-110966547D01*
X123602380Y-110728452D01*
X123650000Y-110633214D01*
X123697619Y-110585595D01*
X123792857Y-110537976D01*
X123888095Y-110537976D01*
X124030952Y-110585595D01*
X124602380Y-111157023D01*
X124602380Y-110537976D01*
X124602380Y-109585595D02*
X124602380Y-110157023D01*
X124602380Y-109871309D02*
X123602380Y-109871309D01*
X123745238Y-109966547D01*
X123840476Y-110061785D01*
X123888095Y-110157023D01*
%TO.C,C17*%
X95877142Y-106529142D02*
X95829523Y-106576761D01*
X95686666Y-106624380D01*
X95591428Y-106624380D01*
X95448571Y-106576761D01*
X95353333Y-106481523D01*
X95305714Y-106386285D01*
X95258095Y-106195809D01*
X95258095Y-106052952D01*
X95305714Y-105862476D01*
X95353333Y-105767238D01*
X95448571Y-105672000D01*
X95591428Y-105624380D01*
X95686666Y-105624380D01*
X95829523Y-105672000D01*
X95877142Y-105719619D01*
X96829523Y-106624380D02*
X96258095Y-106624380D01*
X96543809Y-106624380D02*
X96543809Y-105624380D01*
X96448571Y-105767238D01*
X96353333Y-105862476D01*
X96258095Y-105910095D01*
X97162857Y-105624380D02*
X97829523Y-105624380D01*
X97400952Y-106624380D01*
%TO.C,C7*%
X92813142Y-98337666D02*
X92860761Y-98385285D01*
X92908380Y-98528142D01*
X92908380Y-98623380D01*
X92860761Y-98766238D01*
X92765523Y-98861476D01*
X92670285Y-98909095D01*
X92479809Y-98956714D01*
X92336952Y-98956714D01*
X92146476Y-98909095D01*
X92051238Y-98861476D01*
X91956000Y-98766238D01*
X91908380Y-98623380D01*
X91908380Y-98528142D01*
X91956000Y-98385285D01*
X92003619Y-98337666D01*
X91908380Y-98004333D02*
X91908380Y-97337666D01*
X92908380Y-97766238D01*
%TO.C,C33*%
X93337142Y-71181542D02*
X93289523Y-71229161D01*
X93146666Y-71276780D01*
X93051428Y-71276780D01*
X92908571Y-71229161D01*
X92813333Y-71133923D01*
X92765714Y-71038685D01*
X92718095Y-70848209D01*
X92718095Y-70705352D01*
X92765714Y-70514876D01*
X92813333Y-70419638D01*
X92908571Y-70324400D01*
X93051428Y-70276780D01*
X93146666Y-70276780D01*
X93289523Y-70324400D01*
X93337142Y-70372019D01*
X93670476Y-70276780D02*
X94289523Y-70276780D01*
X93956190Y-70657733D01*
X94099047Y-70657733D01*
X94194285Y-70705352D01*
X94241904Y-70752971D01*
X94289523Y-70848209D01*
X94289523Y-71086304D01*
X94241904Y-71181542D01*
X94194285Y-71229161D01*
X94099047Y-71276780D01*
X93813333Y-71276780D01*
X93718095Y-71229161D01*
X93670476Y-71181542D01*
X94622857Y-70276780D02*
X95241904Y-70276780D01*
X94908571Y-70657733D01*
X95051428Y-70657733D01*
X95146666Y-70705352D01*
X95194285Y-70752971D01*
X95241904Y-70848209D01*
X95241904Y-71086304D01*
X95194285Y-71181542D01*
X95146666Y-71229161D01*
X95051428Y-71276780D01*
X94765714Y-71276780D01*
X94670476Y-71229161D01*
X94622857Y-71181542D01*
%TO.C,U5*%
X125538095Y-86952380D02*
X125538095Y-87761904D01*
X125585714Y-87857142D01*
X125633333Y-87904761D01*
X125728571Y-87952380D01*
X125919047Y-87952380D01*
X126014285Y-87904761D01*
X126061904Y-87857142D01*
X126109523Y-87761904D01*
X126109523Y-86952380D01*
X127061904Y-86952380D02*
X126585714Y-86952380D01*
X126538095Y-87428571D01*
X126585714Y-87380952D01*
X126680952Y-87333333D01*
X126919047Y-87333333D01*
X127014285Y-87380952D01*
X127061904Y-87428571D01*
X127109523Y-87523809D01*
X127109523Y-87761904D01*
X127061904Y-87857142D01*
X127014285Y-87904761D01*
X126919047Y-87952380D01*
X126680952Y-87952380D01*
X126585714Y-87904761D01*
X126538095Y-87857142D01*
%TO.C,C5*%
X92686142Y-102782666D02*
X92733761Y-102830285D01*
X92781380Y-102973142D01*
X92781380Y-103068380D01*
X92733761Y-103211238D01*
X92638523Y-103306476D01*
X92543285Y-103354095D01*
X92352809Y-103401714D01*
X92209952Y-103401714D01*
X92019476Y-103354095D01*
X91924238Y-103306476D01*
X91829000Y-103211238D01*
X91781380Y-103068380D01*
X91781380Y-102973142D01*
X91829000Y-102830285D01*
X91876619Y-102782666D01*
X91781380Y-101877904D02*
X91781380Y-102354095D01*
X92257571Y-102401714D01*
X92209952Y-102354095D01*
X92162333Y-102258857D01*
X92162333Y-102020761D01*
X92209952Y-101925523D01*
X92257571Y-101877904D01*
X92352809Y-101830285D01*
X92590904Y-101830285D01*
X92686142Y-101877904D01*
X92733761Y-101925523D01*
X92781380Y-102020761D01*
X92781380Y-102258857D01*
X92733761Y-102354095D01*
X92686142Y-102401714D01*
%TO.C,C11*%
X102307142Y-61607142D02*
X102259523Y-61654761D01*
X102116666Y-61702380D01*
X102021428Y-61702380D01*
X101878571Y-61654761D01*
X101783333Y-61559523D01*
X101735714Y-61464285D01*
X101688095Y-61273809D01*
X101688095Y-61130952D01*
X101735714Y-60940476D01*
X101783333Y-60845238D01*
X101878571Y-60750000D01*
X102021428Y-60702380D01*
X102116666Y-60702380D01*
X102259523Y-60750000D01*
X102307142Y-60797619D01*
X103259523Y-61702380D02*
X102688095Y-61702380D01*
X102973809Y-61702380D02*
X102973809Y-60702380D01*
X102878571Y-60845238D01*
X102783333Y-60940476D01*
X102688095Y-60988095D01*
X104211904Y-61702380D02*
X103640476Y-61702380D01*
X103926190Y-61702380D02*
X103926190Y-60702380D01*
X103830952Y-60845238D01*
X103735714Y-60940476D01*
X103640476Y-60988095D01*
%TO.C,R3*%
X98131333Y-85923380D02*
X97798000Y-85447190D01*
X97559904Y-85923380D02*
X97559904Y-84923380D01*
X97940857Y-84923380D01*
X98036095Y-84971000D01*
X98083714Y-85018619D01*
X98131333Y-85113857D01*
X98131333Y-85256714D01*
X98083714Y-85351952D01*
X98036095Y-85399571D01*
X97940857Y-85447190D01*
X97559904Y-85447190D01*
X98464666Y-84923380D02*
X99083714Y-84923380D01*
X98750380Y-85304333D01*
X98893238Y-85304333D01*
X98988476Y-85351952D01*
X99036095Y-85399571D01*
X99083714Y-85494809D01*
X99083714Y-85732904D01*
X99036095Y-85828142D01*
X98988476Y-85875761D01*
X98893238Y-85923380D01*
X98607523Y-85923380D01*
X98512285Y-85875761D01*
X98464666Y-85828142D01*
%TO.C,C4*%
X90177142Y-83816666D02*
X90224761Y-83864285D01*
X90272380Y-84007142D01*
X90272380Y-84102380D01*
X90224761Y-84245238D01*
X90129523Y-84340476D01*
X90034285Y-84388095D01*
X89843809Y-84435714D01*
X89700952Y-84435714D01*
X89510476Y-84388095D01*
X89415238Y-84340476D01*
X89320000Y-84245238D01*
X89272380Y-84102380D01*
X89272380Y-84007142D01*
X89320000Y-83864285D01*
X89367619Y-83816666D01*
X89605714Y-82959523D02*
X90272380Y-82959523D01*
X89224761Y-83197619D02*
X89939047Y-83435714D01*
X89939047Y-82816666D01*
%TO.C,R12*%
X119769642Y-96602380D02*
X119436309Y-96126190D01*
X119198214Y-96602380D02*
X119198214Y-95602380D01*
X119579166Y-95602380D01*
X119674404Y-95650000D01*
X119722023Y-95697619D01*
X119769642Y-95792857D01*
X119769642Y-95935714D01*
X119722023Y-96030952D01*
X119674404Y-96078571D01*
X119579166Y-96126190D01*
X119198214Y-96126190D01*
X120722023Y-96602380D02*
X120150595Y-96602380D01*
X120436309Y-96602380D02*
X120436309Y-95602380D01*
X120341071Y-95745238D01*
X120245833Y-95840476D01*
X120150595Y-95888095D01*
X121102976Y-95697619D02*
X121150595Y-95650000D01*
X121245833Y-95602380D01*
X121483928Y-95602380D01*
X121579166Y-95650000D01*
X121626785Y-95697619D01*
X121674404Y-95792857D01*
X121674404Y-95888095D01*
X121626785Y-96030952D01*
X121055357Y-96602380D01*
X121674404Y-96602380D01*
%TO.C,R11*%
X116959142Y-100782380D02*
X116625809Y-100306190D01*
X116387714Y-100782380D02*
X116387714Y-99782380D01*
X116768666Y-99782380D01*
X116863904Y-99830000D01*
X116911523Y-99877619D01*
X116959142Y-99972857D01*
X116959142Y-100115714D01*
X116911523Y-100210952D01*
X116863904Y-100258571D01*
X116768666Y-100306190D01*
X116387714Y-100306190D01*
X117911523Y-100782380D02*
X117340095Y-100782380D01*
X117625809Y-100782380D02*
X117625809Y-99782380D01*
X117530571Y-99925238D01*
X117435333Y-100020476D01*
X117340095Y-100068095D01*
X118863904Y-100782380D02*
X118292476Y-100782380D01*
X118578190Y-100782380D02*
X118578190Y-99782380D01*
X118482952Y-99925238D01*
X118387714Y-100020476D01*
X118292476Y-100068095D01*
%TO.C,H1*%
X82838095Y-112602380D02*
X82838095Y-111602380D01*
X82838095Y-112078571D02*
X83409523Y-112078571D01*
X83409523Y-112602380D02*
X83409523Y-111602380D01*
X84409523Y-112602380D02*
X83838095Y-112602380D01*
X84123809Y-112602380D02*
X84123809Y-111602380D01*
X84028571Y-111745238D01*
X83933333Y-111840476D01*
X83838095Y-111888095D01*
%TO.C,L3*%
X117181333Y-87193380D02*
X116705142Y-87193380D01*
X116705142Y-86193380D01*
X117419428Y-86193380D02*
X118038476Y-86193380D01*
X117705142Y-86574333D01*
X117848000Y-86574333D01*
X117943238Y-86621952D01*
X117990857Y-86669571D01*
X118038476Y-86764809D01*
X118038476Y-87002904D01*
X117990857Y-87098142D01*
X117943238Y-87145761D01*
X117848000Y-87193380D01*
X117562285Y-87193380D01*
X117467047Y-87145761D01*
X117419428Y-87098142D01*
%TO.C,H4*%
X82838095Y-49827380D02*
X82838095Y-48827380D01*
X82838095Y-49303571D02*
X83409523Y-49303571D01*
X83409523Y-49827380D02*
X83409523Y-48827380D01*
X84314285Y-49160714D02*
X84314285Y-49827380D01*
X84076190Y-48779761D02*
X83838095Y-49494047D01*
X84457142Y-49494047D01*
%TO.C,C22*%
X118507142Y-88757142D02*
X118459523Y-88804761D01*
X118316666Y-88852380D01*
X118221428Y-88852380D01*
X118078571Y-88804761D01*
X117983333Y-88709523D01*
X117935714Y-88614285D01*
X117888095Y-88423809D01*
X117888095Y-88280952D01*
X117935714Y-88090476D01*
X117983333Y-87995238D01*
X118078571Y-87900000D01*
X118221428Y-87852380D01*
X118316666Y-87852380D01*
X118459523Y-87900000D01*
X118507142Y-87947619D01*
X118888095Y-87947619D02*
X118935714Y-87900000D01*
X119030952Y-87852380D01*
X119269047Y-87852380D01*
X119364285Y-87900000D01*
X119411904Y-87947619D01*
X119459523Y-88042857D01*
X119459523Y-88138095D01*
X119411904Y-88280952D01*
X118840476Y-88852380D01*
X119459523Y-88852380D01*
X119840476Y-87947619D02*
X119888095Y-87900000D01*
X119983333Y-87852380D01*
X120221428Y-87852380D01*
X120316666Y-87900000D01*
X120364285Y-87947619D01*
X120411904Y-88042857D01*
X120411904Y-88138095D01*
X120364285Y-88280952D01*
X119792857Y-88852380D01*
X120411904Y-88852380D01*
%TO.C,J1*%
X83893066Y-85431180D02*
X83893066Y-86145466D01*
X83845447Y-86288323D01*
X83750209Y-86383561D01*
X83607352Y-86431180D01*
X83512114Y-86431180D01*
X84893066Y-86431180D02*
X84321638Y-86431180D01*
X84607352Y-86431180D02*
X84607352Y-85431180D01*
X84512114Y-85574038D01*
X84416876Y-85669276D01*
X84321638Y-85716895D01*
%TO.C,C15*%
X100557142Y-106337142D02*
X100509523Y-106384761D01*
X100366666Y-106432380D01*
X100271428Y-106432380D01*
X100128571Y-106384761D01*
X100033333Y-106289523D01*
X99985714Y-106194285D01*
X99938095Y-106003809D01*
X99938095Y-105860952D01*
X99985714Y-105670476D01*
X100033333Y-105575238D01*
X100128571Y-105480000D01*
X100271428Y-105432380D01*
X100366666Y-105432380D01*
X100509523Y-105480000D01*
X100557142Y-105527619D01*
X101509523Y-106432380D02*
X100938095Y-106432380D01*
X101223809Y-106432380D02*
X101223809Y-105432380D01*
X101128571Y-105575238D01*
X101033333Y-105670476D01*
X100938095Y-105718095D01*
X102414285Y-105432380D02*
X101938095Y-105432380D01*
X101890476Y-105908571D01*
X101938095Y-105860952D01*
X102033333Y-105813333D01*
X102271428Y-105813333D01*
X102366666Y-105860952D01*
X102414285Y-105908571D01*
X102461904Y-106003809D01*
X102461904Y-106241904D01*
X102414285Y-106337142D01*
X102366666Y-106384761D01*
X102271428Y-106432380D01*
X102033333Y-106432380D01*
X101938095Y-106384761D01*
X101890476Y-106337142D01*
%TO.C,R15*%
X122420142Y-82748380D02*
X122086809Y-82272190D01*
X121848714Y-82748380D02*
X121848714Y-81748380D01*
X122229666Y-81748380D01*
X122324904Y-81796000D01*
X122372523Y-81843619D01*
X122420142Y-81938857D01*
X122420142Y-82081714D01*
X122372523Y-82176952D01*
X122324904Y-82224571D01*
X122229666Y-82272190D01*
X121848714Y-82272190D01*
X123372523Y-82748380D02*
X122801095Y-82748380D01*
X123086809Y-82748380D02*
X123086809Y-81748380D01*
X122991571Y-81891238D01*
X122896333Y-81986476D01*
X122801095Y-82034095D01*
X124277285Y-81748380D02*
X123801095Y-81748380D01*
X123753476Y-82224571D01*
X123801095Y-82176952D01*
X123896333Y-82129333D01*
X124134428Y-82129333D01*
X124229666Y-82176952D01*
X124277285Y-82224571D01*
X124324904Y-82319809D01*
X124324904Y-82557904D01*
X124277285Y-82653142D01*
X124229666Y-82700761D01*
X124134428Y-82748380D01*
X123896333Y-82748380D01*
X123801095Y-82700761D01*
X123753476Y-82653142D01*
%TO.C,C8*%
X93102133Y-62590742D02*
X93054514Y-62638361D01*
X92911657Y-62685980D01*
X92816419Y-62685980D01*
X92673561Y-62638361D01*
X92578323Y-62543123D01*
X92530704Y-62447885D01*
X92483085Y-62257409D01*
X92483085Y-62114552D01*
X92530704Y-61924076D01*
X92578323Y-61828838D01*
X92673561Y-61733600D01*
X92816419Y-61685980D01*
X92911657Y-61685980D01*
X93054514Y-61733600D01*
X93102133Y-61781219D01*
X93673561Y-62114552D02*
X93578323Y-62066933D01*
X93530704Y-62019314D01*
X93483085Y-61924076D01*
X93483085Y-61876457D01*
X93530704Y-61781219D01*
X93578323Y-61733600D01*
X93673561Y-61685980D01*
X93864038Y-61685980D01*
X93959276Y-61733600D01*
X94006895Y-61781219D01*
X94054514Y-61876457D01*
X94054514Y-61924076D01*
X94006895Y-62019314D01*
X93959276Y-62066933D01*
X93864038Y-62114552D01*
X93673561Y-62114552D01*
X93578323Y-62162171D01*
X93530704Y-62209790D01*
X93483085Y-62305028D01*
X93483085Y-62495504D01*
X93530704Y-62590742D01*
X93578323Y-62638361D01*
X93673561Y-62685980D01*
X93864038Y-62685980D01*
X93959276Y-62638361D01*
X94006895Y-62590742D01*
X94054514Y-62495504D01*
X94054514Y-62305028D01*
X94006895Y-62209790D01*
X93959276Y-62162171D01*
X93864038Y-62114552D01*
%TO.C,J3*%
X100547380Y-52383333D02*
X101261666Y-52383333D01*
X101404523Y-52430952D01*
X101499761Y-52526190D01*
X101547380Y-52669047D01*
X101547380Y-52764285D01*
X100547380Y-52002380D02*
X100547380Y-51383333D01*
X100928333Y-51716666D01*
X100928333Y-51573809D01*
X100975952Y-51478571D01*
X101023571Y-51430952D01*
X101118809Y-51383333D01*
X101356904Y-51383333D01*
X101452142Y-51430952D01*
X101499761Y-51478571D01*
X101547380Y-51573809D01*
X101547380Y-51859523D01*
X101499761Y-51954761D01*
X101452142Y-52002380D01*
%TO.C,U3*%
X111506095Y-90130380D02*
X111506095Y-90939904D01*
X111553714Y-91035142D01*
X111601333Y-91082761D01*
X111696571Y-91130380D01*
X111887047Y-91130380D01*
X111982285Y-91082761D01*
X112029904Y-91035142D01*
X112077523Y-90939904D01*
X112077523Y-90130380D01*
X112458476Y-90130380D02*
X113077523Y-90130380D01*
X112744190Y-90511333D01*
X112887047Y-90511333D01*
X112982285Y-90558952D01*
X113029904Y-90606571D01*
X113077523Y-90701809D01*
X113077523Y-90939904D01*
X113029904Y-91035142D01*
X112982285Y-91082761D01*
X112887047Y-91130380D01*
X112601333Y-91130380D01*
X112506095Y-91082761D01*
X112458476Y-91035142D01*
%TO.C,C27*%
X134469142Y-81668857D02*
X134516761Y-81716476D01*
X134564380Y-81859333D01*
X134564380Y-81954571D01*
X134516761Y-82097428D01*
X134421523Y-82192666D01*
X134326285Y-82240285D01*
X134135809Y-82287904D01*
X133992952Y-82287904D01*
X133802476Y-82240285D01*
X133707238Y-82192666D01*
X133612000Y-82097428D01*
X133564380Y-81954571D01*
X133564380Y-81859333D01*
X133612000Y-81716476D01*
X133659619Y-81668857D01*
X133659619Y-81287904D02*
X133612000Y-81240285D01*
X133564380Y-81145047D01*
X133564380Y-80906952D01*
X133612000Y-80811714D01*
X133659619Y-80764095D01*
X133754857Y-80716476D01*
X133850095Y-80716476D01*
X133992952Y-80764095D01*
X134564380Y-81335523D01*
X134564380Y-80716476D01*
X133564380Y-80383142D02*
X133564380Y-79716476D01*
X134564380Y-80145047D01*
%TO.C,C16*%
X114457142Y-82777142D02*
X114409523Y-82824761D01*
X114266666Y-82872380D01*
X114171428Y-82872380D01*
X114028571Y-82824761D01*
X113933333Y-82729523D01*
X113885714Y-82634285D01*
X113838095Y-82443809D01*
X113838095Y-82300952D01*
X113885714Y-82110476D01*
X113933333Y-82015238D01*
X114028571Y-81920000D01*
X114171428Y-81872380D01*
X114266666Y-81872380D01*
X114409523Y-81920000D01*
X114457142Y-81967619D01*
X115409523Y-82872380D02*
X114838095Y-82872380D01*
X115123809Y-82872380D02*
X115123809Y-81872380D01*
X115028571Y-82015238D01*
X114933333Y-82110476D01*
X114838095Y-82158095D01*
X116266666Y-81872380D02*
X116076190Y-81872380D01*
X115980952Y-81920000D01*
X115933333Y-81967619D01*
X115838095Y-82110476D01*
X115790476Y-82300952D01*
X115790476Y-82681904D01*
X115838095Y-82777142D01*
X115885714Y-82824761D01*
X115980952Y-82872380D01*
X116171428Y-82872380D01*
X116266666Y-82824761D01*
X116314285Y-82777142D01*
X116361904Y-82681904D01*
X116361904Y-82443809D01*
X116314285Y-82348571D01*
X116266666Y-82300952D01*
X116171428Y-82253333D01*
X115980952Y-82253333D01*
X115885714Y-82300952D01*
X115838095Y-82348571D01*
X115790476Y-82443809D01*
%TO.C,Q1*%
X106112619Y-57295238D02*
X106065000Y-57390476D01*
X105969761Y-57485714D01*
X105826904Y-57628571D01*
X105779285Y-57723809D01*
X105779285Y-57819047D01*
X106017380Y-57771428D02*
X105969761Y-57866666D01*
X105874523Y-57961904D01*
X105684047Y-58009523D01*
X105350714Y-58009523D01*
X105160238Y-57961904D01*
X105065000Y-57866666D01*
X105017380Y-57771428D01*
X105017380Y-57580952D01*
X105065000Y-57485714D01*
X105160238Y-57390476D01*
X105350714Y-57342857D01*
X105684047Y-57342857D01*
X105874523Y-57390476D01*
X105969761Y-57485714D01*
X106017380Y-57580952D01*
X106017380Y-57771428D01*
X106017380Y-56390476D02*
X106017380Y-56961904D01*
X106017380Y-56676190D02*
X105017380Y-56676190D01*
X105160238Y-56771428D01*
X105255476Y-56866666D01*
X105303095Y-56961904D01*
%TO.C,R7*%
X106513333Y-94686380D02*
X106180000Y-94210190D01*
X105941904Y-94686380D02*
X105941904Y-93686380D01*
X106322857Y-93686380D01*
X106418095Y-93734000D01*
X106465714Y-93781619D01*
X106513333Y-93876857D01*
X106513333Y-94019714D01*
X106465714Y-94114952D01*
X106418095Y-94162571D01*
X106322857Y-94210190D01*
X105941904Y-94210190D01*
X106846666Y-93686380D02*
X107513333Y-93686380D01*
X107084761Y-94686380D01*
%TO.C,R1*%
X94686380Y-84621666D02*
X94210190Y-84955000D01*
X94686380Y-85193095D02*
X93686380Y-85193095D01*
X93686380Y-84812142D01*
X93734000Y-84716904D01*
X93781619Y-84669285D01*
X93876857Y-84621666D01*
X94019714Y-84621666D01*
X94114952Y-84669285D01*
X94162571Y-84716904D01*
X94210190Y-84812142D01*
X94210190Y-85193095D01*
X94686380Y-83669285D02*
X94686380Y-84240714D01*
X94686380Y-83955000D02*
X93686380Y-83955000D01*
X93829238Y-84050238D01*
X93924476Y-84145476D01*
X93972095Y-84240714D01*
%TO.C,R5*%
X95337333Y-102052380D02*
X95004000Y-101576190D01*
X94765904Y-102052380D02*
X94765904Y-101052380D01*
X95146857Y-101052380D01*
X95242095Y-101100000D01*
X95289714Y-101147619D01*
X95337333Y-101242857D01*
X95337333Y-101385714D01*
X95289714Y-101480952D01*
X95242095Y-101528571D01*
X95146857Y-101576190D01*
X94765904Y-101576190D01*
X96242095Y-101052380D02*
X95765904Y-101052380D01*
X95718285Y-101528571D01*
X95765904Y-101480952D01*
X95861142Y-101433333D01*
X96099238Y-101433333D01*
X96194476Y-101480952D01*
X96242095Y-101528571D01*
X96289714Y-101623809D01*
X96289714Y-101861904D01*
X96242095Y-101957142D01*
X96194476Y-102004761D01*
X96099238Y-102052380D01*
X95861142Y-102052380D01*
X95765904Y-102004761D01*
X95718285Y-101957142D01*
%TO.C,R4k1*%
X122402380Y-74447619D02*
X121926190Y-74780952D01*
X122402380Y-75019047D02*
X121402380Y-75019047D01*
X121402380Y-74638095D01*
X121450000Y-74542857D01*
X121497619Y-74495238D01*
X121592857Y-74447619D01*
X121735714Y-74447619D01*
X121830952Y-74495238D01*
X121878571Y-74542857D01*
X121926190Y-74638095D01*
X121926190Y-75019047D01*
X121735714Y-73590476D02*
X122402380Y-73590476D01*
X121354761Y-73828571D02*
X122069047Y-74066666D01*
X122069047Y-73447619D01*
X122402380Y-73066666D02*
X121402380Y-73066666D01*
X122021428Y-72971428D02*
X122402380Y-72685714D01*
X121735714Y-72685714D02*
X122116666Y-73066666D01*
X122402380Y-71733333D02*
X122402380Y-72304761D01*
X122402380Y-72019047D02*
X121402380Y-72019047D01*
X121545238Y-72114285D01*
X121640476Y-72209523D01*
X121688095Y-72304761D01*
%TO.C,J4*%
X98366666Y-109102380D02*
X98366666Y-109816666D01*
X98319047Y-109959523D01*
X98223809Y-110054761D01*
X98080952Y-110102380D01*
X97985714Y-110102380D01*
X99271428Y-109435714D02*
X99271428Y-110102380D01*
X99033333Y-109054761D02*
X98795238Y-109769047D01*
X99414285Y-109769047D01*
%TO.C,C20*%
X110157142Y-82357142D02*
X110109523Y-82404761D01*
X109966666Y-82452380D01*
X109871428Y-82452380D01*
X109728571Y-82404761D01*
X109633333Y-82309523D01*
X109585714Y-82214285D01*
X109538095Y-82023809D01*
X109538095Y-81880952D01*
X109585714Y-81690476D01*
X109633333Y-81595238D01*
X109728571Y-81500000D01*
X109871428Y-81452380D01*
X109966666Y-81452380D01*
X110109523Y-81500000D01*
X110157142Y-81547619D01*
X110538095Y-81547619D02*
X110585714Y-81500000D01*
X110680952Y-81452380D01*
X110919047Y-81452380D01*
X111014285Y-81500000D01*
X111061904Y-81547619D01*
X111109523Y-81642857D01*
X111109523Y-81738095D01*
X111061904Y-81880952D01*
X110490476Y-82452380D01*
X111109523Y-82452380D01*
X111728571Y-81452380D02*
X111823809Y-81452380D01*
X111919047Y-81500000D01*
X111966666Y-81547619D01*
X112014285Y-81642857D01*
X112061904Y-81833333D01*
X112061904Y-82071428D01*
X112014285Y-82261904D01*
X111966666Y-82357142D01*
X111919047Y-82404761D01*
X111823809Y-82452380D01*
X111728571Y-82452380D01*
X111633333Y-82404761D01*
X111585714Y-82357142D01*
X111538095Y-82261904D01*
X111490476Y-82071428D01*
X111490476Y-81833333D01*
X111538095Y-81642857D01*
X111585714Y-81547619D01*
X111633333Y-81500000D01*
X111728571Y-81452380D01*
%TO.C,R17*%
X109607142Y-96702380D02*
X109273809Y-96226190D01*
X109035714Y-96702380D02*
X109035714Y-95702380D01*
X109416666Y-95702380D01*
X109511904Y-95750000D01*
X109559523Y-95797619D01*
X109607142Y-95892857D01*
X109607142Y-96035714D01*
X109559523Y-96130952D01*
X109511904Y-96178571D01*
X109416666Y-96226190D01*
X109035714Y-96226190D01*
X110559523Y-96702380D02*
X109988095Y-96702380D01*
X110273809Y-96702380D02*
X110273809Y-95702380D01*
X110178571Y-95845238D01*
X110083333Y-95940476D01*
X109988095Y-95988095D01*
X110892857Y-95702380D02*
X111559523Y-95702380D01*
X111130952Y-96702380D01*
%TO.C,TP1*%
X126388095Y-71402380D02*
X126959523Y-71402380D01*
X126673809Y-72402380D02*
X126673809Y-71402380D01*
X127292857Y-72402380D02*
X127292857Y-71402380D01*
X127673809Y-71402380D01*
X127769047Y-71450000D01*
X127816666Y-71497619D01*
X127864285Y-71592857D01*
X127864285Y-71735714D01*
X127816666Y-71830952D01*
X127769047Y-71878571D01*
X127673809Y-71926190D01*
X127292857Y-71926190D01*
X128816666Y-72402380D02*
X128245238Y-72402380D01*
X128530952Y-72402380D02*
X128530952Y-71402380D01*
X128435714Y-71545238D01*
X128340476Y-71640476D01*
X128245238Y-71688095D01*
%TO.C,L5*%
X133657580Y-85002666D02*
X133657580Y-85478857D01*
X132657580Y-85478857D01*
X132657580Y-84193142D02*
X132657580Y-84669333D01*
X133133771Y-84716952D01*
X133086152Y-84669333D01*
X133038533Y-84574095D01*
X133038533Y-84336000D01*
X133086152Y-84240761D01*
X133133771Y-84193142D01*
X133229009Y-84145523D01*
X133467104Y-84145523D01*
X133562342Y-84193142D01*
X133609961Y-84240761D01*
X133657580Y-84336000D01*
X133657580Y-84574095D01*
X133609961Y-84669333D01*
X133562342Y-84716952D01*
%TO.C,C10*%
X86987142Y-87733142D02*
X86939523Y-87780761D01*
X86796666Y-87828380D01*
X86701428Y-87828380D01*
X86558571Y-87780761D01*
X86463333Y-87685523D01*
X86415714Y-87590285D01*
X86368095Y-87399809D01*
X86368095Y-87256952D01*
X86415714Y-87066476D01*
X86463333Y-86971238D01*
X86558571Y-86876000D01*
X86701428Y-86828380D01*
X86796666Y-86828380D01*
X86939523Y-86876000D01*
X86987142Y-86923619D01*
X87939523Y-87828380D02*
X87368095Y-87828380D01*
X87653809Y-87828380D02*
X87653809Y-86828380D01*
X87558571Y-86971238D01*
X87463333Y-87066476D01*
X87368095Y-87114095D01*
X88558571Y-86828380D02*
X88653809Y-86828380D01*
X88749047Y-86876000D01*
X88796666Y-86923619D01*
X88844285Y-87018857D01*
X88891904Y-87209333D01*
X88891904Y-87447428D01*
X88844285Y-87637904D01*
X88796666Y-87733142D01*
X88749047Y-87780761D01*
X88653809Y-87828380D01*
X88558571Y-87828380D01*
X88463333Y-87780761D01*
X88415714Y-87733142D01*
X88368095Y-87637904D01*
X88320476Y-87447428D01*
X88320476Y-87209333D01*
X88368095Y-87018857D01*
X88415714Y-86923619D01*
X88463333Y-86876000D01*
X88558571Y-86828380D01*
%TO.C,C9*%
X106767333Y-88749142D02*
X106719714Y-88796761D01*
X106576857Y-88844380D01*
X106481619Y-88844380D01*
X106338761Y-88796761D01*
X106243523Y-88701523D01*
X106195904Y-88606285D01*
X106148285Y-88415809D01*
X106148285Y-88272952D01*
X106195904Y-88082476D01*
X106243523Y-87987238D01*
X106338761Y-87892000D01*
X106481619Y-87844380D01*
X106576857Y-87844380D01*
X106719714Y-87892000D01*
X106767333Y-87939619D01*
X107243523Y-88844380D02*
X107434000Y-88844380D01*
X107529238Y-88796761D01*
X107576857Y-88749142D01*
X107672095Y-88606285D01*
X107719714Y-88415809D01*
X107719714Y-88034857D01*
X107672095Y-87939619D01*
X107624476Y-87892000D01*
X107529238Y-87844380D01*
X107338761Y-87844380D01*
X107243523Y-87892000D01*
X107195904Y-87939619D01*
X107148285Y-88034857D01*
X107148285Y-88272952D01*
X107195904Y-88368190D01*
X107243523Y-88415809D01*
X107338761Y-88463428D01*
X107529238Y-88463428D01*
X107624476Y-88415809D01*
X107672095Y-88368190D01*
X107719714Y-88272952D01*
%TO.C,R4*%
X87971333Y-91130380D02*
X87638000Y-90654190D01*
X87399904Y-91130380D02*
X87399904Y-90130380D01*
X87780857Y-90130380D01*
X87876095Y-90178000D01*
X87923714Y-90225619D01*
X87971333Y-90320857D01*
X87971333Y-90463714D01*
X87923714Y-90558952D01*
X87876095Y-90606571D01*
X87780857Y-90654190D01*
X87399904Y-90654190D01*
X88828476Y-90463714D02*
X88828476Y-91130380D01*
X88590380Y-90082761D02*
X88352285Y-90797047D01*
X88971333Y-90797047D01*
%TO.C,R2*%
X88501980Y-100434266D02*
X88025790Y-100767600D01*
X88501980Y-101005695D02*
X87501980Y-101005695D01*
X87501980Y-100624742D01*
X87549600Y-100529504D01*
X87597219Y-100481885D01*
X87692457Y-100434266D01*
X87835314Y-100434266D01*
X87930552Y-100481885D01*
X87978171Y-100529504D01*
X88025790Y-100624742D01*
X88025790Y-101005695D01*
X87597219Y-100053314D02*
X87549600Y-100005695D01*
X87501980Y-99910457D01*
X87501980Y-99672361D01*
X87549600Y-99577123D01*
X87597219Y-99529504D01*
X87692457Y-99481885D01*
X87787695Y-99481885D01*
X87930552Y-99529504D01*
X88501980Y-100100933D01*
X88501980Y-99481885D01*
%TO.C,C31*%
X131675142Y-106814857D02*
X131722761Y-106862476D01*
X131770380Y-107005333D01*
X131770380Y-107100571D01*
X131722761Y-107243428D01*
X131627523Y-107338666D01*
X131532285Y-107386285D01*
X131341809Y-107433904D01*
X131198952Y-107433904D01*
X131008476Y-107386285D01*
X130913238Y-107338666D01*
X130818000Y-107243428D01*
X130770380Y-107100571D01*
X130770380Y-107005333D01*
X130818000Y-106862476D01*
X130865619Y-106814857D01*
X130770380Y-106481523D02*
X130770380Y-105862476D01*
X131151333Y-106195809D01*
X131151333Y-106052952D01*
X131198952Y-105957714D01*
X131246571Y-105910095D01*
X131341809Y-105862476D01*
X131579904Y-105862476D01*
X131675142Y-105910095D01*
X131722761Y-105957714D01*
X131770380Y-106052952D01*
X131770380Y-106338666D01*
X131722761Y-106433904D01*
X131675142Y-106481523D01*
X131770380Y-104910095D02*
X131770380Y-105481523D01*
X131770380Y-105195809D02*
X130770380Y-105195809D01*
X130913238Y-105291047D01*
X131008476Y-105386285D01*
X131056095Y-105481523D01*
%TO.C,C25*%
X118991142Y-78127142D02*
X118943523Y-78174761D01*
X118800666Y-78222380D01*
X118705428Y-78222380D01*
X118562571Y-78174761D01*
X118467333Y-78079523D01*
X118419714Y-77984285D01*
X118372095Y-77793809D01*
X118372095Y-77650952D01*
X118419714Y-77460476D01*
X118467333Y-77365238D01*
X118562571Y-77270000D01*
X118705428Y-77222380D01*
X118800666Y-77222380D01*
X118943523Y-77270000D01*
X118991142Y-77317619D01*
X119372095Y-77317619D02*
X119419714Y-77270000D01*
X119514952Y-77222380D01*
X119753047Y-77222380D01*
X119848285Y-77270000D01*
X119895904Y-77317619D01*
X119943523Y-77412857D01*
X119943523Y-77508095D01*
X119895904Y-77650952D01*
X119324476Y-78222380D01*
X119943523Y-78222380D01*
X120848285Y-77222380D02*
X120372095Y-77222380D01*
X120324476Y-77698571D01*
X120372095Y-77650952D01*
X120467333Y-77603333D01*
X120705428Y-77603333D01*
X120800666Y-77650952D01*
X120848285Y-77698571D01*
X120895904Y-77793809D01*
X120895904Y-78031904D01*
X120848285Y-78127142D01*
X120800666Y-78174761D01*
X120705428Y-78222380D01*
X120467333Y-78222380D01*
X120372095Y-78174761D01*
X120324476Y-78127142D01*
%TO.C,L2*%
X92929333Y-95294380D02*
X92453142Y-95294380D01*
X92453142Y-94294380D01*
X93215047Y-94389619D02*
X93262666Y-94342000D01*
X93357904Y-94294380D01*
X93596000Y-94294380D01*
X93691238Y-94342000D01*
X93738857Y-94389619D01*
X93786476Y-94484857D01*
X93786476Y-94580095D01*
X93738857Y-94722952D01*
X93167428Y-95294380D01*
X93786476Y-95294380D01*
%TO.C,R18*%
X109593142Y-102814380D02*
X109259809Y-102338190D01*
X109021714Y-102814380D02*
X109021714Y-101814380D01*
X109402666Y-101814380D01*
X109497904Y-101862000D01*
X109545523Y-101909619D01*
X109593142Y-102004857D01*
X109593142Y-102147714D01*
X109545523Y-102242952D01*
X109497904Y-102290571D01*
X109402666Y-102338190D01*
X109021714Y-102338190D01*
X110545523Y-102814380D02*
X109974095Y-102814380D01*
X110259809Y-102814380D02*
X110259809Y-101814380D01*
X110164571Y-101957238D01*
X110069333Y-102052476D01*
X109974095Y-102100095D01*
X111116952Y-102242952D02*
X111021714Y-102195333D01*
X110974095Y-102147714D01*
X110926476Y-102052476D01*
X110926476Y-102004857D01*
X110974095Y-101909619D01*
X111021714Y-101862000D01*
X111116952Y-101814380D01*
X111307428Y-101814380D01*
X111402666Y-101862000D01*
X111450285Y-101909619D01*
X111497904Y-102004857D01*
X111497904Y-102052476D01*
X111450285Y-102147714D01*
X111402666Y-102195333D01*
X111307428Y-102242952D01*
X111116952Y-102242952D01*
X111021714Y-102290571D01*
X110974095Y-102338190D01*
X110926476Y-102433428D01*
X110926476Y-102623904D01*
X110974095Y-102719142D01*
X111021714Y-102766761D01*
X111116952Y-102814380D01*
X111307428Y-102814380D01*
X111402666Y-102766761D01*
X111450285Y-102719142D01*
X111497904Y-102623904D01*
X111497904Y-102433428D01*
X111450285Y-102338190D01*
X111402666Y-102290571D01*
X111307428Y-102242952D01*
%TO.C,C13*%
X90257142Y-94937142D02*
X90209523Y-94984761D01*
X90066666Y-95032380D01*
X89971428Y-95032380D01*
X89828571Y-94984761D01*
X89733333Y-94889523D01*
X89685714Y-94794285D01*
X89638095Y-94603809D01*
X89638095Y-94460952D01*
X89685714Y-94270476D01*
X89733333Y-94175238D01*
X89828571Y-94080000D01*
X89971428Y-94032380D01*
X90066666Y-94032380D01*
X90209523Y-94080000D01*
X90257142Y-94127619D01*
X91209523Y-95032380D02*
X90638095Y-95032380D01*
X90923809Y-95032380D02*
X90923809Y-94032380D01*
X90828571Y-94175238D01*
X90733333Y-94270476D01*
X90638095Y-94318095D01*
X91542857Y-94032380D02*
X92161904Y-94032380D01*
X91828571Y-94413333D01*
X91971428Y-94413333D01*
X92066666Y-94460952D01*
X92114285Y-94508571D01*
X92161904Y-94603809D01*
X92161904Y-94841904D01*
X92114285Y-94937142D01*
X92066666Y-94984761D01*
X91971428Y-95032380D01*
X91685714Y-95032380D01*
X91590476Y-94984761D01*
X91542857Y-94937142D01*
%TO.C,R6*%
X106767333Y-91384380D02*
X106434000Y-90908190D01*
X106195904Y-91384380D02*
X106195904Y-90384380D01*
X106576857Y-90384380D01*
X106672095Y-90432000D01*
X106719714Y-90479619D01*
X106767333Y-90574857D01*
X106767333Y-90717714D01*
X106719714Y-90812952D01*
X106672095Y-90860571D01*
X106576857Y-90908190D01*
X106195904Y-90908190D01*
X107624476Y-90384380D02*
X107434000Y-90384380D01*
X107338761Y-90432000D01*
X107291142Y-90479619D01*
X107195904Y-90622476D01*
X107148285Y-90812952D01*
X107148285Y-91193904D01*
X107195904Y-91289142D01*
X107243523Y-91336761D01*
X107338761Y-91384380D01*
X107529238Y-91384380D01*
X107624476Y-91336761D01*
X107672095Y-91289142D01*
X107719714Y-91193904D01*
X107719714Y-90955809D01*
X107672095Y-90860571D01*
X107624476Y-90812952D01*
X107529238Y-90765333D01*
X107338761Y-90765333D01*
X107243523Y-90812952D01*
X107195904Y-90860571D01*
X107148285Y-90955809D01*
%TO.C,J2*%
X83842266Y-99909180D02*
X83842266Y-100623466D01*
X83794647Y-100766323D01*
X83699409Y-100861561D01*
X83556552Y-100909180D01*
X83461314Y-100909180D01*
X84270838Y-100004419D02*
X84318457Y-99956800D01*
X84413695Y-99909180D01*
X84651790Y-99909180D01*
X84747028Y-99956800D01*
X84794647Y-100004419D01*
X84842266Y-100099657D01*
X84842266Y-100194895D01*
X84794647Y-100337752D01*
X84223219Y-100909180D01*
X84842266Y-100909180D01*
%TO.C,L1*%
X110768333Y-54882380D02*
X110292142Y-54882380D01*
X110292142Y-53882380D01*
X111625476Y-54882380D02*
X111054047Y-54882380D01*
X111339761Y-54882380D02*
X111339761Y-53882380D01*
X111244523Y-54025238D01*
X111149285Y-54120476D01*
X111054047Y-54168095D01*
%TO.C,R10*%
X106418142Y-86939380D02*
X106084809Y-86463190D01*
X105846714Y-86939380D02*
X105846714Y-85939380D01*
X106227666Y-85939380D01*
X106322904Y-85987000D01*
X106370523Y-86034619D01*
X106418142Y-86129857D01*
X106418142Y-86272714D01*
X106370523Y-86367952D01*
X106322904Y-86415571D01*
X106227666Y-86463190D01*
X105846714Y-86463190D01*
X107370523Y-86939380D02*
X106799095Y-86939380D01*
X107084809Y-86939380D02*
X107084809Y-85939380D01*
X106989571Y-86082238D01*
X106894333Y-86177476D01*
X106799095Y-86225095D01*
X107989571Y-85939380D02*
X108084809Y-85939380D01*
X108180047Y-85987000D01*
X108227666Y-86034619D01*
X108275285Y-86129857D01*
X108322904Y-86320333D01*
X108322904Y-86558428D01*
X108275285Y-86748904D01*
X108227666Y-86844142D01*
X108180047Y-86891761D01*
X108084809Y-86939380D01*
X107989571Y-86939380D01*
X107894333Y-86891761D01*
X107846714Y-86844142D01*
X107799095Y-86748904D01*
X107751476Y-86558428D01*
X107751476Y-86320333D01*
X107799095Y-86129857D01*
X107846714Y-86034619D01*
X107894333Y-85987000D01*
X107989571Y-85939380D01*
%TO.C,R16*%
X119207142Y-84202380D02*
X118873809Y-83726190D01*
X118635714Y-84202380D02*
X118635714Y-83202380D01*
X119016666Y-83202380D01*
X119111904Y-83250000D01*
X119159523Y-83297619D01*
X119207142Y-83392857D01*
X119207142Y-83535714D01*
X119159523Y-83630952D01*
X119111904Y-83678571D01*
X119016666Y-83726190D01*
X118635714Y-83726190D01*
X120159523Y-84202380D02*
X119588095Y-84202380D01*
X119873809Y-84202380D02*
X119873809Y-83202380D01*
X119778571Y-83345238D01*
X119683333Y-83440476D01*
X119588095Y-83488095D01*
X121016666Y-83202380D02*
X120826190Y-83202380D01*
X120730952Y-83250000D01*
X120683333Y-83297619D01*
X120588095Y-83440476D01*
X120540476Y-83630952D01*
X120540476Y-84011904D01*
X120588095Y-84107142D01*
X120635714Y-84154761D01*
X120730952Y-84202380D01*
X120921428Y-84202380D01*
X121016666Y-84154761D01*
X121064285Y-84107142D01*
X121111904Y-84011904D01*
X121111904Y-83773809D01*
X121064285Y-83678571D01*
X121016666Y-83630952D01*
X120921428Y-83583333D01*
X120730952Y-83583333D01*
X120635714Y-83630952D01*
X120588095Y-83678571D01*
X120540476Y-83773809D01*
%TO.C,R19*%
X94257142Y-58702380D02*
X93923809Y-58226190D01*
X93685714Y-58702380D02*
X93685714Y-57702380D01*
X94066666Y-57702380D01*
X94161904Y-57750000D01*
X94209523Y-57797619D01*
X94257142Y-57892857D01*
X94257142Y-58035714D01*
X94209523Y-58130952D01*
X94161904Y-58178571D01*
X94066666Y-58226190D01*
X93685714Y-58226190D01*
X95209523Y-58702380D02*
X94638095Y-58702380D01*
X94923809Y-58702380D02*
X94923809Y-57702380D01*
X94828571Y-57845238D01*
X94733333Y-57940476D01*
X94638095Y-57988095D01*
X95685714Y-58702380D02*
X95876190Y-58702380D01*
X95971428Y-58654761D01*
X96019047Y-58607142D01*
X96114285Y-58464285D01*
X96161904Y-58273809D01*
X96161904Y-57892857D01*
X96114285Y-57797619D01*
X96066666Y-57750000D01*
X95971428Y-57702380D01*
X95780952Y-57702380D01*
X95685714Y-57750000D01*
X95638095Y-57797619D01*
X95590476Y-57892857D01*
X95590476Y-58130952D01*
X95638095Y-58226190D01*
X95685714Y-58273809D01*
X95780952Y-58321428D01*
X95971428Y-58321428D01*
X96066666Y-58273809D01*
X96114285Y-58226190D01*
X96161904Y-58130952D01*
%TO.C,JP1*%
X88802380Y-56083333D02*
X89516666Y-56083333D01*
X89659523Y-56130952D01*
X89754761Y-56226190D01*
X89802380Y-56369047D01*
X89802380Y-56464285D01*
X89802380Y-55607142D02*
X88802380Y-55607142D01*
X88802380Y-55226190D01*
X88850000Y-55130952D01*
X88897619Y-55083333D01*
X88992857Y-55035714D01*
X89135714Y-55035714D01*
X89230952Y-55083333D01*
X89278571Y-55130952D01*
X89326190Y-55226190D01*
X89326190Y-55607142D01*
X89802380Y-54083333D02*
X89802380Y-54654761D01*
X89802380Y-54369047D02*
X88802380Y-54369047D01*
X88945238Y-54464285D01*
X89040476Y-54559523D01*
X89088095Y-54654761D01*
%TO.C,H2*%
X131438095Y-49827380D02*
X131438095Y-48827380D01*
X131438095Y-49303571D02*
X132009523Y-49303571D01*
X132009523Y-49827380D02*
X132009523Y-48827380D01*
X132438095Y-48922619D02*
X132485714Y-48875000D01*
X132580952Y-48827380D01*
X132819047Y-48827380D01*
X132914285Y-48875000D01*
X132961904Y-48922619D01*
X133009523Y-49017857D01*
X133009523Y-49113095D01*
X132961904Y-49255952D01*
X132390476Y-49827380D01*
X133009523Y-49827380D01*
%TO.C,H3*%
X131438095Y-112602380D02*
X131438095Y-111602380D01*
X131438095Y-112078571D02*
X132009523Y-112078571D01*
X132009523Y-112602380D02*
X132009523Y-111602380D01*
X132390476Y-111602380D02*
X133009523Y-111602380D01*
X132676190Y-111983333D01*
X132819047Y-111983333D01*
X132914285Y-112030952D01*
X132961904Y-112078571D01*
X133009523Y-112173809D01*
X133009523Y-112411904D01*
X132961904Y-112507142D01*
X132914285Y-112554761D01*
X132819047Y-112602380D01*
X132533333Y-112602380D01*
X132438095Y-112554761D01*
X132390476Y-112507142D01*
%TO.C,TP2*%
X114562095Y-72273980D02*
X115133523Y-72273980D01*
X114847809Y-73273980D02*
X114847809Y-72273980D01*
X115466857Y-73273980D02*
X115466857Y-72273980D01*
X115847809Y-72273980D01*
X115943047Y-72321600D01*
X115990666Y-72369219D01*
X116038285Y-72464457D01*
X116038285Y-72607314D01*
X115990666Y-72702552D01*
X115943047Y-72750171D01*
X115847809Y-72797790D01*
X115466857Y-72797790D01*
X116419238Y-72369219D02*
X116466857Y-72321600D01*
X116562095Y-72273980D01*
X116800190Y-72273980D01*
X116895428Y-72321600D01*
X116943047Y-72369219D01*
X116990666Y-72464457D01*
X116990666Y-72559695D01*
X116943047Y-72702552D01*
X116371619Y-73273980D01*
X116990666Y-73273980D01*
%TO.C,C30*%
X131421142Y-110624857D02*
X131468761Y-110672476D01*
X131516380Y-110815333D01*
X131516380Y-110910571D01*
X131468761Y-111053428D01*
X131373523Y-111148666D01*
X131278285Y-111196285D01*
X131087809Y-111243904D01*
X130944952Y-111243904D01*
X130754476Y-111196285D01*
X130659238Y-111148666D01*
X130564000Y-111053428D01*
X130516380Y-110910571D01*
X130516380Y-110815333D01*
X130564000Y-110672476D01*
X130611619Y-110624857D01*
X130516380Y-110291523D02*
X130516380Y-109672476D01*
X130897333Y-110005809D01*
X130897333Y-109862952D01*
X130944952Y-109767714D01*
X130992571Y-109720095D01*
X131087809Y-109672476D01*
X131325904Y-109672476D01*
X131421142Y-109720095D01*
X131468761Y-109767714D01*
X131516380Y-109862952D01*
X131516380Y-110148666D01*
X131468761Y-110243904D01*
X131421142Y-110291523D01*
X130516380Y-109053428D02*
X130516380Y-108958190D01*
X130564000Y-108862952D01*
X130611619Y-108815333D01*
X130706857Y-108767714D01*
X130897333Y-108720095D01*
X131135428Y-108720095D01*
X131325904Y-108767714D01*
X131421142Y-108815333D01*
X131468761Y-108862952D01*
X131516380Y-108958190D01*
X131516380Y-109053428D01*
X131468761Y-109148666D01*
X131421142Y-109196285D01*
X131325904Y-109243904D01*
X131135428Y-109291523D01*
X130897333Y-109291523D01*
X130706857Y-109243904D01*
X130611619Y-109196285D01*
X130564000Y-109148666D01*
X130516380Y-109053428D01*
%TO.C,L4*%
X109672380Y-64174666D02*
X109672380Y-64650857D01*
X108672380Y-64650857D01*
X109005714Y-63412761D02*
X109672380Y-63412761D01*
X108624761Y-63650857D02*
X109339047Y-63888952D01*
X109339047Y-63269904D01*
%TO.C,R8*%
X99391333Y-102052380D02*
X99058000Y-101576190D01*
X98819904Y-102052380D02*
X98819904Y-101052380D01*
X99200857Y-101052380D01*
X99296095Y-101100000D01*
X99343714Y-101147619D01*
X99391333Y-101242857D01*
X99391333Y-101385714D01*
X99343714Y-101480952D01*
X99296095Y-101528571D01*
X99200857Y-101576190D01*
X98819904Y-101576190D01*
X99962761Y-101480952D02*
X99867523Y-101433333D01*
X99819904Y-101385714D01*
X99772285Y-101290476D01*
X99772285Y-101242857D01*
X99819904Y-101147619D01*
X99867523Y-101100000D01*
X99962761Y-101052380D01*
X100153238Y-101052380D01*
X100248476Y-101100000D01*
X100296095Y-101147619D01*
X100343714Y-101242857D01*
X100343714Y-101290476D01*
X100296095Y-101385714D01*
X100248476Y-101433333D01*
X100153238Y-101480952D01*
X99962761Y-101480952D01*
X99867523Y-101528571D01*
X99819904Y-101576190D01*
X99772285Y-101671428D01*
X99772285Y-101861904D01*
X99819904Y-101957142D01*
X99867523Y-102004761D01*
X99962761Y-102052380D01*
X100153238Y-102052380D01*
X100248476Y-102004761D01*
X100296095Y-101957142D01*
X100343714Y-101861904D01*
X100343714Y-101671428D01*
X100296095Y-101576190D01*
X100248476Y-101528571D01*
X100153238Y-101480952D01*
%TO.C,C14*%
X98349142Y-97987142D02*
X98301523Y-98034761D01*
X98158666Y-98082380D01*
X98063428Y-98082380D01*
X97920571Y-98034761D01*
X97825333Y-97939523D01*
X97777714Y-97844285D01*
X97730095Y-97653809D01*
X97730095Y-97510952D01*
X97777714Y-97320476D01*
X97825333Y-97225238D01*
X97920571Y-97130000D01*
X98063428Y-97082380D01*
X98158666Y-97082380D01*
X98301523Y-97130000D01*
X98349142Y-97177619D01*
X99301523Y-98082380D02*
X98730095Y-98082380D01*
X99015809Y-98082380D02*
X99015809Y-97082380D01*
X98920571Y-97225238D01*
X98825333Y-97320476D01*
X98730095Y-97368095D01*
X100158666Y-97415714D02*
X100158666Y-98082380D01*
X99920571Y-97034761D02*
X99682476Y-97749047D01*
X100301523Y-97749047D01*
%TO.C,C32*%
X117557142Y-58977142D02*
X117509523Y-59024761D01*
X117366666Y-59072380D01*
X117271428Y-59072380D01*
X117128571Y-59024761D01*
X117033333Y-58929523D01*
X116985714Y-58834285D01*
X116938095Y-58643809D01*
X116938095Y-58500952D01*
X116985714Y-58310476D01*
X117033333Y-58215238D01*
X117128571Y-58120000D01*
X117271428Y-58072380D01*
X117366666Y-58072380D01*
X117509523Y-58120000D01*
X117557142Y-58167619D01*
X117890476Y-58072380D02*
X118509523Y-58072380D01*
X118176190Y-58453333D01*
X118319047Y-58453333D01*
X118414285Y-58500952D01*
X118461904Y-58548571D01*
X118509523Y-58643809D01*
X118509523Y-58881904D01*
X118461904Y-58977142D01*
X118414285Y-59024761D01*
X118319047Y-59072380D01*
X118033333Y-59072380D01*
X117938095Y-59024761D01*
X117890476Y-58977142D01*
X118890476Y-58167619D02*
X118938095Y-58120000D01*
X119033333Y-58072380D01*
X119271428Y-58072380D01*
X119366666Y-58120000D01*
X119414285Y-58167619D01*
X119461904Y-58262857D01*
X119461904Y-58358095D01*
X119414285Y-58500952D01*
X118842857Y-59072380D01*
X119461904Y-59072380D01*
%TO.C,U2*%
X98806095Y-93940380D02*
X98806095Y-94749904D01*
X98853714Y-94845142D01*
X98901333Y-94892761D01*
X98996571Y-94940380D01*
X99187047Y-94940380D01*
X99282285Y-94892761D01*
X99329904Y-94845142D01*
X99377523Y-94749904D01*
X99377523Y-93940380D01*
X99806095Y-94035619D02*
X99853714Y-93988000D01*
X99948952Y-93940380D01*
X100187047Y-93940380D01*
X100282285Y-93988000D01*
X100329904Y-94035619D01*
X100377523Y-94130857D01*
X100377523Y-94226095D01*
X100329904Y-94368952D01*
X99758476Y-94940380D01*
X100377523Y-94940380D01*
%TO.C,J5*%
X124016666Y-48852380D02*
X124016666Y-49566666D01*
X123969047Y-49709523D01*
X123873809Y-49804761D01*
X123730952Y-49852380D01*
X123635714Y-49852380D01*
X124969047Y-48852380D02*
X124492857Y-48852380D01*
X124445238Y-49328571D01*
X124492857Y-49280952D01*
X124588095Y-49233333D01*
X124826190Y-49233333D01*
X124921428Y-49280952D01*
X124969047Y-49328571D01*
X125016666Y-49423809D01*
X125016666Y-49661904D01*
X124969047Y-49757142D01*
X124921428Y-49804761D01*
X124826190Y-49852380D01*
X124588095Y-49852380D01*
X124492857Y-49804761D01*
X124445238Y-49757142D01*
%TO.C,C18*%
X107657142Y-68892857D02*
X107704761Y-68940476D01*
X107752380Y-69083333D01*
X107752380Y-69178571D01*
X107704761Y-69321428D01*
X107609523Y-69416666D01*
X107514285Y-69464285D01*
X107323809Y-69511904D01*
X107180952Y-69511904D01*
X106990476Y-69464285D01*
X106895238Y-69416666D01*
X106800000Y-69321428D01*
X106752380Y-69178571D01*
X106752380Y-69083333D01*
X106800000Y-68940476D01*
X106847619Y-68892857D01*
X107752380Y-67940476D02*
X107752380Y-68511904D01*
X107752380Y-68226190D02*
X106752380Y-68226190D01*
X106895238Y-68321428D01*
X106990476Y-68416666D01*
X107038095Y-68511904D01*
X107180952Y-67369047D02*
X107133333Y-67464285D01*
X107085714Y-67511904D01*
X106990476Y-67559523D01*
X106942857Y-67559523D01*
X106847619Y-67511904D01*
X106800000Y-67464285D01*
X106752380Y-67369047D01*
X106752380Y-67178571D01*
X106800000Y-67083333D01*
X106847619Y-67035714D01*
X106942857Y-66988095D01*
X106990476Y-66988095D01*
X107085714Y-67035714D01*
X107133333Y-67083333D01*
X107180952Y-67178571D01*
X107180952Y-67369047D01*
X107228571Y-67464285D01*
X107276190Y-67511904D01*
X107371428Y-67559523D01*
X107561904Y-67559523D01*
X107657142Y-67511904D01*
X107704761Y-67464285D01*
X107752380Y-67369047D01*
X107752380Y-67178571D01*
X107704761Y-67083333D01*
X107657142Y-67035714D01*
X107561904Y-66988095D01*
X107371428Y-66988095D01*
X107276190Y-67035714D01*
X107228571Y-67083333D01*
X107180952Y-67178571D01*
%TO.C,C28*%
X95303142Y-52310857D02*
X95350761Y-52358476D01*
X95398380Y-52501333D01*
X95398380Y-52596571D01*
X95350761Y-52739428D01*
X95255523Y-52834666D01*
X95160285Y-52882285D01*
X94969809Y-52929904D01*
X94826952Y-52929904D01*
X94636476Y-52882285D01*
X94541238Y-52834666D01*
X94446000Y-52739428D01*
X94398380Y-52596571D01*
X94398380Y-52501333D01*
X94446000Y-52358476D01*
X94493619Y-52310857D01*
X94493619Y-51929904D02*
X94446000Y-51882285D01*
X94398380Y-51787047D01*
X94398380Y-51548952D01*
X94446000Y-51453714D01*
X94493619Y-51406095D01*
X94588857Y-51358476D01*
X94684095Y-51358476D01*
X94826952Y-51406095D01*
X95398380Y-51977523D01*
X95398380Y-51358476D01*
X94826952Y-50787047D02*
X94779333Y-50882285D01*
X94731714Y-50929904D01*
X94636476Y-50977523D01*
X94588857Y-50977523D01*
X94493619Y-50929904D01*
X94446000Y-50882285D01*
X94398380Y-50787047D01*
X94398380Y-50596571D01*
X94446000Y-50501333D01*
X94493619Y-50453714D01*
X94588857Y-50406095D01*
X94636476Y-50406095D01*
X94731714Y-50453714D01*
X94779333Y-50501333D01*
X94826952Y-50596571D01*
X94826952Y-50787047D01*
X94874571Y-50882285D01*
X94922190Y-50929904D01*
X95017428Y-50977523D01*
X95207904Y-50977523D01*
X95303142Y-50929904D01*
X95350761Y-50882285D01*
X95398380Y-50787047D01*
X95398380Y-50596571D01*
X95350761Y-50501333D01*
X95303142Y-50453714D01*
X95207904Y-50406095D01*
X95017428Y-50406095D01*
X94922190Y-50453714D01*
X94874571Y-50501333D01*
X94826952Y-50596571D01*
%TO.C,T1*%
X112685595Y-118602380D02*
X113257023Y-118602380D01*
X112971309Y-119602380D02*
X112971309Y-118602380D01*
X114114166Y-119602380D02*
X113542738Y-119602380D01*
X113828452Y-119602380D02*
X113828452Y-118602380D01*
X113733214Y-118745238D01*
X113637976Y-118840476D01*
X113542738Y-118888095D01*
%TO.C,C26*%
X113337142Y-102875142D02*
X113289523Y-102922761D01*
X113146666Y-102970380D01*
X113051428Y-102970380D01*
X112908571Y-102922761D01*
X112813333Y-102827523D01*
X112765714Y-102732285D01*
X112718095Y-102541809D01*
X112718095Y-102398952D01*
X112765714Y-102208476D01*
X112813333Y-102113238D01*
X112908571Y-102018000D01*
X113051428Y-101970380D01*
X113146666Y-101970380D01*
X113289523Y-102018000D01*
X113337142Y-102065619D01*
X113718095Y-102065619D02*
X113765714Y-102018000D01*
X113860952Y-101970380D01*
X114099047Y-101970380D01*
X114194285Y-102018000D01*
X114241904Y-102065619D01*
X114289523Y-102160857D01*
X114289523Y-102256095D01*
X114241904Y-102398952D01*
X113670476Y-102970380D01*
X114289523Y-102970380D01*
X115146666Y-101970380D02*
X114956190Y-101970380D01*
X114860952Y-102018000D01*
X114813333Y-102065619D01*
X114718095Y-102208476D01*
X114670476Y-102398952D01*
X114670476Y-102779904D01*
X114718095Y-102875142D01*
X114765714Y-102922761D01*
X114860952Y-102970380D01*
X115051428Y-102970380D01*
X115146666Y-102922761D01*
X115194285Y-102875142D01*
X115241904Y-102779904D01*
X115241904Y-102541809D01*
X115194285Y-102446571D01*
X115146666Y-102398952D01*
X115051428Y-102351333D01*
X114860952Y-102351333D01*
X114765714Y-102398952D01*
X114718095Y-102446571D01*
X114670476Y-102541809D01*
%TO.C,C34*%
X87983542Y-84208857D02*
X88031161Y-84256476D01*
X88078780Y-84399333D01*
X88078780Y-84494571D01*
X88031161Y-84637428D01*
X87935923Y-84732666D01*
X87840685Y-84780285D01*
X87650209Y-84827904D01*
X87507352Y-84827904D01*
X87316876Y-84780285D01*
X87221638Y-84732666D01*
X87126400Y-84637428D01*
X87078780Y-84494571D01*
X87078780Y-84399333D01*
X87126400Y-84256476D01*
X87174019Y-84208857D01*
X87078780Y-83875523D02*
X87078780Y-83256476D01*
X87459733Y-83589809D01*
X87459733Y-83446952D01*
X87507352Y-83351714D01*
X87554971Y-83304095D01*
X87650209Y-83256476D01*
X87888304Y-83256476D01*
X87983542Y-83304095D01*
X88031161Y-83351714D01*
X88078780Y-83446952D01*
X88078780Y-83732666D01*
X88031161Y-83827904D01*
X87983542Y-83875523D01*
X87412114Y-82399333D02*
X88078780Y-82399333D01*
X87031161Y-82637428D02*
X87745447Y-82875523D01*
X87745447Y-82256476D01*
%TO.C,C3*%
X98806933Y-70617142D02*
X98759314Y-70664761D01*
X98616457Y-70712380D01*
X98521219Y-70712380D01*
X98378361Y-70664761D01*
X98283123Y-70569523D01*
X98235504Y-70474285D01*
X98187885Y-70283809D01*
X98187885Y-70140952D01*
X98235504Y-69950476D01*
X98283123Y-69855238D01*
X98378361Y-69760000D01*
X98521219Y-69712380D01*
X98616457Y-69712380D01*
X98759314Y-69760000D01*
X98806933Y-69807619D01*
X99140266Y-69712380D02*
X99759314Y-69712380D01*
X99425980Y-70093333D01*
X99568838Y-70093333D01*
X99664076Y-70140952D01*
X99711695Y-70188571D01*
X99759314Y-70283809D01*
X99759314Y-70521904D01*
X99711695Y-70617142D01*
X99664076Y-70664761D01*
X99568838Y-70712380D01*
X99283123Y-70712380D01*
X99187885Y-70664761D01*
X99140266Y-70617142D01*
%TO.C,R22*%
X118452380Y-73992857D02*
X117976190Y-74326190D01*
X118452380Y-74564285D02*
X117452380Y-74564285D01*
X117452380Y-74183333D01*
X117500000Y-74088095D01*
X117547619Y-74040476D01*
X117642857Y-73992857D01*
X117785714Y-73992857D01*
X117880952Y-74040476D01*
X117928571Y-74088095D01*
X117976190Y-74183333D01*
X117976190Y-74564285D01*
X117547619Y-73611904D02*
X117500000Y-73564285D01*
X117452380Y-73469047D01*
X117452380Y-73230952D01*
X117500000Y-73135714D01*
X117547619Y-73088095D01*
X117642857Y-73040476D01*
X117738095Y-73040476D01*
X117880952Y-73088095D01*
X118452380Y-73659523D01*
X118452380Y-73040476D01*
X117547619Y-72659523D02*
X117500000Y-72611904D01*
X117452380Y-72516666D01*
X117452380Y-72278571D01*
X117500000Y-72183333D01*
X117547619Y-72135714D01*
X117642857Y-72088095D01*
X117738095Y-72088095D01*
X117880952Y-72135714D01*
X118452380Y-72707142D01*
X118452380Y-72088095D01*
%TO.C,R20*%
X124583180Y-107627657D02*
X124106990Y-107960990D01*
X124583180Y-108199085D02*
X123583180Y-108199085D01*
X123583180Y-107818133D01*
X123630800Y-107722895D01*
X123678419Y-107675276D01*
X123773657Y-107627657D01*
X123916514Y-107627657D01*
X124011752Y-107675276D01*
X124059371Y-107722895D01*
X124106990Y-107818133D01*
X124106990Y-108199085D01*
X123678419Y-107246704D02*
X123630800Y-107199085D01*
X123583180Y-107103847D01*
X123583180Y-106865752D01*
X123630800Y-106770514D01*
X123678419Y-106722895D01*
X123773657Y-106675276D01*
X123868895Y-106675276D01*
X124011752Y-106722895D01*
X124583180Y-107294323D01*
X124583180Y-106675276D01*
X123583180Y-106056228D02*
X123583180Y-105960990D01*
X123630800Y-105865752D01*
X123678419Y-105818133D01*
X123773657Y-105770514D01*
X123964133Y-105722895D01*
X124202228Y-105722895D01*
X124392704Y-105770514D01*
X124487942Y-105818133D01*
X124535561Y-105865752D01*
X124583180Y-105960990D01*
X124583180Y-106056228D01*
X124535561Y-106151466D01*
X124487942Y-106199085D01*
X124392704Y-106246704D01*
X124202228Y-106294323D01*
X123964133Y-106294323D01*
X123773657Y-106246704D01*
X123678419Y-106199085D01*
X123630800Y-106151466D01*
X123583180Y-106056228D01*
%TO.C,C1*%
X95033333Y-61507142D02*
X94985714Y-61554761D01*
X94842857Y-61602380D01*
X94747619Y-61602380D01*
X94604761Y-61554761D01*
X94509523Y-61459523D01*
X94461904Y-61364285D01*
X94414285Y-61173809D01*
X94414285Y-61030952D01*
X94461904Y-60840476D01*
X94509523Y-60745238D01*
X94604761Y-60650000D01*
X94747619Y-60602380D01*
X94842857Y-60602380D01*
X94985714Y-60650000D01*
X95033333Y-60697619D01*
X95985714Y-61602380D02*
X95414285Y-61602380D01*
X95700000Y-61602380D02*
X95700000Y-60602380D01*
X95604761Y-60745238D01*
X95509523Y-60840476D01*
X95414285Y-60888095D01*
%TO.C,C6*%
X94321333Y-78771142D02*
X94273714Y-78818761D01*
X94130857Y-78866380D01*
X94035619Y-78866380D01*
X93892761Y-78818761D01*
X93797523Y-78723523D01*
X93749904Y-78628285D01*
X93702285Y-78437809D01*
X93702285Y-78294952D01*
X93749904Y-78104476D01*
X93797523Y-78009238D01*
X93892761Y-77914000D01*
X94035619Y-77866380D01*
X94130857Y-77866380D01*
X94273714Y-77914000D01*
X94321333Y-77961619D01*
X95178476Y-77866380D02*
X94988000Y-77866380D01*
X94892761Y-77914000D01*
X94845142Y-77961619D01*
X94749904Y-78104476D01*
X94702285Y-78294952D01*
X94702285Y-78675904D01*
X94749904Y-78771142D01*
X94797523Y-78818761D01*
X94892761Y-78866380D01*
X95083238Y-78866380D01*
X95178476Y-78818761D01*
X95226095Y-78771142D01*
X95273714Y-78675904D01*
X95273714Y-78437809D01*
X95226095Y-78342571D01*
X95178476Y-78294952D01*
X95083238Y-78247333D01*
X94892761Y-78247333D01*
X94797523Y-78294952D01*
X94749904Y-78342571D01*
X94702285Y-78437809D01*
%TO.C,C12*%
X100322142Y-81256142D02*
X100274523Y-81303761D01*
X100131666Y-81351380D01*
X100036428Y-81351380D01*
X99893571Y-81303761D01*
X99798333Y-81208523D01*
X99750714Y-81113285D01*
X99703095Y-80922809D01*
X99703095Y-80779952D01*
X99750714Y-80589476D01*
X99798333Y-80494238D01*
X99893571Y-80399000D01*
X100036428Y-80351380D01*
X100131666Y-80351380D01*
X100274523Y-80399000D01*
X100322142Y-80446619D01*
X101274523Y-81351380D02*
X100703095Y-81351380D01*
X100988809Y-81351380D02*
X100988809Y-80351380D01*
X100893571Y-80494238D01*
X100798333Y-80589476D01*
X100703095Y-80637095D01*
X101655476Y-80446619D02*
X101703095Y-80399000D01*
X101798333Y-80351380D01*
X102036428Y-80351380D01*
X102131666Y-80399000D01*
X102179285Y-80446619D01*
X102226904Y-80541857D01*
X102226904Y-80637095D01*
X102179285Y-80779952D01*
X101607857Y-81351380D01*
X102226904Y-81351380D01*
%TO.C,U4*%
X111272380Y-67061904D02*
X112081904Y-67061904D01*
X112177142Y-67014285D01*
X112224761Y-66966666D01*
X112272380Y-66871428D01*
X112272380Y-66680952D01*
X112224761Y-66585714D01*
X112177142Y-66538095D01*
X112081904Y-66490476D01*
X111272380Y-66490476D01*
X111605714Y-65585714D02*
X112272380Y-65585714D01*
X111224761Y-65823809D02*
X111939047Y-66061904D01*
X111939047Y-65442857D01*
%TO.C,R13*%
X101795342Y-76906380D02*
X101462009Y-76430190D01*
X101223914Y-76906380D02*
X101223914Y-75906380D01*
X101604866Y-75906380D01*
X101700104Y-75954000D01*
X101747723Y-76001619D01*
X101795342Y-76096857D01*
X101795342Y-76239714D01*
X101747723Y-76334952D01*
X101700104Y-76382571D01*
X101604866Y-76430190D01*
X101223914Y-76430190D01*
X102747723Y-76906380D02*
X102176295Y-76906380D01*
X102462009Y-76906380D02*
X102462009Y-75906380D01*
X102366771Y-76049238D01*
X102271533Y-76144476D01*
X102176295Y-76192095D01*
X103081057Y-75906380D02*
X103700104Y-75906380D01*
X103366771Y-76287333D01*
X103509628Y-76287333D01*
X103604866Y-76334952D01*
X103652485Y-76382571D01*
X103700104Y-76477809D01*
X103700104Y-76715904D01*
X103652485Y-76811142D01*
X103604866Y-76858761D01*
X103509628Y-76906380D01*
X103223914Y-76906380D01*
X103128676Y-76858761D01*
X103081057Y-76811142D01*
D11*
%TO.C,R23*%
X114326936Y-59717000D02*
X114781064Y-59717000D01*
X114326936Y-61187000D02*
X114781064Y-61187000D01*
%TO.C,C19*%
X104538748Y-83560000D02*
X105961252Y-83560000D01*
X104538748Y-81740000D02*
X105961252Y-81740000D01*
%TO.C,R9*%
X117115000Y-94027064D02*
X117115000Y-93572936D01*
X118585000Y-94027064D02*
X118585000Y-93572936D01*
%TO.C,J6*%
X80190400Y-84409600D02*
X80190400Y-74289600D01*
X81190400Y-84409600D02*
X81190400Y-74289600D01*
X84273400Y-78149600D02*
X84323400Y-78199600D01*
X76630400Y-84409600D02*
X87250400Y-84409600D01*
X87490400Y-84649600D02*
X87490400Y-82649600D01*
X85250400Y-84649600D02*
X87490400Y-84649600D01*
X81840400Y-75716600D02*
X81864400Y-75741600D01*
X84515400Y-77957600D02*
X84540400Y-77981600D01*
X76630400Y-84409600D02*
X76630400Y-74289600D01*
X76630400Y-74289600D02*
X87250400Y-74289600D01*
X85190400Y-84409600D02*
X85190400Y-74289600D01*
X87250400Y-84409600D02*
X87250400Y-74289600D01*
X82057400Y-75499600D02*
X82107400Y-75548600D01*
X84829400Y-82545600D02*
G75*
G03*
X84970790Y-81818786I-1638986J695998D01*
G01*
X83886400Y-80210600D02*
G75*
G03*
X82494884Y-80210394I-696001J-1638995D01*
G01*
X82494400Y-83488600D02*
G75*
G03*
X83885916Y-83488806I696001J1638995D01*
G01*
X81551400Y-81153600D02*
G75*
G03*
X81551194Y-82545116I1638995J-696001D01*
G01*
X84970400Y-81849600D02*
G75*
G03*
X84828899Y-81154099I-1780002J0D01*
G01*
X84970400Y-76849600D02*
G75*
G03*
X84970400Y-76849600I-1780000J0D01*
G01*
%TO.C,C24*%
X124261252Y-85315000D02*
X123738748Y-85315000D01*
X124261252Y-86785000D02*
X123738748Y-86785000D01*
%TO.C,C2*%
X117067000Y-56369852D02*
X117067000Y-55847348D01*
X115597000Y-56369852D02*
X115597000Y-55847348D01*
%TO.C,R14*%
X106077064Y-79785000D02*
X105622936Y-79785000D01*
X106077064Y-78315000D02*
X105622936Y-78315000D01*
%TO.C,C21*%
X103682748Y-96880000D02*
X105105252Y-96880000D01*
X103682748Y-98700000D02*
X105105252Y-98700000D01*
%TO.C,C29*%
X129995600Y-84752548D02*
X129995600Y-85275052D01*
X128525600Y-84752548D02*
X128525600Y-85275052D01*
%TO.C,C23*%
X126161252Y-100985000D02*
X125638748Y-100985000D01*
X126161252Y-99515000D02*
X125638748Y-99515000D01*
%TO.C,R21*%
X126535000Y-111074564D02*
X126535000Y-110620436D01*
X125065000Y-111074564D02*
X125065000Y-110620436D01*
%TO.C,C17*%
X96038748Y-105060000D02*
X97461252Y-105060000D01*
X96038748Y-103240000D02*
X97461252Y-103240000D01*
%TO.C,C7*%
X91334000Y-98755252D02*
X91334000Y-97332748D01*
X89514000Y-98755252D02*
X89514000Y-97332748D01*
%TO.C,C33*%
X96600000Y-74574400D02*
G75*
G03*
X96600000Y-74574400I-2620000J0D01*
G01*
%TO.C,U5*%
X126300000Y-93685000D02*
X128500000Y-93685000D01*
X126300000Y-88215000D02*
X122700000Y-88215000D01*
X126300000Y-88215000D02*
X128500000Y-88215000D01*
X126300000Y-93685000D02*
X124100000Y-93685000D01*
%TO.C,C5*%
X91159000Y-102877252D02*
X91159000Y-102354748D01*
X89689000Y-102877252D02*
X89689000Y-102354748D01*
%TO.C,C11*%
X105570000Y-65000000D02*
G75*
G03*
X105570000Y-65000000I-2620000J0D01*
G01*
%TO.C,R3*%
X100722936Y-84815000D02*
X101177064Y-84815000D01*
X100722936Y-86285000D02*
X101177064Y-86285000D01*
%TO.C,C4*%
X92235000Y-83911252D02*
X92235000Y-83388748D01*
X90765000Y-83911252D02*
X90765000Y-83388748D01*
%TO.C,R12*%
X120185436Y-98535000D02*
X120639564Y-98535000D01*
X120185436Y-97065000D02*
X120639564Y-97065000D01*
%TO.C,R11*%
X120322936Y-100985000D02*
X120777064Y-100985000D01*
X120322936Y-99515000D02*
X120777064Y-99515000D01*
%TO.C,L3*%
X114787221Y-86240000D02*
X115112779Y-86240000D01*
X114787221Y-87260000D02*
X115112779Y-87260000D01*
%TO.C,C22*%
X118438748Y-89340000D02*
X119861252Y-89340000D01*
X118438748Y-91160000D02*
X119861252Y-91160000D01*
%TO.C,J1*%
X82426400Y-87048800D02*
X86026400Y-87048800D01*
X82426400Y-94408800D02*
X86026400Y-94408800D01*
X87906400Y-88928800D02*
X87906400Y-92528800D01*
X80546400Y-88928800D02*
X80546400Y-92528800D01*
%TO.C,C15*%
X101461252Y-103565000D02*
X100938748Y-103565000D01*
X101461252Y-105035000D02*
X100938748Y-105035000D01*
%TO.C,R15*%
X119572936Y-81515000D02*
X120027064Y-81515000D01*
X119572936Y-82985000D02*
X120027064Y-82985000D01*
%TO.C,C8*%
X93530052Y-59818600D02*
X93007548Y-59818600D01*
X93530052Y-61288600D02*
X93007548Y-61288600D01*
%TO.C,J3*%
X104695000Y-53380000D02*
X114915000Y-53380000D01*
X114915000Y-53380000D02*
X114915000Y-50720000D01*
X104695000Y-53380000D02*
X104695000Y-50720000D01*
X103425000Y-53380000D02*
X102095000Y-53380000D01*
X104695000Y-50720000D02*
X114915000Y-50720000D01*
X102095000Y-53380000D02*
X102095000Y-52050000D01*
%TO.C,U3*%
X112250000Y-93460000D02*
X110300000Y-93460000D01*
X112250000Y-93460000D02*
X114200000Y-93460000D01*
X112250000Y-88340000D02*
X114200000Y-88340000D01*
X112250000Y-88340000D02*
X108800000Y-88340000D01*
%TO.C,C27*%
X134847000Y-84371548D02*
X134847000Y-84894052D01*
X133377000Y-84371548D02*
X133377000Y-84894052D01*
%TO.C,C16*%
X114838748Y-83365000D02*
X115361252Y-83365000D01*
X114838748Y-84835000D02*
X115361252Y-84835000D01*
%TO.C,Q1*%
X104725000Y-57200000D02*
X104725000Y-57850000D01*
X101605000Y-57200000D02*
X101605000Y-56550000D01*
X101605000Y-57200000D02*
X101605000Y-57850000D01*
X104725000Y-57200000D02*
X104725000Y-55525000D01*
%TO.C,R7*%
X103608936Y-93447000D02*
X104063064Y-93447000D01*
X103608936Y-94917000D02*
X104063064Y-94917000D01*
%TO.C,R1*%
X95277000Y-84354936D02*
X95277000Y-84809064D01*
X96747000Y-84354936D02*
X96747000Y-84809064D01*
%TO.C,R5*%
X95530936Y-100557000D02*
X95985064Y-100557000D01*
X95530936Y-99087000D02*
X95985064Y-99087000D01*
%TO.C,R4k1*%
X122865000Y-73627064D02*
X122865000Y-73172936D01*
X124335000Y-73627064D02*
X124335000Y-73172936D01*
%TO.C,J4*%
X95020000Y-112600000D02*
X95020000Y-116200000D01*
X102380000Y-112600000D02*
X102380000Y-116200000D01*
X96900000Y-118080000D02*
X100500000Y-118080000D01*
X96900000Y-110720000D02*
X100500000Y-110720000D01*
%TO.C,C20*%
X110088748Y-82940000D02*
X111511252Y-82940000D01*
X110088748Y-84760000D02*
X111511252Y-84760000D01*
%TO.C,R17*%
X110022936Y-98635000D02*
X110477064Y-98635000D01*
X110022936Y-97165000D02*
X110477064Y-97165000D01*
%TO.C,TP1*%
X128450000Y-74350000D02*
G75*
G03*
X128450000Y-74350000I-700000J0D01*
G01*
%TO.C,L5*%
X132285200Y-84673221D02*
X132285200Y-84998779D01*
X131265200Y-84673221D02*
X131265200Y-84998779D01*
%TO.C,C10*%
X90588748Y-88185000D02*
X91111252Y-88185000D01*
X90588748Y-86715000D02*
X91111252Y-86715000D01*
%TO.C,C9*%
X104147252Y-89167000D02*
X103624748Y-89167000D01*
X104147252Y-87697000D02*
X103624748Y-87697000D01*
%TO.C,R4*%
X90672936Y-91185000D02*
X91127064Y-91185000D01*
X90672936Y-89715000D02*
X91127064Y-89715000D01*
%TO.C,R2*%
X87250600Y-97610664D02*
X87250600Y-97156536D01*
X88720600Y-97610664D02*
X88720600Y-97156536D01*
%TO.C,C31*%
X130310000Y-105538748D02*
X130310000Y-106961252D01*
X128490000Y-105538748D02*
X128490000Y-106961252D01*
%TO.C,C25*%
X119372748Y-78715000D02*
X119895252Y-78715000D01*
X119372748Y-80185000D02*
X119895252Y-80185000D01*
%TO.C,L2*%
X95666779Y-95252000D02*
X95341221Y-95252000D01*
X95666779Y-94232000D02*
X95341221Y-94232000D01*
%TO.C,R18*%
X110022936Y-101585000D02*
X110477064Y-101585000D01*
X110022936Y-100115000D02*
X110477064Y-100115000D01*
%TO.C,C13*%
X91161252Y-92165000D02*
X90638748Y-92165000D01*
X91161252Y-93635000D02*
X90638748Y-93635000D01*
%TO.C,R6*%
X103658936Y-91667000D02*
X104113064Y-91667000D01*
X103658936Y-90197000D02*
X104113064Y-90197000D01*
%TO.C,J2*%
X82375600Y-101526800D02*
X85975600Y-101526800D01*
X82375600Y-108886800D02*
X85975600Y-108886800D01*
X80495600Y-103406800D02*
X80495600Y-107006800D01*
X87855600Y-103406800D02*
X87855600Y-107006800D01*
%TO.C,L1*%
X110165000Y-57200000D02*
X112375000Y-57200000D01*
X110165000Y-57200000D02*
G75*
G03*
X110165000Y-57200000I-1770000J0D01*
G01*
%TO.C,R10*%
X109972936Y-85865000D02*
X110427064Y-85865000D01*
X109972936Y-87335000D02*
X110427064Y-87335000D01*
%TO.C,R16*%
X119622936Y-86135000D02*
X120077064Y-86135000D01*
X119622936Y-84665000D02*
X120077064Y-84665000D01*
%TO.C,R19*%
X98527064Y-57465000D02*
X98072936Y-57465000D01*
X98527064Y-58935000D02*
X98072936Y-58935000D01*
%TO.C,JP1*%
X90150000Y-56650000D02*
X90150000Y-53850000D01*
X90150000Y-53850000D02*
X92150000Y-53850000D01*
X92150000Y-56650000D02*
X90150000Y-56650000D01*
X92150000Y-53850000D02*
X92150000Y-56650000D01*
%TO.C,TP2*%
X116524000Y-74269600D02*
G75*
G03*
X116524000Y-74269600I-700000J0D01*
G01*
%TO.C,C30*%
X128551000Y-110482748D02*
X128551000Y-111005252D01*
X130021000Y-110482748D02*
X130021000Y-111005252D01*
%TO.C,L4*%
X111160000Y-64170779D02*
X111160000Y-63845221D01*
X110140000Y-64170779D02*
X110140000Y-63845221D01*
%TO.C,R8*%
X99785064Y-100607000D02*
X99330936Y-100607000D01*
X99785064Y-99137000D02*
X99330936Y-99137000D01*
%TO.C,C14*%
X96019252Y-98271000D02*
X95496748Y-98271000D01*
X96019252Y-96801000D02*
X95496748Y-96801000D01*
%TO.C,C32*%
X117938748Y-61035000D02*
X118461252Y-61035000D01*
X117938748Y-59565000D02*
X118461252Y-59565000D01*
%TO.C,U2*%
X97282000Y-93460000D02*
X100732000Y-93460000D01*
X97282000Y-88340000D02*
X95332000Y-88340000D01*
X97282000Y-88340000D02*
X99232000Y-88340000D01*
X97282000Y-93460000D02*
X95332000Y-93460000D01*
%TO.C,J5*%
X122550000Y-57830000D02*
X126150000Y-57830000D01*
X122550000Y-50470000D02*
X126150000Y-50470000D01*
X120670000Y-52350000D02*
X120670000Y-55950000D01*
X128030000Y-52350000D02*
X128030000Y-55950000D01*
%TO.C,C18*%
X111035000Y-68038748D02*
X111035000Y-68561252D01*
X109565000Y-68038748D02*
X109565000Y-68561252D01*
%TO.C,C28*%
X95731000Y-54856748D02*
X95731000Y-55379252D01*
X94261000Y-54856748D02*
X94261000Y-55379252D01*
%TO.C,T1*%
X117247500Y-111750000D02*
G75*
G03*
X117247500Y-111750000I-3800000J0D01*
G01*
X119850624Y-111750000D02*
G75*
G03*
X119850624Y-111750000I-6403124J0D01*
G01*
%TO.C,C26*%
X114241252Y-100103000D02*
X113718748Y-100103000D01*
X114241252Y-101573000D02*
X113718748Y-101573000D01*
%TO.C,C34*%
X88571400Y-83827252D02*
X88571400Y-83304748D01*
X90041400Y-83827252D02*
X90041400Y-83304748D01*
%TO.C,C3*%
X99234852Y-69315000D02*
X98712348Y-69315000D01*
X99234852Y-67845000D02*
X98712348Y-67845000D01*
%TO.C,R22*%
X118915000Y-73577064D02*
X118915000Y-73122936D01*
X120385000Y-73577064D02*
X120385000Y-73122936D01*
%TO.C,R20*%
X126515800Y-107211864D02*
X126515800Y-106757736D01*
X125045800Y-107211864D02*
X125045800Y-106757736D01*
%TO.C,C1*%
X97820000Y-64900000D02*
G75*
G03*
X97820000Y-64900000I-2620000J0D01*
G01*
%TO.C,C6*%
X93776748Y-79354000D02*
X95199252Y-79354000D01*
X93776748Y-81174000D02*
X95199252Y-81174000D01*
%TO.C,C12*%
X101261252Y-82115000D02*
X100738748Y-82115000D01*
X101261252Y-83585000D02*
X100738748Y-83585000D01*
%TO.C,U4*%
X112665000Y-66300000D02*
X112665000Y-64350000D01*
X121535000Y-66300000D02*
X121535000Y-68250000D01*
X121535000Y-66300000D02*
X121535000Y-64350000D01*
X112665000Y-66300000D02*
X112665000Y-69750000D01*
%TO.C,R13*%
X106027064Y-75665000D02*
X105572936Y-75665000D01*
X106027064Y-77135000D02*
X105572936Y-77135000D01*
%TD*%
M02*
