%TF.GenerationSoftware,KiCad,Pcbnew,(6.0.9)*%
%TF.CreationDate,2023-01-25T17:31:36+01:00*%
%TF.ProjectId,sdrt41-tx,73647274-3431-42d7-9478-2e6b69636164,rev?*%
%TF.SameCoordinates,Original*%
%TF.FileFunction,Paste,Top*%
%TF.FilePolarity,Positive*%
%FSLAX46Y46*%
G04 Gerber Fmt 4.6, Leading zero omitted, Abs format (unit mm)*
G04 Created by KiCad (PCBNEW (6.0.9)) date 2023-01-25 17:31:36*
%MOMM*%
%LPD*%
G01*
G04 APERTURE LIST*
G04 Aperture macros list*
%AMRoundRect*
0 Rectangle with rounded corners*
0 $1 Rounding radius*
0 $2 $3 $4 $5 $6 $7 $8 $9 X,Y pos of 4 corners*
0 Add a 4 corners polygon primitive as box body*
4,1,4,$2,$3,$4,$5,$6,$7,$8,$9,$2,$3,0*
0 Add four circle primitives for the rounded corners*
1,1,$1+$1,$2,$3*
1,1,$1+$1,$4,$5*
1,1,$1+$1,$6,$7*
1,1,$1+$1,$8,$9*
0 Add four rect primitives between the rounded corners*
20,1,$1+$1,$2,$3,$4,$5,0*
20,1,$1+$1,$4,$5,$6,$7,0*
20,1,$1+$1,$6,$7,$8,$9,0*
20,1,$1+$1,$8,$9,$2,$3,0*%
G04 Aperture macros list end*
%ADD10RoundRect,0.250000X-0.475000X0.250000X-0.475000X-0.250000X0.475000X-0.250000X0.475000X0.250000X0*%
%ADD11RoundRect,0.250000X-0.325000X-0.650000X0.325000X-0.650000X0.325000X0.650000X-0.325000X0.650000X0*%
%ADD12RoundRect,0.250000X0.450000X-0.262500X0.450000X0.262500X-0.450000X0.262500X-0.450000X-0.262500X0*%
%ADD13RoundRect,0.250000X-0.262500X-0.450000X0.262500X-0.450000X0.262500X0.450000X-0.262500X0.450000X0*%
%ADD14RoundRect,0.250000X0.475000X-0.250000X0.475000X0.250000X-0.475000X0.250000X-0.475000X-0.250000X0*%
%ADD15RoundRect,0.250000X0.262500X0.450000X-0.262500X0.450000X-0.262500X-0.450000X0.262500X-0.450000X0*%
%ADD16RoundRect,0.250000X0.650000X-0.325000X0.650000X0.325000X-0.650000X0.325000X-0.650000X-0.325000X0*%
%ADD17RoundRect,0.100000X-0.637500X-0.100000X0.637500X-0.100000X0.637500X0.100000X-0.637500X0.100000X0*%
%ADD18RoundRect,0.218750X-0.218750X-0.256250X0.218750X-0.256250X0.218750X0.256250X-0.218750X0.256250X0*%
%ADD19RoundRect,0.250000X0.250000X0.475000X-0.250000X0.475000X-0.250000X-0.475000X0.250000X-0.475000X0*%
%ADD20RoundRect,0.150000X-0.725000X-0.150000X0.725000X-0.150000X0.725000X0.150000X-0.725000X0.150000X0*%
%ADD21RoundRect,0.250000X-0.250000X-0.475000X0.250000X-0.475000X0.250000X0.475000X-0.250000X0.475000X0*%
%ADD22RoundRect,0.150000X-0.150000X0.587500X-0.150000X-0.587500X0.150000X-0.587500X0.150000X0.587500X0*%
%ADD23RoundRect,0.250000X-0.450000X0.262500X-0.450000X-0.262500X0.450000X-0.262500X0.450000X0.262500X0*%
%ADD24RoundRect,0.218750X-0.256250X0.218750X-0.256250X-0.218750X0.256250X-0.218750X0.256250X0.218750X0*%
%ADD25RoundRect,0.250000X-0.650000X0.325000X-0.650000X-0.325000X0.650000X-0.325000X0.650000X0.325000X0*%
%ADD26RoundRect,0.218750X0.218750X0.256250X-0.218750X0.256250X-0.218750X-0.256250X0.218750X-0.256250X0*%
%ADD27RoundRect,0.150000X0.725000X0.150000X-0.725000X0.150000X-0.725000X-0.150000X0.725000X-0.150000X0*%
%ADD28RoundRect,0.150000X0.150000X-0.825000X0.150000X0.825000X-0.150000X0.825000X-0.150000X-0.825000X0*%
G04 APERTURE END LIST*
D10*
%TO.C,C35*%
X120040400Y-92826800D03*
X120040400Y-94726800D03*
%TD*%
D11*
%TO.C,C19*%
X103775000Y-82650000D03*
X106725000Y-82650000D03*
%TD*%
D12*
%TO.C,R9*%
X117850000Y-94712500D03*
X117850000Y-92887500D03*
%TD*%
D13*
%TO.C,R22*%
X118340500Y-60833000D03*
X120165500Y-60833000D03*
%TD*%
D10*
%TO.C,C24*%
X122936000Y-84140000D03*
X122936000Y-86040000D03*
%TD*%
D14*
%TO.C,C2*%
X116332000Y-57058600D03*
X116332000Y-55158600D03*
%TD*%
D15*
%TO.C,R14*%
X106762500Y-79050000D03*
X104937500Y-79050000D03*
%TD*%
D11*
%TO.C,C21*%
X102919000Y-97790000D03*
X105869000Y-97790000D03*
%TD*%
D10*
%TO.C,C29*%
X129260600Y-84063800D03*
X129260600Y-85963800D03*
%TD*%
D14*
%TO.C,C23*%
X133223000Y-97089000D03*
X133223000Y-95189000D03*
%TD*%
D12*
%TO.C,R21*%
X125800000Y-111760000D03*
X125800000Y-109935000D03*
%TD*%
D11*
%TO.C,C17*%
X95275000Y-104150000D03*
X98225000Y-104150000D03*
%TD*%
D16*
%TO.C,C7*%
X90424000Y-99519000D03*
X90424000Y-96569000D03*
%TD*%
D17*
%TO.C,U5*%
X123437500Y-88675000D03*
X123437500Y-89325000D03*
X123437500Y-89975000D03*
X123437500Y-90625000D03*
X123437500Y-91275000D03*
X123437500Y-91925000D03*
X123437500Y-92575000D03*
X123437500Y-93225000D03*
X129162500Y-93225000D03*
X129162500Y-92575000D03*
X129162500Y-91925000D03*
X129162500Y-91275000D03*
X129162500Y-90625000D03*
X129162500Y-89975000D03*
X129162500Y-89325000D03*
X129162500Y-88675000D03*
%TD*%
D14*
%TO.C,C5*%
X90424000Y-103566000D03*
X90424000Y-101666000D03*
%TD*%
D13*
%TO.C,R3*%
X100037500Y-85550000D03*
X101862500Y-85550000D03*
%TD*%
D14*
%TO.C,C4*%
X91500000Y-84600000D03*
X91500000Y-82700000D03*
%TD*%
D13*
%TO.C,R12*%
X119500000Y-97800000D03*
X121325000Y-97800000D03*
%TD*%
%TO.C,R11*%
X119637500Y-100250000D03*
X121462500Y-100250000D03*
%TD*%
D18*
%TO.C,L3*%
X114162500Y-86750000D03*
X115737500Y-86750000D03*
%TD*%
D11*
%TO.C,C22*%
X117675000Y-90250000D03*
X120625000Y-90250000D03*
%TD*%
D19*
%TO.C,C15*%
X102150000Y-104300000D03*
X100250000Y-104300000D03*
%TD*%
D13*
%TO.C,R15*%
X118887500Y-82250000D03*
X120712500Y-82250000D03*
%TD*%
D20*
%TO.C,U3*%
X109675000Y-88995000D03*
X109675000Y-90265000D03*
X109675000Y-91535000D03*
X109675000Y-92805000D03*
X114825000Y-92805000D03*
X114825000Y-91535000D03*
X114825000Y-90265000D03*
X114825000Y-88995000D03*
%TD*%
D10*
%TO.C,C27*%
X134112000Y-83682800D03*
X134112000Y-85582800D03*
%TD*%
D19*
%TO.C,C8*%
X124267000Y-60833000D03*
X122367000Y-60833000D03*
%TD*%
D21*
%TO.C,C16*%
X114150000Y-84100000D03*
X116050000Y-84100000D03*
%TD*%
D22*
%TO.C,Q1*%
X104115000Y-56262500D03*
X102215000Y-56262500D03*
X103165000Y-58137500D03*
%TD*%
D13*
%TO.C,R7*%
X102923500Y-94182000D03*
X104748500Y-94182000D03*
%TD*%
D23*
%TO.C,R1*%
X96012000Y-83669500D03*
X96012000Y-85494500D03*
%TD*%
D13*
%TO.C,R5*%
X94845500Y-99822000D03*
X96670500Y-99822000D03*
%TD*%
D11*
%TO.C,C20*%
X113714000Y-80391000D03*
X116664000Y-80391000D03*
%TD*%
D13*
%TO.C,R17*%
X109337500Y-97900000D03*
X111162500Y-97900000D03*
%TD*%
D24*
%TO.C,L5*%
X131775200Y-84048500D03*
X131775200Y-85623500D03*
%TD*%
D21*
%TO.C,C10*%
X89900000Y-87450000D03*
X91800000Y-87450000D03*
%TD*%
D19*
%TO.C,C36*%
X111186000Y-84328000D03*
X109286000Y-84328000D03*
%TD*%
%TO.C,C9*%
X104836000Y-88432000D03*
X102936000Y-88432000D03*
%TD*%
D13*
%TO.C,R4*%
X89987500Y-90450000D03*
X91812500Y-90450000D03*
%TD*%
D12*
%TO.C,R2*%
X87985600Y-98296100D03*
X87985600Y-96471100D03*
%TD*%
D25*
%TO.C,C31*%
X129400000Y-104775000D03*
X129400000Y-107725000D03*
%TD*%
D10*
%TO.C,C25*%
X126365000Y-84140000D03*
X126365000Y-86040000D03*
%TD*%
D26*
%TO.C,L2*%
X96291500Y-94742000D03*
X94716500Y-94742000D03*
%TD*%
D13*
%TO.C,R18*%
X109337500Y-100850000D03*
X111162500Y-100850000D03*
%TD*%
D19*
%TO.C,C13*%
X91850000Y-92900000D03*
X89950000Y-92900000D03*
%TD*%
D13*
%TO.C,R6*%
X102973500Y-90932000D03*
X104798500Y-90932000D03*
%TD*%
%TO.C,R10*%
X109287500Y-86600000D03*
X111112500Y-86600000D03*
%TD*%
%TO.C,R16*%
X118937500Y-85400000D03*
X120762500Y-85400000D03*
%TD*%
D15*
%TO.C,R19*%
X99212500Y-58200000D03*
X97387500Y-58200000D03*
%TD*%
D19*
%TO.C,C11*%
X126299000Y-63373000D03*
X124399000Y-63373000D03*
%TD*%
D15*
%TO.C,R24*%
X129944500Y-63373000D03*
X128119500Y-63373000D03*
%TD*%
D10*
%TO.C,C30*%
X129286000Y-109794000D03*
X129286000Y-111694000D03*
%TD*%
D24*
%TO.C,L4*%
X110363000Y-61315500D03*
X110363000Y-62890500D03*
%TD*%
D15*
%TO.C,R8*%
X100470500Y-99872000D03*
X98645500Y-99872000D03*
%TD*%
D19*
%TO.C,C14*%
X96708000Y-97536000D03*
X94808000Y-97536000D03*
%TD*%
D27*
%TO.C,U2*%
X99857000Y-92805000D03*
X99857000Y-91535000D03*
X99857000Y-90265000D03*
X99857000Y-88995000D03*
X94707000Y-88995000D03*
X94707000Y-90265000D03*
X94707000Y-91535000D03*
X94707000Y-92805000D03*
%TD*%
D10*
%TO.C,C18*%
X110300000Y-67350000D03*
X110300000Y-69250000D03*
%TD*%
%TO.C,C28*%
X94996000Y-54168000D03*
X94996000Y-56068000D03*
%TD*%
D14*
%TO.C,C26*%
X130683000Y-97089000D03*
X130683000Y-95189000D03*
%TD*%
%TO.C,C34*%
X89306400Y-84516000D03*
X89306400Y-82616000D03*
%TD*%
D13*
%TO.C,R23*%
X114403500Y-60833000D03*
X116228500Y-60833000D03*
%TD*%
D19*
%TO.C,C3*%
X99923600Y-68580000D03*
X98023600Y-68580000D03*
%TD*%
D12*
%TO.C,R20*%
X125780800Y-107897300D03*
X125780800Y-106072300D03*
%TD*%
D11*
%TO.C,C6*%
X93013000Y-80264000D03*
X95963000Y-80264000D03*
%TD*%
D19*
%TO.C,C12*%
X101950000Y-82850000D03*
X100050000Y-82850000D03*
%TD*%
D28*
%TO.C,U4*%
X113290000Y-68775000D03*
X114560000Y-68775000D03*
X115830000Y-68775000D03*
X117100000Y-68775000D03*
X118370000Y-68775000D03*
X119640000Y-68775000D03*
X120910000Y-68775000D03*
X120910000Y-63825000D03*
X119640000Y-63825000D03*
X118370000Y-63825000D03*
X117100000Y-63825000D03*
X115830000Y-63825000D03*
X114560000Y-63825000D03*
X113290000Y-63825000D03*
%TD*%
D15*
%TO.C,R13*%
X106712500Y-76400000D03*
X104887500Y-76400000D03*
%TD*%
M02*
