%TF.GenerationSoftware,KiCad,Pcbnew,(6.0.9)*%
%TF.CreationDate,2023-05-20T11:21:48+02:00*%
%TF.ProjectId,sdrt41,73647274-3431-42e6-9b69-6361645f7063,rev?*%
%TF.SameCoordinates,Original*%
%TF.FileFunction,Soldermask,Bot*%
%TF.FilePolarity,Negative*%
%FSLAX46Y46*%
G04 Gerber Fmt 4.6, Leading zero omitted, Abs format (unit mm)*
G04 Created by KiCad (PCBNEW (6.0.9)) date 2023-05-20 11:21:48*
%MOMM*%
%LPD*%
G01*
G04 APERTURE LIST*
G04 Aperture macros list*
%AMRoundRect*
0 Rectangle with rounded corners*
0 $1 Rounding radius*
0 $2 $3 $4 $5 $6 $7 $8 $9 X,Y pos of 4 corners*
0 Add a 4 corners polygon primitive as box body*
4,1,4,$2,$3,$4,$5,$6,$7,$8,$9,$2,$3,0*
0 Add four circle primitives for the rounded corners*
1,1,$1+$1,$2,$3*
1,1,$1+$1,$4,$5*
1,1,$1+$1,$6,$7*
1,1,$1+$1,$8,$9*
0 Add four rect primitives between the rounded corners*
20,1,$1+$1,$2,$3,$4,$5,0*
20,1,$1+$1,$4,$5,$6,$7,0*
20,1,$1+$1,$6,$7,$8,$9,0*
20,1,$1+$1,$8,$9,$2,$3,0*%
G04 Aperture macros list end*
%ADD10RoundRect,0.250000X0.450000X-0.262500X0.450000X0.262500X-0.450000X0.262500X-0.450000X-0.262500X0*%
%ADD11C,0.800000*%
%ADD12C,6.400000*%
%ADD13C,2.050000*%
%ADD14C,2.250000*%
%ADD15C,1.600000*%
%ADD16R,1.700000X1.700000*%
%ADD17O,1.700000X1.700000*%
%ADD18R,2.800000X2.800000*%
%ADD19C,2.800000*%
%ADD20C,3.000000*%
%ADD21R,2.000000X1.500000*%
%ADD22R,2.000000X3.800000*%
G04 APERTURE END LIST*
D10*
%TO.C,R30*%
X74930000Y-72667500D03*
X74930000Y-70842500D03*
%TD*%
%TO.C,R29*%
X73025000Y-70842500D03*
X73025000Y-72667500D03*
%TD*%
%TO.C,R26*%
X78740000Y-72667500D03*
X78740000Y-70842500D03*
%TD*%
%TO.C,R23*%
X76835000Y-72667500D03*
X76835000Y-70842500D03*
%TD*%
D11*
%TO.C,H1*%
X116920944Y-69197056D03*
X121018000Y-67500000D03*
X120315056Y-65802944D03*
X120315056Y-69197056D03*
D12*
X118618000Y-67500000D03*
D11*
X118618000Y-65100000D03*
X116920944Y-65802944D03*
X118618000Y-69900000D03*
X116218000Y-67500000D03*
%TD*%
D13*
%TO.C,J2*%
X28321000Y-102489000D03*
D14*
X30861000Y-105029000D03*
X30861000Y-99949000D03*
X25781000Y-105029000D03*
X25781000Y-99949000D03*
%TD*%
D15*
%TO.C,C4*%
X60579000Y-69342000D03*
X60579000Y-66842000D03*
%TD*%
D11*
%TO.C,H4*%
X26623944Y-69197056D03*
X30018056Y-69197056D03*
X30018056Y-65802944D03*
X26623944Y-65802944D03*
X28321000Y-69900000D03*
X30721000Y-67500000D03*
X28321000Y-65100000D03*
X25921000Y-67500000D03*
D12*
X28321000Y-67500000D03*
%TD*%
D15*
%TO.C,C1*%
X48514000Y-81066000D03*
X48514000Y-86066000D03*
%TD*%
D16*
%TO.C,J5*%
X83058000Y-65532000D03*
D17*
X80518000Y-65532000D03*
X77978000Y-65532000D03*
X75438000Y-65532000D03*
X72898000Y-65532000D03*
X70358000Y-65532000D03*
X67818000Y-65532000D03*
%TD*%
D18*
%TO.C,J1*%
X48046000Y-66782000D03*
D19*
X53046000Y-66782000D03*
%TD*%
D20*
%TO.C,T1*%
X36910000Y-95505000D03*
X36910000Y-111505000D03*
X46910000Y-95505000D03*
X46910000Y-111505000D03*
%TD*%
D15*
%TO.C,C3*%
X34036000Y-81269200D03*
X34036000Y-86269200D03*
%TD*%
D16*
%TO.C,J6*%
X118359000Y-98821000D03*
D17*
X120899000Y-98821000D03*
X118359000Y-101361000D03*
X120899000Y-101361000D03*
X118359000Y-103901000D03*
X120899000Y-103901000D03*
%TD*%
D16*
%TO.C,J3*%
X50292000Y-73660000D03*
D17*
X52832000Y-73660000D03*
%TD*%
D16*
%TO.C,J4*%
X62733000Y-92964000D03*
D17*
X65273000Y-92964000D03*
%TD*%
D11*
%TO.C,H2*%
X118618000Y-114567000D03*
X118618000Y-119367000D03*
X116920944Y-118664056D03*
X121018000Y-116967000D03*
X116218000Y-116967000D03*
D12*
X118618000Y-116967000D03*
D11*
X116920944Y-115269944D03*
X120315056Y-115269944D03*
X120315056Y-118664056D03*
%TD*%
%TO.C,H3*%
X25921000Y-117094000D03*
X30721000Y-117094000D03*
X30018056Y-118791056D03*
X26623944Y-118791056D03*
X30018056Y-115396944D03*
X28321000Y-119494000D03*
X26623944Y-115396944D03*
D12*
X28321000Y-117094000D03*
D11*
X28321000Y-114694000D03*
%TD*%
D21*
%TO.C,U2*%
X58191000Y-80405000D03*
D22*
X64491000Y-78105000D03*
D21*
X58191000Y-78105000D03*
X58191000Y-75805000D03*
%TD*%
%TO.C,U1*%
X43028000Y-65772000D03*
D22*
X36728000Y-68072000D03*
D21*
X43028000Y-68072000D03*
X43028000Y-70372000D03*
%TD*%
M02*
