%TF.GenerationSoftware,KiCad,Pcbnew,(6.0.9)*%
%TF.CreationDate,2023-05-20T11:21:48+02:00*%
%TF.ProjectId,sdrt41,73647274-3431-42e6-9b69-6361645f7063,rev?*%
%TF.SameCoordinates,Original*%
%TF.FileFunction,Copper,L4,Bot*%
%TF.FilePolarity,Positive*%
%FSLAX46Y46*%
G04 Gerber Fmt 4.6, Leading zero omitted, Abs format (unit mm)*
G04 Created by KiCad (PCBNEW (6.0.9)) date 2023-05-20 11:21:48*
%MOMM*%
%LPD*%
G01*
G04 APERTURE LIST*
G04 Aperture macros list*
%AMRoundRect*
0 Rectangle with rounded corners*
0 $1 Rounding radius*
0 $2 $3 $4 $5 $6 $7 $8 $9 X,Y pos of 4 corners*
0 Add a 4 corners polygon primitive as box body*
4,1,4,$2,$3,$4,$5,$6,$7,$8,$9,$2,$3,0*
0 Add four circle primitives for the rounded corners*
1,1,$1+$1,$2,$3*
1,1,$1+$1,$4,$5*
1,1,$1+$1,$6,$7*
1,1,$1+$1,$8,$9*
0 Add four rect primitives between the rounded corners*
20,1,$1+$1,$2,$3,$4,$5,0*
20,1,$1+$1,$4,$5,$6,$7,0*
20,1,$1+$1,$6,$7,$8,$9,0*
20,1,$1+$1,$8,$9,$2,$3,0*%
G04 Aperture macros list end*
%TA.AperFunction,SMDPad,CuDef*%
%ADD10RoundRect,0.250000X0.450000X-0.262500X0.450000X0.262500X-0.450000X0.262500X-0.450000X-0.262500X0*%
%TD*%
%TA.AperFunction,ComponentPad*%
%ADD11C,0.800000*%
%TD*%
%TA.AperFunction,ComponentPad*%
%ADD12C,6.400000*%
%TD*%
%TA.AperFunction,ComponentPad*%
%ADD13C,2.050000*%
%TD*%
%TA.AperFunction,ComponentPad*%
%ADD14C,2.250000*%
%TD*%
%TA.AperFunction,ComponentPad*%
%ADD15C,1.600000*%
%TD*%
%TA.AperFunction,ComponentPad*%
%ADD16R,1.700000X1.700000*%
%TD*%
%TA.AperFunction,ComponentPad*%
%ADD17O,1.700000X1.700000*%
%TD*%
%TA.AperFunction,ComponentPad*%
%ADD18R,2.800000X2.800000*%
%TD*%
%TA.AperFunction,ComponentPad*%
%ADD19C,2.800000*%
%TD*%
%TA.AperFunction,ComponentPad*%
%ADD20C,3.000000*%
%TD*%
%TA.AperFunction,SMDPad,CuDef*%
%ADD21R,2.000000X1.500000*%
%TD*%
%TA.AperFunction,SMDPad,CuDef*%
%ADD22R,2.000000X3.800000*%
%TD*%
%TA.AperFunction,ViaPad*%
%ADD23C,0.800000*%
%TD*%
%TA.AperFunction,Conductor*%
%ADD24C,0.250000*%
%TD*%
%TA.AperFunction,Conductor*%
%ADD25C,0.500000*%
%TD*%
G04 APERTURE END LIST*
D10*
%TO.P,R30,1*%
%TO.N,+3V3*%
X74930000Y-72667500D03*
%TO.P,R30,2*%
%TO.N,SDA3*%
X74930000Y-70842500D03*
%TD*%
%TO.P,R29,2*%
%TO.N,SCL3*%
X73025000Y-70842500D03*
%TO.P,R29,1*%
%TO.N,+3V3*%
X73025000Y-72667500D03*
%TD*%
%TO.P,R26,1*%
%TO.N,+3V3*%
X78740000Y-72667500D03*
%TO.P,R26,2*%
%TO.N,SDA2*%
X78740000Y-70842500D03*
%TD*%
%TO.P,R23,1*%
%TO.N,+3V3*%
X76835000Y-72667500D03*
%TO.P,R23,2*%
%TO.N,SCL2*%
X76835000Y-70842500D03*
%TD*%
D11*
%TO.P,H1,1,1*%
%TO.N,unconnected-(H1-Pad1)*%
X116920944Y-69197056D03*
X121018000Y-67500000D03*
X120315056Y-65802944D03*
X120315056Y-69197056D03*
D12*
X118618000Y-67500000D03*
D11*
X118618000Y-65100000D03*
X116920944Y-65802944D03*
X118618000Y-69900000D03*
X116218000Y-67500000D03*
%TD*%
D13*
%TO.P,J2,1,In*%
%TO.N,Net-(J2-Pad1)*%
X28321000Y-102489000D03*
D14*
%TO.P,J2,2,Ext*%
%TO.N,GND*%
X30861000Y-105029000D03*
X30861000Y-99949000D03*
X25781000Y-105029000D03*
X25781000Y-99949000D03*
%TD*%
D15*
%TO.P,C4,1*%
%TO.N,+3V3*%
X60579000Y-69342000D03*
%TO.P,C4,2*%
%TO.N,GND*%
X60579000Y-66842000D03*
%TD*%
D11*
%TO.P,H4,1,1*%
%TO.N,unconnected-(H4-Pad1)*%
X26623944Y-69197056D03*
X30018056Y-69197056D03*
X30018056Y-65802944D03*
X26623944Y-65802944D03*
X28321000Y-69900000D03*
X30721000Y-67500000D03*
X28321000Y-65100000D03*
X25921000Y-67500000D03*
D12*
X28321000Y-67500000D03*
%TD*%
D15*
%TO.P,C1,1*%
%TO.N,+12V*%
X48514000Y-81066000D03*
%TO.P,C1,2*%
%TO.N,GND*%
X48514000Y-86066000D03*
%TD*%
D16*
%TO.P,J5,1,Pin_1*%
%TO.N,SDA2*%
X83058000Y-65532000D03*
D17*
%TO.P,J5,2,Pin_2*%
%TO.N,SCL2*%
X80518000Y-65532000D03*
%TO.P,J5,3,Pin_3*%
%TO.N,SDA3*%
X77978000Y-65532000D03*
%TO.P,J5,4,Pin_4*%
%TO.N,SCL3*%
X75438000Y-65532000D03*
%TO.P,J5,5,Pin_5*%
%TO.N,SDA*%
X72898000Y-65532000D03*
%TO.P,J5,6,Pin_6*%
%TO.N,SCL*%
X70358000Y-65532000D03*
%TO.P,J5,7,Pin_7*%
%TO.N,GND*%
X67818000Y-65532000D03*
%TD*%
D18*
%TO.P,J1,1,Pin_1*%
%TO.N,+12V*%
X48046000Y-66782000D03*
D19*
%TO.P,J1,2,Pin_2*%
%TO.N,GND*%
X53046000Y-66782000D03*
%TD*%
D20*
%TO.P,T1,1,AA*%
%TO.N,Net-(J2-Pad1)*%
X36910000Y-95505000D03*
%TO.P,T1,2,AB*%
%TO.N,GND*%
X36910000Y-111505000D03*
%TO.P,T1,3,SA*%
X46910000Y-95505000D03*
%TO.P,T1,4,SB*%
%TO.N,Net-(C6-Pad1)*%
X46910000Y-111505000D03*
%TD*%
D15*
%TO.P,C3,1*%
%TO.N,+5V*%
X34036000Y-81269200D03*
%TO.P,C3,2*%
%TO.N,GND*%
X34036000Y-86269200D03*
%TD*%
D16*
%TO.P,J6,1,Pin_1*%
%TO.N,/Q+*%
X118359000Y-98821000D03*
D17*
%TO.P,J6,2,Pin_2*%
%TO.N,/Q-*%
X120899000Y-98821000D03*
%TO.P,J6,3,Pin_3*%
%TO.N,Net-(J6-Pad3)*%
X118359000Y-101361000D03*
%TO.P,J6,4,Pin_4*%
X120899000Y-101361000D03*
%TO.P,J6,5,Pin_5*%
%TO.N,/I-*%
X118359000Y-103901000D03*
%TO.P,J6,6,Pin_6*%
%TO.N,/I+*%
X120899000Y-103901000D03*
%TD*%
D16*
%TO.P,J3,1,Pin_1*%
%TO.N,+5V*%
X50292000Y-73660000D03*
D17*
%TO.P,J3,2,Pin_2*%
%TO.N,GND*%
X52832000Y-73660000D03*
%TD*%
D16*
%TO.P,J4,1,Pin_1*%
%TO.N,RX-TX*%
X62733000Y-92964000D03*
D17*
%TO.P,J4,2,Pin_2*%
%TO.N,GND*%
X65273000Y-92964000D03*
%TD*%
D11*
%TO.P,H2,1,1*%
%TO.N,unconnected-(H2-Pad1)*%
X118618000Y-114567000D03*
X118618000Y-119367000D03*
X116920944Y-118664056D03*
X121018000Y-116967000D03*
X116218000Y-116967000D03*
D12*
X118618000Y-116967000D03*
D11*
X116920944Y-115269944D03*
X120315056Y-115269944D03*
X120315056Y-118664056D03*
%TD*%
%TO.P,H3,1,1*%
%TO.N,unconnected-(H3-Pad1)*%
X25921000Y-117094000D03*
X30721000Y-117094000D03*
X30018056Y-118791056D03*
X26623944Y-118791056D03*
X30018056Y-115396944D03*
X28321000Y-119494000D03*
X26623944Y-115396944D03*
D12*
X28321000Y-117094000D03*
D11*
X28321000Y-114694000D03*
%TD*%
D21*
%TO.P,U2,1,GND*%
%TO.N,GND*%
X58191000Y-80405000D03*
D22*
%TO.P,U2,2,VO*%
%TO.N,+3V3*%
X64491000Y-78105000D03*
D21*
X58191000Y-78105000D03*
%TO.P,U2,3,VI*%
%TO.N,+5V*%
X58191000Y-75805000D03*
%TD*%
%TO.P,U1,1,GND*%
%TO.N,GND*%
X43028000Y-65772000D03*
D22*
%TO.P,U1,2,VO*%
%TO.N,+5V*%
X36728000Y-68072000D03*
D21*
X43028000Y-68072000D03*
%TO.P,U1,3,VI*%
%TO.N,+12V*%
X43028000Y-70372000D03*
%TD*%
D23*
%TO.N,SDA1*%
X88265000Y-67945000D03*
X96520000Y-66675000D03*
%TO.N,+3V3*%
X96520000Y-64850000D03*
X91414500Y-73180891D03*
X73025000Y-72667500D03*
%TO.N,GND*%
X87630000Y-81280000D03*
X73660000Y-118110000D03*
X60960000Y-90170000D03*
X107315000Y-113030000D03*
X88900000Y-112600000D03*
X119380000Y-87630000D03*
X91440000Y-64770000D03*
X69850000Y-81280000D03*
X99060000Y-78740000D03*
X73660000Y-83820000D03*
X101803200Y-93751400D03*
X86766400Y-75234800D03*
X38100000Y-118110000D03*
X68580000Y-118110000D03*
X62230000Y-83820000D03*
X96520000Y-87630000D03*
X75692000Y-67818000D03*
X26670000Y-86360000D03*
X32385000Y-90170000D03*
X76200000Y-118110000D03*
X107950000Y-87630000D03*
X48260000Y-118110000D03*
X55880000Y-118110000D03*
X79756000Y-98679000D03*
X26670000Y-90170000D03*
X115570000Y-87630000D03*
X91694000Y-78740000D03*
X80645000Y-88900000D03*
X59512200Y-101600000D03*
X45085000Y-90170000D03*
X64770000Y-83820000D03*
X59690000Y-83820000D03*
X42545000Y-90170000D03*
X65405000Y-102184200D03*
X86766400Y-69088000D03*
X31750000Y-110490000D03*
X113030000Y-64770000D03*
X105537000Y-108966000D03*
X65913000Y-98679000D03*
X50800000Y-118110000D03*
X92710000Y-87630000D03*
X91287499Y-75184000D03*
X111760000Y-87630000D03*
X104013000Y-101158000D03*
X72898000Y-91694000D03*
X40005000Y-90170000D03*
X66040000Y-118110000D03*
X77470000Y-78740000D03*
X89316000Y-102550000D03*
X40640000Y-118110000D03*
X101600000Y-118110000D03*
X80137000Y-94234000D03*
X78740000Y-118110000D03*
X26670000Y-78740000D03*
X96520000Y-118110000D03*
X87630000Y-90805000D03*
X45720000Y-118110000D03*
X100330000Y-73660000D03*
X26670000Y-82550000D03*
X81280000Y-118110000D03*
X92541290Y-70513888D03*
X26670000Y-74930000D03*
X119380000Y-81280000D03*
X71120000Y-118110000D03*
X37465000Y-90170000D03*
X83820000Y-81280000D03*
X86360000Y-118110000D03*
X91440000Y-81280000D03*
X100330000Y-69850000D03*
X47625000Y-90170000D03*
X29845000Y-90170000D03*
X109220000Y-64770000D03*
X72390000Y-78740000D03*
X86360000Y-87630000D03*
X105410000Y-64770000D03*
X88900000Y-87630000D03*
X90382291Y-68989889D03*
X60960000Y-118110000D03*
X56515000Y-90170000D03*
X34925000Y-90170000D03*
X101600000Y-67310000D03*
X87630000Y-64770000D03*
X80010000Y-81280000D03*
X88900000Y-118110000D03*
X94234000Y-76708000D03*
X94869000Y-93218000D03*
X35560000Y-118110000D03*
X107569000Y-99822000D03*
X97028000Y-77470000D03*
X69850000Y-98679000D03*
X101600000Y-64770000D03*
X91440000Y-118110000D03*
X105537000Y-106934000D03*
X58293000Y-80518000D03*
X60706000Y-80518000D03*
X53975000Y-90170000D03*
X87884000Y-78740000D03*
X67310000Y-83820000D03*
X30988000Y-93599000D03*
X76200000Y-81280000D03*
X25400000Y-110617000D03*
X100330000Y-87630000D03*
X104775000Y-115570000D03*
X26670000Y-93726000D03*
X63500000Y-118110000D03*
X57150000Y-83820000D03*
X104140000Y-87630000D03*
X95250000Y-81280000D03*
X119380000Y-76200000D03*
X113919000Y-107950000D03*
X58420000Y-118110000D03*
X43053000Y-65913000D03*
X53340000Y-118110000D03*
X99060000Y-118110000D03*
X71120000Y-86360000D03*
X43180000Y-118110000D03*
X94996916Y-75784613D03*
X83820000Y-118110000D03*
X93980000Y-118110000D03*
X82550000Y-78740000D03*
X104140000Y-118110000D03*
%TO.N,+5V*%
X97741000Y-93218000D03*
X57658000Y-73406000D03*
X82550000Y-93726000D03*
%TO.N,+3V3*%
X60706000Y-78613000D03*
X64491000Y-78105000D03*
%TO.N,Clock*%
X95808800Y-77520800D03*
X66548000Y-102184200D03*
%TO.N,+12C*%
X84166000Y-106360000D03*
X82550000Y-95250000D03*
%TO.N,Net-(C27-Pad2)*%
X98806000Y-105156000D03*
X99507000Y-99949000D03*
%TO.N,Net-(R11-Pad1)*%
X80391000Y-102573500D03*
X78359000Y-94234000D03*
%TO.N,Clock1*%
X95961200Y-76047600D03*
X60706000Y-101600000D03*
%TO.N,Net-(C16-Pad2)*%
X70158880Y-103382080D03*
X69215000Y-110236000D03*
%TO.N,Net-(C23-Pad2)*%
X74525500Y-94234000D03*
X82484000Y-111797500D03*
%TO.N,Net-(R10-Pad1)*%
X89408000Y-105156000D03*
X87399500Y-99822000D03*
%TO.N,Net-(R14-Pad1)*%
X85598000Y-99822000D03*
X91059000Y-109220000D03*
%TO.N,Net-(R27-Pad2)*%
X92987500Y-96647000D03*
X97409000Y-103632000D03*
%TO.N,Net-(JP1-Pad1)*%
X80873600Y-76606400D03*
X82499200Y-70815200D03*
%TD*%
D24*
%TO.N,SDA1*%
X91139695Y-64045000D02*
X88265000Y-66919695D01*
X88265000Y-66919695D02*
X88265000Y-67945000D01*
X96740305Y-64045000D02*
X91139695Y-64045000D01*
X97245000Y-64549695D02*
X96740305Y-64045000D01*
X97245000Y-65950000D02*
X97245000Y-64549695D01*
X96520000Y-66675000D02*
X97245000Y-65950000D01*
D25*
%TO.N,+3V3*%
X91414500Y-73180891D02*
X91414500Y-69955500D01*
X91414500Y-69955500D02*
X96520000Y-64850000D01*
D24*
X73025000Y-72667500D02*
X78740000Y-72667500D01*
%TO.N,SCL3*%
X73025000Y-67945000D02*
X75438000Y-65532000D01*
X73025000Y-70842500D02*
X73025000Y-67945000D01*
%TO.N,SDA3*%
X77978000Y-67794500D02*
X77978000Y-65532000D01*
X74930000Y-70842500D02*
X77978000Y-67794500D01*
%TO.N,SCL2*%
X80518000Y-67159500D02*
X80518000Y-65532000D01*
X76835000Y-70842500D02*
X80518000Y-67159500D01*
%TO.N,SDA2*%
X83058000Y-66524500D02*
X83058000Y-65532000D01*
X78740000Y-70842500D02*
X83058000Y-66524500D01*
D25*
%TO.N,+5V*%
X34036000Y-81269200D02*
X34036000Y-70764000D01*
X34036000Y-70764000D02*
X36728000Y-68072000D01*
X86614000Y-89662000D02*
X94185000Y-89662000D01*
X36728000Y-68072000D02*
X43028000Y-68072000D01*
X94185000Y-89662000D02*
X97741000Y-93218000D01*
X58191000Y-75805000D02*
X58191000Y-73939000D01*
X82550000Y-93726000D02*
X86614000Y-89662000D01*
X58191000Y-73939000D02*
X57658000Y-73406000D01*
%TO.N,+3V3*%
X63983000Y-78613000D02*
X60706000Y-78613000D01*
X60198000Y-78105000D02*
X60706000Y-78613000D01*
X60579000Y-74193000D02*
X64491000Y-78105000D01*
X64491000Y-78105000D02*
X63983000Y-78613000D01*
X58191000Y-78105000D02*
X60198000Y-78105000D01*
X60579000Y-69342000D02*
X60579000Y-74193000D01*
%TO.N,+12V*%
X48514000Y-81193000D02*
X48514000Y-75858000D01*
X44456000Y-70372000D02*
X48046000Y-66782000D01*
X43028000Y-70372000D02*
X44456000Y-70372000D01*
X48514000Y-75858000D02*
X43028000Y-70372000D01*
D24*
%TO.N,Clock*%
X75234800Y-80162400D02*
X67005200Y-88392000D01*
X93167200Y-80162400D02*
X75234800Y-80162400D01*
X95808800Y-77520800D02*
X93167200Y-80162400D01*
X67005200Y-88392000D02*
X67005200Y-101727000D01*
X67005200Y-101727000D02*
X66548000Y-102184200D01*
%TO.N,+12C*%
X82550000Y-104744000D02*
X84166000Y-106360000D01*
X82550000Y-95250000D02*
X82550000Y-104744000D01*
%TO.N,Net-(C27-Pad2)*%
X98806000Y-105156000D02*
X98806000Y-100650000D01*
X98806000Y-100650000D02*
X99507000Y-99949000D01*
%TO.N,Net-(R11-Pad1)*%
X78359000Y-100541500D02*
X78359000Y-94234000D01*
X80391000Y-102573500D02*
X78359000Y-100541500D01*
%TO.N,Clock1*%
X92506800Y-79502000D02*
X73415305Y-79502000D01*
X73415305Y-79502000D02*
X60706000Y-92211305D01*
X95961200Y-76047600D02*
X92506800Y-79502000D01*
X60706000Y-92211305D02*
X60706000Y-101600000D01*
%TO.N,Net-(C16-Pad2)*%
X70158880Y-103382080D02*
X69215000Y-104325960D01*
X69215000Y-104325960D02*
X69215000Y-110236000D01*
%TO.N,Net-(C23-Pad2)*%
X74525500Y-94234000D02*
X74525500Y-103839000D01*
X74525500Y-103839000D02*
X82484000Y-111797500D01*
%TO.N,Net-(R10-Pad1)*%
X87376000Y-99845500D02*
X87376000Y-103759000D01*
X87376000Y-103759000D02*
X88773000Y-105156000D01*
X88773000Y-105156000D02*
X89408000Y-105156000D01*
X87399500Y-99822000D02*
X87376000Y-99845500D01*
%TO.N,Net-(R14-Pad1)*%
X85598000Y-103759000D02*
X91059000Y-109220000D01*
X85598000Y-99822000D02*
X85598000Y-103759000D01*
%TO.N,Net-(R27-Pad2)*%
X97409000Y-103632000D02*
X97409000Y-101068500D01*
X97409000Y-101068500D02*
X92987500Y-96647000D01*
%TO.N,Net-(JP1-Pad1)*%
X80873600Y-72440800D02*
X82499200Y-70815200D01*
X80873600Y-76606400D02*
X80873600Y-72440800D01*
%TD*%
%TA.AperFunction,Conductor*%
%TO.N,GND*%
G36*
X117079545Y-63908876D02*
G01*
X117126107Y-63962472D01*
X117136301Y-64032733D01*
X117106892Y-64097352D01*
X117068764Y-64127229D01*
X116764147Y-64282439D01*
X116764140Y-64282443D01*
X116761206Y-64283938D01*
X116758440Y-64285734D01*
X116758437Y-64285736D01*
X116528135Y-64435295D01*
X116435207Y-64495643D01*
X116293160Y-64610671D01*
X116163825Y-64715405D01*
X116133124Y-64740266D01*
X115858266Y-65015124D01*
X115856194Y-65017682D01*
X115856191Y-65017686D01*
X115766772Y-65128109D01*
X115613643Y-65317207D01*
X115611848Y-65319970D01*
X115611848Y-65319971D01*
X115405857Y-65637172D01*
X115401938Y-65643206D01*
X115400443Y-65646140D01*
X115400439Y-65646147D01*
X115260840Y-65920125D01*
X115225468Y-65989547D01*
X115086167Y-66352438D01*
X114985562Y-66727901D01*
X114960590Y-66885567D01*
X114930540Y-67075295D01*
X114924754Y-67111824D01*
X114904411Y-67500000D01*
X114924754Y-67888176D01*
X114925267Y-67891416D01*
X114925268Y-67891424D01*
X114946980Y-68028502D01*
X114985562Y-68272099D01*
X115086167Y-68647562D01*
X115087352Y-68650650D01*
X115087353Y-68650652D01*
X115121191Y-68738803D01*
X115225468Y-69010453D01*
X115226966Y-69013393D01*
X115397190Y-69347475D01*
X115401938Y-69356794D01*
X115403734Y-69359560D01*
X115403736Y-69359563D01*
X115540451Y-69570087D01*
X115613643Y-69682793D01*
X115705499Y-69796225D01*
X115844947Y-69968428D01*
X115858266Y-69984876D01*
X116133124Y-70259734D01*
X116135682Y-70261806D01*
X116135686Y-70261809D01*
X116226392Y-70335261D01*
X116435207Y-70504357D01*
X116437970Y-70506152D01*
X116437971Y-70506152D01*
X116714646Y-70685826D01*
X116761205Y-70716062D01*
X116764139Y-70717557D01*
X116764146Y-70717561D01*
X116955774Y-70815200D01*
X117107547Y-70892532D01*
X117277722Y-70957856D01*
X117422966Y-71013610D01*
X117470438Y-71031833D01*
X117845901Y-71132438D01*
X118011396Y-71158650D01*
X118226576Y-71192732D01*
X118226584Y-71192733D01*
X118229824Y-71193246D01*
X118618000Y-71213589D01*
X119006176Y-71193246D01*
X119009416Y-71192733D01*
X119009424Y-71192732D01*
X119224604Y-71158650D01*
X119390099Y-71132438D01*
X119765562Y-71031833D01*
X119813035Y-71013610D01*
X119958278Y-70957856D01*
X120128453Y-70892532D01*
X120280226Y-70815200D01*
X120471854Y-70717561D01*
X120471861Y-70717557D01*
X120474795Y-70716062D01*
X120521355Y-70685826D01*
X120798029Y-70506152D01*
X120798030Y-70506152D01*
X120800793Y-70504357D01*
X121009608Y-70335261D01*
X121100314Y-70261809D01*
X121100318Y-70261806D01*
X121102876Y-70259734D01*
X121377734Y-69984876D01*
X121391054Y-69968428D01*
X121530501Y-69796225D01*
X121622357Y-69682793D01*
X121695549Y-69570087D01*
X121832264Y-69359563D01*
X121832266Y-69359560D01*
X121834062Y-69356794D01*
X121838811Y-69347475D01*
X122009034Y-69013393D01*
X122010532Y-69010453D01*
X122056869Y-68889741D01*
X122099955Y-68833313D01*
X122166708Y-68809136D01*
X122235935Y-68824887D01*
X122285657Y-68875565D01*
X122300500Y-68934895D01*
X122300500Y-98059483D01*
X122280498Y-98127604D01*
X122226842Y-98174097D01*
X122156568Y-98184201D01*
X122091988Y-98154707D01*
X122068708Y-98127923D01*
X121981822Y-97993617D01*
X121981820Y-97993614D01*
X121979014Y-97989277D01*
X121828670Y-97824051D01*
X121824619Y-97820852D01*
X121824615Y-97820848D01*
X121657414Y-97688800D01*
X121657410Y-97688798D01*
X121653359Y-97685598D01*
X121457789Y-97577638D01*
X121452920Y-97575914D01*
X121452916Y-97575912D01*
X121252087Y-97504795D01*
X121252083Y-97504794D01*
X121247212Y-97503069D01*
X121242119Y-97502162D01*
X121242116Y-97502161D01*
X121032373Y-97464800D01*
X121032367Y-97464799D01*
X121027284Y-97463894D01*
X120953452Y-97462992D01*
X120809081Y-97461228D01*
X120809079Y-97461228D01*
X120803911Y-97461165D01*
X120583091Y-97494955D01*
X120370756Y-97564357D01*
X120172607Y-97667507D01*
X120168474Y-97670610D01*
X120168471Y-97670612D01*
X119998100Y-97798530D01*
X119993965Y-97801635D01*
X119937537Y-97860684D01*
X119913283Y-97886064D01*
X119851759Y-97921494D01*
X119780846Y-97918037D01*
X119723060Y-97876791D01*
X119704207Y-97843243D01*
X119662767Y-97732703D01*
X119659615Y-97724295D01*
X119572261Y-97607739D01*
X119455705Y-97520385D01*
X119319316Y-97469255D01*
X119257134Y-97462500D01*
X117460866Y-97462500D01*
X117398684Y-97469255D01*
X117262295Y-97520385D01*
X117145739Y-97607739D01*
X117058385Y-97724295D01*
X117007255Y-97860684D01*
X117000500Y-97922866D01*
X117000500Y-99719134D01*
X117007255Y-99781316D01*
X117058385Y-99917705D01*
X117145739Y-100034261D01*
X117262295Y-100121615D01*
X117270704Y-100124767D01*
X117270705Y-100124768D01*
X117379451Y-100165535D01*
X117436216Y-100208176D01*
X117460916Y-100274738D01*
X117445709Y-100344087D01*
X117426316Y-100370568D01*
X117312819Y-100489336D01*
X117299629Y-100503138D01*
X117296720Y-100507403D01*
X117296714Y-100507411D01*
X117246272Y-100581356D01*
X117173743Y-100687680D01*
X117127416Y-100787483D01*
X117094916Y-100857500D01*
X117079688Y-100890305D01*
X117019989Y-101105570D01*
X116996251Y-101327695D01*
X116996548Y-101332848D01*
X116996548Y-101332851D01*
X117008812Y-101545547D01*
X117009110Y-101550715D01*
X117010247Y-101555761D01*
X117010248Y-101555767D01*
X117029761Y-101642348D01*
X117058222Y-101768639D01*
X117090723Y-101848680D01*
X117139582Y-101969005D01*
X117142266Y-101975616D01*
X117179610Y-102036556D01*
X117256291Y-102161688D01*
X117258987Y-102166088D01*
X117405250Y-102334938D01*
X117481846Y-102398529D01*
X117566481Y-102468794D01*
X117577126Y-102477632D01*
X117635793Y-102511914D01*
X117650445Y-102520476D01*
X117699169Y-102572114D01*
X117712240Y-102641897D01*
X117685509Y-102707669D01*
X117645055Y-102741027D01*
X117632607Y-102747507D01*
X117628474Y-102750610D01*
X117628471Y-102750612D01*
X117458100Y-102878530D01*
X117453965Y-102881635D01*
X117450393Y-102885373D01*
X117324790Y-103016809D01*
X117299629Y-103043138D01*
X117296720Y-103047403D01*
X117296714Y-103047411D01*
X117253716Y-103110444D01*
X117173743Y-103227680D01*
X117158535Y-103260444D01*
X117088059Y-103412272D01*
X117079688Y-103430305D01*
X117019989Y-103645570D01*
X116996251Y-103867695D01*
X116996548Y-103872848D01*
X116996548Y-103872851D01*
X117008812Y-104085547D01*
X117009110Y-104090715D01*
X117010247Y-104095761D01*
X117010248Y-104095767D01*
X117027846Y-104173852D01*
X117058222Y-104308639D01*
X117081060Y-104364882D01*
X117136805Y-104502166D01*
X117142266Y-104515616D01*
X117186846Y-104588364D01*
X117256291Y-104701688D01*
X117258987Y-104706088D01*
X117405250Y-104874938D01*
X117577126Y-105017632D01*
X117770000Y-105130338D01*
X117774825Y-105132180D01*
X117774826Y-105132181D01*
X117797850Y-105140973D01*
X117978692Y-105210030D01*
X117983760Y-105211061D01*
X117983763Y-105211062D01*
X118091017Y-105232883D01*
X118197597Y-105254567D01*
X118202772Y-105254757D01*
X118202774Y-105254757D01*
X118415673Y-105262564D01*
X118415677Y-105262564D01*
X118420837Y-105262753D01*
X118425957Y-105262097D01*
X118425959Y-105262097D01*
X118637288Y-105235025D01*
X118637289Y-105235025D01*
X118642416Y-105234368D01*
X118647366Y-105232883D01*
X118851429Y-105171661D01*
X118851434Y-105171659D01*
X118856384Y-105170174D01*
X119056994Y-105071896D01*
X119238860Y-104942173D01*
X119397096Y-104784489D01*
X119456594Y-104701689D01*
X119527453Y-104603077D01*
X119528776Y-104604028D01*
X119575645Y-104560857D01*
X119645580Y-104548625D01*
X119711026Y-104576144D01*
X119738875Y-104607994D01*
X119798987Y-104706088D01*
X119945250Y-104874938D01*
X120117126Y-105017632D01*
X120310000Y-105130338D01*
X120314825Y-105132180D01*
X120314826Y-105132181D01*
X120337850Y-105140973D01*
X120518692Y-105210030D01*
X120523760Y-105211061D01*
X120523763Y-105211062D01*
X120631017Y-105232883D01*
X120737597Y-105254567D01*
X120742772Y-105254757D01*
X120742774Y-105254757D01*
X120955673Y-105262564D01*
X120955677Y-105262564D01*
X120960837Y-105262753D01*
X120965957Y-105262097D01*
X120965959Y-105262097D01*
X121177288Y-105235025D01*
X121177289Y-105235025D01*
X121182416Y-105234368D01*
X121187366Y-105232883D01*
X121391429Y-105171661D01*
X121391434Y-105171659D01*
X121396384Y-105170174D01*
X121596994Y-105071896D01*
X121778860Y-104942173D01*
X121937096Y-104784489D01*
X121996594Y-104701689D01*
X122064433Y-104607280D01*
X122064434Y-104607279D01*
X122067453Y-104603077D01*
X122067553Y-104602875D01*
X122118721Y-104555759D01*
X122188658Y-104543538D01*
X122254100Y-104571068D01*
X122294269Y-104629607D01*
X122300500Y-104668740D01*
X122300500Y-115532105D01*
X122280498Y-115600226D01*
X122226842Y-115646719D01*
X122156568Y-115656823D01*
X122091988Y-115627329D01*
X122056869Y-115577259D01*
X122011716Y-115459632D01*
X122010532Y-115456547D01*
X122009034Y-115453607D01*
X121835561Y-115113147D01*
X121835557Y-115113140D01*
X121834062Y-115110206D01*
X121622357Y-114784207D01*
X121377734Y-114482124D01*
X121102876Y-114207266D01*
X120800793Y-113962643D01*
X120673127Y-113879736D01*
X120477564Y-113752736D01*
X120477561Y-113752734D01*
X120474795Y-113750938D01*
X120471861Y-113749443D01*
X120471854Y-113749439D01*
X120131393Y-113575966D01*
X120128453Y-113574468D01*
X119765562Y-113435167D01*
X119390099Y-113334562D01*
X119186207Y-113302268D01*
X119009424Y-113274268D01*
X119009416Y-113274267D01*
X119006176Y-113273754D01*
X118618000Y-113253411D01*
X118229824Y-113273754D01*
X118226584Y-113274267D01*
X118226576Y-113274268D01*
X118049793Y-113302268D01*
X117845901Y-113334562D01*
X117470438Y-113435167D01*
X117107547Y-113574468D01*
X117104607Y-113575966D01*
X116764147Y-113749439D01*
X116764140Y-113749443D01*
X116761206Y-113750938D01*
X116435207Y-113962643D01*
X116133124Y-114207266D01*
X115858266Y-114482124D01*
X115613643Y-114784207D01*
X115401938Y-115110206D01*
X115400443Y-115113140D01*
X115400439Y-115113147D01*
X115226966Y-115453607D01*
X115225468Y-115456547D01*
X115086167Y-115819438D01*
X114985562Y-116194901D01*
X114924754Y-116578824D01*
X114904411Y-116967000D01*
X114924754Y-117355176D01*
X114985562Y-117739099D01*
X115086167Y-118114562D01*
X115087352Y-118117650D01*
X115087353Y-118117652D01*
X115134918Y-118241562D01*
X115225468Y-118477453D01*
X115401938Y-118823794D01*
X115613643Y-119149793D01*
X115858266Y-119451876D01*
X116133124Y-119726734D01*
X116435207Y-119971357D01*
X116761205Y-120183062D01*
X116764139Y-120184557D01*
X116764146Y-120184561D01*
X116959764Y-120284233D01*
X117011379Y-120332981D01*
X117028445Y-120401896D01*
X117005544Y-120469098D01*
X116949947Y-120513250D01*
X116902561Y-120522500D01*
X30276038Y-120522500D01*
X30207917Y-120502498D01*
X30161424Y-120448842D01*
X30151320Y-120378568D01*
X30180814Y-120313988D01*
X30207414Y-120290827D01*
X30501029Y-120100152D01*
X30501030Y-120100152D01*
X30503793Y-120098357D01*
X30805876Y-119853734D01*
X31080734Y-119578876D01*
X31325357Y-119276793D01*
X31537062Y-118950794D01*
X31603271Y-118820853D01*
X31712034Y-118607393D01*
X31713532Y-118604453D01*
X31852833Y-118241562D01*
X31953438Y-117866099D01*
X32014246Y-117482176D01*
X32034589Y-117094000D01*
X32014246Y-116705824D01*
X31953438Y-116321901D01*
X31852833Y-115946438D01*
X31805308Y-115822630D01*
X31714716Y-115586632D01*
X31713532Y-115583547D01*
X31537062Y-115237206D01*
X31325357Y-114911207D01*
X31080734Y-114609124D01*
X30805876Y-114334266D01*
X30503793Y-114089643D01*
X30177795Y-113877938D01*
X30174861Y-113876443D01*
X30174854Y-113876439D01*
X29834393Y-113702966D01*
X29831453Y-113701468D01*
X29468562Y-113562167D01*
X29093099Y-113461562D01*
X28889207Y-113429268D01*
X28712424Y-113401268D01*
X28712416Y-113401267D01*
X28709176Y-113400754D01*
X28321000Y-113380411D01*
X27932824Y-113400754D01*
X27929584Y-113401267D01*
X27929576Y-113401268D01*
X27752793Y-113429268D01*
X27548901Y-113461562D01*
X27173438Y-113562167D01*
X26810547Y-113701468D01*
X26807607Y-113702966D01*
X26467147Y-113876439D01*
X26467140Y-113876443D01*
X26464206Y-113877938D01*
X26138207Y-114089643D01*
X25836124Y-114334266D01*
X25561266Y-114609124D01*
X25316643Y-114911207D01*
X25104938Y-115237206D01*
X24928468Y-115583547D01*
X24927284Y-115586632D01*
X24882131Y-115704259D01*
X24839045Y-115760687D01*
X24772292Y-115784864D01*
X24703065Y-115769113D01*
X24653343Y-115718435D01*
X24638500Y-115659105D01*
X24638500Y-113094654D01*
X35685618Y-113094654D01*
X35692673Y-113104627D01*
X35723679Y-113130551D01*
X35730598Y-113135579D01*
X35955272Y-113276515D01*
X35962807Y-113280556D01*
X36204520Y-113389694D01*
X36212551Y-113392680D01*
X36466832Y-113468002D01*
X36475184Y-113469869D01*
X36737340Y-113509984D01*
X36745874Y-113510700D01*
X37011045Y-113514867D01*
X37019596Y-113514418D01*
X37282883Y-113482557D01*
X37291284Y-113480955D01*
X37547824Y-113413653D01*
X37555926Y-113410926D01*
X37800949Y-113309434D01*
X37808617Y-113305628D01*
X38037598Y-113171822D01*
X38044679Y-113167009D01*
X38124655Y-113104301D01*
X38133125Y-113092442D01*
X38126608Y-113080818D01*
X36922812Y-111877022D01*
X36908868Y-111869408D01*
X36907035Y-111869539D01*
X36900420Y-111873790D01*
X35692910Y-113081300D01*
X35685618Y-113094654D01*
X24638500Y-113094654D01*
X24638500Y-111488204D01*
X34897665Y-111488204D01*
X34912932Y-111752969D01*
X34914005Y-111761470D01*
X34965065Y-112021722D01*
X34967276Y-112029974D01*
X35053184Y-112280894D01*
X35056499Y-112288779D01*
X35175664Y-112525713D01*
X35180020Y-112533079D01*
X35309347Y-112721250D01*
X35319601Y-112729594D01*
X35333342Y-112722448D01*
X36537978Y-111517812D01*
X36544356Y-111506132D01*
X37274408Y-111506132D01*
X37274539Y-111507965D01*
X37278790Y-111514580D01*
X38485730Y-112721520D01*
X38497939Y-112728187D01*
X38509439Y-112719497D01*
X38606831Y-112586913D01*
X38611418Y-112579685D01*
X38737962Y-112346621D01*
X38741530Y-112338827D01*
X38835271Y-112090750D01*
X38837748Y-112082544D01*
X38896954Y-111824038D01*
X38898294Y-111815577D01*
X38922031Y-111549616D01*
X38922277Y-111544677D01*
X38922666Y-111507485D01*
X38922523Y-111502519D01*
X38921255Y-111483918D01*
X44896917Y-111483918D01*
X44912682Y-111757320D01*
X44913507Y-111761525D01*
X44913508Y-111761533D01*
X44934698Y-111869539D01*
X44965405Y-112026053D01*
X44966792Y-112030103D01*
X44966793Y-112030108D01*
X44987605Y-112090895D01*
X45054112Y-112285144D01*
X45177160Y-112529799D01*
X45179586Y-112533328D01*
X45179589Y-112533334D01*
X45308741Y-112721250D01*
X45332274Y-112755490D01*
X45516582Y-112958043D01*
X45726675Y-113133707D01*
X45730316Y-113135991D01*
X45955024Y-113276951D01*
X45955028Y-113276953D01*
X45958664Y-113279234D01*
X46026544Y-113309883D01*
X46204345Y-113390164D01*
X46204349Y-113390166D01*
X46208257Y-113391930D01*
X46239782Y-113401268D01*
X46466723Y-113468491D01*
X46466727Y-113468492D01*
X46470836Y-113469709D01*
X46475070Y-113470357D01*
X46475075Y-113470358D01*
X46737298Y-113510483D01*
X46737300Y-113510483D01*
X46741540Y-113511132D01*
X46880912Y-113513322D01*
X47011071Y-113515367D01*
X47011077Y-113515367D01*
X47015362Y-113515434D01*
X47287235Y-113482534D01*
X47552127Y-113413041D01*
X47556087Y-113411401D01*
X47556092Y-113411399D01*
X47739527Y-113335417D01*
X47805136Y-113308241D01*
X48041582Y-113170073D01*
X48257089Y-113001094D01*
X48298809Y-112958043D01*
X48444686Y-112807509D01*
X48447669Y-112804431D01*
X48450202Y-112800983D01*
X48450206Y-112800978D01*
X48607257Y-112587178D01*
X48609795Y-112583723D01*
X48611841Y-112579955D01*
X48738418Y-112346830D01*
X48738419Y-112346828D01*
X48740468Y-112343054D01*
X48837269Y-112086877D01*
X48898407Y-111819933D01*
X48899824Y-111804065D01*
X48922531Y-111549627D01*
X48922532Y-111549616D01*
X48922751Y-111547161D01*
X48923193Y-111505000D01*
X48917804Y-111425944D01*
X48904859Y-111236055D01*
X48904858Y-111236049D01*
X48904567Y-111231778D01*
X48849032Y-110963612D01*
X48757617Y-110705465D01*
X48632013Y-110462112D01*
X48622040Y-110447921D01*
X48477008Y-110241562D01*
X48474545Y-110238057D01*
X48472634Y-110236000D01*
X68301496Y-110236000D01*
X68302186Y-110242565D01*
X68306230Y-110281037D01*
X68321458Y-110425928D01*
X68380473Y-110607556D01*
X68475960Y-110772944D01*
X68480378Y-110777851D01*
X68480379Y-110777852D01*
X68599325Y-110909955D01*
X68603747Y-110914866D01*
X68758248Y-111027118D01*
X68764276Y-111029802D01*
X68764278Y-111029803D01*
X68926681Y-111102109D01*
X68932712Y-111104794D01*
X68997824Y-111118634D01*
X69113056Y-111143128D01*
X69113061Y-111143128D01*
X69119513Y-111144500D01*
X69310487Y-111144500D01*
X69316939Y-111143128D01*
X69316944Y-111143128D01*
X69432176Y-111118634D01*
X69497288Y-111104794D01*
X69503319Y-111102109D01*
X69665722Y-111029803D01*
X69665724Y-111029802D01*
X69671752Y-111027118D01*
X69826253Y-110914866D01*
X69830675Y-110909955D01*
X69949621Y-110777852D01*
X69949622Y-110777851D01*
X69954040Y-110772944D01*
X70049527Y-110607556D01*
X70108542Y-110425928D01*
X70123771Y-110281037D01*
X70127814Y-110242565D01*
X70128504Y-110236000D01*
X70126679Y-110218633D01*
X70109232Y-110052635D01*
X70109232Y-110052633D01*
X70108542Y-110046072D01*
X70049527Y-109864444D01*
X69954040Y-109699056D01*
X69880863Y-109617785D01*
X69850147Y-109553779D01*
X69848500Y-109533476D01*
X69848500Y-104640555D01*
X69868502Y-104572434D01*
X69885405Y-104551459D01*
X70109381Y-104327484D01*
X70171693Y-104293459D01*
X70198476Y-104290580D01*
X70254367Y-104290580D01*
X70260819Y-104289208D01*
X70260824Y-104289208D01*
X70352627Y-104269694D01*
X70441168Y-104250874D01*
X70447199Y-104248189D01*
X70609602Y-104175883D01*
X70609604Y-104175882D01*
X70615632Y-104173198D01*
X70639788Y-104155648D01*
X70706481Y-104107192D01*
X70770133Y-104060946D01*
X70779861Y-104050142D01*
X70893501Y-103923932D01*
X70893502Y-103923931D01*
X70897920Y-103919024D01*
X70984561Y-103768958D01*
X70990103Y-103759359D01*
X70990104Y-103759358D01*
X70993407Y-103753636D01*
X71052422Y-103572008D01*
X71063019Y-103471188D01*
X71071694Y-103388645D01*
X71072384Y-103382080D01*
X71056156Y-103227680D01*
X71053112Y-103198715D01*
X71053112Y-103198713D01*
X71052422Y-103192152D01*
X70993407Y-103010524D01*
X70897920Y-102845136D01*
X70807864Y-102745118D01*
X70774555Y-102708125D01*
X70774554Y-102708124D01*
X70770133Y-102703214D01*
X70615632Y-102590962D01*
X70609604Y-102588278D01*
X70609602Y-102588277D01*
X70447199Y-102515971D01*
X70447198Y-102515971D01*
X70441168Y-102513286D01*
X70347768Y-102493433D01*
X70260824Y-102474952D01*
X70260819Y-102474952D01*
X70254367Y-102473580D01*
X70063393Y-102473580D01*
X70056941Y-102474952D01*
X70056936Y-102474952D01*
X69969992Y-102493433D01*
X69876592Y-102513286D01*
X69870562Y-102515971D01*
X69870561Y-102515971D01*
X69708158Y-102588277D01*
X69708156Y-102588278D01*
X69702128Y-102590962D01*
X69547627Y-102703214D01*
X69543206Y-102708124D01*
X69543205Y-102708125D01*
X69509897Y-102745118D01*
X69419840Y-102845136D01*
X69324353Y-103010524D01*
X69265338Y-103192152D01*
X69264648Y-103198713D01*
X69264648Y-103198715D01*
X69247973Y-103357372D01*
X69220960Y-103423029D01*
X69211759Y-103433297D01*
X69013055Y-103632000D01*
X68822742Y-103822313D01*
X68814463Y-103829847D01*
X68807982Y-103833960D01*
X68783920Y-103859584D01*
X68761357Y-103883611D01*
X68758602Y-103886453D01*
X68738865Y-103906190D01*
X68736385Y-103909387D01*
X68728682Y-103918407D01*
X68698414Y-103950639D01*
X68694595Y-103957585D01*
X68694593Y-103957588D01*
X68688652Y-103968394D01*
X68677801Y-103984913D01*
X68665386Y-104000919D01*
X68662241Y-104008188D01*
X68662238Y-104008192D01*
X68647826Y-104041497D01*
X68642609Y-104052147D01*
X68621305Y-104090900D01*
X68619334Y-104098575D01*
X68619334Y-104098576D01*
X68616267Y-104110522D01*
X68609863Y-104129226D01*
X68601819Y-104147815D01*
X68600580Y-104155638D01*
X68600577Y-104155648D01*
X68594901Y-104191484D01*
X68592495Y-104203104D01*
X68584056Y-104235973D01*
X68581500Y-104245930D01*
X68581500Y-104266184D01*
X68579949Y-104285894D01*
X68576780Y-104305903D01*
X68577526Y-104313795D01*
X68580941Y-104349921D01*
X68581500Y-104361779D01*
X68581500Y-109533476D01*
X68561498Y-109601597D01*
X68549142Y-109617779D01*
X68475960Y-109699056D01*
X68380473Y-109864444D01*
X68321458Y-110046072D01*
X68320768Y-110052633D01*
X68320768Y-110052635D01*
X68303321Y-110218633D01*
X68301496Y-110236000D01*
X48472634Y-110236000D01*
X48404466Y-110162643D01*
X48291046Y-110040588D01*
X48291043Y-110040585D01*
X48288125Y-110037445D01*
X48284810Y-110034731D01*
X48284806Y-110034728D01*
X48079523Y-109866706D01*
X48076205Y-109863990D01*
X47842704Y-109720901D01*
X47838768Y-109719173D01*
X47595873Y-109612549D01*
X47595869Y-109612548D01*
X47591945Y-109610825D01*
X47328566Y-109535800D01*
X47324324Y-109535196D01*
X47324318Y-109535195D01*
X47123834Y-109506662D01*
X47057443Y-109497213D01*
X46913589Y-109496460D01*
X46787877Y-109495802D01*
X46787871Y-109495802D01*
X46783591Y-109495780D01*
X46779347Y-109496339D01*
X46779343Y-109496339D01*
X46660302Y-109512011D01*
X46512078Y-109531525D01*
X46507938Y-109532658D01*
X46507936Y-109532658D01*
X46435008Y-109552609D01*
X46247928Y-109603788D01*
X46243980Y-109605472D01*
X45999982Y-109709546D01*
X45999978Y-109709548D01*
X45996030Y-109711232D01*
X45911450Y-109761852D01*
X45764725Y-109849664D01*
X45764721Y-109849667D01*
X45761043Y-109851868D01*
X45547318Y-110023094D01*
X45358808Y-110221742D01*
X45199002Y-110444136D01*
X45070857Y-110686161D01*
X45069385Y-110690184D01*
X45069383Y-110690188D01*
X44988959Y-110909955D01*
X44976743Y-110943337D01*
X44918404Y-111210907D01*
X44896917Y-111483918D01*
X38921255Y-111483918D01*
X38904362Y-111236123D01*
X38903201Y-111227649D01*
X38849419Y-110967944D01*
X38847120Y-110959709D01*
X38758588Y-110709705D01*
X38755191Y-110701854D01*
X38633550Y-110466178D01*
X38629122Y-110458866D01*
X38510031Y-110289417D01*
X38499509Y-110281037D01*
X38486121Y-110288089D01*
X37282022Y-111492188D01*
X37274408Y-111506132D01*
X36544356Y-111506132D01*
X36545592Y-111503868D01*
X36545461Y-111502035D01*
X36541210Y-111495420D01*
X35333814Y-110288024D01*
X35321804Y-110281466D01*
X35310064Y-110290434D01*
X35201935Y-110440911D01*
X35197418Y-110448196D01*
X35073325Y-110682567D01*
X35069839Y-110690395D01*
X34978700Y-110939446D01*
X34976311Y-110947670D01*
X34919812Y-111206795D01*
X34918563Y-111215250D01*
X34897754Y-111479653D01*
X34897665Y-111488204D01*
X24638500Y-111488204D01*
X24638500Y-109917500D01*
X35686584Y-109917500D01*
X35692980Y-109928770D01*
X36897188Y-111132978D01*
X36911132Y-111140592D01*
X36912965Y-111140461D01*
X36919580Y-111136210D01*
X38126604Y-109929186D01*
X38133795Y-109916017D01*
X38126473Y-109905780D01*
X38079233Y-109867115D01*
X38072261Y-109862160D01*
X37846122Y-109723582D01*
X37838552Y-109719624D01*
X37595704Y-109613022D01*
X37587644Y-109610120D01*
X37332592Y-109537467D01*
X37324214Y-109535685D01*
X37061656Y-109498318D01*
X37053111Y-109497691D01*
X36787908Y-109496302D01*
X36779374Y-109496839D01*
X36516433Y-109531456D01*
X36508035Y-109533149D01*
X36252238Y-109603127D01*
X36244143Y-109605946D01*
X36000199Y-109709997D01*
X35992577Y-109713881D01*
X35765013Y-109850075D01*
X35757981Y-109854962D01*
X35695053Y-109905377D01*
X35686584Y-109917500D01*
X24638500Y-109917500D01*
X24638500Y-106469093D01*
X24658502Y-106400972D01*
X24712158Y-106354479D01*
X24782432Y-106344375D01*
X24830335Y-106361660D01*
X25033121Y-106485927D01*
X25041915Y-106490408D01*
X25270242Y-106584984D01*
X25279627Y-106588033D01*
X25519940Y-106645728D01*
X25529687Y-106647271D01*
X25776070Y-106666662D01*
X25785930Y-106666662D01*
X26032313Y-106647271D01*
X26042060Y-106645728D01*
X26282373Y-106588033D01*
X26291758Y-106584984D01*
X26520085Y-106490408D01*
X26528879Y-106485927D01*
X26734928Y-106359660D01*
X26738968Y-106353471D01*
X29901884Y-106353471D01*
X29905570Y-106358740D01*
X30113121Y-106485927D01*
X30121915Y-106490408D01*
X30350242Y-106584984D01*
X30359627Y-106588033D01*
X30599940Y-106645728D01*
X30609687Y-106647271D01*
X30856070Y-106666662D01*
X30865930Y-106666662D01*
X31112313Y-106647271D01*
X31122060Y-106645728D01*
X31362373Y-106588033D01*
X31371758Y-106584984D01*
X31600085Y-106490408D01*
X31608879Y-106485927D01*
X31814928Y-106359660D01*
X31820190Y-106351599D01*
X31814183Y-106341393D01*
X30873812Y-105401022D01*
X30859868Y-105393408D01*
X30858035Y-105393539D01*
X30851420Y-105397790D01*
X29909276Y-106339934D01*
X29901884Y-106353471D01*
X26738968Y-106353471D01*
X26740190Y-106351599D01*
X26734183Y-106341393D01*
X25510885Y-105118095D01*
X25476859Y-105055783D01*
X25478694Y-105030132D01*
X26145408Y-105030132D01*
X26145539Y-105031965D01*
X26149790Y-105038580D01*
X27091934Y-105980724D01*
X27105471Y-105988116D01*
X27110740Y-105984430D01*
X27237927Y-105776879D01*
X27242408Y-105768085D01*
X27336984Y-105539758D01*
X27340033Y-105530373D01*
X27397728Y-105290060D01*
X27399271Y-105280313D01*
X27418662Y-105033930D01*
X29223338Y-105033930D01*
X29242729Y-105280313D01*
X29244272Y-105290060D01*
X29301967Y-105530373D01*
X29305016Y-105539758D01*
X29399592Y-105768085D01*
X29404073Y-105776879D01*
X29530340Y-105982928D01*
X29538401Y-105988190D01*
X29548607Y-105982183D01*
X30488978Y-105041812D01*
X30495356Y-105030132D01*
X31225408Y-105030132D01*
X31225539Y-105031965D01*
X31229790Y-105038580D01*
X32171934Y-105980724D01*
X32185471Y-105988116D01*
X32190740Y-105984430D01*
X32317927Y-105776879D01*
X32322408Y-105768085D01*
X32416984Y-105539758D01*
X32420033Y-105530373D01*
X32477728Y-105290060D01*
X32479271Y-105280313D01*
X32498662Y-105033930D01*
X32498662Y-105024070D01*
X32479271Y-104777687D01*
X32477728Y-104767940D01*
X32420033Y-104527627D01*
X32416984Y-104518242D01*
X32322408Y-104289915D01*
X32317927Y-104281121D01*
X32191660Y-104075072D01*
X32183599Y-104069810D01*
X32173393Y-104075817D01*
X31233022Y-105016188D01*
X31225408Y-105030132D01*
X30495356Y-105030132D01*
X30496592Y-105027868D01*
X30496461Y-105026035D01*
X30492210Y-105019420D01*
X29550066Y-104077276D01*
X29536529Y-104069884D01*
X29531260Y-104073570D01*
X29404073Y-104281121D01*
X29399592Y-104289915D01*
X29305016Y-104518242D01*
X29301967Y-104527627D01*
X29244272Y-104767940D01*
X29242729Y-104777687D01*
X29223338Y-105024070D01*
X29223338Y-105033930D01*
X27418662Y-105033930D01*
X27418662Y-105024070D01*
X27399271Y-104777687D01*
X27397728Y-104767940D01*
X27340033Y-104527627D01*
X27336984Y-104518242D01*
X27242408Y-104289915D01*
X27237927Y-104281121D01*
X27111660Y-104075072D01*
X27103599Y-104069810D01*
X27093393Y-104075817D01*
X26153022Y-105016188D01*
X26145408Y-105030132D01*
X25478694Y-105030132D01*
X25481924Y-104984968D01*
X25510885Y-104939905D01*
X26732724Y-103718066D01*
X26740116Y-103704529D01*
X26736430Y-103699260D01*
X26528879Y-103572073D01*
X26520085Y-103567592D01*
X26291758Y-103473016D01*
X26282373Y-103469967D01*
X26042060Y-103412272D01*
X26032313Y-103410729D01*
X25785930Y-103391338D01*
X25776070Y-103391338D01*
X25529687Y-103410729D01*
X25519940Y-103412272D01*
X25279627Y-103469967D01*
X25270242Y-103473016D01*
X25041915Y-103567592D01*
X25033121Y-103572073D01*
X24830335Y-103696340D01*
X24761801Y-103714878D01*
X24694124Y-103693421D01*
X24648792Y-103638782D01*
X24638500Y-103588907D01*
X24638500Y-102489000D01*
X26782758Y-102489000D01*
X26801696Y-102729634D01*
X26802850Y-102734441D01*
X26802851Y-102734447D01*
X26832551Y-102858155D01*
X26858045Y-102964343D01*
X26859938Y-102968914D01*
X26859939Y-102968916D01*
X26920595Y-103115352D01*
X26950416Y-103187347D01*
X26953002Y-103191567D01*
X26956977Y-103198054D01*
X27076536Y-103393156D01*
X27233299Y-103576701D01*
X27416844Y-103733464D01*
X27622653Y-103859584D01*
X27627223Y-103861477D01*
X27627227Y-103861479D01*
X27828528Y-103944860D01*
X27845657Y-103951955D01*
X27897623Y-103964431D01*
X28075553Y-104007149D01*
X28075559Y-104007150D01*
X28080366Y-104008304D01*
X28321000Y-104027242D01*
X28561634Y-104008304D01*
X28566441Y-104007150D01*
X28566447Y-104007149D01*
X28744377Y-103964431D01*
X28796343Y-103951955D01*
X28813472Y-103944860D01*
X29014773Y-103861479D01*
X29014777Y-103861477D01*
X29019347Y-103859584D01*
X29225156Y-103733464D01*
X29256843Y-103706401D01*
X29901810Y-103706401D01*
X29907817Y-103716607D01*
X30848188Y-104656978D01*
X30862132Y-104664592D01*
X30863965Y-104664461D01*
X30870580Y-104660210D01*
X31812724Y-103718066D01*
X31820116Y-103704529D01*
X31816430Y-103699260D01*
X31608879Y-103572073D01*
X31600085Y-103567592D01*
X31371758Y-103473016D01*
X31362373Y-103469967D01*
X31122060Y-103412272D01*
X31112313Y-103410729D01*
X30865930Y-103391338D01*
X30856070Y-103391338D01*
X30609687Y-103410729D01*
X30599940Y-103412272D01*
X30359627Y-103469967D01*
X30350242Y-103473016D01*
X30121915Y-103567592D01*
X30113121Y-103572073D01*
X29907072Y-103698340D01*
X29901810Y-103706401D01*
X29256843Y-103706401D01*
X29408701Y-103576701D01*
X29565464Y-103393156D01*
X29685023Y-103198054D01*
X29688998Y-103191567D01*
X29691584Y-103187347D01*
X29721406Y-103115352D01*
X29782061Y-102968916D01*
X29782062Y-102968914D01*
X29783955Y-102964343D01*
X29809449Y-102858155D01*
X29839149Y-102734447D01*
X29839150Y-102734441D01*
X29840304Y-102729634D01*
X29859242Y-102489000D01*
X29840304Y-102248366D01*
X29839150Y-102243559D01*
X29839149Y-102243553D01*
X29796048Y-102064028D01*
X29783955Y-102013657D01*
X29781871Y-102008625D01*
X29693479Y-101795227D01*
X29693477Y-101795223D01*
X29691584Y-101790653D01*
X29574752Y-101600000D01*
X59792496Y-101600000D01*
X59793186Y-101606565D01*
X59811383Y-101779697D01*
X59812458Y-101789928D01*
X59871473Y-101971556D01*
X59874776Y-101977278D01*
X59874777Y-101977279D01*
X59888377Y-102000835D01*
X59966960Y-102136944D01*
X59971378Y-102141851D01*
X59971379Y-102141852D01*
X60067285Y-102248366D01*
X60094747Y-102278866D01*
X60166546Y-102331031D01*
X60216832Y-102367566D01*
X60249248Y-102391118D01*
X60255276Y-102393802D01*
X60255278Y-102393803D01*
X60417681Y-102466109D01*
X60423712Y-102468794D01*
X60495580Y-102484070D01*
X60604056Y-102507128D01*
X60604061Y-102507128D01*
X60610513Y-102508500D01*
X60801487Y-102508500D01*
X60807939Y-102507128D01*
X60807944Y-102507128D01*
X60916420Y-102484070D01*
X60988288Y-102468794D01*
X60994319Y-102466109D01*
X61156722Y-102393803D01*
X61156724Y-102393802D01*
X61162752Y-102391118D01*
X61195169Y-102367566D01*
X61245454Y-102331031D01*
X61317253Y-102278866D01*
X61344715Y-102248366D01*
X61440621Y-102141852D01*
X61440622Y-102141851D01*
X61445040Y-102136944D01*
X61523623Y-102000835D01*
X61537223Y-101977279D01*
X61537224Y-101977278D01*
X61540527Y-101971556D01*
X61599542Y-101789928D01*
X61600618Y-101779697D01*
X61618814Y-101606565D01*
X61619504Y-101600000D01*
X61613781Y-101545547D01*
X61600232Y-101416635D01*
X61600232Y-101416633D01*
X61599542Y-101410072D01*
X61540527Y-101228444D01*
X61445040Y-101063056D01*
X61371863Y-100981785D01*
X61341147Y-100917779D01*
X61339500Y-100897476D01*
X61339500Y-94294070D01*
X61359502Y-94225949D01*
X61413158Y-94179456D01*
X61483432Y-94169352D01*
X61541065Y-94193244D01*
X61636295Y-94264615D01*
X61772684Y-94315745D01*
X61834866Y-94322500D01*
X63631134Y-94322500D01*
X63693316Y-94315745D01*
X63829705Y-94264615D01*
X63946261Y-94177261D01*
X64033615Y-94060705D01*
X64077798Y-93942848D01*
X64120440Y-93886084D01*
X64187001Y-93861384D01*
X64256350Y-93876592D01*
X64291017Y-93904580D01*
X64316218Y-93933673D01*
X64323580Y-93940883D01*
X64487434Y-94076916D01*
X64495881Y-94082831D01*
X64679756Y-94190279D01*
X64689042Y-94194729D01*
X64888001Y-94270703D01*
X64897899Y-94273579D01*
X65001250Y-94294606D01*
X65015299Y-94293410D01*
X65019000Y-94283065D01*
X65019000Y-91647102D01*
X65015082Y-91633758D01*
X65000806Y-91631771D01*
X64962324Y-91637660D01*
X64952288Y-91640051D01*
X64749868Y-91706212D01*
X64740359Y-91710209D01*
X64551463Y-91808542D01*
X64542738Y-91814036D01*
X64372433Y-91941905D01*
X64364726Y-91948748D01*
X64287478Y-92029584D01*
X64225954Y-92065014D01*
X64155042Y-92061557D01*
X64097255Y-92020311D01*
X64078402Y-91986763D01*
X64036767Y-91875703D01*
X64033615Y-91867295D01*
X63946261Y-91750739D01*
X63829705Y-91663385D01*
X63693316Y-91612255D01*
X63631134Y-91605500D01*
X62511899Y-91605500D01*
X62443778Y-91585498D01*
X62397285Y-91531842D01*
X62387181Y-91461568D01*
X62416675Y-91396988D01*
X62422804Y-91390405D01*
X73640804Y-80172405D01*
X73703116Y-80138379D01*
X73729899Y-80135500D01*
X74061606Y-80135500D01*
X74129727Y-80155502D01*
X74176220Y-80209158D01*
X74186324Y-80279432D01*
X74156830Y-80344012D01*
X74150701Y-80350595D01*
X66612947Y-87888348D01*
X66604661Y-87895888D01*
X66598182Y-87900000D01*
X66592757Y-87905777D01*
X66551557Y-87949651D01*
X66548802Y-87952493D01*
X66529065Y-87972230D01*
X66526585Y-87975427D01*
X66518882Y-87984447D01*
X66488614Y-88016679D01*
X66484795Y-88023625D01*
X66484793Y-88023628D01*
X66478852Y-88034434D01*
X66468001Y-88050953D01*
X66455586Y-88066959D01*
X66452441Y-88074228D01*
X66452438Y-88074232D01*
X66438026Y-88107537D01*
X66432809Y-88118187D01*
X66411505Y-88156940D01*
X66409534Y-88164615D01*
X66409534Y-88164616D01*
X66406467Y-88176562D01*
X66400063Y-88195266D01*
X66392019Y-88213855D01*
X66390780Y-88221678D01*
X66390777Y-88221688D01*
X66385101Y-88257524D01*
X66382695Y-88269144D01*
X66371700Y-88311970D01*
X66371700Y-88332224D01*
X66370149Y-88351934D01*
X66366980Y-88371943D01*
X66367726Y-88379835D01*
X66371141Y-88415961D01*
X66371700Y-88427819D01*
X66371700Y-91841116D01*
X66351698Y-91909237D01*
X66298042Y-91955730D01*
X66227768Y-91965834D01*
X66167608Y-91939998D01*
X66031139Y-91832222D01*
X66022552Y-91826517D01*
X65836117Y-91723599D01*
X65826705Y-91719369D01*
X65625959Y-91648280D01*
X65615988Y-91645646D01*
X65544837Y-91632972D01*
X65531540Y-91634432D01*
X65527000Y-91648989D01*
X65527000Y-94282517D01*
X65531064Y-94296359D01*
X65544478Y-94298393D01*
X65551184Y-94297534D01*
X65561262Y-94295392D01*
X65765255Y-94234191D01*
X65774842Y-94230433D01*
X65966095Y-94136739D01*
X65974945Y-94131464D01*
X66148328Y-94007792D01*
X66156195Y-94001143D01*
X66156763Y-94000577D01*
X66157048Y-94000422D01*
X66160146Y-93997804D01*
X66160687Y-93998444D01*
X66219136Y-93966663D01*
X66289942Y-93971854D01*
X66346702Y-94014502D01*
X66371395Y-94081066D01*
X66371700Y-94089831D01*
X66371700Y-101190845D01*
X66351698Y-101258966D01*
X66298042Y-101305459D01*
X66278428Y-101311935D01*
X66278447Y-101311994D01*
X66272171Y-101314033D01*
X66265712Y-101315406D01*
X66230903Y-101330904D01*
X66097278Y-101390397D01*
X66097276Y-101390398D01*
X66091248Y-101393082D01*
X66085907Y-101396962D01*
X66085906Y-101396963D01*
X66073568Y-101405927D01*
X65936747Y-101505334D01*
X65932326Y-101510244D01*
X65932325Y-101510245D01*
X65826213Y-101628095D01*
X65808960Y-101647256D01*
X65783595Y-101691189D01*
X65722964Y-101796206D01*
X65713473Y-101812644D01*
X65654458Y-101994272D01*
X65653768Y-102000833D01*
X65653768Y-102000835D01*
X65646704Y-102068045D01*
X65634496Y-102184200D01*
X65635186Y-102190765D01*
X65643930Y-102273955D01*
X65654458Y-102374128D01*
X65713473Y-102555756D01*
X65716776Y-102561478D01*
X65716777Y-102561479D01*
X65727508Y-102580065D01*
X65808960Y-102721144D01*
X65813378Y-102726051D01*
X65813379Y-102726052D01*
X65920603Y-102845136D01*
X65936747Y-102863066D01*
X66091248Y-102975318D01*
X66097276Y-102978002D01*
X66097278Y-102978003D01*
X66235181Y-103039401D01*
X66265712Y-103052994D01*
X66359113Y-103072847D01*
X66446056Y-103091328D01*
X66446061Y-103091328D01*
X66452513Y-103092700D01*
X66643487Y-103092700D01*
X66649939Y-103091328D01*
X66649944Y-103091328D01*
X66736887Y-103072847D01*
X66830288Y-103052994D01*
X66860819Y-103039401D01*
X66998722Y-102978003D01*
X66998724Y-102978002D01*
X67004752Y-102975318D01*
X67159253Y-102863066D01*
X67175397Y-102845136D01*
X67282621Y-102726052D01*
X67282622Y-102726051D01*
X67287040Y-102721144D01*
X67368492Y-102580065D01*
X67379223Y-102561479D01*
X67379224Y-102561478D01*
X67382527Y-102555756D01*
X67441542Y-102374128D01*
X67451555Y-102278866D01*
X67459165Y-102206456D01*
X67486178Y-102140800D01*
X67492625Y-102133374D01*
X67516358Y-102108101D01*
X67521786Y-102102321D01*
X67531546Y-102084568D01*
X67542399Y-102068045D01*
X67545652Y-102063851D01*
X67554813Y-102052041D01*
X67572376Y-102011457D01*
X67577583Y-102000827D01*
X67598895Y-101962060D01*
X67600866Y-101954383D01*
X67600868Y-101954378D01*
X67603932Y-101942442D01*
X67610338Y-101923730D01*
X67615234Y-101912417D01*
X67618381Y-101905145D01*
X67625297Y-101861481D01*
X67627704Y-101849860D01*
X67636728Y-101814711D01*
X67636728Y-101814710D01*
X67638700Y-101807030D01*
X67638700Y-101786769D01*
X67640251Y-101767058D01*
X67640800Y-101763596D01*
X67643419Y-101747057D01*
X67639259Y-101703046D01*
X67638700Y-101691189D01*
X67638700Y-94234000D01*
X73611996Y-94234000D01*
X73612686Y-94240565D01*
X73629955Y-94404866D01*
X73631958Y-94423928D01*
X73690973Y-94605556D01*
X73786460Y-94770944D01*
X73859637Y-94852215D01*
X73890353Y-94916221D01*
X73892000Y-94936524D01*
X73892000Y-103760233D01*
X73891473Y-103771416D01*
X73889798Y-103778909D01*
X73890047Y-103786835D01*
X73890047Y-103786836D01*
X73891938Y-103846986D01*
X73892000Y-103850945D01*
X73892000Y-103878856D01*
X73892497Y-103882790D01*
X73892497Y-103882791D01*
X73892505Y-103882856D01*
X73893438Y-103894693D01*
X73894827Y-103938889D01*
X73900478Y-103958339D01*
X73904487Y-103977700D01*
X73907026Y-103997797D01*
X73909945Y-104005168D01*
X73909945Y-104005170D01*
X73923304Y-104038912D01*
X73927149Y-104050142D01*
X73933800Y-104073034D01*
X73939482Y-104092593D01*
X73943515Y-104099412D01*
X73943517Y-104099417D01*
X73949793Y-104110028D01*
X73958488Y-104127776D01*
X73965948Y-104146617D01*
X73970610Y-104153033D01*
X73970610Y-104153034D01*
X73991936Y-104182387D01*
X73998452Y-104192307D01*
X74003687Y-104201158D01*
X74020958Y-104230362D01*
X74035279Y-104244683D01*
X74048119Y-104259716D01*
X74060028Y-104276107D01*
X74093256Y-104303596D01*
X74094105Y-104304298D01*
X74102884Y-104312288D01*
X81536878Y-111746282D01*
X81570904Y-111808594D01*
X81573092Y-111822203D01*
X81590458Y-111987428D01*
X81649473Y-112169056D01*
X81744960Y-112334444D01*
X81872747Y-112476366D01*
X81971843Y-112548364D01*
X82020511Y-112583723D01*
X82027248Y-112588618D01*
X82033276Y-112591302D01*
X82033278Y-112591303D01*
X82195681Y-112663609D01*
X82201712Y-112666294D01*
X82295112Y-112686147D01*
X82382056Y-112704628D01*
X82382061Y-112704628D01*
X82388513Y-112706000D01*
X82579487Y-112706000D01*
X82585939Y-112704628D01*
X82585944Y-112704628D01*
X82672888Y-112686147D01*
X82766288Y-112666294D01*
X82772319Y-112663609D01*
X82934722Y-112591303D01*
X82934724Y-112591302D01*
X82940752Y-112588618D01*
X82947490Y-112583723D01*
X82996157Y-112548364D01*
X83095253Y-112476366D01*
X83223040Y-112334444D01*
X83318527Y-112169056D01*
X83377542Y-111987428D01*
X83389933Y-111869539D01*
X83396814Y-111804065D01*
X83397504Y-111797500D01*
X83377542Y-111607572D01*
X83318527Y-111425944D01*
X83223040Y-111260556D01*
X83201041Y-111236123D01*
X83099675Y-111123545D01*
X83099674Y-111123544D01*
X83095253Y-111118634D01*
X82940752Y-111006382D01*
X82934724Y-111003698D01*
X82934722Y-111003697D01*
X82772319Y-110931391D01*
X82772318Y-110931391D01*
X82766288Y-110928706D01*
X82672888Y-110908853D01*
X82585944Y-110890372D01*
X82585939Y-110890372D01*
X82579487Y-110889000D01*
X82523594Y-110889000D01*
X82455473Y-110868998D01*
X82434499Y-110852095D01*
X75195905Y-103613500D01*
X75161879Y-103551188D01*
X75159000Y-103524405D01*
X75159000Y-94936524D01*
X75179002Y-94868403D01*
X75191358Y-94852221D01*
X75264540Y-94770944D01*
X75360027Y-94605556D01*
X75419042Y-94423928D01*
X75421046Y-94404866D01*
X75438314Y-94240565D01*
X75439004Y-94234000D01*
X77445496Y-94234000D01*
X77446186Y-94240565D01*
X77463455Y-94404866D01*
X77465458Y-94423928D01*
X77524473Y-94605556D01*
X77619960Y-94770944D01*
X77693137Y-94852215D01*
X77723853Y-94916221D01*
X77725500Y-94936524D01*
X77725500Y-100462733D01*
X77724973Y-100473916D01*
X77723298Y-100481409D01*
X77723547Y-100489335D01*
X77723547Y-100489336D01*
X77725438Y-100549486D01*
X77725500Y-100553445D01*
X77725500Y-100581356D01*
X77725997Y-100585290D01*
X77725997Y-100585291D01*
X77726005Y-100585356D01*
X77726938Y-100597193D01*
X77728327Y-100641389D01*
X77733978Y-100660839D01*
X77737987Y-100680200D01*
X77740526Y-100700297D01*
X77743445Y-100707668D01*
X77743445Y-100707670D01*
X77756804Y-100741412D01*
X77760649Y-100752642D01*
X77772982Y-100795093D01*
X77777015Y-100801912D01*
X77777017Y-100801917D01*
X77783293Y-100812528D01*
X77791988Y-100830276D01*
X77799448Y-100849117D01*
X77804110Y-100855533D01*
X77804110Y-100855534D01*
X77825436Y-100884887D01*
X77831952Y-100894807D01*
X77847858Y-100921702D01*
X77854458Y-100932862D01*
X77868779Y-100947183D01*
X77881619Y-100962216D01*
X77893528Y-100978607D01*
X77899634Y-100983658D01*
X77927605Y-101006798D01*
X77936384Y-101014788D01*
X79443878Y-102522283D01*
X79477904Y-102584595D01*
X79480093Y-102598206D01*
X79483453Y-102630174D01*
X79495785Y-102747507D01*
X79497458Y-102763428D01*
X79556473Y-102945056D01*
X79559776Y-102950778D01*
X79559777Y-102950779D01*
X79571704Y-102971437D01*
X79651960Y-103110444D01*
X79779747Y-103252366D01*
X79934248Y-103364618D01*
X79940276Y-103367302D01*
X79940278Y-103367303D01*
X80102681Y-103439609D01*
X80108712Y-103442294D01*
X80200019Y-103461702D01*
X80289056Y-103480628D01*
X80289061Y-103480628D01*
X80295513Y-103482000D01*
X80486487Y-103482000D01*
X80492939Y-103480628D01*
X80492944Y-103480628D01*
X80581981Y-103461702D01*
X80673288Y-103442294D01*
X80679319Y-103439609D01*
X80841722Y-103367303D01*
X80841724Y-103367302D01*
X80847752Y-103364618D01*
X81002253Y-103252366D01*
X81130040Y-103110444D01*
X81210296Y-102971437D01*
X81222223Y-102950779D01*
X81222224Y-102950778D01*
X81225527Y-102945056D01*
X81284542Y-102763428D01*
X81286216Y-102747507D01*
X81303814Y-102580065D01*
X81304504Y-102573500D01*
X81302639Y-102555756D01*
X81285232Y-102390135D01*
X81285232Y-102390133D01*
X81284542Y-102383572D01*
X81225527Y-102201944D01*
X81215283Y-102184200D01*
X81171347Y-102108101D01*
X81130040Y-102036556D01*
X81113755Y-102018469D01*
X81006675Y-101899545D01*
X81006674Y-101899544D01*
X81002253Y-101894634D01*
X80847752Y-101782382D01*
X80841724Y-101779698D01*
X80841722Y-101779697D01*
X80679319Y-101707391D01*
X80679318Y-101707391D01*
X80673288Y-101704706D01*
X80579888Y-101684853D01*
X80492944Y-101666372D01*
X80492939Y-101666372D01*
X80486487Y-101665000D01*
X80430594Y-101665000D01*
X80362473Y-101644998D01*
X80341499Y-101628095D01*
X79029405Y-100316000D01*
X78995379Y-100253688D01*
X78992500Y-100226905D01*
X78992500Y-95250000D01*
X81636496Y-95250000D01*
X81656458Y-95439928D01*
X81715473Y-95621556D01*
X81810960Y-95786944D01*
X81884137Y-95868215D01*
X81914853Y-95932221D01*
X81916500Y-95952524D01*
X81916500Y-104665233D01*
X81915973Y-104676416D01*
X81914298Y-104683909D01*
X81914547Y-104691835D01*
X81914547Y-104691836D01*
X81916438Y-104751986D01*
X81916500Y-104755945D01*
X81916500Y-104783856D01*
X81916997Y-104787790D01*
X81916997Y-104787791D01*
X81917005Y-104787856D01*
X81917938Y-104799693D01*
X81919327Y-104843889D01*
X81924978Y-104863339D01*
X81928987Y-104882700D01*
X81931526Y-104902797D01*
X81934445Y-104910168D01*
X81934445Y-104910170D01*
X81947804Y-104943912D01*
X81951649Y-104955142D01*
X81956731Y-104972635D01*
X81963982Y-104997593D01*
X81968015Y-105004412D01*
X81968017Y-105004417D01*
X81974293Y-105015028D01*
X81982988Y-105032776D01*
X81990448Y-105051617D01*
X81995110Y-105058033D01*
X81995110Y-105058034D01*
X82016436Y-105087387D01*
X82022952Y-105097307D01*
X82045458Y-105135362D01*
X82059779Y-105149683D01*
X82072619Y-105164716D01*
X82084528Y-105181107D01*
X82090634Y-105186158D01*
X82118605Y-105209298D01*
X82127384Y-105217288D01*
X83218878Y-106308783D01*
X83252904Y-106371095D01*
X83255093Y-106384706D01*
X83272458Y-106549928D01*
X83331473Y-106731556D01*
X83426960Y-106896944D01*
X83554747Y-107038866D01*
X83709248Y-107151118D01*
X83715276Y-107153802D01*
X83715278Y-107153803D01*
X83877681Y-107226109D01*
X83883712Y-107228794D01*
X83977112Y-107248647D01*
X84064056Y-107267128D01*
X84064061Y-107267128D01*
X84070513Y-107268500D01*
X84261487Y-107268500D01*
X84267939Y-107267128D01*
X84267944Y-107267128D01*
X84354888Y-107248647D01*
X84448288Y-107228794D01*
X84454319Y-107226109D01*
X84616722Y-107153803D01*
X84616724Y-107153802D01*
X84622752Y-107151118D01*
X84777253Y-107038866D01*
X84905040Y-106896944D01*
X85000527Y-106731556D01*
X85059542Y-106549928D01*
X85079504Y-106360000D01*
X85074121Y-106308783D01*
X85060232Y-106176635D01*
X85060232Y-106176633D01*
X85059542Y-106170072D01*
X85000527Y-105988444D01*
X84905040Y-105823056D01*
X84863595Y-105777026D01*
X84781675Y-105686045D01*
X84781674Y-105686044D01*
X84777253Y-105681134D01*
X84622752Y-105568882D01*
X84616724Y-105566198D01*
X84616722Y-105566197D01*
X84454319Y-105493891D01*
X84454318Y-105493891D01*
X84448288Y-105491206D01*
X84354888Y-105471353D01*
X84267944Y-105452872D01*
X84267939Y-105452872D01*
X84261487Y-105451500D01*
X84205595Y-105451500D01*
X84137474Y-105431498D01*
X84116499Y-105414595D01*
X83220404Y-104518499D01*
X83186379Y-104456187D01*
X83183500Y-104429404D01*
X83183500Y-99822000D01*
X84684496Y-99822000D01*
X84685186Y-99828565D01*
X84702353Y-99991896D01*
X84704458Y-100011928D01*
X84763473Y-100193556D01*
X84766776Y-100199278D01*
X84766777Y-100199279D01*
X84786329Y-100233143D01*
X84858960Y-100358944D01*
X84932137Y-100440215D01*
X84962853Y-100504221D01*
X84964500Y-100524524D01*
X84964500Y-103680233D01*
X84963973Y-103691416D01*
X84962298Y-103698909D01*
X84962547Y-103706835D01*
X84962547Y-103706836D01*
X84964438Y-103766986D01*
X84964500Y-103770945D01*
X84964500Y-103798856D01*
X84964997Y-103802790D01*
X84964997Y-103802791D01*
X84965005Y-103802856D01*
X84965938Y-103814693D01*
X84967327Y-103858889D01*
X84972978Y-103878339D01*
X84976987Y-103897700D01*
X84978463Y-103909379D01*
X84979526Y-103917797D01*
X84982445Y-103925168D01*
X84982445Y-103925170D01*
X84995804Y-103958912D01*
X84999649Y-103970142D01*
X85009771Y-104004983D01*
X85011982Y-104012593D01*
X85016015Y-104019412D01*
X85016017Y-104019417D01*
X85022293Y-104030028D01*
X85030988Y-104047776D01*
X85038448Y-104066617D01*
X85043110Y-104073033D01*
X85043110Y-104073034D01*
X85064436Y-104102387D01*
X85070952Y-104112307D01*
X85093458Y-104150362D01*
X85107779Y-104164683D01*
X85120619Y-104179716D01*
X85132528Y-104196107D01*
X85138634Y-104201158D01*
X85166605Y-104224298D01*
X85175384Y-104232288D01*
X90111878Y-109168782D01*
X90145904Y-109231094D01*
X90148092Y-109244703D01*
X90165458Y-109409928D01*
X90224473Y-109591556D01*
X90227776Y-109597278D01*
X90227777Y-109597279D01*
X90261686Y-109656010D01*
X90319960Y-109756944D01*
X90324378Y-109761851D01*
X90324379Y-109761852D01*
X90416753Y-109864444D01*
X90447747Y-109898866D01*
X90602248Y-110011118D01*
X90608276Y-110013802D01*
X90608278Y-110013803D01*
X90680756Y-110046072D01*
X90776712Y-110088794D01*
X90870113Y-110108647D01*
X90957056Y-110127128D01*
X90957061Y-110127128D01*
X90963513Y-110128500D01*
X91154487Y-110128500D01*
X91160939Y-110127128D01*
X91160944Y-110127128D01*
X91247887Y-110108647D01*
X91341288Y-110088794D01*
X91437244Y-110046072D01*
X91509722Y-110013803D01*
X91509724Y-110013802D01*
X91515752Y-110011118D01*
X91670253Y-109898866D01*
X91701247Y-109864444D01*
X91793621Y-109761852D01*
X91793622Y-109761851D01*
X91798040Y-109756944D01*
X91856314Y-109656010D01*
X91890223Y-109597279D01*
X91890224Y-109597278D01*
X91893527Y-109591556D01*
X91952542Y-109409928D01*
X91972504Y-109220000D01*
X91952542Y-109030072D01*
X91893527Y-108848444D01*
X91798040Y-108683056D01*
X91670253Y-108541134D01*
X91515752Y-108428882D01*
X91509724Y-108426198D01*
X91509722Y-108426197D01*
X91347319Y-108353891D01*
X91347318Y-108353891D01*
X91341288Y-108351206D01*
X91247888Y-108331353D01*
X91160944Y-108312872D01*
X91160939Y-108312872D01*
X91154487Y-108311500D01*
X91098595Y-108311500D01*
X91030474Y-108291498D01*
X91009500Y-108274595D01*
X88946673Y-106211768D01*
X88912647Y-106149456D01*
X88917712Y-106078641D01*
X88960259Y-106021805D01*
X89026779Y-105996994D01*
X89087017Y-106007566D01*
X89118999Y-106021805D01*
X89125712Y-106024794D01*
X89219113Y-106044647D01*
X89306056Y-106063128D01*
X89306061Y-106063128D01*
X89312513Y-106064500D01*
X89503487Y-106064500D01*
X89509939Y-106063128D01*
X89509944Y-106063128D01*
X89596887Y-106044647D01*
X89690288Y-106024794D01*
X89696319Y-106022109D01*
X89858722Y-105949803D01*
X89858724Y-105949802D01*
X89864752Y-105947118D01*
X90019253Y-105834866D01*
X90095941Y-105749695D01*
X90142621Y-105697852D01*
X90142622Y-105697851D01*
X90147040Y-105692944D01*
X90242527Y-105527556D01*
X90301542Y-105345928D01*
X90315063Y-105217288D01*
X90320814Y-105162565D01*
X90321504Y-105156000D01*
X90312904Y-105074173D01*
X90302232Y-104972635D01*
X90302232Y-104972633D01*
X90301542Y-104966072D01*
X90242527Y-104784444D01*
X90232999Y-104767940D01*
X90173330Y-104664592D01*
X90147040Y-104619056D01*
X90133350Y-104603851D01*
X90023675Y-104482045D01*
X90023674Y-104482044D01*
X90019253Y-104477134D01*
X89864752Y-104364882D01*
X89858724Y-104362198D01*
X89858722Y-104362197D01*
X89696319Y-104289891D01*
X89696318Y-104289891D01*
X89690288Y-104287206D01*
X89591388Y-104266184D01*
X89509944Y-104248872D01*
X89509939Y-104248872D01*
X89503487Y-104247500D01*
X89312513Y-104247500D01*
X89306061Y-104248872D01*
X89306056Y-104248872D01*
X89224612Y-104266184D01*
X89125712Y-104287206D01*
X89119682Y-104289891D01*
X89119681Y-104289891D01*
X88979528Y-104352291D01*
X88909161Y-104361725D01*
X88844864Y-104331618D01*
X88839184Y-104326279D01*
X88046405Y-103533500D01*
X88012379Y-103471188D01*
X88009500Y-103444405D01*
X88009500Y-100550624D01*
X88029502Y-100482503D01*
X88041864Y-100466314D01*
X88134121Y-100363852D01*
X88134125Y-100363847D01*
X88138540Y-100358944D01*
X88211171Y-100233143D01*
X88230723Y-100199279D01*
X88230724Y-100199278D01*
X88234027Y-100193556D01*
X88293042Y-100011928D01*
X88295148Y-99991896D01*
X88312314Y-99828565D01*
X88313004Y-99822000D01*
X88302550Y-99722531D01*
X88293732Y-99638635D01*
X88293732Y-99638633D01*
X88293042Y-99632072D01*
X88234027Y-99450444D01*
X88227175Y-99438575D01*
X88141841Y-99290774D01*
X88138540Y-99285056D01*
X88010753Y-99143134D01*
X87911657Y-99071136D01*
X87861594Y-99034763D01*
X87861593Y-99034762D01*
X87856252Y-99030882D01*
X87850224Y-99028198D01*
X87850222Y-99028197D01*
X87687819Y-98955891D01*
X87687818Y-98955891D01*
X87681788Y-98953206D01*
X87588387Y-98933353D01*
X87501444Y-98914872D01*
X87501439Y-98914872D01*
X87494987Y-98913500D01*
X87304013Y-98913500D01*
X87297561Y-98914872D01*
X87297556Y-98914872D01*
X87210613Y-98933353D01*
X87117212Y-98953206D01*
X87111182Y-98955891D01*
X87111181Y-98955891D01*
X86948778Y-99028197D01*
X86948776Y-99028198D01*
X86942748Y-99030882D01*
X86937407Y-99034762D01*
X86937406Y-99034763D01*
X86887343Y-99071136D01*
X86788247Y-99143134D01*
X86660460Y-99285056D01*
X86657159Y-99290774D01*
X86607869Y-99376146D01*
X86556486Y-99425139D01*
X86486773Y-99438575D01*
X86420862Y-99412189D01*
X86389631Y-99376146D01*
X86340341Y-99290774D01*
X86337040Y-99285056D01*
X86209253Y-99143134D01*
X86110157Y-99071136D01*
X86060094Y-99034763D01*
X86060093Y-99034762D01*
X86054752Y-99030882D01*
X86048724Y-99028198D01*
X86048722Y-99028197D01*
X85886319Y-98955891D01*
X85886318Y-98955891D01*
X85880288Y-98953206D01*
X85786887Y-98933353D01*
X85699944Y-98914872D01*
X85699939Y-98914872D01*
X85693487Y-98913500D01*
X85502513Y-98913500D01*
X85496061Y-98914872D01*
X85496056Y-98914872D01*
X85409113Y-98933353D01*
X85315712Y-98953206D01*
X85309682Y-98955891D01*
X85309681Y-98955891D01*
X85147278Y-99028197D01*
X85147276Y-99028198D01*
X85141248Y-99030882D01*
X85135907Y-99034762D01*
X85135906Y-99034763D01*
X85085843Y-99071136D01*
X84986747Y-99143134D01*
X84858960Y-99285056D01*
X84855659Y-99290774D01*
X84770326Y-99438575D01*
X84763473Y-99450444D01*
X84704458Y-99632072D01*
X84703768Y-99638633D01*
X84703768Y-99638635D01*
X84694950Y-99722531D01*
X84684496Y-99822000D01*
X83183500Y-99822000D01*
X83183500Y-96647000D01*
X92073996Y-96647000D01*
X92074686Y-96653565D01*
X92090180Y-96800978D01*
X92093958Y-96836928D01*
X92152973Y-97018556D01*
X92248460Y-97183944D01*
X92252878Y-97188851D01*
X92252879Y-97188852D01*
X92361856Y-97309883D01*
X92376247Y-97325866D01*
X92464098Y-97389694D01*
X92496233Y-97413041D01*
X92530748Y-97438118D01*
X92536776Y-97440802D01*
X92536778Y-97440803D01*
X92694741Y-97511132D01*
X92705212Y-97515794D01*
X92798612Y-97535647D01*
X92885556Y-97554128D01*
X92885561Y-97554128D01*
X92892013Y-97555500D01*
X92947906Y-97555500D01*
X93016027Y-97575502D01*
X93037001Y-97592405D01*
X96738595Y-101293999D01*
X96772621Y-101356311D01*
X96775500Y-101383094D01*
X96775500Y-102929476D01*
X96755498Y-102997597D01*
X96743142Y-103013779D01*
X96669960Y-103095056D01*
X96617526Y-103185874D01*
X96578314Y-103253792D01*
X96574473Y-103260444D01*
X96515458Y-103442072D01*
X96514768Y-103448633D01*
X96514768Y-103448635D01*
X96500971Y-103579909D01*
X96495496Y-103632000D01*
X96496186Y-103638565D01*
X96513447Y-103802791D01*
X96515458Y-103821928D01*
X96574473Y-104003556D01*
X96577776Y-104009278D01*
X96577777Y-104009279D01*
X96583630Y-104019417D01*
X96669960Y-104168944D01*
X96674378Y-104173851D01*
X96674379Y-104173852D01*
X96770998Y-104281158D01*
X96797747Y-104310866D01*
X96952248Y-104423118D01*
X96958276Y-104425802D01*
X96958278Y-104425803D01*
X97120681Y-104498109D01*
X97126712Y-104500794D01*
X97196444Y-104515616D01*
X97307056Y-104539128D01*
X97307061Y-104539128D01*
X97313513Y-104540500D01*
X97504487Y-104540500D01*
X97510939Y-104539128D01*
X97510944Y-104539128D01*
X97621556Y-104515616D01*
X97691288Y-104500794D01*
X97697319Y-104498109D01*
X97859722Y-104425803D01*
X97859724Y-104425802D01*
X97865752Y-104423118D01*
X97972439Y-104345605D01*
X98039307Y-104321747D01*
X98108458Y-104337827D01*
X98157938Y-104388741D01*
X98172500Y-104447541D01*
X98172500Y-104453476D01*
X98152498Y-104521597D01*
X98140142Y-104537779D01*
X98066960Y-104619056D01*
X98040670Y-104664592D01*
X97981002Y-104767940D01*
X97971473Y-104784444D01*
X97912458Y-104966072D01*
X97911768Y-104972633D01*
X97911768Y-104972635D01*
X97901096Y-105074173D01*
X97892496Y-105156000D01*
X97893186Y-105162565D01*
X97898938Y-105217288D01*
X97912458Y-105345928D01*
X97971473Y-105527556D01*
X98066960Y-105692944D01*
X98071378Y-105697851D01*
X98071379Y-105697852D01*
X98118059Y-105749695D01*
X98194747Y-105834866D01*
X98349248Y-105947118D01*
X98355276Y-105949802D01*
X98355278Y-105949803D01*
X98517681Y-106022109D01*
X98523712Y-106024794D01*
X98617113Y-106044647D01*
X98704056Y-106063128D01*
X98704061Y-106063128D01*
X98710513Y-106064500D01*
X98901487Y-106064500D01*
X98907939Y-106063128D01*
X98907944Y-106063128D01*
X98994887Y-106044647D01*
X99088288Y-106024794D01*
X99094319Y-106022109D01*
X99256722Y-105949803D01*
X99256724Y-105949802D01*
X99262752Y-105947118D01*
X99417253Y-105834866D01*
X99493941Y-105749695D01*
X99540621Y-105697852D01*
X99540622Y-105697851D01*
X99545040Y-105692944D01*
X99640527Y-105527556D01*
X99699542Y-105345928D01*
X99713063Y-105217288D01*
X99718814Y-105162565D01*
X99719504Y-105156000D01*
X99710904Y-105074173D01*
X99700232Y-104972635D01*
X99700232Y-104972633D01*
X99699542Y-104966072D01*
X99640527Y-104784444D01*
X99630999Y-104767940D01*
X99571330Y-104664592D01*
X99545040Y-104619056D01*
X99471863Y-104537785D01*
X99441147Y-104473779D01*
X99439500Y-104453476D01*
X99439500Y-100983500D01*
X99459502Y-100915379D01*
X99513158Y-100868886D01*
X99565500Y-100857500D01*
X99602487Y-100857500D01*
X99608939Y-100856128D01*
X99608944Y-100856128D01*
X99695888Y-100837647D01*
X99789288Y-100817794D01*
X99795319Y-100815109D01*
X99957722Y-100742803D01*
X99957724Y-100742802D01*
X99963752Y-100740118D01*
X99999987Y-100713792D01*
X100035926Y-100687680D01*
X100118253Y-100627866D01*
X100160131Y-100581356D01*
X100241621Y-100490852D01*
X100241622Y-100490851D01*
X100246040Y-100485944D01*
X100312409Y-100370989D01*
X100338223Y-100326279D01*
X100338224Y-100326278D01*
X100341527Y-100320556D01*
X100400542Y-100138928D01*
X100402031Y-100124767D01*
X100419814Y-99955565D01*
X100420504Y-99949000D01*
X100400542Y-99759072D01*
X100341527Y-99577444D01*
X100246040Y-99412056D01*
X100118253Y-99270134D01*
X99963752Y-99157882D01*
X99957724Y-99155198D01*
X99957722Y-99155197D01*
X99795319Y-99082891D01*
X99795318Y-99082891D01*
X99789288Y-99080206D01*
X99695888Y-99060353D01*
X99608944Y-99041872D01*
X99608939Y-99041872D01*
X99602487Y-99040500D01*
X99411513Y-99040500D01*
X99405061Y-99041872D01*
X99405056Y-99041872D01*
X99318112Y-99060353D01*
X99224712Y-99080206D01*
X99218682Y-99082891D01*
X99218681Y-99082891D01*
X99056278Y-99155197D01*
X99056276Y-99155198D01*
X99050248Y-99157882D01*
X98895747Y-99270134D01*
X98767960Y-99412056D01*
X98672473Y-99577444D01*
X98613458Y-99759072D01*
X98612768Y-99765633D01*
X98612768Y-99765635D01*
X98596093Y-99924292D01*
X98569080Y-99989949D01*
X98559878Y-100000218D01*
X98413742Y-100146353D01*
X98405463Y-100153887D01*
X98398982Y-100158000D01*
X98371495Y-100187271D01*
X98352357Y-100207651D01*
X98349602Y-100210493D01*
X98329865Y-100230230D01*
X98327385Y-100233427D01*
X98319682Y-100242447D01*
X98289414Y-100274679D01*
X98285595Y-100281625D01*
X98285593Y-100281628D01*
X98279652Y-100292434D01*
X98268801Y-100308953D01*
X98256386Y-100324959D01*
X98253241Y-100332228D01*
X98253238Y-100332232D01*
X98238826Y-100365537D01*
X98233609Y-100376187D01*
X98212305Y-100414940D01*
X98210334Y-100422615D01*
X98210334Y-100422616D01*
X98207267Y-100434562D01*
X98200863Y-100453266D01*
X98192819Y-100471855D01*
X98191580Y-100479678D01*
X98191577Y-100479688D01*
X98185901Y-100515524D01*
X98183495Y-100527144D01*
X98177759Y-100549486D01*
X98172500Y-100569970D01*
X98172500Y-100590224D01*
X98170949Y-100609934D01*
X98167780Y-100629943D01*
X98168526Y-100637835D01*
X98168277Y-100645758D01*
X98166644Y-100645707D01*
X98154911Y-100706297D01*
X98105872Y-100757636D01*
X98036862Y-100774313D01*
X97969791Y-100751033D01*
X97934516Y-100712601D01*
X97917578Y-100683960D01*
X97917574Y-100683955D01*
X97913542Y-100677137D01*
X97899218Y-100662813D01*
X97886376Y-100647778D01*
X97874472Y-100631393D01*
X97840406Y-100603211D01*
X97831627Y-100595222D01*
X93934622Y-96698217D01*
X93900596Y-96635905D01*
X93898407Y-96622292D01*
X93894717Y-96587178D01*
X93881042Y-96457072D01*
X93822027Y-96275444D01*
X93726540Y-96110056D01*
X93709288Y-96090895D01*
X93603175Y-95973045D01*
X93603174Y-95973044D01*
X93598753Y-95968134D01*
X93444252Y-95855882D01*
X93438224Y-95853198D01*
X93438222Y-95853197D01*
X93275819Y-95780891D01*
X93275818Y-95780891D01*
X93269788Y-95778206D01*
X93171528Y-95757320D01*
X93089444Y-95739872D01*
X93089439Y-95739872D01*
X93082987Y-95738500D01*
X92892013Y-95738500D01*
X92885561Y-95739872D01*
X92885556Y-95739872D01*
X92803472Y-95757320D01*
X92705212Y-95778206D01*
X92699182Y-95780891D01*
X92699181Y-95780891D01*
X92536778Y-95853197D01*
X92536776Y-95853198D01*
X92530748Y-95855882D01*
X92376247Y-95968134D01*
X92371826Y-95973044D01*
X92371825Y-95973045D01*
X92265713Y-96090895D01*
X92248460Y-96110056D01*
X92152973Y-96275444D01*
X92093958Y-96457072D01*
X92093268Y-96463633D01*
X92093268Y-96463635D01*
X92086717Y-96525968D01*
X92073996Y-96647000D01*
X83183500Y-96647000D01*
X83183500Y-95952524D01*
X83203502Y-95884403D01*
X83215858Y-95868221D01*
X83289040Y-95786944D01*
X83384527Y-95621556D01*
X83443542Y-95439928D01*
X83463504Y-95250000D01*
X83443542Y-95060072D01*
X83384527Y-94878444D01*
X83369383Y-94852213D01*
X83292341Y-94718774D01*
X83289040Y-94713056D01*
X83278776Y-94701656D01*
X83162312Y-94572310D01*
X83131594Y-94508303D01*
X83140359Y-94437849D01*
X83162312Y-94403690D01*
X83284621Y-94267852D01*
X83284622Y-94267851D01*
X83289040Y-94262944D01*
X83384527Y-94097556D01*
X83439387Y-93928714D01*
X83470125Y-93878556D01*
X86891276Y-90457405D01*
X86953588Y-90423379D01*
X86980371Y-90420500D01*
X93818629Y-90420500D01*
X93886750Y-90440502D01*
X93907724Y-90457405D01*
X96820875Y-93370556D01*
X96851613Y-93420714D01*
X96906473Y-93589556D01*
X97001960Y-93754944D01*
X97006378Y-93759851D01*
X97006379Y-93759852D01*
X97120039Y-93886084D01*
X97129747Y-93896866D01*
X97190331Y-93940883D01*
X97269557Y-93998444D01*
X97284248Y-94009118D01*
X97290276Y-94011802D01*
X97290278Y-94011803D01*
X97449811Y-94082831D01*
X97458712Y-94086794D01*
X97552113Y-94106647D01*
X97639056Y-94125128D01*
X97639061Y-94125128D01*
X97645513Y-94126500D01*
X97836487Y-94126500D01*
X97842939Y-94125128D01*
X97842944Y-94125128D01*
X97929887Y-94106647D01*
X98023288Y-94086794D01*
X98032189Y-94082831D01*
X98191722Y-94011803D01*
X98191724Y-94011802D01*
X98197752Y-94009118D01*
X98212444Y-93998444D01*
X98291669Y-93940883D01*
X98352253Y-93896866D01*
X98361961Y-93886084D01*
X98475621Y-93759852D01*
X98475622Y-93759851D01*
X98480040Y-93754944D01*
X98575527Y-93589556D01*
X98634542Y-93407928D01*
X98639177Y-93363834D01*
X98653814Y-93224565D01*
X98654504Y-93218000D01*
X98637062Y-93052045D01*
X98635232Y-93034635D01*
X98635232Y-93034633D01*
X98634542Y-93028072D01*
X98575527Y-92846444D01*
X98480040Y-92681056D01*
X98352253Y-92539134D01*
X98253157Y-92467136D01*
X98203094Y-92430763D01*
X98203093Y-92430762D01*
X98197752Y-92426882D01*
X98191724Y-92424198D01*
X98191722Y-92424197D01*
X98029319Y-92351891D01*
X98029318Y-92351891D01*
X98023288Y-92349206D01*
X98016833Y-92347834D01*
X98016824Y-92347831D01*
X97960228Y-92335801D01*
X97897331Y-92301650D01*
X94768770Y-89173089D01*
X94756384Y-89158677D01*
X94747851Y-89147082D01*
X94747846Y-89147077D01*
X94743508Y-89141182D01*
X94737930Y-89136443D01*
X94737927Y-89136440D01*
X94703232Y-89106965D01*
X94695716Y-89100035D01*
X94690021Y-89094340D01*
X94673736Y-89081456D01*
X94667749Y-89076719D01*
X94664345Y-89073928D01*
X94614297Y-89031409D01*
X94614295Y-89031408D01*
X94608715Y-89026667D01*
X94602199Y-89023339D01*
X94597150Y-89019972D01*
X94592021Y-89016805D01*
X94586284Y-89012266D01*
X94520125Y-88981345D01*
X94516225Y-88979439D01*
X94451192Y-88946231D01*
X94444084Y-88944492D01*
X94438441Y-88942393D01*
X94432678Y-88940476D01*
X94426050Y-88937378D01*
X94354583Y-88922513D01*
X94350299Y-88921543D01*
X94279390Y-88904192D01*
X94273788Y-88903844D01*
X94273785Y-88903844D01*
X94268236Y-88903500D01*
X94268238Y-88903464D01*
X94264245Y-88903225D01*
X94260053Y-88902851D01*
X94252885Y-88901360D01*
X94189120Y-88903085D01*
X94175479Y-88903454D01*
X94172072Y-88903500D01*
X86681070Y-88903500D01*
X86662120Y-88902067D01*
X86647885Y-88899901D01*
X86647881Y-88899901D01*
X86640651Y-88898801D01*
X86633359Y-88899394D01*
X86633356Y-88899394D01*
X86587982Y-88903085D01*
X86577767Y-88903500D01*
X86569707Y-88903500D01*
X86566073Y-88903924D01*
X86566067Y-88903924D01*
X86553042Y-88905443D01*
X86541480Y-88906791D01*
X86537132Y-88907221D01*
X86464364Y-88913140D01*
X86457403Y-88915395D01*
X86451463Y-88916582D01*
X86445588Y-88917971D01*
X86438319Y-88918818D01*
X86369670Y-88943736D01*
X86365542Y-88945153D01*
X86303064Y-88965393D01*
X86303062Y-88965394D01*
X86296101Y-88967649D01*
X86289846Y-88971445D01*
X86284372Y-88973951D01*
X86278942Y-88976670D01*
X86272063Y-88979167D01*
X86265943Y-88983180D01*
X86265942Y-88983180D01*
X86211024Y-89019186D01*
X86207320Y-89021523D01*
X86144893Y-89059405D01*
X86136516Y-89066803D01*
X86136492Y-89066776D01*
X86133500Y-89069429D01*
X86130267Y-89072132D01*
X86124148Y-89076144D01*
X86094951Y-89106965D01*
X86070872Y-89132383D01*
X86068494Y-89134825D01*
X82393669Y-92809650D01*
X82330772Y-92843801D01*
X82274176Y-92855831D01*
X82274167Y-92855834D01*
X82267712Y-92857206D01*
X82261682Y-92859891D01*
X82261681Y-92859891D01*
X82099278Y-92932197D01*
X82099276Y-92932198D01*
X82093248Y-92934882D01*
X81938747Y-93047134D01*
X81810960Y-93189056D01*
X81715473Y-93354444D01*
X81656458Y-93536072D01*
X81655768Y-93542633D01*
X81655768Y-93542635D01*
X81653938Y-93560045D01*
X81636496Y-93726000D01*
X81637186Y-93732565D01*
X81654863Y-93900749D01*
X81656458Y-93915928D01*
X81715473Y-94097556D01*
X81810960Y-94262944D01*
X81815378Y-94267851D01*
X81815379Y-94267852D01*
X81937688Y-94403690D01*
X81968406Y-94467697D01*
X81959641Y-94538151D01*
X81937688Y-94572310D01*
X81821225Y-94701656D01*
X81810960Y-94713056D01*
X81807659Y-94718774D01*
X81730618Y-94852213D01*
X81715473Y-94878444D01*
X81656458Y-95060072D01*
X81636496Y-95250000D01*
X78992500Y-95250000D01*
X78992500Y-94936524D01*
X79012502Y-94868403D01*
X79024858Y-94852221D01*
X79098040Y-94770944D01*
X79193527Y-94605556D01*
X79252542Y-94423928D01*
X79254546Y-94404866D01*
X79271814Y-94240565D01*
X79272504Y-94234000D01*
X79261727Y-94131464D01*
X79253232Y-94050635D01*
X79253232Y-94050633D01*
X79252542Y-94044072D01*
X79193527Y-93862444D01*
X79188970Y-93854550D01*
X79113355Y-93723582D01*
X79098040Y-93697056D01*
X79019340Y-93609650D01*
X78974675Y-93560045D01*
X78974674Y-93560044D01*
X78970253Y-93555134D01*
X78815752Y-93442882D01*
X78809724Y-93440198D01*
X78809722Y-93440197D01*
X78647319Y-93367891D01*
X78647318Y-93367891D01*
X78641288Y-93365206D01*
X78547888Y-93345353D01*
X78460944Y-93326872D01*
X78460939Y-93326872D01*
X78454487Y-93325500D01*
X78263513Y-93325500D01*
X78257061Y-93326872D01*
X78257056Y-93326872D01*
X78170112Y-93345353D01*
X78076712Y-93365206D01*
X78070682Y-93367891D01*
X78070681Y-93367891D01*
X77908278Y-93440197D01*
X77908276Y-93440198D01*
X77902248Y-93442882D01*
X77747747Y-93555134D01*
X77743326Y-93560044D01*
X77743325Y-93560045D01*
X77698661Y-93609650D01*
X77619960Y-93697056D01*
X77604645Y-93723582D01*
X77529031Y-93854550D01*
X77524473Y-93862444D01*
X77465458Y-94044072D01*
X77464768Y-94050633D01*
X77464768Y-94050635D01*
X77456273Y-94131464D01*
X77445496Y-94234000D01*
X75439004Y-94234000D01*
X75428227Y-94131464D01*
X75419732Y-94050635D01*
X75419732Y-94050633D01*
X75419042Y-94044072D01*
X75360027Y-93862444D01*
X75355470Y-93854550D01*
X75279855Y-93723582D01*
X75264540Y-93697056D01*
X75185840Y-93609650D01*
X75141175Y-93560045D01*
X75141174Y-93560044D01*
X75136753Y-93555134D01*
X74982252Y-93442882D01*
X74976224Y-93440198D01*
X74976222Y-93440197D01*
X74813819Y-93367891D01*
X74813818Y-93367891D01*
X74807788Y-93365206D01*
X74714388Y-93345353D01*
X74627444Y-93326872D01*
X74627439Y-93326872D01*
X74620987Y-93325500D01*
X74430013Y-93325500D01*
X74423561Y-93326872D01*
X74423556Y-93326872D01*
X74336612Y-93345353D01*
X74243212Y-93365206D01*
X74237182Y-93367891D01*
X74237181Y-93367891D01*
X74074778Y-93440197D01*
X74074776Y-93440198D01*
X74068748Y-93442882D01*
X73914247Y-93555134D01*
X73909826Y-93560044D01*
X73909825Y-93560045D01*
X73865161Y-93609650D01*
X73786460Y-93697056D01*
X73771145Y-93723582D01*
X73695531Y-93854550D01*
X73690973Y-93862444D01*
X73631958Y-94044072D01*
X73631268Y-94050633D01*
X73631268Y-94050635D01*
X73622773Y-94131464D01*
X73611996Y-94234000D01*
X67638700Y-94234000D01*
X67638700Y-88706594D01*
X67658702Y-88638473D01*
X67675605Y-88617499D01*
X75460300Y-80832805D01*
X75522612Y-80798779D01*
X75549395Y-80795900D01*
X93088433Y-80795900D01*
X93099616Y-80796427D01*
X93107109Y-80798102D01*
X93115035Y-80797853D01*
X93115036Y-80797853D01*
X93175186Y-80795962D01*
X93179145Y-80795900D01*
X93207056Y-80795900D01*
X93210991Y-80795403D01*
X93211056Y-80795395D01*
X93222893Y-80794462D01*
X93255151Y-80793448D01*
X93259170Y-80793322D01*
X93267089Y-80793073D01*
X93286543Y-80787421D01*
X93305900Y-80783413D01*
X93318130Y-80781868D01*
X93318131Y-80781868D01*
X93325997Y-80780874D01*
X93333368Y-80777955D01*
X93333370Y-80777955D01*
X93367112Y-80764596D01*
X93378342Y-80760751D01*
X93413183Y-80750629D01*
X93413184Y-80750629D01*
X93420793Y-80748418D01*
X93427612Y-80744385D01*
X93427617Y-80744383D01*
X93438228Y-80738107D01*
X93455976Y-80729412D01*
X93474817Y-80721952D01*
X93510587Y-80695964D01*
X93520507Y-80689448D01*
X93551735Y-80670980D01*
X93551738Y-80670978D01*
X93558562Y-80666942D01*
X93572883Y-80652621D01*
X93587917Y-80639780D01*
X93597894Y-80632531D01*
X93604307Y-80627872D01*
X93632498Y-80593795D01*
X93640488Y-80585016D01*
X95759299Y-78466205D01*
X95821611Y-78432179D01*
X95848394Y-78429300D01*
X95904287Y-78429300D01*
X95910739Y-78427928D01*
X95910744Y-78427928D01*
X95997688Y-78409447D01*
X96091088Y-78389594D01*
X96097119Y-78386909D01*
X96259522Y-78314603D01*
X96259524Y-78314602D01*
X96265552Y-78311918D01*
X96420053Y-78199666D01*
X96547840Y-78057744D01*
X96643327Y-77892356D01*
X96702342Y-77710728D01*
X96704039Y-77694588D01*
X96721614Y-77527365D01*
X96722304Y-77520800D01*
X96717428Y-77474409D01*
X96703032Y-77337435D01*
X96703032Y-77337433D01*
X96702342Y-77330872D01*
X96643327Y-77149244D01*
X96624540Y-77116703D01*
X96606114Y-77084790D01*
X96547840Y-76983856D01*
X96511106Y-76943058D01*
X96480390Y-76879053D01*
X96489154Y-76808599D01*
X96530681Y-76756815D01*
X96572453Y-76726466D01*
X96700240Y-76584544D01*
X96795727Y-76419156D01*
X96854742Y-76237528D01*
X96874704Y-76047600D01*
X96866758Y-75971997D01*
X96855432Y-75864235D01*
X96855432Y-75864233D01*
X96854742Y-75857672D01*
X96795727Y-75676044D01*
X96700240Y-75510656D01*
X96650170Y-75455047D01*
X96576875Y-75373645D01*
X96576874Y-75373644D01*
X96572453Y-75368734D01*
X96417952Y-75256482D01*
X96411924Y-75253798D01*
X96411922Y-75253797D01*
X96249519Y-75181491D01*
X96249518Y-75181491D01*
X96243488Y-75178806D01*
X96150088Y-75158953D01*
X96063144Y-75140472D01*
X96063139Y-75140472D01*
X96056687Y-75139100D01*
X95865713Y-75139100D01*
X95859261Y-75140472D01*
X95859256Y-75140472D01*
X95772312Y-75158953D01*
X95678912Y-75178806D01*
X95672882Y-75181491D01*
X95672881Y-75181491D01*
X95510478Y-75253797D01*
X95510476Y-75253798D01*
X95504448Y-75256482D01*
X95349947Y-75368734D01*
X95345526Y-75373644D01*
X95345525Y-75373645D01*
X95272231Y-75455047D01*
X95222160Y-75510656D01*
X95126673Y-75676044D01*
X95067658Y-75857672D01*
X95053941Y-75988187D01*
X95050293Y-76022892D01*
X95023280Y-76088549D01*
X95014078Y-76098817D01*
X92281300Y-78831595D01*
X92218988Y-78865621D01*
X92192205Y-78868500D01*
X73494068Y-78868500D01*
X73482884Y-78867973D01*
X73475396Y-78866299D01*
X73467473Y-78866548D01*
X73407338Y-78868438D01*
X73403380Y-78868500D01*
X73375449Y-78868500D01*
X73371534Y-78868995D01*
X73371530Y-78868995D01*
X73371472Y-78869003D01*
X73371443Y-78869006D01*
X73359601Y-78869939D01*
X73315415Y-78871327D01*
X73298049Y-78876372D01*
X73295963Y-78876978D01*
X73276611Y-78880986D01*
X73264373Y-78882532D01*
X73264371Y-78882533D01*
X73256508Y-78883526D01*
X73215391Y-78899806D01*
X73204190Y-78903641D01*
X73161711Y-78915982D01*
X73154892Y-78920015D01*
X73154887Y-78920017D01*
X73144276Y-78926293D01*
X73126526Y-78934990D01*
X73107688Y-78942448D01*
X73101272Y-78947109D01*
X73101271Y-78947110D01*
X73071930Y-78968428D01*
X73062006Y-78974947D01*
X73030765Y-78993422D01*
X73030760Y-78993426D01*
X73023942Y-78997458D01*
X73009618Y-79011782D01*
X72994586Y-79024621D01*
X72978198Y-79036528D01*
X72950017Y-79070593D01*
X72942027Y-79079373D01*
X60313747Y-91707653D01*
X60305461Y-91715193D01*
X60298982Y-91719305D01*
X60293557Y-91725082D01*
X60252357Y-91768956D01*
X60249602Y-91771798D01*
X60229865Y-91791535D01*
X60227385Y-91794732D01*
X60219682Y-91803752D01*
X60189414Y-91835984D01*
X60185595Y-91842930D01*
X60185593Y-91842933D01*
X60179652Y-91853739D01*
X60168801Y-91870258D01*
X60156386Y-91886264D01*
X60153241Y-91893533D01*
X60153238Y-91893537D01*
X60138826Y-91926842D01*
X60133609Y-91937492D01*
X60112305Y-91976245D01*
X60110334Y-91983920D01*
X60110334Y-91983921D01*
X60107267Y-91995867D01*
X60100863Y-92014571D01*
X60092819Y-92033160D01*
X60091580Y-92040983D01*
X60091577Y-92040993D01*
X60085901Y-92076829D01*
X60083495Y-92088449D01*
X60072500Y-92131275D01*
X60072500Y-92151529D01*
X60070949Y-92171239D01*
X60067780Y-92191248D01*
X60068526Y-92199140D01*
X60071941Y-92235266D01*
X60072500Y-92247124D01*
X60072500Y-100897476D01*
X60052498Y-100965597D01*
X60040142Y-100981779D01*
X59966960Y-101063056D01*
X59871473Y-101228444D01*
X59812458Y-101410072D01*
X59811768Y-101416633D01*
X59811768Y-101416635D01*
X59798219Y-101545547D01*
X59792496Y-101600000D01*
X29574752Y-101600000D01*
X29565464Y-101584844D01*
X29408701Y-101401299D01*
X29259034Y-101273471D01*
X29901884Y-101273471D01*
X29905570Y-101278740D01*
X30113121Y-101405927D01*
X30121915Y-101410408D01*
X30350242Y-101504984D01*
X30359627Y-101508033D01*
X30599940Y-101565728D01*
X30609687Y-101567271D01*
X30856070Y-101586662D01*
X30865930Y-101586662D01*
X31112313Y-101567271D01*
X31122060Y-101565728D01*
X31362373Y-101508033D01*
X31371758Y-101504984D01*
X31600085Y-101410408D01*
X31608879Y-101405927D01*
X31814928Y-101279660D01*
X31820190Y-101271599D01*
X31814183Y-101261393D01*
X30873812Y-100321022D01*
X30859868Y-100313408D01*
X30858035Y-100313539D01*
X30851420Y-100317790D01*
X29909276Y-101259934D01*
X29901884Y-101273471D01*
X29259034Y-101273471D01*
X29225156Y-101244536D01*
X29019347Y-101118416D01*
X29014777Y-101116523D01*
X29014773Y-101116521D01*
X28800916Y-101027939D01*
X28800914Y-101027938D01*
X28796343Y-101026045D01*
X28713961Y-101006267D01*
X28566447Y-100970851D01*
X28566441Y-100970850D01*
X28561634Y-100969696D01*
X28321000Y-100950758D01*
X28080366Y-100969696D01*
X28075559Y-100970850D01*
X28075553Y-100970851D01*
X27928039Y-101006267D01*
X27845657Y-101026045D01*
X27841086Y-101027938D01*
X27841084Y-101027939D01*
X27627227Y-101116521D01*
X27627223Y-101116523D01*
X27622653Y-101118416D01*
X27416844Y-101244536D01*
X27233299Y-101401299D01*
X27076536Y-101584844D01*
X26950416Y-101790653D01*
X26948523Y-101795223D01*
X26948521Y-101795227D01*
X26860129Y-102008625D01*
X26858045Y-102013657D01*
X26845952Y-102064028D01*
X26802851Y-102243553D01*
X26802850Y-102243559D01*
X26801696Y-102248366D01*
X26782758Y-102489000D01*
X24638500Y-102489000D01*
X24638500Y-101389093D01*
X24658502Y-101320972D01*
X24712158Y-101274479D01*
X24782432Y-101264375D01*
X24830335Y-101281660D01*
X25033121Y-101405927D01*
X25041915Y-101410408D01*
X25270242Y-101504984D01*
X25279627Y-101508033D01*
X25519940Y-101565728D01*
X25529687Y-101567271D01*
X25776070Y-101586662D01*
X25785930Y-101586662D01*
X26032313Y-101567271D01*
X26042060Y-101565728D01*
X26282373Y-101508033D01*
X26291758Y-101504984D01*
X26520085Y-101410408D01*
X26528879Y-101405927D01*
X26734928Y-101279660D01*
X26740190Y-101271599D01*
X26734183Y-101261393D01*
X25510885Y-100038095D01*
X25476859Y-99975783D01*
X25478694Y-99950132D01*
X26145408Y-99950132D01*
X26145539Y-99951965D01*
X26149790Y-99958580D01*
X27091934Y-100900724D01*
X27105471Y-100908116D01*
X27110740Y-100904430D01*
X27237927Y-100696879D01*
X27242408Y-100688085D01*
X27336984Y-100459758D01*
X27340033Y-100450373D01*
X27397728Y-100210060D01*
X27399271Y-100200313D01*
X27418662Y-99953930D01*
X29223338Y-99953930D01*
X29242729Y-100200313D01*
X29244272Y-100210060D01*
X29301967Y-100450373D01*
X29305016Y-100459758D01*
X29399592Y-100688085D01*
X29404073Y-100696879D01*
X29530340Y-100902928D01*
X29538401Y-100908190D01*
X29548607Y-100902183D01*
X30488978Y-99961812D01*
X30495356Y-99950132D01*
X31225408Y-99950132D01*
X31225539Y-99951965D01*
X31229790Y-99958580D01*
X32171934Y-100900724D01*
X32185471Y-100908116D01*
X32190740Y-100904430D01*
X32317927Y-100696879D01*
X32322408Y-100688085D01*
X32416984Y-100459758D01*
X32420033Y-100450373D01*
X32477728Y-100210060D01*
X32479271Y-100200313D01*
X32498662Y-99953930D01*
X32498662Y-99944070D01*
X32479271Y-99697687D01*
X32477728Y-99687940D01*
X32420033Y-99447627D01*
X32416984Y-99438242D01*
X32322408Y-99209915D01*
X32317927Y-99201121D01*
X32191660Y-98995072D01*
X32183599Y-98989810D01*
X32173393Y-98995817D01*
X31233022Y-99936188D01*
X31225408Y-99950132D01*
X30495356Y-99950132D01*
X30496592Y-99947868D01*
X30496461Y-99946035D01*
X30492210Y-99939420D01*
X29550066Y-98997276D01*
X29536529Y-98989884D01*
X29531260Y-98993570D01*
X29404073Y-99201121D01*
X29399592Y-99209915D01*
X29305016Y-99438242D01*
X29301967Y-99447627D01*
X29244272Y-99687940D01*
X29242729Y-99697687D01*
X29223338Y-99944070D01*
X29223338Y-99953930D01*
X27418662Y-99953930D01*
X27418662Y-99944070D01*
X27399271Y-99697687D01*
X27397728Y-99687940D01*
X27340033Y-99447627D01*
X27336984Y-99438242D01*
X27242408Y-99209915D01*
X27237927Y-99201121D01*
X27111660Y-98995072D01*
X27103599Y-98989810D01*
X27093393Y-98995817D01*
X26153022Y-99936188D01*
X26145408Y-99950132D01*
X25478694Y-99950132D01*
X25481924Y-99904968D01*
X25510885Y-99859905D01*
X26732724Y-98638066D01*
X26739094Y-98626401D01*
X29901810Y-98626401D01*
X29907817Y-98636607D01*
X30848188Y-99576978D01*
X30862132Y-99584592D01*
X30863965Y-99584461D01*
X30870580Y-99580210D01*
X31812724Y-98638066D01*
X31820116Y-98624529D01*
X31816430Y-98619260D01*
X31608879Y-98492073D01*
X31600085Y-98487592D01*
X31371758Y-98393016D01*
X31362373Y-98389967D01*
X31122060Y-98332272D01*
X31112313Y-98330729D01*
X30865930Y-98311338D01*
X30856070Y-98311338D01*
X30609687Y-98330729D01*
X30599940Y-98332272D01*
X30359627Y-98389967D01*
X30350242Y-98393016D01*
X30121915Y-98487592D01*
X30113121Y-98492073D01*
X29907072Y-98618340D01*
X29901810Y-98626401D01*
X26739094Y-98626401D01*
X26740116Y-98624529D01*
X26736430Y-98619260D01*
X26528879Y-98492073D01*
X26520085Y-98487592D01*
X26291758Y-98393016D01*
X26282373Y-98389967D01*
X26042060Y-98332272D01*
X26032313Y-98330729D01*
X25785930Y-98311338D01*
X25776070Y-98311338D01*
X25529687Y-98330729D01*
X25519940Y-98332272D01*
X25279627Y-98389967D01*
X25270242Y-98393016D01*
X25041915Y-98487592D01*
X25033121Y-98492073D01*
X24830335Y-98616340D01*
X24761801Y-98634878D01*
X24694124Y-98613421D01*
X24648792Y-98558782D01*
X24638500Y-98508907D01*
X24638500Y-95483918D01*
X34896917Y-95483918D01*
X34912682Y-95757320D01*
X34913507Y-95761525D01*
X34913508Y-95761533D01*
X34941490Y-95904158D01*
X34965405Y-96026053D01*
X34966792Y-96030103D01*
X34966793Y-96030108D01*
X35050791Y-96275444D01*
X35054112Y-96285144D01*
X35177160Y-96529799D01*
X35179586Y-96533328D01*
X35179589Y-96533334D01*
X35308741Y-96721250D01*
X35332274Y-96755490D01*
X35516582Y-96958043D01*
X35726675Y-97133707D01*
X35730316Y-97135991D01*
X35955024Y-97276951D01*
X35955028Y-97276953D01*
X35958664Y-97279234D01*
X36061942Y-97325866D01*
X36204345Y-97390164D01*
X36204349Y-97390166D01*
X36208257Y-97391930D01*
X36212377Y-97393150D01*
X36212376Y-97393150D01*
X36466723Y-97468491D01*
X36466727Y-97468492D01*
X36470836Y-97469709D01*
X36475070Y-97470357D01*
X36475075Y-97470358D01*
X36737298Y-97510483D01*
X36737300Y-97510483D01*
X36741540Y-97511132D01*
X36880912Y-97513322D01*
X37011071Y-97515367D01*
X37011077Y-97515367D01*
X37015362Y-97515434D01*
X37287235Y-97482534D01*
X37552127Y-97413041D01*
X37556087Y-97411401D01*
X37556092Y-97411399D01*
X37753211Y-97329749D01*
X37805136Y-97308241D01*
X38041582Y-97170073D01*
X38137767Y-97094654D01*
X45685618Y-97094654D01*
X45692673Y-97104627D01*
X45723679Y-97130551D01*
X45730598Y-97135579D01*
X45955272Y-97276515D01*
X45962807Y-97280556D01*
X46204520Y-97389694D01*
X46212551Y-97392680D01*
X46466832Y-97468002D01*
X46475184Y-97469869D01*
X46737340Y-97509984D01*
X46745874Y-97510700D01*
X47011045Y-97514867D01*
X47019596Y-97514418D01*
X47282883Y-97482557D01*
X47291284Y-97480955D01*
X47547824Y-97413653D01*
X47555926Y-97410926D01*
X47800949Y-97309434D01*
X47808617Y-97305628D01*
X48037598Y-97171822D01*
X48044679Y-97167009D01*
X48124655Y-97104301D01*
X48133125Y-97092442D01*
X48126608Y-97080818D01*
X46922812Y-95877022D01*
X46908868Y-95869408D01*
X46907035Y-95869539D01*
X46900420Y-95873790D01*
X45692910Y-97081300D01*
X45685618Y-97094654D01*
X38137767Y-97094654D01*
X38257089Y-97001094D01*
X38298809Y-96958043D01*
X38444686Y-96807509D01*
X38447669Y-96804431D01*
X38450202Y-96800983D01*
X38450206Y-96800978D01*
X38607257Y-96587178D01*
X38609795Y-96583723D01*
X38611841Y-96579955D01*
X38738418Y-96346830D01*
X38738419Y-96346828D01*
X38740468Y-96343054D01*
X38826350Y-96115774D01*
X38835751Y-96090895D01*
X38835752Y-96090891D01*
X38837269Y-96086877D01*
X38879117Y-95904158D01*
X38897449Y-95824117D01*
X38897450Y-95824113D01*
X38898407Y-95819933D01*
X38901352Y-95786944D01*
X38922531Y-95549627D01*
X38922532Y-95549616D01*
X38922751Y-95547161D01*
X38923193Y-95505000D01*
X38922048Y-95488204D01*
X44897665Y-95488204D01*
X44912932Y-95752969D01*
X44914005Y-95761470D01*
X44965065Y-96021722D01*
X44967276Y-96029974D01*
X45053184Y-96280894D01*
X45056499Y-96288779D01*
X45175664Y-96525713D01*
X45180020Y-96533079D01*
X45309347Y-96721250D01*
X45319601Y-96729594D01*
X45333342Y-96722448D01*
X46537978Y-95517812D01*
X46544356Y-95506132D01*
X47274408Y-95506132D01*
X47274539Y-95507965D01*
X47278790Y-95514580D01*
X48485730Y-96721520D01*
X48497939Y-96728187D01*
X48509439Y-96719497D01*
X48606831Y-96586913D01*
X48611418Y-96579685D01*
X48737962Y-96346621D01*
X48741530Y-96338827D01*
X48835271Y-96090750D01*
X48837748Y-96082544D01*
X48896954Y-95824038D01*
X48898294Y-95815577D01*
X48922031Y-95549616D01*
X48922277Y-95544677D01*
X48922666Y-95507485D01*
X48922523Y-95502519D01*
X48904362Y-95236123D01*
X48903201Y-95227649D01*
X48849419Y-94967944D01*
X48847120Y-94959709D01*
X48758588Y-94709705D01*
X48755191Y-94701854D01*
X48633550Y-94466178D01*
X48629122Y-94458866D01*
X48510031Y-94289417D01*
X48499509Y-94281037D01*
X48486121Y-94288089D01*
X47282022Y-95492188D01*
X47274408Y-95506132D01*
X46544356Y-95506132D01*
X46545592Y-95503868D01*
X46545461Y-95502035D01*
X46541210Y-95495420D01*
X45333814Y-94288024D01*
X45321804Y-94281466D01*
X45310064Y-94290434D01*
X45201935Y-94440911D01*
X45197418Y-94448196D01*
X45073325Y-94682567D01*
X45069839Y-94690395D01*
X44978700Y-94939446D01*
X44976311Y-94947670D01*
X44919812Y-95206795D01*
X44918563Y-95215250D01*
X44897754Y-95479653D01*
X44897665Y-95488204D01*
X38922048Y-95488204D01*
X38906257Y-95256565D01*
X38904859Y-95236055D01*
X38904858Y-95236049D01*
X38904567Y-95231778D01*
X38849032Y-94963612D01*
X38757617Y-94705465D01*
X38702806Y-94599271D01*
X38633978Y-94465919D01*
X38633978Y-94465918D01*
X38632013Y-94462112D01*
X38622040Y-94447921D01*
X38515520Y-94296359D01*
X38474545Y-94238057D01*
X38309740Y-94060705D01*
X38291046Y-94040588D01*
X38291043Y-94040585D01*
X38288125Y-94037445D01*
X38284810Y-94034731D01*
X38284806Y-94034728D01*
X38141581Y-93917500D01*
X45686584Y-93917500D01*
X45692980Y-93928770D01*
X46897188Y-95132978D01*
X46911132Y-95140592D01*
X46912965Y-95140461D01*
X46919580Y-95136210D01*
X48126604Y-93929186D01*
X48133795Y-93916017D01*
X48126473Y-93905780D01*
X48079233Y-93867115D01*
X48072261Y-93862160D01*
X47846122Y-93723582D01*
X47838552Y-93719624D01*
X47595704Y-93613022D01*
X47587644Y-93610120D01*
X47332592Y-93537467D01*
X47324214Y-93535685D01*
X47061656Y-93498318D01*
X47053111Y-93497691D01*
X46787908Y-93496302D01*
X46779374Y-93496839D01*
X46516433Y-93531456D01*
X46508035Y-93533149D01*
X46252238Y-93603127D01*
X46244143Y-93605946D01*
X46000199Y-93709997D01*
X45992577Y-93713881D01*
X45765013Y-93850075D01*
X45757981Y-93854962D01*
X45695053Y-93905377D01*
X45686584Y-93917500D01*
X38141581Y-93917500D01*
X38124931Y-93903872D01*
X38076205Y-93863990D01*
X37842704Y-93720901D01*
X37838768Y-93719173D01*
X37595873Y-93612549D01*
X37595869Y-93612548D01*
X37591945Y-93610825D01*
X37328566Y-93535800D01*
X37324324Y-93535196D01*
X37324318Y-93535195D01*
X37123834Y-93506662D01*
X37057443Y-93497213D01*
X36913589Y-93496460D01*
X36787877Y-93495802D01*
X36787871Y-93495802D01*
X36783591Y-93495780D01*
X36779347Y-93496339D01*
X36779343Y-93496339D01*
X36660302Y-93512011D01*
X36512078Y-93531525D01*
X36507938Y-93532658D01*
X36507936Y-93532658D01*
X36439972Y-93551251D01*
X36247928Y-93603788D01*
X36243980Y-93605472D01*
X35999982Y-93709546D01*
X35999978Y-93709548D01*
X35996030Y-93711232D01*
X35877414Y-93782222D01*
X35764725Y-93849664D01*
X35764721Y-93849667D01*
X35761043Y-93851868D01*
X35547318Y-94023094D01*
X35476656Y-94097556D01*
X35385852Y-94193244D01*
X35358808Y-94221742D01*
X35199002Y-94444136D01*
X35070857Y-94686161D01*
X35069385Y-94690184D01*
X35069383Y-94690188D01*
X35038036Y-94775847D01*
X34976743Y-94943337D01*
X34918404Y-95210907D01*
X34896917Y-95483918D01*
X24638500Y-95483918D01*
X24638500Y-87355262D01*
X33314493Y-87355262D01*
X33323789Y-87367277D01*
X33374994Y-87403131D01*
X33384489Y-87408614D01*
X33581947Y-87500690D01*
X33592239Y-87504436D01*
X33802688Y-87560825D01*
X33813481Y-87562728D01*
X34030525Y-87581717D01*
X34041475Y-87581717D01*
X34258519Y-87562728D01*
X34269312Y-87560825D01*
X34479761Y-87504436D01*
X34490053Y-87500690D01*
X34687511Y-87408614D01*
X34697006Y-87403131D01*
X34749048Y-87366691D01*
X34757424Y-87356212D01*
X34750356Y-87342766D01*
X34559652Y-87152062D01*
X47792493Y-87152062D01*
X47801789Y-87164077D01*
X47852994Y-87199931D01*
X47862489Y-87205414D01*
X48059947Y-87297490D01*
X48070239Y-87301236D01*
X48280688Y-87357625D01*
X48291481Y-87359528D01*
X48508525Y-87378517D01*
X48519475Y-87378517D01*
X48736519Y-87359528D01*
X48747312Y-87357625D01*
X48957761Y-87301236D01*
X48968053Y-87297490D01*
X49165511Y-87205414D01*
X49175006Y-87199931D01*
X49227048Y-87163491D01*
X49235424Y-87153012D01*
X49228356Y-87139566D01*
X48526812Y-86438022D01*
X48512868Y-86430408D01*
X48511035Y-86430539D01*
X48504420Y-86434790D01*
X47798923Y-87140287D01*
X47792493Y-87152062D01*
X34559652Y-87152062D01*
X34048812Y-86641222D01*
X34034868Y-86633608D01*
X34033035Y-86633739D01*
X34026420Y-86637990D01*
X33320923Y-87343487D01*
X33314493Y-87355262D01*
X24638500Y-87355262D01*
X24638500Y-86274675D01*
X32723483Y-86274675D01*
X32742472Y-86491719D01*
X32744375Y-86502512D01*
X32800764Y-86712961D01*
X32804510Y-86723253D01*
X32896586Y-86920711D01*
X32902069Y-86930206D01*
X32938509Y-86982248D01*
X32948988Y-86990624D01*
X32962434Y-86983556D01*
X33663978Y-86282012D01*
X33670356Y-86270332D01*
X34400408Y-86270332D01*
X34400539Y-86272165D01*
X34404790Y-86278780D01*
X35110287Y-86984277D01*
X35122062Y-86990707D01*
X35134077Y-86981411D01*
X35169931Y-86930206D01*
X35175414Y-86920711D01*
X35267490Y-86723253D01*
X35271236Y-86712961D01*
X35327625Y-86502512D01*
X35329528Y-86491719D01*
X35348517Y-86274675D01*
X35348517Y-86263725D01*
X35331697Y-86071475D01*
X47201483Y-86071475D01*
X47220472Y-86288519D01*
X47222375Y-86299312D01*
X47278764Y-86509761D01*
X47282510Y-86520053D01*
X47374586Y-86717511D01*
X47380069Y-86727006D01*
X47416509Y-86779048D01*
X47426988Y-86787424D01*
X47440434Y-86780356D01*
X48141978Y-86078812D01*
X48148356Y-86067132D01*
X48878408Y-86067132D01*
X48878539Y-86068965D01*
X48882790Y-86075580D01*
X49588287Y-86781077D01*
X49600062Y-86787507D01*
X49612077Y-86778211D01*
X49647931Y-86727006D01*
X49653414Y-86717511D01*
X49745490Y-86520053D01*
X49749236Y-86509761D01*
X49805625Y-86299312D01*
X49807528Y-86288519D01*
X49826517Y-86071475D01*
X49826517Y-86060525D01*
X49807528Y-85843481D01*
X49805625Y-85832688D01*
X49749236Y-85622239D01*
X49745490Y-85611947D01*
X49653414Y-85414489D01*
X49647931Y-85404994D01*
X49611491Y-85352952D01*
X49601012Y-85344576D01*
X49587566Y-85351644D01*
X48886022Y-86053188D01*
X48878408Y-86067132D01*
X48148356Y-86067132D01*
X48149592Y-86064868D01*
X48149461Y-86063035D01*
X48145210Y-86056420D01*
X47439713Y-85350923D01*
X47427938Y-85344493D01*
X47415923Y-85353789D01*
X47380069Y-85404994D01*
X47374586Y-85414489D01*
X47282510Y-85611947D01*
X47278764Y-85622239D01*
X47222375Y-85832688D01*
X47220472Y-85843481D01*
X47201483Y-86060525D01*
X47201483Y-86071475D01*
X35331697Y-86071475D01*
X35329528Y-86046681D01*
X35327625Y-86035888D01*
X35271236Y-85825439D01*
X35267490Y-85815147D01*
X35175414Y-85617689D01*
X35169931Y-85608194D01*
X35133491Y-85556152D01*
X35123012Y-85547776D01*
X35109566Y-85554844D01*
X34408022Y-86256388D01*
X34400408Y-86270332D01*
X33670356Y-86270332D01*
X33671592Y-86268068D01*
X33671461Y-86266235D01*
X33667210Y-86259620D01*
X32961713Y-85554123D01*
X32949938Y-85547693D01*
X32937923Y-85556989D01*
X32902069Y-85608194D01*
X32896586Y-85617689D01*
X32804510Y-85815147D01*
X32800764Y-85825439D01*
X32744375Y-86035888D01*
X32742472Y-86046681D01*
X32723483Y-86263725D01*
X32723483Y-86274675D01*
X24638500Y-86274675D01*
X24638500Y-85182188D01*
X33314576Y-85182188D01*
X33321644Y-85195634D01*
X34023188Y-85897178D01*
X34037132Y-85904792D01*
X34038965Y-85904661D01*
X34045580Y-85900410D01*
X34751077Y-85194913D01*
X34757507Y-85183138D01*
X34748211Y-85171123D01*
X34697006Y-85135269D01*
X34687511Y-85129786D01*
X34490053Y-85037710D01*
X34479761Y-85033964D01*
X34274585Y-84978988D01*
X47792576Y-84978988D01*
X47799644Y-84992434D01*
X48501188Y-85693978D01*
X48515132Y-85701592D01*
X48516965Y-85701461D01*
X48523580Y-85697210D01*
X49229077Y-84991713D01*
X49235507Y-84979938D01*
X49226211Y-84967923D01*
X49175006Y-84932069D01*
X49165511Y-84926586D01*
X48968053Y-84834510D01*
X48957761Y-84830764D01*
X48747312Y-84774375D01*
X48736519Y-84772472D01*
X48519475Y-84753483D01*
X48508525Y-84753483D01*
X48291481Y-84772472D01*
X48280688Y-84774375D01*
X48070239Y-84830764D01*
X48059947Y-84834510D01*
X47862489Y-84926586D01*
X47852994Y-84932069D01*
X47800952Y-84968509D01*
X47792576Y-84978988D01*
X34274585Y-84978988D01*
X34269312Y-84977575D01*
X34258519Y-84975672D01*
X34041475Y-84956683D01*
X34030525Y-84956683D01*
X33813481Y-84975672D01*
X33802688Y-84977575D01*
X33592239Y-85033964D01*
X33581947Y-85037710D01*
X33384489Y-85129786D01*
X33374994Y-85135269D01*
X33322952Y-85171709D01*
X33314576Y-85182188D01*
X24638500Y-85182188D01*
X24638500Y-81269200D01*
X32722502Y-81269200D01*
X32742457Y-81497287D01*
X32743881Y-81502600D01*
X32743881Y-81502602D01*
X32786761Y-81662629D01*
X32801716Y-81718443D01*
X32804039Y-81723424D01*
X32804039Y-81723425D01*
X32896151Y-81920962D01*
X32896154Y-81920967D01*
X32898477Y-81925949D01*
X33029802Y-82113500D01*
X33191700Y-82275398D01*
X33196208Y-82278555D01*
X33196211Y-82278557D01*
X33229273Y-82301707D01*
X33379251Y-82406723D01*
X33384233Y-82409046D01*
X33384238Y-82409049D01*
X33581775Y-82501161D01*
X33586757Y-82503484D01*
X33592065Y-82504906D01*
X33592067Y-82504907D01*
X33802598Y-82561319D01*
X33802600Y-82561319D01*
X33807913Y-82562743D01*
X34036000Y-82582698D01*
X34264087Y-82562743D01*
X34269400Y-82561319D01*
X34269402Y-82561319D01*
X34479933Y-82504907D01*
X34479935Y-82504906D01*
X34485243Y-82503484D01*
X34490225Y-82501161D01*
X34687762Y-82409049D01*
X34687767Y-82409046D01*
X34692749Y-82406723D01*
X34842727Y-82301707D01*
X34875789Y-82278557D01*
X34875792Y-82278555D01*
X34880300Y-82275398D01*
X35042198Y-82113500D01*
X35173523Y-81925949D01*
X35175846Y-81920967D01*
X35175849Y-81920962D01*
X35267961Y-81723425D01*
X35267961Y-81723424D01*
X35270284Y-81718443D01*
X35285240Y-81662629D01*
X35328119Y-81502602D01*
X35328119Y-81502600D01*
X35329543Y-81497287D01*
X35349498Y-81269200D01*
X35329543Y-81041113D01*
X35276564Y-80843393D01*
X35271707Y-80825267D01*
X35271706Y-80825265D01*
X35270284Y-80819957D01*
X35259066Y-80795900D01*
X35175849Y-80617438D01*
X35175846Y-80617433D01*
X35173523Y-80612451D01*
X35042198Y-80424900D01*
X34880300Y-80263002D01*
X34848229Y-80240545D01*
X34803901Y-80185090D01*
X34794500Y-80137333D01*
X34794500Y-71130371D01*
X34814502Y-71062250D01*
X34831405Y-71041276D01*
X35401217Y-70471464D01*
X35463529Y-70437438D01*
X35534541Y-70442577D01*
X35610282Y-70470971D01*
X35610288Y-70470973D01*
X35617684Y-70473745D01*
X35679866Y-70480500D01*
X37776134Y-70480500D01*
X37838316Y-70473745D01*
X37974705Y-70422615D01*
X38091261Y-70335261D01*
X38178615Y-70218705D01*
X38229745Y-70082316D01*
X38236500Y-70020134D01*
X38236500Y-68956500D01*
X38256502Y-68888379D01*
X38310158Y-68841886D01*
X38362500Y-68830500D01*
X41403507Y-68830500D01*
X41471628Y-68850502D01*
X41518121Y-68904158D01*
X41525543Y-68925763D01*
X41526255Y-68932316D01*
X41529027Y-68939711D01*
X41529028Y-68939714D01*
X41554391Y-69007368D01*
X41577385Y-69068705D01*
X41582770Y-69075890D01*
X41582771Y-69075892D01*
X41635640Y-69146435D01*
X41660488Y-69212942D01*
X41645435Y-69282324D01*
X41635640Y-69297565D01*
X41589175Y-69359563D01*
X41577385Y-69375295D01*
X41526255Y-69511684D01*
X41519500Y-69573866D01*
X41519500Y-71170134D01*
X41526255Y-71232316D01*
X41577385Y-71368705D01*
X41664739Y-71485261D01*
X41781295Y-71572615D01*
X41917684Y-71623745D01*
X41979866Y-71630500D01*
X43161629Y-71630500D01*
X43229750Y-71650502D01*
X43250724Y-71667405D01*
X47718595Y-76135276D01*
X47752621Y-76197588D01*
X47755500Y-76224371D01*
X47755500Y-79934133D01*
X47735498Y-80002254D01*
X47701772Y-80037345D01*
X47669700Y-80059802D01*
X47507802Y-80221700D01*
X47504645Y-80226208D01*
X47504643Y-80226211D01*
X47449902Y-80304389D01*
X47376477Y-80409251D01*
X47374154Y-80414233D01*
X47374151Y-80414238D01*
X47331015Y-80506745D01*
X47279716Y-80616757D01*
X47278294Y-80622065D01*
X47278293Y-80622067D01*
X47221881Y-80832598D01*
X47220457Y-80837913D01*
X47200502Y-81066000D01*
X47220457Y-81294087D01*
X47221881Y-81299400D01*
X47221881Y-81299402D01*
X47274905Y-81497287D01*
X47279716Y-81515243D01*
X47282039Y-81520224D01*
X47282039Y-81520225D01*
X47374151Y-81717762D01*
X47374154Y-81717767D01*
X47376477Y-81722749D01*
X47507802Y-81910300D01*
X47669700Y-82072198D01*
X47674208Y-82075355D01*
X47674211Y-82075357D01*
X47722243Y-82108989D01*
X47857251Y-82203523D01*
X47862233Y-82205846D01*
X47862238Y-82205849D01*
X48003031Y-82271501D01*
X48064757Y-82300284D01*
X48070065Y-82301706D01*
X48070067Y-82301707D01*
X48280598Y-82358119D01*
X48280600Y-82358119D01*
X48285913Y-82359543D01*
X48514000Y-82379498D01*
X48742087Y-82359543D01*
X48747400Y-82358119D01*
X48747402Y-82358119D01*
X48957933Y-82301707D01*
X48957935Y-82301706D01*
X48963243Y-82300284D01*
X49024969Y-82271501D01*
X49165762Y-82205849D01*
X49165767Y-82205846D01*
X49170749Y-82203523D01*
X49305757Y-82108989D01*
X49353789Y-82075357D01*
X49353792Y-82075355D01*
X49358300Y-82072198D01*
X49520198Y-81910300D01*
X49651523Y-81722749D01*
X49653846Y-81717767D01*
X49653849Y-81717762D01*
X49745961Y-81520225D01*
X49745961Y-81520224D01*
X49748284Y-81515243D01*
X49753096Y-81497287D01*
X49806119Y-81299402D01*
X49806119Y-81299400D01*
X49807543Y-81294087D01*
X49815803Y-81199669D01*
X56683001Y-81199669D01*
X56683371Y-81206490D01*
X56688895Y-81257352D01*
X56692521Y-81272604D01*
X56737676Y-81393054D01*
X56746214Y-81408649D01*
X56822715Y-81510724D01*
X56835276Y-81523285D01*
X56937351Y-81599786D01*
X56952946Y-81608324D01*
X57073394Y-81653478D01*
X57088649Y-81657105D01*
X57139514Y-81662631D01*
X57146328Y-81663000D01*
X57918885Y-81663000D01*
X57934124Y-81658525D01*
X57935329Y-81657135D01*
X57937000Y-81649452D01*
X57937000Y-81644884D01*
X58445000Y-81644884D01*
X58449475Y-81660123D01*
X58450865Y-81661328D01*
X58458548Y-81662999D01*
X59235669Y-81662999D01*
X59242490Y-81662629D01*
X59293352Y-81657105D01*
X59308604Y-81653479D01*
X59429054Y-81608324D01*
X59444649Y-81599786D01*
X59546724Y-81523285D01*
X59559285Y-81510724D01*
X59635786Y-81408649D01*
X59644324Y-81393054D01*
X59689478Y-81272606D01*
X59693105Y-81257351D01*
X59698631Y-81206486D01*
X59699000Y-81199672D01*
X59699000Y-80677115D01*
X59694525Y-80661876D01*
X59693135Y-80660671D01*
X59685452Y-80659000D01*
X58463115Y-80659000D01*
X58447876Y-80663475D01*
X58446671Y-80664865D01*
X58445000Y-80672548D01*
X58445000Y-81644884D01*
X57937000Y-81644884D01*
X57937000Y-80677115D01*
X57932525Y-80661876D01*
X57931135Y-80660671D01*
X57923452Y-80659000D01*
X56701116Y-80659000D01*
X56685877Y-80663475D01*
X56684672Y-80664865D01*
X56683001Y-80672548D01*
X56683001Y-81199669D01*
X49815803Y-81199669D01*
X49827498Y-81066000D01*
X49807543Y-80837913D01*
X49806119Y-80832598D01*
X49749707Y-80622067D01*
X49749706Y-80622065D01*
X49748284Y-80616757D01*
X49696985Y-80506745D01*
X49653849Y-80414238D01*
X49653846Y-80414233D01*
X49651523Y-80409251D01*
X49578098Y-80304389D01*
X49523357Y-80226211D01*
X49523355Y-80226208D01*
X49520198Y-80221700D01*
X49358300Y-80059802D01*
X49326229Y-80037345D01*
X49281901Y-79981890D01*
X49272500Y-79934133D01*
X49272500Y-78903134D01*
X56682500Y-78903134D01*
X56689255Y-78965316D01*
X56740385Y-79101705D01*
X56745771Y-79108891D01*
X56798953Y-79179852D01*
X56823801Y-79246358D01*
X56808748Y-79315741D01*
X56798953Y-79330982D01*
X56746214Y-79401352D01*
X56737676Y-79416946D01*
X56692522Y-79537394D01*
X56688895Y-79552649D01*
X56683369Y-79603514D01*
X56683000Y-79610328D01*
X56683000Y-80132885D01*
X56687475Y-80148124D01*
X56688865Y-80149329D01*
X56696548Y-80151000D01*
X59680884Y-80151000D01*
X59696123Y-80146525D01*
X59697328Y-80145135D01*
X59698999Y-80137452D01*
X59698999Y-79610331D01*
X59698629Y-79603510D01*
X59693105Y-79552648D01*
X59689479Y-79537396D01*
X59644324Y-79416946D01*
X59635786Y-79401352D01*
X59583047Y-79330982D01*
X59558199Y-79264476D01*
X59573252Y-79195093D01*
X59583047Y-79179852D01*
X59636229Y-79108891D01*
X59641615Y-79101705D01*
X59665062Y-79039161D01*
X59707704Y-78982397D01*
X59774266Y-78957697D01*
X59843614Y-78972905D01*
X59892162Y-79020390D01*
X59966960Y-79149944D01*
X60094747Y-79291866D01*
X60184045Y-79356745D01*
X60243904Y-79400235D01*
X60249248Y-79404118D01*
X60255276Y-79406802D01*
X60255278Y-79406803D01*
X60417681Y-79479109D01*
X60423712Y-79481794D01*
X60497603Y-79497500D01*
X60604056Y-79520128D01*
X60604061Y-79520128D01*
X60610513Y-79521500D01*
X60801487Y-79521500D01*
X60807939Y-79520128D01*
X60807944Y-79520128D01*
X60914397Y-79497500D01*
X60988288Y-79481794D01*
X60994319Y-79479109D01*
X61156722Y-79406803D01*
X61156724Y-79406802D01*
X61162752Y-79404118D01*
X61168091Y-79400239D01*
X61168098Y-79400235D01*
X61174528Y-79395563D01*
X61248587Y-79371500D01*
X62856500Y-79371500D01*
X62924621Y-79391502D01*
X62971114Y-79445158D01*
X62982500Y-79497500D01*
X62982500Y-80053134D01*
X62989255Y-80115316D01*
X63040385Y-80251705D01*
X63127739Y-80368261D01*
X63244295Y-80455615D01*
X63380684Y-80506745D01*
X63442866Y-80513500D01*
X65539134Y-80513500D01*
X65601316Y-80506745D01*
X65737705Y-80455615D01*
X65854261Y-80368261D01*
X65941615Y-80251705D01*
X65992745Y-80115316D01*
X65999500Y-80053134D01*
X65999500Y-76606400D01*
X79960096Y-76606400D01*
X79980058Y-76796328D01*
X80039073Y-76977956D01*
X80042376Y-76983678D01*
X80042377Y-76983679D01*
X80060647Y-77015324D01*
X80134560Y-77143344D01*
X80262347Y-77285266D01*
X80349418Y-77348527D01*
X80401060Y-77386047D01*
X80416848Y-77397518D01*
X80422876Y-77400202D01*
X80422878Y-77400203D01*
X80578898Y-77469667D01*
X80591312Y-77475194D01*
X80684713Y-77495047D01*
X80771656Y-77513528D01*
X80771661Y-77513528D01*
X80778113Y-77514900D01*
X80969087Y-77514900D01*
X80975539Y-77513528D01*
X80975544Y-77513528D01*
X81062487Y-77495047D01*
X81155888Y-77475194D01*
X81168302Y-77469667D01*
X81324322Y-77400203D01*
X81324324Y-77400202D01*
X81330352Y-77397518D01*
X81346141Y-77386047D01*
X81397782Y-77348527D01*
X81484853Y-77285266D01*
X81612640Y-77143344D01*
X81686553Y-77015324D01*
X81704823Y-76983679D01*
X81704824Y-76983678D01*
X81708127Y-76977956D01*
X81767142Y-76796328D01*
X81787104Y-76606400D01*
X81767142Y-76416472D01*
X81708127Y-76234844D01*
X81702081Y-76224371D01*
X81631741Y-76102540D01*
X81612640Y-76069456D01*
X81539463Y-75988185D01*
X81508747Y-75924179D01*
X81507100Y-75903876D01*
X81507100Y-72755394D01*
X81527102Y-72687273D01*
X81544005Y-72666299D01*
X82449699Y-71760605D01*
X82512011Y-71726579D01*
X82538794Y-71723700D01*
X82594687Y-71723700D01*
X82601139Y-71722328D01*
X82601144Y-71722328D01*
X82689823Y-71703478D01*
X82781488Y-71683994D01*
X82787519Y-71681309D01*
X82949922Y-71609003D01*
X82949924Y-71609002D01*
X82955952Y-71606318D01*
X83110453Y-71494066D01*
X83163478Y-71435176D01*
X83233821Y-71357052D01*
X83233822Y-71357051D01*
X83238240Y-71352144D01*
X83333727Y-71186756D01*
X83392742Y-71005128D01*
X83397711Y-70957856D01*
X83412014Y-70821765D01*
X83412704Y-70815200D01*
X83410107Y-70790493D01*
X83393432Y-70631835D01*
X83393432Y-70631833D01*
X83392742Y-70625272D01*
X83333727Y-70443644D01*
X83238240Y-70278256D01*
X83219459Y-70257397D01*
X83114875Y-70141245D01*
X83114874Y-70141244D01*
X83110453Y-70136334D01*
X82955952Y-70024082D01*
X82949924Y-70021398D01*
X82949922Y-70021397D01*
X82787519Y-69949091D01*
X82787518Y-69949091D01*
X82781488Y-69946406D01*
X82688088Y-69926553D01*
X82601144Y-69908072D01*
X82601139Y-69908072D01*
X82594687Y-69906700D01*
X82403713Y-69906700D01*
X82397261Y-69908072D01*
X82397256Y-69908072D01*
X82310312Y-69926553D01*
X82216912Y-69946406D01*
X82210882Y-69949091D01*
X82210881Y-69949091D01*
X82048478Y-70021397D01*
X82048476Y-70021398D01*
X82042448Y-70024082D01*
X81887947Y-70136334D01*
X81883526Y-70141244D01*
X81883525Y-70141245D01*
X81778942Y-70257397D01*
X81760160Y-70278256D01*
X81664673Y-70443644D01*
X81605658Y-70625272D01*
X81604968Y-70631833D01*
X81604968Y-70631835D01*
X81588293Y-70790493D01*
X81561280Y-70856150D01*
X81552078Y-70866418D01*
X80481347Y-71937148D01*
X80473061Y-71944688D01*
X80466582Y-71948800D01*
X80461157Y-71954577D01*
X80419957Y-71998451D01*
X80417202Y-72001293D01*
X80397465Y-72021030D01*
X80394985Y-72024227D01*
X80387282Y-72033247D01*
X80357014Y-72065479D01*
X80353195Y-72072425D01*
X80353193Y-72072428D01*
X80347252Y-72083234D01*
X80336401Y-72099753D01*
X80323986Y-72115759D01*
X80320841Y-72123028D01*
X80320838Y-72123032D01*
X80306426Y-72156337D01*
X80301209Y-72166987D01*
X80279905Y-72205740D01*
X80277934Y-72213415D01*
X80277934Y-72213416D01*
X80274867Y-72225362D01*
X80268463Y-72244066D01*
X80260419Y-72262655D01*
X80259180Y-72270478D01*
X80259177Y-72270488D01*
X80253501Y-72306324D01*
X80251095Y-72317944D01*
X80242505Y-72351402D01*
X80240100Y-72360770D01*
X80240100Y-72381024D01*
X80238549Y-72400734D01*
X80235380Y-72420743D01*
X80236126Y-72428635D01*
X80239541Y-72464761D01*
X80240100Y-72476619D01*
X80240100Y-75903876D01*
X80220098Y-75971997D01*
X80207742Y-75988179D01*
X80134560Y-76069456D01*
X80115459Y-76102540D01*
X80045120Y-76224371D01*
X80039073Y-76234844D01*
X79980058Y-76416472D01*
X79960096Y-76606400D01*
X65999500Y-76606400D01*
X65999500Y-76156866D01*
X65992745Y-76094684D01*
X65941615Y-75958295D01*
X65854261Y-75841739D01*
X65737705Y-75754385D01*
X65601316Y-75703255D01*
X65539134Y-75696500D01*
X63442866Y-75696500D01*
X63380684Y-75703255D01*
X63373288Y-75706027D01*
X63373282Y-75706029D01*
X63297541Y-75734423D01*
X63226734Y-75739606D01*
X63164217Y-75705536D01*
X61374405Y-73915724D01*
X61340379Y-73853412D01*
X61337500Y-73826629D01*
X61337500Y-70473867D01*
X61357502Y-70405746D01*
X61391228Y-70370655D01*
X61423300Y-70348198D01*
X61585198Y-70186300D01*
X61589449Y-70180230D01*
X61652828Y-70089715D01*
X61716523Y-69998749D01*
X61718846Y-69993767D01*
X61718849Y-69993762D01*
X61810961Y-69796225D01*
X61810961Y-69796224D01*
X61813284Y-69791243D01*
X61814713Y-69785912D01*
X61871119Y-69575402D01*
X61871119Y-69575400D01*
X61872543Y-69570087D01*
X61892498Y-69342000D01*
X61872543Y-69113913D01*
X61862355Y-69075892D01*
X61814707Y-68898067D01*
X61814706Y-68898065D01*
X61813284Y-68892757D01*
X61801168Y-68866774D01*
X61718849Y-68690238D01*
X61718846Y-68690233D01*
X61716523Y-68685251D01*
X61627853Y-68558617D01*
X61588357Y-68502211D01*
X61588355Y-68502208D01*
X61585198Y-68497700D01*
X61423300Y-68335802D01*
X61418792Y-68332645D01*
X61418789Y-68332643D01*
X61267511Y-68226717D01*
X61235749Y-68204477D01*
X61230765Y-68202153D01*
X61228472Y-68200829D01*
X61179479Y-68149447D01*
X61166043Y-68079733D01*
X61192429Y-68013822D01*
X61228472Y-67982591D01*
X61240002Y-67975934D01*
X61292048Y-67939491D01*
X61300424Y-67929012D01*
X61293356Y-67915566D01*
X60591812Y-67214022D01*
X60577868Y-67206408D01*
X60576035Y-67206539D01*
X60569420Y-67210790D01*
X59863923Y-67916287D01*
X59857493Y-67928062D01*
X59866789Y-67940077D01*
X59917998Y-67975934D01*
X59929528Y-67982591D01*
X59978521Y-68033973D01*
X59991958Y-68103687D01*
X59965571Y-68169598D01*
X59929528Y-68200829D01*
X59927235Y-68202153D01*
X59922251Y-68204477D01*
X59890489Y-68226717D01*
X59739211Y-68332643D01*
X59739208Y-68332645D01*
X59734700Y-68335802D01*
X59572802Y-68497700D01*
X59569645Y-68502208D01*
X59569643Y-68502211D01*
X59530147Y-68558617D01*
X59441477Y-68685251D01*
X59439154Y-68690233D01*
X59439151Y-68690238D01*
X59356832Y-68866774D01*
X59344716Y-68892757D01*
X59343294Y-68898065D01*
X59343293Y-68898067D01*
X59295645Y-69075892D01*
X59285457Y-69113913D01*
X59265502Y-69342000D01*
X59285457Y-69570087D01*
X59286881Y-69575400D01*
X59286881Y-69575402D01*
X59343288Y-69785912D01*
X59344716Y-69791243D01*
X59347039Y-69796224D01*
X59347039Y-69796225D01*
X59439151Y-69993762D01*
X59439154Y-69993767D01*
X59441477Y-69998749D01*
X59505172Y-70089715D01*
X59568552Y-70180230D01*
X59572802Y-70186300D01*
X59734700Y-70348198D01*
X59766771Y-70370655D01*
X59811099Y-70426110D01*
X59820500Y-70473867D01*
X59820500Y-74125930D01*
X59819067Y-74144880D01*
X59815801Y-74166349D01*
X59816394Y-74173641D01*
X59816394Y-74173644D01*
X59820085Y-74219018D01*
X59820500Y-74229233D01*
X59820500Y-74237293D01*
X59820925Y-74240937D01*
X59823789Y-74265507D01*
X59824222Y-74269882D01*
X59825604Y-74286865D01*
X59830140Y-74342637D01*
X59832396Y-74349601D01*
X59833587Y-74355560D01*
X59834971Y-74361415D01*
X59835818Y-74368681D01*
X59860735Y-74437327D01*
X59862152Y-74441455D01*
X59884649Y-74510899D01*
X59888445Y-74517154D01*
X59890951Y-74522628D01*
X59893670Y-74528058D01*
X59896167Y-74534937D01*
X59900180Y-74541057D01*
X59900180Y-74541058D01*
X59936186Y-74595976D01*
X59938523Y-74599680D01*
X59976405Y-74662107D01*
X59980121Y-74666315D01*
X59980122Y-74666316D01*
X59983803Y-74670484D01*
X59983776Y-74670508D01*
X59986429Y-74673500D01*
X59989132Y-74676733D01*
X59993144Y-74682852D01*
X59998456Y-74687884D01*
X60049383Y-74736128D01*
X60051825Y-74738506D01*
X62945595Y-77632276D01*
X62979621Y-77694588D01*
X62982500Y-77721371D01*
X62982500Y-77728500D01*
X62962498Y-77796621D01*
X62908842Y-77843114D01*
X62856500Y-77854500D01*
X61248587Y-77854500D01*
X61174528Y-77830437D01*
X61168098Y-77825765D01*
X61168091Y-77825761D01*
X61162752Y-77821882D01*
X61156724Y-77819198D01*
X61156722Y-77819197D01*
X60994319Y-77746891D01*
X60994318Y-77746891D01*
X60988288Y-77744206D01*
X60981833Y-77742834D01*
X60981824Y-77742831D01*
X60925228Y-77730801D01*
X60862331Y-77696650D01*
X60781770Y-77616089D01*
X60769384Y-77601677D01*
X60760851Y-77590082D01*
X60760846Y-77590077D01*
X60756508Y-77584182D01*
X60750930Y-77579443D01*
X60750927Y-77579440D01*
X60716232Y-77549965D01*
X60708716Y-77543035D01*
X60703021Y-77537340D01*
X60682115Y-77520800D01*
X60680749Y-77519719D01*
X60677345Y-77516928D01*
X60627297Y-77474409D01*
X60627295Y-77474408D01*
X60621715Y-77469667D01*
X60615199Y-77466339D01*
X60610150Y-77462972D01*
X60605021Y-77459805D01*
X60599284Y-77455266D01*
X60533125Y-77424345D01*
X60529225Y-77422439D01*
X60464192Y-77389231D01*
X60457084Y-77387492D01*
X60451441Y-77385393D01*
X60445678Y-77383476D01*
X60439050Y-77380378D01*
X60367583Y-77365513D01*
X60363299Y-77364543D01*
X60292390Y-77347192D01*
X60286788Y-77346844D01*
X60286785Y-77346844D01*
X60281236Y-77346500D01*
X60281238Y-77346464D01*
X60277245Y-77346225D01*
X60273053Y-77345851D01*
X60265885Y-77344360D01*
X60199675Y-77346151D01*
X60188479Y-77346454D01*
X60185072Y-77346500D01*
X59815493Y-77346500D01*
X59747372Y-77326498D01*
X59700879Y-77272842D01*
X59693457Y-77251237D01*
X59692745Y-77244684D01*
X59689972Y-77237285D01*
X59644767Y-77116703D01*
X59641615Y-77108295D01*
X59583360Y-77030565D01*
X59558512Y-76964058D01*
X59573565Y-76894676D01*
X59583360Y-76879435D01*
X59636229Y-76808892D01*
X59636230Y-76808890D01*
X59641615Y-76801705D01*
X59692745Y-76665316D01*
X59699500Y-76603134D01*
X59699500Y-75006866D01*
X59692745Y-74944684D01*
X59641615Y-74808295D01*
X59554261Y-74691739D01*
X59437705Y-74604385D01*
X59301316Y-74553255D01*
X59239134Y-74546500D01*
X59075500Y-74546500D01*
X59007379Y-74526498D01*
X58960886Y-74472842D01*
X58949500Y-74420500D01*
X58949500Y-74006070D01*
X58950933Y-73987120D01*
X58953099Y-73972885D01*
X58953099Y-73972881D01*
X58954199Y-73965651D01*
X58952752Y-73947852D01*
X58949915Y-73912982D01*
X58949500Y-73902767D01*
X58949500Y-73894707D01*
X58946209Y-73866480D01*
X58945778Y-73862121D01*
X58940453Y-73796660D01*
X58939860Y-73789364D01*
X58937605Y-73782403D01*
X58936418Y-73776463D01*
X58935029Y-73770588D01*
X58934182Y-73763319D01*
X58909264Y-73694670D01*
X58907847Y-73690542D01*
X58887607Y-73628064D01*
X58887606Y-73628062D01*
X58885351Y-73621101D01*
X58881555Y-73614846D01*
X58879049Y-73609372D01*
X58876330Y-73603942D01*
X58873833Y-73597063D01*
X58868786Y-73589365D01*
X58833814Y-73536024D01*
X58831467Y-73532305D01*
X58826509Y-73524134D01*
X58793595Y-73469893D01*
X58786197Y-73461516D01*
X58786224Y-73461492D01*
X58783571Y-73458500D01*
X58780868Y-73455267D01*
X58776856Y-73449148D01*
X58720617Y-73395872D01*
X58718175Y-73393494D01*
X58578125Y-73253444D01*
X58547387Y-73203285D01*
X58509333Y-73086166D01*
X58492527Y-73034444D01*
X58397040Y-72869056D01*
X58364509Y-72832926D01*
X58273675Y-72732045D01*
X58273674Y-72732044D01*
X58269253Y-72727134D01*
X58114752Y-72614882D01*
X58108724Y-72612198D01*
X58108722Y-72612197D01*
X57946319Y-72539891D01*
X57946318Y-72539891D01*
X57940288Y-72537206D01*
X57846888Y-72517353D01*
X57759944Y-72498872D01*
X57759939Y-72498872D01*
X57753487Y-72497500D01*
X57562513Y-72497500D01*
X57556061Y-72498872D01*
X57556056Y-72498872D01*
X57469112Y-72517353D01*
X57375712Y-72537206D01*
X57369682Y-72539891D01*
X57369681Y-72539891D01*
X57207278Y-72612197D01*
X57207276Y-72612198D01*
X57201248Y-72614882D01*
X57046747Y-72727134D01*
X57042326Y-72732044D01*
X57042325Y-72732045D01*
X56951492Y-72832926D01*
X56918960Y-72869056D01*
X56823473Y-73034444D01*
X56764458Y-73216072D01*
X56763768Y-73222633D01*
X56763768Y-73222635D01*
X56748883Y-73364256D01*
X56744496Y-73406000D01*
X56745186Y-73412565D01*
X56760490Y-73558170D01*
X56764458Y-73595928D01*
X56823473Y-73777556D01*
X56918960Y-73942944D01*
X57046747Y-74084866D01*
X57201248Y-74197118D01*
X57207274Y-74199801D01*
X57207281Y-74199805D01*
X57357748Y-74266796D01*
X57411844Y-74312776D01*
X57432500Y-74381903D01*
X57432500Y-74420500D01*
X57412498Y-74488621D01*
X57358842Y-74535114D01*
X57306500Y-74546500D01*
X57142866Y-74546500D01*
X57080684Y-74553255D01*
X56944295Y-74604385D01*
X56827739Y-74691739D01*
X56740385Y-74808295D01*
X56689255Y-74944684D01*
X56682500Y-75006866D01*
X56682500Y-76603134D01*
X56689255Y-76665316D01*
X56740385Y-76801705D01*
X56745770Y-76808890D01*
X56745771Y-76808892D01*
X56798640Y-76879435D01*
X56823488Y-76945942D01*
X56808435Y-77015324D01*
X56798640Y-77030565D01*
X56740385Y-77108295D01*
X56689255Y-77244684D01*
X56682500Y-77306866D01*
X56682500Y-78903134D01*
X49272500Y-78903134D01*
X49272500Y-75925070D01*
X49273933Y-75906120D01*
X49276099Y-75891885D01*
X49276099Y-75891881D01*
X49277199Y-75884651D01*
X49275539Y-75864235D01*
X49272915Y-75831982D01*
X49272500Y-75821767D01*
X49272500Y-75813707D01*
X49269209Y-75785480D01*
X49268778Y-75781121D01*
X49263454Y-75715662D01*
X49263453Y-75715659D01*
X49262860Y-75708364D01*
X49260604Y-75701400D01*
X49259417Y-75695461D01*
X49258030Y-75689590D01*
X49257182Y-75682319D01*
X49254686Y-75675443D01*
X49254684Y-75675434D01*
X49232275Y-75613702D01*
X49230865Y-75609598D01*
X49208352Y-75540101D01*
X49204556Y-75533846D01*
X49202057Y-75528387D01*
X49199329Y-75522939D01*
X49196833Y-75516063D01*
X49156805Y-75455010D01*
X49154481Y-75451327D01*
X49119500Y-75393680D01*
X49119499Y-75393679D01*
X49116595Y-75388893D01*
X49109198Y-75380517D01*
X49109225Y-75380493D01*
X49106570Y-75377499D01*
X49103868Y-75374268D01*
X49099856Y-75368148D01*
X49043617Y-75314872D01*
X49041175Y-75312494D01*
X48286815Y-74558134D01*
X48933500Y-74558134D01*
X48940255Y-74620316D01*
X48991385Y-74756705D01*
X49078739Y-74873261D01*
X49195295Y-74960615D01*
X49331684Y-75011745D01*
X49393866Y-75018500D01*
X51190134Y-75018500D01*
X51252316Y-75011745D01*
X51388705Y-74960615D01*
X51505261Y-74873261D01*
X51592615Y-74756705D01*
X51599438Y-74738506D01*
X51636798Y-74638848D01*
X51679440Y-74582084D01*
X51746001Y-74557384D01*
X51815350Y-74572592D01*
X51850017Y-74600580D01*
X51875218Y-74629673D01*
X51882580Y-74636883D01*
X52046434Y-74772916D01*
X52054881Y-74778831D01*
X52238756Y-74886279D01*
X52248042Y-74890729D01*
X52447001Y-74966703D01*
X52456899Y-74969579D01*
X52560250Y-74990606D01*
X52574299Y-74989410D01*
X52578000Y-74979065D01*
X52578000Y-74978517D01*
X53086000Y-74978517D01*
X53090064Y-74992359D01*
X53103478Y-74994393D01*
X53110184Y-74993534D01*
X53120262Y-74991392D01*
X53324255Y-74930191D01*
X53333842Y-74926433D01*
X53525095Y-74832739D01*
X53533945Y-74827464D01*
X53707328Y-74703792D01*
X53715200Y-74697139D01*
X53866052Y-74546812D01*
X53872730Y-74538965D01*
X53997003Y-74366020D01*
X54002313Y-74357183D01*
X54096670Y-74166267D01*
X54100469Y-74156672D01*
X54162377Y-73952910D01*
X54164555Y-73942837D01*
X54165986Y-73931962D01*
X54163775Y-73917778D01*
X54150617Y-73914000D01*
X53104115Y-73914000D01*
X53088876Y-73918475D01*
X53087671Y-73919865D01*
X53086000Y-73927548D01*
X53086000Y-74978517D01*
X52578000Y-74978517D01*
X52578000Y-73387885D01*
X53086000Y-73387885D01*
X53090475Y-73403124D01*
X53091865Y-73404329D01*
X53099548Y-73406000D01*
X54150344Y-73406000D01*
X54163875Y-73402027D01*
X54165180Y-73392947D01*
X54123214Y-73225875D01*
X54119894Y-73216124D01*
X54034972Y-73020814D01*
X54030105Y-73011739D01*
X53914426Y-72832926D01*
X53908136Y-72824757D01*
X53764806Y-72667240D01*
X53757273Y-72660215D01*
X53590139Y-72528222D01*
X53581552Y-72522517D01*
X53395117Y-72419599D01*
X53385705Y-72415369D01*
X53184959Y-72344280D01*
X53174988Y-72341646D01*
X53103837Y-72328972D01*
X53090540Y-72330432D01*
X53086000Y-72344989D01*
X53086000Y-73387885D01*
X52578000Y-73387885D01*
X52578000Y-72343102D01*
X52574082Y-72329758D01*
X52559806Y-72327771D01*
X52521324Y-72333660D01*
X52511288Y-72336051D01*
X52308868Y-72402212D01*
X52299359Y-72406209D01*
X52110463Y-72504542D01*
X52101738Y-72510036D01*
X51931433Y-72637905D01*
X51923726Y-72644748D01*
X51846478Y-72725584D01*
X51784954Y-72761014D01*
X51714042Y-72757557D01*
X51656255Y-72716311D01*
X51637402Y-72682763D01*
X51595767Y-72571703D01*
X51592615Y-72563295D01*
X51505261Y-72446739D01*
X51388705Y-72359385D01*
X51252316Y-72308255D01*
X51190134Y-72301500D01*
X49393866Y-72301500D01*
X49331684Y-72308255D01*
X49195295Y-72359385D01*
X49078739Y-72446739D01*
X48991385Y-72563295D01*
X48940255Y-72699684D01*
X48933500Y-72761866D01*
X48933500Y-74558134D01*
X48286815Y-74558134D01*
X44900576Y-71171895D01*
X44866550Y-71109583D01*
X44871615Y-71038768D01*
X44914162Y-70981932D01*
X44915793Y-70980831D01*
X44915792Y-70980830D01*
X44920306Y-70977509D01*
X44925107Y-70974595D01*
X44933484Y-70967197D01*
X44933508Y-70967224D01*
X44936500Y-70964571D01*
X44939733Y-70961868D01*
X44945852Y-70957856D01*
X44999128Y-70901617D01*
X45001506Y-70899175D01*
X47173276Y-68727405D01*
X47235588Y-68693379D01*
X47262371Y-68690500D01*
X49494134Y-68690500D01*
X49556316Y-68683745D01*
X49692705Y-68632615D01*
X49809261Y-68545261D01*
X49896615Y-68428705D01*
X49944937Y-68299806D01*
X51893361Y-68299806D01*
X51900751Y-68310108D01*
X51942630Y-68344203D01*
X51949909Y-68349318D01*
X52173756Y-68484085D01*
X52181670Y-68488118D01*
X52422286Y-68590006D01*
X52430691Y-68592883D01*
X52683257Y-68659850D01*
X52691989Y-68661516D01*
X52951474Y-68692227D01*
X52960340Y-68692645D01*
X53221561Y-68686490D01*
X53230414Y-68685653D01*
X53488162Y-68642752D01*
X53496796Y-68640679D01*
X53745930Y-68561888D01*
X53754192Y-68558617D01*
X53989731Y-68445513D01*
X53997455Y-68441107D01*
X54191268Y-68311606D01*
X54199556Y-68301688D01*
X54192299Y-68287509D01*
X53058812Y-67154022D01*
X53044868Y-67146408D01*
X53043035Y-67146539D01*
X53036420Y-67150790D01*
X51900527Y-68286683D01*
X51893361Y-68299806D01*
X49944937Y-68299806D01*
X49947745Y-68292316D01*
X49954500Y-68230134D01*
X49954500Y-66726367D01*
X51134245Y-66726367D01*
X51144503Y-66987459D01*
X51145478Y-66996288D01*
X51192422Y-67253332D01*
X51194631Y-67261934D01*
X51277324Y-67509796D01*
X51280728Y-67518014D01*
X51397519Y-67751750D01*
X51402043Y-67759398D01*
X51517352Y-67926235D01*
X51527673Y-67934589D01*
X51541323Y-67927467D01*
X52673978Y-66794812D01*
X52680356Y-66783132D01*
X53410408Y-66783132D01*
X53410539Y-66784965D01*
X53414790Y-66791580D01*
X54551517Y-67928307D01*
X54564917Y-67935624D01*
X54574821Y-67928637D01*
X54590686Y-67909763D01*
X54595905Y-67902580D01*
X54734171Y-67680876D01*
X54738333Y-67673017D01*
X54843988Y-67434030D01*
X54846994Y-67425680D01*
X54917921Y-67174192D01*
X54919722Y-67165499D01*
X54954672Y-66905292D01*
X54955200Y-66898899D01*
X54956816Y-66847475D01*
X59266483Y-66847475D01*
X59285472Y-67064519D01*
X59287375Y-67075312D01*
X59343764Y-67285761D01*
X59347510Y-67296053D01*
X59439586Y-67493511D01*
X59445069Y-67503006D01*
X59481509Y-67555048D01*
X59491988Y-67563424D01*
X59505434Y-67556356D01*
X60206978Y-66854812D01*
X60213356Y-66843132D01*
X60943408Y-66843132D01*
X60943539Y-66844965D01*
X60947790Y-66851580D01*
X61653287Y-67557077D01*
X61665062Y-67563507D01*
X61677077Y-67554211D01*
X61712931Y-67503006D01*
X61718414Y-67493511D01*
X61810490Y-67296053D01*
X61814236Y-67285761D01*
X61870625Y-67075312D01*
X61872528Y-67064519D01*
X61891517Y-66847475D01*
X61891517Y-66836525D01*
X61872528Y-66619481D01*
X61870625Y-66608688D01*
X61814236Y-66398239D01*
X61810490Y-66387947D01*
X61718414Y-66190489D01*
X61712931Y-66180994D01*
X61676491Y-66128952D01*
X61666012Y-66120576D01*
X61652566Y-66127644D01*
X60951022Y-66829188D01*
X60943408Y-66843132D01*
X60213356Y-66843132D01*
X60214592Y-66840868D01*
X60214461Y-66839035D01*
X60210210Y-66832420D01*
X59504713Y-66126923D01*
X59492938Y-66120493D01*
X59480923Y-66129789D01*
X59445069Y-66180994D01*
X59439586Y-66190489D01*
X59347510Y-66387947D01*
X59343764Y-66398239D01*
X59287375Y-66608688D01*
X59285472Y-66619481D01*
X59266483Y-66836525D01*
X59266483Y-66847475D01*
X54956816Y-66847475D01*
X54958773Y-66785219D01*
X54958646Y-66778779D01*
X54940106Y-66516923D01*
X54938853Y-66508119D01*
X54883858Y-66252677D01*
X54881379Y-66244144D01*
X54790941Y-65999002D01*
X54787286Y-65990907D01*
X54663206Y-65760947D01*
X54659424Y-65754988D01*
X59857576Y-65754988D01*
X59864644Y-65768434D01*
X60566188Y-66469978D01*
X60580132Y-66477592D01*
X60581965Y-66477461D01*
X60588580Y-66473210D01*
X61261824Y-65799966D01*
X66486257Y-65799966D01*
X66516565Y-65934446D01*
X66519645Y-65944275D01*
X66599770Y-66141603D01*
X66604413Y-66150794D01*
X66715694Y-66332388D01*
X66721777Y-66340699D01*
X66861213Y-66501667D01*
X66868580Y-66508883D01*
X67032434Y-66644916D01*
X67040881Y-66650831D01*
X67224756Y-66758279D01*
X67234042Y-66762729D01*
X67433001Y-66838703D01*
X67442899Y-66841579D01*
X67546250Y-66862606D01*
X67560299Y-66861410D01*
X67564000Y-66851065D01*
X67564000Y-65804115D01*
X67559525Y-65788876D01*
X67558135Y-65787671D01*
X67550452Y-65786000D01*
X66501225Y-65786000D01*
X66487694Y-65789973D01*
X66486257Y-65799966D01*
X61261824Y-65799966D01*
X61294077Y-65767713D01*
X61300507Y-65755938D01*
X61291211Y-65743923D01*
X61240006Y-65708069D01*
X61230511Y-65702586D01*
X61033053Y-65610510D01*
X61022761Y-65606764D01*
X60812312Y-65550375D01*
X60801519Y-65548472D01*
X60584475Y-65529483D01*
X60573525Y-65529483D01*
X60356481Y-65548472D01*
X60345688Y-65550375D01*
X60135239Y-65606764D01*
X60124947Y-65610510D01*
X59927489Y-65702586D01*
X59917994Y-65708069D01*
X59865952Y-65744509D01*
X59857576Y-65754988D01*
X54659424Y-65754988D01*
X54658447Y-65753449D01*
X54573759Y-65638790D01*
X54562631Y-65630348D01*
X54550038Y-65637172D01*
X53418022Y-66769188D01*
X53410408Y-66783132D01*
X52680356Y-66783132D01*
X52681592Y-66780868D01*
X52681461Y-66779035D01*
X52677210Y-66772420D01*
X51541819Y-65637029D01*
X51528978Y-65630017D01*
X51518289Y-65637813D01*
X51466663Y-65703299D01*
X51461658Y-65710663D01*
X51330420Y-65936605D01*
X51326516Y-65944575D01*
X51228420Y-66186763D01*
X51225676Y-66195207D01*
X51162683Y-66448800D01*
X51161156Y-66457551D01*
X51134524Y-66717483D01*
X51134245Y-66726367D01*
X49954500Y-66726367D01*
X49954500Y-65333866D01*
X49947745Y-65271684D01*
X49945122Y-65264688D01*
X51894045Y-65264688D01*
X51901025Y-65277815D01*
X53033188Y-66409978D01*
X53047132Y-66417592D01*
X53048965Y-66417461D01*
X53055580Y-66413210D01*
X54190804Y-65277986D01*
X54197658Y-65265434D01*
X54189450Y-65254363D01*
X54099762Y-65185916D01*
X54092313Y-65181023D01*
X53864353Y-65053359D01*
X53856303Y-65049571D01*
X53612617Y-64955295D01*
X53604127Y-64952683D01*
X53349578Y-64893683D01*
X53340800Y-64892293D01*
X53080478Y-64869746D01*
X53071607Y-64869606D01*
X52810696Y-64883965D01*
X52801886Y-64885079D01*
X52545607Y-64936055D01*
X52537050Y-64938396D01*
X52290496Y-65024980D01*
X52282362Y-65028500D01*
X52050477Y-65148955D01*
X52042905Y-65153594D01*
X51902447Y-65253967D01*
X51894045Y-65264688D01*
X49945122Y-65264688D01*
X49896615Y-65135295D01*
X49809261Y-65018739D01*
X49692705Y-64931385D01*
X49556316Y-64880255D01*
X49494134Y-64873500D01*
X46597866Y-64873500D01*
X46535684Y-64880255D01*
X46399295Y-64931385D01*
X46282739Y-65018739D01*
X46195385Y-65135295D01*
X46144255Y-65271684D01*
X46137500Y-65333866D01*
X46137500Y-67565629D01*
X46117498Y-67633750D01*
X46100595Y-67654724D01*
X44747004Y-69008315D01*
X44684692Y-69042341D01*
X44613877Y-69037276D01*
X44557041Y-68994729D01*
X44532230Y-68928209D01*
X44532646Y-68905613D01*
X44536131Y-68873533D01*
X44536131Y-68873529D01*
X44536500Y-68870134D01*
X44536500Y-67273866D01*
X44529745Y-67211684D01*
X44478615Y-67075295D01*
X44420047Y-66997148D01*
X44395199Y-66930642D01*
X44410252Y-66861259D01*
X44420047Y-66846018D01*
X44472786Y-66775648D01*
X44481324Y-66760054D01*
X44526478Y-66639606D01*
X44530105Y-66624351D01*
X44535631Y-66573486D01*
X44536000Y-66566672D01*
X44536000Y-66044115D01*
X44531525Y-66028876D01*
X44530135Y-66027671D01*
X44522452Y-66026000D01*
X41538116Y-66026000D01*
X41522877Y-66030475D01*
X41521672Y-66031865D01*
X41520001Y-66039548D01*
X41520001Y-66566669D01*
X41520371Y-66573490D01*
X41525895Y-66624352D01*
X41529521Y-66639604D01*
X41574676Y-66760054D01*
X41583214Y-66775648D01*
X41635953Y-66846018D01*
X41660801Y-66912524D01*
X41645748Y-66981907D01*
X41635953Y-66997148D01*
X41577385Y-67075295D01*
X41574233Y-67083703D01*
X41529029Y-67204285D01*
X41526255Y-67211684D01*
X41525628Y-67217453D01*
X41490874Y-67278291D01*
X41427919Y-67311113D01*
X41403507Y-67313500D01*
X38362500Y-67313500D01*
X38294379Y-67293498D01*
X38247886Y-67239842D01*
X38236500Y-67187500D01*
X38236500Y-66123866D01*
X38229745Y-66061684D01*
X38178615Y-65925295D01*
X38091261Y-65808739D01*
X37974705Y-65721385D01*
X37838316Y-65670255D01*
X37776134Y-65663500D01*
X35679866Y-65663500D01*
X35617684Y-65670255D01*
X35481295Y-65721385D01*
X35364739Y-65808739D01*
X35277385Y-65925295D01*
X35226255Y-66061684D01*
X35219500Y-66123866D01*
X35219500Y-68455629D01*
X35199498Y-68523750D01*
X35182595Y-68544724D01*
X33547089Y-70180230D01*
X33532677Y-70192616D01*
X33521082Y-70201149D01*
X33521077Y-70201154D01*
X33515182Y-70205492D01*
X33510443Y-70211070D01*
X33510440Y-70211073D01*
X33480965Y-70245768D01*
X33474035Y-70253284D01*
X33468340Y-70258979D01*
X33466060Y-70261861D01*
X33450719Y-70281251D01*
X33447928Y-70284655D01*
X33416311Y-70321871D01*
X33400667Y-70340285D01*
X33397339Y-70346801D01*
X33393972Y-70351850D01*
X33390805Y-70356979D01*
X33386266Y-70362716D01*
X33355345Y-70428875D01*
X33353442Y-70432769D01*
X33320231Y-70497808D01*
X33318492Y-70504916D01*
X33316393Y-70510559D01*
X33314476Y-70516322D01*
X33311378Y-70522950D01*
X33309888Y-70530112D01*
X33309888Y-70530113D01*
X33296514Y-70594412D01*
X33295544Y-70598696D01*
X33278192Y-70669610D01*
X33277500Y-70680764D01*
X33277464Y-70680762D01*
X33277225Y-70684755D01*
X33276851Y-70688947D01*
X33275360Y-70696115D01*
X33275558Y-70703432D01*
X33277454Y-70773521D01*
X33277500Y-70776928D01*
X33277500Y-80137333D01*
X33257498Y-80205454D01*
X33223772Y-80240545D01*
X33191700Y-80263002D01*
X33029802Y-80424900D01*
X32898477Y-80612451D01*
X32896154Y-80617433D01*
X32896151Y-80617438D01*
X32812934Y-80795900D01*
X32801716Y-80819957D01*
X32800294Y-80825265D01*
X32800293Y-80825267D01*
X32795436Y-80843393D01*
X32742457Y-81041113D01*
X32722502Y-81269200D01*
X24638500Y-81269200D01*
X24638500Y-68934895D01*
X24658502Y-68866774D01*
X24712158Y-68820281D01*
X24782432Y-68810177D01*
X24847012Y-68839671D01*
X24882131Y-68889741D01*
X24928468Y-69010453D01*
X24929966Y-69013393D01*
X25100190Y-69347475D01*
X25104938Y-69356794D01*
X25106734Y-69359560D01*
X25106736Y-69359563D01*
X25243451Y-69570087D01*
X25316643Y-69682793D01*
X25408499Y-69796225D01*
X25547947Y-69968428D01*
X25561266Y-69984876D01*
X25836124Y-70259734D01*
X25838682Y-70261806D01*
X25838686Y-70261809D01*
X25929392Y-70335261D01*
X26138207Y-70504357D01*
X26140970Y-70506152D01*
X26140971Y-70506152D01*
X26417646Y-70685826D01*
X26464205Y-70716062D01*
X26467139Y-70717557D01*
X26467146Y-70717561D01*
X26658774Y-70815200D01*
X26810547Y-70892532D01*
X26980722Y-70957856D01*
X27125966Y-71013610D01*
X27173438Y-71031833D01*
X27548901Y-71132438D01*
X27714396Y-71158650D01*
X27929576Y-71192732D01*
X27929584Y-71192733D01*
X27932824Y-71193246D01*
X28321000Y-71213589D01*
X28709176Y-71193246D01*
X28712416Y-71192733D01*
X28712424Y-71192732D01*
X28927604Y-71158650D01*
X29093099Y-71132438D01*
X29468562Y-71031833D01*
X29516035Y-71013610D01*
X29661278Y-70957856D01*
X29831453Y-70892532D01*
X29983226Y-70815200D01*
X30174854Y-70717561D01*
X30174861Y-70717557D01*
X30177795Y-70716062D01*
X30224355Y-70685826D01*
X30501029Y-70506152D01*
X30501030Y-70506152D01*
X30503793Y-70504357D01*
X30712608Y-70335261D01*
X30803314Y-70261809D01*
X30803318Y-70261806D01*
X30805876Y-70259734D01*
X31080734Y-69984876D01*
X31094054Y-69968428D01*
X31233501Y-69796225D01*
X31325357Y-69682793D01*
X31398549Y-69570087D01*
X31535264Y-69359563D01*
X31535266Y-69359560D01*
X31537062Y-69356794D01*
X31541811Y-69347475D01*
X31712034Y-69013393D01*
X31713532Y-69010453D01*
X31817809Y-68738803D01*
X31851647Y-68650652D01*
X31851648Y-68650650D01*
X31852833Y-68647562D01*
X31953438Y-68272099D01*
X31992020Y-68028502D01*
X32013732Y-67891424D01*
X32013733Y-67891416D01*
X32014246Y-67888176D01*
X32034589Y-67500000D01*
X32014246Y-67111824D01*
X32008461Y-67075295D01*
X31978410Y-66885567D01*
X31953438Y-66727901D01*
X31852833Y-66352438D01*
X31713532Y-65989547D01*
X31678160Y-65920125D01*
X31538561Y-65646147D01*
X31538557Y-65646140D01*
X31537062Y-65643206D01*
X31533144Y-65637172D01*
X31443989Y-65499885D01*
X41520000Y-65499885D01*
X41524475Y-65515124D01*
X41525865Y-65516329D01*
X41533548Y-65518000D01*
X42755885Y-65518000D01*
X42771124Y-65513525D01*
X42772329Y-65512135D01*
X42774000Y-65504452D01*
X42774000Y-65499885D01*
X43282000Y-65499885D01*
X43286475Y-65515124D01*
X43287865Y-65516329D01*
X43295548Y-65518000D01*
X44517884Y-65518000D01*
X44533123Y-65513525D01*
X44534328Y-65512135D01*
X44535999Y-65504452D01*
X44535999Y-64977331D01*
X44535629Y-64970510D01*
X44530105Y-64919648D01*
X44526479Y-64904396D01*
X44481324Y-64783946D01*
X44472786Y-64768351D01*
X44396285Y-64666276D01*
X44383724Y-64653715D01*
X44281649Y-64577214D01*
X44266054Y-64568676D01*
X44145606Y-64523522D01*
X44130351Y-64519895D01*
X44079486Y-64514369D01*
X44072672Y-64514000D01*
X43300115Y-64514000D01*
X43284876Y-64518475D01*
X43283671Y-64519865D01*
X43282000Y-64527548D01*
X43282000Y-65499885D01*
X42774000Y-65499885D01*
X42774000Y-64532116D01*
X42769525Y-64516877D01*
X42768135Y-64515672D01*
X42760452Y-64514001D01*
X41983331Y-64514001D01*
X41976510Y-64514371D01*
X41925648Y-64519895D01*
X41910396Y-64523521D01*
X41789946Y-64568676D01*
X41774351Y-64577214D01*
X41672276Y-64653715D01*
X41659715Y-64666276D01*
X41583214Y-64768351D01*
X41574676Y-64783946D01*
X41529522Y-64904394D01*
X41525895Y-64919649D01*
X41520369Y-64970514D01*
X41520000Y-64977328D01*
X41520000Y-65499885D01*
X31443989Y-65499885D01*
X31327152Y-65319971D01*
X31327152Y-65319970D01*
X31325357Y-65317207D01*
X31172228Y-65128109D01*
X31082809Y-65017686D01*
X31082806Y-65017682D01*
X31080734Y-65015124D01*
X30805876Y-64740266D01*
X30775176Y-64715405D01*
X30645840Y-64610671D01*
X30503793Y-64495643D01*
X30501029Y-64493848D01*
X30180564Y-64285736D01*
X30180561Y-64285734D01*
X30177795Y-64283938D01*
X30174861Y-64282443D01*
X30174854Y-64282439D01*
X30089646Y-64239024D01*
X30038031Y-64190276D01*
X30020965Y-64121361D01*
X30043866Y-64054159D01*
X30099463Y-64010007D01*
X30146687Y-64000757D01*
X36000552Y-63993223D01*
X67503993Y-63952679D01*
X67572139Y-63972593D01*
X67618701Y-64026189D01*
X67628895Y-64096450D01*
X67599486Y-64161069D01*
X67539809Y-64199529D01*
X67523212Y-64203230D01*
X67507311Y-64205663D01*
X67497293Y-64208050D01*
X67294868Y-64274212D01*
X67285359Y-64278209D01*
X67096463Y-64376542D01*
X67087738Y-64382036D01*
X66917433Y-64509905D01*
X66909726Y-64516748D01*
X66762590Y-64670717D01*
X66756104Y-64678727D01*
X66636098Y-64854649D01*
X66631000Y-64863623D01*
X66541338Y-65056783D01*
X66537775Y-65066470D01*
X66482389Y-65266183D01*
X66483912Y-65274607D01*
X66496292Y-65278000D01*
X67946000Y-65278000D01*
X68014121Y-65298002D01*
X68060614Y-65351658D01*
X68072000Y-65404000D01*
X68072000Y-66850517D01*
X68076064Y-66864359D01*
X68089478Y-66866393D01*
X68096184Y-66865534D01*
X68106262Y-66863392D01*
X68310255Y-66802191D01*
X68319842Y-66798433D01*
X68511095Y-66704739D01*
X68519945Y-66699464D01*
X68693328Y-66575792D01*
X68701200Y-66569139D01*
X68852052Y-66418812D01*
X68858730Y-66410965D01*
X68986022Y-66233819D01*
X68987279Y-66234722D01*
X69034373Y-66191362D01*
X69104311Y-66179145D01*
X69169751Y-66206678D01*
X69197579Y-66238511D01*
X69257987Y-66337088D01*
X69404250Y-66505938D01*
X69528013Y-66608688D01*
X69566553Y-66640684D01*
X69576126Y-66648632D01*
X69769000Y-66761338D01*
X69977692Y-66841030D01*
X69982760Y-66842061D01*
X69982763Y-66842062D01*
X70070534Y-66859919D01*
X70196597Y-66885567D01*
X70201772Y-66885757D01*
X70201774Y-66885757D01*
X70414673Y-66893564D01*
X70414677Y-66893564D01*
X70419837Y-66893753D01*
X70424957Y-66893097D01*
X70424959Y-66893097D01*
X70636288Y-66866025D01*
X70636289Y-66866025D01*
X70641416Y-66865368D01*
X70646366Y-66863883D01*
X70850429Y-66802661D01*
X70850434Y-66802659D01*
X70855384Y-66801174D01*
X71055994Y-66702896D01*
X71237860Y-66573173D01*
X71259787Y-66551323D01*
X71326884Y-66484460D01*
X71396096Y-66415489D01*
X71426934Y-66372574D01*
X71526453Y-66234077D01*
X71527776Y-66235028D01*
X71574645Y-66191857D01*
X71644580Y-66179625D01*
X71710026Y-66207144D01*
X71737875Y-66238994D01*
X71797987Y-66337088D01*
X71944250Y-66505938D01*
X72068013Y-66608688D01*
X72106553Y-66640684D01*
X72116126Y-66648632D01*
X72309000Y-66761338D01*
X72517692Y-66841030D01*
X72522760Y-66842061D01*
X72522763Y-66842062D01*
X72610534Y-66859919D01*
X72736597Y-66885567D01*
X72741771Y-66885757D01*
X72741773Y-66885757D01*
X72809293Y-66888233D01*
X72883649Y-66890959D01*
X72950990Y-66913443D01*
X72995486Y-66968767D01*
X73003008Y-67039364D01*
X72968126Y-67105969D01*
X72632747Y-67441348D01*
X72624461Y-67448888D01*
X72617982Y-67453000D01*
X72612557Y-67458777D01*
X72571357Y-67502651D01*
X72568602Y-67505493D01*
X72548865Y-67525230D01*
X72546385Y-67528427D01*
X72538682Y-67537447D01*
X72508414Y-67569679D01*
X72504595Y-67576625D01*
X72504593Y-67576628D01*
X72498652Y-67587434D01*
X72487801Y-67603953D01*
X72475386Y-67619959D01*
X72472241Y-67627228D01*
X72472238Y-67627232D01*
X72457826Y-67660537D01*
X72452609Y-67671187D01*
X72431305Y-67709940D01*
X72429334Y-67717615D01*
X72429334Y-67717616D01*
X72426267Y-67729562D01*
X72419863Y-67748266D01*
X72411819Y-67766855D01*
X72410580Y-67774678D01*
X72410577Y-67774688D01*
X72404901Y-67810524D01*
X72402495Y-67822144D01*
X72391500Y-67864970D01*
X72391500Y-67885224D01*
X72389949Y-67904934D01*
X72386780Y-67924943D01*
X72387526Y-67932835D01*
X72390941Y-67968961D01*
X72391500Y-67980819D01*
X72391500Y-69750803D01*
X72371498Y-69818924D01*
X72317842Y-69865417D01*
X72305377Y-69870326D01*
X72257998Y-69886133D01*
X72257996Y-69886134D01*
X72251054Y-69888450D01*
X72244830Y-69892301D01*
X72244829Y-69892302D01*
X72153060Y-69949091D01*
X72100652Y-69981522D01*
X71975695Y-70106697D01*
X71971855Y-70112927D01*
X71971854Y-70112928D01*
X71914797Y-70205492D01*
X71882885Y-70257262D01*
X71880581Y-70264209D01*
X71829827Y-70417229D01*
X71827203Y-70425139D01*
X71826503Y-70431975D01*
X71826502Y-70431978D01*
X71825943Y-70437438D01*
X71816500Y-70529600D01*
X71816500Y-71155400D01*
X71816837Y-71158646D01*
X71816837Y-71158650D01*
X71824481Y-71232316D01*
X71827474Y-71261166D01*
X71883450Y-71428946D01*
X71976522Y-71579348D01*
X72020997Y-71623745D01*
X72063109Y-71665784D01*
X72097188Y-71728066D01*
X72092185Y-71798886D01*
X72063264Y-71843975D01*
X71987940Y-71919431D01*
X71975695Y-71931697D01*
X71971855Y-71937927D01*
X71971854Y-71937928D01*
X71915766Y-72028920D01*
X71882885Y-72082262D01*
X71880581Y-72089209D01*
X71832236Y-72234966D01*
X71827203Y-72250139D01*
X71826503Y-72256975D01*
X71826502Y-72256978D01*
X71825118Y-72270488D01*
X71816500Y-72354600D01*
X71816500Y-72980400D01*
X71816837Y-72983646D01*
X71816837Y-72983650D01*
X71822760Y-73040729D01*
X71827474Y-73086166D01*
X71829655Y-73092702D01*
X71829655Y-73092704D01*
X71859077Y-73180891D01*
X71883450Y-73253946D01*
X71976522Y-73404348D01*
X72101697Y-73529305D01*
X72107927Y-73533145D01*
X72107928Y-73533146D01*
X72245090Y-73617694D01*
X72252262Y-73622115D01*
X72270198Y-73628064D01*
X72413611Y-73675632D01*
X72413613Y-73675632D01*
X72420139Y-73677797D01*
X72426975Y-73678497D01*
X72426978Y-73678498D01*
X72470031Y-73682909D01*
X72524600Y-73688500D01*
X73525400Y-73688500D01*
X73528646Y-73688163D01*
X73528650Y-73688163D01*
X73624308Y-73678238D01*
X73624312Y-73678237D01*
X73631166Y-73677526D01*
X73637702Y-73675345D01*
X73637704Y-73675345D01*
X73779421Y-73628064D01*
X73798946Y-73621550D01*
X73830205Y-73602206D01*
X73911123Y-73552133D01*
X73979575Y-73533295D01*
X74043542Y-73552017D01*
X74151032Y-73618275D01*
X74157262Y-73622115D01*
X74175198Y-73628064D01*
X74318611Y-73675632D01*
X74318613Y-73675632D01*
X74325139Y-73677797D01*
X74331975Y-73678497D01*
X74331978Y-73678498D01*
X74375031Y-73682909D01*
X74429600Y-73688500D01*
X75430400Y-73688500D01*
X75433646Y-73688163D01*
X75433650Y-73688163D01*
X75529308Y-73678238D01*
X75529312Y-73678237D01*
X75536166Y-73677526D01*
X75542702Y-73675345D01*
X75542704Y-73675345D01*
X75684421Y-73628064D01*
X75703946Y-73621550D01*
X75735205Y-73602206D01*
X75816123Y-73552133D01*
X75884575Y-73533295D01*
X75948542Y-73552017D01*
X76056032Y-73618275D01*
X76062262Y-73622115D01*
X76080198Y-73628064D01*
X76223611Y-73675632D01*
X76223613Y-73675632D01*
X76230139Y-73677797D01*
X76236975Y-73678497D01*
X76236978Y-73678498D01*
X76280031Y-73682909D01*
X76334600Y-73688500D01*
X77335400Y-73688500D01*
X77338646Y-73688163D01*
X77338650Y-73688163D01*
X77434308Y-73678238D01*
X77434312Y-73678237D01*
X77441166Y-73677526D01*
X77447702Y-73675345D01*
X77447704Y-73675345D01*
X77589421Y-73628064D01*
X77608946Y-73621550D01*
X77640205Y-73602206D01*
X77721123Y-73552133D01*
X77789575Y-73533295D01*
X77853542Y-73552017D01*
X77961032Y-73618275D01*
X77967262Y-73622115D01*
X77985198Y-73628064D01*
X78128611Y-73675632D01*
X78128613Y-73675632D01*
X78135139Y-73677797D01*
X78141975Y-73678497D01*
X78141978Y-73678498D01*
X78185031Y-73682909D01*
X78239600Y-73688500D01*
X79240400Y-73688500D01*
X79243646Y-73688163D01*
X79243650Y-73688163D01*
X79339308Y-73678238D01*
X79339312Y-73678237D01*
X79346166Y-73677526D01*
X79352702Y-73675345D01*
X79352704Y-73675345D01*
X79494421Y-73628064D01*
X79513946Y-73621550D01*
X79664348Y-73528478D01*
X79789305Y-73403303D01*
X79794595Y-73394721D01*
X79878275Y-73258968D01*
X79878276Y-73258966D01*
X79882115Y-73252738D01*
X79937797Y-73084861D01*
X79948500Y-72980400D01*
X79948500Y-72354600D01*
X79947156Y-72341646D01*
X79938238Y-72255692D01*
X79938237Y-72255688D01*
X79937526Y-72248834D01*
X79908486Y-72161789D01*
X79883868Y-72088002D01*
X79881550Y-72081054D01*
X79788478Y-71930652D01*
X79701891Y-71844216D01*
X79667812Y-71781934D01*
X79672815Y-71711114D01*
X79701736Y-71666025D01*
X79784134Y-71583483D01*
X79789305Y-71578303D01*
X79882115Y-71427738D01*
X79937797Y-71259861D01*
X79948500Y-71155400D01*
X79948500Y-70582094D01*
X79968502Y-70513973D01*
X79985405Y-70492999D01*
X83450247Y-67028157D01*
X83458537Y-67020613D01*
X83465018Y-67016500D01*
X83511659Y-66966832D01*
X83514413Y-66963991D01*
X83534134Y-66944270D01*
X83536612Y-66941075D01*
X83544319Y-66932052D01*
X83546015Y-66930246D01*
X83607229Y-66894281D01*
X83637864Y-66890500D01*
X83956134Y-66890500D01*
X84018316Y-66883745D01*
X84154705Y-66832615D01*
X84271261Y-66745261D01*
X84358615Y-66628705D01*
X84409745Y-66492316D01*
X84416500Y-66430134D01*
X84416500Y-64633866D01*
X84409745Y-64571684D01*
X84358615Y-64435295D01*
X84271261Y-64318739D01*
X84154705Y-64231385D01*
X84137283Y-64224854D01*
X84025711Y-64183027D01*
X84025709Y-64183027D01*
X84018316Y-64180255D01*
X84012208Y-64179592D01*
X83951238Y-64144763D01*
X83918416Y-64081808D01*
X83924840Y-64011103D01*
X83968470Y-63955095D01*
X84041866Y-63931395D01*
X88322559Y-63925885D01*
X90060792Y-63923648D01*
X90128937Y-63943562D01*
X90175499Y-63997158D01*
X90185693Y-64067419D01*
X90156284Y-64132038D01*
X90150049Y-64138742D01*
X89010975Y-65277815D01*
X87872747Y-66416043D01*
X87864461Y-66423583D01*
X87857982Y-66427695D01*
X87852557Y-66433472D01*
X87811357Y-66477346D01*
X87808602Y-66480188D01*
X87788865Y-66499925D01*
X87786385Y-66503122D01*
X87778682Y-66512142D01*
X87748414Y-66544374D01*
X87744595Y-66551320D01*
X87744593Y-66551323D01*
X87738652Y-66562129D01*
X87727801Y-66578648D01*
X87715386Y-66594654D01*
X87712241Y-66601923D01*
X87712238Y-66601927D01*
X87697826Y-66635232D01*
X87692609Y-66645882D01*
X87671305Y-66684635D01*
X87669334Y-66692310D01*
X87669334Y-66692311D01*
X87666267Y-66704257D01*
X87659863Y-66722961D01*
X87651819Y-66741550D01*
X87650580Y-66749373D01*
X87650577Y-66749383D01*
X87644901Y-66785219D01*
X87642495Y-66796839D01*
X87639722Y-66807641D01*
X87631500Y-66839665D01*
X87631500Y-66859919D01*
X87629949Y-66879629D01*
X87626780Y-66899638D01*
X87627526Y-66907530D01*
X87630941Y-66943656D01*
X87631500Y-66955514D01*
X87631500Y-67242476D01*
X87611498Y-67310597D01*
X87599142Y-67326779D01*
X87525960Y-67408056D01*
X87500012Y-67453000D01*
X87439923Y-67557077D01*
X87430473Y-67573444D01*
X87371458Y-67755072D01*
X87370768Y-67761633D01*
X87370768Y-67761635D01*
X87354590Y-67915566D01*
X87351496Y-67945000D01*
X87352186Y-67951565D01*
X87360384Y-68029560D01*
X87371458Y-68134928D01*
X87430473Y-68316556D01*
X87525960Y-68481944D01*
X87530378Y-68486851D01*
X87530379Y-68486852D01*
X87597942Y-68561888D01*
X87653747Y-68623866D01*
X87747837Y-68692227D01*
X87796256Y-68727405D01*
X87808248Y-68736118D01*
X87814276Y-68738802D01*
X87814278Y-68738803D01*
X87972250Y-68809136D01*
X87982712Y-68813794D01*
X88074541Y-68833313D01*
X88163056Y-68852128D01*
X88163061Y-68852128D01*
X88169513Y-68853500D01*
X88360487Y-68853500D01*
X88366939Y-68852128D01*
X88366944Y-68852128D01*
X88455459Y-68833313D01*
X88547288Y-68813794D01*
X88557750Y-68809136D01*
X88715722Y-68738803D01*
X88715724Y-68738802D01*
X88721752Y-68736118D01*
X88733745Y-68727405D01*
X88782163Y-68692227D01*
X88876253Y-68623866D01*
X88932058Y-68561888D01*
X88999621Y-68486852D01*
X88999622Y-68486851D01*
X89004040Y-68481944D01*
X89099527Y-68316556D01*
X89158542Y-68134928D01*
X89169617Y-68029560D01*
X89177814Y-67951565D01*
X89178504Y-67945000D01*
X89175410Y-67915566D01*
X89159232Y-67761635D01*
X89159232Y-67761633D01*
X89158542Y-67755072D01*
X89099527Y-67573444D01*
X89090078Y-67557077D01*
X89029988Y-67453000D01*
X89004040Y-67408056D01*
X88930863Y-67326785D01*
X88900147Y-67262779D01*
X88898500Y-67242476D01*
X88898500Y-67234289D01*
X88918502Y-67166168D01*
X88935405Y-67145194D01*
X91365194Y-64715405D01*
X91427506Y-64681379D01*
X91454289Y-64678500D01*
X95314629Y-64678500D01*
X95382750Y-64698502D01*
X95429243Y-64752158D01*
X95439347Y-64822432D01*
X95409853Y-64887012D01*
X95403724Y-64893595D01*
X90925589Y-69371730D01*
X90911177Y-69384116D01*
X90899582Y-69392649D01*
X90899577Y-69392654D01*
X90893682Y-69396992D01*
X90888943Y-69402570D01*
X90888940Y-69402573D01*
X90859465Y-69437268D01*
X90852535Y-69444784D01*
X90846840Y-69450479D01*
X90844560Y-69453361D01*
X90829219Y-69472751D01*
X90826428Y-69476155D01*
X90802530Y-69504285D01*
X90779167Y-69531785D01*
X90775839Y-69538301D01*
X90772472Y-69543350D01*
X90769305Y-69548479D01*
X90764766Y-69554216D01*
X90733845Y-69620375D01*
X90731942Y-69624269D01*
X90698731Y-69689308D01*
X90696992Y-69696416D01*
X90694893Y-69702059D01*
X90692976Y-69707822D01*
X90689878Y-69714450D01*
X90688388Y-69721612D01*
X90688388Y-69721613D01*
X90675014Y-69785912D01*
X90674044Y-69790196D01*
X90656692Y-69861110D01*
X90656344Y-69866712D01*
X90656344Y-69866715D01*
X90656000Y-69872262D01*
X90656000Y-69872264D01*
X90655964Y-69872262D01*
X90655725Y-69876255D01*
X90655351Y-69880447D01*
X90653860Y-69887615D01*
X90654058Y-69894932D01*
X90655954Y-69965021D01*
X90656000Y-69968428D01*
X90656000Y-72643892D01*
X90639119Y-72706891D01*
X90579973Y-72809335D01*
X90520958Y-72990963D01*
X90520268Y-72997524D01*
X90520268Y-72997526D01*
X90516388Y-73034444D01*
X90500996Y-73180891D01*
X90501686Y-73187456D01*
X90508622Y-73253444D01*
X90520958Y-73370819D01*
X90579973Y-73552447D01*
X90675460Y-73717835D01*
X90679878Y-73722742D01*
X90679879Y-73722743D01*
X90729233Y-73777556D01*
X90803247Y-73859757D01*
X90876505Y-73912982D01*
X90931461Y-73952910D01*
X90957748Y-73972009D01*
X90963776Y-73974693D01*
X90963778Y-73974694D01*
X91126181Y-74047000D01*
X91132212Y-74049685D01*
X91225612Y-74069538D01*
X91312556Y-74088019D01*
X91312561Y-74088019D01*
X91319013Y-74089391D01*
X91509987Y-74089391D01*
X91516439Y-74088019D01*
X91516444Y-74088019D01*
X91603388Y-74069538D01*
X91696788Y-74049685D01*
X91702819Y-74047000D01*
X91865222Y-73974694D01*
X91865224Y-73974693D01*
X91871252Y-73972009D01*
X91897540Y-73952910D01*
X91952495Y-73912982D01*
X92025753Y-73859757D01*
X92099767Y-73777556D01*
X92149121Y-73722743D01*
X92149122Y-73722742D01*
X92153540Y-73717835D01*
X92249027Y-73552447D01*
X92308042Y-73370819D01*
X92320379Y-73253444D01*
X92327314Y-73187456D01*
X92328004Y-73180891D01*
X92312612Y-73034444D01*
X92308732Y-72997526D01*
X92308732Y-72997524D01*
X92308042Y-72990963D01*
X92249027Y-72809335D01*
X92189881Y-72706891D01*
X92173000Y-72643892D01*
X92173000Y-70321871D01*
X92193002Y-70253750D01*
X92209905Y-70232776D01*
X95469124Y-66973557D01*
X95531436Y-66939531D01*
X95602251Y-66944596D01*
X95659087Y-66987143D01*
X95678052Y-67023717D01*
X95685473Y-67046556D01*
X95688776Y-67052278D01*
X95688777Y-67052279D01*
X95702075Y-67075312D01*
X95780960Y-67211944D01*
X95785378Y-67216851D01*
X95785379Y-67216852D01*
X95904325Y-67348955D01*
X95908747Y-67353866D01*
X95983333Y-67408056D01*
X96045193Y-67453000D01*
X96063248Y-67466118D01*
X96069276Y-67468802D01*
X96069278Y-67468803D01*
X96231681Y-67541109D01*
X96237712Y-67543794D01*
X96330063Y-67563424D01*
X96418056Y-67582128D01*
X96418061Y-67582128D01*
X96424513Y-67583500D01*
X96615487Y-67583500D01*
X96621939Y-67582128D01*
X96621944Y-67582128D01*
X96709937Y-67563424D01*
X96802288Y-67543794D01*
X96808319Y-67541109D01*
X96970722Y-67468803D01*
X96970724Y-67468802D01*
X96976752Y-67466118D01*
X96994808Y-67453000D01*
X97056667Y-67408056D01*
X97131253Y-67353866D01*
X97135675Y-67348955D01*
X97254621Y-67216852D01*
X97254622Y-67216851D01*
X97259040Y-67211944D01*
X97337925Y-67075312D01*
X97351223Y-67052279D01*
X97351224Y-67052278D01*
X97354527Y-67046556D01*
X97413542Y-66864928D01*
X97415222Y-66848949D01*
X97430907Y-66699708D01*
X97457920Y-66634051D01*
X97467122Y-66623782D01*
X97539582Y-66551323D01*
X97637258Y-66453647D01*
X97645537Y-66446113D01*
X97652018Y-66442000D01*
X97698644Y-66392348D01*
X97701398Y-66389507D01*
X97721135Y-66369770D01*
X97723615Y-66366573D01*
X97731320Y-66357551D01*
X97733124Y-66355630D01*
X97761586Y-66325321D01*
X97765405Y-66318375D01*
X97765407Y-66318372D01*
X97771348Y-66307566D01*
X97782199Y-66291047D01*
X97789758Y-66281301D01*
X97794614Y-66275041D01*
X97797759Y-66267772D01*
X97797762Y-66267768D01*
X97812174Y-66234463D01*
X97817391Y-66223813D01*
X97838695Y-66185060D01*
X97843733Y-66165437D01*
X97850137Y-66146734D01*
X97855033Y-66135420D01*
X97855033Y-66135419D01*
X97858181Y-66128145D01*
X97859420Y-66120322D01*
X97859423Y-66120312D01*
X97865099Y-66084476D01*
X97867505Y-66072856D01*
X97876528Y-66037711D01*
X97876528Y-66037710D01*
X97878500Y-66030030D01*
X97878500Y-66009776D01*
X97880051Y-65990065D01*
X97881980Y-65977886D01*
X97883220Y-65970057D01*
X97879059Y-65926038D01*
X97878500Y-65914181D01*
X97878500Y-64628463D01*
X97879027Y-64617280D01*
X97880702Y-64609787D01*
X97879505Y-64571684D01*
X97878562Y-64541697D01*
X97878500Y-64537739D01*
X97878500Y-64509839D01*
X97877996Y-64505848D01*
X97877063Y-64494006D01*
X97875923Y-64457731D01*
X97875674Y-64449806D01*
X97870021Y-64430347D01*
X97866012Y-64410988D01*
X97865846Y-64409678D01*
X97863474Y-64390898D01*
X97860558Y-64383532D01*
X97860556Y-64383526D01*
X97847200Y-64349793D01*
X97843355Y-64338563D01*
X97833230Y-64303712D01*
X97833230Y-64303711D01*
X97831019Y-64296102D01*
X97824889Y-64285736D01*
X97820705Y-64278661D01*
X97812008Y-64260908D01*
X97807472Y-64249453D01*
X97804552Y-64242078D01*
X97778563Y-64206307D01*
X97772047Y-64196387D01*
X97770247Y-64193343D01*
X97749542Y-64158333D01*
X97735221Y-64144012D01*
X97722386Y-64128985D01*
X97711302Y-64113731D01*
X97687445Y-64046865D01*
X97703525Y-63977713D01*
X97754438Y-63928233D01*
X97813077Y-63913671D01*
X117011399Y-63888962D01*
X117079545Y-63908876D01*
G37*
%TD.AperFunction*%
%TA.AperFunction,Conductor*%
G36*
X76790026Y-66207144D02*
G01*
X76817875Y-66238994D01*
X76877987Y-66337088D01*
X77024250Y-66505938D01*
X77148013Y-66608688D01*
X77186553Y-66640684D01*
X77196126Y-66648632D01*
X77282070Y-66698853D01*
X77330794Y-66750491D01*
X77344500Y-66807641D01*
X77344500Y-67479906D01*
X77324498Y-67548027D01*
X77307595Y-67569001D01*
X75092000Y-69784595D01*
X75029688Y-69818621D01*
X75002905Y-69821500D01*
X74429600Y-69821500D01*
X74426354Y-69821837D01*
X74426350Y-69821837D01*
X74330692Y-69831762D01*
X74330688Y-69831763D01*
X74323834Y-69832474D01*
X74317298Y-69834655D01*
X74317296Y-69834655D01*
X74210378Y-69870326D01*
X74156054Y-69888450D01*
X74149822Y-69892306D01*
X74149823Y-69892306D01*
X74043877Y-69957867D01*
X73975425Y-69976705D01*
X73911458Y-69957983D01*
X73803968Y-69891725D01*
X73803966Y-69891724D01*
X73797738Y-69887885D01*
X73744832Y-69870337D01*
X73686473Y-69829906D01*
X73659236Y-69764342D01*
X73658500Y-69750744D01*
X73658500Y-68259594D01*
X73678502Y-68191473D01*
X73695405Y-68170499D01*
X74982549Y-66883355D01*
X75044861Y-66849329D01*
X75096762Y-66848979D01*
X75276597Y-66885567D01*
X75281772Y-66885757D01*
X75281774Y-66885757D01*
X75494673Y-66893564D01*
X75494677Y-66893564D01*
X75499837Y-66893753D01*
X75504957Y-66893097D01*
X75504959Y-66893097D01*
X75716288Y-66866025D01*
X75716289Y-66866025D01*
X75721416Y-66865368D01*
X75726366Y-66863883D01*
X75930429Y-66802661D01*
X75930434Y-66802659D01*
X75935384Y-66801174D01*
X76135994Y-66702896D01*
X76317860Y-66573173D01*
X76339787Y-66551323D01*
X76406884Y-66484460D01*
X76476096Y-66415489D01*
X76506934Y-66372574D01*
X76606453Y-66234077D01*
X76607776Y-66235028D01*
X76654645Y-66191857D01*
X76724580Y-66179625D01*
X76790026Y-66207144D01*
G37*
%TD.AperFunction*%
%TD*%
M02*
