%TF.GenerationSoftware,KiCad,Pcbnew,(6.0.9)*%
%TF.CreationDate,2023-05-20T11:21:48+02:00*%
%TF.ProjectId,sdrt41,73647274-3431-42e6-9b69-6361645f7063,rev?*%
%TF.SameCoordinates,Original*%
%TF.FileFunction,Paste,Top*%
%TF.FilePolarity,Positive*%
%FSLAX46Y46*%
G04 Gerber Fmt 4.6, Leading zero omitted, Abs format (unit mm)*
G04 Created by KiCad (PCBNEW (6.0.9)) date 2023-05-20 11:21:48*
%MOMM*%
%LPD*%
G01*
G04 APERTURE LIST*
G04 Aperture macros list*
%AMRoundRect*
0 Rectangle with rounded corners*
0 $1 Rounding radius*
0 $2 $3 $4 $5 $6 $7 $8 $9 X,Y pos of 4 corners*
0 Add a 4 corners polygon primitive as box body*
4,1,4,$2,$3,$4,$5,$6,$7,$8,$9,$2,$3,0*
0 Add four circle primitives for the rounded corners*
1,1,$1+$1,$2,$3*
1,1,$1+$1,$4,$5*
1,1,$1+$1,$6,$7*
1,1,$1+$1,$8,$9*
0 Add four rect primitives between the rounded corners*
20,1,$1+$1,$2,$3,$4,$5,0*
20,1,$1+$1,$4,$5,$6,$7,0*
20,1,$1+$1,$6,$7,$8,$9,0*
20,1,$1+$1,$8,$9,$2,$3,0*%
G04 Aperture macros list end*
%ADD10RoundRect,0.250000X-0.450000X0.262500X-0.450000X-0.262500X0.450000X-0.262500X0.450000X0.262500X0*%
%ADD11RoundRect,0.250000X-0.475000X0.250000X-0.475000X-0.250000X0.475000X-0.250000X0.475000X0.250000X0*%
%ADD12RoundRect,0.250000X0.475000X-0.250000X0.475000X0.250000X-0.475000X0.250000X-0.475000X-0.250000X0*%
%ADD13RoundRect,0.250000X-0.262500X-0.450000X0.262500X-0.450000X0.262500X0.450000X-0.262500X0.450000X0*%
%ADD14RoundRect,0.250000X0.325000X0.650000X-0.325000X0.650000X-0.325000X-0.650000X0.325000X-0.650000X0*%
%ADD15RoundRect,0.250000X0.262500X0.450000X-0.262500X0.450000X-0.262500X-0.450000X0.262500X-0.450000X0*%
%ADD16RoundRect,0.250000X-0.650000X0.325000X-0.650000X-0.325000X0.650000X-0.325000X0.650000X0.325000X0*%
%ADD17RoundRect,0.250000X-0.250000X-0.475000X0.250000X-0.475000X0.250000X0.475000X-0.250000X0.475000X0*%
%ADD18RoundRect,0.250000X0.250000X0.475000X-0.250000X0.475000X-0.250000X-0.475000X0.250000X-0.475000X0*%
%ADD19R,0.300000X1.400000*%
%ADD20RoundRect,0.150000X0.150000X-0.587500X0.150000X0.587500X-0.150000X0.587500X-0.150000X-0.587500X0*%
%ADD21RoundRect,0.218750X0.218750X0.256250X-0.218750X0.256250X-0.218750X-0.256250X0.218750X-0.256250X0*%
%ADD22RoundRect,0.250000X0.450000X-0.262500X0.450000X0.262500X-0.450000X0.262500X-0.450000X-0.262500X0*%
%ADD23RoundRect,0.218750X-0.256250X0.218750X-0.256250X-0.218750X0.256250X-0.218750X0.256250X0.218750X0*%
%ADD24RoundRect,0.150000X0.150000X-0.725000X0.150000X0.725000X-0.150000X0.725000X-0.150000X-0.725000X0*%
%ADD25RoundRect,0.100000X-0.637500X-0.100000X0.637500X-0.100000X0.637500X0.100000X-0.637500X0.100000X0*%
%ADD26R,1.400000X1.200000*%
%ADD27RoundRect,0.250000X-0.325000X-0.650000X0.325000X-0.650000X0.325000X0.650000X-0.325000X0.650000X0*%
%ADD28RoundRect,0.150000X-0.725000X-0.150000X0.725000X-0.150000X0.725000X0.150000X-0.725000X0.150000X0*%
%ADD29RoundRect,0.218750X-0.218750X-0.256250X0.218750X-0.256250X0.218750X0.256250X-0.218750X0.256250X0*%
%ADD30RoundRect,0.150000X0.725000X0.150000X-0.725000X0.150000X-0.725000X-0.150000X0.725000X-0.150000X0*%
%ADD31RoundRect,0.100000X-0.100000X0.637500X-0.100000X-0.637500X0.100000X-0.637500X0.100000X0.637500X0*%
%ADD32RoundRect,0.150000X-0.587500X-0.150000X0.587500X-0.150000X0.587500X0.150000X-0.587500X0.150000X0*%
G04 APERTURE END LIST*
D10*
%TO.C,R18*%
X96520000Y-64850000D03*
X96520000Y-66675000D03*
%TD*%
%TO.C,R15*%
X98425000Y-64850000D03*
X98425000Y-66675000D03*
%TD*%
D11*
%TO.C,C37*%
X118491000Y-108016000D03*
X118491000Y-109916000D03*
%TD*%
D12*
%TO.C,C6*%
X51308000Y-111567000D03*
X51308000Y-109667000D03*
%TD*%
D13*
%TO.C,R19*%
X74525500Y-94234000D03*
X76350500Y-94234000D03*
%TD*%
D14*
%TO.C,C11*%
X97741000Y-93218000D03*
X94791000Y-93218000D03*
%TD*%
D15*
%TO.C,R38*%
X107465500Y-106934000D03*
X105640500Y-106934000D03*
%TD*%
D16*
%TO.C,C2*%
X57277000Y-96696000D03*
X57277000Y-99646000D03*
%TD*%
D13*
%TO.C,R4*%
X55983500Y-101981000D03*
X57808500Y-101981000D03*
%TD*%
D15*
%TO.C,R17*%
X77493500Y-114935000D03*
X75668500Y-114935000D03*
%TD*%
D17*
%TO.C,C10*%
X65979000Y-98679000D03*
X67879000Y-98679000D03*
%TD*%
D18*
%TO.C,C20*%
X101788000Y-93726000D03*
X99888000Y-93726000D03*
%TD*%
D17*
%TO.C,C29*%
X95570000Y-96520000D03*
X97470000Y-96520000D03*
%TD*%
D19*
%TO.C,U6*%
X97224289Y-68948887D03*
X96724289Y-68948887D03*
X96224289Y-68948887D03*
X95724289Y-68948887D03*
X95224289Y-68948887D03*
X95224289Y-73348887D03*
X95724289Y-73348887D03*
X96224289Y-73348887D03*
X96724289Y-73348887D03*
X97224289Y-73348887D03*
%TD*%
D20*
%TO.C,Q1*%
X51247000Y-107363500D03*
X53147000Y-107363500D03*
X52197000Y-105488500D03*
%TD*%
D17*
%TO.C,C18*%
X91226497Y-75184000D03*
X93126497Y-75184000D03*
%TD*%
D21*
%TO.C,L6*%
X101498500Y-96215200D03*
X99923500Y-96215200D03*
%TD*%
D11*
%TO.C,C15*%
X71628000Y-101285000D03*
X71628000Y-103185000D03*
%TD*%
D18*
%TO.C,C21*%
X79690000Y-98740000D03*
X77790000Y-98740000D03*
%TD*%
D16*
%TO.C,C26*%
X87630000Y-92300000D03*
X87630000Y-95250000D03*
%TD*%
D18*
%TO.C,C7*%
X59624000Y-73279000D03*
X57724000Y-73279000D03*
%TD*%
D13*
%TO.C,R37*%
X105640500Y-104902000D03*
X107465500Y-104902000D03*
%TD*%
D15*
%TO.C,R22*%
X92884000Y-109220000D03*
X91059000Y-109220000D03*
%TD*%
D22*
%TO.C,R33*%
X108839000Y-114958500D03*
X108839000Y-113133500D03*
%TD*%
D15*
%TO.C,R25*%
X97432500Y-99949000D03*
X95607500Y-99949000D03*
%TD*%
D22*
%TO.C,R6*%
X70104000Y-70675880D03*
X70104000Y-68850880D03*
%TD*%
D17*
%TO.C,C23*%
X80584000Y-114935000D03*
X82484000Y-114935000D03*
%TD*%
D23*
%TO.C,L8*%
X107569000Y-101320500D03*
X107569000Y-102895500D03*
%TD*%
D15*
%TO.C,R13*%
X84224500Y-108712000D03*
X82399500Y-108712000D03*
%TD*%
D23*
%TO.C,L4*%
X82550000Y-93700500D03*
X82550000Y-95275500D03*
%TD*%
D21*
%TO.C,L7*%
X79682500Y-91700000D03*
X78107500Y-91700000D03*
%TD*%
D11*
%TO.C,C13*%
X76835000Y-104587000D03*
X76835000Y-106487000D03*
%TD*%
D22*
%TO.C,R11*%
X80391000Y-102573500D03*
X80391000Y-100748500D03*
%TD*%
D12*
%TO.C,C38*%
X105283000Y-98232000D03*
X105283000Y-96332000D03*
%TD*%
D13*
%TO.C,R31*%
X99417500Y-109220000D03*
X101242500Y-109220000D03*
%TD*%
D17*
%TO.C,C33*%
X106111000Y-93980000D03*
X108011000Y-93980000D03*
%TD*%
D13*
%TO.C,R27*%
X91162500Y-96647000D03*
X92987500Y-96647000D03*
%TD*%
%TO.C,R32*%
X91162500Y-93599000D03*
X92987500Y-93599000D03*
%TD*%
%TO.C,R24*%
X95480500Y-112776000D03*
X97305500Y-112776000D03*
%TD*%
D17*
%TO.C,C17*%
X77917000Y-108773000D03*
X79817000Y-108773000D03*
%TD*%
D23*
%TO.C,L1*%
X52070000Y-98145500D03*
X52070000Y-99720500D03*
%TD*%
D12*
%TO.C,C22*%
X73380600Y-113522800D03*
X73380600Y-111622800D03*
%TD*%
D24*
%TO.C,U8*%
X109728000Y-105953000D03*
X110998000Y-105953000D03*
X112268000Y-105953000D03*
X113538000Y-105953000D03*
X113538000Y-100803000D03*
X112268000Y-100803000D03*
X110998000Y-100803000D03*
X109728000Y-100803000D03*
%TD*%
D22*
%TO.C,R36*%
X112395000Y-98194500D03*
X112395000Y-96369500D03*
%TD*%
D25*
%TO.C,U4*%
X63050500Y-101103000D03*
X63050500Y-101753000D03*
X63050500Y-102403000D03*
X63050500Y-103053000D03*
X63050500Y-103703000D03*
X63050500Y-104353000D03*
X63050500Y-105003000D03*
X63050500Y-105653000D03*
X68775500Y-105653000D03*
X68775500Y-105003000D03*
X68775500Y-104353000D03*
X68775500Y-103703000D03*
X68775500Y-103053000D03*
X68775500Y-102403000D03*
X68775500Y-101753000D03*
X68775500Y-101103000D03*
%TD*%
D23*
%TO.C,L2*%
X87122000Y-71653300D03*
X87122000Y-73228300D03*
%TD*%
D18*
%TO.C,C9*%
X86802000Y-75184000D03*
X84902000Y-75184000D03*
%TD*%
D10*
%TO.C,R42*%
X107569000Y-96369500D03*
X107569000Y-98194500D03*
%TD*%
D15*
%TO.C,R35*%
X111783500Y-110998000D03*
X109958500Y-110998000D03*
%TD*%
D13*
%TO.C,R3*%
X51284500Y-102108000D03*
X53109500Y-102108000D03*
%TD*%
D12*
%TO.C,C35*%
X111379000Y-115504000D03*
X111379000Y-113604000D03*
%TD*%
D11*
%TO.C,C34*%
X114935000Y-92776000D03*
X114935000Y-94676000D03*
%TD*%
D15*
%TO.C,R12*%
X77366500Y-111760000D03*
X75541500Y-111760000D03*
%TD*%
%TO.C,R28*%
X97432500Y-109220000D03*
X95607500Y-109220000D03*
%TD*%
D22*
%TO.C,R5*%
X56261000Y-111529500D03*
X56261000Y-109704500D03*
%TD*%
D26*
%TO.C,Y1*%
X92498291Y-68901889D03*
X90298291Y-68901889D03*
X90298291Y-70601889D03*
X92498291Y-70601889D03*
%TD*%
D11*
%TO.C,C14*%
X76835000Y-100711000D03*
X76835000Y-102611000D03*
%TD*%
D17*
%TO.C,C31*%
X103571000Y-110998000D03*
X105471000Y-110998000D03*
%TD*%
D27*
%TO.C,C25*%
X90600000Y-112649000D03*
X93550000Y-112649000D03*
%TD*%
D18*
%TO.C,C16*%
X71384200Y-111861600D03*
X69484200Y-111861600D03*
%TD*%
D28*
%TO.C,U7*%
X95469000Y-102616000D03*
X95469000Y-103886000D03*
X95469000Y-105156000D03*
X95469000Y-106426000D03*
X100619000Y-106426000D03*
X100619000Y-105156000D03*
X100619000Y-103886000D03*
X100619000Y-102616000D03*
%TD*%
D15*
%TO.C,R10*%
X71651500Y-96139000D03*
X69826500Y-96139000D03*
%TD*%
D11*
%TO.C,C12*%
X84963000Y-93284000D03*
X84963000Y-95184000D03*
%TD*%
D10*
%TO.C,R41*%
X116205000Y-108053500D03*
X116205000Y-109878500D03*
%TD*%
D22*
%TO.C,R9*%
X80391000Y-106383500D03*
X80391000Y-104558500D03*
%TD*%
D15*
%TO.C,R21*%
X92987500Y-99949000D03*
X91162500Y-99949000D03*
%TD*%
D29*
%TO.C,L3*%
X65887500Y-96520000D03*
X67462500Y-96520000D03*
%TD*%
D13*
%TO.C,R20*%
X78335500Y-94234000D03*
X80160500Y-94234000D03*
%TD*%
D12*
%TO.C,C8*%
X60706000Y-80513000D03*
X60706000Y-78613000D03*
%TD*%
D10*
%TO.C,R34*%
X112395000Y-92813500D03*
X112395000Y-94638500D03*
%TD*%
D11*
%TO.C,C32*%
X104013000Y-101158000D03*
X104013000Y-103058000D03*
%TD*%
D10*
%TO.C,R7*%
X85191600Y-71375900D03*
X85191600Y-73200900D03*
%TD*%
D13*
%TO.C,R14*%
X85574500Y-99822000D03*
X87399500Y-99822000D03*
%TD*%
D18*
%TO.C,C28*%
X101280000Y-112776000D03*
X99380000Y-112776000D03*
%TD*%
D30*
%TO.C,U5*%
X89316000Y-106360000D03*
X89316000Y-105090000D03*
X89316000Y-103820000D03*
X89316000Y-102550000D03*
X84166000Y-102550000D03*
X84166000Y-103820000D03*
X84166000Y-105090000D03*
X84166000Y-106360000D03*
%TD*%
D11*
%TO.C,C5*%
X54610000Y-97856000D03*
X54610000Y-99756000D03*
%TD*%
D10*
%TO.C,R1*%
X53721000Y-109704500D03*
X53721000Y-111529500D03*
%TD*%
D17*
%TO.C,C36*%
X105603000Y-108966000D03*
X107503000Y-108966000D03*
%TD*%
D31*
%TO.C,U3*%
X82823000Y-69273500D03*
X82173000Y-69273500D03*
X81523000Y-69273500D03*
X80873000Y-69273500D03*
X80223000Y-69273500D03*
X79573000Y-69273500D03*
X78923000Y-69273500D03*
X78273000Y-69273500D03*
X77623000Y-69273500D03*
X76973000Y-69273500D03*
X76323000Y-69273500D03*
X75673000Y-69273500D03*
X75673000Y-74998500D03*
X76323000Y-74998500D03*
X76973000Y-74998500D03*
X77623000Y-74998500D03*
X78273000Y-74998500D03*
X78923000Y-74998500D03*
X79573000Y-74998500D03*
X80223000Y-74998500D03*
X80873000Y-74998500D03*
X81523000Y-74998500D03*
X82173000Y-74998500D03*
X82823000Y-74998500D03*
%TD*%
D22*
%TO.C,R40*%
X109855000Y-98194500D03*
X109855000Y-96369500D03*
%TD*%
D13*
%TO.C,R39*%
X109958500Y-108458000D03*
X111783500Y-108458000D03*
%TD*%
D15*
%TO.C,R16*%
X82446500Y-111760000D03*
X80621500Y-111760000D03*
%TD*%
D22*
%TO.C,R2*%
X72136000Y-70675880D03*
X72136000Y-68850880D03*
%TD*%
D17*
%TO.C,C19*%
X69789000Y-98679000D03*
X71689000Y-98679000D03*
%TD*%
%TO.C,C24*%
X74488000Y-91694000D03*
X76388000Y-91694000D03*
%TD*%
D22*
%TO.C,R8*%
X58801000Y-111529500D03*
X58801000Y-109704500D03*
%TD*%
D32*
%TO.C,Q2*%
X56339500Y-105476000D03*
X56339500Y-107376000D03*
X58214500Y-106426000D03*
%TD*%
D12*
%TO.C,C30*%
X92964000Y-106934000D03*
X92964000Y-105034000D03*
%TD*%
D29*
%TO.C,L5*%
X91414500Y-73180891D03*
X92989500Y-73180891D03*
%TD*%
D18*
%TO.C,C27*%
X101407000Y-99949000D03*
X99507000Y-99949000D03*
%TD*%
M02*
