%TF.GenerationSoftware,KiCad,Pcbnew,(6.0.9)*%
%TF.CreationDate,2023-05-20T11:21:48+02:00*%
%TF.ProjectId,sdrt41,73647274-3431-42e6-9b69-6361645f7063,rev?*%
%TF.SameCoordinates,Original*%
%TF.FileFunction,Legend,Top*%
%TF.FilePolarity,Positive*%
%FSLAX46Y46*%
G04 Gerber Fmt 4.6, Leading zero omitted, Abs format (unit mm)*
G04 Created by KiCad (PCBNEW (6.0.9)) date 2023-05-20 11:21:48*
%MOMM*%
%LPD*%
G01*
G04 APERTURE LIST*
%ADD10C,0.150000*%
%ADD11C,0.120000*%
G04 APERTURE END LIST*
D10*
X121356380Y-86486190D02*
X120356380Y-86486190D01*
X120356380Y-86105238D01*
X120404000Y-86010000D01*
X120451619Y-85962380D01*
X120546857Y-85914761D01*
X120689714Y-85914761D01*
X120784952Y-85962380D01*
X120832571Y-86010000D01*
X120880190Y-86105238D01*
X120880190Y-86486190D01*
X121070666Y-85533809D02*
X121070666Y-85057619D01*
X121356380Y-85629047D02*
X120356380Y-85295714D01*
X121356380Y-84962380D01*
X120356380Y-84438571D02*
X120356380Y-84343333D01*
X120404000Y-84248095D01*
X120451619Y-84200476D01*
X120546857Y-84152857D01*
X120737333Y-84105238D01*
X120975428Y-84105238D01*
X121165904Y-84152857D01*
X121261142Y-84200476D01*
X121308761Y-84248095D01*
X121356380Y-84343333D01*
X121356380Y-84438571D01*
X121308761Y-84533809D01*
X121261142Y-84581428D01*
X121165904Y-84629047D01*
X120975428Y-84676666D01*
X120737333Y-84676666D01*
X120546857Y-84629047D01*
X120451619Y-84581428D01*
X120404000Y-84533809D01*
X120356380Y-84438571D01*
X121356380Y-83676666D02*
X120356380Y-83676666D01*
X120356380Y-83295714D01*
X120404000Y-83200476D01*
X120451619Y-83152857D01*
X120546857Y-83105238D01*
X120689714Y-83105238D01*
X120784952Y-83152857D01*
X120832571Y-83200476D01*
X120880190Y-83295714D01*
X120880190Y-83676666D01*
X121356380Y-82676666D02*
X120356380Y-82676666D01*
X120832571Y-82676666D02*
X120832571Y-82105238D01*
X121356380Y-82105238D02*
X120356380Y-82105238D01*
X121356380Y-81629047D02*
X120356380Y-81629047D01*
X120832571Y-81629047D02*
X120832571Y-81057619D01*
X121356380Y-81057619D02*
X120356380Y-81057619D01*
X120451619Y-79867142D02*
X120404000Y-79819523D01*
X120356380Y-79724285D01*
X120356380Y-79486190D01*
X120404000Y-79390952D01*
X120451619Y-79343333D01*
X120546857Y-79295714D01*
X120642095Y-79295714D01*
X120784952Y-79343333D01*
X121356380Y-79914761D01*
X121356380Y-79295714D01*
X120356380Y-78676666D02*
X120356380Y-78581428D01*
X120404000Y-78486190D01*
X120451619Y-78438571D01*
X120546857Y-78390952D01*
X120737333Y-78343333D01*
X120975428Y-78343333D01*
X121165904Y-78390952D01*
X121261142Y-78438571D01*
X121308761Y-78486190D01*
X121356380Y-78581428D01*
X121356380Y-78676666D01*
X121308761Y-78771904D01*
X121261142Y-78819523D01*
X121165904Y-78867142D01*
X120975428Y-78914761D01*
X120737333Y-78914761D01*
X120546857Y-78867142D01*
X120451619Y-78819523D01*
X120404000Y-78771904D01*
X120356380Y-78676666D01*
X120451619Y-77962380D02*
X120404000Y-77914761D01*
X120356380Y-77819523D01*
X120356380Y-77581428D01*
X120404000Y-77486190D01*
X120451619Y-77438571D01*
X120546857Y-77390952D01*
X120642095Y-77390952D01*
X120784952Y-77438571D01*
X121356380Y-78010000D01*
X121356380Y-77390952D01*
X120356380Y-77057619D02*
X120356380Y-76438571D01*
X120737333Y-76771904D01*
X120737333Y-76629047D01*
X120784952Y-76533809D01*
X120832571Y-76486190D01*
X120927809Y-76438571D01*
X121165904Y-76438571D01*
X121261142Y-76486190D01*
X121308761Y-76533809D01*
X121356380Y-76629047D01*
X121356380Y-76914761D01*
X121308761Y-77010000D01*
X121261142Y-77057619D01*
X121737333Y-74962380D02*
X121689714Y-75010000D01*
X121546857Y-75105238D01*
X121451619Y-75152857D01*
X121308761Y-75200476D01*
X121070666Y-75248095D01*
X120880190Y-75248095D01*
X120642095Y-75200476D01*
X120499238Y-75152857D01*
X120404000Y-75105238D01*
X120261142Y-75010000D01*
X120213523Y-74962380D01*
X121308761Y-74152857D02*
X121356380Y-74248095D01*
X121356380Y-74438571D01*
X121308761Y-74533809D01*
X121261142Y-74581428D01*
X121165904Y-74629047D01*
X120880190Y-74629047D01*
X120784952Y-74581428D01*
X120737333Y-74533809D01*
X120689714Y-74438571D01*
X120689714Y-74248095D01*
X120737333Y-74152857D01*
X121737333Y-73819523D02*
X121689714Y-73771904D01*
X121546857Y-73676666D01*
X121451619Y-73629047D01*
X121308761Y-73581428D01*
X121070666Y-73533809D01*
X120880190Y-73533809D01*
X120642095Y-73581428D01*
X120499238Y-73629047D01*
X120404000Y-73676666D01*
X120261142Y-73771904D01*
X120213523Y-73819523D01*
%TO.C,R18*%
X94940380Y-66405357D02*
X94464190Y-66738690D01*
X94940380Y-66976785D02*
X93940380Y-66976785D01*
X93940380Y-66595833D01*
X93988000Y-66500595D01*
X94035619Y-66452976D01*
X94130857Y-66405357D01*
X94273714Y-66405357D01*
X94368952Y-66452976D01*
X94416571Y-66500595D01*
X94464190Y-66595833D01*
X94464190Y-66976785D01*
X94940380Y-65452976D02*
X94940380Y-66024404D01*
X94940380Y-65738690D02*
X93940380Y-65738690D01*
X94083238Y-65833928D01*
X94178476Y-65929166D01*
X94226095Y-66024404D01*
X94368952Y-64881547D02*
X94321333Y-64976785D01*
X94273714Y-65024404D01*
X94178476Y-65072023D01*
X94130857Y-65072023D01*
X94035619Y-65024404D01*
X93988000Y-64976785D01*
X93940380Y-64881547D01*
X93940380Y-64691071D01*
X93988000Y-64595833D01*
X94035619Y-64548214D01*
X94130857Y-64500595D01*
X94178476Y-64500595D01*
X94273714Y-64548214D01*
X94321333Y-64595833D01*
X94368952Y-64691071D01*
X94368952Y-64881547D01*
X94416571Y-64976785D01*
X94464190Y-65024404D01*
X94559428Y-65072023D01*
X94749904Y-65072023D01*
X94845142Y-65024404D01*
X94892761Y-64976785D01*
X94940380Y-64881547D01*
X94940380Y-64691071D01*
X94892761Y-64595833D01*
X94845142Y-64548214D01*
X94749904Y-64500595D01*
X94559428Y-64500595D01*
X94464190Y-64548214D01*
X94416571Y-64595833D01*
X94368952Y-64691071D01*
%TO.C,R15*%
X100782380Y-66428857D02*
X100306190Y-66762190D01*
X100782380Y-67000285D02*
X99782380Y-67000285D01*
X99782380Y-66619333D01*
X99830000Y-66524095D01*
X99877619Y-66476476D01*
X99972857Y-66428857D01*
X100115714Y-66428857D01*
X100210952Y-66476476D01*
X100258571Y-66524095D01*
X100306190Y-66619333D01*
X100306190Y-67000285D01*
X100782380Y-65476476D02*
X100782380Y-66047904D01*
X100782380Y-65762190D02*
X99782380Y-65762190D01*
X99925238Y-65857428D01*
X100020476Y-65952666D01*
X100068095Y-66047904D01*
X99782380Y-64571714D02*
X99782380Y-65047904D01*
X100258571Y-65095523D01*
X100210952Y-65047904D01*
X100163333Y-64952666D01*
X100163333Y-64714571D01*
X100210952Y-64619333D01*
X100258571Y-64571714D01*
X100353809Y-64524095D01*
X100591904Y-64524095D01*
X100687142Y-64571714D01*
X100734761Y-64619333D01*
X100782380Y-64714571D01*
X100782380Y-64952666D01*
X100734761Y-65047904D01*
X100687142Y-65095523D01*
%TO.C,C37*%
X118041000Y-111756000D02*
X118007666Y-111789333D01*
X117907666Y-111822666D01*
X117841000Y-111822666D01*
X117741000Y-111789333D01*
X117674333Y-111722666D01*
X117641000Y-111656000D01*
X117607666Y-111522666D01*
X117607666Y-111422666D01*
X117641000Y-111289333D01*
X117674333Y-111222666D01*
X117741000Y-111156000D01*
X117841000Y-111122666D01*
X117907666Y-111122666D01*
X118007666Y-111156000D01*
X118041000Y-111189333D01*
X118274333Y-111122666D02*
X118707666Y-111122666D01*
X118474333Y-111389333D01*
X118574333Y-111389333D01*
X118641000Y-111422666D01*
X118674333Y-111456000D01*
X118707666Y-111522666D01*
X118707666Y-111689333D01*
X118674333Y-111756000D01*
X118641000Y-111789333D01*
X118574333Y-111822666D01*
X118374333Y-111822666D01*
X118307666Y-111789333D01*
X118274333Y-111756000D01*
X118941000Y-111122666D02*
X119407666Y-111122666D01*
X119107666Y-111822666D01*
%TO.C,C6*%
X51665142Y-113577666D02*
X51712761Y-113625285D01*
X51760380Y-113768142D01*
X51760380Y-113863380D01*
X51712761Y-114006238D01*
X51617523Y-114101476D01*
X51522285Y-114149095D01*
X51331809Y-114196714D01*
X51188952Y-114196714D01*
X50998476Y-114149095D01*
X50903238Y-114101476D01*
X50808000Y-114006238D01*
X50760380Y-113863380D01*
X50760380Y-113768142D01*
X50808000Y-113625285D01*
X50855619Y-113577666D01*
X50760380Y-112720523D02*
X50760380Y-112911000D01*
X50808000Y-113006238D01*
X50855619Y-113053857D01*
X50998476Y-113149095D01*
X51188952Y-113196714D01*
X51569904Y-113196714D01*
X51665142Y-113149095D01*
X51712761Y-113101476D01*
X51760380Y-113006238D01*
X51760380Y-112815761D01*
X51712761Y-112720523D01*
X51665142Y-112672904D01*
X51569904Y-112625285D01*
X51331809Y-112625285D01*
X51236571Y-112672904D01*
X51188952Y-112720523D01*
X51141333Y-112815761D01*
X51141333Y-113006238D01*
X51188952Y-113101476D01*
X51236571Y-113149095D01*
X51331809Y-113196714D01*
%TO.C,R19*%
X74795142Y-96464380D02*
X74461809Y-95988190D01*
X74223714Y-96464380D02*
X74223714Y-95464380D01*
X74604666Y-95464380D01*
X74699904Y-95512000D01*
X74747523Y-95559619D01*
X74795142Y-95654857D01*
X74795142Y-95797714D01*
X74747523Y-95892952D01*
X74699904Y-95940571D01*
X74604666Y-95988190D01*
X74223714Y-95988190D01*
X75747523Y-96464380D02*
X75176095Y-96464380D01*
X75461809Y-96464380D02*
X75461809Y-95464380D01*
X75366571Y-95607238D01*
X75271333Y-95702476D01*
X75176095Y-95750095D01*
X76223714Y-96464380D02*
X76414190Y-96464380D01*
X76509428Y-96416761D01*
X76557047Y-96369142D01*
X76652285Y-96226285D01*
X76699904Y-96035809D01*
X76699904Y-95654857D01*
X76652285Y-95559619D01*
X76604666Y-95512000D01*
X76509428Y-95464380D01*
X76318952Y-95464380D01*
X76223714Y-95512000D01*
X76176095Y-95559619D01*
X76128476Y-95654857D01*
X76128476Y-95892952D01*
X76176095Y-95988190D01*
X76223714Y-96035809D01*
X76318952Y-96083428D01*
X76509428Y-96083428D01*
X76604666Y-96035809D01*
X76652285Y-95988190D01*
X76699904Y-95892952D01*
%TO.C,C11*%
X95750142Y-91797142D02*
X95702523Y-91844761D01*
X95559666Y-91892380D01*
X95464428Y-91892380D01*
X95321571Y-91844761D01*
X95226333Y-91749523D01*
X95178714Y-91654285D01*
X95131095Y-91463809D01*
X95131095Y-91320952D01*
X95178714Y-91130476D01*
X95226333Y-91035238D01*
X95321571Y-90940000D01*
X95464428Y-90892380D01*
X95559666Y-90892380D01*
X95702523Y-90940000D01*
X95750142Y-90987619D01*
X96702523Y-91892380D02*
X96131095Y-91892380D01*
X96416809Y-91892380D02*
X96416809Y-90892380D01*
X96321571Y-91035238D01*
X96226333Y-91130476D01*
X96131095Y-91178095D01*
X97654904Y-91892380D02*
X97083476Y-91892380D01*
X97369190Y-91892380D02*
X97369190Y-90892380D01*
X97273952Y-91035238D01*
X97178714Y-91130476D01*
X97083476Y-91178095D01*
%TO.C,R38*%
X103309000Y-107250666D02*
X103075666Y-106917333D01*
X102909000Y-107250666D02*
X102909000Y-106550666D01*
X103175666Y-106550666D01*
X103242333Y-106584000D01*
X103275666Y-106617333D01*
X103309000Y-106684000D01*
X103309000Y-106784000D01*
X103275666Y-106850666D01*
X103242333Y-106884000D01*
X103175666Y-106917333D01*
X102909000Y-106917333D01*
X103542333Y-106550666D02*
X103975666Y-106550666D01*
X103742333Y-106817333D01*
X103842333Y-106817333D01*
X103909000Y-106850666D01*
X103942333Y-106884000D01*
X103975666Y-106950666D01*
X103975666Y-107117333D01*
X103942333Y-107184000D01*
X103909000Y-107217333D01*
X103842333Y-107250666D01*
X103642333Y-107250666D01*
X103575666Y-107217333D01*
X103542333Y-107184000D01*
X104375666Y-106850666D02*
X104309000Y-106817333D01*
X104275666Y-106784000D01*
X104242333Y-106717333D01*
X104242333Y-106684000D01*
X104275666Y-106617333D01*
X104309000Y-106584000D01*
X104375666Y-106550666D01*
X104509000Y-106550666D01*
X104575666Y-106584000D01*
X104609000Y-106617333D01*
X104642333Y-106684000D01*
X104642333Y-106717333D01*
X104609000Y-106784000D01*
X104575666Y-106817333D01*
X104509000Y-106850666D01*
X104375666Y-106850666D01*
X104309000Y-106884000D01*
X104275666Y-106917333D01*
X104242333Y-106984000D01*
X104242333Y-107117333D01*
X104275666Y-107184000D01*
X104309000Y-107217333D01*
X104375666Y-107250666D01*
X104509000Y-107250666D01*
X104575666Y-107217333D01*
X104609000Y-107184000D01*
X104642333Y-107117333D01*
X104642333Y-106984000D01*
X104609000Y-106917333D01*
X104575666Y-106884000D01*
X104509000Y-106850666D01*
%TO.C,C2*%
X57634142Y-94908666D02*
X57681761Y-94956285D01*
X57729380Y-95099142D01*
X57729380Y-95194380D01*
X57681761Y-95337238D01*
X57586523Y-95432476D01*
X57491285Y-95480095D01*
X57300809Y-95527714D01*
X57157952Y-95527714D01*
X56967476Y-95480095D01*
X56872238Y-95432476D01*
X56777000Y-95337238D01*
X56729380Y-95194380D01*
X56729380Y-95099142D01*
X56777000Y-94956285D01*
X56824619Y-94908666D01*
X56824619Y-94527714D02*
X56777000Y-94480095D01*
X56729380Y-94384857D01*
X56729380Y-94146761D01*
X56777000Y-94051523D01*
X56824619Y-94003904D01*
X56919857Y-93956285D01*
X57015095Y-93956285D01*
X57157952Y-94003904D01*
X57729380Y-94575333D01*
X57729380Y-93956285D01*
%TO.C,R4*%
X59396333Y-102433380D02*
X59063000Y-101957190D01*
X58824904Y-102433380D02*
X58824904Y-101433380D01*
X59205857Y-101433380D01*
X59301095Y-101481000D01*
X59348714Y-101528619D01*
X59396333Y-101623857D01*
X59396333Y-101766714D01*
X59348714Y-101861952D01*
X59301095Y-101909571D01*
X59205857Y-101957190D01*
X58824904Y-101957190D01*
X60253476Y-101766714D02*
X60253476Y-102433380D01*
X60015380Y-101385761D02*
X59777285Y-102100047D01*
X60396333Y-102100047D01*
%TO.C,R17*%
X75938142Y-117037380D02*
X75604809Y-116561190D01*
X75366714Y-117037380D02*
X75366714Y-116037380D01*
X75747666Y-116037380D01*
X75842904Y-116085000D01*
X75890523Y-116132619D01*
X75938142Y-116227857D01*
X75938142Y-116370714D01*
X75890523Y-116465952D01*
X75842904Y-116513571D01*
X75747666Y-116561190D01*
X75366714Y-116561190D01*
X76890523Y-117037380D02*
X76319095Y-117037380D01*
X76604809Y-117037380D02*
X76604809Y-116037380D01*
X76509571Y-116180238D01*
X76414333Y-116275476D01*
X76319095Y-116323095D01*
X77223857Y-116037380D02*
X77890523Y-116037380D01*
X77461952Y-117037380D01*
%TO.C,C10*%
X63492142Y-95607142D02*
X63444523Y-95654761D01*
X63301666Y-95702380D01*
X63206428Y-95702380D01*
X63063571Y-95654761D01*
X62968333Y-95559523D01*
X62920714Y-95464285D01*
X62873095Y-95273809D01*
X62873095Y-95130952D01*
X62920714Y-94940476D01*
X62968333Y-94845238D01*
X63063571Y-94750000D01*
X63206428Y-94702380D01*
X63301666Y-94702380D01*
X63444523Y-94750000D01*
X63492142Y-94797619D01*
X64444523Y-95702380D02*
X63873095Y-95702380D01*
X64158809Y-95702380D02*
X64158809Y-94702380D01*
X64063571Y-94845238D01*
X63968333Y-94940476D01*
X63873095Y-94988095D01*
X65063571Y-94702380D02*
X65158809Y-94702380D01*
X65254047Y-94750000D01*
X65301666Y-94797619D01*
X65349285Y-94892857D01*
X65396904Y-95083333D01*
X65396904Y-95321428D01*
X65349285Y-95511904D01*
X65301666Y-95607142D01*
X65254047Y-95654761D01*
X65158809Y-95702380D01*
X65063571Y-95702380D01*
X64968333Y-95654761D01*
X64920714Y-95607142D01*
X64873095Y-95511904D01*
X64825476Y-95321428D01*
X64825476Y-95083333D01*
X64873095Y-94892857D01*
X64920714Y-94797619D01*
X64968333Y-94750000D01*
X65063571Y-94702380D01*
%TO.C,C20*%
X100195142Y-91746342D02*
X100147523Y-91793961D01*
X100004666Y-91841580D01*
X99909428Y-91841580D01*
X99766571Y-91793961D01*
X99671333Y-91698723D01*
X99623714Y-91603485D01*
X99576095Y-91413009D01*
X99576095Y-91270152D01*
X99623714Y-91079676D01*
X99671333Y-90984438D01*
X99766571Y-90889200D01*
X99909428Y-90841580D01*
X100004666Y-90841580D01*
X100147523Y-90889200D01*
X100195142Y-90936819D01*
X100576095Y-90936819D02*
X100623714Y-90889200D01*
X100718952Y-90841580D01*
X100957047Y-90841580D01*
X101052285Y-90889200D01*
X101099904Y-90936819D01*
X101147523Y-91032057D01*
X101147523Y-91127295D01*
X101099904Y-91270152D01*
X100528476Y-91841580D01*
X101147523Y-91841580D01*
X101766571Y-90841580D02*
X101861809Y-90841580D01*
X101957047Y-90889200D01*
X102004666Y-90936819D01*
X102052285Y-91032057D01*
X102099904Y-91222533D01*
X102099904Y-91460628D01*
X102052285Y-91651104D01*
X102004666Y-91746342D01*
X101957047Y-91793961D01*
X101861809Y-91841580D01*
X101766571Y-91841580D01*
X101671333Y-91793961D01*
X101623714Y-91746342D01*
X101576095Y-91651104D01*
X101528476Y-91460628D01*
X101528476Y-91222533D01*
X101576095Y-91032057D01*
X101623714Y-90936819D01*
X101671333Y-90889200D01*
X101766571Y-90841580D01*
%TO.C,C29*%
X95877142Y-95197142D02*
X95829523Y-95244761D01*
X95686666Y-95292380D01*
X95591428Y-95292380D01*
X95448571Y-95244761D01*
X95353333Y-95149523D01*
X95305714Y-95054285D01*
X95258095Y-94863809D01*
X95258095Y-94720952D01*
X95305714Y-94530476D01*
X95353333Y-94435238D01*
X95448571Y-94340000D01*
X95591428Y-94292380D01*
X95686666Y-94292380D01*
X95829523Y-94340000D01*
X95877142Y-94387619D01*
X96258095Y-94387619D02*
X96305714Y-94340000D01*
X96400952Y-94292380D01*
X96639047Y-94292380D01*
X96734285Y-94340000D01*
X96781904Y-94387619D01*
X96829523Y-94482857D01*
X96829523Y-94578095D01*
X96781904Y-94720952D01*
X96210476Y-95292380D01*
X96829523Y-95292380D01*
X97305714Y-95292380D02*
X97496190Y-95292380D01*
X97591428Y-95244761D01*
X97639047Y-95197142D01*
X97734285Y-95054285D01*
X97781904Y-94863809D01*
X97781904Y-94482857D01*
X97734285Y-94387619D01*
X97686666Y-94340000D01*
X97591428Y-94292380D01*
X97400952Y-94292380D01*
X97305714Y-94340000D01*
X97258095Y-94387619D01*
X97210476Y-94482857D01*
X97210476Y-94720952D01*
X97258095Y-94816190D01*
X97305714Y-94863809D01*
X97400952Y-94911428D01*
X97591428Y-94911428D01*
X97686666Y-94863809D01*
X97734285Y-94816190D01*
X97781904Y-94720952D01*
%TO.C,U6*%
X98276669Y-71910791D02*
X99086193Y-71910791D01*
X99181431Y-71863172D01*
X99229050Y-71815553D01*
X99276669Y-71720315D01*
X99276669Y-71529839D01*
X99229050Y-71434601D01*
X99181431Y-71386982D01*
X99086193Y-71339363D01*
X98276669Y-71339363D01*
X98276669Y-70434601D02*
X98276669Y-70625077D01*
X98324289Y-70720315D01*
X98371908Y-70767934D01*
X98514765Y-70863172D01*
X98705241Y-70910791D01*
X99086193Y-70910791D01*
X99181431Y-70863172D01*
X99229050Y-70815553D01*
X99276669Y-70720315D01*
X99276669Y-70529839D01*
X99229050Y-70434601D01*
X99181431Y-70386982D01*
X99086193Y-70339363D01*
X98848098Y-70339363D01*
X98752860Y-70386982D01*
X98705241Y-70434601D01*
X98657622Y-70529839D01*
X98657622Y-70720315D01*
X98705241Y-70815553D01*
X98752860Y-70863172D01*
X98848098Y-70910791D01*
%TO.C,Q1*%
X50204619Y-107410238D02*
X50157000Y-107505476D01*
X50061761Y-107600714D01*
X49918904Y-107743571D01*
X49871285Y-107838809D01*
X49871285Y-107934047D01*
X50109380Y-107886428D02*
X50061761Y-107981666D01*
X49966523Y-108076904D01*
X49776047Y-108124523D01*
X49442714Y-108124523D01*
X49252238Y-108076904D01*
X49157000Y-107981666D01*
X49109380Y-107886428D01*
X49109380Y-107695952D01*
X49157000Y-107600714D01*
X49252238Y-107505476D01*
X49442714Y-107457857D01*
X49776047Y-107457857D01*
X49966523Y-107505476D01*
X50061761Y-107600714D01*
X50109380Y-107695952D01*
X50109380Y-107886428D01*
X50109380Y-106505476D02*
X50109380Y-107076904D01*
X50109380Y-106791190D02*
X49109380Y-106791190D01*
X49252238Y-106886428D01*
X49347476Y-106981666D01*
X49395095Y-107076904D01*
%TO.C,H1*%
X117602095Y-72461380D02*
X117602095Y-71461380D01*
X117602095Y-71937571D02*
X118173523Y-71937571D01*
X118173523Y-72461380D02*
X118173523Y-71461380D01*
X119173523Y-72461380D02*
X118602095Y-72461380D01*
X118887809Y-72461380D02*
X118887809Y-71461380D01*
X118792571Y-71604238D01*
X118697333Y-71699476D01*
X118602095Y-71747095D01*
%TO.C,C18*%
X91533639Y-77293742D02*
X91486020Y-77341361D01*
X91343163Y-77388980D01*
X91247925Y-77388980D01*
X91105068Y-77341361D01*
X91009830Y-77246123D01*
X90962211Y-77150885D01*
X90914592Y-76960409D01*
X90914592Y-76817552D01*
X90962211Y-76627076D01*
X91009830Y-76531838D01*
X91105068Y-76436600D01*
X91247925Y-76388980D01*
X91343163Y-76388980D01*
X91486020Y-76436600D01*
X91533639Y-76484219D01*
X92486020Y-77388980D02*
X91914592Y-77388980D01*
X92200306Y-77388980D02*
X92200306Y-76388980D01*
X92105068Y-76531838D01*
X92009830Y-76627076D01*
X91914592Y-76674695D01*
X93057449Y-76817552D02*
X92962211Y-76769933D01*
X92914592Y-76722314D01*
X92866973Y-76627076D01*
X92866973Y-76579457D01*
X92914592Y-76484219D01*
X92962211Y-76436600D01*
X93057449Y-76388980D01*
X93247925Y-76388980D01*
X93343163Y-76436600D01*
X93390782Y-76484219D01*
X93438401Y-76579457D01*
X93438401Y-76627076D01*
X93390782Y-76722314D01*
X93343163Y-76769933D01*
X93247925Y-76817552D01*
X93057449Y-76817552D01*
X92962211Y-76865171D01*
X92914592Y-76912790D01*
X92866973Y-77008028D01*
X92866973Y-77198504D01*
X92914592Y-77293742D01*
X92962211Y-77341361D01*
X93057449Y-77388980D01*
X93247925Y-77388980D01*
X93343163Y-77341361D01*
X93390782Y-77293742D01*
X93438401Y-77198504D01*
X93438401Y-77008028D01*
X93390782Y-76912790D01*
X93343163Y-76865171D01*
X93247925Y-76817552D01*
%TO.C,L6*%
X99198133Y-98191580D02*
X98721942Y-98191580D01*
X98721942Y-97191580D01*
X99960038Y-97191580D02*
X99769561Y-97191580D01*
X99674323Y-97239200D01*
X99626704Y-97286819D01*
X99531466Y-97429676D01*
X99483847Y-97620152D01*
X99483847Y-98001104D01*
X99531466Y-98096342D01*
X99579085Y-98143961D01*
X99674323Y-98191580D01*
X99864800Y-98191580D01*
X99960038Y-98143961D01*
X100007657Y-98096342D01*
X100055276Y-98001104D01*
X100055276Y-97763009D01*
X100007657Y-97667771D01*
X99960038Y-97620152D01*
X99864800Y-97572533D01*
X99674323Y-97572533D01*
X99579085Y-97620152D01*
X99531466Y-97667771D01*
X99483847Y-97763009D01*
%TO.C,C15*%
X73665142Y-102877857D02*
X73712761Y-102925476D01*
X73760380Y-103068333D01*
X73760380Y-103163571D01*
X73712761Y-103306428D01*
X73617523Y-103401666D01*
X73522285Y-103449285D01*
X73331809Y-103496904D01*
X73188952Y-103496904D01*
X72998476Y-103449285D01*
X72903238Y-103401666D01*
X72808000Y-103306428D01*
X72760380Y-103163571D01*
X72760380Y-103068333D01*
X72808000Y-102925476D01*
X72855619Y-102877857D01*
X73760380Y-101925476D02*
X73760380Y-102496904D01*
X73760380Y-102211190D02*
X72760380Y-102211190D01*
X72903238Y-102306428D01*
X72998476Y-102401666D01*
X73046095Y-102496904D01*
X72760380Y-101020714D02*
X72760380Y-101496904D01*
X73236571Y-101544523D01*
X73188952Y-101496904D01*
X73141333Y-101401666D01*
X73141333Y-101163571D01*
X73188952Y-101068333D01*
X73236571Y-101020714D01*
X73331809Y-100973095D01*
X73569904Y-100973095D01*
X73665142Y-101020714D01*
X73712761Y-101068333D01*
X73760380Y-101163571D01*
X73760380Y-101401666D01*
X73712761Y-101496904D01*
X73665142Y-101544523D01*
%TO.C,JP2*%
X63863380Y-98877333D02*
X64577666Y-98877333D01*
X64720523Y-98924952D01*
X64815761Y-99020190D01*
X64863380Y-99163047D01*
X64863380Y-99258285D01*
X64863380Y-98401142D02*
X63863380Y-98401142D01*
X63863380Y-98020190D01*
X63911000Y-97924952D01*
X63958619Y-97877333D01*
X64053857Y-97829714D01*
X64196714Y-97829714D01*
X64291952Y-97877333D01*
X64339571Y-97924952D01*
X64387190Y-98020190D01*
X64387190Y-98401142D01*
X63958619Y-97448761D02*
X63911000Y-97401142D01*
X63863380Y-97305904D01*
X63863380Y-97067809D01*
X63911000Y-96972571D01*
X63958619Y-96924952D01*
X64053857Y-96877333D01*
X64149095Y-96877333D01*
X64291952Y-96924952D01*
X64863380Y-97496380D01*
X64863380Y-96877333D01*
%TO.C,C21*%
X81764142Y-98940857D02*
X81811761Y-98988476D01*
X81859380Y-99131333D01*
X81859380Y-99226571D01*
X81811761Y-99369428D01*
X81716523Y-99464666D01*
X81621285Y-99512285D01*
X81430809Y-99559904D01*
X81287952Y-99559904D01*
X81097476Y-99512285D01*
X81002238Y-99464666D01*
X80907000Y-99369428D01*
X80859380Y-99226571D01*
X80859380Y-99131333D01*
X80907000Y-98988476D01*
X80954619Y-98940857D01*
X80954619Y-98559904D02*
X80907000Y-98512285D01*
X80859380Y-98417047D01*
X80859380Y-98178952D01*
X80907000Y-98083714D01*
X80954619Y-98036095D01*
X81049857Y-97988476D01*
X81145095Y-97988476D01*
X81287952Y-98036095D01*
X81859380Y-98607523D01*
X81859380Y-97988476D01*
X81859380Y-97036095D02*
X81859380Y-97607523D01*
X81859380Y-97321809D02*
X80859380Y-97321809D01*
X81002238Y-97417047D01*
X81097476Y-97512285D01*
X81145095Y-97607523D01*
%TO.C,C26*%
X89837142Y-94417857D02*
X89884761Y-94465476D01*
X89932380Y-94608333D01*
X89932380Y-94703571D01*
X89884761Y-94846428D01*
X89789523Y-94941666D01*
X89694285Y-94989285D01*
X89503809Y-95036904D01*
X89360952Y-95036904D01*
X89170476Y-94989285D01*
X89075238Y-94941666D01*
X88980000Y-94846428D01*
X88932380Y-94703571D01*
X88932380Y-94608333D01*
X88980000Y-94465476D01*
X89027619Y-94417857D01*
X89027619Y-94036904D02*
X88980000Y-93989285D01*
X88932380Y-93894047D01*
X88932380Y-93655952D01*
X88980000Y-93560714D01*
X89027619Y-93513095D01*
X89122857Y-93465476D01*
X89218095Y-93465476D01*
X89360952Y-93513095D01*
X89932380Y-94084523D01*
X89932380Y-93465476D01*
X88932380Y-92608333D02*
X88932380Y-92798809D01*
X88980000Y-92894047D01*
X89027619Y-92941666D01*
X89170476Y-93036904D01*
X89360952Y-93084523D01*
X89741904Y-93084523D01*
X89837142Y-93036904D01*
X89884761Y-92989285D01*
X89932380Y-92894047D01*
X89932380Y-92703571D01*
X89884761Y-92608333D01*
X89837142Y-92560714D01*
X89741904Y-92513095D01*
X89503809Y-92513095D01*
X89408571Y-92560714D01*
X89360952Y-92608333D01*
X89313333Y-92703571D01*
X89313333Y-92894047D01*
X89360952Y-92989285D01*
X89408571Y-93036904D01*
X89503809Y-93084523D01*
%TO.C,C7*%
X61428333Y-73636142D02*
X61380714Y-73683761D01*
X61237857Y-73731380D01*
X61142619Y-73731380D01*
X60999761Y-73683761D01*
X60904523Y-73588523D01*
X60856904Y-73493285D01*
X60809285Y-73302809D01*
X60809285Y-73159952D01*
X60856904Y-72969476D01*
X60904523Y-72874238D01*
X60999761Y-72779000D01*
X61142619Y-72731380D01*
X61237857Y-72731380D01*
X61380714Y-72779000D01*
X61428333Y-72826619D01*
X61761666Y-72731380D02*
X62428333Y-72731380D01*
X61999761Y-73731380D01*
%TO.C,R37*%
X103563000Y-105218666D02*
X103329666Y-104885333D01*
X103163000Y-105218666D02*
X103163000Y-104518666D01*
X103429666Y-104518666D01*
X103496333Y-104552000D01*
X103529666Y-104585333D01*
X103563000Y-104652000D01*
X103563000Y-104752000D01*
X103529666Y-104818666D01*
X103496333Y-104852000D01*
X103429666Y-104885333D01*
X103163000Y-104885333D01*
X103796333Y-104518666D02*
X104229666Y-104518666D01*
X103996333Y-104785333D01*
X104096333Y-104785333D01*
X104163000Y-104818666D01*
X104196333Y-104852000D01*
X104229666Y-104918666D01*
X104229666Y-105085333D01*
X104196333Y-105152000D01*
X104163000Y-105185333D01*
X104096333Y-105218666D01*
X103896333Y-105218666D01*
X103829666Y-105185333D01*
X103796333Y-105152000D01*
X104463000Y-104518666D02*
X104929666Y-104518666D01*
X104629666Y-105218666D01*
%TO.C,R22*%
X91328642Y-111322380D02*
X90995309Y-110846190D01*
X90757214Y-111322380D02*
X90757214Y-110322380D01*
X91138166Y-110322380D01*
X91233404Y-110370000D01*
X91281023Y-110417619D01*
X91328642Y-110512857D01*
X91328642Y-110655714D01*
X91281023Y-110750952D01*
X91233404Y-110798571D01*
X91138166Y-110846190D01*
X90757214Y-110846190D01*
X91709595Y-110417619D02*
X91757214Y-110370000D01*
X91852452Y-110322380D01*
X92090547Y-110322380D01*
X92185785Y-110370000D01*
X92233404Y-110417619D01*
X92281023Y-110512857D01*
X92281023Y-110608095D01*
X92233404Y-110750952D01*
X91661976Y-111322380D01*
X92281023Y-111322380D01*
X92661976Y-110417619D02*
X92709595Y-110370000D01*
X92804833Y-110322380D01*
X93042928Y-110322380D01*
X93138166Y-110370000D01*
X93185785Y-110417619D01*
X93233404Y-110512857D01*
X93233404Y-110608095D01*
X93185785Y-110750952D01*
X92614357Y-111322380D01*
X93233404Y-111322380D01*
%TO.C,R33*%
X109291380Y-118244857D02*
X108815190Y-118578190D01*
X109291380Y-118816285D02*
X108291380Y-118816285D01*
X108291380Y-118435333D01*
X108339000Y-118340095D01*
X108386619Y-118292476D01*
X108481857Y-118244857D01*
X108624714Y-118244857D01*
X108719952Y-118292476D01*
X108767571Y-118340095D01*
X108815190Y-118435333D01*
X108815190Y-118816285D01*
X108291380Y-117911523D02*
X108291380Y-117292476D01*
X108672333Y-117625809D01*
X108672333Y-117482952D01*
X108719952Y-117387714D01*
X108767571Y-117340095D01*
X108862809Y-117292476D01*
X109100904Y-117292476D01*
X109196142Y-117340095D01*
X109243761Y-117387714D01*
X109291380Y-117482952D01*
X109291380Y-117768666D01*
X109243761Y-117863904D01*
X109196142Y-117911523D01*
X108291380Y-116959142D02*
X108291380Y-116340095D01*
X108672333Y-116673428D01*
X108672333Y-116530571D01*
X108719952Y-116435333D01*
X108767571Y-116387714D01*
X108862809Y-116340095D01*
X109100904Y-116340095D01*
X109196142Y-116387714D01*
X109243761Y-116435333D01*
X109291380Y-116530571D01*
X109291380Y-116816285D01*
X109243761Y-116911523D01*
X109196142Y-116959142D01*
%TO.C,R25*%
X96004142Y-98750380D02*
X95670809Y-98274190D01*
X95432714Y-98750380D02*
X95432714Y-97750380D01*
X95813666Y-97750380D01*
X95908904Y-97798000D01*
X95956523Y-97845619D01*
X96004142Y-97940857D01*
X96004142Y-98083714D01*
X95956523Y-98178952D01*
X95908904Y-98226571D01*
X95813666Y-98274190D01*
X95432714Y-98274190D01*
X96385095Y-97845619D02*
X96432714Y-97798000D01*
X96527952Y-97750380D01*
X96766047Y-97750380D01*
X96861285Y-97798000D01*
X96908904Y-97845619D01*
X96956523Y-97940857D01*
X96956523Y-98036095D01*
X96908904Y-98178952D01*
X96337476Y-98750380D01*
X96956523Y-98750380D01*
X97861285Y-97750380D02*
X97385095Y-97750380D01*
X97337476Y-98226571D01*
X97385095Y-98178952D01*
X97480333Y-98131333D01*
X97718428Y-98131333D01*
X97813666Y-98178952D01*
X97861285Y-98226571D01*
X97908904Y-98321809D01*
X97908904Y-98559904D01*
X97861285Y-98655142D01*
X97813666Y-98702761D01*
X97718428Y-98750380D01*
X97480333Y-98750380D01*
X97385095Y-98702761D01*
X97337476Y-98655142D01*
%TO.C,R6*%
X70556380Y-72978046D02*
X70080190Y-73311380D01*
X70556380Y-73549475D02*
X69556380Y-73549475D01*
X69556380Y-73168522D01*
X69604000Y-73073284D01*
X69651619Y-73025665D01*
X69746857Y-72978046D01*
X69889714Y-72978046D01*
X69984952Y-73025665D01*
X70032571Y-73073284D01*
X70080190Y-73168522D01*
X70080190Y-73549475D01*
X69556380Y-72120903D02*
X69556380Y-72311380D01*
X69604000Y-72406618D01*
X69651619Y-72454237D01*
X69794476Y-72549475D01*
X69984952Y-72597094D01*
X70365904Y-72597094D01*
X70461142Y-72549475D01*
X70508761Y-72501856D01*
X70556380Y-72406618D01*
X70556380Y-72216141D01*
X70508761Y-72120903D01*
X70461142Y-72073284D01*
X70365904Y-72025665D01*
X70127809Y-72025665D01*
X70032571Y-72073284D01*
X69984952Y-72120903D01*
X69937333Y-72216141D01*
X69937333Y-72406618D01*
X69984952Y-72501856D01*
X70032571Y-72549475D01*
X70127809Y-72597094D01*
%TO.C,C23*%
X80891142Y-117070142D02*
X80843523Y-117117761D01*
X80700666Y-117165380D01*
X80605428Y-117165380D01*
X80462571Y-117117761D01*
X80367333Y-117022523D01*
X80319714Y-116927285D01*
X80272095Y-116736809D01*
X80272095Y-116593952D01*
X80319714Y-116403476D01*
X80367333Y-116308238D01*
X80462571Y-116213000D01*
X80605428Y-116165380D01*
X80700666Y-116165380D01*
X80843523Y-116213000D01*
X80891142Y-116260619D01*
X81272095Y-116260619D02*
X81319714Y-116213000D01*
X81414952Y-116165380D01*
X81653047Y-116165380D01*
X81748285Y-116213000D01*
X81795904Y-116260619D01*
X81843523Y-116355857D01*
X81843523Y-116451095D01*
X81795904Y-116593952D01*
X81224476Y-117165380D01*
X81843523Y-117165380D01*
X82176857Y-116165380D02*
X82795904Y-116165380D01*
X82462571Y-116546333D01*
X82605428Y-116546333D01*
X82700666Y-116593952D01*
X82748285Y-116641571D01*
X82795904Y-116736809D01*
X82795904Y-116974904D01*
X82748285Y-117070142D01*
X82700666Y-117117761D01*
X82605428Y-117165380D01*
X82319714Y-117165380D01*
X82224476Y-117117761D01*
X82176857Y-117070142D01*
%TO.C,L8*%
X106664933Y-100494266D02*
X106331600Y-100494266D01*
X106331600Y-99794266D01*
X106998266Y-100094266D02*
X106931600Y-100060933D01*
X106898266Y-100027600D01*
X106864933Y-99960933D01*
X106864933Y-99927600D01*
X106898266Y-99860933D01*
X106931600Y-99827600D01*
X106998266Y-99794266D01*
X107131600Y-99794266D01*
X107198266Y-99827600D01*
X107231600Y-99860933D01*
X107264933Y-99927600D01*
X107264933Y-99960933D01*
X107231600Y-100027600D01*
X107198266Y-100060933D01*
X107131600Y-100094266D01*
X106998266Y-100094266D01*
X106931600Y-100127600D01*
X106898266Y-100160933D01*
X106864933Y-100227600D01*
X106864933Y-100360933D01*
X106898266Y-100427600D01*
X106931600Y-100460933D01*
X106998266Y-100494266D01*
X107131600Y-100494266D01*
X107198266Y-100460933D01*
X107231600Y-100427600D01*
X107264933Y-100360933D01*
X107264933Y-100227600D01*
X107231600Y-100160933D01*
X107198266Y-100127600D01*
X107131600Y-100094266D01*
%TO.C,R13*%
X82669142Y-110814380D02*
X82335809Y-110338190D01*
X82097714Y-110814380D02*
X82097714Y-109814380D01*
X82478666Y-109814380D01*
X82573904Y-109862000D01*
X82621523Y-109909619D01*
X82669142Y-110004857D01*
X82669142Y-110147714D01*
X82621523Y-110242952D01*
X82573904Y-110290571D01*
X82478666Y-110338190D01*
X82097714Y-110338190D01*
X83621523Y-110814380D02*
X83050095Y-110814380D01*
X83335809Y-110814380D02*
X83335809Y-109814380D01*
X83240571Y-109957238D01*
X83145333Y-110052476D01*
X83050095Y-110100095D01*
X83954857Y-109814380D02*
X84573904Y-109814380D01*
X84240571Y-110195333D01*
X84383428Y-110195333D01*
X84478666Y-110242952D01*
X84526285Y-110290571D01*
X84573904Y-110385809D01*
X84573904Y-110623904D01*
X84526285Y-110719142D01*
X84478666Y-110766761D01*
X84383428Y-110814380D01*
X84097714Y-110814380D01*
X84002476Y-110766761D01*
X83954857Y-110719142D01*
%TO.C,L4*%
X83002380Y-91733666D02*
X83002380Y-92209857D01*
X82002380Y-92209857D01*
X82335714Y-90971761D02*
X83002380Y-90971761D01*
X81954761Y-91209857D02*
X82669047Y-91447952D01*
X82669047Y-90828904D01*
%TO.C,L7*%
X78954333Y-90622380D02*
X78478142Y-90622380D01*
X78478142Y-89622380D01*
X79192428Y-89622380D02*
X79859095Y-89622380D01*
X79430523Y-90622380D01*
%TO.C,C13*%
X75566542Y-106154457D02*
X75614161Y-106202076D01*
X75661780Y-106344933D01*
X75661780Y-106440171D01*
X75614161Y-106583028D01*
X75518923Y-106678266D01*
X75423685Y-106725885D01*
X75233209Y-106773504D01*
X75090352Y-106773504D01*
X74899876Y-106725885D01*
X74804638Y-106678266D01*
X74709400Y-106583028D01*
X74661780Y-106440171D01*
X74661780Y-106344933D01*
X74709400Y-106202076D01*
X74757019Y-106154457D01*
X75661780Y-105202076D02*
X75661780Y-105773504D01*
X75661780Y-105487790D02*
X74661780Y-105487790D01*
X74804638Y-105583028D01*
X74899876Y-105678266D01*
X74947495Y-105773504D01*
X74661780Y-104868742D02*
X74661780Y-104249695D01*
X75042733Y-104583028D01*
X75042733Y-104440171D01*
X75090352Y-104344933D01*
X75137971Y-104297314D01*
X75233209Y-104249695D01*
X75471304Y-104249695D01*
X75566542Y-104297314D01*
X75614161Y-104344933D01*
X75661780Y-104440171D01*
X75661780Y-104725885D01*
X75614161Y-104821123D01*
X75566542Y-104868742D01*
%TO.C,R11*%
X79065380Y-102293657D02*
X78589190Y-102626990D01*
X79065380Y-102865085D02*
X78065380Y-102865085D01*
X78065380Y-102484133D01*
X78113000Y-102388895D01*
X78160619Y-102341276D01*
X78255857Y-102293657D01*
X78398714Y-102293657D01*
X78493952Y-102341276D01*
X78541571Y-102388895D01*
X78589190Y-102484133D01*
X78589190Y-102865085D01*
X79065380Y-101341276D02*
X79065380Y-101912704D01*
X79065380Y-101626990D02*
X78065380Y-101626990D01*
X78208238Y-101722228D01*
X78303476Y-101817466D01*
X78351095Y-101912704D01*
X79065380Y-100388895D02*
X79065380Y-100960323D01*
X79065380Y-100674609D02*
X78065380Y-100674609D01*
X78208238Y-100769847D01*
X78303476Y-100865085D01*
X78351095Y-100960323D01*
%TO.C,J2*%
X27987666Y-97191380D02*
X27987666Y-97905666D01*
X27940047Y-98048523D01*
X27844809Y-98143761D01*
X27701952Y-98191380D01*
X27606714Y-98191380D01*
X28416238Y-97286619D02*
X28463857Y-97239000D01*
X28559095Y-97191380D01*
X28797190Y-97191380D01*
X28892428Y-97239000D01*
X28940047Y-97286619D01*
X28987666Y-97381857D01*
X28987666Y-97477095D01*
X28940047Y-97619952D01*
X28368619Y-98191380D01*
X28987666Y-98191380D01*
%TO.C,C38*%
X104009000Y-98240000D02*
X104042333Y-98273333D01*
X104075666Y-98373333D01*
X104075666Y-98440000D01*
X104042333Y-98540000D01*
X103975666Y-98606666D01*
X103909000Y-98640000D01*
X103775666Y-98673333D01*
X103675666Y-98673333D01*
X103542333Y-98640000D01*
X103475666Y-98606666D01*
X103409000Y-98540000D01*
X103375666Y-98440000D01*
X103375666Y-98373333D01*
X103409000Y-98273333D01*
X103442333Y-98240000D01*
X103375666Y-98006666D02*
X103375666Y-97573333D01*
X103642333Y-97806666D01*
X103642333Y-97706666D01*
X103675666Y-97640000D01*
X103709000Y-97606666D01*
X103775666Y-97573333D01*
X103942333Y-97573333D01*
X104009000Y-97606666D01*
X104042333Y-97640000D01*
X104075666Y-97706666D01*
X104075666Y-97906666D01*
X104042333Y-97973333D01*
X104009000Y-98006666D01*
X103675666Y-97173333D02*
X103642333Y-97240000D01*
X103609000Y-97273333D01*
X103542333Y-97306666D01*
X103509000Y-97306666D01*
X103442333Y-97273333D01*
X103409000Y-97240000D01*
X103375666Y-97173333D01*
X103375666Y-97040000D01*
X103409000Y-96973333D01*
X103442333Y-96940000D01*
X103509000Y-96906666D01*
X103542333Y-96906666D01*
X103609000Y-96940000D01*
X103642333Y-96973333D01*
X103675666Y-97040000D01*
X103675666Y-97173333D01*
X103709000Y-97240000D01*
X103742333Y-97273333D01*
X103809000Y-97306666D01*
X103942333Y-97306666D01*
X104009000Y-97273333D01*
X104042333Y-97240000D01*
X104075666Y-97173333D01*
X104075666Y-97040000D01*
X104042333Y-96973333D01*
X104009000Y-96940000D01*
X103942333Y-96906666D01*
X103809000Y-96906666D01*
X103742333Y-96940000D01*
X103709000Y-96973333D01*
X103675666Y-97040000D01*
%TO.C,R31*%
X99687142Y-111450380D02*
X99353809Y-110974190D01*
X99115714Y-111450380D02*
X99115714Y-110450380D01*
X99496666Y-110450380D01*
X99591904Y-110498000D01*
X99639523Y-110545619D01*
X99687142Y-110640857D01*
X99687142Y-110783714D01*
X99639523Y-110878952D01*
X99591904Y-110926571D01*
X99496666Y-110974190D01*
X99115714Y-110974190D01*
X100020476Y-110450380D02*
X100639523Y-110450380D01*
X100306190Y-110831333D01*
X100449047Y-110831333D01*
X100544285Y-110878952D01*
X100591904Y-110926571D01*
X100639523Y-111021809D01*
X100639523Y-111259904D01*
X100591904Y-111355142D01*
X100544285Y-111402761D01*
X100449047Y-111450380D01*
X100163333Y-111450380D01*
X100068095Y-111402761D01*
X100020476Y-111355142D01*
X101591904Y-111450380D02*
X101020476Y-111450380D01*
X101306190Y-111450380D02*
X101306190Y-110450380D01*
X101210952Y-110593238D01*
X101115714Y-110688476D01*
X101020476Y-110736095D01*
%TO.C,C33*%
X106418142Y-92657142D02*
X106370523Y-92704761D01*
X106227666Y-92752380D01*
X106132428Y-92752380D01*
X105989571Y-92704761D01*
X105894333Y-92609523D01*
X105846714Y-92514285D01*
X105799095Y-92323809D01*
X105799095Y-92180952D01*
X105846714Y-91990476D01*
X105894333Y-91895238D01*
X105989571Y-91800000D01*
X106132428Y-91752380D01*
X106227666Y-91752380D01*
X106370523Y-91800000D01*
X106418142Y-91847619D01*
X106751476Y-91752380D02*
X107370523Y-91752380D01*
X107037190Y-92133333D01*
X107180047Y-92133333D01*
X107275285Y-92180952D01*
X107322904Y-92228571D01*
X107370523Y-92323809D01*
X107370523Y-92561904D01*
X107322904Y-92657142D01*
X107275285Y-92704761D01*
X107180047Y-92752380D01*
X106894333Y-92752380D01*
X106799095Y-92704761D01*
X106751476Y-92657142D01*
X107703857Y-91752380D02*
X108322904Y-91752380D01*
X107989571Y-92133333D01*
X108132428Y-92133333D01*
X108227666Y-92180952D01*
X108275285Y-92228571D01*
X108322904Y-92323809D01*
X108322904Y-92561904D01*
X108275285Y-92657142D01*
X108227666Y-92704761D01*
X108132428Y-92752380D01*
X107846714Y-92752380D01*
X107751476Y-92704761D01*
X107703857Y-92657142D01*
%TO.C,R27*%
X91305142Y-98750380D02*
X90971809Y-98274190D01*
X90733714Y-98750380D02*
X90733714Y-97750380D01*
X91114666Y-97750380D01*
X91209904Y-97798000D01*
X91257523Y-97845619D01*
X91305142Y-97940857D01*
X91305142Y-98083714D01*
X91257523Y-98178952D01*
X91209904Y-98226571D01*
X91114666Y-98274190D01*
X90733714Y-98274190D01*
X91686095Y-97845619D02*
X91733714Y-97798000D01*
X91828952Y-97750380D01*
X92067047Y-97750380D01*
X92162285Y-97798000D01*
X92209904Y-97845619D01*
X92257523Y-97940857D01*
X92257523Y-98036095D01*
X92209904Y-98178952D01*
X91638476Y-98750380D01*
X92257523Y-98750380D01*
X92590857Y-97750380D02*
X93257523Y-97750380D01*
X92828952Y-98750380D01*
%TO.C,R32*%
X91432142Y-92401380D02*
X91098809Y-91925190D01*
X90860714Y-92401380D02*
X90860714Y-91401380D01*
X91241666Y-91401380D01*
X91336904Y-91449000D01*
X91384523Y-91496619D01*
X91432142Y-91591857D01*
X91432142Y-91734714D01*
X91384523Y-91829952D01*
X91336904Y-91877571D01*
X91241666Y-91925190D01*
X90860714Y-91925190D01*
X91765476Y-91401380D02*
X92384523Y-91401380D01*
X92051190Y-91782333D01*
X92194047Y-91782333D01*
X92289285Y-91829952D01*
X92336904Y-91877571D01*
X92384523Y-91972809D01*
X92384523Y-92210904D01*
X92336904Y-92306142D01*
X92289285Y-92353761D01*
X92194047Y-92401380D01*
X91908333Y-92401380D01*
X91813095Y-92353761D01*
X91765476Y-92306142D01*
X92765476Y-91496619D02*
X92813095Y-91449000D01*
X92908333Y-91401380D01*
X93146428Y-91401380D01*
X93241666Y-91449000D01*
X93289285Y-91496619D01*
X93336904Y-91591857D01*
X93336904Y-91687095D01*
X93289285Y-91829952D01*
X92717857Y-92401380D01*
X93336904Y-92401380D01*
%TO.C,R24*%
X95750142Y-115006380D02*
X95416809Y-114530190D01*
X95178714Y-115006380D02*
X95178714Y-114006380D01*
X95559666Y-114006380D01*
X95654904Y-114054000D01*
X95702523Y-114101619D01*
X95750142Y-114196857D01*
X95750142Y-114339714D01*
X95702523Y-114434952D01*
X95654904Y-114482571D01*
X95559666Y-114530190D01*
X95178714Y-114530190D01*
X96131095Y-114101619D02*
X96178714Y-114054000D01*
X96273952Y-114006380D01*
X96512047Y-114006380D01*
X96607285Y-114054000D01*
X96654904Y-114101619D01*
X96702523Y-114196857D01*
X96702523Y-114292095D01*
X96654904Y-114434952D01*
X96083476Y-115006380D01*
X96702523Y-115006380D01*
X97559666Y-114339714D02*
X97559666Y-115006380D01*
X97321571Y-113958761D02*
X97083476Y-114673047D01*
X97702523Y-114673047D01*
%TO.C,C17*%
X78224142Y-110593142D02*
X78176523Y-110640761D01*
X78033666Y-110688380D01*
X77938428Y-110688380D01*
X77795571Y-110640761D01*
X77700333Y-110545523D01*
X77652714Y-110450285D01*
X77605095Y-110259809D01*
X77605095Y-110116952D01*
X77652714Y-109926476D01*
X77700333Y-109831238D01*
X77795571Y-109736000D01*
X77938428Y-109688380D01*
X78033666Y-109688380D01*
X78176523Y-109736000D01*
X78224142Y-109783619D01*
X79176523Y-110688380D02*
X78605095Y-110688380D01*
X78890809Y-110688380D02*
X78890809Y-109688380D01*
X78795571Y-109831238D01*
X78700333Y-109926476D01*
X78605095Y-109974095D01*
X79509857Y-109688380D02*
X80176523Y-109688380D01*
X79747952Y-110688380D01*
%TO.C,L1*%
X52522380Y-96559666D02*
X52522380Y-97035857D01*
X51522380Y-97035857D01*
X52522380Y-95702523D02*
X52522380Y-96273952D01*
X52522380Y-95988238D02*
X51522380Y-95988238D01*
X51665238Y-96083476D01*
X51760476Y-96178714D01*
X51808095Y-96273952D01*
%TO.C,C22*%
X73737742Y-109913657D02*
X73785361Y-109961276D01*
X73832980Y-110104133D01*
X73832980Y-110199371D01*
X73785361Y-110342228D01*
X73690123Y-110437466D01*
X73594885Y-110485085D01*
X73404409Y-110532704D01*
X73261552Y-110532704D01*
X73071076Y-110485085D01*
X72975838Y-110437466D01*
X72880600Y-110342228D01*
X72832980Y-110199371D01*
X72832980Y-110104133D01*
X72880600Y-109961276D01*
X72928219Y-109913657D01*
X72928219Y-109532704D02*
X72880600Y-109485085D01*
X72832980Y-109389847D01*
X72832980Y-109151752D01*
X72880600Y-109056514D01*
X72928219Y-109008895D01*
X73023457Y-108961276D01*
X73118695Y-108961276D01*
X73261552Y-109008895D01*
X73832980Y-109580323D01*
X73832980Y-108961276D01*
X72928219Y-108580323D02*
X72880600Y-108532704D01*
X72832980Y-108437466D01*
X72832980Y-108199371D01*
X72880600Y-108104133D01*
X72928219Y-108056514D01*
X73023457Y-108008895D01*
X73118695Y-108008895D01*
X73261552Y-108056514D01*
X73832980Y-108627942D01*
X73832980Y-108008895D01*
%TO.C,C4*%
X57411687Y-65902389D02*
X57411687Y-65969732D01*
X57344343Y-66104419D01*
X57277000Y-66171763D01*
X57142312Y-66239106D01*
X57007625Y-66239106D01*
X56906610Y-66205435D01*
X56738251Y-66104419D01*
X56637236Y-66003404D01*
X56536221Y-65835045D01*
X56502549Y-65734030D01*
X56502549Y-65599343D01*
X56569893Y-65464656D01*
X56637236Y-65397312D01*
X56771923Y-65329969D01*
X56839267Y-65329969D01*
X57613717Y-64892236D02*
X58085122Y-65363641D01*
X57175984Y-64791221D02*
X57512702Y-65464656D01*
X57950435Y-65026923D01*
%TO.C,H4*%
X31242095Y-65222380D02*
X31242095Y-64222380D01*
X31242095Y-64698571D02*
X31813523Y-64698571D01*
X31813523Y-65222380D02*
X31813523Y-64222380D01*
X32718285Y-64555714D02*
X32718285Y-65222380D01*
X32480190Y-64174761D02*
X32242095Y-64889047D01*
X32861142Y-64889047D01*
%TO.C,U8*%
X111110780Y-104139904D02*
X111920304Y-104139904D01*
X112015542Y-104092285D01*
X112063161Y-104044666D01*
X112110780Y-103949428D01*
X112110780Y-103758952D01*
X112063161Y-103663714D01*
X112015542Y-103616095D01*
X111920304Y-103568476D01*
X111110780Y-103568476D01*
X111539352Y-102949428D02*
X111491733Y-103044666D01*
X111444114Y-103092285D01*
X111348876Y-103139904D01*
X111301257Y-103139904D01*
X111206019Y-103092285D01*
X111158400Y-103044666D01*
X111110780Y-102949428D01*
X111110780Y-102758952D01*
X111158400Y-102663714D01*
X111206019Y-102616095D01*
X111301257Y-102568476D01*
X111348876Y-102568476D01*
X111444114Y-102616095D01*
X111491733Y-102663714D01*
X111539352Y-102758952D01*
X111539352Y-102949428D01*
X111586971Y-103044666D01*
X111634590Y-103092285D01*
X111729828Y-103139904D01*
X111920304Y-103139904D01*
X112015542Y-103092285D01*
X112063161Y-103044666D01*
X112110780Y-102949428D01*
X112110780Y-102758952D01*
X112063161Y-102663714D01*
X112015542Y-102616095D01*
X111920304Y-102568476D01*
X111729828Y-102568476D01*
X111634590Y-102616095D01*
X111586971Y-102663714D01*
X111539352Y-102758952D01*
%TO.C,R36*%
X114625380Y-97924857D02*
X114149190Y-98258190D01*
X114625380Y-98496285D02*
X113625380Y-98496285D01*
X113625380Y-98115333D01*
X113673000Y-98020095D01*
X113720619Y-97972476D01*
X113815857Y-97924857D01*
X113958714Y-97924857D01*
X114053952Y-97972476D01*
X114101571Y-98020095D01*
X114149190Y-98115333D01*
X114149190Y-98496285D01*
X113625380Y-97591523D02*
X113625380Y-96972476D01*
X114006333Y-97305809D01*
X114006333Y-97162952D01*
X114053952Y-97067714D01*
X114101571Y-97020095D01*
X114196809Y-96972476D01*
X114434904Y-96972476D01*
X114530142Y-97020095D01*
X114577761Y-97067714D01*
X114625380Y-97162952D01*
X114625380Y-97448666D01*
X114577761Y-97543904D01*
X114530142Y-97591523D01*
X113625380Y-96115333D02*
X113625380Y-96305809D01*
X113673000Y-96401047D01*
X113720619Y-96448666D01*
X113863476Y-96543904D01*
X114053952Y-96591523D01*
X114434904Y-96591523D01*
X114530142Y-96543904D01*
X114577761Y-96496285D01*
X114625380Y-96401047D01*
X114625380Y-96210571D01*
X114577761Y-96115333D01*
X114530142Y-96067714D01*
X114434904Y-96020095D01*
X114196809Y-96020095D01*
X114101571Y-96067714D01*
X114053952Y-96115333D01*
X114006333Y-96210571D01*
X114006333Y-96401047D01*
X114053952Y-96496285D01*
X114101571Y-96543904D01*
X114196809Y-96591523D01*
%TO.C,U4*%
X65151095Y-100925380D02*
X65151095Y-101734904D01*
X65198714Y-101830142D01*
X65246333Y-101877761D01*
X65341571Y-101925380D01*
X65532047Y-101925380D01*
X65627285Y-101877761D01*
X65674904Y-101830142D01*
X65722523Y-101734904D01*
X65722523Y-100925380D01*
X66627285Y-101258714D02*
X66627285Y-101925380D01*
X66389190Y-100877761D02*
X66151095Y-101592047D01*
X66770142Y-101592047D01*
%TO.C,L2*%
X88606333Y-72969380D02*
X88130142Y-72969380D01*
X88130142Y-71969380D01*
X88892047Y-72064619D02*
X88939666Y-72017000D01*
X89034904Y-71969380D01*
X89273000Y-71969380D01*
X89368238Y-72017000D01*
X89415857Y-72064619D01*
X89463476Y-72159857D01*
X89463476Y-72255095D01*
X89415857Y-72397952D01*
X88844428Y-72969380D01*
X89463476Y-72969380D01*
%TO.C,C9*%
X85685333Y-77573142D02*
X85637714Y-77620761D01*
X85494857Y-77668380D01*
X85399619Y-77668380D01*
X85256761Y-77620761D01*
X85161523Y-77525523D01*
X85113904Y-77430285D01*
X85066285Y-77239809D01*
X85066285Y-77096952D01*
X85113904Y-76906476D01*
X85161523Y-76811238D01*
X85256761Y-76716000D01*
X85399619Y-76668380D01*
X85494857Y-76668380D01*
X85637714Y-76716000D01*
X85685333Y-76763619D01*
X86161523Y-77668380D02*
X86352000Y-77668380D01*
X86447238Y-77620761D01*
X86494857Y-77573142D01*
X86590095Y-77430285D01*
X86637714Y-77239809D01*
X86637714Y-76858857D01*
X86590095Y-76763619D01*
X86542476Y-76716000D01*
X86447238Y-76668380D01*
X86256761Y-76668380D01*
X86161523Y-76716000D01*
X86113904Y-76763619D01*
X86066285Y-76858857D01*
X86066285Y-77096952D01*
X86113904Y-77192190D01*
X86161523Y-77239809D01*
X86256761Y-77287428D01*
X86447238Y-77287428D01*
X86542476Y-77239809D01*
X86590095Y-77192190D01*
X86637714Y-77096952D01*
%TO.C,R42*%
X107855600Y-99783066D02*
X107622266Y-99449733D01*
X107455600Y-99783066D02*
X107455600Y-99083066D01*
X107722266Y-99083066D01*
X107788933Y-99116400D01*
X107822266Y-99149733D01*
X107855600Y-99216400D01*
X107855600Y-99316400D01*
X107822266Y-99383066D01*
X107788933Y-99416400D01*
X107722266Y-99449733D01*
X107455600Y-99449733D01*
X108455600Y-99316400D02*
X108455600Y-99783066D01*
X108288933Y-99049733D02*
X108122266Y-99549733D01*
X108555600Y-99549733D01*
X108788933Y-99149733D02*
X108822266Y-99116400D01*
X108888933Y-99083066D01*
X109055600Y-99083066D01*
X109122266Y-99116400D01*
X109155600Y-99149733D01*
X109188933Y-99216400D01*
X109188933Y-99283066D01*
X109155600Y-99383066D01*
X108755600Y-99783066D01*
X109188933Y-99783066D01*
%TO.C,JP1*%
X85171066Y-66813180D02*
X85171066Y-67527466D01*
X85123447Y-67670323D01*
X85028209Y-67765561D01*
X84885352Y-67813180D01*
X84790114Y-67813180D01*
X85647257Y-67813180D02*
X85647257Y-66813180D01*
X86028209Y-66813180D01*
X86123447Y-66860800D01*
X86171066Y-66908419D01*
X86218685Y-67003657D01*
X86218685Y-67146514D01*
X86171066Y-67241752D01*
X86123447Y-67289371D01*
X86028209Y-67336990D01*
X85647257Y-67336990D01*
X87171066Y-67813180D02*
X86599638Y-67813180D01*
X86885352Y-67813180D02*
X86885352Y-66813180D01*
X86790114Y-66956038D01*
X86694876Y-67051276D01*
X86599638Y-67098895D01*
%TO.C,R35*%
X113473666Y-111448000D02*
X113140333Y-111681333D01*
X113473666Y-111848000D02*
X112773666Y-111848000D01*
X112773666Y-111581333D01*
X112807000Y-111514666D01*
X112840333Y-111481333D01*
X112907000Y-111448000D01*
X113007000Y-111448000D01*
X113073666Y-111481333D01*
X113107000Y-111514666D01*
X113140333Y-111581333D01*
X113140333Y-111848000D01*
X112773666Y-111214666D02*
X112773666Y-110781333D01*
X113040333Y-111014666D01*
X113040333Y-110914666D01*
X113073666Y-110848000D01*
X113107000Y-110814666D01*
X113173666Y-110781333D01*
X113340333Y-110781333D01*
X113407000Y-110814666D01*
X113440333Y-110848000D01*
X113473666Y-110914666D01*
X113473666Y-111114666D01*
X113440333Y-111181333D01*
X113407000Y-111214666D01*
X112773666Y-110148000D02*
X112773666Y-110481333D01*
X113107000Y-110514666D01*
X113073666Y-110481333D01*
X113040333Y-110414666D01*
X113040333Y-110248000D01*
X113073666Y-110181333D01*
X113107000Y-110148000D01*
X113173666Y-110114666D01*
X113340333Y-110114666D01*
X113407000Y-110148000D01*
X113440333Y-110181333D01*
X113473666Y-110248000D01*
X113473666Y-110414666D01*
X113440333Y-110481333D01*
X113407000Y-110514666D01*
%TO.C,C1*%
X55121142Y-83732666D02*
X55168761Y-83780285D01*
X55216380Y-83923142D01*
X55216380Y-84018380D01*
X55168761Y-84161238D01*
X55073523Y-84256476D01*
X54978285Y-84304095D01*
X54787809Y-84351714D01*
X54644952Y-84351714D01*
X54454476Y-84304095D01*
X54359238Y-84256476D01*
X54264000Y-84161238D01*
X54216380Y-84018380D01*
X54216380Y-83923142D01*
X54264000Y-83780285D01*
X54311619Y-83732666D01*
X55216380Y-82780285D02*
X55216380Y-83351714D01*
X55216380Y-83066000D02*
X54216380Y-83066000D01*
X54359238Y-83161238D01*
X54454476Y-83256476D01*
X54502095Y-83351714D01*
%TO.C,R3*%
X50252333Y-101036380D02*
X49919000Y-100560190D01*
X49680904Y-101036380D02*
X49680904Y-100036380D01*
X50061857Y-100036380D01*
X50157095Y-100084000D01*
X50204714Y-100131619D01*
X50252333Y-100226857D01*
X50252333Y-100369714D01*
X50204714Y-100464952D01*
X50157095Y-100512571D01*
X50061857Y-100560190D01*
X49680904Y-100560190D01*
X50585666Y-100036380D02*
X51204714Y-100036380D01*
X50871380Y-100417333D01*
X51014238Y-100417333D01*
X51109476Y-100464952D01*
X51157095Y-100512571D01*
X51204714Y-100607809D01*
X51204714Y-100845904D01*
X51157095Y-100941142D01*
X51109476Y-100988761D01*
X51014238Y-101036380D01*
X50728523Y-101036380D01*
X50633285Y-100988761D01*
X50585666Y-100941142D01*
%TO.C,J5*%
X84840380Y-65865333D02*
X85554666Y-65865333D01*
X85697523Y-65912952D01*
X85792761Y-66008190D01*
X85840380Y-66151047D01*
X85840380Y-66246285D01*
X84840380Y-64912952D02*
X84840380Y-65389142D01*
X85316571Y-65436761D01*
X85268952Y-65389142D01*
X85221333Y-65293904D01*
X85221333Y-65055809D01*
X85268952Y-64960571D01*
X85316571Y-64912952D01*
X85411809Y-64865333D01*
X85649904Y-64865333D01*
X85745142Y-64912952D01*
X85792761Y-64960571D01*
X85840380Y-65055809D01*
X85840380Y-65293904D01*
X85792761Y-65389142D01*
X85745142Y-65436761D01*
%TO.C,C35*%
X111736142Y-118432857D02*
X111783761Y-118480476D01*
X111831380Y-118623333D01*
X111831380Y-118718571D01*
X111783761Y-118861428D01*
X111688523Y-118956666D01*
X111593285Y-119004285D01*
X111402809Y-119051904D01*
X111259952Y-119051904D01*
X111069476Y-119004285D01*
X110974238Y-118956666D01*
X110879000Y-118861428D01*
X110831380Y-118718571D01*
X110831380Y-118623333D01*
X110879000Y-118480476D01*
X110926619Y-118432857D01*
X110831380Y-118099523D02*
X110831380Y-117480476D01*
X111212333Y-117813809D01*
X111212333Y-117670952D01*
X111259952Y-117575714D01*
X111307571Y-117528095D01*
X111402809Y-117480476D01*
X111640904Y-117480476D01*
X111736142Y-117528095D01*
X111783761Y-117575714D01*
X111831380Y-117670952D01*
X111831380Y-117956666D01*
X111783761Y-118051904D01*
X111736142Y-118099523D01*
X110831380Y-116575714D02*
X110831380Y-117051904D01*
X111307571Y-117099523D01*
X111259952Y-117051904D01*
X111212333Y-116956666D01*
X111212333Y-116718571D01*
X111259952Y-116623333D01*
X111307571Y-116575714D01*
X111402809Y-116528095D01*
X111640904Y-116528095D01*
X111736142Y-116575714D01*
X111783761Y-116623333D01*
X111831380Y-116718571D01*
X111831380Y-116956666D01*
X111783761Y-117051904D01*
X111736142Y-117099523D01*
%TO.C,C34*%
X116972142Y-94368857D02*
X117019761Y-94416476D01*
X117067380Y-94559333D01*
X117067380Y-94654571D01*
X117019761Y-94797428D01*
X116924523Y-94892666D01*
X116829285Y-94940285D01*
X116638809Y-94987904D01*
X116495952Y-94987904D01*
X116305476Y-94940285D01*
X116210238Y-94892666D01*
X116115000Y-94797428D01*
X116067380Y-94654571D01*
X116067380Y-94559333D01*
X116115000Y-94416476D01*
X116162619Y-94368857D01*
X116067380Y-94035523D02*
X116067380Y-93416476D01*
X116448333Y-93749809D01*
X116448333Y-93606952D01*
X116495952Y-93511714D01*
X116543571Y-93464095D01*
X116638809Y-93416476D01*
X116876904Y-93416476D01*
X116972142Y-93464095D01*
X117019761Y-93511714D01*
X117067380Y-93606952D01*
X117067380Y-93892666D01*
X117019761Y-93987904D01*
X116972142Y-94035523D01*
X116400714Y-92559333D02*
X117067380Y-92559333D01*
X116019761Y-92797428D02*
X116734047Y-93035523D01*
X116734047Y-92416476D01*
%TO.C,R12*%
X75811142Y-113862380D02*
X75477809Y-113386190D01*
X75239714Y-113862380D02*
X75239714Y-112862380D01*
X75620666Y-112862380D01*
X75715904Y-112910000D01*
X75763523Y-112957619D01*
X75811142Y-113052857D01*
X75811142Y-113195714D01*
X75763523Y-113290952D01*
X75715904Y-113338571D01*
X75620666Y-113386190D01*
X75239714Y-113386190D01*
X76763523Y-113862380D02*
X76192095Y-113862380D01*
X76477809Y-113862380D02*
X76477809Y-112862380D01*
X76382571Y-113005238D01*
X76287333Y-113100476D01*
X76192095Y-113148095D01*
X77144476Y-112957619D02*
X77192095Y-112910000D01*
X77287333Y-112862380D01*
X77525428Y-112862380D01*
X77620666Y-112910000D01*
X77668285Y-112957619D01*
X77715904Y-113052857D01*
X77715904Y-113148095D01*
X77668285Y-113290952D01*
X77096857Y-113862380D01*
X77715904Y-113862380D01*
%TO.C,R28*%
X95750142Y-111450380D02*
X95416809Y-110974190D01*
X95178714Y-111450380D02*
X95178714Y-110450380D01*
X95559666Y-110450380D01*
X95654904Y-110498000D01*
X95702523Y-110545619D01*
X95750142Y-110640857D01*
X95750142Y-110783714D01*
X95702523Y-110878952D01*
X95654904Y-110926571D01*
X95559666Y-110974190D01*
X95178714Y-110974190D01*
X96131095Y-110545619D02*
X96178714Y-110498000D01*
X96273952Y-110450380D01*
X96512047Y-110450380D01*
X96607285Y-110498000D01*
X96654904Y-110545619D01*
X96702523Y-110640857D01*
X96702523Y-110736095D01*
X96654904Y-110878952D01*
X96083476Y-111450380D01*
X96702523Y-111450380D01*
X97273952Y-110878952D02*
X97178714Y-110831333D01*
X97131095Y-110783714D01*
X97083476Y-110688476D01*
X97083476Y-110640857D01*
X97131095Y-110545619D01*
X97178714Y-110498000D01*
X97273952Y-110450380D01*
X97464428Y-110450380D01*
X97559666Y-110498000D01*
X97607285Y-110545619D01*
X97654904Y-110640857D01*
X97654904Y-110688476D01*
X97607285Y-110783714D01*
X97559666Y-110831333D01*
X97464428Y-110878952D01*
X97273952Y-110878952D01*
X97178714Y-110926571D01*
X97131095Y-110974190D01*
X97083476Y-111069428D01*
X97083476Y-111259904D01*
X97131095Y-111355142D01*
X97178714Y-111402761D01*
X97273952Y-111450380D01*
X97464428Y-111450380D01*
X97559666Y-111402761D01*
X97607285Y-111355142D01*
X97654904Y-111259904D01*
X97654904Y-111069428D01*
X97607285Y-110974190D01*
X97559666Y-110926571D01*
X97464428Y-110878952D01*
%TO.C,JP3*%
X119943666Y-91781380D02*
X119943666Y-92495666D01*
X119896047Y-92638523D01*
X119800809Y-92733761D01*
X119657952Y-92781380D01*
X119562714Y-92781380D01*
X120419857Y-92781380D02*
X120419857Y-91781380D01*
X120800809Y-91781380D01*
X120896047Y-91829000D01*
X120943666Y-91876619D01*
X120991285Y-91971857D01*
X120991285Y-92114714D01*
X120943666Y-92209952D01*
X120896047Y-92257571D01*
X120800809Y-92305190D01*
X120419857Y-92305190D01*
X121324619Y-91781380D02*
X121943666Y-91781380D01*
X121610333Y-92162333D01*
X121753190Y-92162333D01*
X121848428Y-92209952D01*
X121896047Y-92257571D01*
X121943666Y-92352809D01*
X121943666Y-92590904D01*
X121896047Y-92686142D01*
X121848428Y-92733761D01*
X121753190Y-92781380D01*
X121467476Y-92781380D01*
X121372238Y-92733761D01*
X121324619Y-92686142D01*
%TO.C,J1*%
X50212666Y-58674380D02*
X50212666Y-59388666D01*
X50165047Y-59531523D01*
X50069809Y-59626761D01*
X49926952Y-59674380D01*
X49831714Y-59674380D01*
X51212666Y-59674380D02*
X50641238Y-59674380D01*
X50926952Y-59674380D02*
X50926952Y-58674380D01*
X50831714Y-58817238D01*
X50736476Y-58912476D01*
X50641238Y-58960095D01*
%TO.C,R5*%
X56713380Y-113450666D02*
X56237190Y-113784000D01*
X56713380Y-114022095D02*
X55713380Y-114022095D01*
X55713380Y-113641142D01*
X55761000Y-113545904D01*
X55808619Y-113498285D01*
X55903857Y-113450666D01*
X56046714Y-113450666D01*
X56141952Y-113498285D01*
X56189571Y-113545904D01*
X56237190Y-113641142D01*
X56237190Y-114022095D01*
X55713380Y-112545904D02*
X55713380Y-113022095D01*
X56189571Y-113069714D01*
X56141952Y-113022095D01*
X56094333Y-112926857D01*
X56094333Y-112688761D01*
X56141952Y-112593523D01*
X56189571Y-112545904D01*
X56284809Y-112498285D01*
X56522904Y-112498285D01*
X56618142Y-112545904D01*
X56665761Y-112593523D01*
X56713380Y-112688761D01*
X56713380Y-112926857D01*
X56665761Y-113022095D01*
X56618142Y-113069714D01*
%TO.C,T1*%
X47458380Y-104266904D02*
X47458380Y-103695476D01*
X48458380Y-103981190D02*
X47458380Y-103981190D01*
X48458380Y-102838333D02*
X48458380Y-103409761D01*
X48458380Y-103124047D02*
X47458380Y-103124047D01*
X47601238Y-103219285D01*
X47696476Y-103314523D01*
X47744095Y-103409761D01*
%TO.C,C3*%
X40643142Y-83935866D02*
X40690761Y-83983485D01*
X40738380Y-84126342D01*
X40738380Y-84221580D01*
X40690761Y-84364438D01*
X40595523Y-84459676D01*
X40500285Y-84507295D01*
X40309809Y-84554914D01*
X40166952Y-84554914D01*
X39976476Y-84507295D01*
X39881238Y-84459676D01*
X39786000Y-84364438D01*
X39738380Y-84221580D01*
X39738380Y-84126342D01*
X39786000Y-83983485D01*
X39833619Y-83935866D01*
X39738380Y-83602533D02*
X39738380Y-82983485D01*
X40119333Y-83316819D01*
X40119333Y-83173961D01*
X40166952Y-83078723D01*
X40214571Y-83031104D01*
X40309809Y-82983485D01*
X40547904Y-82983485D01*
X40643142Y-83031104D01*
X40690761Y-83078723D01*
X40738380Y-83173961D01*
X40738380Y-83459676D01*
X40690761Y-83554914D01*
X40643142Y-83602533D01*
%TO.C,Y1*%
X90922100Y-67442079D02*
X90922100Y-67918269D01*
X90588767Y-66918269D02*
X90922100Y-67442079D01*
X91255433Y-66918269D01*
X92112576Y-67918269D02*
X91541148Y-67918269D01*
X91826862Y-67918269D02*
X91826862Y-66918269D01*
X91731624Y-67061127D01*
X91636386Y-67156365D01*
X91541148Y-67203984D01*
%TO.C,C14*%
X75464942Y-102242857D02*
X75512561Y-102290476D01*
X75560180Y-102433333D01*
X75560180Y-102528571D01*
X75512561Y-102671428D01*
X75417323Y-102766666D01*
X75322085Y-102814285D01*
X75131609Y-102861904D01*
X74988752Y-102861904D01*
X74798276Y-102814285D01*
X74703038Y-102766666D01*
X74607800Y-102671428D01*
X74560180Y-102528571D01*
X74560180Y-102433333D01*
X74607800Y-102290476D01*
X74655419Y-102242857D01*
X75560180Y-101290476D02*
X75560180Y-101861904D01*
X75560180Y-101576190D02*
X74560180Y-101576190D01*
X74703038Y-101671428D01*
X74798276Y-101766666D01*
X74845895Y-101861904D01*
X74893514Y-100433333D02*
X75560180Y-100433333D01*
X74512561Y-100671428D02*
X75226847Y-100909523D01*
X75226847Y-100290476D01*
%TO.C,C31*%
X104071000Y-112772000D02*
X104037666Y-112805333D01*
X103937666Y-112838666D01*
X103871000Y-112838666D01*
X103771000Y-112805333D01*
X103704333Y-112738666D01*
X103671000Y-112672000D01*
X103637666Y-112538666D01*
X103637666Y-112438666D01*
X103671000Y-112305333D01*
X103704333Y-112238666D01*
X103771000Y-112172000D01*
X103871000Y-112138666D01*
X103937666Y-112138666D01*
X104037666Y-112172000D01*
X104071000Y-112205333D01*
X104304333Y-112138666D02*
X104737666Y-112138666D01*
X104504333Y-112405333D01*
X104604333Y-112405333D01*
X104671000Y-112438666D01*
X104704333Y-112472000D01*
X104737666Y-112538666D01*
X104737666Y-112705333D01*
X104704333Y-112772000D01*
X104671000Y-112805333D01*
X104604333Y-112838666D01*
X104404333Y-112838666D01*
X104337666Y-112805333D01*
X104304333Y-112772000D01*
X105404333Y-112838666D02*
X105004333Y-112838666D01*
X105204333Y-112838666D02*
X105204333Y-112138666D01*
X105137666Y-112238666D01*
X105071000Y-112305333D01*
X105004333Y-112338666D01*
%TO.C,J6*%
X117649666Y-95591380D02*
X117649666Y-96305666D01*
X117602047Y-96448523D01*
X117506809Y-96543761D01*
X117363952Y-96591380D01*
X117268714Y-96591380D01*
X118554428Y-95591380D02*
X118363952Y-95591380D01*
X118268714Y-95639000D01*
X118221095Y-95686619D01*
X118125857Y-95829476D01*
X118078238Y-96019952D01*
X118078238Y-96400904D01*
X118125857Y-96496142D01*
X118173476Y-96543761D01*
X118268714Y-96591380D01*
X118459190Y-96591380D01*
X118554428Y-96543761D01*
X118602047Y-96496142D01*
X118649666Y-96400904D01*
X118649666Y-96162809D01*
X118602047Y-96067571D01*
X118554428Y-96019952D01*
X118459190Y-95972333D01*
X118268714Y-95972333D01*
X118173476Y-96019952D01*
X118125857Y-96067571D01*
X118078238Y-96162809D01*
%TO.C,C25*%
X91432142Y-115292142D02*
X91384523Y-115339761D01*
X91241666Y-115387380D01*
X91146428Y-115387380D01*
X91003571Y-115339761D01*
X90908333Y-115244523D01*
X90860714Y-115149285D01*
X90813095Y-114958809D01*
X90813095Y-114815952D01*
X90860714Y-114625476D01*
X90908333Y-114530238D01*
X91003571Y-114435000D01*
X91146428Y-114387380D01*
X91241666Y-114387380D01*
X91384523Y-114435000D01*
X91432142Y-114482619D01*
X91813095Y-114482619D02*
X91860714Y-114435000D01*
X91955952Y-114387380D01*
X92194047Y-114387380D01*
X92289285Y-114435000D01*
X92336904Y-114482619D01*
X92384523Y-114577857D01*
X92384523Y-114673095D01*
X92336904Y-114815952D01*
X91765476Y-115387380D01*
X92384523Y-115387380D01*
X93289285Y-114387380D02*
X92813095Y-114387380D01*
X92765476Y-114863571D01*
X92813095Y-114815952D01*
X92908333Y-114768333D01*
X93146428Y-114768333D01*
X93241666Y-114815952D01*
X93289285Y-114863571D01*
X93336904Y-114958809D01*
X93336904Y-115196904D01*
X93289285Y-115292142D01*
X93241666Y-115339761D01*
X93146428Y-115387380D01*
X92908333Y-115387380D01*
X92813095Y-115339761D01*
X92765476Y-115292142D01*
%TO.C,C16*%
X69740542Y-109373942D02*
X69692923Y-109421561D01*
X69550066Y-109469180D01*
X69454828Y-109469180D01*
X69311971Y-109421561D01*
X69216733Y-109326323D01*
X69169114Y-109231085D01*
X69121495Y-109040609D01*
X69121495Y-108897752D01*
X69169114Y-108707276D01*
X69216733Y-108612038D01*
X69311971Y-108516800D01*
X69454828Y-108469180D01*
X69550066Y-108469180D01*
X69692923Y-108516800D01*
X69740542Y-108564419D01*
X70692923Y-109469180D02*
X70121495Y-109469180D01*
X70407209Y-109469180D02*
X70407209Y-108469180D01*
X70311971Y-108612038D01*
X70216733Y-108707276D01*
X70121495Y-108754895D01*
X71550066Y-108469180D02*
X71359590Y-108469180D01*
X71264352Y-108516800D01*
X71216733Y-108564419D01*
X71121495Y-108707276D01*
X71073876Y-108897752D01*
X71073876Y-109278704D01*
X71121495Y-109373942D01*
X71169114Y-109421561D01*
X71264352Y-109469180D01*
X71454828Y-109469180D01*
X71550066Y-109421561D01*
X71597685Y-109373942D01*
X71645304Y-109278704D01*
X71645304Y-109040609D01*
X71597685Y-108945371D01*
X71550066Y-108897752D01*
X71454828Y-108850133D01*
X71264352Y-108850133D01*
X71169114Y-108897752D01*
X71121495Y-108945371D01*
X71073876Y-109040609D01*
%TO.C,U7*%
X96901095Y-100798380D02*
X96901095Y-101607904D01*
X96948714Y-101703142D01*
X96996333Y-101750761D01*
X97091571Y-101798380D01*
X97282047Y-101798380D01*
X97377285Y-101750761D01*
X97424904Y-101703142D01*
X97472523Y-101607904D01*
X97472523Y-100798380D01*
X97853476Y-100798380D02*
X98520142Y-100798380D01*
X98091571Y-101798380D01*
%TO.C,R10*%
X69842142Y-94940380D02*
X69508809Y-94464190D01*
X69270714Y-94940380D02*
X69270714Y-93940380D01*
X69651666Y-93940380D01*
X69746904Y-93988000D01*
X69794523Y-94035619D01*
X69842142Y-94130857D01*
X69842142Y-94273714D01*
X69794523Y-94368952D01*
X69746904Y-94416571D01*
X69651666Y-94464190D01*
X69270714Y-94464190D01*
X70794523Y-94940380D02*
X70223095Y-94940380D01*
X70508809Y-94940380D02*
X70508809Y-93940380D01*
X70413571Y-94083238D01*
X70318333Y-94178476D01*
X70223095Y-94226095D01*
X71413571Y-93940380D02*
X71508809Y-93940380D01*
X71604047Y-93988000D01*
X71651666Y-94035619D01*
X71699285Y-94130857D01*
X71746904Y-94321333D01*
X71746904Y-94559428D01*
X71699285Y-94749904D01*
X71651666Y-94845142D01*
X71604047Y-94892761D01*
X71508809Y-94940380D01*
X71413571Y-94940380D01*
X71318333Y-94892761D01*
X71270714Y-94845142D01*
X71223095Y-94749904D01*
X71175476Y-94559428D01*
X71175476Y-94321333D01*
X71223095Y-94130857D01*
X71270714Y-94035619D01*
X71318333Y-93988000D01*
X71413571Y-93940380D01*
%TO.C,C12*%
X85320142Y-91574857D02*
X85367761Y-91622476D01*
X85415380Y-91765333D01*
X85415380Y-91860571D01*
X85367761Y-92003428D01*
X85272523Y-92098666D01*
X85177285Y-92146285D01*
X84986809Y-92193904D01*
X84843952Y-92193904D01*
X84653476Y-92146285D01*
X84558238Y-92098666D01*
X84463000Y-92003428D01*
X84415380Y-91860571D01*
X84415380Y-91765333D01*
X84463000Y-91622476D01*
X84510619Y-91574857D01*
X85415380Y-90622476D02*
X85415380Y-91193904D01*
X85415380Y-90908190D02*
X84415380Y-90908190D01*
X84558238Y-91003428D01*
X84653476Y-91098666D01*
X84701095Y-91193904D01*
X84510619Y-90241523D02*
X84463000Y-90193904D01*
X84415380Y-90098666D01*
X84415380Y-89860571D01*
X84463000Y-89765333D01*
X84510619Y-89717714D01*
X84605857Y-89670095D01*
X84701095Y-89670095D01*
X84843952Y-89717714D01*
X85415380Y-90289142D01*
X85415380Y-89670095D01*
%TO.C,R41*%
X115755000Y-111568666D02*
X115521666Y-111235333D01*
X115355000Y-111568666D02*
X115355000Y-110868666D01*
X115621666Y-110868666D01*
X115688333Y-110902000D01*
X115721666Y-110935333D01*
X115755000Y-111002000D01*
X115755000Y-111102000D01*
X115721666Y-111168666D01*
X115688333Y-111202000D01*
X115621666Y-111235333D01*
X115355000Y-111235333D01*
X116355000Y-111102000D02*
X116355000Y-111568666D01*
X116188333Y-110835333D02*
X116021666Y-111335333D01*
X116455000Y-111335333D01*
X117088333Y-111568666D02*
X116688333Y-111568666D01*
X116888333Y-111568666D02*
X116888333Y-110868666D01*
X116821666Y-110968666D01*
X116755000Y-111035333D01*
X116688333Y-111068666D01*
%TO.C,R9*%
X79193380Y-105637666D02*
X78717190Y-105971000D01*
X79193380Y-106209095D02*
X78193380Y-106209095D01*
X78193380Y-105828142D01*
X78241000Y-105732904D01*
X78288619Y-105685285D01*
X78383857Y-105637666D01*
X78526714Y-105637666D01*
X78621952Y-105685285D01*
X78669571Y-105732904D01*
X78717190Y-105828142D01*
X78717190Y-106209095D01*
X79193380Y-105161476D02*
X79193380Y-104971000D01*
X79145761Y-104875761D01*
X79098142Y-104828142D01*
X78955285Y-104732904D01*
X78764809Y-104685285D01*
X78383857Y-104685285D01*
X78288619Y-104732904D01*
X78241000Y-104780523D01*
X78193380Y-104875761D01*
X78193380Y-105066238D01*
X78241000Y-105161476D01*
X78288619Y-105209095D01*
X78383857Y-105256714D01*
X78621952Y-105256714D01*
X78717190Y-105209095D01*
X78764809Y-105161476D01*
X78812428Y-105066238D01*
X78812428Y-104875761D01*
X78764809Y-104780523D01*
X78717190Y-104732904D01*
X78621952Y-104685285D01*
%TO.C,R21*%
X91432142Y-102051380D02*
X91098809Y-101575190D01*
X90860714Y-102051380D02*
X90860714Y-101051380D01*
X91241666Y-101051380D01*
X91336904Y-101099000D01*
X91384523Y-101146619D01*
X91432142Y-101241857D01*
X91432142Y-101384714D01*
X91384523Y-101479952D01*
X91336904Y-101527571D01*
X91241666Y-101575190D01*
X90860714Y-101575190D01*
X91813095Y-101146619D02*
X91860714Y-101099000D01*
X91955952Y-101051380D01*
X92194047Y-101051380D01*
X92289285Y-101099000D01*
X92336904Y-101146619D01*
X92384523Y-101241857D01*
X92384523Y-101337095D01*
X92336904Y-101479952D01*
X91765476Y-102051380D01*
X92384523Y-102051380D01*
X93336904Y-102051380D02*
X92765476Y-102051380D01*
X93051190Y-102051380D02*
X93051190Y-101051380D01*
X92955952Y-101194238D01*
X92860714Y-101289476D01*
X92765476Y-101337095D01*
%TO.C,L3*%
X66508333Y-95542380D02*
X66032142Y-95542380D01*
X66032142Y-94542380D01*
X66746428Y-94542380D02*
X67365476Y-94542380D01*
X67032142Y-94923333D01*
X67175000Y-94923333D01*
X67270238Y-94970952D01*
X67317857Y-95018571D01*
X67365476Y-95113809D01*
X67365476Y-95351904D01*
X67317857Y-95447142D01*
X67270238Y-95494761D01*
X67175000Y-95542380D01*
X66889285Y-95542380D01*
X66794047Y-95494761D01*
X66746428Y-95447142D01*
%TO.C,R20*%
X78478142Y-96464380D02*
X78144809Y-95988190D01*
X77906714Y-96464380D02*
X77906714Y-95464380D01*
X78287666Y-95464380D01*
X78382904Y-95512000D01*
X78430523Y-95559619D01*
X78478142Y-95654857D01*
X78478142Y-95797714D01*
X78430523Y-95892952D01*
X78382904Y-95940571D01*
X78287666Y-95988190D01*
X77906714Y-95988190D01*
X78859095Y-95559619D02*
X78906714Y-95512000D01*
X79001952Y-95464380D01*
X79240047Y-95464380D01*
X79335285Y-95512000D01*
X79382904Y-95559619D01*
X79430523Y-95654857D01*
X79430523Y-95750095D01*
X79382904Y-95892952D01*
X78811476Y-96464380D01*
X79430523Y-96464380D01*
X80049571Y-95464380D02*
X80144809Y-95464380D01*
X80240047Y-95512000D01*
X80287666Y-95559619D01*
X80335285Y-95654857D01*
X80382904Y-95845333D01*
X80382904Y-96083428D01*
X80335285Y-96273904D01*
X80287666Y-96369142D01*
X80240047Y-96416761D01*
X80144809Y-96464380D01*
X80049571Y-96464380D01*
X79954333Y-96416761D01*
X79906714Y-96369142D01*
X79859095Y-96273904D01*
X79811476Y-96083428D01*
X79811476Y-95845333D01*
X79859095Y-95654857D01*
X79906714Y-95559619D01*
X79954333Y-95512000D01*
X80049571Y-95464380D01*
%TO.C,C8*%
X59383142Y-79729666D02*
X59430761Y-79777285D01*
X59478380Y-79920142D01*
X59478380Y-80015380D01*
X59430761Y-80158238D01*
X59335523Y-80253476D01*
X59240285Y-80301095D01*
X59049809Y-80348714D01*
X58906952Y-80348714D01*
X58716476Y-80301095D01*
X58621238Y-80253476D01*
X58526000Y-80158238D01*
X58478380Y-80015380D01*
X58478380Y-79920142D01*
X58526000Y-79777285D01*
X58573619Y-79729666D01*
X58906952Y-79158238D02*
X58859333Y-79253476D01*
X58811714Y-79301095D01*
X58716476Y-79348714D01*
X58668857Y-79348714D01*
X58573619Y-79301095D01*
X58526000Y-79253476D01*
X58478380Y-79158238D01*
X58478380Y-78967761D01*
X58526000Y-78872523D01*
X58573619Y-78824904D01*
X58668857Y-78777285D01*
X58716476Y-78777285D01*
X58811714Y-78824904D01*
X58859333Y-78872523D01*
X58906952Y-78967761D01*
X58906952Y-79158238D01*
X58954571Y-79253476D01*
X59002190Y-79301095D01*
X59097428Y-79348714D01*
X59287904Y-79348714D01*
X59383142Y-79301095D01*
X59430761Y-79253476D01*
X59478380Y-79158238D01*
X59478380Y-78967761D01*
X59430761Y-78872523D01*
X59383142Y-78824904D01*
X59287904Y-78777285D01*
X59097428Y-78777285D01*
X59002190Y-78824904D01*
X58954571Y-78872523D01*
X58906952Y-78967761D01*
%TO.C,R34*%
X113101380Y-91066857D02*
X112625190Y-91400190D01*
X113101380Y-91638285D02*
X112101380Y-91638285D01*
X112101380Y-91257333D01*
X112149000Y-91162095D01*
X112196619Y-91114476D01*
X112291857Y-91066857D01*
X112434714Y-91066857D01*
X112529952Y-91114476D01*
X112577571Y-91162095D01*
X112625190Y-91257333D01*
X112625190Y-91638285D01*
X112101380Y-90733523D02*
X112101380Y-90114476D01*
X112482333Y-90447809D01*
X112482333Y-90304952D01*
X112529952Y-90209714D01*
X112577571Y-90162095D01*
X112672809Y-90114476D01*
X112910904Y-90114476D01*
X113006142Y-90162095D01*
X113053761Y-90209714D01*
X113101380Y-90304952D01*
X113101380Y-90590666D01*
X113053761Y-90685904D01*
X113006142Y-90733523D01*
X112434714Y-89257333D02*
X113101380Y-89257333D01*
X112053761Y-89495428D02*
X112768047Y-89733523D01*
X112768047Y-89114476D01*
%TO.C,C32*%
X106050142Y-102750857D02*
X106097761Y-102798476D01*
X106145380Y-102941333D01*
X106145380Y-103036571D01*
X106097761Y-103179428D01*
X106002523Y-103274666D01*
X105907285Y-103322285D01*
X105716809Y-103369904D01*
X105573952Y-103369904D01*
X105383476Y-103322285D01*
X105288238Y-103274666D01*
X105193000Y-103179428D01*
X105145380Y-103036571D01*
X105145380Y-102941333D01*
X105193000Y-102798476D01*
X105240619Y-102750857D01*
X105145380Y-102417523D02*
X105145380Y-101798476D01*
X105526333Y-102131809D01*
X105526333Y-101988952D01*
X105573952Y-101893714D01*
X105621571Y-101846095D01*
X105716809Y-101798476D01*
X105954904Y-101798476D01*
X106050142Y-101846095D01*
X106097761Y-101893714D01*
X106145380Y-101988952D01*
X106145380Y-102274666D01*
X106097761Y-102369904D01*
X106050142Y-102417523D01*
X105240619Y-101417523D02*
X105193000Y-101369904D01*
X105145380Y-101274666D01*
X105145380Y-101036571D01*
X105193000Y-100941333D01*
X105240619Y-100893714D01*
X105335857Y-100846095D01*
X105431095Y-100846095D01*
X105573952Y-100893714D01*
X106145380Y-101465142D01*
X106145380Y-100846095D01*
%TO.C,R7*%
X84238266Y-72405066D02*
X83904933Y-72638400D01*
X84238266Y-72805066D02*
X83538266Y-72805066D01*
X83538266Y-72538400D01*
X83571600Y-72471733D01*
X83604933Y-72438400D01*
X83671600Y-72405066D01*
X83771600Y-72405066D01*
X83838266Y-72438400D01*
X83871600Y-72471733D01*
X83904933Y-72538400D01*
X83904933Y-72805066D01*
X83538266Y-72171733D02*
X83538266Y-71705066D01*
X84238266Y-72005066D01*
%TO.C,R14*%
X85844142Y-98624380D02*
X85510809Y-98148190D01*
X85272714Y-98624380D02*
X85272714Y-97624380D01*
X85653666Y-97624380D01*
X85748904Y-97672000D01*
X85796523Y-97719619D01*
X85844142Y-97814857D01*
X85844142Y-97957714D01*
X85796523Y-98052952D01*
X85748904Y-98100571D01*
X85653666Y-98148190D01*
X85272714Y-98148190D01*
X86796523Y-98624380D02*
X86225095Y-98624380D01*
X86510809Y-98624380D02*
X86510809Y-97624380D01*
X86415571Y-97767238D01*
X86320333Y-97862476D01*
X86225095Y-97910095D01*
X87653666Y-97957714D02*
X87653666Y-98624380D01*
X87415571Y-97576761D02*
X87177476Y-98291047D01*
X87796523Y-98291047D01*
%TO.C,C28*%
X99560142Y-114911142D02*
X99512523Y-114958761D01*
X99369666Y-115006380D01*
X99274428Y-115006380D01*
X99131571Y-114958761D01*
X99036333Y-114863523D01*
X98988714Y-114768285D01*
X98941095Y-114577809D01*
X98941095Y-114434952D01*
X98988714Y-114244476D01*
X99036333Y-114149238D01*
X99131571Y-114054000D01*
X99274428Y-114006380D01*
X99369666Y-114006380D01*
X99512523Y-114054000D01*
X99560142Y-114101619D01*
X99941095Y-114101619D02*
X99988714Y-114054000D01*
X100083952Y-114006380D01*
X100322047Y-114006380D01*
X100417285Y-114054000D01*
X100464904Y-114101619D01*
X100512523Y-114196857D01*
X100512523Y-114292095D01*
X100464904Y-114434952D01*
X99893476Y-115006380D01*
X100512523Y-115006380D01*
X101083952Y-114434952D02*
X100988714Y-114387333D01*
X100941095Y-114339714D01*
X100893476Y-114244476D01*
X100893476Y-114196857D01*
X100941095Y-114101619D01*
X100988714Y-114054000D01*
X101083952Y-114006380D01*
X101274428Y-114006380D01*
X101369666Y-114054000D01*
X101417285Y-114101619D01*
X101464904Y-114196857D01*
X101464904Y-114244476D01*
X101417285Y-114339714D01*
X101369666Y-114387333D01*
X101274428Y-114434952D01*
X101083952Y-114434952D01*
X100988714Y-114482571D01*
X100941095Y-114530190D01*
X100893476Y-114625428D01*
X100893476Y-114815904D01*
X100941095Y-114911142D01*
X100988714Y-114958761D01*
X101083952Y-115006380D01*
X101274428Y-115006380D01*
X101369666Y-114958761D01*
X101417285Y-114911142D01*
X101464904Y-114815904D01*
X101464904Y-114625428D01*
X101417285Y-114530190D01*
X101369666Y-114482571D01*
X101274428Y-114434952D01*
%TO.C,U5*%
X85979095Y-107307380D02*
X85979095Y-108116904D01*
X86026714Y-108212142D01*
X86074333Y-108259761D01*
X86169571Y-108307380D01*
X86360047Y-108307380D01*
X86455285Y-108259761D01*
X86502904Y-108212142D01*
X86550523Y-108116904D01*
X86550523Y-107307380D01*
X87502904Y-107307380D02*
X87026714Y-107307380D01*
X86979095Y-107783571D01*
X87026714Y-107735952D01*
X87121952Y-107688333D01*
X87360047Y-107688333D01*
X87455285Y-107735952D01*
X87502904Y-107783571D01*
X87550523Y-107878809D01*
X87550523Y-108116904D01*
X87502904Y-108212142D01*
X87455285Y-108259761D01*
X87360047Y-108307380D01*
X87121952Y-108307380D01*
X87026714Y-108259761D01*
X86979095Y-108212142D01*
%TO.C,C5*%
X54967142Y-96051666D02*
X55014761Y-96099285D01*
X55062380Y-96242142D01*
X55062380Y-96337380D01*
X55014761Y-96480238D01*
X54919523Y-96575476D01*
X54824285Y-96623095D01*
X54633809Y-96670714D01*
X54490952Y-96670714D01*
X54300476Y-96623095D01*
X54205238Y-96575476D01*
X54110000Y-96480238D01*
X54062380Y-96337380D01*
X54062380Y-96242142D01*
X54110000Y-96099285D01*
X54157619Y-96051666D01*
X54062380Y-95146904D02*
X54062380Y-95623095D01*
X54538571Y-95670714D01*
X54490952Y-95623095D01*
X54443333Y-95527857D01*
X54443333Y-95289761D01*
X54490952Y-95194523D01*
X54538571Y-95146904D01*
X54633809Y-95099285D01*
X54871904Y-95099285D01*
X54967142Y-95146904D01*
X55014761Y-95194523D01*
X55062380Y-95289761D01*
X55062380Y-95527857D01*
X55014761Y-95623095D01*
X54967142Y-95670714D01*
%TO.C,R1*%
X54173380Y-113450666D02*
X53697190Y-113784000D01*
X54173380Y-114022095D02*
X53173380Y-114022095D01*
X53173380Y-113641142D01*
X53221000Y-113545904D01*
X53268619Y-113498285D01*
X53363857Y-113450666D01*
X53506714Y-113450666D01*
X53601952Y-113498285D01*
X53649571Y-113545904D01*
X53697190Y-113641142D01*
X53697190Y-114022095D01*
X54173380Y-112498285D02*
X54173380Y-113069714D01*
X54173380Y-112784000D02*
X53173380Y-112784000D01*
X53316238Y-112879238D01*
X53411476Y-112974476D01*
X53459095Y-113069714D01*
%TO.C,C36*%
X103309000Y-109216000D02*
X103275666Y-109249333D01*
X103175666Y-109282666D01*
X103109000Y-109282666D01*
X103009000Y-109249333D01*
X102942333Y-109182666D01*
X102909000Y-109116000D01*
X102875666Y-108982666D01*
X102875666Y-108882666D01*
X102909000Y-108749333D01*
X102942333Y-108682666D01*
X103009000Y-108616000D01*
X103109000Y-108582666D01*
X103175666Y-108582666D01*
X103275666Y-108616000D01*
X103309000Y-108649333D01*
X103542333Y-108582666D02*
X103975666Y-108582666D01*
X103742333Y-108849333D01*
X103842333Y-108849333D01*
X103909000Y-108882666D01*
X103942333Y-108916000D01*
X103975666Y-108982666D01*
X103975666Y-109149333D01*
X103942333Y-109216000D01*
X103909000Y-109249333D01*
X103842333Y-109282666D01*
X103642333Y-109282666D01*
X103575666Y-109249333D01*
X103542333Y-109216000D01*
X104575666Y-108582666D02*
X104442333Y-108582666D01*
X104375666Y-108616000D01*
X104342333Y-108649333D01*
X104275666Y-108749333D01*
X104242333Y-108882666D01*
X104242333Y-109149333D01*
X104275666Y-109216000D01*
X104309000Y-109249333D01*
X104375666Y-109282666D01*
X104509000Y-109282666D01*
X104575666Y-109249333D01*
X104609000Y-109216000D01*
X104642333Y-109149333D01*
X104642333Y-108982666D01*
X104609000Y-108916000D01*
X104575666Y-108882666D01*
X104509000Y-108849333D01*
X104375666Y-108849333D01*
X104309000Y-108882666D01*
X104275666Y-108916000D01*
X104242333Y-108982666D01*
%TO.C,U3*%
X78700380Y-72897904D02*
X79509904Y-72897904D01*
X79605142Y-72850285D01*
X79652761Y-72802666D01*
X79700380Y-72707428D01*
X79700380Y-72516952D01*
X79652761Y-72421714D01*
X79605142Y-72374095D01*
X79509904Y-72326476D01*
X78700380Y-72326476D01*
X78700380Y-71945523D02*
X78700380Y-71326476D01*
X79081333Y-71659809D01*
X79081333Y-71516952D01*
X79128952Y-71421714D01*
X79176571Y-71374095D01*
X79271809Y-71326476D01*
X79509904Y-71326476D01*
X79605142Y-71374095D01*
X79652761Y-71421714D01*
X79700380Y-71516952D01*
X79700380Y-71802666D01*
X79652761Y-71897904D01*
X79605142Y-71945523D01*
%TO.C,J3*%
X47414380Y-73993333D02*
X48128666Y-73993333D01*
X48271523Y-74040952D01*
X48366761Y-74136190D01*
X48414380Y-74279047D01*
X48414380Y-74374285D01*
X47414380Y-73612380D02*
X47414380Y-72993333D01*
X47795333Y-73326666D01*
X47795333Y-73183809D01*
X47842952Y-73088571D01*
X47890571Y-73040952D01*
X47985809Y-72993333D01*
X48223904Y-72993333D01*
X48319142Y-73040952D01*
X48366761Y-73088571D01*
X48414380Y-73183809D01*
X48414380Y-73469523D01*
X48366761Y-73564761D01*
X48319142Y-73612380D01*
%TO.C,J4*%
X59855380Y-93297333D02*
X60569666Y-93297333D01*
X60712523Y-93344952D01*
X60807761Y-93440190D01*
X60855380Y-93583047D01*
X60855380Y-93678285D01*
X60188714Y-92392571D02*
X60855380Y-92392571D01*
X59807761Y-92630666D02*
X60522047Y-92868761D01*
X60522047Y-92249714D01*
%TO.C,R40*%
X110307380Y-94622857D02*
X109831190Y-94956190D01*
X110307380Y-95194285D02*
X109307380Y-95194285D01*
X109307380Y-94813333D01*
X109355000Y-94718095D01*
X109402619Y-94670476D01*
X109497857Y-94622857D01*
X109640714Y-94622857D01*
X109735952Y-94670476D01*
X109783571Y-94718095D01*
X109831190Y-94813333D01*
X109831190Y-95194285D01*
X109640714Y-93765714D02*
X110307380Y-93765714D01*
X109259761Y-94003809D02*
X109974047Y-94241904D01*
X109974047Y-93622857D01*
X109307380Y-93051428D02*
X109307380Y-92956190D01*
X109355000Y-92860952D01*
X109402619Y-92813333D01*
X109497857Y-92765714D01*
X109688333Y-92718095D01*
X109926428Y-92718095D01*
X110116904Y-92765714D01*
X110212142Y-92813333D01*
X110259761Y-92860952D01*
X110307380Y-92956190D01*
X110307380Y-93051428D01*
X110259761Y-93146666D01*
X110212142Y-93194285D01*
X110116904Y-93241904D01*
X109926428Y-93289523D01*
X109688333Y-93289523D01*
X109497857Y-93241904D01*
X109402619Y-93194285D01*
X109355000Y-93146666D01*
X109307380Y-93051428D01*
%TO.C,R39*%
X113473666Y-108908000D02*
X113140333Y-109141333D01*
X113473666Y-109308000D02*
X112773666Y-109308000D01*
X112773666Y-109041333D01*
X112807000Y-108974666D01*
X112840333Y-108941333D01*
X112907000Y-108908000D01*
X113007000Y-108908000D01*
X113073666Y-108941333D01*
X113107000Y-108974666D01*
X113140333Y-109041333D01*
X113140333Y-109308000D01*
X112773666Y-108674666D02*
X112773666Y-108241333D01*
X113040333Y-108474666D01*
X113040333Y-108374666D01*
X113073666Y-108308000D01*
X113107000Y-108274666D01*
X113173666Y-108241333D01*
X113340333Y-108241333D01*
X113407000Y-108274666D01*
X113440333Y-108308000D01*
X113473666Y-108374666D01*
X113473666Y-108574666D01*
X113440333Y-108641333D01*
X113407000Y-108674666D01*
X113473666Y-107908000D02*
X113473666Y-107774666D01*
X113440333Y-107708000D01*
X113407000Y-107674666D01*
X113307000Y-107608000D01*
X113173666Y-107574666D01*
X112907000Y-107574666D01*
X112840333Y-107608000D01*
X112807000Y-107641333D01*
X112773666Y-107708000D01*
X112773666Y-107841333D01*
X112807000Y-107908000D01*
X112840333Y-107941333D01*
X112907000Y-107974666D01*
X113073666Y-107974666D01*
X113140333Y-107941333D01*
X113173666Y-107908000D01*
X113207000Y-107841333D01*
X113207000Y-107708000D01*
X113173666Y-107641333D01*
X113140333Y-107608000D01*
X113073666Y-107574666D01*
%TO.C,R16*%
X80891142Y-113862380D02*
X80557809Y-113386190D01*
X80319714Y-113862380D02*
X80319714Y-112862380D01*
X80700666Y-112862380D01*
X80795904Y-112910000D01*
X80843523Y-112957619D01*
X80891142Y-113052857D01*
X80891142Y-113195714D01*
X80843523Y-113290952D01*
X80795904Y-113338571D01*
X80700666Y-113386190D01*
X80319714Y-113386190D01*
X81843523Y-113862380D02*
X81272095Y-113862380D01*
X81557809Y-113862380D02*
X81557809Y-112862380D01*
X81462571Y-113005238D01*
X81367333Y-113100476D01*
X81272095Y-113148095D01*
X82700666Y-112862380D02*
X82510190Y-112862380D01*
X82414952Y-112910000D01*
X82367333Y-112957619D01*
X82272095Y-113100476D01*
X82224476Y-113290952D01*
X82224476Y-113671904D01*
X82272095Y-113767142D01*
X82319714Y-113814761D01*
X82414952Y-113862380D01*
X82605428Y-113862380D01*
X82700666Y-113814761D01*
X82748285Y-113767142D01*
X82795904Y-113671904D01*
X82795904Y-113433809D01*
X82748285Y-113338571D01*
X82700666Y-113290952D01*
X82605428Y-113243333D01*
X82414952Y-113243333D01*
X82319714Y-113290952D01*
X82272095Y-113338571D01*
X82224476Y-113433809D01*
%TO.C,R2*%
X72656397Y-72724046D02*
X72180207Y-73057380D01*
X72656397Y-73295475D02*
X71656397Y-73295475D01*
X71656397Y-72914522D01*
X71704017Y-72819284D01*
X71751636Y-72771665D01*
X71846874Y-72724046D01*
X71989731Y-72724046D01*
X72084969Y-72771665D01*
X72132588Y-72819284D01*
X72180207Y-72914522D01*
X72180207Y-73295475D01*
X71751636Y-72343094D02*
X71704017Y-72295475D01*
X71656397Y-72200237D01*
X71656397Y-71962141D01*
X71704017Y-71866903D01*
X71751636Y-71819284D01*
X71846874Y-71771665D01*
X71942112Y-71771665D01*
X72084969Y-71819284D01*
X72656397Y-72390713D01*
X72656397Y-71771665D01*
%TO.C,C19*%
X73144142Y-99036142D02*
X73096523Y-99083761D01*
X72953666Y-99131380D01*
X72858428Y-99131380D01*
X72715571Y-99083761D01*
X72620333Y-98988523D01*
X72572714Y-98893285D01*
X72525095Y-98702809D01*
X72525095Y-98559952D01*
X72572714Y-98369476D01*
X72620333Y-98274238D01*
X72715571Y-98179000D01*
X72858428Y-98131380D01*
X72953666Y-98131380D01*
X73096523Y-98179000D01*
X73144142Y-98226619D01*
X74096523Y-99131380D02*
X73525095Y-99131380D01*
X73810809Y-99131380D02*
X73810809Y-98131380D01*
X73715571Y-98274238D01*
X73620333Y-98369476D01*
X73525095Y-98417095D01*
X74572714Y-99131380D02*
X74763190Y-99131380D01*
X74858428Y-99083761D01*
X74906047Y-99036142D01*
X75001285Y-98893285D01*
X75048904Y-98702809D01*
X75048904Y-98321857D01*
X75001285Y-98226619D01*
X74953666Y-98179000D01*
X74858428Y-98131380D01*
X74667952Y-98131380D01*
X74572714Y-98179000D01*
X74525095Y-98226619D01*
X74477476Y-98321857D01*
X74477476Y-98559952D01*
X74525095Y-98655190D01*
X74572714Y-98702809D01*
X74667952Y-98750428D01*
X74858428Y-98750428D01*
X74953666Y-98702809D01*
X75001285Y-98655190D01*
X75048904Y-98559952D01*
%TO.C,C24*%
X71620142Y-92051142D02*
X71572523Y-92098761D01*
X71429666Y-92146380D01*
X71334428Y-92146380D01*
X71191571Y-92098761D01*
X71096333Y-92003523D01*
X71048714Y-91908285D01*
X71001095Y-91717809D01*
X71001095Y-91574952D01*
X71048714Y-91384476D01*
X71096333Y-91289238D01*
X71191571Y-91194000D01*
X71334428Y-91146380D01*
X71429666Y-91146380D01*
X71572523Y-91194000D01*
X71620142Y-91241619D01*
X72001095Y-91241619D02*
X72048714Y-91194000D01*
X72143952Y-91146380D01*
X72382047Y-91146380D01*
X72477285Y-91194000D01*
X72524904Y-91241619D01*
X72572523Y-91336857D01*
X72572523Y-91432095D01*
X72524904Y-91574952D01*
X71953476Y-92146380D01*
X72572523Y-92146380D01*
X73429666Y-91479714D02*
X73429666Y-92146380D01*
X73191571Y-91098761D02*
X72953476Y-91813047D01*
X73572523Y-91813047D01*
%TO.C,H2*%
X115316095Y-113609380D02*
X115316095Y-112609380D01*
X115316095Y-113085571D02*
X115887523Y-113085571D01*
X115887523Y-113609380D02*
X115887523Y-112609380D01*
X116316095Y-112704619D02*
X116363714Y-112657000D01*
X116458952Y-112609380D01*
X116697047Y-112609380D01*
X116792285Y-112657000D01*
X116839904Y-112704619D01*
X116887523Y-112799857D01*
X116887523Y-112895095D01*
X116839904Y-113037952D01*
X116268476Y-113609380D01*
X116887523Y-113609380D01*
%TO.C,R8*%
X59253380Y-113450666D02*
X58777190Y-113784000D01*
X59253380Y-114022095D02*
X58253380Y-114022095D01*
X58253380Y-113641142D01*
X58301000Y-113545904D01*
X58348619Y-113498285D01*
X58443857Y-113450666D01*
X58586714Y-113450666D01*
X58681952Y-113498285D01*
X58729571Y-113545904D01*
X58777190Y-113641142D01*
X58777190Y-114022095D01*
X58681952Y-112879238D02*
X58634333Y-112974476D01*
X58586714Y-113022095D01*
X58491476Y-113069714D01*
X58443857Y-113069714D01*
X58348619Y-113022095D01*
X58301000Y-112974476D01*
X58253380Y-112879238D01*
X58253380Y-112688761D01*
X58301000Y-112593523D01*
X58348619Y-112545904D01*
X58443857Y-112498285D01*
X58491476Y-112498285D01*
X58586714Y-112545904D01*
X58634333Y-112593523D01*
X58681952Y-112688761D01*
X58681952Y-112879238D01*
X58729571Y-112974476D01*
X58777190Y-113022095D01*
X58872428Y-113069714D01*
X59062904Y-113069714D01*
X59158142Y-113022095D01*
X59205761Y-112974476D01*
X59253380Y-112879238D01*
X59253380Y-112688761D01*
X59205761Y-112593523D01*
X59158142Y-112545904D01*
X59062904Y-112498285D01*
X58872428Y-112498285D01*
X58777190Y-112545904D01*
X58729571Y-112593523D01*
X58681952Y-112688761D01*
%TO.C,Q2*%
X57181761Y-104573619D02*
X57086523Y-104526000D01*
X56991285Y-104430761D01*
X56848428Y-104287904D01*
X56753190Y-104240285D01*
X56657952Y-104240285D01*
X56705571Y-104478380D02*
X56610333Y-104430761D01*
X56515095Y-104335523D01*
X56467476Y-104145047D01*
X56467476Y-103811714D01*
X56515095Y-103621238D01*
X56610333Y-103526000D01*
X56705571Y-103478380D01*
X56896047Y-103478380D01*
X56991285Y-103526000D01*
X57086523Y-103621238D01*
X57134142Y-103811714D01*
X57134142Y-104145047D01*
X57086523Y-104335523D01*
X56991285Y-104430761D01*
X56896047Y-104478380D01*
X56705571Y-104478380D01*
X57515095Y-103573619D02*
X57562714Y-103526000D01*
X57657952Y-103478380D01*
X57896047Y-103478380D01*
X57991285Y-103526000D01*
X58038904Y-103573619D01*
X58086523Y-103668857D01*
X58086523Y-103764095D01*
X58038904Y-103906952D01*
X57467476Y-104478380D01*
X58086523Y-104478380D01*
%TO.C,C30*%
X91641142Y-106626857D02*
X91688761Y-106674476D01*
X91736380Y-106817333D01*
X91736380Y-106912571D01*
X91688761Y-107055428D01*
X91593523Y-107150666D01*
X91498285Y-107198285D01*
X91307809Y-107245904D01*
X91164952Y-107245904D01*
X90974476Y-107198285D01*
X90879238Y-107150666D01*
X90784000Y-107055428D01*
X90736380Y-106912571D01*
X90736380Y-106817333D01*
X90784000Y-106674476D01*
X90831619Y-106626857D01*
X90736380Y-106293523D02*
X90736380Y-105674476D01*
X91117333Y-106007809D01*
X91117333Y-105864952D01*
X91164952Y-105769714D01*
X91212571Y-105722095D01*
X91307809Y-105674476D01*
X91545904Y-105674476D01*
X91641142Y-105722095D01*
X91688761Y-105769714D01*
X91736380Y-105864952D01*
X91736380Y-106150666D01*
X91688761Y-106245904D01*
X91641142Y-106293523D01*
X90736380Y-105055428D02*
X90736380Y-104960190D01*
X90784000Y-104864952D01*
X90831619Y-104817333D01*
X90926857Y-104769714D01*
X91117333Y-104722095D01*
X91355428Y-104722095D01*
X91545904Y-104769714D01*
X91641142Y-104817333D01*
X91688761Y-104864952D01*
X91736380Y-104960190D01*
X91736380Y-105055428D01*
X91688761Y-105150666D01*
X91641142Y-105198285D01*
X91545904Y-105245904D01*
X91355428Y-105293523D01*
X91117333Y-105293523D01*
X90926857Y-105245904D01*
X90831619Y-105198285D01*
X90784000Y-105150666D01*
X90736380Y-105055428D01*
%TO.C,H3*%
X27559095Y-112847380D02*
X27559095Y-111847380D01*
X27559095Y-112323571D02*
X28130523Y-112323571D01*
X28130523Y-112847380D02*
X28130523Y-111847380D01*
X28511476Y-111847380D02*
X29130523Y-111847380D01*
X28797190Y-112228333D01*
X28940047Y-112228333D01*
X29035285Y-112275952D01*
X29082904Y-112323571D01*
X29130523Y-112418809D01*
X29130523Y-112656904D01*
X29082904Y-112752142D01*
X29035285Y-112799761D01*
X28940047Y-112847380D01*
X28654333Y-112847380D01*
X28559095Y-112799761D01*
X28511476Y-112752142D01*
%TO.C,L5*%
X92085333Y-72325666D02*
X91752000Y-72325666D01*
X91752000Y-71625666D01*
X92652000Y-71625666D02*
X92318666Y-71625666D01*
X92285333Y-71959000D01*
X92318666Y-71925666D01*
X92385333Y-71892333D01*
X92552000Y-71892333D01*
X92618666Y-71925666D01*
X92652000Y-71959000D01*
X92685333Y-72025666D01*
X92685333Y-72192333D01*
X92652000Y-72259000D01*
X92618666Y-72292333D01*
X92552000Y-72325666D01*
X92385333Y-72325666D01*
X92318666Y-72292333D01*
X92285333Y-72259000D01*
%TO.C,C27*%
X103116142Y-100306142D02*
X103068523Y-100353761D01*
X102925666Y-100401380D01*
X102830428Y-100401380D01*
X102687571Y-100353761D01*
X102592333Y-100258523D01*
X102544714Y-100163285D01*
X102497095Y-99972809D01*
X102497095Y-99829952D01*
X102544714Y-99639476D01*
X102592333Y-99544238D01*
X102687571Y-99449000D01*
X102830428Y-99401380D01*
X102925666Y-99401380D01*
X103068523Y-99449000D01*
X103116142Y-99496619D01*
X103497095Y-99496619D02*
X103544714Y-99449000D01*
X103639952Y-99401380D01*
X103878047Y-99401380D01*
X103973285Y-99449000D01*
X104020904Y-99496619D01*
X104068523Y-99591857D01*
X104068523Y-99687095D01*
X104020904Y-99829952D01*
X103449476Y-100401380D01*
X104068523Y-100401380D01*
X104401857Y-99401380D02*
X105068523Y-99401380D01*
X104639952Y-100401380D01*
D11*
%TO.C,R18*%
X97255000Y-65535436D02*
X97255000Y-65989564D01*
X95785000Y-65535436D02*
X95785000Y-65989564D01*
%TO.C,R15*%
X99160000Y-65535436D02*
X99160000Y-65989564D01*
X97690000Y-65535436D02*
X97690000Y-65989564D01*
%TO.C,C37*%
X117756000Y-108704748D02*
X117756000Y-109227252D01*
X119226000Y-108704748D02*
X119226000Y-109227252D01*
%TO.C,C6*%
X50573000Y-110878252D02*
X50573000Y-110355748D01*
X52043000Y-110878252D02*
X52043000Y-110355748D01*
%TO.C,R19*%
X75210936Y-94969000D02*
X75665064Y-94969000D01*
X75210936Y-93499000D02*
X75665064Y-93499000D01*
%TO.C,C11*%
X96977252Y-94128000D02*
X95554748Y-94128000D01*
X96977252Y-92308000D02*
X95554748Y-92308000D01*
%TO.C,R38*%
X106780064Y-107669000D02*
X106325936Y-107669000D01*
X106780064Y-106199000D02*
X106325936Y-106199000D01*
%TO.C,C2*%
X58187000Y-97459748D02*
X58187000Y-98882252D01*
X56367000Y-97459748D02*
X56367000Y-98882252D01*
%TO.C,R4*%
X56668936Y-101246000D02*
X57123064Y-101246000D01*
X56668936Y-102716000D02*
X57123064Y-102716000D01*
%TO.C,R17*%
X76808064Y-114200000D02*
X76353936Y-114200000D01*
X76808064Y-115670000D02*
X76353936Y-115670000D01*
%TO.C,C10*%
X66667748Y-97944000D02*
X67190252Y-97944000D01*
X66667748Y-99414000D02*
X67190252Y-99414000D01*
%TO.C,C20*%
X101099252Y-92991000D02*
X100576748Y-92991000D01*
X101099252Y-94461000D02*
X100576748Y-94461000D01*
%TO.C,C29*%
X96258748Y-97255000D02*
X96781252Y-97255000D01*
X96258748Y-95785000D02*
X96781252Y-95785000D01*
D10*
%TO.C,U6*%
X97899289Y-69473887D02*
X97899289Y-72823887D01*
X94549289Y-69473887D02*
X94849289Y-69473887D01*
X97899289Y-69473887D02*
X97674289Y-69473887D01*
X97899289Y-72823887D02*
X97599289Y-72823887D01*
X94549289Y-72823887D02*
X94849289Y-72823887D01*
X94549289Y-69473887D02*
X94549289Y-72823887D01*
X97674289Y-69473887D02*
X97674289Y-68248887D01*
D11*
%TO.C,Q1*%
X50637000Y-106426000D02*
X50637000Y-108101000D01*
X53757000Y-106426000D02*
X53757000Y-107076000D01*
X53757000Y-106426000D02*
X53757000Y-105776000D01*
X50637000Y-106426000D02*
X50637000Y-105776000D01*
%TO.C,C18*%
X91915245Y-74449000D02*
X92437749Y-74449000D01*
X91915245Y-75919000D02*
X92437749Y-75919000D01*
%TO.C,L6*%
X100873779Y-95705200D02*
X100548221Y-95705200D01*
X100873779Y-96725200D02*
X100548221Y-96725200D01*
%TO.C,C15*%
X72363000Y-101973748D02*
X72363000Y-102496252D01*
X70893000Y-101973748D02*
X70893000Y-102496252D01*
%TO.C,JP2*%
X61611000Y-99444000D02*
X61611000Y-96644000D01*
X63611000Y-99444000D02*
X61611000Y-99444000D01*
X61611000Y-96644000D02*
X63611000Y-96644000D01*
X63611000Y-96644000D02*
X63611000Y-99444000D01*
%TO.C,C21*%
X79001252Y-99475000D02*
X78478748Y-99475000D01*
X79001252Y-98005000D02*
X78478748Y-98005000D01*
%TO.C,C26*%
X86720000Y-93063748D02*
X86720000Y-94486252D01*
X88540000Y-93063748D02*
X88540000Y-94486252D01*
%TO.C,C7*%
X58935252Y-72544000D02*
X58412748Y-72544000D01*
X58935252Y-74014000D02*
X58412748Y-74014000D01*
%TO.C,R37*%
X106325936Y-105637000D02*
X106780064Y-105637000D01*
X106325936Y-104167000D02*
X106780064Y-104167000D01*
%TO.C,R22*%
X92198564Y-109955000D02*
X91744436Y-109955000D01*
X92198564Y-108485000D02*
X91744436Y-108485000D01*
%TO.C,R33*%
X108104000Y-114273064D02*
X108104000Y-113818936D01*
X109574000Y-114273064D02*
X109574000Y-113818936D01*
%TO.C,R25*%
X96747064Y-100684000D02*
X96292936Y-100684000D01*
X96747064Y-99214000D02*
X96292936Y-99214000D01*
%TO.C,R6*%
X70839000Y-69990444D02*
X70839000Y-69536316D01*
X69369000Y-69990444D02*
X69369000Y-69536316D01*
%TO.C,C23*%
X81272748Y-114200000D02*
X81795252Y-114200000D01*
X81272748Y-115670000D02*
X81795252Y-115670000D01*
%TO.C,L8*%
X108079000Y-101945221D02*
X108079000Y-102270779D01*
X107059000Y-101945221D02*
X107059000Y-102270779D01*
%TO.C,R13*%
X83539064Y-109447000D02*
X83084936Y-109447000D01*
X83539064Y-107977000D02*
X83084936Y-107977000D01*
%TO.C,L4*%
X83060000Y-94325221D02*
X83060000Y-94650779D01*
X82040000Y-94325221D02*
X82040000Y-94650779D01*
%TO.C,L7*%
X79057779Y-92210000D02*
X78732221Y-92210000D01*
X79057779Y-91190000D02*
X78732221Y-91190000D01*
%TO.C,C13*%
X76100000Y-105275748D02*
X76100000Y-105798252D01*
X77570000Y-105275748D02*
X77570000Y-105798252D01*
%TO.C,R11*%
X79656000Y-101888064D02*
X79656000Y-101433936D01*
X81126000Y-101888064D02*
X81126000Y-101433936D01*
%TO.C,J2*%
X32001000Y-100689000D02*
X32001000Y-104289000D01*
X26521000Y-106169000D02*
X30121000Y-106169000D01*
X24641000Y-100689000D02*
X24641000Y-104289000D01*
X26521000Y-98809000D02*
X30121000Y-98809000D01*
%TO.C,C38*%
X104548000Y-97543252D02*
X104548000Y-97020748D01*
X106018000Y-97543252D02*
X106018000Y-97020748D01*
%TO.C,R31*%
X100102936Y-108485000D02*
X100557064Y-108485000D01*
X100102936Y-109955000D02*
X100557064Y-109955000D01*
%TO.C,C33*%
X106799748Y-93245000D02*
X107322252Y-93245000D01*
X106799748Y-94715000D02*
X107322252Y-94715000D01*
%TO.C,R27*%
X91847936Y-95912000D02*
X92302064Y-95912000D01*
X91847936Y-97382000D02*
X92302064Y-97382000D01*
%TO.C,R32*%
X91847936Y-94334000D02*
X92302064Y-94334000D01*
X91847936Y-92864000D02*
X92302064Y-92864000D01*
%TO.C,R24*%
X96165936Y-112041000D02*
X96620064Y-112041000D01*
X96165936Y-113511000D02*
X96620064Y-113511000D01*
%TO.C,C17*%
X78605748Y-108038000D02*
X79128252Y-108038000D01*
X78605748Y-109508000D02*
X79128252Y-109508000D01*
%TO.C,L1*%
X52580000Y-98770221D02*
X52580000Y-99095779D01*
X51560000Y-98770221D02*
X51560000Y-99095779D01*
%TO.C,C22*%
X72645600Y-112834052D02*
X72645600Y-112311548D01*
X74115600Y-112834052D02*
X74115600Y-112311548D01*
%TO.C,C4*%
X63849000Y-68092000D02*
G75*
G03*
X63849000Y-68092000I-3270000J0D01*
G01*
%TO.C,U8*%
X114193000Y-103378000D02*
X114193000Y-101428000D01*
X109073000Y-103378000D02*
X109073000Y-106828000D01*
X109073000Y-103378000D02*
X109073000Y-101428000D01*
X114193000Y-103378000D02*
X114193000Y-105328000D01*
%TO.C,R36*%
X111660000Y-97509064D02*
X111660000Y-97054936D01*
X113130000Y-97509064D02*
X113130000Y-97054936D01*
%TO.C,U4*%
X65913000Y-106113000D02*
X63713000Y-106113000D01*
X65913000Y-100643000D02*
X68113000Y-100643000D01*
X65913000Y-106113000D02*
X68113000Y-106113000D01*
X65913000Y-100643000D02*
X62313000Y-100643000D01*
%TO.C,L2*%
X87632000Y-72278021D02*
X87632000Y-72603579D01*
X86612000Y-72278021D02*
X86612000Y-72603579D01*
%TO.C,C9*%
X86113252Y-75919000D02*
X85590748Y-75919000D01*
X86113252Y-74449000D02*
X85590748Y-74449000D01*
%TO.C,R42*%
X108304000Y-97054936D02*
X108304000Y-97509064D01*
X106834000Y-97054936D02*
X106834000Y-97509064D01*
%TO.C,JP1*%
X84706000Y-70037200D02*
X84706000Y-68037200D01*
X87506000Y-68037200D02*
X87506000Y-70037200D01*
X84706000Y-68037200D02*
X87506000Y-68037200D01*
X87506000Y-70037200D02*
X84706000Y-70037200D01*
%TO.C,R35*%
X111098064Y-111733000D02*
X110643936Y-111733000D01*
X111098064Y-110263000D02*
X110643936Y-110263000D01*
%TO.C,C1*%
X53634000Y-83566000D02*
G75*
G03*
X53634000Y-83566000I-5120000J0D01*
G01*
%TO.C,R3*%
X51969936Y-102843000D02*
X52424064Y-102843000D01*
X51969936Y-101373000D02*
X52424064Y-101373000D01*
%TO.C,J5*%
X81788000Y-64202000D02*
X81788000Y-66862000D01*
X84388000Y-64202000D02*
X84388000Y-65532000D01*
X81788000Y-66862000D02*
X66488000Y-66862000D01*
X83058000Y-64202000D02*
X84388000Y-64202000D01*
X66488000Y-64202000D02*
X66488000Y-66862000D01*
X81788000Y-64202000D02*
X66488000Y-64202000D01*
%TO.C,C35*%
X112114000Y-114815252D02*
X112114000Y-114292748D01*
X110644000Y-114815252D02*
X110644000Y-114292748D01*
%TO.C,C34*%
X114200000Y-93464748D02*
X114200000Y-93987252D01*
X115670000Y-93464748D02*
X115670000Y-93987252D01*
%TO.C,R12*%
X76681064Y-111025000D02*
X76226936Y-111025000D01*
X76681064Y-112495000D02*
X76226936Y-112495000D01*
%TO.C,R28*%
X96747064Y-108485000D02*
X96292936Y-108485000D01*
X96747064Y-109955000D02*
X96292936Y-109955000D01*
%TO.C,JP3*%
X120412000Y-93469000D02*
X122412000Y-93469000D01*
X120412000Y-96269000D02*
X120412000Y-93469000D01*
X122412000Y-96269000D02*
X120412000Y-96269000D01*
X122412000Y-93469000D02*
X122412000Y-96269000D01*
%TO.C,J1*%
X45486000Y-68782000D02*
X55606000Y-68782000D01*
X54396000Y-65649000D02*
X54347000Y-65699000D01*
X55606000Y-60222000D02*
X55606000Y-70842000D01*
X54179000Y-65432000D02*
X54154000Y-65456000D01*
X51938000Y-68107000D02*
X51914000Y-68132000D01*
X51746000Y-67865000D02*
X51696000Y-67915000D01*
X45486000Y-60222000D02*
X45486000Y-70842000D01*
X45486000Y-60222000D02*
X55606000Y-60222000D01*
X45246000Y-68842000D02*
X45246000Y-71082000D01*
X45486000Y-63782000D02*
X55606000Y-63782000D01*
X45486000Y-70842000D02*
X55606000Y-70842000D01*
X45486000Y-64782000D02*
X55606000Y-64782000D01*
X45246000Y-71082000D02*
X47246000Y-71082000D01*
X46407000Y-66086000D02*
G75*
G03*
X46406794Y-67477516I1638995J-696001D01*
G01*
X47350000Y-68421000D02*
G75*
G03*
X48076814Y-68562390I695998J1638986D01*
G01*
X49685001Y-67478000D02*
G75*
G03*
X49685206Y-66086484I-1639001J696000D01*
G01*
X48742000Y-65143000D02*
G75*
G03*
X47350484Y-65142794I-696001J-1638995D01*
G01*
X48046000Y-68562000D02*
G75*
G03*
X48741501Y-68420499I0J1780002D01*
G01*
X54826000Y-66782000D02*
G75*
G03*
X54826000Y-66782000I-1780000J0D01*
G01*
%TO.C,R5*%
X55526000Y-110844064D02*
X55526000Y-110389936D01*
X56996000Y-110844064D02*
X56996000Y-110389936D01*
%TO.C,T1*%
X49510000Y-103505000D02*
G75*
G03*
X49510000Y-103505000I-7600000J0D01*
G01*
X45210000Y-103505000D02*
G75*
G03*
X45210000Y-103505000I-3300000J0D01*
G01*
%TO.C,C3*%
X39156000Y-83769200D02*
G75*
G03*
X39156000Y-83769200I-5120000J0D01*
G01*
%TO.C,Y1*%
X93398291Y-68101889D02*
X89398291Y-68101889D01*
X93398291Y-71401889D02*
X93398291Y-68101889D01*
%TO.C,C14*%
X77570000Y-101399748D02*
X77570000Y-101922252D01*
X76100000Y-101399748D02*
X76100000Y-101922252D01*
%TO.C,C31*%
X104259748Y-111733000D02*
X104782252Y-111733000D01*
X104259748Y-110263000D02*
X104782252Y-110263000D01*
%TO.C,J6*%
X117029000Y-97491000D02*
X118359000Y-97491000D01*
X119629000Y-100091000D02*
X119629000Y-97491000D01*
X117029000Y-98821000D02*
X117029000Y-97491000D01*
X117029000Y-105231000D02*
X122229000Y-105231000D01*
X117029000Y-100091000D02*
X119629000Y-100091000D01*
X117029000Y-100091000D02*
X117029000Y-105231000D01*
X119629000Y-97491000D02*
X122229000Y-97491000D01*
X122229000Y-97491000D02*
X122229000Y-105231000D01*
%TO.C,C25*%
X91363748Y-111739000D02*
X92786252Y-111739000D01*
X91363748Y-113559000D02*
X92786252Y-113559000D01*
%TO.C,C16*%
X70695452Y-111126600D02*
X70172948Y-111126600D01*
X70695452Y-112596600D02*
X70172948Y-112596600D01*
%TO.C,U7*%
X98044000Y-101961000D02*
X94594000Y-101961000D01*
X98044000Y-101961000D02*
X99994000Y-101961000D01*
X98044000Y-107081000D02*
X99994000Y-107081000D01*
X98044000Y-107081000D02*
X96094000Y-107081000D01*
%TO.C,R10*%
X70966064Y-95404000D02*
X70511936Y-95404000D01*
X70966064Y-96874000D02*
X70511936Y-96874000D01*
%TO.C,C12*%
X85698000Y-93972748D02*
X85698000Y-94495252D01*
X84228000Y-93972748D02*
X84228000Y-94495252D01*
%TO.C,R41*%
X115470000Y-108738936D02*
X115470000Y-109193064D01*
X116940000Y-108738936D02*
X116940000Y-109193064D01*
%TO.C,R9*%
X81126000Y-105698064D02*
X81126000Y-105243936D01*
X79656000Y-105698064D02*
X79656000Y-105243936D01*
%TO.C,R21*%
X92302064Y-100684000D02*
X91847936Y-100684000D01*
X92302064Y-99214000D02*
X91847936Y-99214000D01*
%TO.C,L3*%
X66512221Y-97030000D02*
X66837779Y-97030000D01*
X66512221Y-96010000D02*
X66837779Y-96010000D01*
%TO.C,R20*%
X79020936Y-93499000D02*
X79475064Y-93499000D01*
X79020936Y-94969000D02*
X79475064Y-94969000D01*
%TO.C,C8*%
X61441000Y-79824252D02*
X61441000Y-79301748D01*
X59971000Y-79824252D02*
X59971000Y-79301748D01*
%TO.C,R34*%
X113130000Y-93498936D02*
X113130000Y-93953064D01*
X111660000Y-93498936D02*
X111660000Y-93953064D01*
%TO.C,C32*%
X104748000Y-101846748D02*
X104748000Y-102369252D01*
X103278000Y-101846748D02*
X103278000Y-102369252D01*
%TO.C,R7*%
X85926600Y-72061336D02*
X85926600Y-72515464D01*
X84456600Y-72061336D02*
X84456600Y-72515464D01*
%TO.C,R14*%
X86259936Y-100557000D02*
X86714064Y-100557000D01*
X86259936Y-99087000D02*
X86714064Y-99087000D01*
%TO.C,C28*%
X100591252Y-112041000D02*
X100068748Y-112041000D01*
X100591252Y-113511000D02*
X100068748Y-113511000D01*
%TO.C,U5*%
X86741000Y-107015000D02*
X90191000Y-107015000D01*
X86741000Y-107015000D02*
X84791000Y-107015000D01*
X86741000Y-101895000D02*
X88691000Y-101895000D01*
X86741000Y-101895000D02*
X84791000Y-101895000D01*
%TO.C,C5*%
X53875000Y-98544748D02*
X53875000Y-99067252D01*
X55345000Y-98544748D02*
X55345000Y-99067252D01*
%TO.C,R1*%
X54456000Y-110389936D02*
X54456000Y-110844064D01*
X52986000Y-110389936D02*
X52986000Y-110844064D01*
%TO.C,C36*%
X106291748Y-108231000D02*
X106814252Y-108231000D01*
X106291748Y-109701000D02*
X106814252Y-109701000D01*
%TO.C,U3*%
X75213000Y-72136000D02*
X75213000Y-69936000D01*
X83283000Y-72136000D02*
X83283000Y-74336000D01*
X83283000Y-72136000D02*
X83283000Y-68536000D01*
X75213000Y-72136000D02*
X75213000Y-74336000D01*
%TO.C,J3*%
X51562000Y-74990000D02*
X51562000Y-72330000D01*
X50292000Y-74990000D02*
X48962000Y-74990000D01*
X54162000Y-74990000D02*
X54162000Y-72330000D01*
X51562000Y-74990000D02*
X54162000Y-74990000D01*
X48962000Y-74990000D02*
X48962000Y-73660000D01*
X51562000Y-72330000D02*
X54162000Y-72330000D01*
%TO.C,J4*%
X62733000Y-94294000D02*
X61403000Y-94294000D01*
X64003000Y-91634000D02*
X66603000Y-91634000D01*
X66603000Y-94294000D02*
X66603000Y-91634000D01*
X64003000Y-94294000D02*
X64003000Y-91634000D01*
X61403000Y-94294000D02*
X61403000Y-92964000D01*
X64003000Y-94294000D02*
X66603000Y-94294000D01*
%TO.C,R40*%
X109120000Y-97509064D02*
X109120000Y-97054936D01*
X110590000Y-97509064D02*
X110590000Y-97054936D01*
%TO.C,R39*%
X110643936Y-109193000D02*
X111098064Y-109193000D01*
X110643936Y-107723000D02*
X111098064Y-107723000D01*
%TO.C,R16*%
X81761064Y-112495000D02*
X81306936Y-112495000D01*
X81761064Y-111025000D02*
X81306936Y-111025000D01*
%TO.C,R2*%
X72871000Y-69990444D02*
X72871000Y-69536316D01*
X71401000Y-69990444D02*
X71401000Y-69536316D01*
%TO.C,C19*%
X70477748Y-97944000D02*
X71000252Y-97944000D01*
X70477748Y-99414000D02*
X71000252Y-99414000D01*
%TO.C,C24*%
X75176748Y-92429000D02*
X75699252Y-92429000D01*
X75176748Y-90959000D02*
X75699252Y-90959000D01*
%TO.C,R8*%
X59536000Y-110844064D02*
X59536000Y-110389936D01*
X58066000Y-110844064D02*
X58066000Y-110389936D01*
%TO.C,Q2*%
X57277000Y-107986000D02*
X56627000Y-107986000D01*
X57277000Y-104866000D02*
X55602000Y-104866000D01*
X57277000Y-107986000D02*
X57927000Y-107986000D01*
X57277000Y-104866000D02*
X57927000Y-104866000D01*
%TO.C,C30*%
X93699000Y-106245252D02*
X93699000Y-105722748D01*
X92229000Y-106245252D02*
X92229000Y-105722748D01*
%TO.C,L5*%
X92039221Y-73690891D02*
X92364779Y-73690891D01*
X92039221Y-72670891D02*
X92364779Y-72670891D01*
%TO.C,C27*%
X100718252Y-100684000D02*
X100195748Y-100684000D01*
X100718252Y-99214000D02*
X100195748Y-99214000D01*
%TD*%
M02*
