M48
; DRILL file {KiCad (6.0.9)} date Sat May 20 11:21:45 2023
; FORMAT={-:-/ absolute / inch / decimal}
; #@! TF.CreationDate,2023-05-20T11:21:45+02:00
; #@! TF.GenerationSoftware,Kicad,Pcbnew,(6.0.9)
; #@! TF.FileFunction,Plated,1,4,PTH
FMAT,2
INCH
; #@! TA.AperFunction,Plated,PTH,ViaDrill
T1C0.0157
; #@! TA.AperFunction,Plated,PTH,ComponentDrill
T2C0.0197
; #@! TA.AperFunction,Plated,PTH,ComponentDrill
T3C0.0315
; #@! TA.AperFunction,Plated,PTH,ComponentDrill
T4C0.0394
; #@! TA.AperFunction,Plated,PTH,ComponentDrill
T5C0.0472
; #@! TA.AperFunction,Plated,PTH,ComponentDrill
T6C0.0551
; #@! TA.AperFunction,Plated,PTH,ComponentDrill
T7C0.0591
; #@! TA.AperFunction,Plated,PTH,ComponentDrill
T8C0.0669
; #@! TA.AperFunction,Plated,PTH,ComponentDrill
T9C0.1260
%
G90
G05
T1
X1.0Y-4.355
X1.05Y-2.95
X1.05Y-3.1
X1.05Y-3.25
X1.05Y-3.4
X1.05Y-3.55
X1.05Y-3.69
X1.175Y-3.55
X1.22Y-3.685
X1.25Y-4.35
X1.275Y-3.55
X1.375Y-3.55
X1.4Y-4.65
X1.475Y-3.55
X1.5Y-4.65
X1.575Y-3.55
X1.6Y-4.65
X1.675Y-3.55
X1.695Y-2.595
X1.7Y-4.65
X1.775Y-3.55
X1.8Y-4.65
X1.875Y-3.55
X1.9Y-4.65
X2.0Y-4.65
X2.1Y-4.65
X2.125Y-3.55
X2.2Y-4.65
X2.225Y-3.55
X2.25Y-3.3
X2.27Y-2.89
X2.295Y-3.17
X2.3Y-4.65
X2.343Y-4.0
X2.35Y-3.3
X2.39Y-3.095
X2.39Y-3.17
X2.39Y-4.0
X2.4Y-3.55
X2.4Y-4.65
X2.45Y-3.3
X2.5Y-4.65
X2.539Y-3.075
X2.55Y-3.3
X2.575Y-4.023
X2.595Y-3.885
X2.6Y-4.65
X2.62Y-4.023
X2.65Y-3.3
X2.7Y-4.65
X2.725Y-4.34
X2.75Y-3.2
X2.75Y-3.885
X2.7622Y-4.0702
X2.8Y-3.4
X2.8Y-4.65
X2.85Y-3.1
X2.87Y-3.61
X2.875Y-2.8609
X2.9Y-3.3
X2.9Y-4.65
X2.9341Y-3.71
X2.98Y-2.67
X3.0Y-3.2
X3.0Y-4.65
X3.05Y-3.1
X3.085Y-3.71
X3.1Y-4.65
X3.14Y-3.885
X3.15Y-3.2
X3.155Y-3.71
X3.165Y-4.0383
X3.175Y-3.5
X3.184Y-3.016
X3.2Y-4.65
X3.2474Y-4.4015
X3.248Y-2.788
X3.25Y-3.1
X3.25Y-3.69
X3.25Y-3.75
X3.3Y-3.2
X3.3Y-4.65
X3.3136Y-4.1874
X3.37Y-3.93
X3.4Y-3.45
X3.4Y-4.65
X3.416Y-2.72
X3.416Y-2.962
X3.4409Y-3.93
X3.45Y-2.55
X3.45Y-3.2
X3.45Y-3.575
X3.46Y-3.1
X3.475Y-2.675
X3.5Y-3.45
X3.5Y-4.4331
X3.5Y-4.65
X3.5164Y-4.0374
X3.52Y-4.14
X3.5584Y-2.7161
X3.585Y-4.3
X3.594Y-2.96
X3.599Y-2.8811
X3.6Y-2.55
X3.6Y-3.2
X3.6Y-4.65
X3.61Y-3.1
X3.6434Y-2.7761
X3.65Y-3.45
X3.6609Y-3.805
X3.7Y-4.65
X3.71Y-3.02
X3.735Y-3.67
X3.74Y-2.9836
X3.75Y-3.2
X3.772Y-3.052
X3.778Y-2.994
X3.8Y-2.5531
X3.8Y-2.625
X3.8Y-3.45
X3.8Y-4.65
X3.82Y-3.05
X3.835Y-4.08
X3.8481Y-3.67
X3.89Y-4.14
X3.9Y-3.1
X3.9Y-4.65
X3.9176Y-3.935
X3.95Y-2.75
X3.95Y-2.9
X3.95Y-3.45
X4.0Y-2.55
X4.0Y-2.65
X4.0Y-4.65
X4.008Y-3.691
X4.095Y-3.9826
X4.1Y-3.45
X4.1Y-4.65
X4.125Y-4.55
X4.15Y-2.55
X4.155Y-4.21
X4.155Y-4.29
X4.225Y-4.45
X4.235Y-3.93
X4.25Y-3.45
X4.3Y-2.55
X4.4Y-3.45
X4.45Y-2.55
X4.485Y-4.25
X4.55Y-3.45
X4.7Y-3.0
X4.7Y-3.2
X4.7Y-3.45
T2
X1.0205Y-2.6575
X1.0205Y-4.61
X1.0482Y-2.5907
X1.0482Y-2.7243
X1.0482Y-4.5432
X1.0482Y-4.6768
X1.115Y-2.563
X1.115Y-2.752
X1.115Y-4.5155
X1.115Y-4.7045
X1.1818Y-2.5907
X1.1818Y-2.7243
X1.1818Y-4.5432
X1.1818Y-4.6768
X1.2095Y-2.6575
X1.2095Y-4.61
X4.5755Y-2.6575
X4.5755Y-4.605
X4.6032Y-2.5907
X4.6032Y-2.7243
X4.6032Y-4.5382
X4.6032Y-4.6718
X4.67Y-2.563
X4.67Y-2.752
X4.67Y-4.5105
X4.67Y-4.6995
X4.7368Y-2.5907
X4.7368Y-2.7243
X4.7368Y-4.5382
X4.7368Y-4.6718
X4.7645Y-2.6575
X4.7645Y-4.605
T3
X1.34Y-3.1996
X1.34Y-3.3964
X1.91Y-3.1916
X1.91Y-3.3884
X2.385Y-2.6316
X2.385Y-2.73
T4
X1.98Y-2.9
X2.08Y-2.9
X2.4698Y-3.66
X2.5698Y-3.66
X2.67Y-2.58
X2.77Y-2.58
X2.87Y-2.58
X2.97Y-2.58
X3.07Y-2.58
X3.17Y-2.58
X3.27Y-2.58
X4.6598Y-3.8906
X4.6598Y-3.9906
X4.6598Y-4.0906
X4.7598Y-3.8906
X4.7598Y-3.9906
X4.7598Y-4.0906
T5
X1.4531Y-3.76
X1.4531Y-4.39
X1.8469Y-3.76
X1.8469Y-4.39
T6
X1.8916Y-2.6292
X2.0884Y-2.6292
T7
X1.115Y-4.035
T8
X1.015Y-3.935
X1.015Y-4.135
X1.215Y-3.935
X1.215Y-4.135
T9
X1.115Y-2.6575
X1.115Y-4.61
X4.67Y-2.6575
X4.67Y-4.605
T0
M30
