%TF.GenerationSoftware,KiCad,Pcbnew,(6.0.9)*%
%TF.CreationDate,2023-05-20T11:21:48+02:00*%
%TF.ProjectId,sdrt41,73647274-3431-42e6-9b69-6361645f7063,rev?*%
%TF.SameCoordinates,Original*%
%TF.FileFunction,Copper,L2,Inr*%
%TF.FilePolarity,Positive*%
%FSLAX46Y46*%
G04 Gerber Fmt 4.6, Leading zero omitted, Abs format (unit mm)*
G04 Created by KiCad (PCBNEW (6.0.9)) date 2023-05-20 11:21:48*
%MOMM*%
%LPD*%
G01*
G04 APERTURE LIST*
%TA.AperFunction,ComponentPad*%
%ADD10C,0.800000*%
%TD*%
%TA.AperFunction,ComponentPad*%
%ADD11C,6.400000*%
%TD*%
%TA.AperFunction,ComponentPad*%
%ADD12C,2.050000*%
%TD*%
%TA.AperFunction,ComponentPad*%
%ADD13C,2.250000*%
%TD*%
%TA.AperFunction,ComponentPad*%
%ADD14C,1.600000*%
%TD*%
%TA.AperFunction,ComponentPad*%
%ADD15R,1.700000X1.700000*%
%TD*%
%TA.AperFunction,ComponentPad*%
%ADD16O,1.700000X1.700000*%
%TD*%
%TA.AperFunction,ComponentPad*%
%ADD17R,2.800000X2.800000*%
%TD*%
%TA.AperFunction,ComponentPad*%
%ADD18C,2.800000*%
%TD*%
%TA.AperFunction,ComponentPad*%
%ADD19C,3.000000*%
%TD*%
%TA.AperFunction,ViaPad*%
%ADD20C,0.800000*%
%TD*%
G04 APERTURE END LIST*
D10*
%TO.N,unconnected-(H1-Pad1)*%
%TO.C,H1*%
X116920944Y-69197056D03*
X121018000Y-67500000D03*
X120315056Y-65802944D03*
X120315056Y-69197056D03*
D11*
X118618000Y-67500000D03*
D10*
X118618000Y-65100000D03*
X116920944Y-65802944D03*
X118618000Y-69900000D03*
X116218000Y-67500000D03*
%TD*%
D12*
%TO.N,Net-(J2-Pad1)*%
%TO.C,J2*%
X28321000Y-102489000D03*
D13*
%TO.N,GND*%
X30861000Y-105029000D03*
X30861000Y-99949000D03*
X25781000Y-105029000D03*
X25781000Y-99949000D03*
%TD*%
D14*
%TO.N,+3V3*%
%TO.C,C4*%
X60579000Y-69342000D03*
%TO.N,GND*%
X60579000Y-66842000D03*
%TD*%
D10*
%TO.N,unconnected-(H4-Pad1)*%
%TO.C,H4*%
X26623944Y-69197056D03*
X30018056Y-69197056D03*
X30018056Y-65802944D03*
X26623944Y-65802944D03*
X28321000Y-69900000D03*
X30721000Y-67500000D03*
X28321000Y-65100000D03*
X25921000Y-67500000D03*
D11*
X28321000Y-67500000D03*
%TD*%
D14*
%TO.N,+12V*%
%TO.C,C1*%
X48514000Y-81066000D03*
%TO.N,GND*%
X48514000Y-86066000D03*
%TD*%
D15*
%TO.N,SDA2*%
%TO.C,J5*%
X83058000Y-65532000D03*
D16*
%TO.N,SCL2*%
X80518000Y-65532000D03*
%TO.N,SDA3*%
X77978000Y-65532000D03*
%TO.N,SCL3*%
X75438000Y-65532000D03*
%TO.N,SDA*%
X72898000Y-65532000D03*
%TO.N,SCL*%
X70358000Y-65532000D03*
%TO.N,GND*%
X67818000Y-65532000D03*
%TD*%
D17*
%TO.N,+12V*%
%TO.C,J1*%
X48046000Y-66782000D03*
D18*
%TO.N,GND*%
X53046000Y-66782000D03*
%TD*%
D19*
%TO.N,Net-(J2-Pad1)*%
%TO.C,T1*%
X36910000Y-95505000D03*
%TO.N,GND*%
X36910000Y-111505000D03*
X46910000Y-95505000D03*
%TO.N,Net-(C6-Pad1)*%
X46910000Y-111505000D03*
%TD*%
D14*
%TO.N,+5V*%
%TO.C,C3*%
X34036000Y-81269200D03*
%TO.N,GND*%
X34036000Y-86269200D03*
%TD*%
D15*
%TO.N,/Q+*%
%TO.C,J6*%
X118359000Y-98821000D03*
D16*
%TO.N,/Q-*%
X120899000Y-98821000D03*
%TO.N,Net-(J6-Pad3)*%
X118359000Y-101361000D03*
X120899000Y-101361000D03*
%TO.N,/I-*%
X118359000Y-103901000D03*
%TO.N,/I+*%
X120899000Y-103901000D03*
%TD*%
D15*
%TO.N,+5V*%
%TO.C,J3*%
X50292000Y-73660000D03*
D16*
%TO.N,GND*%
X52832000Y-73660000D03*
%TD*%
D15*
%TO.N,RX-TX*%
%TO.C,J4*%
X62733000Y-92964000D03*
D16*
%TO.N,GND*%
X65273000Y-92964000D03*
%TD*%
D10*
%TO.N,unconnected-(H2-Pad1)*%
%TO.C,H2*%
X118618000Y-114567000D03*
X118618000Y-119367000D03*
X116920944Y-118664056D03*
X121018000Y-116967000D03*
X116218000Y-116967000D03*
D11*
X118618000Y-116967000D03*
D10*
X116920944Y-115269944D03*
X120315056Y-115269944D03*
X120315056Y-118664056D03*
%TD*%
%TO.N,unconnected-(H3-Pad1)*%
%TO.C,H3*%
X25921000Y-117094000D03*
X30721000Y-117094000D03*
X30018056Y-118791056D03*
X26623944Y-118791056D03*
X30018056Y-115396944D03*
X28321000Y-119494000D03*
X26623944Y-115396944D03*
D11*
X28321000Y-117094000D03*
D10*
X28321000Y-114694000D03*
%TD*%
D20*
%TO.N,SDA1*%
X88265000Y-67945000D03*
X96520000Y-66675000D03*
%TO.N,+3V3*%
X96520000Y-64850000D03*
X91414500Y-73180891D03*
X73025000Y-72667500D03*
%TO.N,GND*%
X87630000Y-81280000D03*
X73660000Y-118110000D03*
X60960000Y-90170000D03*
X107315000Y-113030000D03*
X88900000Y-112600000D03*
X119380000Y-87630000D03*
X91440000Y-64770000D03*
X69850000Y-81280000D03*
X99060000Y-78740000D03*
X73660000Y-83820000D03*
X101803200Y-93751400D03*
X86766400Y-75234800D03*
X38100000Y-118110000D03*
X68580000Y-118110000D03*
X62230000Y-83820000D03*
X96520000Y-87630000D03*
X75692000Y-67818000D03*
X26670000Y-86360000D03*
X32385000Y-90170000D03*
X76200000Y-118110000D03*
X107950000Y-87630000D03*
X48260000Y-118110000D03*
X55880000Y-118110000D03*
X79756000Y-98679000D03*
X26670000Y-90170000D03*
X115570000Y-87630000D03*
X91694000Y-78740000D03*
X80645000Y-88900000D03*
X59512200Y-101600000D03*
X45085000Y-90170000D03*
X64770000Y-83820000D03*
X59690000Y-83820000D03*
X42545000Y-90170000D03*
X65405000Y-102184200D03*
X86766400Y-69088000D03*
X31750000Y-110490000D03*
X113030000Y-64770000D03*
X105537000Y-108966000D03*
X65913000Y-98679000D03*
X50800000Y-118110000D03*
X92710000Y-87630000D03*
X91287499Y-75184000D03*
X111760000Y-87630000D03*
X104013000Y-101158000D03*
X72898000Y-91694000D03*
X40005000Y-90170000D03*
X66040000Y-118110000D03*
X77470000Y-78740000D03*
X89316000Y-102550000D03*
X40640000Y-118110000D03*
X101600000Y-118110000D03*
X80137000Y-94234000D03*
X78740000Y-118110000D03*
X26670000Y-78740000D03*
X96520000Y-118110000D03*
X87630000Y-90805000D03*
X45720000Y-118110000D03*
X100330000Y-73660000D03*
X26670000Y-82550000D03*
X81280000Y-118110000D03*
X92541290Y-70513888D03*
X26670000Y-74930000D03*
X119380000Y-81280000D03*
X71120000Y-118110000D03*
X37465000Y-90170000D03*
X83820000Y-81280000D03*
X86360000Y-118110000D03*
X91440000Y-81280000D03*
X100330000Y-69850000D03*
X47625000Y-90170000D03*
X29845000Y-90170000D03*
X109220000Y-64770000D03*
X72390000Y-78740000D03*
X86360000Y-87630000D03*
X105410000Y-64770000D03*
X88900000Y-87630000D03*
X90382291Y-68989889D03*
X60960000Y-118110000D03*
X56515000Y-90170000D03*
X34925000Y-90170000D03*
X101600000Y-67310000D03*
X87630000Y-64770000D03*
X80010000Y-81280000D03*
X88900000Y-118110000D03*
X94234000Y-76708000D03*
X94869000Y-93218000D03*
X35560000Y-118110000D03*
X107569000Y-99822000D03*
X97028000Y-77470000D03*
X69850000Y-98679000D03*
X101600000Y-64770000D03*
X91440000Y-118110000D03*
X105537000Y-106934000D03*
X58293000Y-80518000D03*
X60706000Y-80518000D03*
X53975000Y-90170000D03*
X87884000Y-78740000D03*
X67310000Y-83820000D03*
X30988000Y-93599000D03*
X76200000Y-81280000D03*
X25400000Y-110617000D03*
X100330000Y-87630000D03*
X104775000Y-115570000D03*
X26670000Y-93726000D03*
X63500000Y-118110000D03*
X57150000Y-83820000D03*
X104140000Y-87630000D03*
X95250000Y-81280000D03*
X119380000Y-76200000D03*
X113919000Y-107950000D03*
X58420000Y-118110000D03*
X43053000Y-65913000D03*
X53340000Y-118110000D03*
X99060000Y-118110000D03*
X71120000Y-86360000D03*
X43180000Y-118110000D03*
X94996916Y-75784613D03*
X83820000Y-118110000D03*
X93980000Y-118110000D03*
X82550000Y-78740000D03*
X104140000Y-118110000D03*
%TO.N,+5V*%
X97741000Y-93218000D03*
X57658000Y-73406000D03*
X82550000Y-93726000D03*
%TO.N,+3V3*%
X60706000Y-78613000D03*
X64491000Y-78105000D03*
%TO.N,Clock*%
X95808800Y-77520800D03*
X66548000Y-102184200D03*
%TO.N,+12C*%
X84166000Y-106360000D03*
X82550000Y-95250000D03*
%TO.N,Net-(C27-Pad2)*%
X98806000Y-105156000D03*
X99507000Y-99949000D03*
%TO.N,Net-(R11-Pad1)*%
X80391000Y-102573500D03*
X78359000Y-94234000D03*
%TO.N,Clock1*%
X95961200Y-76047600D03*
X60706000Y-101600000D03*
%TO.N,Net-(C16-Pad2)*%
X70158880Y-103382080D03*
X69215000Y-110236000D03*
%TO.N,Net-(C23-Pad2)*%
X74525500Y-94234000D03*
X82484000Y-111797500D03*
%TO.N,Net-(R10-Pad1)*%
X89408000Y-105156000D03*
X87399500Y-99822000D03*
%TO.N,Net-(R14-Pad1)*%
X85598000Y-99822000D03*
X91059000Y-109220000D03*
%TO.N,Net-(R27-Pad2)*%
X92987500Y-96647000D03*
X97409000Y-103632000D03*
%TO.N,Net-(JP1-Pad1)*%
X80873600Y-76606400D03*
X82499200Y-70815200D03*
%TD*%
%TA.AperFunction,Conductor*%
%TO.N,GND*%
G36*
X117079545Y-63908876D02*
G01*
X117126107Y-63962472D01*
X117136301Y-64032733D01*
X117106892Y-64097352D01*
X117068764Y-64127229D01*
X116764147Y-64282439D01*
X116764140Y-64282443D01*
X116761206Y-64283938D01*
X116758440Y-64285734D01*
X116758437Y-64285736D01*
X116610800Y-64381612D01*
X116435207Y-64495643D01*
X116363257Y-64553907D01*
X116177147Y-64704617D01*
X116133124Y-64740266D01*
X115858266Y-65015124D01*
X115856194Y-65017682D01*
X115856191Y-65017686D01*
X115766772Y-65128109D01*
X115613643Y-65317207D01*
X115611848Y-65319970D01*
X115611848Y-65319971D01*
X115405857Y-65637172D01*
X115401938Y-65643206D01*
X115400443Y-65646140D01*
X115400439Y-65646147D01*
X115318885Y-65806206D01*
X115225468Y-65989547D01*
X115086167Y-66352438D01*
X114985562Y-66727901D01*
X114960590Y-66885567D01*
X114930613Y-67074834D01*
X114924754Y-67111824D01*
X114904411Y-67500000D01*
X114924754Y-67888176D01*
X114925267Y-67891416D01*
X114925268Y-67891424D01*
X114946980Y-68028502D01*
X114985562Y-68272099D01*
X115086167Y-68647562D01*
X115087352Y-68650650D01*
X115087353Y-68650652D01*
X115121191Y-68738803D01*
X115225468Y-69010453D01*
X115226966Y-69013393D01*
X115397190Y-69347475D01*
X115401938Y-69356794D01*
X115403734Y-69359560D01*
X115403736Y-69359563D01*
X115540451Y-69570087D01*
X115613643Y-69682793D01*
X115858266Y-69984876D01*
X116133124Y-70259734D01*
X116135682Y-70261806D01*
X116135686Y-70261809D01*
X116284166Y-70382046D01*
X116435207Y-70504357D01*
X116437970Y-70506152D01*
X116437971Y-70506152D01*
X116635024Y-70634119D01*
X116761205Y-70716062D01*
X116764139Y-70717557D01*
X116764146Y-70717561D01*
X116955774Y-70815200D01*
X117107547Y-70892532D01*
X117470438Y-71031833D01*
X117845901Y-71132438D01*
X118049793Y-71164732D01*
X118226576Y-71192732D01*
X118226584Y-71192733D01*
X118229824Y-71193246D01*
X118618000Y-71213589D01*
X119006176Y-71193246D01*
X119009416Y-71192733D01*
X119009424Y-71192732D01*
X119186207Y-71164732D01*
X119390099Y-71132438D01*
X119765562Y-71031833D01*
X120128453Y-70892532D01*
X120280226Y-70815200D01*
X120471854Y-70717561D01*
X120471861Y-70717557D01*
X120474795Y-70716062D01*
X120600977Y-70634119D01*
X120798029Y-70506152D01*
X120798030Y-70506152D01*
X120800793Y-70504357D01*
X120951834Y-70382046D01*
X121100314Y-70261809D01*
X121100318Y-70261806D01*
X121102876Y-70259734D01*
X121377734Y-69984876D01*
X121622357Y-69682793D01*
X121695549Y-69570087D01*
X121832264Y-69359563D01*
X121832266Y-69359560D01*
X121834062Y-69356794D01*
X121838811Y-69347475D01*
X122009034Y-69013393D01*
X122010532Y-69010453D01*
X122056869Y-68889741D01*
X122099955Y-68833313D01*
X122166708Y-68809136D01*
X122235935Y-68824887D01*
X122285657Y-68875565D01*
X122300500Y-68934895D01*
X122300500Y-98059483D01*
X122280498Y-98127604D01*
X122226842Y-98174097D01*
X122156568Y-98184201D01*
X122091988Y-98154707D01*
X122068708Y-98127923D01*
X121981822Y-97993617D01*
X121981820Y-97993614D01*
X121979014Y-97989277D01*
X121828670Y-97824051D01*
X121824619Y-97820852D01*
X121824615Y-97820848D01*
X121657414Y-97688800D01*
X121657410Y-97688798D01*
X121653359Y-97685598D01*
X121457789Y-97577638D01*
X121452920Y-97575914D01*
X121452916Y-97575912D01*
X121252087Y-97504795D01*
X121252083Y-97504794D01*
X121247212Y-97503069D01*
X121242119Y-97502162D01*
X121242116Y-97502161D01*
X121032373Y-97464800D01*
X121032367Y-97464799D01*
X121027284Y-97463894D01*
X120953452Y-97462992D01*
X120809081Y-97461228D01*
X120809079Y-97461228D01*
X120803911Y-97461165D01*
X120583091Y-97494955D01*
X120370756Y-97564357D01*
X120172607Y-97667507D01*
X120168474Y-97670610D01*
X120168471Y-97670612D01*
X119998100Y-97798530D01*
X119993965Y-97801635D01*
X119937537Y-97860684D01*
X119913283Y-97886064D01*
X119851759Y-97921494D01*
X119780846Y-97918037D01*
X119723060Y-97876791D01*
X119704207Y-97843243D01*
X119662767Y-97732703D01*
X119659615Y-97724295D01*
X119572261Y-97607739D01*
X119455705Y-97520385D01*
X119319316Y-97469255D01*
X119257134Y-97462500D01*
X117460866Y-97462500D01*
X117398684Y-97469255D01*
X117262295Y-97520385D01*
X117145739Y-97607739D01*
X117058385Y-97724295D01*
X117007255Y-97860684D01*
X117000500Y-97922866D01*
X117000500Y-99719134D01*
X117007255Y-99781316D01*
X117058385Y-99917705D01*
X117145739Y-100034261D01*
X117262295Y-100121615D01*
X117270704Y-100124767D01*
X117270705Y-100124768D01*
X117379451Y-100165535D01*
X117436216Y-100208176D01*
X117460916Y-100274738D01*
X117445709Y-100344087D01*
X117426316Y-100370568D01*
X117299629Y-100503138D01*
X117173743Y-100687680D01*
X117156791Y-100724201D01*
X117094916Y-100857500D01*
X117079688Y-100890305D01*
X117019989Y-101105570D01*
X116996251Y-101327695D01*
X116996548Y-101332848D01*
X116996548Y-101332851D01*
X117008812Y-101545547D01*
X117009110Y-101550715D01*
X117010247Y-101555761D01*
X117010248Y-101555767D01*
X117029761Y-101642348D01*
X117058222Y-101768639D01*
X117142266Y-101975616D01*
X117179610Y-102036556D01*
X117256291Y-102161688D01*
X117258987Y-102166088D01*
X117405250Y-102334938D01*
X117481846Y-102398529D01*
X117566481Y-102468794D01*
X117577126Y-102477632D01*
X117635793Y-102511914D01*
X117650445Y-102520476D01*
X117699169Y-102572114D01*
X117712240Y-102641897D01*
X117685509Y-102707669D01*
X117645055Y-102741027D01*
X117632607Y-102747507D01*
X117628474Y-102750610D01*
X117628471Y-102750612D01*
X117458100Y-102878530D01*
X117453965Y-102881635D01*
X117450393Y-102885373D01*
X117324790Y-103016809D01*
X117299629Y-103043138D01*
X117296720Y-103047403D01*
X117296714Y-103047411D01*
X117253716Y-103110444D01*
X117173743Y-103227680D01*
X117158535Y-103260444D01*
X117088059Y-103412272D01*
X117079688Y-103430305D01*
X117019989Y-103645570D01*
X116996251Y-103867695D01*
X116996548Y-103872848D01*
X116996548Y-103872851D01*
X117005428Y-104026854D01*
X117009110Y-104090715D01*
X117010247Y-104095761D01*
X117010248Y-104095767D01*
X117027845Y-104173846D01*
X117058222Y-104308639D01*
X117081060Y-104364882D01*
X117136805Y-104502166D01*
X117142266Y-104515616D01*
X117193942Y-104599944D01*
X117256291Y-104701688D01*
X117258987Y-104706088D01*
X117405250Y-104874938D01*
X117577126Y-105017632D01*
X117770000Y-105130338D01*
X117978692Y-105210030D01*
X117983760Y-105211061D01*
X117983763Y-105211062D01*
X118091017Y-105232883D01*
X118197597Y-105254567D01*
X118202772Y-105254757D01*
X118202774Y-105254757D01*
X118415673Y-105262564D01*
X118415677Y-105262564D01*
X118420837Y-105262753D01*
X118425957Y-105262097D01*
X118425959Y-105262097D01*
X118637288Y-105235025D01*
X118637289Y-105235025D01*
X118642416Y-105234368D01*
X118647366Y-105232883D01*
X118851429Y-105171661D01*
X118851434Y-105171659D01*
X118856384Y-105170174D01*
X119056994Y-105071896D01*
X119238860Y-104942173D01*
X119397096Y-104784489D01*
X119456594Y-104701689D01*
X119527453Y-104603077D01*
X119528776Y-104604028D01*
X119575645Y-104560857D01*
X119645580Y-104548625D01*
X119711026Y-104576144D01*
X119738875Y-104607994D01*
X119798987Y-104706088D01*
X119945250Y-104874938D01*
X120117126Y-105017632D01*
X120310000Y-105130338D01*
X120518692Y-105210030D01*
X120523760Y-105211061D01*
X120523763Y-105211062D01*
X120631017Y-105232883D01*
X120737597Y-105254567D01*
X120742772Y-105254757D01*
X120742774Y-105254757D01*
X120955673Y-105262564D01*
X120955677Y-105262564D01*
X120960837Y-105262753D01*
X120965957Y-105262097D01*
X120965959Y-105262097D01*
X121177288Y-105235025D01*
X121177289Y-105235025D01*
X121182416Y-105234368D01*
X121187366Y-105232883D01*
X121391429Y-105171661D01*
X121391434Y-105171659D01*
X121396384Y-105170174D01*
X121596994Y-105071896D01*
X121778860Y-104942173D01*
X121937096Y-104784489D01*
X121996594Y-104701689D01*
X122064433Y-104607280D01*
X122064434Y-104607279D01*
X122067453Y-104603077D01*
X122067553Y-104602875D01*
X122118721Y-104555759D01*
X122188658Y-104543538D01*
X122254100Y-104571068D01*
X122294269Y-104629607D01*
X122300500Y-104668740D01*
X122300500Y-115532105D01*
X122280498Y-115600226D01*
X122226842Y-115646719D01*
X122156568Y-115656823D01*
X122091988Y-115627329D01*
X122056869Y-115577259D01*
X122011716Y-115459632D01*
X122010532Y-115456547D01*
X122009034Y-115453607D01*
X121835561Y-115113147D01*
X121835557Y-115113140D01*
X121834062Y-115110206D01*
X121622357Y-114784207D01*
X121377734Y-114482124D01*
X121102876Y-114207266D01*
X120800793Y-113962643D01*
X120673127Y-113879736D01*
X120477564Y-113752736D01*
X120477561Y-113752734D01*
X120474795Y-113750938D01*
X120471861Y-113749443D01*
X120471854Y-113749439D01*
X120131393Y-113575966D01*
X120128453Y-113574468D01*
X119765562Y-113435167D01*
X119390099Y-113334562D01*
X119186207Y-113302268D01*
X119009424Y-113274268D01*
X119009416Y-113274267D01*
X119006176Y-113273754D01*
X118618000Y-113253411D01*
X118229824Y-113273754D01*
X118226584Y-113274267D01*
X118226576Y-113274268D01*
X118049793Y-113302268D01*
X117845901Y-113334562D01*
X117470438Y-113435167D01*
X117107547Y-113574468D01*
X117104607Y-113575966D01*
X116764147Y-113749439D01*
X116764140Y-113749443D01*
X116761206Y-113750938D01*
X116435207Y-113962643D01*
X116133124Y-114207266D01*
X115858266Y-114482124D01*
X115613643Y-114784207D01*
X115401938Y-115110206D01*
X115400443Y-115113140D01*
X115400439Y-115113147D01*
X115226966Y-115453607D01*
X115225468Y-115456547D01*
X115086167Y-115819438D01*
X114985562Y-116194901D01*
X114924754Y-116578824D01*
X114904411Y-116967000D01*
X114924754Y-117355176D01*
X114985562Y-117739099D01*
X115086167Y-118114562D01*
X115087352Y-118117650D01*
X115087353Y-118117652D01*
X115134918Y-118241562D01*
X115225468Y-118477453D01*
X115401938Y-118823794D01*
X115613643Y-119149793D01*
X115858266Y-119451876D01*
X116133124Y-119726734D01*
X116435207Y-119971357D01*
X116761205Y-120183062D01*
X116764139Y-120184557D01*
X116764146Y-120184561D01*
X116959764Y-120284233D01*
X117011379Y-120332981D01*
X117028445Y-120401896D01*
X117005544Y-120469098D01*
X116949947Y-120513250D01*
X116902561Y-120522500D01*
X30276038Y-120522500D01*
X30207917Y-120502498D01*
X30161424Y-120448842D01*
X30151320Y-120378568D01*
X30180814Y-120313988D01*
X30207414Y-120290827D01*
X30501029Y-120100152D01*
X30501030Y-120100152D01*
X30503793Y-120098357D01*
X30805876Y-119853734D01*
X31080734Y-119578876D01*
X31325357Y-119276793D01*
X31537062Y-118950794D01*
X31603271Y-118820853D01*
X31712034Y-118607393D01*
X31713532Y-118604453D01*
X31852833Y-118241562D01*
X31953438Y-117866099D01*
X32014246Y-117482176D01*
X32034589Y-117094000D01*
X32014246Y-116705824D01*
X31953438Y-116321901D01*
X31852833Y-115946438D01*
X31805308Y-115822630D01*
X31714716Y-115586632D01*
X31713532Y-115583547D01*
X31537062Y-115237206D01*
X31325357Y-114911207D01*
X31080734Y-114609124D01*
X30805876Y-114334266D01*
X30503793Y-114089643D01*
X30177795Y-113877938D01*
X30174861Y-113876443D01*
X30174854Y-113876439D01*
X29834393Y-113702966D01*
X29831453Y-113701468D01*
X29468562Y-113562167D01*
X29093099Y-113461562D01*
X28889207Y-113429268D01*
X28712424Y-113401268D01*
X28712416Y-113401267D01*
X28709176Y-113400754D01*
X28321000Y-113380411D01*
X27932824Y-113400754D01*
X27929584Y-113401267D01*
X27929576Y-113401268D01*
X27752793Y-113429268D01*
X27548901Y-113461562D01*
X27173438Y-113562167D01*
X26810547Y-113701468D01*
X26807607Y-113702966D01*
X26467147Y-113876439D01*
X26467140Y-113876443D01*
X26464206Y-113877938D01*
X26138207Y-114089643D01*
X25836124Y-114334266D01*
X25561266Y-114609124D01*
X25316643Y-114911207D01*
X25104938Y-115237206D01*
X24928468Y-115583547D01*
X24927284Y-115586632D01*
X24882131Y-115704259D01*
X24839045Y-115760687D01*
X24772292Y-115784864D01*
X24703065Y-115769113D01*
X24653343Y-115718435D01*
X24638500Y-115659105D01*
X24638500Y-113094654D01*
X35685618Y-113094654D01*
X35692673Y-113104627D01*
X35723679Y-113130551D01*
X35730598Y-113135579D01*
X35955272Y-113276515D01*
X35962807Y-113280556D01*
X36204520Y-113389694D01*
X36212551Y-113392680D01*
X36466832Y-113468002D01*
X36475184Y-113469869D01*
X36737340Y-113509984D01*
X36745874Y-113510700D01*
X37011045Y-113514867D01*
X37019596Y-113514418D01*
X37282883Y-113482557D01*
X37291284Y-113480955D01*
X37547824Y-113413653D01*
X37555926Y-113410926D01*
X37800949Y-113309434D01*
X37808617Y-113305628D01*
X38037598Y-113171822D01*
X38044679Y-113167009D01*
X38124655Y-113104301D01*
X38133125Y-113092442D01*
X38126608Y-113080818D01*
X36922812Y-111877022D01*
X36908868Y-111869408D01*
X36907035Y-111869539D01*
X36900420Y-111873790D01*
X35692910Y-113081300D01*
X35685618Y-113094654D01*
X24638500Y-113094654D01*
X24638500Y-111488204D01*
X34897665Y-111488204D01*
X34912932Y-111752969D01*
X34914005Y-111761470D01*
X34965065Y-112021722D01*
X34967276Y-112029974D01*
X35053184Y-112280894D01*
X35056499Y-112288779D01*
X35175664Y-112525713D01*
X35180020Y-112533079D01*
X35309347Y-112721250D01*
X35319601Y-112729594D01*
X35333342Y-112722448D01*
X36537978Y-111517812D01*
X36544356Y-111506132D01*
X37274408Y-111506132D01*
X37274539Y-111507965D01*
X37278790Y-111514580D01*
X38485730Y-112721520D01*
X38497939Y-112728187D01*
X38509439Y-112719497D01*
X38606831Y-112586913D01*
X38611418Y-112579685D01*
X38737962Y-112346621D01*
X38741530Y-112338827D01*
X38835271Y-112090750D01*
X38837748Y-112082544D01*
X38896954Y-111824038D01*
X38898294Y-111815577D01*
X38922031Y-111549616D01*
X38922277Y-111544677D01*
X38922666Y-111507485D01*
X38922523Y-111502519D01*
X38921255Y-111483918D01*
X44896917Y-111483918D01*
X44912682Y-111757320D01*
X44913507Y-111761525D01*
X44913508Y-111761533D01*
X44934698Y-111869539D01*
X44965405Y-112026053D01*
X44966792Y-112030103D01*
X44966793Y-112030108D01*
X44987605Y-112090895D01*
X45054112Y-112285144D01*
X45177160Y-112529799D01*
X45179586Y-112533328D01*
X45179589Y-112533334D01*
X45308741Y-112721250D01*
X45332274Y-112755490D01*
X45516582Y-112958043D01*
X45726675Y-113133707D01*
X45730316Y-113135991D01*
X45955024Y-113276951D01*
X45955028Y-113276953D01*
X45958664Y-113279234D01*
X46026544Y-113309883D01*
X46204345Y-113390164D01*
X46204349Y-113390166D01*
X46208257Y-113391930D01*
X46239782Y-113401268D01*
X46466723Y-113468491D01*
X46466727Y-113468492D01*
X46470836Y-113469709D01*
X46475070Y-113470357D01*
X46475075Y-113470358D01*
X46737298Y-113510483D01*
X46737300Y-113510483D01*
X46741540Y-113511132D01*
X46880912Y-113513322D01*
X47011071Y-113515367D01*
X47011077Y-113515367D01*
X47015362Y-113515434D01*
X47287235Y-113482534D01*
X47552127Y-113413041D01*
X47556087Y-113411401D01*
X47556092Y-113411399D01*
X47739527Y-113335417D01*
X47805136Y-113308241D01*
X48041582Y-113170073D01*
X48257089Y-113001094D01*
X48298809Y-112958043D01*
X48444686Y-112807509D01*
X48447669Y-112804431D01*
X48450202Y-112800983D01*
X48450206Y-112800978D01*
X48607257Y-112587178D01*
X48609795Y-112583723D01*
X48611841Y-112579955D01*
X48738418Y-112346830D01*
X48738419Y-112346828D01*
X48740468Y-112343054D01*
X48837269Y-112086877D01*
X48898407Y-111819933D01*
X48899824Y-111804065D01*
X48900410Y-111797500D01*
X81570496Y-111797500D01*
X81571186Y-111804065D01*
X81578068Y-111869539D01*
X81590458Y-111987428D01*
X81649473Y-112169056D01*
X81744960Y-112334444D01*
X81872747Y-112476366D01*
X81971843Y-112548364D01*
X82020511Y-112583723D01*
X82027248Y-112588618D01*
X82033276Y-112591302D01*
X82033278Y-112591303D01*
X82195681Y-112663609D01*
X82201712Y-112666294D01*
X82295112Y-112686147D01*
X82382056Y-112704628D01*
X82382061Y-112704628D01*
X82388513Y-112706000D01*
X82579487Y-112706000D01*
X82585939Y-112704628D01*
X82585944Y-112704628D01*
X82672888Y-112686147D01*
X82766288Y-112666294D01*
X82772319Y-112663609D01*
X82934722Y-112591303D01*
X82934724Y-112591302D01*
X82940752Y-112588618D01*
X82947490Y-112583723D01*
X82996157Y-112548364D01*
X83095253Y-112476366D01*
X83223040Y-112334444D01*
X83318527Y-112169056D01*
X83377542Y-111987428D01*
X83389933Y-111869539D01*
X83396814Y-111804065D01*
X83397504Y-111797500D01*
X83377542Y-111607572D01*
X83318527Y-111425944D01*
X83223040Y-111260556D01*
X83201041Y-111236123D01*
X83099675Y-111123545D01*
X83099674Y-111123544D01*
X83095253Y-111118634D01*
X82940752Y-111006382D01*
X82934724Y-111003698D01*
X82934722Y-111003697D01*
X82772319Y-110931391D01*
X82772318Y-110931391D01*
X82766288Y-110928706D01*
X82672888Y-110908853D01*
X82585944Y-110890372D01*
X82585939Y-110890372D01*
X82579487Y-110889000D01*
X82388513Y-110889000D01*
X82382061Y-110890372D01*
X82382056Y-110890372D01*
X82295112Y-110908853D01*
X82201712Y-110928706D01*
X82195682Y-110931391D01*
X82195681Y-110931391D01*
X82033278Y-111003697D01*
X82033276Y-111003698D01*
X82027248Y-111006382D01*
X81872747Y-111118634D01*
X81868326Y-111123544D01*
X81868325Y-111123545D01*
X81766960Y-111236123D01*
X81744960Y-111260556D01*
X81649473Y-111425944D01*
X81590458Y-111607572D01*
X81570496Y-111797500D01*
X48900410Y-111797500D01*
X48922531Y-111549627D01*
X48922532Y-111549616D01*
X48922751Y-111547161D01*
X48923193Y-111505000D01*
X48917804Y-111425944D01*
X48904859Y-111236055D01*
X48904858Y-111236049D01*
X48904567Y-111231778D01*
X48849032Y-110963612D01*
X48757617Y-110705465D01*
X48632013Y-110462112D01*
X48622040Y-110447921D01*
X48477008Y-110241562D01*
X48474545Y-110238057D01*
X48472634Y-110236000D01*
X68301496Y-110236000D01*
X68302186Y-110242565D01*
X68306230Y-110281037D01*
X68321458Y-110425928D01*
X68380473Y-110607556D01*
X68475960Y-110772944D01*
X68480378Y-110777851D01*
X68480379Y-110777852D01*
X68599325Y-110909955D01*
X68603747Y-110914866D01*
X68758248Y-111027118D01*
X68764276Y-111029802D01*
X68764278Y-111029803D01*
X68926681Y-111102109D01*
X68932712Y-111104794D01*
X68997824Y-111118634D01*
X69113056Y-111143128D01*
X69113061Y-111143128D01*
X69119513Y-111144500D01*
X69310487Y-111144500D01*
X69316939Y-111143128D01*
X69316944Y-111143128D01*
X69432176Y-111118634D01*
X69497288Y-111104794D01*
X69503319Y-111102109D01*
X69665722Y-111029803D01*
X69665724Y-111029802D01*
X69671752Y-111027118D01*
X69826253Y-110914866D01*
X69830675Y-110909955D01*
X69949621Y-110777852D01*
X69949622Y-110777851D01*
X69954040Y-110772944D01*
X70049527Y-110607556D01*
X70108542Y-110425928D01*
X70123771Y-110281037D01*
X70127814Y-110242565D01*
X70128504Y-110236000D01*
X70126679Y-110218633D01*
X70109232Y-110052635D01*
X70109232Y-110052633D01*
X70108542Y-110046072D01*
X70049527Y-109864444D01*
X69954040Y-109699056D01*
X69870204Y-109605946D01*
X69830675Y-109562045D01*
X69830674Y-109562044D01*
X69826253Y-109557134D01*
X69671752Y-109444882D01*
X69665724Y-109442198D01*
X69665722Y-109442197D01*
X69503319Y-109369891D01*
X69503318Y-109369891D01*
X69497288Y-109367206D01*
X69403888Y-109347353D01*
X69316944Y-109328872D01*
X69316939Y-109328872D01*
X69310487Y-109327500D01*
X69119513Y-109327500D01*
X69113061Y-109328872D01*
X69113056Y-109328872D01*
X69026113Y-109347353D01*
X68932712Y-109367206D01*
X68926682Y-109369891D01*
X68926681Y-109369891D01*
X68764278Y-109442197D01*
X68764276Y-109442198D01*
X68758248Y-109444882D01*
X68603747Y-109557134D01*
X68599326Y-109562044D01*
X68599325Y-109562045D01*
X68559797Y-109605946D01*
X68475960Y-109699056D01*
X68380473Y-109864444D01*
X68321458Y-110046072D01*
X68320768Y-110052633D01*
X68320768Y-110052635D01*
X68303321Y-110218633D01*
X68301496Y-110236000D01*
X48472634Y-110236000D01*
X48404466Y-110162643D01*
X48291046Y-110040588D01*
X48291043Y-110040585D01*
X48288125Y-110037445D01*
X48284810Y-110034731D01*
X48284806Y-110034728D01*
X48079523Y-109866706D01*
X48076205Y-109863990D01*
X47842704Y-109720901D01*
X47838768Y-109719173D01*
X47595873Y-109612549D01*
X47595869Y-109612548D01*
X47591945Y-109610825D01*
X47328566Y-109535800D01*
X47324324Y-109535196D01*
X47324318Y-109535195D01*
X47123834Y-109506662D01*
X47057443Y-109497213D01*
X46913589Y-109496460D01*
X46787877Y-109495802D01*
X46787871Y-109495802D01*
X46783591Y-109495780D01*
X46779347Y-109496339D01*
X46779343Y-109496339D01*
X46660302Y-109512011D01*
X46512078Y-109531525D01*
X46507938Y-109532658D01*
X46507936Y-109532658D01*
X46435008Y-109552609D01*
X46247928Y-109603788D01*
X46243980Y-109605472D01*
X45999982Y-109709546D01*
X45999978Y-109709548D01*
X45996030Y-109711232D01*
X45911450Y-109761852D01*
X45764725Y-109849664D01*
X45764721Y-109849667D01*
X45761043Y-109851868D01*
X45547318Y-110023094D01*
X45358808Y-110221742D01*
X45199002Y-110444136D01*
X45070857Y-110686161D01*
X45069385Y-110690184D01*
X45069383Y-110690188D01*
X44988959Y-110909955D01*
X44976743Y-110943337D01*
X44918404Y-111210907D01*
X44896917Y-111483918D01*
X38921255Y-111483918D01*
X38904362Y-111236123D01*
X38903201Y-111227649D01*
X38849419Y-110967944D01*
X38847120Y-110959709D01*
X38758588Y-110709705D01*
X38755191Y-110701854D01*
X38633550Y-110466178D01*
X38629122Y-110458866D01*
X38510031Y-110289417D01*
X38499509Y-110281037D01*
X38486121Y-110288089D01*
X37282022Y-111492188D01*
X37274408Y-111506132D01*
X36544356Y-111506132D01*
X36545592Y-111503868D01*
X36545461Y-111502035D01*
X36541210Y-111495420D01*
X35333814Y-110288024D01*
X35321804Y-110281466D01*
X35310064Y-110290434D01*
X35201935Y-110440911D01*
X35197418Y-110448196D01*
X35073325Y-110682567D01*
X35069839Y-110690395D01*
X34978700Y-110939446D01*
X34976311Y-110947670D01*
X34919812Y-111206795D01*
X34918563Y-111215250D01*
X34897754Y-111479653D01*
X34897665Y-111488204D01*
X24638500Y-111488204D01*
X24638500Y-109917500D01*
X35686584Y-109917500D01*
X35692980Y-109928770D01*
X36897188Y-111132978D01*
X36911132Y-111140592D01*
X36912965Y-111140461D01*
X36919580Y-111136210D01*
X38126604Y-109929186D01*
X38133795Y-109916017D01*
X38126473Y-109905780D01*
X38079233Y-109867115D01*
X38072261Y-109862160D01*
X37846122Y-109723582D01*
X37838552Y-109719624D01*
X37595704Y-109613022D01*
X37587644Y-109610120D01*
X37332592Y-109537467D01*
X37324214Y-109535685D01*
X37061656Y-109498318D01*
X37053111Y-109497691D01*
X36787908Y-109496302D01*
X36779374Y-109496839D01*
X36516433Y-109531456D01*
X36508035Y-109533149D01*
X36252238Y-109603127D01*
X36244143Y-109605946D01*
X36000199Y-109709997D01*
X35992577Y-109713881D01*
X35765013Y-109850075D01*
X35757981Y-109854962D01*
X35695053Y-109905377D01*
X35686584Y-109917500D01*
X24638500Y-109917500D01*
X24638500Y-109220000D01*
X90145496Y-109220000D01*
X90146186Y-109226565D01*
X90160824Y-109365834D01*
X90165458Y-109409928D01*
X90224473Y-109591556D01*
X90227776Y-109597278D01*
X90227777Y-109597279D01*
X90235191Y-109610120D01*
X90319960Y-109756944D01*
X90324378Y-109761851D01*
X90324379Y-109761852D01*
X90416753Y-109864444D01*
X90447747Y-109898866D01*
X90602248Y-110011118D01*
X90608276Y-110013802D01*
X90608278Y-110013803D01*
X90680756Y-110046072D01*
X90776712Y-110088794D01*
X90870113Y-110108647D01*
X90957056Y-110127128D01*
X90957061Y-110127128D01*
X90963513Y-110128500D01*
X91154487Y-110128500D01*
X91160939Y-110127128D01*
X91160944Y-110127128D01*
X91247887Y-110108647D01*
X91341288Y-110088794D01*
X91437244Y-110046072D01*
X91509722Y-110013803D01*
X91509724Y-110013802D01*
X91515752Y-110011118D01*
X91670253Y-109898866D01*
X91701247Y-109864444D01*
X91793621Y-109761852D01*
X91793622Y-109761851D01*
X91798040Y-109756944D01*
X91882809Y-109610120D01*
X91890223Y-109597279D01*
X91890224Y-109597278D01*
X91893527Y-109591556D01*
X91952542Y-109409928D01*
X91957177Y-109365834D01*
X91971814Y-109226565D01*
X91972504Y-109220000D01*
X91952542Y-109030072D01*
X91893527Y-108848444D01*
X91798040Y-108683056D01*
X91670253Y-108541134D01*
X91515752Y-108428882D01*
X91509724Y-108426198D01*
X91509722Y-108426197D01*
X91347319Y-108353891D01*
X91347318Y-108353891D01*
X91341288Y-108351206D01*
X91247888Y-108331353D01*
X91160944Y-108312872D01*
X91160939Y-108312872D01*
X91154487Y-108311500D01*
X90963513Y-108311500D01*
X90957061Y-108312872D01*
X90957056Y-108312872D01*
X90870112Y-108331353D01*
X90776712Y-108351206D01*
X90770682Y-108353891D01*
X90770681Y-108353891D01*
X90608278Y-108426197D01*
X90608276Y-108426198D01*
X90602248Y-108428882D01*
X90447747Y-108541134D01*
X90319960Y-108683056D01*
X90224473Y-108848444D01*
X90165458Y-109030072D01*
X90145496Y-109220000D01*
X24638500Y-109220000D01*
X24638500Y-106469093D01*
X24658502Y-106400972D01*
X24712158Y-106354479D01*
X24782432Y-106344375D01*
X24830335Y-106361660D01*
X25033121Y-106485927D01*
X25041915Y-106490408D01*
X25270242Y-106584984D01*
X25279627Y-106588033D01*
X25519940Y-106645728D01*
X25529687Y-106647271D01*
X25776070Y-106666662D01*
X25785930Y-106666662D01*
X26032313Y-106647271D01*
X26042060Y-106645728D01*
X26282373Y-106588033D01*
X26291758Y-106584984D01*
X26520085Y-106490408D01*
X26528879Y-106485927D01*
X26734928Y-106359660D01*
X26738968Y-106353471D01*
X29901884Y-106353471D01*
X29905570Y-106358740D01*
X30113121Y-106485927D01*
X30121915Y-106490408D01*
X30350242Y-106584984D01*
X30359627Y-106588033D01*
X30599940Y-106645728D01*
X30609687Y-106647271D01*
X30856070Y-106666662D01*
X30865930Y-106666662D01*
X31112313Y-106647271D01*
X31122060Y-106645728D01*
X31362373Y-106588033D01*
X31371758Y-106584984D01*
X31600085Y-106490408D01*
X31608879Y-106485927D01*
X31814373Y-106360000D01*
X83252496Y-106360000D01*
X83272458Y-106549928D01*
X83331473Y-106731556D01*
X83426960Y-106896944D01*
X83554747Y-107038866D01*
X83709248Y-107151118D01*
X83715276Y-107153802D01*
X83715278Y-107153803D01*
X83877681Y-107226109D01*
X83883712Y-107228794D01*
X83977112Y-107248647D01*
X84064056Y-107267128D01*
X84064061Y-107267128D01*
X84070513Y-107268500D01*
X84261487Y-107268500D01*
X84267939Y-107267128D01*
X84267944Y-107267128D01*
X84354888Y-107248647D01*
X84448288Y-107228794D01*
X84454319Y-107226109D01*
X84616722Y-107153803D01*
X84616724Y-107153802D01*
X84622752Y-107151118D01*
X84777253Y-107038866D01*
X84905040Y-106896944D01*
X85000527Y-106731556D01*
X85059542Y-106549928D01*
X85079504Y-106360000D01*
X85059542Y-106170072D01*
X85000527Y-105988444D01*
X84905040Y-105823056D01*
X84777253Y-105681134D01*
X84622752Y-105568882D01*
X84616724Y-105566198D01*
X84616722Y-105566197D01*
X84454319Y-105493891D01*
X84454318Y-105493891D01*
X84448288Y-105491206D01*
X84354888Y-105471353D01*
X84267944Y-105452872D01*
X84267939Y-105452872D01*
X84261487Y-105451500D01*
X84070513Y-105451500D01*
X84064061Y-105452872D01*
X84064056Y-105452872D01*
X83977113Y-105471353D01*
X83883712Y-105491206D01*
X83877682Y-105493891D01*
X83877681Y-105493891D01*
X83715278Y-105566197D01*
X83715276Y-105566198D01*
X83709248Y-105568882D01*
X83554747Y-105681134D01*
X83426960Y-105823056D01*
X83331473Y-105988444D01*
X83272458Y-106170072D01*
X83252496Y-106360000D01*
X31814373Y-106360000D01*
X31814928Y-106359660D01*
X31820190Y-106351599D01*
X31814183Y-106341393D01*
X30873812Y-105401022D01*
X30859868Y-105393408D01*
X30858035Y-105393539D01*
X30851420Y-105397790D01*
X29909276Y-106339934D01*
X29901884Y-106353471D01*
X26738968Y-106353471D01*
X26740190Y-106351599D01*
X26734183Y-106341393D01*
X25510885Y-105118095D01*
X25476859Y-105055783D01*
X25478694Y-105030132D01*
X26145408Y-105030132D01*
X26145539Y-105031965D01*
X26149790Y-105038580D01*
X27091934Y-105980724D01*
X27105471Y-105988116D01*
X27110740Y-105984430D01*
X27237927Y-105776879D01*
X27242408Y-105768085D01*
X27336984Y-105539758D01*
X27340033Y-105530373D01*
X27397728Y-105290060D01*
X27399271Y-105280313D01*
X27418662Y-105033930D01*
X29223338Y-105033930D01*
X29242729Y-105280313D01*
X29244272Y-105290060D01*
X29301967Y-105530373D01*
X29305016Y-105539758D01*
X29399592Y-105768085D01*
X29404073Y-105776879D01*
X29530340Y-105982928D01*
X29538401Y-105988190D01*
X29548607Y-105982183D01*
X30488978Y-105041812D01*
X30495356Y-105030132D01*
X31225408Y-105030132D01*
X31225539Y-105031965D01*
X31229790Y-105038580D01*
X32171934Y-105980724D01*
X32185471Y-105988116D01*
X32190740Y-105984430D01*
X32317927Y-105776879D01*
X32322408Y-105768085D01*
X32416984Y-105539758D01*
X32420033Y-105530373D01*
X32477728Y-105290060D01*
X32479271Y-105280313D01*
X32489055Y-105156000D01*
X88494496Y-105156000D01*
X88514458Y-105345928D01*
X88573473Y-105527556D01*
X88668960Y-105692944D01*
X88796747Y-105834866D01*
X88951248Y-105947118D01*
X88957276Y-105949802D01*
X88957278Y-105949803D01*
X89119681Y-106022109D01*
X89125712Y-106024794D01*
X89219113Y-106044647D01*
X89306056Y-106063128D01*
X89306061Y-106063128D01*
X89312513Y-106064500D01*
X89503487Y-106064500D01*
X89509939Y-106063128D01*
X89509944Y-106063128D01*
X89596887Y-106044647D01*
X89690288Y-106024794D01*
X89696319Y-106022109D01*
X89858722Y-105949803D01*
X89858724Y-105949802D01*
X89864752Y-105947118D01*
X90019253Y-105834866D01*
X90147040Y-105692944D01*
X90242527Y-105527556D01*
X90301542Y-105345928D01*
X90321504Y-105156000D01*
X97892496Y-105156000D01*
X97912458Y-105345928D01*
X97971473Y-105527556D01*
X98066960Y-105692944D01*
X98194747Y-105834866D01*
X98349248Y-105947118D01*
X98355276Y-105949802D01*
X98355278Y-105949803D01*
X98517681Y-106022109D01*
X98523712Y-106024794D01*
X98617113Y-106044647D01*
X98704056Y-106063128D01*
X98704061Y-106063128D01*
X98710513Y-106064500D01*
X98901487Y-106064500D01*
X98907939Y-106063128D01*
X98907944Y-106063128D01*
X98994887Y-106044647D01*
X99088288Y-106024794D01*
X99094319Y-106022109D01*
X99256722Y-105949803D01*
X99256724Y-105949802D01*
X99262752Y-105947118D01*
X99417253Y-105834866D01*
X99545040Y-105692944D01*
X99640527Y-105527556D01*
X99699542Y-105345928D01*
X99719504Y-105156000D01*
X99710904Y-105074173D01*
X99700232Y-104972635D01*
X99700232Y-104972633D01*
X99699542Y-104966072D01*
X99640527Y-104784444D01*
X99630999Y-104767940D01*
X99571330Y-104664592D01*
X99545040Y-104619056D01*
X99531350Y-104603851D01*
X99421675Y-104482045D01*
X99421674Y-104482044D01*
X99417253Y-104477134D01*
X99262752Y-104364882D01*
X99256724Y-104362198D01*
X99256722Y-104362197D01*
X99094319Y-104289891D01*
X99094318Y-104289891D01*
X99088288Y-104287206D01*
X98994887Y-104267353D01*
X98907944Y-104248872D01*
X98907939Y-104248872D01*
X98901487Y-104247500D01*
X98710513Y-104247500D01*
X98704061Y-104248872D01*
X98704056Y-104248872D01*
X98617113Y-104267353D01*
X98523712Y-104287206D01*
X98517682Y-104289891D01*
X98517681Y-104289891D01*
X98355278Y-104362197D01*
X98355276Y-104362198D01*
X98349248Y-104364882D01*
X98227108Y-104453622D01*
X98178148Y-104471091D01*
X98161732Y-104513255D01*
X98155596Y-104520616D01*
X98066960Y-104619056D01*
X98040670Y-104664592D01*
X97981002Y-104767940D01*
X97971473Y-104784444D01*
X97912458Y-104966072D01*
X97911768Y-104972633D01*
X97911768Y-104972635D01*
X97901096Y-105074173D01*
X97892496Y-105156000D01*
X90321504Y-105156000D01*
X90312904Y-105074173D01*
X90302232Y-104972635D01*
X90302232Y-104972633D01*
X90301542Y-104966072D01*
X90242527Y-104784444D01*
X90232999Y-104767940D01*
X90173330Y-104664592D01*
X90147040Y-104619056D01*
X90133350Y-104603851D01*
X90023675Y-104482045D01*
X90023674Y-104482044D01*
X90019253Y-104477134D01*
X89864752Y-104364882D01*
X89858724Y-104362198D01*
X89858722Y-104362197D01*
X89696319Y-104289891D01*
X89696318Y-104289891D01*
X89690288Y-104287206D01*
X89596887Y-104267353D01*
X89509944Y-104248872D01*
X89509939Y-104248872D01*
X89503487Y-104247500D01*
X89312513Y-104247500D01*
X89306061Y-104248872D01*
X89306056Y-104248872D01*
X89219113Y-104267353D01*
X89125712Y-104287206D01*
X89119682Y-104289891D01*
X89119681Y-104289891D01*
X88957278Y-104362197D01*
X88957276Y-104362198D01*
X88951248Y-104364882D01*
X88796747Y-104477134D01*
X88792326Y-104482044D01*
X88792325Y-104482045D01*
X88682651Y-104603851D01*
X88668960Y-104619056D01*
X88642670Y-104664592D01*
X88583002Y-104767940D01*
X88573473Y-104784444D01*
X88514458Y-104966072D01*
X88513768Y-104972633D01*
X88513768Y-104972635D01*
X88503096Y-105074173D01*
X88494496Y-105156000D01*
X32489055Y-105156000D01*
X32498662Y-105033930D01*
X32498662Y-105024070D01*
X32479271Y-104777687D01*
X32477728Y-104767940D01*
X32420033Y-104527627D01*
X32416984Y-104518242D01*
X32322408Y-104289915D01*
X32317927Y-104281121D01*
X32191660Y-104075072D01*
X32183599Y-104069810D01*
X32173393Y-104075817D01*
X31233022Y-105016188D01*
X31225408Y-105030132D01*
X30495356Y-105030132D01*
X30496592Y-105027868D01*
X30496461Y-105026035D01*
X30492210Y-105019420D01*
X29550066Y-104077276D01*
X29536529Y-104069884D01*
X29531260Y-104073570D01*
X29404073Y-104281121D01*
X29399592Y-104289915D01*
X29305016Y-104518242D01*
X29301967Y-104527627D01*
X29244272Y-104767940D01*
X29242729Y-104777687D01*
X29223338Y-105024070D01*
X29223338Y-105033930D01*
X27418662Y-105033930D01*
X27418662Y-105024070D01*
X27399271Y-104777687D01*
X27397728Y-104767940D01*
X27340033Y-104527627D01*
X27336984Y-104518242D01*
X27242408Y-104289915D01*
X27237927Y-104281121D01*
X27111660Y-104075072D01*
X27103599Y-104069810D01*
X27093393Y-104075817D01*
X26153022Y-105016188D01*
X26145408Y-105030132D01*
X25478694Y-105030132D01*
X25481924Y-104984968D01*
X25510885Y-104939905D01*
X26732724Y-103718066D01*
X26740116Y-103704529D01*
X26736430Y-103699260D01*
X26528879Y-103572073D01*
X26520085Y-103567592D01*
X26291758Y-103473016D01*
X26282373Y-103469967D01*
X26042060Y-103412272D01*
X26032313Y-103410729D01*
X25785930Y-103391338D01*
X25776070Y-103391338D01*
X25529687Y-103410729D01*
X25519940Y-103412272D01*
X25279627Y-103469967D01*
X25270242Y-103473016D01*
X25041915Y-103567592D01*
X25033121Y-103572073D01*
X24830335Y-103696340D01*
X24761801Y-103714878D01*
X24694124Y-103693421D01*
X24648792Y-103638782D01*
X24638500Y-103588907D01*
X24638500Y-102489000D01*
X26782758Y-102489000D01*
X26801696Y-102729634D01*
X26802850Y-102734441D01*
X26802851Y-102734447D01*
X26832551Y-102858155D01*
X26858045Y-102964343D01*
X26859938Y-102968914D01*
X26859939Y-102968916D01*
X26920595Y-103115352D01*
X26950416Y-103187347D01*
X26953002Y-103191567D01*
X26956977Y-103198054D01*
X27076536Y-103393156D01*
X27233299Y-103576701D01*
X27416844Y-103733464D01*
X27622653Y-103859584D01*
X27627223Y-103861477D01*
X27627227Y-103861479D01*
X27766154Y-103919024D01*
X27845657Y-103951955D01*
X27910781Y-103967590D01*
X28075553Y-104007149D01*
X28075559Y-104007150D01*
X28080366Y-104008304D01*
X28321000Y-104027242D01*
X28561634Y-104008304D01*
X28566441Y-104007150D01*
X28566447Y-104007149D01*
X28731219Y-103967590D01*
X28796343Y-103951955D01*
X28875846Y-103919024D01*
X29014773Y-103861479D01*
X29014777Y-103861477D01*
X29019347Y-103859584D01*
X29225156Y-103733464D01*
X29256843Y-103706401D01*
X29901810Y-103706401D01*
X29907817Y-103716607D01*
X30848188Y-104656978D01*
X30862132Y-104664592D01*
X30863965Y-104664461D01*
X30870580Y-104660210D01*
X31812724Y-103718066D01*
X31820116Y-103704529D01*
X31816430Y-103699260D01*
X31608879Y-103572073D01*
X31600085Y-103567592D01*
X31371758Y-103473016D01*
X31362373Y-103469967D01*
X31122060Y-103412272D01*
X31112313Y-103410729D01*
X30865930Y-103391338D01*
X30856070Y-103391338D01*
X30609687Y-103410729D01*
X30599940Y-103412272D01*
X30359627Y-103469967D01*
X30350242Y-103473016D01*
X30121915Y-103567592D01*
X30113121Y-103572073D01*
X29907072Y-103698340D01*
X29901810Y-103706401D01*
X29256843Y-103706401D01*
X29408701Y-103576701D01*
X29565464Y-103393156D01*
X29572251Y-103382080D01*
X69245376Y-103382080D01*
X69246066Y-103388645D01*
X69253745Y-103461702D01*
X69265338Y-103572008D01*
X69324353Y-103753636D01*
X69419840Y-103919024D01*
X69547627Y-104060946D01*
X69702128Y-104173198D01*
X69708156Y-104175882D01*
X69708158Y-104175883D01*
X69870561Y-104248189D01*
X69876592Y-104250874D01*
X69969993Y-104270727D01*
X70056936Y-104289208D01*
X70056941Y-104289208D01*
X70063393Y-104290580D01*
X70254367Y-104290580D01*
X70260819Y-104289208D01*
X70260824Y-104289208D01*
X70347767Y-104270727D01*
X70441168Y-104250874D01*
X70447199Y-104248189D01*
X70609602Y-104175883D01*
X70609604Y-104175882D01*
X70615632Y-104173198D01*
X70770133Y-104060946D01*
X70897920Y-103919024D01*
X70993407Y-103753636D01*
X71032929Y-103632000D01*
X96495496Y-103632000D01*
X96496186Y-103638565D01*
X96506432Y-103736046D01*
X96515458Y-103821928D01*
X96574473Y-104003556D01*
X96669960Y-104168944D01*
X96674378Y-104173851D01*
X96674379Y-104173852D01*
X96775208Y-104285834D01*
X96797747Y-104310866D01*
X96952248Y-104423118D01*
X96958276Y-104425802D01*
X96958278Y-104425803D01*
X97120681Y-104498109D01*
X97126712Y-104500794D01*
X97196444Y-104515616D01*
X97307056Y-104539128D01*
X97307061Y-104539128D01*
X97313513Y-104540500D01*
X97504487Y-104540500D01*
X97510939Y-104539128D01*
X97510944Y-104539128D01*
X97621556Y-104515616D01*
X97691288Y-104500794D01*
X97697319Y-104498109D01*
X97859722Y-104425803D01*
X97859724Y-104425802D01*
X97865752Y-104423118D01*
X97987892Y-104334378D01*
X98036852Y-104316909D01*
X98053268Y-104274745D01*
X98059404Y-104267384D01*
X98148040Y-104168944D01*
X98243527Y-104003556D01*
X98302542Y-103821928D01*
X98311569Y-103736046D01*
X98321814Y-103638565D01*
X98322504Y-103632000D01*
X98317029Y-103579909D01*
X98303232Y-103448635D01*
X98303232Y-103448633D01*
X98302542Y-103442072D01*
X98243527Y-103260444D01*
X98239687Y-103253792D01*
X98200474Y-103185874D01*
X98148040Y-103095056D01*
X98020253Y-102953134D01*
X97865752Y-102840882D01*
X97859724Y-102838198D01*
X97859722Y-102838197D01*
X97697319Y-102765891D01*
X97697318Y-102765891D01*
X97691288Y-102763206D01*
X97586945Y-102741027D01*
X97510944Y-102724872D01*
X97510939Y-102724872D01*
X97504487Y-102723500D01*
X97313513Y-102723500D01*
X97307061Y-102724872D01*
X97307056Y-102724872D01*
X97231055Y-102741027D01*
X97126712Y-102763206D01*
X97120682Y-102765891D01*
X97120681Y-102765891D01*
X96958278Y-102838197D01*
X96958276Y-102838198D01*
X96952248Y-102840882D01*
X96797747Y-102953134D01*
X96669960Y-103095056D01*
X96617526Y-103185874D01*
X96578314Y-103253792D01*
X96574473Y-103260444D01*
X96515458Y-103442072D01*
X96514768Y-103448633D01*
X96514768Y-103448635D01*
X96500971Y-103579909D01*
X96495496Y-103632000D01*
X71032929Y-103632000D01*
X71052422Y-103572008D01*
X71064016Y-103461702D01*
X71071694Y-103388645D01*
X71072384Y-103382080D01*
X71056156Y-103227680D01*
X71053112Y-103198715D01*
X71053112Y-103198713D01*
X71052422Y-103192152D01*
X70993407Y-103010524D01*
X70897920Y-102845136D01*
X70807864Y-102745118D01*
X70774555Y-102708125D01*
X70774554Y-102708124D01*
X70770133Y-102703214D01*
X70615632Y-102590962D01*
X70609604Y-102588278D01*
X70609602Y-102588277D01*
X70576412Y-102573500D01*
X79477496Y-102573500D01*
X79478186Y-102580065D01*
X79495785Y-102747507D01*
X79497458Y-102763428D01*
X79556473Y-102945056D01*
X79559776Y-102950778D01*
X79559777Y-102950779D01*
X79571704Y-102971437D01*
X79651960Y-103110444D01*
X79779747Y-103252366D01*
X79934248Y-103364618D01*
X79940276Y-103367302D01*
X79940278Y-103367303D01*
X80102681Y-103439609D01*
X80108712Y-103442294D01*
X80200019Y-103461702D01*
X80289056Y-103480628D01*
X80289061Y-103480628D01*
X80295513Y-103482000D01*
X80486487Y-103482000D01*
X80492939Y-103480628D01*
X80492944Y-103480628D01*
X80581981Y-103461702D01*
X80673288Y-103442294D01*
X80679319Y-103439609D01*
X80841722Y-103367303D01*
X80841724Y-103367302D01*
X80847752Y-103364618D01*
X81002253Y-103252366D01*
X81130040Y-103110444D01*
X81210296Y-102971437D01*
X81222223Y-102950779D01*
X81222224Y-102950778D01*
X81225527Y-102945056D01*
X81284542Y-102763428D01*
X81286216Y-102747507D01*
X81303814Y-102580065D01*
X81304504Y-102573500D01*
X81302639Y-102555756D01*
X81285232Y-102390135D01*
X81285232Y-102390133D01*
X81284542Y-102383572D01*
X81225527Y-102201944D01*
X81215283Y-102184200D01*
X81148191Y-102067994D01*
X81130040Y-102036556D01*
X81113755Y-102018469D01*
X81006675Y-101899545D01*
X81006674Y-101899544D01*
X81002253Y-101894634D01*
X80847752Y-101782382D01*
X80841724Y-101779698D01*
X80841722Y-101779697D01*
X80679319Y-101707391D01*
X80679318Y-101707391D01*
X80673288Y-101704706D01*
X80579888Y-101684853D01*
X80492944Y-101666372D01*
X80492939Y-101666372D01*
X80486487Y-101665000D01*
X80295513Y-101665000D01*
X80289061Y-101666372D01*
X80289056Y-101666372D01*
X80202112Y-101684853D01*
X80108712Y-101704706D01*
X80102682Y-101707391D01*
X80102681Y-101707391D01*
X79940278Y-101779697D01*
X79940276Y-101779698D01*
X79934248Y-101782382D01*
X79779747Y-101894634D01*
X79775326Y-101899544D01*
X79775325Y-101899545D01*
X79668246Y-102018469D01*
X79651960Y-102036556D01*
X79633809Y-102067994D01*
X79566718Y-102184200D01*
X79556473Y-102201944D01*
X79497458Y-102383572D01*
X79496768Y-102390133D01*
X79496768Y-102390135D01*
X79479361Y-102555756D01*
X79477496Y-102573500D01*
X70576412Y-102573500D01*
X70447199Y-102515971D01*
X70447198Y-102515971D01*
X70441168Y-102513286D01*
X70347768Y-102493433D01*
X70260824Y-102474952D01*
X70260819Y-102474952D01*
X70254367Y-102473580D01*
X70063393Y-102473580D01*
X70056941Y-102474952D01*
X70056936Y-102474952D01*
X69969992Y-102493433D01*
X69876592Y-102513286D01*
X69870562Y-102515971D01*
X69870561Y-102515971D01*
X69708158Y-102588277D01*
X69708156Y-102588278D01*
X69702128Y-102590962D01*
X69547627Y-102703214D01*
X69543206Y-102708124D01*
X69543205Y-102708125D01*
X69509897Y-102745118D01*
X69419840Y-102845136D01*
X69324353Y-103010524D01*
X69265338Y-103192152D01*
X69264648Y-103198713D01*
X69264648Y-103198715D01*
X69261604Y-103227680D01*
X69245376Y-103382080D01*
X29572251Y-103382080D01*
X29685023Y-103198054D01*
X29688998Y-103191567D01*
X29691584Y-103187347D01*
X29721406Y-103115352D01*
X29782061Y-102968916D01*
X29782062Y-102968914D01*
X29783955Y-102964343D01*
X29809449Y-102858155D01*
X29839149Y-102734447D01*
X29839150Y-102734441D01*
X29840304Y-102729634D01*
X29859242Y-102489000D01*
X29840304Y-102248366D01*
X29839150Y-102243559D01*
X29839149Y-102243553D01*
X29796048Y-102064028D01*
X29783955Y-102013657D01*
X29778644Y-102000835D01*
X29693479Y-101795227D01*
X29693477Y-101795223D01*
X29691584Y-101790653D01*
X29574752Y-101600000D01*
X59792496Y-101600000D01*
X59793186Y-101606565D01*
X59811383Y-101779697D01*
X59812458Y-101789928D01*
X59871473Y-101971556D01*
X59874776Y-101977278D01*
X59874777Y-101977279D01*
X59884588Y-101994272D01*
X59966960Y-102136944D01*
X59971378Y-102141851D01*
X59971379Y-102141852D01*
X60067285Y-102248366D01*
X60094747Y-102278866D01*
X60249248Y-102391118D01*
X60255276Y-102393802D01*
X60255278Y-102393803D01*
X60417681Y-102466109D01*
X60423712Y-102468794D01*
X60495580Y-102484070D01*
X60604056Y-102507128D01*
X60604061Y-102507128D01*
X60610513Y-102508500D01*
X60801487Y-102508500D01*
X60807939Y-102507128D01*
X60807944Y-102507128D01*
X60916420Y-102484070D01*
X60988288Y-102468794D01*
X60994319Y-102466109D01*
X61156722Y-102393803D01*
X61156724Y-102393802D01*
X61162752Y-102391118D01*
X61317253Y-102278866D01*
X61344715Y-102248366D01*
X61402491Y-102184200D01*
X65634496Y-102184200D01*
X65635186Y-102190765D01*
X65643930Y-102273955D01*
X65654458Y-102374128D01*
X65713473Y-102555756D01*
X65716776Y-102561478D01*
X65716777Y-102561479D01*
X65727508Y-102580065D01*
X65808960Y-102721144D01*
X65813378Y-102726051D01*
X65813379Y-102726052D01*
X65916772Y-102840882D01*
X65936747Y-102863066D01*
X66091248Y-102975318D01*
X66097276Y-102978002D01*
X66097278Y-102978003D01*
X66235181Y-103039401D01*
X66265712Y-103052994D01*
X66359113Y-103072847D01*
X66446056Y-103091328D01*
X66446061Y-103091328D01*
X66452513Y-103092700D01*
X66643487Y-103092700D01*
X66649939Y-103091328D01*
X66649944Y-103091328D01*
X66736887Y-103072847D01*
X66830288Y-103052994D01*
X66860819Y-103039401D01*
X66998722Y-102978003D01*
X66998724Y-102978002D01*
X67004752Y-102975318D01*
X67159253Y-102863066D01*
X67179228Y-102840882D01*
X67282621Y-102726052D01*
X67282622Y-102726051D01*
X67287040Y-102721144D01*
X67368492Y-102580065D01*
X67379223Y-102561479D01*
X67379224Y-102561478D01*
X67382527Y-102555756D01*
X67441542Y-102374128D01*
X67452071Y-102273955D01*
X67460814Y-102190765D01*
X67461504Y-102184200D01*
X67451562Y-102089607D01*
X67442232Y-102000835D01*
X67442232Y-102000833D01*
X67441542Y-101994272D01*
X67382527Y-101812644D01*
X67373037Y-101796206D01*
X67319417Y-101703334D01*
X67287040Y-101647256D01*
X67238580Y-101593435D01*
X67163675Y-101510245D01*
X67163674Y-101510244D01*
X67159253Y-101505334D01*
X67022432Y-101405927D01*
X67010094Y-101396963D01*
X67010093Y-101396962D01*
X67004752Y-101393082D01*
X66998724Y-101390398D01*
X66998722Y-101390397D01*
X66836319Y-101318091D01*
X66836318Y-101318091D01*
X66830288Y-101315406D01*
X66736887Y-101295553D01*
X66649944Y-101277072D01*
X66649939Y-101277072D01*
X66643487Y-101275700D01*
X66452513Y-101275700D01*
X66446061Y-101277072D01*
X66446056Y-101277072D01*
X66359113Y-101295553D01*
X66265712Y-101315406D01*
X66259682Y-101318091D01*
X66259681Y-101318091D01*
X66097278Y-101390397D01*
X66097276Y-101390398D01*
X66091248Y-101393082D01*
X66085907Y-101396962D01*
X66085906Y-101396963D01*
X66073568Y-101405927D01*
X65936747Y-101505334D01*
X65932326Y-101510244D01*
X65932325Y-101510245D01*
X65857421Y-101593435D01*
X65808960Y-101647256D01*
X65776583Y-101703334D01*
X65722964Y-101796206D01*
X65713473Y-101812644D01*
X65654458Y-101994272D01*
X65653768Y-102000833D01*
X65653768Y-102000835D01*
X65644438Y-102089607D01*
X65634496Y-102184200D01*
X61402491Y-102184200D01*
X61440621Y-102141852D01*
X61440622Y-102141851D01*
X61445040Y-102136944D01*
X61527412Y-101994272D01*
X61537223Y-101977279D01*
X61537224Y-101977278D01*
X61540527Y-101971556D01*
X61599542Y-101789928D01*
X61600618Y-101779697D01*
X61618814Y-101606565D01*
X61619504Y-101600000D01*
X61613781Y-101545547D01*
X61600232Y-101416635D01*
X61600232Y-101416633D01*
X61599542Y-101410072D01*
X61540527Y-101228444D01*
X61445040Y-101063056D01*
X61360979Y-100969696D01*
X61321675Y-100926045D01*
X61321674Y-100926044D01*
X61317253Y-100921134D01*
X61176907Y-100819166D01*
X61168094Y-100812763D01*
X61168093Y-100812762D01*
X61162752Y-100808882D01*
X61156724Y-100806198D01*
X61156722Y-100806197D01*
X60994319Y-100733891D01*
X60994318Y-100733891D01*
X60988288Y-100731206D01*
X60867921Y-100705621D01*
X60807944Y-100692872D01*
X60807939Y-100692872D01*
X60801487Y-100691500D01*
X60610513Y-100691500D01*
X60604061Y-100692872D01*
X60604056Y-100692872D01*
X60544079Y-100705621D01*
X60423712Y-100731206D01*
X60417682Y-100733891D01*
X60417681Y-100733891D01*
X60255278Y-100806197D01*
X60255276Y-100806198D01*
X60249248Y-100808882D01*
X60243907Y-100812762D01*
X60243906Y-100812763D01*
X60235093Y-100819166D01*
X60094747Y-100921134D01*
X60090326Y-100926044D01*
X60090325Y-100926045D01*
X60051022Y-100969696D01*
X59966960Y-101063056D01*
X59871473Y-101228444D01*
X59812458Y-101410072D01*
X59811768Y-101416633D01*
X59811768Y-101416635D01*
X59798219Y-101545547D01*
X59792496Y-101600000D01*
X29574752Y-101600000D01*
X29565464Y-101584844D01*
X29408701Y-101401299D01*
X29259034Y-101273471D01*
X29901884Y-101273471D01*
X29905570Y-101278740D01*
X30113121Y-101405927D01*
X30121915Y-101410408D01*
X30350242Y-101504984D01*
X30359627Y-101508033D01*
X30599940Y-101565728D01*
X30609687Y-101567271D01*
X30856070Y-101586662D01*
X30865930Y-101586662D01*
X31112313Y-101567271D01*
X31122060Y-101565728D01*
X31362373Y-101508033D01*
X31371758Y-101504984D01*
X31600085Y-101410408D01*
X31608879Y-101405927D01*
X31814928Y-101279660D01*
X31820190Y-101271599D01*
X31814183Y-101261393D01*
X30873812Y-100321022D01*
X30859868Y-100313408D01*
X30858035Y-100313539D01*
X30851420Y-100317790D01*
X29909276Y-101259934D01*
X29901884Y-101273471D01*
X29259034Y-101273471D01*
X29225156Y-101244536D01*
X29019347Y-101118416D01*
X29014777Y-101116523D01*
X29014773Y-101116521D01*
X28800916Y-101027939D01*
X28800914Y-101027938D01*
X28796343Y-101026045D01*
X28713961Y-101006267D01*
X28566447Y-100970851D01*
X28566441Y-100970850D01*
X28561634Y-100969696D01*
X28321000Y-100950758D01*
X28080366Y-100969696D01*
X28075559Y-100970850D01*
X28075553Y-100970851D01*
X27928039Y-101006267D01*
X27845657Y-101026045D01*
X27841086Y-101027938D01*
X27841084Y-101027939D01*
X27627227Y-101116521D01*
X27627223Y-101116523D01*
X27622653Y-101118416D01*
X27416844Y-101244536D01*
X27233299Y-101401299D01*
X27076536Y-101584844D01*
X26950416Y-101790653D01*
X26948523Y-101795223D01*
X26948521Y-101795227D01*
X26863356Y-102000835D01*
X26858045Y-102013657D01*
X26845952Y-102064028D01*
X26802851Y-102243553D01*
X26802850Y-102243559D01*
X26801696Y-102248366D01*
X26782758Y-102489000D01*
X24638500Y-102489000D01*
X24638500Y-101389093D01*
X24658502Y-101320972D01*
X24712158Y-101274479D01*
X24782432Y-101264375D01*
X24830335Y-101281660D01*
X25033121Y-101405927D01*
X25041915Y-101410408D01*
X25270242Y-101504984D01*
X25279627Y-101508033D01*
X25519940Y-101565728D01*
X25529687Y-101567271D01*
X25776070Y-101586662D01*
X25785930Y-101586662D01*
X26032313Y-101567271D01*
X26042060Y-101565728D01*
X26282373Y-101508033D01*
X26291758Y-101504984D01*
X26520085Y-101410408D01*
X26528879Y-101405927D01*
X26734928Y-101279660D01*
X26740190Y-101271599D01*
X26734183Y-101261393D01*
X25510885Y-100038095D01*
X25476859Y-99975783D01*
X25478694Y-99950132D01*
X26145408Y-99950132D01*
X26145539Y-99951965D01*
X26149790Y-99958580D01*
X27091934Y-100900724D01*
X27105471Y-100908116D01*
X27110740Y-100904430D01*
X27237927Y-100696879D01*
X27242408Y-100688085D01*
X27336984Y-100459758D01*
X27340033Y-100450373D01*
X27397728Y-100210060D01*
X27399271Y-100200313D01*
X27418662Y-99953930D01*
X29223338Y-99953930D01*
X29242729Y-100200313D01*
X29244272Y-100210060D01*
X29301967Y-100450373D01*
X29305016Y-100459758D01*
X29399592Y-100688085D01*
X29404073Y-100696879D01*
X29530340Y-100902928D01*
X29538401Y-100908190D01*
X29548607Y-100902183D01*
X30488978Y-99961812D01*
X30495356Y-99950132D01*
X31225408Y-99950132D01*
X31225539Y-99951965D01*
X31229790Y-99958580D01*
X32171934Y-100900724D01*
X32185471Y-100908116D01*
X32190740Y-100904430D01*
X32317927Y-100696879D01*
X32322408Y-100688085D01*
X32416984Y-100459758D01*
X32420033Y-100450373D01*
X32477728Y-100210060D01*
X32479271Y-100200313D01*
X32498662Y-99953930D01*
X32498662Y-99944070D01*
X32489055Y-99822000D01*
X84684496Y-99822000D01*
X84685186Y-99828565D01*
X84702353Y-99991896D01*
X84704458Y-100011928D01*
X84763473Y-100193556D01*
X84766776Y-100199278D01*
X84766777Y-100199279D01*
X84786329Y-100233143D01*
X84858960Y-100358944D01*
X84986747Y-100500866D01*
X85141248Y-100613118D01*
X85147276Y-100615802D01*
X85147278Y-100615803D01*
X85309627Y-100688085D01*
X85315712Y-100690794D01*
X85409112Y-100710647D01*
X85496056Y-100729128D01*
X85496061Y-100729128D01*
X85502513Y-100730500D01*
X85693487Y-100730500D01*
X85699939Y-100729128D01*
X85699944Y-100729128D01*
X85786888Y-100710647D01*
X85880288Y-100690794D01*
X85886373Y-100688085D01*
X86048722Y-100615803D01*
X86048724Y-100615802D01*
X86054752Y-100613118D01*
X86209253Y-100500866D01*
X86337040Y-100358944D01*
X86389631Y-100267854D01*
X86441014Y-100218861D01*
X86510727Y-100205425D01*
X86576638Y-100231811D01*
X86607869Y-100267854D01*
X86660460Y-100358944D01*
X86788247Y-100500866D01*
X86942748Y-100613118D01*
X86948776Y-100615802D01*
X86948778Y-100615803D01*
X87111127Y-100688085D01*
X87117212Y-100690794D01*
X87210612Y-100710647D01*
X87297556Y-100729128D01*
X87297561Y-100729128D01*
X87304013Y-100730500D01*
X87494987Y-100730500D01*
X87501439Y-100729128D01*
X87501444Y-100729128D01*
X87588388Y-100710647D01*
X87681788Y-100690794D01*
X87687873Y-100688085D01*
X87850222Y-100615803D01*
X87850224Y-100615802D01*
X87856252Y-100613118D01*
X88010753Y-100500866D01*
X88138540Y-100358944D01*
X88211171Y-100233143D01*
X88230723Y-100199279D01*
X88230724Y-100199278D01*
X88234027Y-100193556D01*
X88293042Y-100011928D01*
X88295148Y-99991896D01*
X88299656Y-99949000D01*
X98593496Y-99949000D01*
X98594186Y-99955565D01*
X98611970Y-100124767D01*
X98613458Y-100138928D01*
X98672473Y-100320556D01*
X98675776Y-100326278D01*
X98675777Y-100326279D01*
X98709686Y-100385010D01*
X98767960Y-100485944D01*
X98772378Y-100490851D01*
X98772379Y-100490852D01*
X98806977Y-100529277D01*
X98895747Y-100627866D01*
X98950881Y-100667923D01*
X99037982Y-100731206D01*
X99050248Y-100740118D01*
X99056276Y-100742802D01*
X99056278Y-100742803D01*
X99204695Y-100808882D01*
X99224712Y-100817794D01*
X99318112Y-100837647D01*
X99405056Y-100856128D01*
X99405061Y-100856128D01*
X99411513Y-100857500D01*
X99602487Y-100857500D01*
X99608939Y-100856128D01*
X99608944Y-100856128D01*
X99695888Y-100837647D01*
X99789288Y-100817794D01*
X99809305Y-100808882D01*
X99957722Y-100742803D01*
X99957724Y-100742802D01*
X99963752Y-100740118D01*
X99976019Y-100731206D01*
X100063119Y-100667923D01*
X100118253Y-100627866D01*
X100207023Y-100529277D01*
X100241621Y-100490852D01*
X100241622Y-100490851D01*
X100246040Y-100485944D01*
X100304314Y-100385010D01*
X100338223Y-100326279D01*
X100338224Y-100326278D01*
X100341527Y-100320556D01*
X100400542Y-100138928D01*
X100402031Y-100124767D01*
X100419814Y-99955565D01*
X100420504Y-99949000D01*
X100400542Y-99759072D01*
X100341527Y-99577444D01*
X100246040Y-99412056D01*
X100118253Y-99270134D01*
X99963752Y-99157882D01*
X99957724Y-99155198D01*
X99957722Y-99155197D01*
X99795319Y-99082891D01*
X99795318Y-99082891D01*
X99789288Y-99080206D01*
X99695888Y-99060353D01*
X99608944Y-99041872D01*
X99608939Y-99041872D01*
X99602487Y-99040500D01*
X99411513Y-99040500D01*
X99405061Y-99041872D01*
X99405056Y-99041872D01*
X99318112Y-99060353D01*
X99224712Y-99080206D01*
X99218682Y-99082891D01*
X99218681Y-99082891D01*
X99056278Y-99155197D01*
X99056276Y-99155198D01*
X99050248Y-99157882D01*
X98895747Y-99270134D01*
X98767960Y-99412056D01*
X98672473Y-99577444D01*
X98613458Y-99759072D01*
X98593496Y-99949000D01*
X88299656Y-99949000D01*
X88312314Y-99828565D01*
X88313004Y-99822000D01*
X88302550Y-99722531D01*
X88293732Y-99638635D01*
X88293732Y-99638633D01*
X88293042Y-99632072D01*
X88234027Y-99450444D01*
X88227175Y-99438575D01*
X88141841Y-99290774D01*
X88138540Y-99285056D01*
X88010753Y-99143134D01*
X87911657Y-99071136D01*
X87861594Y-99034763D01*
X87861593Y-99034762D01*
X87856252Y-99030882D01*
X87850224Y-99028198D01*
X87850222Y-99028197D01*
X87687819Y-98955891D01*
X87687818Y-98955891D01*
X87681788Y-98953206D01*
X87588387Y-98933353D01*
X87501444Y-98914872D01*
X87501439Y-98914872D01*
X87494987Y-98913500D01*
X87304013Y-98913500D01*
X87297561Y-98914872D01*
X87297556Y-98914872D01*
X87210613Y-98933353D01*
X87117212Y-98953206D01*
X87111182Y-98955891D01*
X87111181Y-98955891D01*
X86948778Y-99028197D01*
X86948776Y-99028198D01*
X86942748Y-99030882D01*
X86937407Y-99034762D01*
X86937406Y-99034763D01*
X86887343Y-99071136D01*
X86788247Y-99143134D01*
X86660460Y-99285056D01*
X86657159Y-99290774D01*
X86607869Y-99376146D01*
X86556486Y-99425139D01*
X86486773Y-99438575D01*
X86420862Y-99412189D01*
X86389631Y-99376146D01*
X86340341Y-99290774D01*
X86337040Y-99285056D01*
X86209253Y-99143134D01*
X86110157Y-99071136D01*
X86060094Y-99034763D01*
X86060093Y-99034762D01*
X86054752Y-99030882D01*
X86048724Y-99028198D01*
X86048722Y-99028197D01*
X85886319Y-98955891D01*
X85886318Y-98955891D01*
X85880288Y-98953206D01*
X85786887Y-98933353D01*
X85699944Y-98914872D01*
X85699939Y-98914872D01*
X85693487Y-98913500D01*
X85502513Y-98913500D01*
X85496061Y-98914872D01*
X85496056Y-98914872D01*
X85409113Y-98933353D01*
X85315712Y-98953206D01*
X85309682Y-98955891D01*
X85309681Y-98955891D01*
X85147278Y-99028197D01*
X85147276Y-99028198D01*
X85141248Y-99030882D01*
X85135907Y-99034762D01*
X85135906Y-99034763D01*
X85085843Y-99071136D01*
X84986747Y-99143134D01*
X84858960Y-99285056D01*
X84855659Y-99290774D01*
X84770326Y-99438575D01*
X84763473Y-99450444D01*
X84704458Y-99632072D01*
X84703768Y-99638633D01*
X84703768Y-99638635D01*
X84694950Y-99722531D01*
X84684496Y-99822000D01*
X32489055Y-99822000D01*
X32479271Y-99697687D01*
X32477728Y-99687940D01*
X32420033Y-99447627D01*
X32416984Y-99438242D01*
X32322408Y-99209915D01*
X32317927Y-99201121D01*
X32191660Y-98995072D01*
X32183599Y-98989810D01*
X32173393Y-98995817D01*
X31233022Y-99936188D01*
X31225408Y-99950132D01*
X30495356Y-99950132D01*
X30496592Y-99947868D01*
X30496461Y-99946035D01*
X30492210Y-99939420D01*
X29550066Y-98997276D01*
X29536529Y-98989884D01*
X29531260Y-98993570D01*
X29404073Y-99201121D01*
X29399592Y-99209915D01*
X29305016Y-99438242D01*
X29301967Y-99447627D01*
X29244272Y-99687940D01*
X29242729Y-99697687D01*
X29223338Y-99944070D01*
X29223338Y-99953930D01*
X27418662Y-99953930D01*
X27418662Y-99944070D01*
X27399271Y-99697687D01*
X27397728Y-99687940D01*
X27340033Y-99447627D01*
X27336984Y-99438242D01*
X27242408Y-99209915D01*
X27237927Y-99201121D01*
X27111660Y-98995072D01*
X27103599Y-98989810D01*
X27093393Y-98995817D01*
X26153022Y-99936188D01*
X26145408Y-99950132D01*
X25478694Y-99950132D01*
X25481924Y-99904968D01*
X25510885Y-99859905D01*
X26732724Y-98638066D01*
X26739094Y-98626401D01*
X29901810Y-98626401D01*
X29907817Y-98636607D01*
X30848188Y-99576978D01*
X30862132Y-99584592D01*
X30863965Y-99584461D01*
X30870580Y-99580210D01*
X31812724Y-98638066D01*
X31820116Y-98624529D01*
X31816430Y-98619260D01*
X31608879Y-98492073D01*
X31600085Y-98487592D01*
X31371758Y-98393016D01*
X31362373Y-98389967D01*
X31122060Y-98332272D01*
X31112313Y-98330729D01*
X30865930Y-98311338D01*
X30856070Y-98311338D01*
X30609687Y-98330729D01*
X30599940Y-98332272D01*
X30359627Y-98389967D01*
X30350242Y-98393016D01*
X30121915Y-98487592D01*
X30113121Y-98492073D01*
X29907072Y-98618340D01*
X29901810Y-98626401D01*
X26739094Y-98626401D01*
X26740116Y-98624529D01*
X26736430Y-98619260D01*
X26528879Y-98492073D01*
X26520085Y-98487592D01*
X26291758Y-98393016D01*
X26282373Y-98389967D01*
X26042060Y-98332272D01*
X26032313Y-98330729D01*
X25785930Y-98311338D01*
X25776070Y-98311338D01*
X25529687Y-98330729D01*
X25519940Y-98332272D01*
X25279627Y-98389967D01*
X25270242Y-98393016D01*
X25041915Y-98487592D01*
X25033121Y-98492073D01*
X24830335Y-98616340D01*
X24761801Y-98634878D01*
X24694124Y-98613421D01*
X24648792Y-98558782D01*
X24638500Y-98508907D01*
X24638500Y-95483918D01*
X34896917Y-95483918D01*
X34912682Y-95757320D01*
X34913507Y-95761525D01*
X34913508Y-95761533D01*
X34934698Y-95869539D01*
X34965405Y-96026053D01*
X34966792Y-96030103D01*
X34966793Y-96030108D01*
X35050791Y-96275444D01*
X35054112Y-96285144D01*
X35177160Y-96529799D01*
X35179586Y-96533328D01*
X35179589Y-96533334D01*
X35308741Y-96721250D01*
X35332274Y-96755490D01*
X35516582Y-96958043D01*
X35726675Y-97133707D01*
X35730316Y-97135991D01*
X35955024Y-97276951D01*
X35955028Y-97276953D01*
X35958664Y-97279234D01*
X36061942Y-97325866D01*
X36204345Y-97390164D01*
X36204349Y-97390166D01*
X36208257Y-97391930D01*
X36212377Y-97393150D01*
X36212376Y-97393150D01*
X36466723Y-97468491D01*
X36466727Y-97468492D01*
X36470836Y-97469709D01*
X36475070Y-97470357D01*
X36475075Y-97470358D01*
X36737298Y-97510483D01*
X36737300Y-97510483D01*
X36741540Y-97511132D01*
X36880912Y-97513322D01*
X37011071Y-97515367D01*
X37011077Y-97515367D01*
X37015362Y-97515434D01*
X37287235Y-97482534D01*
X37552127Y-97413041D01*
X37556087Y-97411401D01*
X37556092Y-97411399D01*
X37753211Y-97329749D01*
X37805136Y-97308241D01*
X38041582Y-97170073D01*
X38137767Y-97094654D01*
X45685618Y-97094654D01*
X45692673Y-97104627D01*
X45723679Y-97130551D01*
X45730598Y-97135579D01*
X45955272Y-97276515D01*
X45962807Y-97280556D01*
X46204520Y-97389694D01*
X46212551Y-97392680D01*
X46466832Y-97468002D01*
X46475184Y-97469869D01*
X46737340Y-97509984D01*
X46745874Y-97510700D01*
X47011045Y-97514867D01*
X47019596Y-97514418D01*
X47282883Y-97482557D01*
X47291284Y-97480955D01*
X47547824Y-97413653D01*
X47555926Y-97410926D01*
X47800949Y-97309434D01*
X47808617Y-97305628D01*
X48037598Y-97171822D01*
X48044679Y-97167009D01*
X48124655Y-97104301D01*
X48133125Y-97092442D01*
X48126608Y-97080818D01*
X46922812Y-95877022D01*
X46908868Y-95869408D01*
X46907035Y-95869539D01*
X46900420Y-95873790D01*
X45692910Y-97081300D01*
X45685618Y-97094654D01*
X38137767Y-97094654D01*
X38257089Y-97001094D01*
X38298809Y-96958043D01*
X38444686Y-96807509D01*
X38447669Y-96804431D01*
X38450202Y-96800983D01*
X38450206Y-96800978D01*
X38607257Y-96587178D01*
X38609795Y-96583723D01*
X38611841Y-96579955D01*
X38738418Y-96346830D01*
X38738419Y-96346828D01*
X38740468Y-96343054D01*
X38810205Y-96158500D01*
X38835751Y-96090895D01*
X38835752Y-96090891D01*
X38837269Y-96086877D01*
X38898407Y-95819933D01*
X38901352Y-95786944D01*
X38922531Y-95549627D01*
X38922532Y-95549616D01*
X38922751Y-95547161D01*
X38923193Y-95505000D01*
X38922048Y-95488204D01*
X44897665Y-95488204D01*
X44912932Y-95752969D01*
X44914005Y-95761470D01*
X44965065Y-96021722D01*
X44967276Y-96029974D01*
X45053184Y-96280894D01*
X45056499Y-96288779D01*
X45175664Y-96525713D01*
X45180020Y-96533079D01*
X45309347Y-96721250D01*
X45319601Y-96729594D01*
X45333342Y-96722448D01*
X46537978Y-95517812D01*
X46544356Y-95506132D01*
X47274408Y-95506132D01*
X47274539Y-95507965D01*
X47278790Y-95514580D01*
X48485730Y-96721520D01*
X48497939Y-96728187D01*
X48509439Y-96719497D01*
X48562693Y-96647000D01*
X92073996Y-96647000D01*
X92074686Y-96653565D01*
X92090180Y-96800978D01*
X92093958Y-96836928D01*
X92152973Y-97018556D01*
X92248460Y-97183944D01*
X92252878Y-97188851D01*
X92252879Y-97188852D01*
X92361856Y-97309883D01*
X92376247Y-97325866D01*
X92464098Y-97389694D01*
X92496233Y-97413041D01*
X92530748Y-97438118D01*
X92536776Y-97440802D01*
X92536778Y-97440803D01*
X92694741Y-97511132D01*
X92705212Y-97515794D01*
X92798612Y-97535647D01*
X92885556Y-97554128D01*
X92885561Y-97554128D01*
X92892013Y-97555500D01*
X93082987Y-97555500D01*
X93089439Y-97554128D01*
X93089444Y-97554128D01*
X93176388Y-97535647D01*
X93269788Y-97515794D01*
X93280259Y-97511132D01*
X93438222Y-97440803D01*
X93438224Y-97440802D01*
X93444252Y-97438118D01*
X93478768Y-97413041D01*
X93510902Y-97389694D01*
X93598753Y-97325866D01*
X93613144Y-97309883D01*
X93722121Y-97188852D01*
X93722122Y-97188851D01*
X93726540Y-97183944D01*
X93822027Y-97018556D01*
X93881042Y-96836928D01*
X93884821Y-96800978D01*
X93900314Y-96653565D01*
X93901004Y-96647000D01*
X93888283Y-96525968D01*
X93881732Y-96463635D01*
X93881732Y-96463633D01*
X93881042Y-96457072D01*
X93822027Y-96275444D01*
X93726540Y-96110056D01*
X93709288Y-96090895D01*
X93603175Y-95973045D01*
X93603174Y-95973044D01*
X93598753Y-95968134D01*
X93444252Y-95855882D01*
X93438224Y-95853198D01*
X93438222Y-95853197D01*
X93275819Y-95780891D01*
X93275818Y-95780891D01*
X93269788Y-95778206D01*
X93171528Y-95757320D01*
X93089444Y-95739872D01*
X93089439Y-95739872D01*
X93082987Y-95738500D01*
X92892013Y-95738500D01*
X92885561Y-95739872D01*
X92885556Y-95739872D01*
X92803472Y-95757320D01*
X92705212Y-95778206D01*
X92699182Y-95780891D01*
X92699181Y-95780891D01*
X92536778Y-95853197D01*
X92536776Y-95853198D01*
X92530748Y-95855882D01*
X92376247Y-95968134D01*
X92371826Y-95973044D01*
X92371825Y-95973045D01*
X92265713Y-96090895D01*
X92248460Y-96110056D01*
X92152973Y-96275444D01*
X92093958Y-96457072D01*
X92093268Y-96463633D01*
X92093268Y-96463635D01*
X92086717Y-96525968D01*
X92073996Y-96647000D01*
X48562693Y-96647000D01*
X48606831Y-96586913D01*
X48611418Y-96579685D01*
X48737962Y-96346621D01*
X48741530Y-96338827D01*
X48835271Y-96090750D01*
X48837748Y-96082544D01*
X48896954Y-95824038D01*
X48898294Y-95815577D01*
X48922031Y-95549616D01*
X48922277Y-95544677D01*
X48922666Y-95507485D01*
X48922523Y-95502519D01*
X48905308Y-95250000D01*
X81636496Y-95250000D01*
X81656458Y-95439928D01*
X81715473Y-95621556D01*
X81810960Y-95786944D01*
X81815378Y-95791851D01*
X81815379Y-95791852D01*
X81934325Y-95923955D01*
X81938747Y-95928866D01*
X81987450Y-95964251D01*
X82077910Y-96029974D01*
X82093248Y-96041118D01*
X82099276Y-96043802D01*
X82099278Y-96043803D01*
X82237062Y-96105148D01*
X82267712Y-96118794D01*
X82361112Y-96138647D01*
X82448056Y-96157128D01*
X82448061Y-96157128D01*
X82454513Y-96158500D01*
X82645487Y-96158500D01*
X82651939Y-96157128D01*
X82651944Y-96157128D01*
X82738888Y-96138647D01*
X82832288Y-96118794D01*
X82862938Y-96105148D01*
X83000722Y-96043803D01*
X83000724Y-96043802D01*
X83006752Y-96041118D01*
X83022091Y-96029974D01*
X83112550Y-95964251D01*
X83161253Y-95928866D01*
X83165675Y-95923955D01*
X83284621Y-95791852D01*
X83284622Y-95791851D01*
X83289040Y-95786944D01*
X83384527Y-95621556D01*
X83443542Y-95439928D01*
X83463504Y-95250000D01*
X83458955Y-95206721D01*
X83444232Y-95066635D01*
X83444232Y-95066633D01*
X83443542Y-95060072D01*
X83384527Y-94878444D01*
X83289040Y-94713056D01*
X83278776Y-94701656D01*
X83162312Y-94572310D01*
X83131594Y-94508303D01*
X83140359Y-94437849D01*
X83162312Y-94403690D01*
X83284621Y-94267852D01*
X83284622Y-94267851D01*
X83289040Y-94262944D01*
X83384527Y-94097556D01*
X83443542Y-93915928D01*
X83445138Y-93900749D01*
X83462814Y-93732565D01*
X83463504Y-93726000D01*
X83446062Y-93560045D01*
X83444232Y-93542635D01*
X83444232Y-93542633D01*
X83443542Y-93536072D01*
X83384527Y-93354444D01*
X83305751Y-93218000D01*
X96827496Y-93218000D01*
X96828186Y-93224565D01*
X96842824Y-93363834D01*
X96847458Y-93407928D01*
X96906473Y-93589556D01*
X97001960Y-93754944D01*
X97006378Y-93759851D01*
X97006379Y-93759852D01*
X97098753Y-93862444D01*
X97129747Y-93896866D01*
X97284248Y-94009118D01*
X97290276Y-94011802D01*
X97290278Y-94011803D01*
X97449811Y-94082831D01*
X97458712Y-94086794D01*
X97552113Y-94106647D01*
X97639056Y-94125128D01*
X97639061Y-94125128D01*
X97645513Y-94126500D01*
X97836487Y-94126500D01*
X97842939Y-94125128D01*
X97842944Y-94125128D01*
X97929887Y-94106647D01*
X98023288Y-94086794D01*
X98032189Y-94082831D01*
X98191722Y-94011803D01*
X98191724Y-94011802D01*
X98197752Y-94009118D01*
X98352253Y-93896866D01*
X98383247Y-93862444D01*
X98475621Y-93759852D01*
X98475622Y-93759851D01*
X98480040Y-93754944D01*
X98575527Y-93589556D01*
X98634542Y-93407928D01*
X98639177Y-93363834D01*
X98653814Y-93224565D01*
X98654504Y-93218000D01*
X98637062Y-93052045D01*
X98635232Y-93034635D01*
X98635232Y-93034633D01*
X98634542Y-93028072D01*
X98575527Y-92846444D01*
X98480040Y-92681056D01*
X98352253Y-92539134D01*
X98197752Y-92426882D01*
X98191724Y-92424198D01*
X98191722Y-92424197D01*
X98029319Y-92351891D01*
X98029318Y-92351891D01*
X98023288Y-92349206D01*
X97929888Y-92329353D01*
X97842944Y-92310872D01*
X97842939Y-92310872D01*
X97836487Y-92309500D01*
X97645513Y-92309500D01*
X97639061Y-92310872D01*
X97639056Y-92310872D01*
X97552112Y-92329353D01*
X97458712Y-92349206D01*
X97452682Y-92351891D01*
X97452681Y-92351891D01*
X97290278Y-92424197D01*
X97290276Y-92424198D01*
X97284248Y-92426882D01*
X97129747Y-92539134D01*
X97001960Y-92681056D01*
X96906473Y-92846444D01*
X96847458Y-93028072D01*
X96846768Y-93034633D01*
X96846768Y-93034635D01*
X96844938Y-93052045D01*
X96827496Y-93218000D01*
X83305751Y-93218000D01*
X83289040Y-93189056D01*
X83161253Y-93047134D01*
X83006752Y-92934882D01*
X83000724Y-92932198D01*
X83000722Y-92932197D01*
X82838319Y-92859891D01*
X82838318Y-92859891D01*
X82832288Y-92857206D01*
X82738888Y-92837353D01*
X82651944Y-92818872D01*
X82651939Y-92818872D01*
X82645487Y-92817500D01*
X82454513Y-92817500D01*
X82448061Y-92818872D01*
X82448056Y-92818872D01*
X82361112Y-92837353D01*
X82267712Y-92857206D01*
X82261682Y-92859891D01*
X82261681Y-92859891D01*
X82099278Y-92932197D01*
X82099276Y-92932198D01*
X82093248Y-92934882D01*
X81938747Y-93047134D01*
X81810960Y-93189056D01*
X81715473Y-93354444D01*
X81656458Y-93536072D01*
X81655768Y-93542633D01*
X81655768Y-93542635D01*
X81653938Y-93560045D01*
X81636496Y-93726000D01*
X81637186Y-93732565D01*
X81654863Y-93900749D01*
X81656458Y-93915928D01*
X81715473Y-94097556D01*
X81810960Y-94262944D01*
X81815378Y-94267851D01*
X81815379Y-94267852D01*
X81937688Y-94403690D01*
X81968406Y-94467697D01*
X81959641Y-94538151D01*
X81937688Y-94572310D01*
X81821225Y-94701656D01*
X81810960Y-94713056D01*
X81715473Y-94878444D01*
X81656458Y-95060072D01*
X81655768Y-95066633D01*
X81655768Y-95066635D01*
X81641045Y-95206721D01*
X81636496Y-95250000D01*
X48905308Y-95250000D01*
X48904362Y-95236123D01*
X48903201Y-95227649D01*
X48849419Y-94967944D01*
X48847120Y-94959709D01*
X48758588Y-94709705D01*
X48755191Y-94701854D01*
X48633550Y-94466178D01*
X48629122Y-94458866D01*
X48510031Y-94289417D01*
X48499509Y-94281037D01*
X48486121Y-94288089D01*
X47282022Y-95492188D01*
X47274408Y-95506132D01*
X46544356Y-95506132D01*
X46545592Y-95503868D01*
X46545461Y-95502035D01*
X46541210Y-95495420D01*
X45333814Y-94288024D01*
X45321804Y-94281466D01*
X45310064Y-94290434D01*
X45201935Y-94440911D01*
X45197418Y-94448196D01*
X45073325Y-94682567D01*
X45069839Y-94690395D01*
X44978700Y-94939446D01*
X44976311Y-94947670D01*
X44919812Y-95206795D01*
X44918563Y-95215250D01*
X44897754Y-95479653D01*
X44897665Y-95488204D01*
X38922048Y-95488204D01*
X38906257Y-95256565D01*
X38904859Y-95236055D01*
X38904858Y-95236049D01*
X38904567Y-95231778D01*
X38849032Y-94963612D01*
X38757617Y-94705465D01*
X38702806Y-94599271D01*
X38633978Y-94465919D01*
X38633978Y-94465918D01*
X38632013Y-94462112D01*
X38622040Y-94447921D01*
X38515520Y-94296359D01*
X38474545Y-94238057D01*
X38309740Y-94060705D01*
X38291046Y-94040588D01*
X38291043Y-94040585D01*
X38288125Y-94037445D01*
X38284810Y-94034731D01*
X38284806Y-94034728D01*
X38141581Y-93917500D01*
X45686584Y-93917500D01*
X45692980Y-93928770D01*
X46897188Y-95132978D01*
X46911132Y-95140592D01*
X46912965Y-95140461D01*
X46919580Y-95136210D01*
X48126604Y-93929186D01*
X48133795Y-93916017D01*
X48126473Y-93905780D01*
X48079233Y-93867115D01*
X48072261Y-93862160D01*
X48072219Y-93862134D01*
X61374500Y-93862134D01*
X61381255Y-93924316D01*
X61432385Y-94060705D01*
X61519739Y-94177261D01*
X61636295Y-94264615D01*
X61772684Y-94315745D01*
X61834866Y-94322500D01*
X63631134Y-94322500D01*
X63693316Y-94315745D01*
X63829705Y-94264615D01*
X63946261Y-94177261D01*
X64033615Y-94060705D01*
X64077798Y-93942848D01*
X64120440Y-93886084D01*
X64187001Y-93861384D01*
X64256350Y-93876592D01*
X64291017Y-93904580D01*
X64316218Y-93933673D01*
X64323580Y-93940883D01*
X64487434Y-94076916D01*
X64495881Y-94082831D01*
X64679756Y-94190279D01*
X64689042Y-94194729D01*
X64888001Y-94270703D01*
X64897899Y-94273579D01*
X65001250Y-94294606D01*
X65015299Y-94293410D01*
X65019000Y-94283065D01*
X65019000Y-94282517D01*
X65527000Y-94282517D01*
X65531064Y-94296359D01*
X65544478Y-94298393D01*
X65551184Y-94297534D01*
X65561262Y-94295392D01*
X65765255Y-94234191D01*
X65765742Y-94234000D01*
X73611996Y-94234000D01*
X73612686Y-94240565D01*
X73629955Y-94404866D01*
X73631958Y-94423928D01*
X73690973Y-94605556D01*
X73786460Y-94770944D01*
X73914247Y-94912866D01*
X74068748Y-95025118D01*
X74074776Y-95027802D01*
X74074778Y-95027803D01*
X74147256Y-95060072D01*
X74243212Y-95102794D01*
X74336613Y-95122647D01*
X74423556Y-95141128D01*
X74423561Y-95141128D01*
X74430013Y-95142500D01*
X74620987Y-95142500D01*
X74627439Y-95141128D01*
X74627444Y-95141128D01*
X74714387Y-95122647D01*
X74807788Y-95102794D01*
X74903744Y-95060072D01*
X74976222Y-95027803D01*
X74976224Y-95027802D01*
X74982252Y-95025118D01*
X75136753Y-94912866D01*
X75264540Y-94770944D01*
X75360027Y-94605556D01*
X75419042Y-94423928D01*
X75421046Y-94404866D01*
X75438314Y-94240565D01*
X75439004Y-94234000D01*
X77445496Y-94234000D01*
X77446186Y-94240565D01*
X77463455Y-94404866D01*
X77465458Y-94423928D01*
X77524473Y-94605556D01*
X77619960Y-94770944D01*
X77747747Y-94912866D01*
X77902248Y-95025118D01*
X77908276Y-95027802D01*
X77908278Y-95027803D01*
X77980756Y-95060072D01*
X78076712Y-95102794D01*
X78170113Y-95122647D01*
X78257056Y-95141128D01*
X78257061Y-95141128D01*
X78263513Y-95142500D01*
X78454487Y-95142500D01*
X78460939Y-95141128D01*
X78460944Y-95141128D01*
X78547887Y-95122647D01*
X78641288Y-95102794D01*
X78737244Y-95060072D01*
X78809722Y-95027803D01*
X78809724Y-95027802D01*
X78815752Y-95025118D01*
X78970253Y-94912866D01*
X79098040Y-94770944D01*
X79193527Y-94605556D01*
X79252542Y-94423928D01*
X79254546Y-94404866D01*
X79271814Y-94240565D01*
X79272504Y-94234000D01*
X79261727Y-94131464D01*
X79253232Y-94050635D01*
X79253232Y-94050633D01*
X79252542Y-94044072D01*
X79193527Y-93862444D01*
X79188970Y-93854550D01*
X79113355Y-93723582D01*
X79098040Y-93697056D01*
X79019340Y-93609650D01*
X78974675Y-93560045D01*
X78974674Y-93560044D01*
X78970253Y-93555134D01*
X78815752Y-93442882D01*
X78809724Y-93440198D01*
X78809722Y-93440197D01*
X78647319Y-93367891D01*
X78647318Y-93367891D01*
X78641288Y-93365206D01*
X78547888Y-93345353D01*
X78460944Y-93326872D01*
X78460939Y-93326872D01*
X78454487Y-93325500D01*
X78263513Y-93325500D01*
X78257061Y-93326872D01*
X78257056Y-93326872D01*
X78170112Y-93345353D01*
X78076712Y-93365206D01*
X78070682Y-93367891D01*
X78070681Y-93367891D01*
X77908278Y-93440197D01*
X77908276Y-93440198D01*
X77902248Y-93442882D01*
X77747747Y-93555134D01*
X77743326Y-93560044D01*
X77743325Y-93560045D01*
X77698661Y-93609650D01*
X77619960Y-93697056D01*
X77604645Y-93723582D01*
X77529031Y-93854550D01*
X77524473Y-93862444D01*
X77465458Y-94044072D01*
X77464768Y-94050633D01*
X77464768Y-94050635D01*
X77456273Y-94131464D01*
X77445496Y-94234000D01*
X75439004Y-94234000D01*
X75428227Y-94131464D01*
X75419732Y-94050635D01*
X75419732Y-94050633D01*
X75419042Y-94044072D01*
X75360027Y-93862444D01*
X75355470Y-93854550D01*
X75279855Y-93723582D01*
X75264540Y-93697056D01*
X75185840Y-93609650D01*
X75141175Y-93560045D01*
X75141174Y-93560044D01*
X75136753Y-93555134D01*
X74982252Y-93442882D01*
X74976224Y-93440198D01*
X74976222Y-93440197D01*
X74813819Y-93367891D01*
X74813818Y-93367891D01*
X74807788Y-93365206D01*
X74714388Y-93345353D01*
X74627444Y-93326872D01*
X74627439Y-93326872D01*
X74620987Y-93325500D01*
X74430013Y-93325500D01*
X74423561Y-93326872D01*
X74423556Y-93326872D01*
X74336612Y-93345353D01*
X74243212Y-93365206D01*
X74237182Y-93367891D01*
X74237181Y-93367891D01*
X74074778Y-93440197D01*
X74074776Y-93440198D01*
X74068748Y-93442882D01*
X73914247Y-93555134D01*
X73909826Y-93560044D01*
X73909825Y-93560045D01*
X73865161Y-93609650D01*
X73786460Y-93697056D01*
X73771145Y-93723582D01*
X73695531Y-93854550D01*
X73690973Y-93862444D01*
X73631958Y-94044072D01*
X73631268Y-94050633D01*
X73631268Y-94050635D01*
X73622773Y-94131464D01*
X73611996Y-94234000D01*
X65765742Y-94234000D01*
X65774842Y-94230433D01*
X65966095Y-94136739D01*
X65974945Y-94131464D01*
X66148328Y-94007792D01*
X66156200Y-94001139D01*
X66307052Y-93850812D01*
X66313730Y-93842965D01*
X66438003Y-93670020D01*
X66443313Y-93661183D01*
X66537670Y-93470267D01*
X66541469Y-93460672D01*
X66603377Y-93256910D01*
X66605555Y-93246837D01*
X66606986Y-93235962D01*
X66604775Y-93221778D01*
X66591617Y-93218000D01*
X65545115Y-93218000D01*
X65529876Y-93222475D01*
X65528671Y-93223865D01*
X65527000Y-93231548D01*
X65527000Y-94282517D01*
X65019000Y-94282517D01*
X65019000Y-92691885D01*
X65527000Y-92691885D01*
X65531475Y-92707124D01*
X65532865Y-92708329D01*
X65540548Y-92710000D01*
X66591344Y-92710000D01*
X66604875Y-92706027D01*
X66606180Y-92696947D01*
X66564214Y-92529875D01*
X66560894Y-92520124D01*
X66475972Y-92324814D01*
X66471105Y-92315739D01*
X66355426Y-92136926D01*
X66349136Y-92128757D01*
X66205806Y-91971240D01*
X66198273Y-91964215D01*
X66031139Y-91832222D01*
X66022552Y-91826517D01*
X65836117Y-91723599D01*
X65826705Y-91719369D01*
X65625959Y-91648280D01*
X65615988Y-91645646D01*
X65544837Y-91632972D01*
X65531540Y-91634432D01*
X65527000Y-91648989D01*
X65527000Y-92691885D01*
X65019000Y-92691885D01*
X65019000Y-91647102D01*
X65015082Y-91633758D01*
X65000806Y-91631771D01*
X64962324Y-91637660D01*
X64952288Y-91640051D01*
X64749868Y-91706212D01*
X64740359Y-91710209D01*
X64551463Y-91808542D01*
X64542738Y-91814036D01*
X64372433Y-91941905D01*
X64364726Y-91948748D01*
X64287478Y-92029584D01*
X64225954Y-92065014D01*
X64155042Y-92061557D01*
X64097255Y-92020311D01*
X64078402Y-91986763D01*
X64036767Y-91875703D01*
X64033615Y-91867295D01*
X63946261Y-91750739D01*
X63829705Y-91663385D01*
X63693316Y-91612255D01*
X63631134Y-91605500D01*
X61834866Y-91605500D01*
X61772684Y-91612255D01*
X61636295Y-91663385D01*
X61519739Y-91750739D01*
X61432385Y-91867295D01*
X61381255Y-92003684D01*
X61374500Y-92065866D01*
X61374500Y-93862134D01*
X48072219Y-93862134D01*
X47846122Y-93723582D01*
X47838552Y-93719624D01*
X47595704Y-93613022D01*
X47587644Y-93610120D01*
X47332592Y-93537467D01*
X47324214Y-93535685D01*
X47061656Y-93498318D01*
X47053111Y-93497691D01*
X46787908Y-93496302D01*
X46779374Y-93496839D01*
X46516433Y-93531456D01*
X46508035Y-93533149D01*
X46252238Y-93603127D01*
X46244143Y-93605946D01*
X46000199Y-93709997D01*
X45992577Y-93713881D01*
X45765013Y-93850075D01*
X45757981Y-93854962D01*
X45695053Y-93905377D01*
X45686584Y-93917500D01*
X38141581Y-93917500D01*
X38125796Y-93904580D01*
X38076205Y-93863990D01*
X37842704Y-93720901D01*
X37838768Y-93719173D01*
X37595873Y-93612549D01*
X37595869Y-93612548D01*
X37591945Y-93610825D01*
X37328566Y-93535800D01*
X37324324Y-93535196D01*
X37324318Y-93535195D01*
X37123834Y-93506662D01*
X37057443Y-93497213D01*
X36913589Y-93496460D01*
X36787877Y-93495802D01*
X36787871Y-93495802D01*
X36783591Y-93495780D01*
X36779347Y-93496339D01*
X36779343Y-93496339D01*
X36660302Y-93512011D01*
X36512078Y-93531525D01*
X36507938Y-93532658D01*
X36507936Y-93532658D01*
X36439972Y-93551251D01*
X36247928Y-93603788D01*
X36243980Y-93605472D01*
X35999982Y-93709546D01*
X35999978Y-93709548D01*
X35996030Y-93711232D01*
X35877414Y-93782222D01*
X35764725Y-93849664D01*
X35764721Y-93849667D01*
X35761043Y-93851868D01*
X35547318Y-94023094D01*
X35476656Y-94097556D01*
X35395913Y-94182642D01*
X35358808Y-94221742D01*
X35199002Y-94444136D01*
X35070857Y-94686161D01*
X35069385Y-94690184D01*
X35069383Y-94690188D01*
X35038034Y-94775852D01*
X34976743Y-94943337D01*
X34918404Y-95210907D01*
X34896917Y-95483918D01*
X24638500Y-95483918D01*
X24638500Y-87355262D01*
X33314493Y-87355262D01*
X33323789Y-87367277D01*
X33374994Y-87403131D01*
X33384489Y-87408614D01*
X33581947Y-87500690D01*
X33592239Y-87504436D01*
X33802688Y-87560825D01*
X33813481Y-87562728D01*
X34030525Y-87581717D01*
X34041475Y-87581717D01*
X34258519Y-87562728D01*
X34269312Y-87560825D01*
X34479761Y-87504436D01*
X34490053Y-87500690D01*
X34687511Y-87408614D01*
X34697006Y-87403131D01*
X34749048Y-87366691D01*
X34757424Y-87356212D01*
X34750356Y-87342766D01*
X34559652Y-87152062D01*
X47792493Y-87152062D01*
X47801789Y-87164077D01*
X47852994Y-87199931D01*
X47862489Y-87205414D01*
X48059947Y-87297490D01*
X48070239Y-87301236D01*
X48280688Y-87357625D01*
X48291481Y-87359528D01*
X48508525Y-87378517D01*
X48519475Y-87378517D01*
X48736519Y-87359528D01*
X48747312Y-87357625D01*
X48957761Y-87301236D01*
X48968053Y-87297490D01*
X49165511Y-87205414D01*
X49175006Y-87199931D01*
X49227048Y-87163491D01*
X49235424Y-87153012D01*
X49228356Y-87139566D01*
X48526812Y-86438022D01*
X48512868Y-86430408D01*
X48511035Y-86430539D01*
X48504420Y-86434790D01*
X47798923Y-87140287D01*
X47792493Y-87152062D01*
X34559652Y-87152062D01*
X34048812Y-86641222D01*
X34034868Y-86633608D01*
X34033035Y-86633739D01*
X34026420Y-86637990D01*
X33320923Y-87343487D01*
X33314493Y-87355262D01*
X24638500Y-87355262D01*
X24638500Y-86274675D01*
X32723483Y-86274675D01*
X32742472Y-86491719D01*
X32744375Y-86502512D01*
X32800764Y-86712961D01*
X32804510Y-86723253D01*
X32896586Y-86920711D01*
X32902069Y-86930206D01*
X32938509Y-86982248D01*
X32948988Y-86990624D01*
X32962434Y-86983556D01*
X33663978Y-86282012D01*
X33670356Y-86270332D01*
X34400408Y-86270332D01*
X34400539Y-86272165D01*
X34404790Y-86278780D01*
X35110287Y-86984277D01*
X35122062Y-86990707D01*
X35134077Y-86981411D01*
X35169931Y-86930206D01*
X35175414Y-86920711D01*
X35267490Y-86723253D01*
X35271236Y-86712961D01*
X35327625Y-86502512D01*
X35329528Y-86491719D01*
X35348517Y-86274675D01*
X35348517Y-86263725D01*
X35331697Y-86071475D01*
X47201483Y-86071475D01*
X47220472Y-86288519D01*
X47222375Y-86299312D01*
X47278764Y-86509761D01*
X47282510Y-86520053D01*
X47374586Y-86717511D01*
X47380069Y-86727006D01*
X47416509Y-86779048D01*
X47426988Y-86787424D01*
X47440434Y-86780356D01*
X48141978Y-86078812D01*
X48148356Y-86067132D01*
X48878408Y-86067132D01*
X48878539Y-86068965D01*
X48882790Y-86075580D01*
X49588287Y-86781077D01*
X49600062Y-86787507D01*
X49612077Y-86778211D01*
X49647931Y-86727006D01*
X49653414Y-86717511D01*
X49745490Y-86520053D01*
X49749236Y-86509761D01*
X49805625Y-86299312D01*
X49807528Y-86288519D01*
X49826517Y-86071475D01*
X49826517Y-86060525D01*
X49807528Y-85843481D01*
X49805625Y-85832688D01*
X49749236Y-85622239D01*
X49745490Y-85611947D01*
X49653414Y-85414489D01*
X49647931Y-85404994D01*
X49611491Y-85352952D01*
X49601012Y-85344576D01*
X49587566Y-85351644D01*
X48886022Y-86053188D01*
X48878408Y-86067132D01*
X48148356Y-86067132D01*
X48149592Y-86064868D01*
X48149461Y-86063035D01*
X48145210Y-86056420D01*
X47439713Y-85350923D01*
X47427938Y-85344493D01*
X47415923Y-85353789D01*
X47380069Y-85404994D01*
X47374586Y-85414489D01*
X47282510Y-85611947D01*
X47278764Y-85622239D01*
X47222375Y-85832688D01*
X47220472Y-85843481D01*
X47201483Y-86060525D01*
X47201483Y-86071475D01*
X35331697Y-86071475D01*
X35329528Y-86046681D01*
X35327625Y-86035888D01*
X35271236Y-85825439D01*
X35267490Y-85815147D01*
X35175414Y-85617689D01*
X35169931Y-85608194D01*
X35133491Y-85556152D01*
X35123012Y-85547776D01*
X35109566Y-85554844D01*
X34408022Y-86256388D01*
X34400408Y-86270332D01*
X33670356Y-86270332D01*
X33671592Y-86268068D01*
X33671461Y-86266235D01*
X33667210Y-86259620D01*
X32961713Y-85554123D01*
X32949938Y-85547693D01*
X32937923Y-85556989D01*
X32902069Y-85608194D01*
X32896586Y-85617689D01*
X32804510Y-85815147D01*
X32800764Y-85825439D01*
X32744375Y-86035888D01*
X32742472Y-86046681D01*
X32723483Y-86263725D01*
X32723483Y-86274675D01*
X24638500Y-86274675D01*
X24638500Y-85182188D01*
X33314576Y-85182188D01*
X33321644Y-85195634D01*
X34023188Y-85897178D01*
X34037132Y-85904792D01*
X34038965Y-85904661D01*
X34045580Y-85900410D01*
X34751077Y-85194913D01*
X34757507Y-85183138D01*
X34748211Y-85171123D01*
X34697006Y-85135269D01*
X34687511Y-85129786D01*
X34490053Y-85037710D01*
X34479761Y-85033964D01*
X34274585Y-84978988D01*
X47792576Y-84978988D01*
X47799644Y-84992434D01*
X48501188Y-85693978D01*
X48515132Y-85701592D01*
X48516965Y-85701461D01*
X48523580Y-85697210D01*
X49229077Y-84991713D01*
X49235507Y-84979938D01*
X49226211Y-84967923D01*
X49175006Y-84932069D01*
X49165511Y-84926586D01*
X48968053Y-84834510D01*
X48957761Y-84830764D01*
X48747312Y-84774375D01*
X48736519Y-84772472D01*
X48519475Y-84753483D01*
X48508525Y-84753483D01*
X48291481Y-84772472D01*
X48280688Y-84774375D01*
X48070239Y-84830764D01*
X48059947Y-84834510D01*
X47862489Y-84926586D01*
X47852994Y-84932069D01*
X47800952Y-84968509D01*
X47792576Y-84978988D01*
X34274585Y-84978988D01*
X34269312Y-84977575D01*
X34258519Y-84975672D01*
X34041475Y-84956683D01*
X34030525Y-84956683D01*
X33813481Y-84975672D01*
X33802688Y-84977575D01*
X33592239Y-85033964D01*
X33581947Y-85037710D01*
X33384489Y-85129786D01*
X33374994Y-85135269D01*
X33322952Y-85171709D01*
X33314576Y-85182188D01*
X24638500Y-85182188D01*
X24638500Y-81269200D01*
X32722502Y-81269200D01*
X32742457Y-81497287D01*
X32743881Y-81502600D01*
X32743881Y-81502602D01*
X32745846Y-81509933D01*
X32801716Y-81718443D01*
X32804039Y-81723424D01*
X32804039Y-81723425D01*
X32896151Y-81920962D01*
X32896154Y-81920967D01*
X32898477Y-81925949D01*
X33029802Y-82113500D01*
X33191700Y-82275398D01*
X33196208Y-82278555D01*
X33196211Y-82278557D01*
X33229273Y-82301707D01*
X33379251Y-82406723D01*
X33384233Y-82409046D01*
X33384238Y-82409049D01*
X33581775Y-82501161D01*
X33586757Y-82503484D01*
X33592065Y-82504906D01*
X33592067Y-82504907D01*
X33802598Y-82561319D01*
X33802600Y-82561319D01*
X33807913Y-82562743D01*
X34036000Y-82582698D01*
X34264087Y-82562743D01*
X34269400Y-82561319D01*
X34269402Y-82561319D01*
X34479933Y-82504907D01*
X34479935Y-82504906D01*
X34485243Y-82503484D01*
X34490225Y-82501161D01*
X34687762Y-82409049D01*
X34687767Y-82409046D01*
X34692749Y-82406723D01*
X34842727Y-82301707D01*
X34875789Y-82278557D01*
X34875792Y-82278555D01*
X34880300Y-82275398D01*
X35042198Y-82113500D01*
X35173523Y-81925949D01*
X35175846Y-81920967D01*
X35175849Y-81920962D01*
X35267961Y-81723425D01*
X35267961Y-81723424D01*
X35270284Y-81718443D01*
X35326155Y-81509933D01*
X35328119Y-81502602D01*
X35328119Y-81502600D01*
X35329543Y-81497287D01*
X35349498Y-81269200D01*
X35331720Y-81066000D01*
X47200502Y-81066000D01*
X47220457Y-81294087D01*
X47221881Y-81299400D01*
X47221881Y-81299402D01*
X47274905Y-81497287D01*
X47279716Y-81515243D01*
X47282039Y-81520224D01*
X47282039Y-81520225D01*
X47374151Y-81717762D01*
X47374154Y-81717767D01*
X47376477Y-81722749D01*
X47507802Y-81910300D01*
X47669700Y-82072198D01*
X47674208Y-82075355D01*
X47674211Y-82075357D01*
X47722243Y-82108989D01*
X47857251Y-82203523D01*
X47862233Y-82205846D01*
X47862238Y-82205849D01*
X48003031Y-82271501D01*
X48064757Y-82300284D01*
X48070065Y-82301706D01*
X48070067Y-82301707D01*
X48280598Y-82358119D01*
X48280600Y-82358119D01*
X48285913Y-82359543D01*
X48514000Y-82379498D01*
X48742087Y-82359543D01*
X48747400Y-82358119D01*
X48747402Y-82358119D01*
X48957933Y-82301707D01*
X48957935Y-82301706D01*
X48963243Y-82300284D01*
X49024969Y-82271501D01*
X49165762Y-82205849D01*
X49165767Y-82205846D01*
X49170749Y-82203523D01*
X49305757Y-82108989D01*
X49353789Y-82075357D01*
X49353792Y-82075355D01*
X49358300Y-82072198D01*
X49520198Y-81910300D01*
X49651523Y-81722749D01*
X49653846Y-81717767D01*
X49653849Y-81717762D01*
X49745961Y-81520225D01*
X49745961Y-81520224D01*
X49748284Y-81515243D01*
X49753096Y-81497287D01*
X49806119Y-81299402D01*
X49806119Y-81299400D01*
X49807543Y-81294087D01*
X49827498Y-81066000D01*
X49807543Y-80837913D01*
X49806119Y-80832598D01*
X49749707Y-80622067D01*
X49749706Y-80622065D01*
X49748284Y-80616757D01*
X49660924Y-80429411D01*
X49653849Y-80414238D01*
X49653846Y-80414233D01*
X49651523Y-80409251D01*
X49520198Y-80221700D01*
X49358300Y-80059802D01*
X49353792Y-80056645D01*
X49353789Y-80056643D01*
X49275611Y-80001902D01*
X49170749Y-79928477D01*
X49165767Y-79926154D01*
X49165762Y-79926151D01*
X48968225Y-79834039D01*
X48968224Y-79834039D01*
X48963243Y-79831716D01*
X48957935Y-79830294D01*
X48957933Y-79830293D01*
X48747402Y-79773881D01*
X48747400Y-79773881D01*
X48742087Y-79772457D01*
X48514000Y-79752502D01*
X48285913Y-79772457D01*
X48280600Y-79773881D01*
X48280598Y-79773881D01*
X48070067Y-79830293D01*
X48070065Y-79830294D01*
X48064757Y-79831716D01*
X48059776Y-79834039D01*
X48059775Y-79834039D01*
X47862238Y-79926151D01*
X47862233Y-79926154D01*
X47857251Y-79928477D01*
X47752389Y-80001902D01*
X47674211Y-80056643D01*
X47674208Y-80056645D01*
X47669700Y-80059802D01*
X47507802Y-80221700D01*
X47376477Y-80409251D01*
X47374154Y-80414233D01*
X47374151Y-80414238D01*
X47367076Y-80429411D01*
X47279716Y-80616757D01*
X47278294Y-80622065D01*
X47278293Y-80622067D01*
X47221881Y-80832598D01*
X47220457Y-80837913D01*
X47200502Y-81066000D01*
X35331720Y-81066000D01*
X35329543Y-81041113D01*
X35276564Y-80843393D01*
X35271707Y-80825267D01*
X35271706Y-80825265D01*
X35270284Y-80819957D01*
X35267961Y-80814975D01*
X35175849Y-80617438D01*
X35175846Y-80617433D01*
X35173523Y-80612451D01*
X35042198Y-80424900D01*
X34880300Y-80263002D01*
X34875792Y-80259845D01*
X34875789Y-80259843D01*
X34797611Y-80205102D01*
X34692749Y-80131677D01*
X34687767Y-80129354D01*
X34687762Y-80129351D01*
X34490225Y-80037239D01*
X34490224Y-80037239D01*
X34485243Y-80034916D01*
X34479935Y-80033494D01*
X34479933Y-80033493D01*
X34269402Y-79977081D01*
X34269400Y-79977081D01*
X34264087Y-79975657D01*
X34036000Y-79955702D01*
X33807913Y-79975657D01*
X33802600Y-79977081D01*
X33802598Y-79977081D01*
X33592067Y-80033493D01*
X33592065Y-80033494D01*
X33586757Y-80034916D01*
X33581776Y-80037239D01*
X33581775Y-80037239D01*
X33384238Y-80129351D01*
X33384233Y-80129354D01*
X33379251Y-80131677D01*
X33274389Y-80205102D01*
X33196211Y-80259843D01*
X33196208Y-80259845D01*
X33191700Y-80263002D01*
X33029802Y-80424900D01*
X32898477Y-80612451D01*
X32896154Y-80617433D01*
X32896151Y-80617438D01*
X32804039Y-80814975D01*
X32801716Y-80819957D01*
X32800294Y-80825265D01*
X32800293Y-80825267D01*
X32795436Y-80843393D01*
X32742457Y-81041113D01*
X32722502Y-81269200D01*
X24638500Y-81269200D01*
X24638500Y-78613000D01*
X59792496Y-78613000D01*
X59793186Y-78619565D01*
X59810863Y-78787749D01*
X59812458Y-78802928D01*
X59871473Y-78984556D01*
X59966960Y-79149944D01*
X60094747Y-79291866D01*
X60249248Y-79404118D01*
X60255276Y-79406802D01*
X60255278Y-79406803D01*
X60417681Y-79479109D01*
X60423712Y-79481794D01*
X60517113Y-79501647D01*
X60604056Y-79520128D01*
X60604061Y-79520128D01*
X60610513Y-79521500D01*
X60801487Y-79521500D01*
X60807939Y-79520128D01*
X60807944Y-79520128D01*
X60894887Y-79501647D01*
X60988288Y-79481794D01*
X60994319Y-79479109D01*
X61156722Y-79406803D01*
X61156724Y-79406802D01*
X61162752Y-79404118D01*
X61317253Y-79291866D01*
X61445040Y-79149944D01*
X61540527Y-78984556D01*
X61599542Y-78802928D01*
X61601138Y-78787749D01*
X61618814Y-78619565D01*
X61619504Y-78613000D01*
X61599542Y-78423072D01*
X61540527Y-78241444D01*
X61461751Y-78105000D01*
X63577496Y-78105000D01*
X63578186Y-78111565D01*
X63586930Y-78194755D01*
X63597458Y-78294928D01*
X63656473Y-78476556D01*
X63751960Y-78641944D01*
X63879747Y-78783866D01*
X64034248Y-78896118D01*
X64040276Y-78898802D01*
X64040278Y-78898803D01*
X64202681Y-78971109D01*
X64208712Y-78973794D01*
X64302113Y-78993647D01*
X64389056Y-79012128D01*
X64389061Y-79012128D01*
X64395513Y-79013500D01*
X64586487Y-79013500D01*
X64592939Y-79012128D01*
X64592944Y-79012128D01*
X64679887Y-78993647D01*
X64773288Y-78973794D01*
X64779319Y-78971109D01*
X64941722Y-78898803D01*
X64941724Y-78898802D01*
X64947752Y-78896118D01*
X65102253Y-78783866D01*
X65230040Y-78641944D01*
X65325527Y-78476556D01*
X65384542Y-78294928D01*
X65395071Y-78194755D01*
X65403814Y-78111565D01*
X65404504Y-78105000D01*
X65387062Y-77939045D01*
X65385232Y-77921635D01*
X65385232Y-77921633D01*
X65384542Y-77915072D01*
X65325527Y-77733444D01*
X65316037Y-77717006D01*
X65233341Y-77573774D01*
X65230040Y-77568056D01*
X65187491Y-77520800D01*
X94895296Y-77520800D01*
X94915258Y-77710728D01*
X94974273Y-77892356D01*
X94977576Y-77898078D01*
X94977577Y-77898079D01*
X94987388Y-77915072D01*
X95069760Y-78057744D01*
X95074178Y-78062651D01*
X95074179Y-78062652D01*
X95193125Y-78194755D01*
X95197547Y-78199666D01*
X95352048Y-78311918D01*
X95358076Y-78314602D01*
X95358078Y-78314603D01*
X95520481Y-78386909D01*
X95526512Y-78389594D01*
X95619912Y-78409447D01*
X95706856Y-78427928D01*
X95706861Y-78427928D01*
X95713313Y-78429300D01*
X95904287Y-78429300D01*
X95910739Y-78427928D01*
X95910744Y-78427928D01*
X95997688Y-78409447D01*
X96091088Y-78389594D01*
X96097119Y-78386909D01*
X96259522Y-78314603D01*
X96259524Y-78314602D01*
X96265552Y-78311918D01*
X96420053Y-78199666D01*
X96424475Y-78194755D01*
X96543421Y-78062652D01*
X96543422Y-78062651D01*
X96547840Y-78057744D01*
X96630212Y-77915072D01*
X96640023Y-77898079D01*
X96640024Y-77898078D01*
X96643327Y-77892356D01*
X96702342Y-77710728D01*
X96722304Y-77520800D01*
X96717511Y-77475194D01*
X96703032Y-77337435D01*
X96703032Y-77337433D01*
X96702342Y-77330872D01*
X96643327Y-77149244D01*
X96547840Y-76983856D01*
X96511106Y-76943058D01*
X96480390Y-76879053D01*
X96489154Y-76808599D01*
X96530681Y-76756815D01*
X96572453Y-76726466D01*
X96700240Y-76584544D01*
X96795727Y-76419156D01*
X96854742Y-76237528D01*
X96874704Y-76047600D01*
X96854742Y-75857672D01*
X96795727Y-75676044D01*
X96700240Y-75510656D01*
X96572453Y-75368734D01*
X96417952Y-75256482D01*
X96411924Y-75253798D01*
X96411922Y-75253797D01*
X96249519Y-75181491D01*
X96249518Y-75181491D01*
X96243488Y-75178806D01*
X96150088Y-75158953D01*
X96063144Y-75140472D01*
X96063139Y-75140472D01*
X96056687Y-75139100D01*
X95865713Y-75139100D01*
X95859261Y-75140472D01*
X95859256Y-75140472D01*
X95772312Y-75158953D01*
X95678912Y-75178806D01*
X95672882Y-75181491D01*
X95672881Y-75181491D01*
X95510478Y-75253797D01*
X95510476Y-75253798D01*
X95504448Y-75256482D01*
X95349947Y-75368734D01*
X95222160Y-75510656D01*
X95126673Y-75676044D01*
X95067658Y-75857672D01*
X95047696Y-76047600D01*
X95067658Y-76237528D01*
X95126673Y-76419156D01*
X95222160Y-76584544D01*
X95258894Y-76625342D01*
X95289610Y-76689347D01*
X95280846Y-76759801D01*
X95239319Y-76811585D01*
X95197547Y-76841934D01*
X95069760Y-76983856D01*
X94974273Y-77149244D01*
X94915258Y-77330872D01*
X94914568Y-77337433D01*
X94914568Y-77337435D01*
X94900089Y-77475194D01*
X94895296Y-77520800D01*
X65187491Y-77520800D01*
X65181580Y-77514235D01*
X65106675Y-77431045D01*
X65106674Y-77431044D01*
X65102253Y-77426134D01*
X64947752Y-77313882D01*
X64941724Y-77311198D01*
X64941722Y-77311197D01*
X64779319Y-77238891D01*
X64779318Y-77238891D01*
X64773288Y-77236206D01*
X64679887Y-77216353D01*
X64592944Y-77197872D01*
X64592939Y-77197872D01*
X64586487Y-77196500D01*
X64395513Y-77196500D01*
X64389061Y-77197872D01*
X64389056Y-77197872D01*
X64302113Y-77216353D01*
X64208712Y-77236206D01*
X64202682Y-77238891D01*
X64202681Y-77238891D01*
X64040278Y-77311197D01*
X64040276Y-77311198D01*
X64034248Y-77313882D01*
X63879747Y-77426134D01*
X63875326Y-77431044D01*
X63875325Y-77431045D01*
X63800421Y-77514235D01*
X63751960Y-77568056D01*
X63748659Y-77573774D01*
X63665964Y-77717006D01*
X63656473Y-77733444D01*
X63597458Y-77915072D01*
X63596768Y-77921633D01*
X63596768Y-77921635D01*
X63594938Y-77939045D01*
X63577496Y-78105000D01*
X61461751Y-78105000D01*
X61445040Y-78076056D01*
X61317253Y-77934134D01*
X61162752Y-77821882D01*
X61156724Y-77819198D01*
X61156722Y-77819197D01*
X60994319Y-77746891D01*
X60994318Y-77746891D01*
X60988288Y-77744206D01*
X60894887Y-77724353D01*
X60807944Y-77705872D01*
X60807939Y-77705872D01*
X60801487Y-77704500D01*
X60610513Y-77704500D01*
X60604061Y-77705872D01*
X60604056Y-77705872D01*
X60517113Y-77724353D01*
X60423712Y-77744206D01*
X60417682Y-77746891D01*
X60417681Y-77746891D01*
X60255278Y-77819197D01*
X60255276Y-77819198D01*
X60249248Y-77821882D01*
X60094747Y-77934134D01*
X59966960Y-78076056D01*
X59871473Y-78241444D01*
X59812458Y-78423072D01*
X59792496Y-78613000D01*
X24638500Y-78613000D01*
X24638500Y-76606400D01*
X79960096Y-76606400D01*
X79980058Y-76796328D01*
X80039073Y-76977956D01*
X80134560Y-77143344D01*
X80262347Y-77285266D01*
X80416848Y-77397518D01*
X80422876Y-77400202D01*
X80422878Y-77400203D01*
X80492151Y-77431045D01*
X80591312Y-77475194D01*
X80684713Y-77495047D01*
X80771656Y-77513528D01*
X80771661Y-77513528D01*
X80778113Y-77514900D01*
X80969087Y-77514900D01*
X80975539Y-77513528D01*
X80975544Y-77513528D01*
X81062487Y-77495047D01*
X81155888Y-77475194D01*
X81255049Y-77431045D01*
X81324322Y-77400203D01*
X81324324Y-77400202D01*
X81330352Y-77397518D01*
X81484853Y-77285266D01*
X81612640Y-77143344D01*
X81708127Y-76977956D01*
X81767142Y-76796328D01*
X81787104Y-76606400D01*
X81767142Y-76416472D01*
X81708127Y-76234844D01*
X81612640Y-76069456D01*
X81484853Y-75927534D01*
X81330352Y-75815282D01*
X81324324Y-75812598D01*
X81324322Y-75812597D01*
X81161919Y-75740291D01*
X81161918Y-75740291D01*
X81155888Y-75737606D01*
X81062487Y-75717753D01*
X80975544Y-75699272D01*
X80975539Y-75699272D01*
X80969087Y-75697900D01*
X80778113Y-75697900D01*
X80771661Y-75699272D01*
X80771656Y-75699272D01*
X80684713Y-75717753D01*
X80591312Y-75737606D01*
X80585282Y-75740291D01*
X80585281Y-75740291D01*
X80422878Y-75812597D01*
X80422876Y-75812598D01*
X80416848Y-75815282D01*
X80262347Y-75927534D01*
X80134560Y-76069456D01*
X80039073Y-76234844D01*
X79980058Y-76416472D01*
X79960096Y-76606400D01*
X24638500Y-76606400D01*
X24638500Y-74558134D01*
X48933500Y-74558134D01*
X48940255Y-74620316D01*
X48991385Y-74756705D01*
X49078739Y-74873261D01*
X49195295Y-74960615D01*
X49331684Y-75011745D01*
X49393866Y-75018500D01*
X51190134Y-75018500D01*
X51252316Y-75011745D01*
X51388705Y-74960615D01*
X51505261Y-74873261D01*
X51592615Y-74756705D01*
X51636798Y-74638848D01*
X51679440Y-74582084D01*
X51746001Y-74557384D01*
X51815350Y-74572592D01*
X51850017Y-74600580D01*
X51875218Y-74629673D01*
X51882580Y-74636883D01*
X52046434Y-74772916D01*
X52054881Y-74778831D01*
X52238756Y-74886279D01*
X52248042Y-74890729D01*
X52447001Y-74966703D01*
X52456899Y-74969579D01*
X52560250Y-74990606D01*
X52574299Y-74989410D01*
X52578000Y-74979065D01*
X52578000Y-74978517D01*
X53086000Y-74978517D01*
X53090064Y-74992359D01*
X53103478Y-74994393D01*
X53110184Y-74993534D01*
X53120262Y-74991392D01*
X53324255Y-74930191D01*
X53333842Y-74926433D01*
X53525095Y-74832739D01*
X53533945Y-74827464D01*
X53707328Y-74703792D01*
X53715200Y-74697139D01*
X53866052Y-74546812D01*
X53872730Y-74538965D01*
X53997003Y-74366020D01*
X54002313Y-74357183D01*
X54096670Y-74166267D01*
X54100469Y-74156672D01*
X54162377Y-73952910D01*
X54164555Y-73942837D01*
X54165986Y-73931962D01*
X54163775Y-73917778D01*
X54150617Y-73914000D01*
X53104115Y-73914000D01*
X53088876Y-73918475D01*
X53087671Y-73919865D01*
X53086000Y-73927548D01*
X53086000Y-74978517D01*
X52578000Y-74978517D01*
X52578000Y-73387885D01*
X53086000Y-73387885D01*
X53090475Y-73403124D01*
X53091865Y-73404329D01*
X53099548Y-73406000D01*
X54150344Y-73406000D01*
X56744496Y-73406000D01*
X56745186Y-73412565D01*
X56762364Y-73576000D01*
X56764458Y-73595928D01*
X56823473Y-73777556D01*
X56918960Y-73942944D01*
X57046747Y-74084866D01*
X57201248Y-74197118D01*
X57207276Y-74199802D01*
X57207278Y-74199803D01*
X57369681Y-74272109D01*
X57375712Y-74274794D01*
X57469113Y-74294647D01*
X57556056Y-74313128D01*
X57556061Y-74313128D01*
X57562513Y-74314500D01*
X57753487Y-74314500D01*
X57759939Y-74313128D01*
X57759944Y-74313128D01*
X57846887Y-74294647D01*
X57940288Y-74274794D01*
X57946319Y-74272109D01*
X58108722Y-74199803D01*
X58108724Y-74199802D01*
X58114752Y-74197118D01*
X58269253Y-74084866D01*
X58397040Y-73942944D01*
X58492527Y-73777556D01*
X58551542Y-73595928D01*
X58553637Y-73576000D01*
X58570814Y-73412565D01*
X58571504Y-73406000D01*
X58564720Y-73341455D01*
X58552232Y-73222635D01*
X58552232Y-73222633D01*
X58551542Y-73216072D01*
X58492527Y-73034444D01*
X58397040Y-72869056D01*
X58364509Y-72832926D01*
X58273675Y-72732045D01*
X58273674Y-72732044D01*
X58269253Y-72727134D01*
X58187174Y-72667500D01*
X72111496Y-72667500D01*
X72112186Y-72674065D01*
X72121325Y-72761014D01*
X72131458Y-72857428D01*
X72190473Y-73039056D01*
X72285960Y-73204444D01*
X72290378Y-73209351D01*
X72290379Y-73209352D01*
X72409325Y-73341455D01*
X72413747Y-73346366D01*
X72568248Y-73458618D01*
X72574276Y-73461302D01*
X72574278Y-73461303D01*
X72736681Y-73533609D01*
X72742712Y-73536294D01*
X72836112Y-73556147D01*
X72923056Y-73574628D01*
X72923061Y-73574628D01*
X72929513Y-73576000D01*
X73120487Y-73576000D01*
X73126939Y-73574628D01*
X73126944Y-73574628D01*
X73213888Y-73556147D01*
X73307288Y-73536294D01*
X73313319Y-73533609D01*
X73475722Y-73461303D01*
X73475724Y-73461302D01*
X73481752Y-73458618D01*
X73636253Y-73346366D01*
X73640675Y-73341455D01*
X73759621Y-73209352D01*
X73759622Y-73209351D01*
X73764040Y-73204444D01*
X73777638Y-73180891D01*
X90500996Y-73180891D01*
X90501686Y-73187456D01*
X90502871Y-73198726D01*
X90520958Y-73370819D01*
X90579973Y-73552447D01*
X90675460Y-73717835D01*
X90803247Y-73859757D01*
X90877906Y-73914000D01*
X90931461Y-73952910D01*
X90957748Y-73972009D01*
X90963776Y-73974693D01*
X90963778Y-73974694D01*
X91126181Y-74047000D01*
X91132212Y-74049685D01*
X91225612Y-74069538D01*
X91312556Y-74088019D01*
X91312561Y-74088019D01*
X91319013Y-74089391D01*
X91509987Y-74089391D01*
X91516439Y-74088019D01*
X91516444Y-74088019D01*
X91603388Y-74069538D01*
X91696788Y-74049685D01*
X91702819Y-74047000D01*
X91865222Y-73974694D01*
X91865224Y-73974693D01*
X91871252Y-73972009D01*
X91897540Y-73952910D01*
X91951094Y-73914000D01*
X92025753Y-73859757D01*
X92153540Y-73717835D01*
X92249027Y-73552447D01*
X92308042Y-73370819D01*
X92326130Y-73198726D01*
X92327314Y-73187456D01*
X92328004Y-73180891D01*
X92312436Y-73032771D01*
X92308732Y-72997526D01*
X92308732Y-72997524D01*
X92308042Y-72990963D01*
X92249027Y-72809335D01*
X92153540Y-72643947D01*
X92074451Y-72556109D01*
X92030175Y-72506936D01*
X92030174Y-72506935D01*
X92025753Y-72502025D01*
X91871252Y-72389773D01*
X91865224Y-72387089D01*
X91865222Y-72387088D01*
X91702819Y-72314782D01*
X91702818Y-72314782D01*
X91696788Y-72312097D01*
X91593870Y-72290221D01*
X91516444Y-72273763D01*
X91516439Y-72273763D01*
X91509987Y-72272391D01*
X91319013Y-72272391D01*
X91312561Y-72273763D01*
X91312556Y-72273763D01*
X91235130Y-72290221D01*
X91132212Y-72312097D01*
X91126182Y-72314782D01*
X91126181Y-72314782D01*
X90963778Y-72387088D01*
X90963776Y-72387089D01*
X90957748Y-72389773D01*
X90803247Y-72502025D01*
X90798826Y-72506935D01*
X90798825Y-72506936D01*
X90754550Y-72556109D01*
X90675460Y-72643947D01*
X90579973Y-72809335D01*
X90520958Y-72990963D01*
X90520268Y-72997524D01*
X90520268Y-72997526D01*
X90516564Y-73032771D01*
X90500996Y-73180891D01*
X73777638Y-73180891D01*
X73859527Y-73039056D01*
X73918542Y-72857428D01*
X73928676Y-72761014D01*
X73937814Y-72674065D01*
X73938504Y-72667500D01*
X73937738Y-72660215D01*
X73919232Y-72484135D01*
X73919232Y-72484133D01*
X73918542Y-72477572D01*
X73859527Y-72295944D01*
X73764040Y-72130556D01*
X73636253Y-71988634D01*
X73481752Y-71876382D01*
X73475724Y-71873698D01*
X73475722Y-71873697D01*
X73313319Y-71801391D01*
X73313318Y-71801391D01*
X73307288Y-71798706D01*
X73213887Y-71778853D01*
X73126944Y-71760372D01*
X73126939Y-71760372D01*
X73120487Y-71759000D01*
X72929513Y-71759000D01*
X72923061Y-71760372D01*
X72923056Y-71760372D01*
X72836113Y-71778853D01*
X72742712Y-71798706D01*
X72736682Y-71801391D01*
X72736681Y-71801391D01*
X72574278Y-71873697D01*
X72574276Y-71873698D01*
X72568248Y-71876382D01*
X72413747Y-71988634D01*
X72285960Y-72130556D01*
X72190473Y-72295944D01*
X72131458Y-72477572D01*
X72130768Y-72484133D01*
X72130768Y-72484135D01*
X72112262Y-72660215D01*
X72111496Y-72667500D01*
X58187174Y-72667500D01*
X58170157Y-72655136D01*
X58120094Y-72618763D01*
X58120093Y-72618762D01*
X58114752Y-72614882D01*
X58108724Y-72612198D01*
X58108722Y-72612197D01*
X57946319Y-72539891D01*
X57946318Y-72539891D01*
X57940288Y-72537206D01*
X57846888Y-72517353D01*
X57759944Y-72498872D01*
X57759939Y-72498872D01*
X57753487Y-72497500D01*
X57562513Y-72497500D01*
X57556061Y-72498872D01*
X57556056Y-72498872D01*
X57469112Y-72517353D01*
X57375712Y-72537206D01*
X57369682Y-72539891D01*
X57369681Y-72539891D01*
X57207278Y-72612197D01*
X57207276Y-72612198D01*
X57201248Y-72614882D01*
X57195907Y-72618762D01*
X57195906Y-72618763D01*
X57145843Y-72655136D01*
X57046747Y-72727134D01*
X57042326Y-72732044D01*
X57042325Y-72732045D01*
X56951492Y-72832926D01*
X56918960Y-72869056D01*
X56823473Y-73034444D01*
X56764458Y-73216072D01*
X56763768Y-73222633D01*
X56763768Y-73222635D01*
X56751280Y-73341455D01*
X56744496Y-73406000D01*
X54150344Y-73406000D01*
X54163875Y-73402027D01*
X54165180Y-73392947D01*
X54123214Y-73225875D01*
X54119894Y-73216124D01*
X54034972Y-73020814D01*
X54030105Y-73011739D01*
X53914426Y-72832926D01*
X53908136Y-72824757D01*
X53764806Y-72667240D01*
X53757273Y-72660215D01*
X53590139Y-72528222D01*
X53581552Y-72522517D01*
X53395117Y-72419599D01*
X53385705Y-72415369D01*
X53184959Y-72344280D01*
X53174988Y-72341646D01*
X53103837Y-72328972D01*
X53090540Y-72330432D01*
X53086000Y-72344989D01*
X53086000Y-73387885D01*
X52578000Y-73387885D01*
X52578000Y-72343102D01*
X52574082Y-72329758D01*
X52559806Y-72327771D01*
X52521324Y-72333660D01*
X52511288Y-72336051D01*
X52308868Y-72402212D01*
X52299359Y-72406209D01*
X52110463Y-72504542D01*
X52101738Y-72510036D01*
X51931433Y-72637905D01*
X51923726Y-72644748D01*
X51846478Y-72725584D01*
X51784954Y-72761014D01*
X51714042Y-72757557D01*
X51656255Y-72716311D01*
X51637402Y-72682763D01*
X51595767Y-72571703D01*
X51592615Y-72563295D01*
X51505261Y-72446739D01*
X51388705Y-72359385D01*
X51252316Y-72308255D01*
X51190134Y-72301500D01*
X49393866Y-72301500D01*
X49331684Y-72308255D01*
X49195295Y-72359385D01*
X49078739Y-72446739D01*
X48991385Y-72563295D01*
X48940255Y-72699684D01*
X48933500Y-72761866D01*
X48933500Y-74558134D01*
X24638500Y-74558134D01*
X24638500Y-68934895D01*
X24658502Y-68866774D01*
X24712158Y-68820281D01*
X24782432Y-68810177D01*
X24847012Y-68839671D01*
X24882131Y-68889741D01*
X24928468Y-69010453D01*
X24929966Y-69013393D01*
X25100190Y-69347475D01*
X25104938Y-69356794D01*
X25106734Y-69359560D01*
X25106736Y-69359563D01*
X25243451Y-69570087D01*
X25316643Y-69682793D01*
X25561266Y-69984876D01*
X25836124Y-70259734D01*
X25838682Y-70261806D01*
X25838686Y-70261809D01*
X25987166Y-70382046D01*
X26138207Y-70504357D01*
X26140970Y-70506152D01*
X26140971Y-70506152D01*
X26338024Y-70634119D01*
X26464205Y-70716062D01*
X26467139Y-70717557D01*
X26467146Y-70717561D01*
X26658774Y-70815200D01*
X26810547Y-70892532D01*
X27173438Y-71031833D01*
X27548901Y-71132438D01*
X27752793Y-71164732D01*
X27929576Y-71192732D01*
X27929584Y-71192733D01*
X27932824Y-71193246D01*
X28321000Y-71213589D01*
X28709176Y-71193246D01*
X28712416Y-71192733D01*
X28712424Y-71192732D01*
X28889207Y-71164732D01*
X29093099Y-71132438D01*
X29468562Y-71031833D01*
X29831453Y-70892532D01*
X29983226Y-70815200D01*
X81585696Y-70815200D01*
X81605658Y-71005128D01*
X81664673Y-71186756D01*
X81760160Y-71352144D01*
X81887947Y-71494066D01*
X82042448Y-71606318D01*
X82048476Y-71609002D01*
X82048478Y-71609003D01*
X82210881Y-71681309D01*
X82216912Y-71683994D01*
X82310313Y-71703847D01*
X82397256Y-71722328D01*
X82397261Y-71722328D01*
X82403713Y-71723700D01*
X82594687Y-71723700D01*
X82601139Y-71722328D01*
X82601144Y-71722328D01*
X82688087Y-71703847D01*
X82781488Y-71683994D01*
X82787519Y-71681309D01*
X82949922Y-71609003D01*
X82949924Y-71609002D01*
X82955952Y-71606318D01*
X83110453Y-71494066D01*
X83238240Y-71352144D01*
X83333727Y-71186756D01*
X83392742Y-71005128D01*
X83412704Y-70815200D01*
X83395919Y-70655498D01*
X83393432Y-70631835D01*
X83393432Y-70631833D01*
X83392742Y-70625272D01*
X83333727Y-70443644D01*
X83238240Y-70278256D01*
X83219459Y-70257397D01*
X83114875Y-70141245D01*
X83114874Y-70141244D01*
X83110453Y-70136334D01*
X82955952Y-70024082D01*
X82949924Y-70021398D01*
X82949922Y-70021397D01*
X82787519Y-69949091D01*
X82787518Y-69949091D01*
X82781488Y-69946406D01*
X82688088Y-69926553D01*
X82601144Y-69908072D01*
X82601139Y-69908072D01*
X82594687Y-69906700D01*
X82403713Y-69906700D01*
X82397261Y-69908072D01*
X82397256Y-69908072D01*
X82310312Y-69926553D01*
X82216912Y-69946406D01*
X82210882Y-69949091D01*
X82210881Y-69949091D01*
X82048478Y-70021397D01*
X82048476Y-70021398D01*
X82042448Y-70024082D01*
X81887947Y-70136334D01*
X81883526Y-70141244D01*
X81883525Y-70141245D01*
X81778942Y-70257397D01*
X81760160Y-70278256D01*
X81664673Y-70443644D01*
X81605658Y-70625272D01*
X81604968Y-70631833D01*
X81604968Y-70631835D01*
X81602481Y-70655498D01*
X81585696Y-70815200D01*
X29983226Y-70815200D01*
X30174854Y-70717561D01*
X30174861Y-70717557D01*
X30177795Y-70716062D01*
X30303977Y-70634119D01*
X30501029Y-70506152D01*
X30501030Y-70506152D01*
X30503793Y-70504357D01*
X30654834Y-70382046D01*
X30803314Y-70261809D01*
X30803318Y-70261806D01*
X30805876Y-70259734D01*
X31080734Y-69984876D01*
X31325357Y-69682793D01*
X31398549Y-69570087D01*
X31535264Y-69359563D01*
X31535266Y-69359560D01*
X31537062Y-69356794D01*
X31541811Y-69347475D01*
X31544601Y-69342000D01*
X59265502Y-69342000D01*
X59285457Y-69570087D01*
X59344716Y-69791243D01*
X59347039Y-69796224D01*
X59347039Y-69796225D01*
X59439151Y-69993762D01*
X59439154Y-69993767D01*
X59441477Y-69998749D01*
X59572802Y-70186300D01*
X59734700Y-70348198D01*
X59739208Y-70351355D01*
X59739211Y-70351357D01*
X59817389Y-70406098D01*
X59922251Y-70479523D01*
X59927233Y-70481846D01*
X59927238Y-70481849D01*
X59979357Y-70506152D01*
X60129757Y-70576284D01*
X60135065Y-70577706D01*
X60135067Y-70577707D01*
X60345598Y-70634119D01*
X60345600Y-70634119D01*
X60350913Y-70635543D01*
X60579000Y-70655498D01*
X60807087Y-70635543D01*
X60812400Y-70634119D01*
X60812402Y-70634119D01*
X61022933Y-70577707D01*
X61022935Y-70577706D01*
X61028243Y-70576284D01*
X61178643Y-70506152D01*
X61230762Y-70481849D01*
X61230767Y-70481846D01*
X61235749Y-70479523D01*
X61340611Y-70406098D01*
X61418789Y-70351357D01*
X61418792Y-70351355D01*
X61423300Y-70348198D01*
X61585198Y-70186300D01*
X61716523Y-69998749D01*
X61718846Y-69993767D01*
X61718849Y-69993762D01*
X61810961Y-69796225D01*
X61810961Y-69796224D01*
X61813284Y-69791243D01*
X61872543Y-69570087D01*
X61892498Y-69342000D01*
X61872543Y-69113913D01*
X61813284Y-68892757D01*
X61718971Y-68690500D01*
X61718849Y-68690238D01*
X61718846Y-68690233D01*
X61716523Y-68685251D01*
X61627853Y-68558617D01*
X61588357Y-68502211D01*
X61588355Y-68502208D01*
X61585198Y-68497700D01*
X61423300Y-68335802D01*
X61418792Y-68332645D01*
X61418789Y-68332643D01*
X61240253Y-68207631D01*
X61235749Y-68204477D01*
X61230765Y-68202153D01*
X61228472Y-68200829D01*
X61179479Y-68149447D01*
X61166043Y-68079733D01*
X61192429Y-68013822D01*
X61228472Y-67982591D01*
X61240002Y-67975934D01*
X61284180Y-67945000D01*
X87351496Y-67945000D01*
X87371458Y-68134928D01*
X87430473Y-68316556D01*
X87525960Y-68481944D01*
X87530378Y-68486851D01*
X87530379Y-68486852D01*
X87597942Y-68561888D01*
X87653747Y-68623866D01*
X87808248Y-68736118D01*
X87814276Y-68738802D01*
X87814278Y-68738803D01*
X87972250Y-68809136D01*
X87982712Y-68813794D01*
X88074541Y-68833313D01*
X88163056Y-68852128D01*
X88163061Y-68852128D01*
X88169513Y-68853500D01*
X88360487Y-68853500D01*
X88366939Y-68852128D01*
X88366944Y-68852128D01*
X88455459Y-68833313D01*
X88547288Y-68813794D01*
X88557750Y-68809136D01*
X88715722Y-68738803D01*
X88715724Y-68738802D01*
X88721752Y-68736118D01*
X88876253Y-68623866D01*
X88932058Y-68561888D01*
X88999621Y-68486852D01*
X88999622Y-68486851D01*
X89004040Y-68481944D01*
X89099527Y-68316556D01*
X89158542Y-68134928D01*
X89178504Y-67945000D01*
X89175410Y-67915566D01*
X89159232Y-67761635D01*
X89159232Y-67761633D01*
X89158542Y-67755072D01*
X89099527Y-67573444D01*
X89090078Y-67557077D01*
X89007341Y-67413774D01*
X89004040Y-67408056D01*
X88958744Y-67357749D01*
X88880675Y-67271045D01*
X88880674Y-67271044D01*
X88876253Y-67266134D01*
X88749706Y-67174192D01*
X88727094Y-67157763D01*
X88727093Y-67157762D01*
X88721752Y-67153882D01*
X88715724Y-67151198D01*
X88715722Y-67151197D01*
X88553319Y-67078891D01*
X88553318Y-67078891D01*
X88547288Y-67076206D01*
X88434721Y-67052279D01*
X88366944Y-67037872D01*
X88366939Y-67037872D01*
X88360487Y-67036500D01*
X88169513Y-67036500D01*
X88163061Y-67037872D01*
X88163056Y-67037872D01*
X88095279Y-67052279D01*
X87982712Y-67076206D01*
X87976682Y-67078891D01*
X87976681Y-67078891D01*
X87814278Y-67151197D01*
X87814276Y-67151198D01*
X87808248Y-67153882D01*
X87802907Y-67157762D01*
X87802906Y-67157763D01*
X87780294Y-67174192D01*
X87653747Y-67266134D01*
X87649326Y-67271044D01*
X87649325Y-67271045D01*
X87571257Y-67357749D01*
X87525960Y-67408056D01*
X87522659Y-67413774D01*
X87439923Y-67557077D01*
X87430473Y-67573444D01*
X87371458Y-67755072D01*
X87370768Y-67761633D01*
X87370768Y-67761635D01*
X87354590Y-67915566D01*
X87351496Y-67945000D01*
X61284180Y-67945000D01*
X61292048Y-67939491D01*
X61300424Y-67929012D01*
X61293356Y-67915566D01*
X60591812Y-67214022D01*
X60577868Y-67206408D01*
X60576035Y-67206539D01*
X60569420Y-67210790D01*
X59863923Y-67916287D01*
X59857493Y-67928062D01*
X59866789Y-67940077D01*
X59917998Y-67975934D01*
X59929528Y-67982591D01*
X59978521Y-68033973D01*
X59991958Y-68103687D01*
X59965571Y-68169598D01*
X59929528Y-68200829D01*
X59927235Y-68202153D01*
X59922251Y-68204477D01*
X59917747Y-68207631D01*
X59739211Y-68332643D01*
X59739208Y-68332645D01*
X59734700Y-68335802D01*
X59572802Y-68497700D01*
X59569645Y-68502208D01*
X59569643Y-68502211D01*
X59530147Y-68558617D01*
X59441477Y-68685251D01*
X59439154Y-68690233D01*
X59439151Y-68690238D01*
X59439029Y-68690500D01*
X59344716Y-68892757D01*
X59285457Y-69113913D01*
X59265502Y-69342000D01*
X31544601Y-69342000D01*
X31712034Y-69013393D01*
X31713532Y-69010453D01*
X31817809Y-68738803D01*
X31851647Y-68650652D01*
X31851648Y-68650650D01*
X31852833Y-68647562D01*
X31953438Y-68272099D01*
X31960085Y-68230134D01*
X46137500Y-68230134D01*
X46144255Y-68292316D01*
X46195385Y-68428705D01*
X46282739Y-68545261D01*
X46399295Y-68632615D01*
X46535684Y-68683745D01*
X46597866Y-68690500D01*
X49494134Y-68690500D01*
X49556316Y-68683745D01*
X49692705Y-68632615D01*
X49809261Y-68545261D01*
X49896615Y-68428705D01*
X49944937Y-68299806D01*
X51893361Y-68299806D01*
X51900751Y-68310108D01*
X51942630Y-68344203D01*
X51949909Y-68349318D01*
X52173756Y-68484085D01*
X52181670Y-68488118D01*
X52422286Y-68590006D01*
X52430691Y-68592883D01*
X52683257Y-68659850D01*
X52691989Y-68661516D01*
X52951474Y-68692227D01*
X52960340Y-68692645D01*
X53221561Y-68686490D01*
X53230414Y-68685653D01*
X53488162Y-68642752D01*
X53496796Y-68640679D01*
X53745930Y-68561888D01*
X53754192Y-68558617D01*
X53989731Y-68445513D01*
X53997455Y-68441107D01*
X54191268Y-68311606D01*
X54199556Y-68301688D01*
X54192299Y-68287509D01*
X53058812Y-67154022D01*
X53044868Y-67146408D01*
X53043035Y-67146539D01*
X53036420Y-67150790D01*
X51900527Y-68286683D01*
X51893361Y-68299806D01*
X49944937Y-68299806D01*
X49947745Y-68292316D01*
X49954500Y-68230134D01*
X49954500Y-66726367D01*
X51134245Y-66726367D01*
X51144503Y-66987459D01*
X51145478Y-66996288D01*
X51192422Y-67253332D01*
X51194631Y-67261934D01*
X51277324Y-67509796D01*
X51280728Y-67518014D01*
X51397519Y-67751750D01*
X51402043Y-67759398D01*
X51517352Y-67926235D01*
X51527673Y-67934589D01*
X51541323Y-67927467D01*
X52673978Y-66794812D01*
X52680356Y-66783132D01*
X53410408Y-66783132D01*
X53410539Y-66784965D01*
X53414790Y-66791580D01*
X54551517Y-67928307D01*
X54564917Y-67935624D01*
X54574821Y-67928637D01*
X54590686Y-67909763D01*
X54595905Y-67902580D01*
X54734171Y-67680876D01*
X54738333Y-67673017D01*
X54843988Y-67434030D01*
X54846994Y-67425680D01*
X54917921Y-67174192D01*
X54919722Y-67165499D01*
X54954672Y-66905292D01*
X54955200Y-66898899D01*
X54956816Y-66847475D01*
X59266483Y-66847475D01*
X59285472Y-67064519D01*
X59287375Y-67075312D01*
X59343764Y-67285761D01*
X59347510Y-67296053D01*
X59439586Y-67493511D01*
X59445069Y-67503006D01*
X59481509Y-67555048D01*
X59491988Y-67563424D01*
X59505434Y-67556356D01*
X60206978Y-66854812D01*
X60213356Y-66843132D01*
X60943408Y-66843132D01*
X60943539Y-66844965D01*
X60947790Y-66851580D01*
X61653287Y-67557077D01*
X61665062Y-67563507D01*
X61677077Y-67554211D01*
X61712931Y-67503006D01*
X61718414Y-67493511D01*
X61810490Y-67296053D01*
X61814236Y-67285761D01*
X61870625Y-67075312D01*
X61872528Y-67064519D01*
X61891517Y-66847475D01*
X61891517Y-66836525D01*
X61872528Y-66619481D01*
X61870625Y-66608688D01*
X61814236Y-66398239D01*
X61810490Y-66387947D01*
X61718414Y-66190489D01*
X61712931Y-66180994D01*
X61676491Y-66128952D01*
X61666012Y-66120576D01*
X61652566Y-66127644D01*
X60951022Y-66829188D01*
X60943408Y-66843132D01*
X60213356Y-66843132D01*
X60214592Y-66840868D01*
X60214461Y-66839035D01*
X60210210Y-66832420D01*
X59504713Y-66126923D01*
X59492938Y-66120493D01*
X59480923Y-66129789D01*
X59445069Y-66180994D01*
X59439586Y-66190489D01*
X59347510Y-66387947D01*
X59343764Y-66398239D01*
X59287375Y-66608688D01*
X59285472Y-66619481D01*
X59266483Y-66836525D01*
X59266483Y-66847475D01*
X54956816Y-66847475D01*
X54958773Y-66785222D01*
X54958646Y-66778779D01*
X54940106Y-66516923D01*
X54938853Y-66508119D01*
X54883858Y-66252677D01*
X54881379Y-66244144D01*
X54790941Y-65999002D01*
X54787286Y-65990907D01*
X54663206Y-65760947D01*
X54659424Y-65754988D01*
X59857576Y-65754988D01*
X59864644Y-65768434D01*
X60566188Y-66469978D01*
X60580132Y-66477592D01*
X60581965Y-66477461D01*
X60588580Y-66473210D01*
X61261824Y-65799966D01*
X66486257Y-65799966D01*
X66516565Y-65934446D01*
X66519645Y-65944275D01*
X66599770Y-66141603D01*
X66604413Y-66150794D01*
X66715694Y-66332388D01*
X66721777Y-66340699D01*
X66861213Y-66501667D01*
X66868580Y-66508883D01*
X67032434Y-66644916D01*
X67040881Y-66650831D01*
X67224756Y-66758279D01*
X67234042Y-66762729D01*
X67433001Y-66838703D01*
X67442899Y-66841579D01*
X67546250Y-66862606D01*
X67560299Y-66861410D01*
X67564000Y-66851065D01*
X67564000Y-65804115D01*
X67559525Y-65788876D01*
X67558135Y-65787671D01*
X67550452Y-65786000D01*
X66501225Y-65786000D01*
X66487694Y-65789973D01*
X66486257Y-65799966D01*
X61261824Y-65799966D01*
X61294077Y-65767713D01*
X61300507Y-65755938D01*
X61291211Y-65743923D01*
X61240006Y-65708069D01*
X61230511Y-65702586D01*
X61033053Y-65610510D01*
X61022761Y-65606764D01*
X60812312Y-65550375D01*
X60801519Y-65548472D01*
X60584475Y-65529483D01*
X60573525Y-65529483D01*
X60356481Y-65548472D01*
X60345688Y-65550375D01*
X60135239Y-65606764D01*
X60124947Y-65610510D01*
X59927489Y-65702586D01*
X59917994Y-65708069D01*
X59865952Y-65744509D01*
X59857576Y-65754988D01*
X54659424Y-65754988D01*
X54658447Y-65753449D01*
X54573759Y-65638790D01*
X54562631Y-65630348D01*
X54550038Y-65637172D01*
X53418022Y-66769188D01*
X53410408Y-66783132D01*
X52680356Y-66783132D01*
X52681592Y-66780868D01*
X52681461Y-66779035D01*
X52677210Y-66772420D01*
X51541819Y-65637029D01*
X51528978Y-65630017D01*
X51518289Y-65637813D01*
X51466663Y-65703299D01*
X51461658Y-65710663D01*
X51330420Y-65936605D01*
X51326516Y-65944575D01*
X51228420Y-66186763D01*
X51225676Y-66195207D01*
X51162683Y-66448800D01*
X51161156Y-66457551D01*
X51134524Y-66717483D01*
X51134245Y-66726367D01*
X49954500Y-66726367D01*
X49954500Y-65333866D01*
X49947745Y-65271684D01*
X49945122Y-65264688D01*
X51894045Y-65264688D01*
X51901025Y-65277815D01*
X53033188Y-66409978D01*
X53047132Y-66417592D01*
X53048965Y-66417461D01*
X53055580Y-66413210D01*
X54190804Y-65277986D01*
X54197658Y-65265434D01*
X54189450Y-65254363D01*
X54099762Y-65185916D01*
X54092313Y-65181023D01*
X53864353Y-65053359D01*
X53856303Y-65049571D01*
X53612617Y-64955295D01*
X53604127Y-64952683D01*
X53349578Y-64893683D01*
X53340800Y-64892293D01*
X53080478Y-64869746D01*
X53071607Y-64869606D01*
X52810696Y-64883965D01*
X52801886Y-64885079D01*
X52545607Y-64936055D01*
X52537050Y-64938396D01*
X52290496Y-65024980D01*
X52282362Y-65028500D01*
X52050477Y-65148955D01*
X52042905Y-65153594D01*
X51902447Y-65253967D01*
X51894045Y-65264688D01*
X49945122Y-65264688D01*
X49896615Y-65135295D01*
X49809261Y-65018739D01*
X49692705Y-64931385D01*
X49556316Y-64880255D01*
X49494134Y-64873500D01*
X46597866Y-64873500D01*
X46535684Y-64880255D01*
X46399295Y-64931385D01*
X46282739Y-65018739D01*
X46195385Y-65135295D01*
X46144255Y-65271684D01*
X46137500Y-65333866D01*
X46137500Y-68230134D01*
X31960085Y-68230134D01*
X31992020Y-68028502D01*
X32013732Y-67891424D01*
X32013733Y-67891416D01*
X32014246Y-67888176D01*
X32034589Y-67500000D01*
X32014246Y-67111824D01*
X32008388Y-67074834D01*
X31978410Y-66885567D01*
X31953438Y-66727901D01*
X31852833Y-66352438D01*
X31713532Y-65989547D01*
X31620115Y-65806206D01*
X31538561Y-65646147D01*
X31538557Y-65646140D01*
X31537062Y-65643206D01*
X31533144Y-65637172D01*
X31327152Y-65319971D01*
X31327152Y-65319970D01*
X31325357Y-65317207D01*
X31172228Y-65128109D01*
X31082809Y-65017686D01*
X31082806Y-65017682D01*
X31080734Y-65015124D01*
X30805876Y-64740266D01*
X30761854Y-64704617D01*
X30575743Y-64553907D01*
X30503793Y-64495643D01*
X30410865Y-64435295D01*
X30180564Y-64285736D01*
X30180561Y-64285734D01*
X30177795Y-64283938D01*
X30174861Y-64282443D01*
X30174854Y-64282439D01*
X30089646Y-64239024D01*
X30038031Y-64190276D01*
X30020965Y-64121361D01*
X30043866Y-64054159D01*
X30099463Y-64010007D01*
X30146687Y-64000757D01*
X67503996Y-63952678D01*
X67572142Y-63972592D01*
X67618704Y-64026188D01*
X67628898Y-64096449D01*
X67599489Y-64161068D01*
X67539812Y-64199528D01*
X67523218Y-64203228D01*
X67507319Y-64205661D01*
X67497293Y-64208050D01*
X67294868Y-64274212D01*
X67285359Y-64278209D01*
X67096463Y-64376542D01*
X67087738Y-64382036D01*
X66917433Y-64509905D01*
X66909726Y-64516748D01*
X66762590Y-64670717D01*
X66756104Y-64678727D01*
X66636098Y-64854649D01*
X66631000Y-64863623D01*
X66541338Y-65056783D01*
X66537775Y-65066470D01*
X66482389Y-65266183D01*
X66483912Y-65274607D01*
X66496292Y-65278000D01*
X67946000Y-65278000D01*
X68014121Y-65298002D01*
X68060614Y-65351658D01*
X68072000Y-65404000D01*
X68072000Y-66850517D01*
X68076064Y-66864359D01*
X68089478Y-66866393D01*
X68096184Y-66865534D01*
X68106262Y-66863392D01*
X68310255Y-66802191D01*
X68319842Y-66798433D01*
X68511095Y-66704739D01*
X68519945Y-66699464D01*
X68693328Y-66575792D01*
X68701200Y-66569139D01*
X68852052Y-66418812D01*
X68858730Y-66410965D01*
X68986022Y-66233819D01*
X68987279Y-66234722D01*
X69034373Y-66191362D01*
X69104311Y-66179145D01*
X69169751Y-66206678D01*
X69197579Y-66238511D01*
X69257987Y-66337088D01*
X69404250Y-66505938D01*
X69576126Y-66648632D01*
X69769000Y-66761338D01*
X69977692Y-66841030D01*
X69982760Y-66842061D01*
X69982763Y-66842062D01*
X70077862Y-66861410D01*
X70196597Y-66885567D01*
X70201772Y-66885757D01*
X70201774Y-66885757D01*
X70414673Y-66893564D01*
X70414677Y-66893564D01*
X70419837Y-66893753D01*
X70424957Y-66893097D01*
X70424959Y-66893097D01*
X70636288Y-66866025D01*
X70636289Y-66866025D01*
X70641416Y-66865368D01*
X70646366Y-66863883D01*
X70850429Y-66802661D01*
X70850434Y-66802659D01*
X70855384Y-66801174D01*
X71055994Y-66702896D01*
X71237860Y-66573173D01*
X71396096Y-66415489D01*
X71441403Y-66352438D01*
X71526453Y-66234077D01*
X71527776Y-66235028D01*
X71574645Y-66191857D01*
X71644580Y-66179625D01*
X71710026Y-66207144D01*
X71737875Y-66238994D01*
X71797987Y-66337088D01*
X71944250Y-66505938D01*
X72116126Y-66648632D01*
X72309000Y-66761338D01*
X72517692Y-66841030D01*
X72522760Y-66842061D01*
X72522763Y-66842062D01*
X72617862Y-66861410D01*
X72736597Y-66885567D01*
X72741772Y-66885757D01*
X72741774Y-66885757D01*
X72954673Y-66893564D01*
X72954677Y-66893564D01*
X72959837Y-66893753D01*
X72964957Y-66893097D01*
X72964959Y-66893097D01*
X73176288Y-66866025D01*
X73176289Y-66866025D01*
X73181416Y-66865368D01*
X73186366Y-66863883D01*
X73390429Y-66802661D01*
X73390434Y-66802659D01*
X73395384Y-66801174D01*
X73595994Y-66702896D01*
X73777860Y-66573173D01*
X73936096Y-66415489D01*
X73981403Y-66352438D01*
X74066453Y-66234077D01*
X74067776Y-66235028D01*
X74114645Y-66191857D01*
X74184580Y-66179625D01*
X74250026Y-66207144D01*
X74277875Y-66238994D01*
X74337987Y-66337088D01*
X74484250Y-66505938D01*
X74656126Y-66648632D01*
X74849000Y-66761338D01*
X75057692Y-66841030D01*
X75062760Y-66842061D01*
X75062763Y-66842062D01*
X75157862Y-66861410D01*
X75276597Y-66885567D01*
X75281772Y-66885757D01*
X75281774Y-66885757D01*
X75494673Y-66893564D01*
X75494677Y-66893564D01*
X75499837Y-66893753D01*
X75504957Y-66893097D01*
X75504959Y-66893097D01*
X75716288Y-66866025D01*
X75716289Y-66866025D01*
X75721416Y-66865368D01*
X75726366Y-66863883D01*
X75930429Y-66802661D01*
X75930434Y-66802659D01*
X75935384Y-66801174D01*
X76135994Y-66702896D01*
X76317860Y-66573173D01*
X76476096Y-66415489D01*
X76521403Y-66352438D01*
X76606453Y-66234077D01*
X76607776Y-66235028D01*
X76654645Y-66191857D01*
X76724580Y-66179625D01*
X76790026Y-66207144D01*
X76817875Y-66238994D01*
X76877987Y-66337088D01*
X77024250Y-66505938D01*
X77196126Y-66648632D01*
X77389000Y-66761338D01*
X77597692Y-66841030D01*
X77602760Y-66842061D01*
X77602763Y-66842062D01*
X77697862Y-66861410D01*
X77816597Y-66885567D01*
X77821772Y-66885757D01*
X77821774Y-66885757D01*
X78034673Y-66893564D01*
X78034677Y-66893564D01*
X78039837Y-66893753D01*
X78044957Y-66893097D01*
X78044959Y-66893097D01*
X78256288Y-66866025D01*
X78256289Y-66866025D01*
X78261416Y-66865368D01*
X78266366Y-66863883D01*
X78470429Y-66802661D01*
X78470434Y-66802659D01*
X78475384Y-66801174D01*
X78675994Y-66702896D01*
X78857860Y-66573173D01*
X79016096Y-66415489D01*
X79061403Y-66352438D01*
X79146453Y-66234077D01*
X79147776Y-66235028D01*
X79194645Y-66191857D01*
X79264580Y-66179625D01*
X79330026Y-66207144D01*
X79357875Y-66238994D01*
X79417987Y-66337088D01*
X79564250Y-66505938D01*
X79736126Y-66648632D01*
X79929000Y-66761338D01*
X80137692Y-66841030D01*
X80142760Y-66842061D01*
X80142763Y-66842062D01*
X80237862Y-66861410D01*
X80356597Y-66885567D01*
X80361772Y-66885757D01*
X80361774Y-66885757D01*
X80574673Y-66893564D01*
X80574677Y-66893564D01*
X80579837Y-66893753D01*
X80584957Y-66893097D01*
X80584959Y-66893097D01*
X80796288Y-66866025D01*
X80796289Y-66866025D01*
X80801416Y-66865368D01*
X80806366Y-66863883D01*
X81010429Y-66802661D01*
X81010434Y-66802659D01*
X81015384Y-66801174D01*
X81215994Y-66702896D01*
X81397860Y-66573173D01*
X81506091Y-66465319D01*
X81568462Y-66431404D01*
X81639268Y-66436592D01*
X81696030Y-66479238D01*
X81713012Y-66510341D01*
X81757385Y-66628705D01*
X81844739Y-66745261D01*
X81961295Y-66832615D01*
X82097684Y-66883745D01*
X82159866Y-66890500D01*
X83956134Y-66890500D01*
X84018316Y-66883745D01*
X84154705Y-66832615D01*
X84271261Y-66745261D01*
X84358615Y-66628705D01*
X84409745Y-66492316D01*
X84416500Y-66430134D01*
X84416500Y-64633866D01*
X84409745Y-64571684D01*
X84358615Y-64435295D01*
X84271261Y-64318739D01*
X84154705Y-64231385D01*
X84140022Y-64225880D01*
X84025714Y-64183028D01*
X84025711Y-64183027D01*
X84018316Y-64180255D01*
X84012204Y-64179591D01*
X83951233Y-64144760D01*
X83918412Y-64081806D01*
X83924838Y-64011100D01*
X83968469Y-63955093D01*
X84041863Y-63931394D01*
X95871726Y-63916169D01*
X95939872Y-63936083D01*
X95986434Y-63989679D01*
X95996628Y-64059940D01*
X95967219Y-64124559D01*
X95945949Y-64144105D01*
X95941919Y-64147033D01*
X95908747Y-64171134D01*
X95904326Y-64176044D01*
X95904325Y-64176045D01*
X95804089Y-64287369D01*
X95780960Y-64313056D01*
X95685473Y-64478444D01*
X95626458Y-64660072D01*
X95625768Y-64666633D01*
X95625768Y-64666635D01*
X95624497Y-64678727D01*
X95606496Y-64850000D01*
X95607186Y-64856565D01*
X95624986Y-65025919D01*
X95626458Y-65039928D01*
X95685473Y-65221556D01*
X95688776Y-65227278D01*
X95688777Y-65227279D01*
X95704414Y-65254363D01*
X95780960Y-65386944D01*
X95908747Y-65528866D01*
X96063248Y-65641118D01*
X96069274Y-65643801D01*
X96069281Y-65643805D01*
X96077341Y-65647393D01*
X96131437Y-65693373D01*
X96152087Y-65761300D01*
X96132735Y-65829608D01*
X96077341Y-65877607D01*
X96069281Y-65881195D01*
X96069274Y-65881199D01*
X96063248Y-65883882D01*
X95908747Y-65996134D01*
X95904326Y-66001044D01*
X95904325Y-66001045D01*
X95788404Y-66129789D01*
X95780960Y-66138056D01*
X95685473Y-66303444D01*
X95626458Y-66485072D01*
X95625768Y-66491633D01*
X95625768Y-66491635D01*
X95624265Y-66505938D01*
X95606496Y-66675000D01*
X95607186Y-66681565D01*
X95624624Y-66847475D01*
X95626458Y-66864928D01*
X95685473Y-67046556D01*
X95780960Y-67211944D01*
X95785378Y-67216851D01*
X95785379Y-67216852D01*
X95829753Y-67266134D01*
X95908747Y-67353866D01*
X96063248Y-67466118D01*
X96069276Y-67468802D01*
X96069278Y-67468803D01*
X96231681Y-67541109D01*
X96237712Y-67543794D01*
X96330063Y-67563424D01*
X96418056Y-67582128D01*
X96418061Y-67582128D01*
X96424513Y-67583500D01*
X96615487Y-67583500D01*
X96621939Y-67582128D01*
X96621944Y-67582128D01*
X96709937Y-67563424D01*
X96802288Y-67543794D01*
X96808319Y-67541109D01*
X96970722Y-67468803D01*
X96970724Y-67468802D01*
X96976752Y-67466118D01*
X97131253Y-67353866D01*
X97210247Y-67266134D01*
X97254621Y-67216852D01*
X97254622Y-67216851D01*
X97259040Y-67211944D01*
X97354527Y-67046556D01*
X97413542Y-66864928D01*
X97415377Y-66847475D01*
X97432814Y-66681565D01*
X97433504Y-66675000D01*
X97415735Y-66505938D01*
X97414232Y-66491635D01*
X97414232Y-66491633D01*
X97413542Y-66485072D01*
X97354527Y-66303444D01*
X97259040Y-66138056D01*
X97251597Y-66129789D01*
X97135675Y-66001045D01*
X97135674Y-66001044D01*
X97131253Y-65996134D01*
X96976752Y-65883882D01*
X96970726Y-65881199D01*
X96970719Y-65881195D01*
X96962659Y-65877607D01*
X96908563Y-65831627D01*
X96887913Y-65763700D01*
X96907265Y-65695392D01*
X96962659Y-65647393D01*
X96970719Y-65643805D01*
X96970726Y-65643801D01*
X96976752Y-65641118D01*
X97131253Y-65528866D01*
X97259040Y-65386944D01*
X97335586Y-65254363D01*
X97351223Y-65227279D01*
X97351224Y-65227278D01*
X97354527Y-65221556D01*
X97413542Y-65039928D01*
X97415015Y-65025919D01*
X97432814Y-64856565D01*
X97433504Y-64850000D01*
X97415503Y-64678727D01*
X97414232Y-64666635D01*
X97414232Y-64666633D01*
X97413542Y-64660072D01*
X97354527Y-64478444D01*
X97259040Y-64313056D01*
X97235912Y-64287369D01*
X97135675Y-64176045D01*
X97135674Y-64176044D01*
X97131253Y-64171134D01*
X97098051Y-64147011D01*
X97091758Y-64142439D01*
X97048404Y-64086216D01*
X97042329Y-64015480D01*
X97075461Y-63952689D01*
X97137281Y-63917777D01*
X97165653Y-63914503D01*
X113478821Y-63893508D01*
X117011399Y-63888962D01*
X117079545Y-63908876D01*
G37*
%TD.AperFunction*%
%TD*%
M02*
